<?xml version="1.0" encoding="utf-8"?>
<!-- Generator: Adobe Illustrator 21.0.2, SVG Export Plug-In . SVG Version: 6.00 Build 0)  -->
<svg version="1.1" xmlns="http://www.w3.org/2000/svg" xmlns:xlink="http://www.w3.org/1999/xlink" x="0px" y="0px"
	 viewBox="0 0 117.3 142.6" style="enable-background:new 0 0 117.3 142.6;" xml:space="preserve">
<style type="text/css">
	.st0{fill:#FFFFFF;stroke:#0D0E0F;stroke-width:3;stroke-miterlimit:10;}
	.st1{fill:#FFFFFF;stroke:#0D0E0F;stroke-miterlimit:10;}
	.st2{fill:none;stroke:#0D0E0F;stroke-miterlimit:10;}
</style>
<g id="Слой_1">
</g>
<g id="Слой_2">
</g>
<g id="Слой_3">
</g>
<g id="Слой_6">
</g>
<g id="Слой_5">
</g>
<g id="Слой_7">
</g>
<g id="Слой_4">
	<path class="st0" d="M77.1,5.9c0,0,26.5,8.9,33.5,92c0,0,3.5-2.5,4.4-15.3s-0.8-38.8-11.8-59.3S77.1,1.7,77.1,1.7V5.9z"/>
	<path class="st1" d="M2328-233.5l40.1,0.9c0,0,5.8-2,6.5-5.4s2-16.1-5.1-19.4c0,0-15.5-1.1-20.6-2.3s-13.1-1.5-17,0
		s-8.8,4-9.8,10.1S2321.5-240,2328-233.5z"/>
	<path class="st2" d="M2322.1-249.5c0,0,0.4,11.1,8.6,12.4s11.1-1.6,12.1-4.8s0.5-8.6-4.3-10.1s-9.1,1.7-9.5,5.4
		c-0.5,4.2,8.3,9.4,8.9,2c0,0-1.5-2.5-3.6-2"/>
	<path class="st2" d="M2342.5-233.2c0.3-0.6,8.9-6.8,7.9-15.1c-1-8.3-4.8-11.1-8.8-12.4"/>
	<path class="st2" d="M2356.1-232.6c-0.1-0.3,6.4-9.4,0-26"/>
	<path class="st2" d="M2361-232.6c-0.1-0.3,6.4-9.4,0-26"/>
	<path class="st0" d="M1.8,6.8l2.4,20.6c0,0,51.9-1.4,61,48.9c0,0,3,25.6-10.8,34.4s-24.9,16.2-38.8,17.2l1.5,13.2
		c0,0,45.7-2.4,53.1-31.1s11.8-37.5-3-65.3C67.2,44.6,53.2,10.8,1.8,6.8z"/>
</g>
</svg>
