<?xml version="1.0" encoding="utf-8"?>
<!-- Generator: Adobe Illustrator 21.0.2, SVG Export Plug-In . SVG Version: 6.00 Build 0)  -->
<svg version="1.1" xmlns="http://www.w3.org/2000/svg" xmlns:xlink="http://www.w3.org/1999/xlink" x="0px" y="0px"
	 viewBox="0 0 158.9 349.5" style="enable-background:new 0 0 158.9 349.5;" xml:space="preserve">
<style type="text/css">
	.st0{fill:#FFFFFF;stroke:#0D0E0F;stroke-linecap:round;stroke-linejoin:round;stroke-miterlimit:10;}
	.st1{fill:none;stroke:#0D0E0F;stroke-linecap:round;stroke-linejoin:round;stroke-miterlimit:10;}
	.st2{fill:#FFFFFF;stroke:#0D0E0F;stroke-miterlimit:10;}
	.st3{fill:none;stroke:#0D0E0F;stroke-miterlimit:10;}
	.st4{fill:#FFFFFF;stroke:#0D0E0F;stroke-width:3;stroke-miterlimit:10;}
	.st5{fill:none;stroke:#0D0E0F;stroke-width:3;stroke-miterlimit:10;}
</style>
<g id="Слой_1">
</g>
<g id="Слой_2">
</g>
<g id="Слой_3">
	<g>
		<path class="st0" d="M1152.7-712.5c0,0-11.2,1-11.2-8.2c0-7.2,10.2-6.8,10.2-6.8s1-9.7,12-8.5c0,0,4.5-17.6,23.7-9
			c0,0,7.4-10.5,25.9-2.9c5.8,2.4,6.9,11.6,6.9,11.6s6.9-2.1,8.9,5.1c0,0,7.9-1.2,9,9.3c0,0,0.1,2.9-3.7,6.8c0,0,1.8,8.6-6.6,11.3
			c-6.3,1.9-9.5-1.5-9.5-1.5s-13,15.3-26.8,0.4c0,0-14.4,9.3-22.9-4.4C1168.6-709.6,1158.4-704.1,1152.7-712.5z"/>
		<path class="st1" d="M1168.6-709.6"/>
		<path class="st1" d="M1168.6-709.6c0,0,4.1-3.9,4.8-5.6"/>
		<path class="st1" d="M1151.7-727.5c0,0,2.6,1.4,3.3,2"/>
		<path class="st1" d="M1163.7-736c0,0,5.4,0.1,6.9,3"/>
		<path class="st1" d="M1187.3-745c0,0,3,1.4,3.1,2.1"/>
		<path class="st1" d="M1220.2-736.3c0,0,1.2,8.2-3.6,11.7"/>
		<path class="st1" d="M1234.4-715.3c0,0-5.3,1.9-7.8,0.2"/>
	</g>
	<g>
		<path class="st0" d="M1089.8-503.8c0,0,0-10.5,11.3-7.3c0,0,2.8-5.9,8.3-2c0,0,3.1-10,12.8-4.9c0,0,1.6-9.2,9.9-7.1
			c0,0,10.3-24.3,29.9-8.6c0,0,11.1-5.9,17,5.5c0,0,2.4,6.5,0.8,9.8c0,0,9-3.5,10.8,4.4c0,0,8.4-4,12.4,3.1c0,0,12.9-13.8,20,3.4
			c0,0,3.5-0.9,4.3,2.8c0,0,8.1-8.2,12.9,2.9c0,0,5.3-5.8,9.6,1c0,0,4.1-2.6,6.6,1.9c0,0,9.4-6.5,9.3,1.3s-7.1,3.6-7.1,3.6
			s-4.8,3.8-8.1,0.1c0,0-6.6,6.4-11.8-0.8c0,0-6.9,6.3-12.6-0.3c0,0-6,5.3-9.9,0.4c0,0-9.9,7-15.6-0.4c0,0-7.3,7-15.7-0.3
			c0,0-9,3.8-15.8-4c0,0-15.6,10.7-24.7-1c0,0-5.1,8.5-14.6,2.1c0,0-8.5,10.4-16.7-1.1c0,0-12.3,6.3-17,0.1c0,0-4.1,8.5-9.5,0.9
			C1082.2-504.1,1089.8-503.8,1089.8-503.8z"/>
		<path class="st1" d="M1190.3-514c0,0,0.4,2.7,0,3.1"/>
		<line class="st1" x1="1202.7" y1="-510.9" x2="1202.2" y2="-508.2"/>
		<path class="st1" d="M1222.7-507.5c0,0,0.1,2.6-0.6,3.5"/>
		<path class="st1" d="M1215.9-494.6c0,0,2.5-1,3-2.3"/>
		<path class="st1" d="M1168.8-499.3c0,0,3.1-1.4,3.7-2.6"/>
		<path class="st1" d="M1144.1-500.3c0,0-1.3-2.9-1.1-4.6"/>
		<path class="st1" d="M1129.5-498.2c0,0-1.3-0.5-1.8-1.6"/>
		<path class="st1" d="M1122-517.9c0,0,1.4,2.5,2.7,3.3"/>
		<path class="st1" d="M1131.9-525c0,0-1.1,6.4,4.5,7.7"/>
		<path class="st0" d="M1269-500.3"/>
		<path class="st0" d="M1274-504c3.5-0.4,5,2.8,4.5,3.7c-0.5,0.9-3.8,2.6-6.7,1.3C1269-500.3,1267.7-503.3,1274-504z"/>
	</g>
	<g>
		<path class="st0" d="M926.8-502.1c0,0-6.1-12.6,13-16c0,0,1-6.9,7.9-4.8c0,0,5.1-11,18.4-9.8s18.4,12.9,18.4,12.9
			s13.4-7.9,22.4,2.3c4.4,5,2.8,13.5,2.8,13.5s10.9,0.3,6.8,13.1c0,0,7.7,3.9,4.9,9.5c-2.8,5.6-7.9,4.8-10.9,2.2
			c0,0-17.7,11.4-27.9-0.2c0,0-19.3,9.7-27.3-1.3c0,0-15.7,9.6-22.8-0.5c0,0-14.6,5.2-15.3-9.5C916.8-500.1,926.8-502.1,926.8-502.1
			z"/>
		<path class="st1" d="M1016.4-490.9c0,0-2.5,4.8-6.5,2.3"/>
		<path class="st1" d="M1009.6-504c0,0-1.2,3-3,3.8"/>
		<path class="st1" d="M984.4-519.8c0,0-1.3,1.3-2,2.4"/>
		<path class="st1" d="M947.7-522.9c0,0-0.6,2-0.6,3.1"/>
		<path class="st1" d="M939.8-518.1c0,0,5.4-0.5,6.3,0.8"/>
		<path class="st1" d="M926.8-502.1c0,0,2.4-0.8,4,1"/>
		<path class="st1" d="M932.5-481.3c0,0,1.6-0.8,2.1-1.4"/>
		<path class="st1" d="M982.5-479.4c0,0,0.9-0.2,1.9-1.8"/>
		<path class="st1" d="M1010.4-479.2c0,0,1.9-1.9,2.1-2.7"/>
	</g>
</g>
<g id="Слой_6">
</g>
<g id="Слой_5">
</g>
<g id="Слой_7">
</g>
<g id="Слой_4">
	<path class="st2" d="M2465.3-127.1l40.1,0.9c0,0,5.8-2,6.5-5.4s2-16.1-5.1-19.4c0,0-15.5-1.1-20.6-2.3s-13.1-1.5-17,0
		s-8.8,4-9.8,10.1S2458.8-133.6,2465.3-127.1z"/>
	<path class="st3" d="M2459.4-143.1c0,0,0.4,11.1,8.6,12.4s11.1-1.6,12.1-4.8s0.5-8.6-4.3-10.1s-9.1,1.7-9.5,5.4
		c-0.5,4.2,8.3,9.4,8.9,2c0,0-1.5-2.5-3.6-2"/>
	<path class="st3" d="M2479.8-126.8c0.3-0.6,8.9-6.8,7.9-15.1s-4.8-11.1-8.8-12.4"/>
	<path class="st3" d="M2493.4-126.3c-0.1-0.3,6.4-9.4,0-26"/>
	<path class="st3" d="M2498.3-126.3c-0.1-0.3,6.4-9.4,0-26"/>
	<g>
		<path class="st4" d="M157.2,282.6c0,0-0.5-31.1-2.8-35.1l-15.3-134.3c0,0,0-4.8-0.1-6.1c0,0,2.8-48.8-4.3-69.5
			c-7.1-20.7-8.9-23-22.3-27.1s-35.1-4-42.7-3.3C62.1,7.9,44.4,14,44.4,14s-13.8-0.3-26,37.1S6.3,136.7,7.9,145.2
			c1.7,8.4,5.1,43.2,5.4,52.3s5.7,60.4,8.8,75.9c3,15.5,12.2,60.4,43.3,73.8c1.6,0.7,29.1,1.8,56.4-3.8s29.3-9.9,30.8-13.4
			s1-15.9,2.3-18S157.2,282.6,157.2,282.6z M152.9,234.2"/>
		<g>
			<path class="st4" d="M22.6,69.5l116.5,7.7c0,0,3.2-6.9,8.4-14.5c11.2-16.3,5.4-43.4-13.8-52.1c0,0-41.7-3-55.5-6.1
				s-35.3-4-45.7,0S5,14.7,2.3,31.2S3,56.7,22.6,69.5z"/>
			<path class="st5" d="M8.7,18.2c0,0-17,33.2,20.8,46.8c21.1,7.6,29.9-4.4,32.6-12.8S63.5,29,50.7,25s-24.4,4.5-25.6,14.5
				C23.8,50.9,47.3,64.8,49,44.9c0,0-4-6.8-9.7-5.4"/>
			<path class="st5" d="M64,72.7c0.7-1.5,20.9-15.4,18.3-37.7S69.5,5.2,58.7,1.8"/>
			<path class="st5" d="M97.7,77.1c-0.3-0.7,17.1-25.3,0-69.8"/>
			<path class="st5" d="M110.9,77.1c-0.3-0.7,17.1-25.3,0-69.8"/>
		</g>
		<g>
			<path class="st4" d="M38.7,182c0,0-0.8,72.2,7.9,83s22.1,13.3,33,15.3S110,275,110,275s4.3-2.5,6.1-9.5c1.8-7.1,0-121.5,0-121.5
				s1.4-3.3-4.4-6.2c-5.8-2.9-43.6-6.2-51.9-2.9c-8.3,3.3-29,39-28.2,43.6S38.7,182,38.7,182z"/>
			<path class="st5" d="M38.7,182c0,0,48.7,1.5,51-0.6c2.4-2.1,7-9.1,8.6-12.9c1.5-3.6,7.3-23.9,15.6-28.8"/>
			<path class="st5" d="M65.1,133.7c-0.4,0.6-28.2,35.7-22.7,38.7s22.8,4.7,24.8,4.3c1.9-0.4,13.7-1.1,16.9-4.6
				c3.2-3.5,5.7-13.3,8.2-19.6c2.5-6.4,12.4-16.6,12.4-16.6"/>
			<path class="st4" d="M66.9,151.1c0,0-7.6,1.7-9.8,7.9c-1.7,4.8-2.1,20.7-2.5,28.7c-0.1,2.3-0.2,4-0.4,4.6
				c-0.7,2.6-0.1,48.4,2.9,51.3s7.2,4.3,9.8,3.9c2.6-0.4,4.3-7.3,3.9-10c-0.4-2.6-1.4-42.2-1.4-44.5c0-2.4,0.8-19.4,1.4-26.7
				c0.6-7.3,2-12.6,0.6-14.1C70.1,150.6,66.9,151.1,66.9,151.1z"/>
			<path class="st5" d="M53.9,187.3c0.7,0.4,15.6,0.8,15.6,0.8"/>
			<path class="st4" d="M92.2,178.7c0,0,4.6,84.5,2.9,88.7c-1.7,4.1-9,13.2-12.9,13.3"/>
		</g>
	</g>
</g>
</svg>
