<svg xmlns="http://www.w3.org/2000/svg" viewBox="0 0 101.48 101.52"><defs><style>.cls-1{fill:#fff;}.cls-1,.cls-2,.cls-3{stroke:#000105;stroke-linecap:round;stroke-linejoin:round;}.cls-2{fill:none;}.cls-3{fill:#000105;}</style></defs><title>Ресурс 3</title><g id="Слой_2" data-name="Слой 2"><g id="Camera"><path class="cls-1" d="M.5,43.74.72,54.44l.43,20.48c.09,4.38.35,8.8.27,13.19,0,.84-.15,1.66-.09,2.52a10,10,0,0,0,3.49,6.91A15.13,15.13,0,0,0,14.16,101a24,24,0,0,0,6.07-1,117.08,117.08,0,0,0,17.44-6.73c6.85-3.11,13.57-6.51,20.23-10Q67,78.45,76,73.36,81.62,70.22,87.16,67a4.63,4.63,0,0,0,1.37-.87,8.08,8.08,0,0,0,.65-2l1.29-3.89,3.24-9.78L95,46.61a14.81,14.81,0,0,0,.64-1.93,21.25,21.25,0,0,0,0-3.58V31.8c0-5.53.17-11.09,0-16.61a7.23,7.23,0,0,0-1.26-3,28.79,28.79,0,0,0-6-7.77,16.43,16.43,0,0,0-4.74-3A10.78,10.78,0,0,0,78,.61a23.2,23.2,0,0,0-2.87,1L58.5,7.28,40,13.63l-5.37,1.84c-.17.06-.76.15-.88.3s0,.7-.05.89l-.12,2.53c0,.61.17,1.74-.29,2.1a9.39,9.39,0,0,1-2.32.84q-4.88,1.78-9.7,3.7c-3.54,1.42-7.09,2.87-10.48,4.62A58.6,58.6,0,0,0,3.67,35C1,37,.81,40.69.5,43.74Z"/><path class="cls-2" d="M40.27,76.89c-1.29,2.23-3.66,4.3-6.38,4.26s-4.24-2.31-4.37-4.79a9.5,9.5,0,0,1,3.8-7.82c1.9-1.42,4.68-2.05,6.62-.33C42.37,70.39,41.73,74.37,40.27,76.89Z"/><path class="cls-3" d="M38.89,75.88c-1,1.65-3.12,3.36-5.11,2.43-2.22-1-1.85-4.12-.84-5.87S36.05,69.09,38,70C40.27,71,39.9,74.14,38.89,75.88Z"/><path class="cls-2" d="M.93,40.41A8.08,8.08,0,0,0,6.1,45.16c5.73,1.9,12.27-.91,17.49-3.18A156.61,156.61,0,0,0,40,33.5q2.6-1.52,5.16-3.11a4.72,4.72,0,0,0,1.14-.71c.17-.22.13-.34.13-.68V26a16.59,16.59,0,0,1,0-2.89c.1-.53.32-.48.88-.71q4-1.7,8.11-3.33C64,15.57,72.72,12.12,81.63,9.43c2.72-.82,6.77-2,9.66-1.86"/><path class="cls-3" d="M30.88,25.54c-.74-2.4-5.28-1.79-7-1.49-3.14.54-6.65,1.76-9,4-1.56,1.52-1.77,3.5.62,4.22,3.11.94,6.92-.08,9.8-1.29C27,30.29,31.68,28.13,30.88,25.54Z"/><path class="cls-2" d="M13.67,30.85l.17,2.35L14,34.71a3.05,3.05,0,0,0,.07,1c.36.56,2.23.8,2.82.92a14.46,14.46,0,0,0,7.09-.25,13.6,13.6,0,0,0,4.25-2.18c.83-.63,2.57-1.84,2.77-2.88a17.88,17.88,0,0,0,0-3.29l0-2.5"/><line class="cls-2" x1="33.48" y1="21.16" x2="46.4" y2="29.25"/><path class="cls-2" d="M68.7,5.6c-.91.63-2.22,1.64-2.37,2.81-.13,1,.87,1.58,1.7,1.82a4.58,4.58,0,0,0,3.47-.54C72.73,9,74.5,6.58,73,5.41S70.13,5,68.7,5.6Z"/><path class="cls-2" d="M.76,57.42C3,61.37,7.91,61.93,12,61.65A31,31,0,0,0,20.78,60a28.29,28.29,0,0,0,3.72-1.85L46,46.35c4.17-2.3,8.71-3.9,13.11-5.73,6.16-2.56,12.31-5.13,18.47-7.68,5.8-2.39,11.61-4.75,17.41-7.13l.67-.27"/><line class="cls-2" x1="63.54" y1="21.69" x2="63.87" y2="29.79"/><line class="cls-2" x1="61.4" y1="22.77" x2="61.4" y2="30.77"/><line class="cls-2" x1="59.12" y1="23.45" x2="59.39" y2="31.5"/><line class="cls-2" x1="56.81" y1="24.37" x2="56.97" y2="32.42"/><line class="cls-2" x1="54.57" y1="25.26" x2="54.74" y2="33.26"/><path class="cls-2" d="M52.48,26.09,52.74,34l9.11-3.47,3-1.12c.21-.08,1-.22,1.09-.41s0-.24,0-.35a12.34,12.34,0,0,0-.14-2.43l-.3-5.31L52.34,26.15"/><path class="cls-2" d="M71.22,20.66a3.44,3.44,0,0,1,.58-2.26A5.11,5.11,0,0,1,74.12,17c2.08-.84,4.18-1.63,6.27-2.42s4-1.5,6-2.16C87.93,12,89.7,12.14,90,14a61,61,0,0,1,.62,6.35c.1,2,.27,3.86-1.38,5.28s-4,1.79-5.86,2.41c-2.3.77-4.6,1.53-6.92,2.2a7.27,7.27,0,0,1-2.08.49,3.61,3.61,0,0,1-2.25-1.37C70.9,27.93,71,26.07,71,24.29,71,23.08,71.09,21.87,71.22,20.66Z"/><path class="cls-2" d="M1.38,85.86c2.64,4.05,7.39,7,12.3,6.84a21.8,21.8,0,0,0,5.88-1.4q3-1,5.91-2.07c4.41-1.62,8.77-3.4,13-5.41a68.89,68.89,0,0,0,12.45-7.2"/><path class="cls-3" d="M71.2,20.78l16.37-6.27,2.36-.9c.31,2.41.56,4.81.7,7.24,0,.59.25,1.94-.1,2.31s-1.61.54-2.09.71l-8.94,3-4.37,1.48a16.81,16.81,0,0,1-2.67.9c-.33,0-.19.13-.44,0-.84-.55-1-2.26-1-3.13C71,24.33,71.12,22.55,71.2,20.78Z"/><path class="cls-1" d="M41.17,65.75a15.93,15.93,0,0,1-.06-5.85,31.88,31.88,0,0,1,6.54-14.53c4.69-6.17,11-11.94,18.57-14.09A22,22,0,0,1,73,30.42a4.13,4.13,0,0,1,2.15.36,10.38,10.38,0,0,1,1.33,1.5l2.22,2.52,2.25,2.55c.38.43,1.18,1,1.4,1.58.15.39,0,.41-.37.81l-2,2.3L63.67,60.93l-8.18,9.49-2.83,3.29a12.81,12.81,0,0,1-1.6,1.86,1.69,1.69,0,0,0-.21.25Z"/><path class="cls-1" d="M50.14,78.62c-2.29-10,1.34-21.19,8.44-28.36a58.18,58.18,0,0,1,11.58-8.68,45.14,45.14,0,0,1,9-4.24,22,22,0,0,1,5.37-1.14,3.75,3.75,0,0,1,1.65.05c.43.21.86.85,1.19,1.18l2.45,2.43,5.73,5.68,1.93,1.91c.12.12.42.33.41.47,0,.41-1.12,1.34-1.37,1.64L78.58,71.14l-10,12-3.5,4.2c-.66.79-1.28,1.69-2,2.42-.1.1-.18.21-.26.32L51.73,80Z"/><path class="cls-1" d="M62.81,90.09c-4.22-7.28-4.36-17.95-.89-25.49A40.26,40.26,0,0,1,73.58,50a24.28,24.28,0,0,1,10.6-4.88,26.18,26.18,0,0,1,5.5-.19c2.45.1,5.38.15,7.51,1.54a6.63,6.63,0,0,1,2.28,3.3,21.2,21.2,0,0,1,1.37,5.52,23.54,23.54,0,0,1-4.49,16.33A72.34,72.34,0,0,1,86,83.37a17.8,17.8,0,0,1-4.55,3c-4.39,2-8.78,4.27-13.68,4.14A18.75,18.75,0,0,1,62.81,90.09Z"/><path class="cls-2" d="M60.83,68.35c-1.07,3.18-1.82,7.11.19,10,1.5,2.12,4.24,3.22,7.42,3.58a20.26,20.26,0,0,0,10.75-2.17,17.54,17.54,0,0,0,6.53-5.37A30.19,30.19,0,0,0,90,66.48a17.66,17.66,0,0,0,.25-10.89c-1-2.75-2.5-4.93-5.25-5.83-3-1-6.64-1.16-9.38.1-2.25,1-6.09,4.54-8.67,7.54-2.71,3.16-4.21,7.29-6.15,11C60.06,70.66,62.45,65.28,60.83,68.35Z"/><path class="cls-2" d="M61.68,74.28a9,9,0,0,0,4.91,4.18,12.45,12.45,0,0,0,6.22.25A26.76,26.76,0,0,0,79,76.49,16.85,16.85,0,0,0,87.9,66.4a22.26,22.26,0,0,0,1-5.65,12.89,12.89,0,0,0-1.46-6.38,6.25,6.25,0,0,0-1.15-1.55"/><path class="cls-3" d="M61.24,67.58c-.16.87.56,2.33.88,3.09a10.24,10.24,0,0,0,3.8,4.88c2.51,1.59,5.58,1.38,8.29.47a19.91,19.91,0,0,0,10-7.05,14.25,14.25,0,0,0,1.5-13.11c-.87-2.19-2.5-4.51-4.73-5.44-3.42-1.42-6.87,0-9.35,2.22a53.7,53.7,0,0,0-4.9,5.12,36.48,36.48,0,0,0-3.28,4.88A15.59,15.59,0,0,0,61.24,67.58Z"/><path class="cls-2" d="M2.29,63.24l11.6,4.07"/><path class="cls-2" d="M2.64,68.32l10.71,2.91"/><path class="cls-2" d="M3.51,73q5.4,1.79,10.92,3.23"/><path class="cls-2" d="M3.51,77.08c4.37,1.23,6.88,1.91,11.27,3"/><path class="cls-2" d="M3.26,82.07q2.36.16,4.7.53a76.14,76.14,0,0,1,8.33,1.88"/><path class="cls-2" d="M92.76,28.79,89.2,35.73"/><path class="cls-2" d="M93.22,34.1a32.7,32.7,0,0,1-1.87,4.78"/><path class="cls-2" d="M87.33,31.15a34.58,34.58,0,0,1-2,3.65"/><path class="cls-2" d="M2.71,47.7a43.75,43.75,0,0,1,9.22,4.07"/><path class="cls-2" d="M3.57,55.28a24.36,24.36,0,0,1,8.56,3.58"/><path class="cls-2" d="M94.26,47.8a14.91,14.91,0,0,0-3.06,5.63"/><path class="cls-2" d="M97,52.25A27.07,27.07,0,0,0,93.17,57"/><path class="cls-2" d="M97.83,56.39l-5.39,7.25"/><path class="cls-2" d="M69.91,84.12a18.79,18.79,0,0,0-3.38,4.3"/><path class="cls-2" d="M74.4,83.95a15.53,15.53,0,0,0-2.34,3.5"/><path class="cls-2" d="M5.2,94.55q4.26,1.22,8.42,2.75"/><path class="cls-2" d="M5.9,85.76A18.06,18.06,0,0,1,14,88.06"/></g></g></svg>