<svg xmlns="http://www.w3.org/2000/svg" viewBox="0 0 169.68 101"><defs><style>.cls-1{fill:#fff;}.cls-1,.cls-2{stroke:#000105;stroke-linecap:round;stroke-linejoin:round;}.cls-2{fill:none;}</style></defs><title>Ресурс 7</title><g id="Слой_2" data-name="Слой 2"><g id="Слой_10" data-name="Слой 10"><path class="cls-1" d="M.91,50.07a2.57,2.57,0,0,0,1.9.47,2.72,2.72,0,0,1,1.08.06.77.77,0,0,1,.55.83,1.1,1.1,0,0,1-.25.43L2.8,53.54a2.49,2.49,0,0,0-.59,1,.85.85,0,0,0,.43,1c.29.11.63,0,.9.14a1,1,0,0,1,.35,1,2.05,2.05,0,0,0,0,1.1c.32.68,1.37.59,1.87,1.14.36.39.37,1,.75,1.38a1.28,1.28,0,0,0,1.58,0,3.69,3.69,0,0,0,1-1.35,3.83,3.83,0,0,1,1-1.36c.83-.6,2-.44,2.94-.79a4.66,4.66,0,0,0,1.75-1.28,12.09,12.09,0,0,0,2.63-4.43c.36-1.07.47-2.45-.42-3.15s-2.16-.27-3.24,0a13.89,13.89,0,0,1-5.74.35c-1.26-.18-2.49-.51-3.76-.62a6.29,6.29,0,0,0-3,.37A1.18,1.18,0,0,0,.91,50.07Z"/><path class="cls-1" d="M59.43,92.19A3.17,3.17,0,0,1,59,93.37c-.38.48-1,.67-1.38,1.19a1.23,1.23,0,0,0,.24,1.55,1.79,1.79,0,0,0,1.62.23c.55-.15,1-.43,1.59-.61a.77.77,0,0,1,.39,0,.66.66,0,0,1,.41.37,2.78,2.78,0,0,1,.09,1.76,3.49,3.49,0,0,0,0,1.77,1.11,1.11,0,0,0,1.4.74c.44-.22.69-.85,1.18-.83s.6.38.88.63a1.64,1.64,0,0,0,2.16,0,3.11,3.11,0,0,1,.43-.41c.49-.32,1.14,0,1.73,0a2,2,0,0,0,1.82-1.43,4,4,0,0,0-.07-2.42c-.24-.79-.6-1.53-.85-2.31-.4-1.24-.52-2.57-.94-3.81a4.31,4.31,0,0,0-2.46-2.87,5.69,5.69,0,0,0-2.25-.12,6.49,6.49,0,0,0-2.4.27,4.38,4.38,0,0,0-1,1.18A11.16,11.16,0,0,0,59.43,92.19Z"/><path class="cls-1" d="M156.47,31.06a1,1,0,0,1,0-1c1.13-2.57,3.38-4.43,5.56-6.2.25-.2.57-.41.86-.26a.55.55,0,0,1,.26.35,1.37,1.37,0,0,1-.17,1,4.18,4.18,0,0,0-.4.9.84.84,0,0,0,.28.89,1.05,1.05,0,0,0,.73.09,4.52,4.52,0,0,0,1-.26,2.49,2.49,0,0,1,.59-.19.62.62,0,0,1,.56.2,1.53,1.53,0,0,1,.17.43,2.1,2.1,0,0,0,.78.87l1.24.94a.54.54,0,0,1,.23.27c.07.3-.34.46-.52.71a.53.53,0,0,0,.07.67c.32.3.9.11,1.24.39a.75.75,0,0,1,0,1,2,2,0,0,1-1,.53,34.55,34.55,0,0,1-9.9.87,1.33,1.33,0,0,1-.5-.07,1.35,1.35,0,0,1-.62-.86l-.6-1.65"/><path class="cls-1" d="M105.91,13.17a7.06,7.06,0,0,1-1.84-2.74,6.76,6.76,0,0,1-.16-1.93q0-1.94.15-3.88A3,3,0,0,1,104.48,3c.39-.53,1.13-.83,1.27-1.47.06-.26,0-.56.2-.75a.8.8,0,0,1,.5-.17l.89-.09a1.54,1.54,0,0,1,.85.07,1.17,1.17,0,0,1,.53,1.12c0,.44-.16.86-.19,1.3a.47.47,0,0,0,0,.25.41.41,0,0,0,.17.16,3.67,3.67,0,0,0,.73.23.81.81,0,0,1,.57.46c0,.14,0,.32.16.39s.39-.13.51-.32a1.63,1.63,0,0,1,.66-.57.5.5,0,0,1,.25-.06c.2,0,.33.24.36.44a1.25,1.25,0,0,1-.34.91,6.31,6.31,0,0,1-.75.67c-.29.25-.58.62-.45,1a.69.69,0,0,0,.76.37,1.86,1.86,0,0,0,.8-.41,1.33,1.33,0,0,1,1-.39.87.87,0,0,1,.56,1.09,2.58,2.58,0,0,1-.77,1.11q-1.22,1.23-2.39,2.5a19.09,19.09,0,0,1-2.53,2.45c-.41.31-1,.58-1.42.31s-.51-.86-1-1"/><path class="cls-1" d="M15.76,48.26S27.84,35.6,36.35,32.82,55.48,29.48,71,30.52s35.66-18.16,35.66-18.16S113.11,26,125.37,28.07,157.64,31,157.64,31V32.9s-7.2,3.69-10.13,6.62S131,56,116.54,57.19s-18-1-24.23,2.65S68.24,78,66.26,88.2a4.7,4.7,0,0,1-3.86-1.7c-1.8-2-26.75-31.58-33.55-34.32S27.91,51.24,15.76,48.26Z"/><path class="cls-2" d="M26,45.47S34.15,35.26,47.76,35s25.71,2.27,33.37-1.42,24.3-14,24.3-14,7.47,16.07,39.52,16c0,0-13.33,14.56-25.15,16.17s-24,.19-29.4,3S67.06,75,64.4,80.35c0,0-22.31-24.2-24.58-26.38S28.19,45.85,26,45.47Z"/><path class="cls-2" d="M56.84,50.29S75.37,41.22,79,35.73c0,0,35.36,3.59,38.48,2.65,0,0-22.12,12-23.16,13C94.27,51.43,61.56,48,56.84,50.29Z"/><path class="cls-2" d="M62.89,48.21s12.88-6,16.64-10.87c0,0,30.16,3.12,31.58,2.65,0,0-16.73,9.55-17.11,10C94,50,66,46.74,62.89,48.21Z"/><ellipse class="cls-2" cx="40.96" cy="43.58" rx="3.55" ry="2.34" transform="translate(-17.94 33.18) rotate(-36.76)"/><ellipse class="cls-2" cx="64.51" cy="67.59" rx="3.55" ry="2.34" transform="translate(-22.32 102.09) rotate(-68.01)"/><ellipse class="cls-2" cx="103.2" cy="27.44" rx="2.91" ry="1.99" transform="matrix(0.93, -0.38, 0.38, 0.93, -2.74, 40.86)"/><ellipse class="cls-2" cx="131.9" cy="40.08" rx="2.58" ry="1.99"/><path class="cls-2" d="M115.89,42.17l-5.42,8.38.29-.21"/><path class="cls-2" d="M123.14,41.22a48.34,48.34,0,0,1-3.87,7.63"/><path class="cls-2" d="M52.25,39.46a63.61,63.61,0,0,1-4.73,8.76"/><path class="cls-2" d="M59.75,38.84A56.67,56.67,0,0,1,53.6,49.31"/><path class="cls-2" d="M73.39,54.84a62.78,62.78,0,0,1-3.8,7.47"/><path class="cls-2" d="M79,55.08a48.54,48.54,0,0,1-3.12,5.83"/><path class="cls-2" d="M86.82,39.78a25.47,25.47,0,0,0-3.58,5.92"/><path class="cls-2" d="M94.73,41.94q-1.86,2.67-4,5.15"/><path class="cls-2" d="M160.09,30.51l6.11-1.59"/><path class="cls-2" d="M105.92,10.46A37.19,37.19,0,0,1,107,3"/><path class="cls-2" d="M7.66,57a14.82,14.82,0,0,1,4.71-4.3"/><path class="cls-2" d="M7.41,52.2c-.18-.4.33-.74.74-.88l5-1.66"/><path class="cls-2" d="M63.64,90l.06-.7-.58,6.2"/><path class="cls-2" d="M66.88,91.22A34.55,34.55,0,0,0,67.65,98"/></g></g></svg>