<svg xmlns="http://www.w3.org/2000/svg" viewBox="0 0 60.63 101.19"><defs><style>.cls-1{fill:#fff;}.cls-1,.cls-2,.cls-3{stroke:#000105;stroke-linecap:round;stroke-linejoin:round;}.cls-2{fill:none;}.cls-3{fill:#000105;}</style></defs><title>chewbacca</title><g id="Слой_2" data-name="Слой 2"><g id="Layer_10" data-name="Layer 10"><path class="cls-1" d="M6.12,16.74S9.3,9.28,12.76,7.46s3.09-4.28,8.46-6S28.13.91,29.5.73s8.64.73,12.28,5.19c0,0,.91-.73,1.91.73s.91,2.82,2.37,5A57.17,57.17,0,0,1,49,17.38a7.08,7.08,0,0,1,.64,3.46c0,.45,6.46,8.46,6,12.1,0,0-1.73-.27-1.73-.55,0,0-.09,7.19,1.36,10.46s2.91,2.37,1.82,5.37-2.09,5.37-1.91,8a32.82,32.82,0,0,0,4,11.92c2.18,3.55,0,.56,0,.56s1.18,1.53-1.46,4.17S55,76,54.88,76.52s-1.55-4.09-1.27-6.28S52.43,66.51,51,67.15s-2.27,2.64-1.55,5.1,1.64,1.46,1.27,4.28-.73,4.37-1.18,6.64.18,3.91-1.46,3.73-2.73-3.46-2.82-5.55a8.2,8.2,0,0,0-1.73-4.09,17.75,17.75,0,0,1-.18,5.91c-.64,3.55.27,4.76-1.09,3.74s-2.37-4.11-2.37-4.11-.27,1.45-.91,4.45.45,3.1-2,4.92-2.73,1.18-2.73,3.64,1.18,3.46.18,4.46-3.37.27-3.82-2.82-.91-10.83-1.91-13.37-1.73-3-1.73-3-1.09,3.82-2.46,5.37-1.36,1.73-.73,3.37,2.64,3,1.46,4.64-1.36,3.28-2.73,2.27-3.55-5.1-3.91-6.46l-.36-1.36s-1,3.09-2.82,2.27-.91-1.91-1.55-3.18-2.27-1.73-2.46-3a14.09,14.09,0,0,1,.36-4.46,4.16,4.16,0,0,0,.09-1.82s-3,1.55-3.09,1.27.82-4.09-.09-7a17.41,17.41,0,0,0-2.55-5s-.18,1.73-.45,4.64.64.64-.73,4-.73,4.55-1.82,4-1.36-1-.91-4.55a19.32,19.32,0,0,0-.91-9.28c-1-2.82-1.09-4.64,0-9.19S.36,51.68.51,49.86s2.06-8.64,2.06-8.64L.5,42.49S.84,30.93,2.84,26.2a52.08,52.08,0,0,0,2.37-7C5.75,17.83,6.12,16.74,6.12,16.74Z"/><path class="cls-2" d="M3.88,23.58s.72-2.41,4.18-2.17a17.91,17.91,0,0,1,4.67.73,19.54,19.54,0,0,0-1.94-2.61,4.87,4.87,0,0,0-2.48-.61s4.3-.85,5.82-.3a3.89,3.89,0,0,0-3-3.58s.73-1.76,3,0,5.64,7.16,5.64,7.16-.42-7.22-3.34-9.83c0,0,5,4.25,5.46,6.25s-.24-4.12,0-5,2.55,3.68,2.61,4.39.18-8.09.12-9.48,1.09-1.86,2.1,5.87l.08.62a5.52,5.52,0,0,0,1,2.12c.55.42,4-9.1,8.25-10.25,0,0-4.25,6.73-4.06,8s3.7-4.25,7.1-4.49c0,0-4.67,4.85-4.73,5.34s13.1-1.33,15.29,5.13"/><path class="cls-2" d="M19,25.53a6.71,6.71,0,0,1,5.74,6.2"/><path class="cls-2" d="M34,22.72A11.29,11.29,0,0,0,29.87,32"/><path class="cls-2" d="M3.75,33.71a7.84,7.84,0,0,1,4.63-3.53,9.73,9.73,0,0,1,5.87.25"/><path class="cls-2" d="M50.68,32.66a4.55,4.55,0,0,0-2.23-3.22,9.33,9.33,0,0,0-8.26-1l.27,0"/><path class="cls-2" d="M52.34,44.35a2.2,2.2,0,0,0-.06-1.54,14.45,14.45,0,0,0-2.91-5.6,7.85,7.85,0,0,0-5.54-2.75"/><path class="cls-2" d="M11.91,34a4.62,4.62,0,0,0-2.23.23,8.31,8.31,0,0,0-2,1.05,6.29,6.29,0,0,0-2.54,3"/><path class="cls-2" d="M12.27,42.75a6.92,6.92,0,0,0-4.7,4.65c-.24.81-.32,1.67-.54,2.48a42.33,42.33,0,0,1-1.95,4.47l.09-.44"/><path class="cls-2" d="M41.2,42.65a4.76,4.76,0,0,1,3.22,2.21,11.54,11.54,0,0,1,1.43,3.75,24.31,24.31,0,0,1,.68,8.56l0-.4"/><path class="cls-2" d="M21.08,42.6a3.83,3.83,0,0,0-1.58.69l-1.88,1.19A9.17,9.17,0,0,0,13.91,48a3.46,3.46,0,0,0-.29.92c-.25,1.59.86,3,1.23,4.6a5.15,5.15,0,0,1-.58,3.78A3.92,3.92,0,0,0,13.44,59"/><path class="cls-2" d="M35.59,42.18a5.77,5.77,0,0,1,3.65,3.23,11.88,11.88,0,0,1,1,7.48c-.15.85-.39,1.68-.46,2.53a12.17,12.17,0,0,0,.3,3.31,11.69,11.69,0,0,0,.78,2.72,4.43,4.43,0,0,0,1.85,2.09,1.33,1.33,0,0,1-.69-.46"/><path class="cls-3" d="M13.89,36.12a6.45,6.45,0,0,1,6.37-4.78c5.28,0,3.64,4.78,3.64,4.78a7.38,7.38,0,0,1-6.19,3.55C13.49,39.67,13.89,36.12,13.89,36.12Z"/><path class="cls-3" d="M30.68,34.47s-.09-3.53,4.23-3.53a6,6,0,0,1,6.29,5.46c0,2-2.74,2.82-4.79,2.82A6.2,6.2,0,0,1,30.68,34.47Z"/><path class="cls-3" d="M22.83,41.08a23.37,23.37,0,0,0,3.39-4c1-1.78,4.14,1.36,4.64,1.63s2.19,1.65,1.92,2.38-2.15.73-3,1.23-1.19,1-2.07.75a5.32,5.32,0,0,0-2.47-.35C23.84,42.77,22.59,42.39,22.83,41.08Z"/><circle class="cls-1" cx="19.71" cy="35.32" r="1.88" transform="translate(-11.91 10.1) rotate(-22.26)"/><circle class="cls-1" cx="35.66" cy="35.2" r="1.92" transform="translate(-10.68 16.13) rotate(-22.26)"/><circle class="cls-3" cx="19.97" cy="35.44" r="0.43"/><circle class="cls-3" cx="35.46" cy="35.01" r="0.48"/><path class="cls-3" d="M18.73,49.34s2.7-2.58,9.16-2.34,7.22-1,9.07,4.88c0,0,.42,2.09-2.12,1.46a33.75,33.75,0,0,0-8.52-.48c-2,.12-4.12,1-5.67.75S17.67,52.8,18.73,49.34Z"/><path class="cls-1" d="M18.83,49.24a23.5,23.5,0,0,0,2.05,1.3,9.61,9.61,0,0,1,1.39-2.92"/><path class="cls-1" d="M19.32,53a8.53,8.53,0,0,0,3.38-2.81,8.72,8.72,0,0,0,.45,1,1.24,1.24,0,0,0,.4.49,1.42,1.42,0,0,0,1.08,0,14.36,14.36,0,0,1,5.56-.27.61.61,0,0,0,.21,0,.54.54,0,0,0,.26-.17,2.9,2.9,0,0,0,.8-1.55,6.74,6.74,0,0,0,.7,1.4,1.9,1.9,0,0,0,.81.78,2.77,2.77,0,0,0,1.39,0,1.37,1.37,0,0,1,1.31.37c.25.34.18.82.38,1.19,0,0,0,.07.08.07s.07-.05,0-.07"/><path class="cls-1" d="M22,47.73c.34.18.44.6.59,1a.52.52,0,0,0,.12.2.57.57,0,0,0,.45.08,41,41,0,0,1,7.77-.1.82.82,0,0,1,.69-.66,1.06,1.06,0,0,1,.92.36c.32.36.41.88.7,1.26a10.44,10.44,0,0,1,1.24-2.31"/><path class="cls-2" d="M17,63.77a5.43,5.43,0,0,1,.63,1.78,5.43,5.43,0,0,1-.38,2.2l-1.52,4.76a6.85,6.85,0,0,0-.46,2.41"/><path class="cls-2" d="M23.46,62.2a9.44,9.44,0,0,1-.21,2.52,19.67,19.67,0,0,1-.82,2.06,18.11,18.11,0,0,0-.74,2.58,5,5,0,0,0-.18,2.15,8.94,8.94,0,0,0,1,2,8.72,8.72,0,0,1,.59,4.94L22.9,78"/><path class="cls-2" d="M28.85,63.37A5.93,5.93,0,0,0,29,64.45a10.85,10.85,0,0,0,.91,2.87c.36.67.85,1.25,1.25,1.89a15.27,15.27,0,0,1,1.36,2.94c.71,1.91,1.35,4,.87,6l-.13-.35"/><path class="cls-2" d="M37.47,63.84a4.68,4.68,0,0,1,1.76,2.89,12,12,0,0,1,.07,5.62c-.34,1.5-1,2.93-1.22,4.44v-.31"/><path class="cls-1" d="M38.9,51.8c-.49-3.61-.52-7.07-11.16-7.13S16.43,52,16.43,52c.33,2.91,3,3.49,4.88,3.61s4-1.09,5.58-1.31,4.55.85,6.19,1.18S39.39,55.41,38.9,51.8Zm-4.06,1.55a33.75,33.75,0,0,0-8.52-.48c-2,.12-4.12,1-5.67.75s-3-.82-1.91-4.28c0,0,2.7-2.58,9.16-2.34s7.22-1,9.07,4.88C37,51.89,37.38,54,34.84,53.35Z"/></g></g></svg>