<svg xmlns="http://www.w3.org/2000/svg" viewBox="0 0 194.5 48.52"><defs><style>.cls-1{fill:#fff;}.cls-1,.cls-2{stroke:#000105;stroke-linecap:round;stroke-linejoin:round;}.cls-2{fill:none;}</style></defs><title>Ресурс 4</title><g id="Слой_2" data-name="Слой 2"><g id="Слой_3" data-name="Слой 3"><path class="cls-1" d="M5.2,35.62s0-10.5,11.25-7.25c0,0,2.75-5.87,8.25-2,0,0,3.13-10,12.75-4.87,0,0,1.63-9.22,9.88-7.11,0,0,10.25-24.26,29.87-8.64,0,0,11.13-5.88,17,5.5,0,0,2.38,6.5.75,9.75,0,0,9-3.5,10.75,4.38,0,0,8.38-4,12.38,3.13,0,0,12.88-13.75,20,3.38a3.47,3.47,0,0,1,4.31,2.75s8.13-8.19,12.94,2.94c0,0,5.25-5.81,9.56,1a4.6,4.6,0,0,1,6.63,1.88s9.44-6.5,9.25,1.25-7.12,3.63-7.12,3.63-4.75,3.81-8.06.06c0,0-6.56,6.44-11.75-.75,0,0-6.94,6.31-12.62-.25,0,0-6,5.29-9.92.42,0,0-9.92,7-15.58-.37,0,0-7.25,7-15.67-.29,0,0-9,3.75-15.83-4,0,0-15.62,10.67-24.71-1,0,0-5.08,8.5-14.58,2.08,0,0-8.5,10.42-16.67-1.08,0,0-12.25,6.25-17,.08,0,0-4.09,8.49-9.5.92C-2.42,35.24,5.2,35.62,5.2,35.62Z"/><path class="cls-2" d="M105.7,25.37s.38,2.71,0,3.13"/><line class="cls-2" x1="118.08" y1="28.49" x2="117.58" y2="31.16"/><path class="cls-2" d="M138.08,31.87s.06,2.63-.62,3.5"/><path class="cls-2" d="M131.29,44.79s2.54-1,3-2.29"/><path class="cls-2" d="M84.2,40.08s3.13-1.4,3.69-2.58"/><path class="cls-2" d="M59.5,39.08s-1.33-2.92-1.08-4.58"/><path class="cls-2" d="M44.91,41.16a3.63,3.63,0,0,1-1.83-1.58"/><path class="cls-2" d="M37.45,21.49a11.37,11.37,0,0,0,2.71,3.33"/><path class="cls-2" d="M47.33,14.38s-1.08,6.36,4.5,7.69"/><path class="cls-1" d="M184.41,39.08"/><path class="cls-1" d="M189.41,35.37c3.48-.39,5,2.79,4.5,3.71s-3.83,2.58-6.67,1.29S183.08,36.08,189.41,35.37Z"/></g></g></svg>