<svg xmlns="http://www.w3.org/2000/svg" viewBox="0 0 97.54 53.06"><defs><style>.cls-1{fill:#fff;}.cls-1,.cls-2{stroke:#000105;stroke-linecap:round;stroke-linejoin:round;}.cls-2{fill:none;}</style></defs><title>Ресурс 3</title><g id="Слой_2" data-name="Слой 2"><g id="Слой_3" data-name="Слой 3"><path class="cls-1" d="M11.67,38.62S.5,39.65.5,30.46c0-7.17,10.17-6.83,10.17-6.83s1-9.67,12-8.5c0,0,4.5-17.58,23.67-9,0,0,7.44-10.48,25.9-2.94C78,5.6,79.17,14.85,79.17,14.85S86,12.73,88,19.92c0,0,7.88-1.19,9,9.25,0,0,.13,2.88-3.69,6.75,0,0,1.81,8.63-6.62,11.25-6.25,1.94-9.5-1.5-9.5-1.5s-13,15.25-26.75.38c0,0-14.44,9.25-22.87-4.44C27.6,41.6,17.42,47.08,11.67,38.62Z"/><path class="cls-2" d="M27.6,41.6"/><path class="cls-2" d="M27.6,41.6s4.06-3.94,4.75-5.56"/><path class="cls-2" d="M10.67,23.62a26.54,26.54,0,0,1,3.25,2"/><path class="cls-2" d="M22.67,15.12s5.44.1,6.88,3"/><path class="cls-2" d="M46.33,6.17s3,1.44,3.15,2.13"/><path class="cls-2" d="M79.17,14.85S80.35,23,75.54,26.53"/><path class="cls-2" d="M93.35,35.92s-5.34,1.91-7.78.22"/></g></g></svg>