<svg xmlns="http://www.w3.org/2000/svg" viewBox="0 0 105.71 59.51"><defs><style>.cls-1{fill:#fff;}.cls-1,.cls-2{stroke:#000105;stroke-linecap:round;stroke-linejoin:round;}.cls-2{fill:none;}</style></defs><title>Ресурс 2</title><g id="Слой_2" data-name="Слой 2"><g id="Слой_3" data-name="Слой 3"><path class="cls-1" d="M10.08,31.1s-6.12-12.62,13-16c0,0,1-6.87,7.88-4.75A18.4,18.4,0,0,1,49.33.6C62.58,1.85,67.7,13.47,67.7,13.47S81.09,5.6,90.08,15.8c4.38,5,2.79,13.47,2.79,13.47s10.92.25,6.83,13.08c0,0,7.67,3.92,4.92,9.5S96.7,56.68,93.7,54c0,0-17.69,11.4-27.87-.23,0,0-19.25,9.69-27.25-1.31,0,0-15.69,9.56-22.75-.5,0,0-14.62,5.17-15.31-9.5C.08,33.16,10.08,31.1,10.08,31.1Z"/><path class="cls-2" d="M99.7,42.35s-2.46,4.79-6.46,2.25"/><path class="cls-2" d="M92.87,29.27s-1.21,3-3,3.75"/><path class="cls-2" d="M67.7,13.47a13.44,13.44,0,0,0-2,2.44"/><path class="cls-2" d="M31,10.35a12.08,12.08,0,0,0-.56,3.13"/><path class="cls-2" d="M23.08,15.1s5.38-.5,6.25.81"/><path class="cls-2" d="M10.08,31.1a4.08,4.08,0,0,1,4,1"/><path class="cls-2" d="M15.83,52A8.06,8.06,0,0,0,18,50.6"/><path class="cls-2" d="M65.83,53.79S66.7,53.6,67.7,52"/><path class="cls-2" d="M93.7,54a12.88,12.88,0,0,0,2.13-2.73"/></g></g></svg>