<svg xmlns="http://www.w3.org/2000/svg" viewBox="0 0 900.31 86.64"><defs><style>.cls-1,.cls-4{fill:#fff;}.cls-1,.cls-2{stroke:#000105;stroke-miterlimit:10;}.cls-2{fill:none;}.cls-3{fill:#000105;}</style></defs><title>contactme_ru</title><g id="Слой_2" data-name="Слой 2"><g id="Слой_5" data-name="Слой 5"><path class="cls-1" d="M862.18.69c.23.11.77,4.77,5.42,5.75a9.83,9.83,0,0,0,4.65,0,5.1,5.1,0,0,0,3-1.62,6.69,6.69,0,0,0,1.22-3.73.41.41,0,0,1,.34-.39,45.63,45.63,0,0,1,6.14-.1.54.54,0,0,1,.55.62A20.07,20.07,0,0,1,881.25,7a12.61,12.61,0,0,1-2.5,3c-1.3,1.29-3.67,2.06-5.43,2.58a13.68,13.68,0,0,1-4.18.44,20.07,20.07,0,0,1-4.29-.56,9.8,9.8,0,0,1-4.43-1.79,25.51,25.51,0,0,1-2.81-3.48c-2-3.48-2.22-6.48-2-6.58S862.08.63,862.18.69Z"/><path class="cls-1" d="M189.81,37.08a15.54,15.54,0,0,1,1.51-4.38c3-4.09,8.84-4.26,12.94-3.31s6.2,3.91,5.69,8.09a7.61,7.61,0,0,1-1.64,3.67A6.89,6.89,0,0,1,206,42.7a12.49,12.49,0,0,1-7.72.5.5.5,0,0,0-.59.47c-.1,3,0,5.2.11,8.1a.56.56,0,0,0,.63.54,19.39,19.39,0,0,1,8.61.73,6.58,6.58,0,0,1,4.13,5.77c.19,2.88-1.64,6.88-3.66,7.94a30.2,30.2,0,0,1-8,1.69c-.86-.09-7.91-.31-9.34-8.9a1.47,1.47,0,0,0-.51-1.07,117.22,117.22,0,0,0-13.34,2c.28,5.14,4.74,11.13,6.48,13.16,3.27,3.82,10.61,5.42,15.62,5.85a30.71,30.71,0,0,0,12.63-1.12,21.17,21.17,0,0,0,9-4.67,18.83,18.83,0,0,0,5.7-11.08,18.29,18.29,0,0,0-1.75-8.94c-1.62-3.37-6.78-5.27-11-6.92a32,32,0,0,0,6.46-3.53,11.18,11.18,0,0,0,4.22-5.88,14.4,14.4,0,0,0,.08-6.45,15.36,15.36,0,0,0-3.37-6.41c-5.85-6.94-15.23-7.06-23.53-6.52a23.9,23.9,0,0,0-7.4,1.64,16.69,16.69,0,0,0-8.62,8.12,36.21,36.21,0,0,0-1.87,6.61,1.07,1.07,0,0,0,.91,1.3S189.77,37.47,189.81,37.08Z"/><path class="cls-2" d="M197.89,52c.83.93,2.68,4,3,4.2s3.95-1.14,6.39,2.27c1.53,2.14.68,8.25.69,8"/><path class="cls-2" d="M176.21,60.44c-1.33,1.37-4.92,4.9-5.09,5.52a3.82,3.82,0,0,0,.07,1.78c1.51,7.61,8.93,14,13,16.09,1.85.94,8.66,2.65,12.54,2.25,5.71-.59,9.56-1.31,15.31-4.58,2.12-1.21,4.31-3.48,7.09-7"/><path class="cls-2" d="M186.92,20.94c-4.25,2.1-9.12,5.35-11.5,9.45-.94,1.62-2,8.46-1.37,9.63s12.77,1.05,13,1a37.47,37.47,0,0,0,2.76-3.9"/><path class="cls-2" d="M193.22,30.85c2.15-.52,6.3.27,8.33,1.17a5.83,5.83,0,0,1,3.51,4.71,25.56,25.56,0,0,1,0,6"/><path class="cls-2" d="M182.42,40.58q1.05-2,2.18-3.94"/><path class="cls-2" d="M178.2,40.75a32.63,32.63,0,0,1,2.68-4.91"/><path class="cls-2" d="M174.14,38.8a48.3,48.3,0,0,1,5.19-5.32"/><path class="cls-2" d="M174.61,32.58a72.5,72.5,0,0,1,6.11-5"/><path class="cls-2" d="M205.13,39.91A58.23,58.23,0,0,1,210,35.28"/><path class="cls-2" d="M203.62,33.34a13.72,13.72,0,0,1,3.13-3.2.07.07,0,0,1,0,.12"/><path class="cls-2" d="M208.42,62.2a39.73,39.73,0,0,1,2.81-2.94"/><path class="cls-2" d="M207.06,58.15a28,28,0,0,1,2.14-3.84"/><path class="cls-2" d="M205,52.27q-1,1.72-1.83,3.49"/><path class="cls-2" d="M172.88,71.85q2.6-2.69,5.16-5.4"/><path class="cls-2" d="M176.88,78q2.43-2.87,5.09-5.54"/><path class="cls-2" d="M182.52,82.68q2.33-3,4.59-6.05"/><path class="cls-2" d="M189.1,85.2q2.15-3.36,4.44-6.63"/><path class="cls-2" d="M197,85.95q2-3.25,4.25-6.32"/><path class="cls-2" d="M205.11,84.48a27,27,0,0,0,2.81-5.26s0-.08.07-.09.08,0,0,.07"/><path class="cls-2" d="M213.18,77.83a18.08,18.08,0,0,1-.54,3.38"/><path class="cls-2" d="M855.63.57c-1.63,1.48-3.2,2.58-4.77,4.13A18.73,18.73,0,0,0,853.53,9c2.36,2.51,5.07,4.94,8.44,5.63a18.65,18.65,0,0,0,2.89.28,18.67,18.67,0,0,0,9.73-2.7"/><path class="cls-2" d="M876.66.71a31.59,31.59,0,0,0-4.18,1.58c-.07.06-.56,2.55-1.12,4.18"/><path class="cls-2" d="M852.71,7.43q1.23-1.34,2.58-2.55a2.16,2.16,0,0,1,.83-.54"/><path class="cls-2" d="M855.11,10.28c-.07,0,0-.14,0-.2q1.19-1.46,2.43-2.88"/><path class="cls-2" d="M858.38,12.93A14,14,0,0,1,860,10.87"/><path class="cls-2" d="M861.83,14.33a22.24,22.24,0,0,1,1.33-2"/><path class="cls-2" d="M865.36,14.82a8.11,8.11,0,0,0,1.3-1.7"/><path class="cls-2" d="M872.16,4.58q1.94-.86,3.84-1.83"/><path class="cls-3" d="M808.94,33.54c3.87-3.11,7.91-.25,8.61,4.06a49.28,49.28,0,0,1,.24,10.1c-.32,6.75-1.36,13.47-1.37,20.23l1-.13a1.65,1.65,0,0,0-.47-.8c-.45-.47-1.15.24-.71.71l.21.36a.5.5,0,0,0,1-.13c0-9.6,2.1-19.14,1.3-28.76-.22-2.61-.74-5.19-2.94-6.85-2.49-1.88-5.24-1.35-7.55.51-.5.4.21,1.11.71.71Z"/><path class="cls-3" d="M802.49,20.43A24.58,24.58,0,0,0,796,24.85,29.8,29.8,0,0,0,789.54,32c-4.11,6.64-5.78,14.75-5.76,22.49,0,13.4,8.8,27,22.58,29.62,8.6,1.64,15.85-2.51,22.08-8.07.48-.43-.23-1.13-.71-.71-5.56,5-12,9-19.79,8a25.78,25.78,0,0,1-16-9c-9.14-10.54-9.06-26.7-3.2-38.86a27.6,27.6,0,0,1,6.51-8.74c2.2-2,4.69-4.29,7.48-5.36.59-.23.34-1.2-.27-1Z"/><path class="cls-2" d="M795.27,28.53l-5,3.27"/><path class="cls-2" d="M792.81,34.34c0,.08.14-.06.07-.1s-.16,0-.22.05l-4.95,3.66a3.54,3.54,0,0,0-1,.92"/><path class="cls-2" d="M790.88,41.1,785,45.86"/><path class="cls-2" d="M790.34,47.2l-6.06,5.46"/><path class="cls-2" d="M790.71,53.94c-2.18,2-4,3.76-6,5.85"/><path class="cls-2" d="M791.76,61l-5.44,5"/><path class="cls-2" d="M794.26,65.86,789,71.18"/><path class="cls-2" d="M798.64,71.49l-5.09,4.91"/><path class="cls-2" d="M803.69,75.42q-2.57,2.52-5.09,5.09c-.12.12-.36,0-.29-.2a.19.19,0,0,1,.34.08"/><path class="cls-2" d="M808.81,77.91c-1.56,1.52-3.39,3.49-5,5"/><path class="cls-2" d="M815.23,79a40.92,40.92,0,0,0-4.19,5"/><path class="cls-2" d="M820.86,78.54A18.79,18.79,0,0,0,818,82.33"/><path class="cls-2" d="M817.55,29a1.69,1.69,0,0,0-1,.61L814.13,32"/><path class="cls-2" d="M822.35,30.83q-2.36,2.33-4.54,4.84"/><path class="cls-2" d="M824.85,34.2A81.54,81.54,0,0,0,818.16,41"/><path class="cls-2" d="M826.33,39.7a33.43,33.43,0,0,1-3.78,4.19c-1.43,1.28-3.09,2.37-4.08,4l.08-.5"/><path class="cls-2" d="M827.05,46.66Q822,52,817.35,57.72"/><path class="cls-2" d="M826.57,53.67a114.87,114.87,0,0,1-9.31,9.56"/><path class="cls-2" d="M824.75,61.21a66.77,66.77,0,0,0-6.84,6.45"/><path class="cls-4" d="M841.25,48.15c-.42-20.15-10.5-30.3-25-30.88-34.06-1.08-35.68,60.61-.78,61.75C831.66,79.55,841.6,64.91,841.25,48.15Zm-25.12,19.5c-17.4,1.1-13.21-40-.68-38.87,10.14-.83,11,12.68,11.14,14C827.33,52.44,826.69,67,816.13,67.64Z"/><path class="cls-3" d="M841.75,48.15c-.21-7.7-1.7-15.76-6.47-22A24,24,0,0,0,819.21,17,24.48,24.48,0,0,0,794,29.7c-9.48,17-4.13,46.07,18,49.5a24,24,0,0,0,21.31-6.91c6.11-6.41,8.55-15.46,8.45-24.14a.5.5,0,0,0-1,0c.18,15.12-8.88,31.19-25.79,30.35-10.26-.5-18.32-7.16-22-16.56-6.51-16.71-.08-43.16,21.14-44.15,6.85-.32,13.85,1.94,18.66,6.94,6,6.2,7.75,15.11,8,23.42A.5.5,0,0,0,841.75,48.15Z"/><path class="cls-3" d="M816.13,67.14c-13.47.61-12-20.92-9.24-29.07,1.76-5.22,5-9.94,11.16-8.68s7.71,8.65,8.09,13.92c.56,7.92.77,22.88-10,23.83-.64.06-.64,1.06,0,1,9.91-.88,11.25-12.61,11.18-20.52-.05-5.93-.47-13.83-5.69-17.7a9.89,9.89,0,0,0-9-1.22c-2.37,1-4,3.21-5.18,5.4-3.22,6.14-4.06,13.89-3.12,20.69.89,6.45,4.22,13.7,11.78,13.35C816.77,68.12,816.77,67.12,816.13,67.14Z"/><path class="cls-3" d="M594.27,34.26c3.87-3.11,7.91-.25,8.61,4.06a49.28,49.28,0,0,1,.24,10.1c-.32,6.75-1.36,13.47-1.37,20.23l1-.13a1.65,1.65,0,0,0-.47-.8c-.45-.47-1.15.24-.71.71l.21.36a.5.5,0,0,0,1-.13c0-9.6,2.1-19.14,1.3-28.76-.22-2.61-.74-5.19-2.94-6.85-2.49-1.88-5.24-1.35-7.55.51-.5.4.21,1.11.71.71Z"/><path class="cls-3" d="M587.82,21.15a24.58,24.58,0,0,0-6.52,4.42,29.8,29.8,0,0,0-6.43,7.15c-4.11,6.64-5.78,14.75-5.76,22.49,0,13.4,8.8,27,22.58,29.62,8.6,1.64,15.85-2.51,22.08-8.07.48-.43-.23-1.13-.71-.71-5.56,5-12,9-19.79,8a25.78,25.78,0,0,1-16-9c-9.14-10.54-9.06-26.7-3.2-38.86a27.6,27.6,0,0,1,6.51-8.74c2.2-2,4.69-4.29,7.48-5.36.59-.23.34-1.2-.27-1Z"/><path class="cls-2" d="M580.6,29.25l-5,3.27"/><path class="cls-2" d="M578.14,35.06c0,.08.14-.06.07-.1s-.16,0-.22.05L573,38.67a3.54,3.54,0,0,0-1,.92"/><path class="cls-2" d="M576.22,41.83l-5.87,4.75"/><path class="cls-2" d="M575.67,47.93l-6.06,5.46"/><path class="cls-2" d="M576,54.66c-2.18,2-4,3.76-6,5.85"/><path class="cls-2" d="M577.09,61.71l-5.44,5"/><path class="cls-2" d="M579.59,66.59l-5.22,5.32"/><path class="cls-2" d="M584,72.21l-5.09,4.91"/><path class="cls-2" d="M589,76.15q-2.57,2.52-5.09,5.09c-.12.12-.36,0-.29-.2a.19.19,0,0,1,.34.08"/><path class="cls-2" d="M594.14,78.64c-1.56,1.52-3.39,3.49-5,5"/><path class="cls-2" d="M600.56,79.76a40.92,40.92,0,0,0-4.19,5"/><path class="cls-2" d="M606.19,79.26a18.79,18.79,0,0,0-2.86,3.79"/><path class="cls-2" d="M602.88,29.7a1.69,1.69,0,0,0-1,.61l-2.4,2.38"/><path class="cls-2" d="M607.68,31.55q-2.36,2.33-4.54,4.84"/><path class="cls-2" d="M610.18,34.92a81.54,81.54,0,0,0-6.69,6.82"/><path class="cls-2" d="M611.66,40.42a33.43,33.43,0,0,1-3.78,4.19c-1.43,1.28-3.09,2.37-4.08,4l.08-.5"/><path class="cls-2" d="M612.39,47.38q-5.06,5.34-9.7,11.06"/><path class="cls-2" d="M611.91,54.39A114.87,114.87,0,0,1,602.59,64"/><path class="cls-2" d="M610.09,61.93a66.77,66.77,0,0,0-6.84,6.45"/><path class="cls-4" d="M626.58,48.87c-.42-20.15-10.5-30.3-25-30.88-34.06-1.08-35.68,60.61-.78,61.75C617,80.27,626.93,65.63,626.58,48.87Zm-25.12,19.5c-17.4,1.1-13.21-40-.68-38.87,10.14-.83,11,12.68,11.14,14C612.67,53.16,612,67.7,601.46,68.37Z"/><path class="cls-3" d="M627.08,48.87c-.21-7.7-1.7-15.76-6.47-22a24,24,0,0,0-16.07-9.09,24.48,24.48,0,0,0-25.21,12.67c-9.48,17-4.13,46.07,18,49.5A24,24,0,0,0,618.63,73c6.11-6.41,8.55-15.46,8.45-24.14a.5.5,0,0,0-1,0c.18,15.12-8.88,31.19-25.79,30.35-10.26-.5-18.32-7.16-22-16.56-6.51-16.71-.08-43.16,21.14-44.15,6.85-.32,13.85,1.94,18.66,6.94,6,6.2,7.75,15.11,8,23.42A.5.5,0,0,0,627.08,48.87Z"/><path class="cls-3" d="M601.46,67.87c-13.47.61-12-20.92-9.24-29.07,1.76-5.22,5-9.94,11.16-8.68s7.71,8.65,8.09,13.92c.56,7.92.77,22.88-10,23.83-.64.06-.64,1.06,0,1,9.91-.88,11.25-12.61,11.18-20.52-.05-5.93-.47-13.83-5.69-17.7a9.89,9.89,0,0,0-9-1.22c-2.37,1-4,3.21-5.18,5.4-3.22,6.14-4.06,13.89-3.12,20.69.89,6.45,4.22,13.7,11.78,13.35C602.1,68.84,602.1,67.84,601.46,67.87Z"/><path class="cls-1" d="M55.46,41a1,1,0,0,0,.9-1.05,39,39,0,0,0-2.18-8.59C52.43,26.74,49.75,23,45.42,20.6a25.77,25.77,0,0,0-5.48-2.14,31.08,31.08,0,0,0-15.06.09C18.1,20.2,12.67,25,8.94,30.85,4.09,38.5,3.28,51.46,6.13,60.07S14.3,74.39,22.75,77.64a40.71,40.71,0,0,0,8.5,1.56c5.84.62,11.8-2.16,16.56-5.6s7.25-9.2,8.5-14.93a1.19,1.19,0,0,0,0-.72c-.13-.31-13.1-1.8-13.45-1.54C42,57,42.06,62.69,39.4,65a12.43,12.43,0,0,1-10.22,3,11.27,11.27,0,0,1-4.49-2.57c-3.85-4.15-4.11-9.3-4.24-15s.35-11.08,2.61-16.27a11.21,11.21,0,0,1,4.38-5.06c1.9-.95,6.73-.63,8.63.2C39,30.62,40.74,34.21,41,37.28c.34,4,.18,4.29,3.92,3.87C45.64,41.07,53,41.1,55.46,41Z"/><path class="cls-2" d="M8.94,30.85c-2.63,2.42-5.56,7.93-7,11.21C-.5,47.73-.29,63.57,7.79,74.18c2.56,3.37,7.26,5.13,11.43,5.84s16.2-.25,17.88-1.21"/><path class="cls-2" d="M25.25,30.78c1.48-1.16,5.12-.81,6.25.7a23.38,23.38,0,0,1,2.39,6.71c.26,2.14.72,6.27,2.36,7.67,1.35,1.15,7.08,1,9.21.88,2-.12,3.85-.16,5.42-1.33s3.47-3.24,5.08-4.58"/><path class="cls-2" d="M43.17,56.38c-.69.27-6.84,2.92-7.29,3.89a52.27,52.27,0,0,0-2,7.37"/><path class="cls-2" d="M.89,45.08Q3.12,43,5.41,41l-.19.21"/><path class="cls-2" d="M.39,52.16A31.56,31.56,0,0,1,4.46,48"/><path class="cls-2" d="M1.13,58.42a23.26,23.26,0,0,1,3.06-3.71,1.9,1.9,0,0,1,.6-.45"/><path class="cls-2" d="M3,64.21a21.86,21.86,0,0,1,3.16-3.52"/><path class="cls-2" d="M5.36,70a23.24,23.24,0,0,1,3.4-3.6"/><path class="cls-2" d="M8,74.09,11.79,70"/><path class="cls-2" d="M11.25,77.28q1.71-2,3.55-3.88"/><path class="cls-2" d="M15.42,78.95q1.48-1.64,3.07-3.18"/><path class="cls-2" d="M20.1,80.13a19.13,19.13,0,0,1,2.57-2.59"/><path class="cls-2" d="M25.35,79.8a4.41,4.41,0,0,1,1.22-1.54"/><path class="cls-2" d="M34.73,64.66l6.53-3.75a.68.68,0,0,0,.26-.22.23.23,0,0,0,0-.31"/><path class="cls-2" d="M30.71,30.81a19.45,19.45,0,0,1,2.59-2.15"/><path class="cls-2" d="M33.21,35.73a69.74,69.74,0,0,1,5.39-4.62"/><path class="cls-2" d="M34,39.72q3.27-2.66,6.67-5.16"/><path class="cls-2" d="M35.52,45q3-2.21,5.83-4.66"/><path class="cls-2" d="M42.33,46.43q2.7-2.77,5.61-5.31"/><path class="cls-1" d="M431.23,41.21a1,1,0,0,0,.9-1.05A39,39,0,0,0,430,31.57c-1.76-4.61-4.44-8.38-8.77-10.75a25.77,25.77,0,0,0-5.48-2.14,31.08,31.08,0,0,0-15.06.09c-6.78,1.64-12.2,6.41-15.94,12.3-4.85,7.65-5.66,20.61-2.81,29.21s8.17,14.32,16.63,17.57a40.71,40.71,0,0,0,8.5,1.56c5.84.62,11.8-2.16,16.56-5.6s7.25-9.2,8.5-14.93a1.19,1.19,0,0,0,0-.72c-.13-.31-13.1-1.8-13.45-1.54-.83.62-.8,6.28-3.47,8.57a12.43,12.43,0,0,1-10.22,3,11.27,11.27,0,0,1-4.49-2.57c-3.85-4.15-4.11-9.3-4.24-15s.35-11.08,2.61-16.27a11.21,11.21,0,0,1,4.38-5.06c1.9-.95,6.73-.63,8.63.2,2.88,1.26,4.67,4.85,4.92,7.92.34,4,.18,4.29,3.92,3.87C421.4,41.29,428.75,41.32,431.23,41.21Z"/><path class="cls-2" d="M384.7,31.07c-2.63,2.42-5.56,7.93-7,11.21-2.46,5.67-2.25,21.5,5.83,32.12,2.56,3.37,7.26,5.13,11.43,5.84S411.19,80,412.87,79"/><path class="cls-2" d="M401,31c1.48-1.16,5.12-.81,6.25.7a23.38,23.38,0,0,1,2.39,6.71c.26,2.14.72,6.27,2.36,7.67,1.35,1.15,7.08,1,9.21.88,2-.12,3.85-.16,5.42-1.33s3.47-3.24,5.08-4.58"/><path class="cls-2" d="M418.93,56.6c-.69.27-6.84,2.92-7.29,3.89a52.27,52.27,0,0,0-2,7.37"/><path class="cls-2" d="M376.66,45.29q2.23-2.09,4.52-4.12l-.19.21"/><path class="cls-2" d="M376.15,52.37a31.56,31.56,0,0,1,4.08-4.17"/><path class="cls-2" d="M376.89,58.64a23.26,23.26,0,0,1,3.06-3.71,1.9,1.9,0,0,1,.6-.45"/><path class="cls-2" d="M378.77,64.42a21.86,21.86,0,0,1,3.16-3.52"/><path class="cls-2" d="M381.12,70.19a23.24,23.24,0,0,1,3.4-3.6"/><path class="cls-2" d="M383.76,74.31l3.8-4.12"/><path class="cls-2" d="M387,77.49q1.71-2,3.55-3.88"/><path class="cls-2" d="M391.19,79.17q1.48-1.64,3.07-3.18"/><path class="cls-2" d="M395.87,80.34a19.13,19.13,0,0,1,2.57-2.59"/><path class="cls-2" d="M401.11,80a4.41,4.41,0,0,1,1.22-1.54"/><path class="cls-2" d="M410.49,64.87,417,61.12a.68.68,0,0,0,.26-.22.23.23,0,0,0,0-.31"/><path class="cls-2" d="M406.47,31a19.45,19.45,0,0,1,2.59-2.15"/><path class="cls-2" d="M409,35.94a69.74,69.74,0,0,1,5.39-4.62"/><path class="cls-2" d="M409.8,39.93q3.27-2.66,6.67-5.16"/><path class="cls-2" d="M411.29,45.17q3-2.21,5.83-4.66"/><path class="cls-2" d="M418.09,46.65q2.7-2.77,5.61-5.31"/><path class="cls-1" d="M568.7,41a1,1,0,0,0,.9-1.05,39,39,0,0,0-2.18-8.59C565.67,26.74,563,23,558.66,20.6a25.77,25.77,0,0,0-5.48-2.14,31.08,31.08,0,0,0-15.06.09c-6.78,1.64-12.2,6.41-15.94,12.3-4.85,7.65-5.66,20.61-2.81,29.21S527.54,74.39,536,77.64a40.71,40.71,0,0,0,8.5,1.56c5.84.62,11.8-2.16,16.56-5.6s7.25-9.2,8.5-14.93a1.19,1.19,0,0,0,0-.72c-.13-.31-13.1-1.8-13.45-1.54-.83.62-.8,6.28-3.47,8.57a12.43,12.43,0,0,1-10.22,3,11.27,11.27,0,0,1-4.49-2.57c-3.85-4.15-4.11-9.3-4.24-15S534,39.4,536.3,34.22a11.21,11.21,0,0,1,4.38-5.06c1.9-.95,6.73-.63,8.63.2,2.88,1.26,4.67,4.85,4.92,7.92.34,4,.18,4.29,3.92,3.87C558.88,41.07,566.22,41.1,568.7,41Z"/><path class="cls-2" d="M522.18,30.85c-2.63,2.42-5.56,7.93-7,11.21-2.46,5.67-2.25,21.5,5.83,32.12,2.56,3.37,7.26,5.13,11.43,5.84s16.2-.25,17.88-1.21"/><path class="cls-2" d="M538.49,30.78c1.48-1.16,5.12-.81,6.25.7a23.38,23.38,0,0,1,2.39,6.71c.26,2.14.72,6.27,2.36,7.67,1.35,1.15,7.08,1,9.21.88,2-.12,3.85-.16,5.42-1.33s3.47-3.24,5.08-4.58"/><path class="cls-2" d="M556.41,56.38c-.69.27-6.84,2.92-7.29,3.89a52.27,52.27,0,0,0-2,7.37"/><path class="cls-2" d="M514.13,45.08Q516.36,43,518.65,41l-.19.21"/><path class="cls-2" d="M513.63,52.16A31.56,31.56,0,0,1,517.7,48"/><path class="cls-2" d="M514.36,58.42a23.26,23.26,0,0,1,3.06-3.71,1.9,1.9,0,0,1,.6-.45"/><path class="cls-2" d="M516.25,64.21a21.86,21.86,0,0,1,3.16-3.52"/><path class="cls-2" d="M518.6,70a23.24,23.24,0,0,1,3.4-3.6"/><path class="cls-2" d="M521.23,74.09,525,70"/><path class="cls-2" d="M524.49,77.28q1.71-2,3.55-3.88"/><path class="cls-2" d="M528.66,78.95q1.48-1.64,3.07-3.18"/><path class="cls-2" d="M533.34,80.13a19.13,19.13,0,0,1,2.57-2.59"/><path class="cls-2" d="M538.58,79.8a4.41,4.41,0,0,1,1.22-1.54"/><path class="cls-2" d="M548,64.66l6.53-3.75a.68.68,0,0,0,.26-.22.23.23,0,0,0,0-.31"/><path class="cls-2" d="M543.95,30.81a19.45,19.45,0,0,1,2.59-2.15"/><path class="cls-2" d="M546.45,35.73a69.74,69.74,0,0,1,5.39-4.62"/><path class="cls-2" d="M547.27,39.72q3.27-2.66,6.67-5.16"/><path class="cls-2" d="M548.76,45q3-2.21,5.83-4.66"/><path class="cls-2" d="M555.57,46.43q2.7-2.77,5.61-5.31"/><path class="cls-2" d="M248.14,18.4c-2.43,1.3-6,2.74-7.44,5.1-.49.82-19.16,56.27-18.65,57.25.68,1.29,13,3.06,14.45,2.33s2.51-2.33,4.07-4.91"/><path class="cls-2" d="M282.48,78a10.61,10.61,0,0,1-3.08,4.39c-.85.81-14.59.66-15.19,0-1.17-1.19-3.86-10.2-4.44-10.62-1.19-.87-4.57-.61-6.75-.62-3.45,0-6.69-.25-10.14-.27"/><path class="cls-2" d="M250.9,42.32c1.31,4.92,3.13,8.24,4.93,13"/><path class="cls-2" d="M245.87,23.75l-7,4.59"/><path class="cls-2" d="M243,31.68q-2.9,1.61-5.66,3.46a1.64,1.64,0,0,0-.58.55l.17-.25"/><path class="cls-2" d="M241.48,37.53a51.42,51.42,0,0,1-7,3.34.13.13,0,0,0,.21,0"/><path class="cls-2" d="M239.45,43.58l-6.61,3.93.38-.15"/><path class="cls-2" d="M236.86,51.38a47.89,47.89,0,0,0-6.8,3.55.22.22,0,0,0,.24-.07"/><path class="cls-2" d="M234.95,57c-2.31,2-5.27,3.14-7.5,5.23"/><path class="cls-2" d="M232.7,63.09q-2.67,1.69-5.48,3.15a6.43,6.43,0,0,0-1.68,1.1l.18-.14"/><path class="cls-2" d="M230.86,69.73l-6.47,4"/><path class="cls-2" d="M222.27,80.23a30.4,30.4,0,0,1,6.31-3.74"/><path class="cls-2" d="M227.63,82c-.09,0,0-.16,0-.22q1.89-1.52,3.87-2.91"/><path class="cls-2" d="M233.64,82.86a10.3,10.3,0,0,1,2.88-2.92l1-.77"/><path class="cls-2" d="M251.14,43.19A17.78,17.78,0,0,1,255.3,39"/><path class="cls-2" d="M252.72,46.53A32.94,32.94,0,0,1,256.79,43"/><path class="cls-2" d="M254.46,51.94c-.16-.12,0-.38.08-.54a16.93,16.93,0,0,1,3.5-3.34"/><path class="cls-2" d="M256.28,55.34a32.79,32.79,0,0,1,3.77-2.73"/><path class="cls-2" d="M244,70.64q2-2.07,4.15-4"/><path class="cls-2" d="M249.55,71.44a1.81,1.81,0,0,1,.59-1l3.74-3.91c.24-.25.48-.5.74-.73a.16.16,0,0,1,.13-.05s.05.11,0,.1"/><path class="cls-2" d="M255.25,71.39q2.43-2.89,5.13-5.55"/><path class="cls-2" d="M260.15,72.18a1,1,0,0,1,.4-.78q1.87-1.87,3.82-3.65"/><path class="cls-2" d="M261.4,77.37a54.61,54.61,0,0,1,4.08-4"/><path class="cls-2" d="M263.8,81.86a15.79,15.79,0,0,1,3.46-3.72"/><path class="cls-2" d="M268.92,83a2,2,0,0,1,.45-.69l2.38-2.74a4.63,4.63,0,0,1,.78-.77"/><path class="cls-2" d="M274,82.93c-.1,0-.09-.17,0-.26a44.59,44.59,0,0,1,2.61-4"/><path class="cls-4" d="M263.64,18.45c-.36-.29-13.22-.5-16.44.4-4.28,14.25-19.47,59.13-19,59.46.77.56,12.15.61,12.36,0,1.38-4.12,3.79-12.21,3.79-12.21s18.39-.63,19.33,0c.56.4,2.72,11.44,3.79,12.29.83.66,14.9.29,15,0C282.87,77.49,264.78,19.38,263.64,18.45ZM247.76,55c-.29-.37,4.91-19,6.36-21.14C255,36.57,260.55,55,260.41,55,259.18,55.47,248,55.34,247.76,55Z"/><path class="cls-3" d="M263.89,18a10.76,10.76,0,0,0-3.72-.29c-2.54-.06-5.09,0-7.63.06-1.27.05-4.51-.25-5.59.63-.82.67-1.09,3.1-1.4,4.1C242.46,32.38,239.2,42.19,236,52c-2.64,8-5.41,16.05-7.78,24.17-.42,1.44-1.06,2.5.78,2.81a35.62,35.62,0,0,0,6.11.24c1.44,0,4,.35,5.31-.33s1.5-3.16,1.91-4.46c.73-2.34,2.1-5.13,2.32-7.58a2.13,2.13,0,0,1,.19-.64c0,.08-.69.37-.32.33s1,0,1.55,0q3.05-.09,6.1-.15c2.28,0,4.56-.08,6.85-.06.92,0,3.65-.37,4.38.25.32.28.5,1.68.6,2.06.32,1.2.61,2.4.92,3.6A26.31,26.31,0,0,0,266.62,78c1.19,2.24,6,1.32,8.12,1.3s4.27,0,6.4-.18c.59,0,1.52.09,1.82-.53.43-.89-.76-3.45-1-4.29-.92-3.29-1.9-6.55-2.89-9.82q-4-13.33-8.27-26.59c-2-6.21-3.74-12.63-6.26-18.65a3.41,3.41,0,0,0-.56-1.11c-.45-.46-1.16.25-.71.71.84.85,1.4,3.63,1.83,4.9,1.29,3.75,2.51,7.52,3.72,11.29q4.5,14,8.76,28c1.09,3.61,2.18,7.22,3.21,10.85.32,1.13.65,2.25.92,3.39.07.29.14.59.2.88s.47-.06,0-.1c-4.21-.33-8.53.46-12.78.14-2.08-.16-2.09-1.85-2.61-3.69-.65-2.35-1.16-4.74-1.84-7.08-.35-1.18-.43-1.71-1.65-1.93a35.3,35.3,0,0,0-6.37-.16c-4.11,0-8.21.12-12.32.26a.51.51,0,0,0-.48.37c-1.06,3.56-2.14,7.11-3.28,10.64-.27.83-.22,1.13-.88,1.45a6.81,6.81,0,0,1-2.21.16c-1.88.08-3.77.07-5.65,0-.75,0-1.51,0-2.26-.13-.58-.07-1.08-.35-.9.16-.09-.25.28-1.08.36-1.37.64-2.25,1.37-4.48,2.08-6.71C236,55,241.07,40,245.87,24.81a30.88,30.88,0,0,1,1.53-4.89c.45-.86.31-.71,1.47-.87.95-.12,1.91-.18,2.86-.23,2.4-.13,4.81-.15,7.21-.12,1.21,0,3.33-.31,4.45.17C264,19.13,264.48,18.27,263.89,18Z"/><path class="cls-3" d="M248.25,54.92c-.21-.73.61-2.68.82-3.48.56-2.15,1.16-4.29,1.78-6.42,1-3.46,1.77-7.76,3.71-10.85l-.91-.12c2,6,3.74,12.11,5.49,18.18.25.88.43,1.83.75,2.69.17.47-.3-.21.26-.32a2,2,0,0,1-.7.08,10.76,10.76,0,0,0-2.17.1c-1.87,0-3.74,0-5.61,0-.92,0-2.81.27-3.65-.17-.57-.3-1.08.56-.5.86,1.49.78,4.33.32,5.94.33,2.25,0,4.89.3,7.09-.28a.52.52,0,0,0,.37-.48,9.16,9.16,0,0,0-.76-2.9c-.63-2.19-1.28-4.38-1.94-6.57-1.18-3.94-2.31-7.9-3.61-11.8a.51.51,0,0,0-.91-.12c-2.07,3.32-2.89,7.91-4,11.61-.66,2.28-1.3,4.56-1.88,6.86-.2.8-.82,2.21-.57,3.06A.5.5,0,0,0,248.25,54.92Z"/><path class="cls-2" d="M279.51,18.92c-1.82,2-3.87,2.43-4.44,5.08-.21,1,.45,12.32.94,12.78s8.73.57,12.37.55c.31,3.78.27,45.08.65,45.59.63.84,9.79.9,13.83.5.82-.08,4.92-3.25,5.58-4.67"/><path class="cls-2" d="M323.23,30.66a20.2,20.2,0,0,0-1.91,3.67,6.47,6.47,0,0,1-2.63,3.11,6.3,6.3,0,0,1-2.2.57c-3.15.35-6.48-.16-9.4,1.06a.41.41,0,0,0,.48.16"/><path class="cls-2" d="M275.11,26.54a21.85,21.85,0,0,1,3.7-2.81"/><path class="cls-2" d="M275.49,31.91a43.05,43.05,0,0,1,3.79-3l-.33.31"/><path class="cls-2" d="M276.53,37.08a75.69,75.69,0,0,1,7.7-6.13"/><path class="cls-2" d="M284.33,37.39c2.23-2,5.09-4.33,7.41-6.23"/><path class="cls-2" d="M288.47,41.53a51.85,51.85,0,0,1,5.69-5.42l-.34.15"/><path class="cls-2" d="M288.43,48.11l5.59-5-.33.16"/><path class="cls-2" d="M288.54,54.84q2.71-2.74,5.62-5.26"/><path class="cls-2" d="M288.78,61.77a52.7,52.7,0,0,1,6-5.85l-.66.46"/><path class="cls-2" d="M288.78,67.54a45,45,0,0,1,5.12-4.59"/><path class="cls-2" d="M289,73.41a37.4,37.4,0,0,1,4.84-4.31"/><path class="cls-2" d="M288.78,78.37c1.82-1.64,3.32-2.88,5.14-4.52"/><path class="cls-2" d="M290.44,83.35l5-4.44"/><path class="cls-2" d="M296.95,83.88a22.9,22.9,0,0,1,5.5-4.88"/><path class="cls-2" d="M308.13,34.19a18.76,18.76,0,0,1,4.8-3.52"/><path class="cls-2" d="M312.45,38.36c.63-.68,1.91-1.81,2.55-2.5a29.06,29.06,0,0,1,5.56-4.92"/><path class="cls-1" d="M279.29,30.69c.2.2,14.56.49,14.73.66s-.38,38.34.12,47.4c3.65.52,13.67.92,14.31,0,.42-.61-.64-47.89-.25-48.06s13.93.52,14.81.13.5-11.57-.06-11.9c-.29-.17-42.52-1-43.44,0C278.74,19.76,279.13,30.54,279.29,30.69Z"/><path class="cls-1" d="M851.38,78.58c.33.23,13.18.47,13.38.08s-.29-3.27.11-4.42,20.66-30,21.06-33.51c-1.09,11.56,1.28,24.65-.41,36.23a1.22,1.22,0,0,0,1.14,1.41c3.33.17,9.15,1,12.78.51.13-18.66.88-58.36-.12-59.91-.37-.57-13-1-13.56.13s0,3.39-.16,5.17c-.15,1.22-14.62,23-20.16,31.74a.35.35,0,0,1-.64-.22c.85-11.38,1-36.07.4-36.69-.83-.9-12.51-.6-13.2,0C850.82,20.21,850.91,78.25,851.38,78.58Z"/><path class="cls-2" d="M852,19.12c-1,1-5.87,5.51-5.9,6.18-.88,19-1,37.25-1,56.51a1.1,1.1,0,0,0,.84,1.07c5.26,1.32,15.42,1.08,15.63.73,1.07-1.72,2.57-3,3.25-4.95"/><path class="cls-2" d="M879.68,51.8c0,8,.37,31.38.58,31.56s11.78,1.15,12.59,1a9,9,0,0,0,6.56-5.49"/><path class="cls-2" d="M885.74,19.08c-1.94.79-5.31,2.54-6.06,4.5-.33.87-.73,8.13-.73,11.51"/><path class="cls-2" d="M845.82,31.25a40,40,0,0,1,5.65-5"/><path class="cls-2" d="M845.82,36.83A27.79,27.79,0,0,1,851.09,32"/><path class="cls-2" d="M845.63,42.31c1.7-1.59,4.11-3.86,5.71-5.56"/><path class="cls-2" d="M845.29,50.31c1.83-2,3.94-4,5.77-6"/><path class="cls-2" d="M845.18,57a76.85,76.85,0,0,1,6-5.89"/><path class="cls-2" d="M845,64.55c1.79-1.79,4.25-3.68,6-5.47"/><path class="cls-2" d="M844.92,72c2-2.16,4.34-4.26,6.29-6.15"/><path class="cls-2" d="M845.09,80.25a69.19,69.19,0,0,1,6.18-6.57"/><path class="cls-2" d="M849.58,83.5a64.27,64.27,0,0,0,4.15-4.92"/><path class="cls-2" d="M856.58,83.85,860,80a9.81,9.81,0,0,1,1.18-1.11"/><path class="cls-2" d="M879,28.75a62.84,62.84,0,0,1,6.46-6.36"/><path class="cls-2" d="M890.55,84.1a64.86,64.86,0,0,1,4.11-5.29"/><path class="cls-2" d="M884.53,83.82l4.83-5.24"/><path class="cls-2" d="M880.11,80.25a30.3,30.3,0,0,1,5.89-7"/><path class="cls-2" d="M880,71.12l3.71-4.06A8.91,8.91,0,0,1,886.13,65"/><path class="cls-2" d="M879.8,62.69a5,5,0,0,1,.95-1.5,36.71,36.71,0,0,1,5.17-5.74"/><path class="cls-2" d="M879.68,55a44.44,44.44,0,0,1,6-7.85"/><path class="cls-2" d="M657.78,18.53c-2.47,2.58-5.5,5.17-5.76,6s1.24,58.17,1.79,58.5c.34.21,12.4.25,13.23-.28s2.08-2.76,2.6-4.28"/><path class="cls-2" d="M670,52c.57,1.83,8.07,29.62,9.14,31,.11.15,10,1.35,11.39.48s2.2-2.78,3.55-5"/><path class="cls-2" d="M703.16,46.65c.07,10.57.11,35,.75,36,.78,1.22,15.3,1.21,15.55.81,1.52-2.45,2.23-3.1,3.76-5.55"/><path class="cls-2" d="M701.25,18.48a63.16,63.16,0,0,0-7.66,5.92c-.39.5-4.74,15.09-5.58,23"/><path class="cls-2" d="M652.31,29.65a31,31,0,0,1,4.92-5.36"/><path class="cls-2" d="M652.39,35.57a65.35,65.35,0,0,1,4.84-5.67"/><path class="cls-2" d="M652.14,40.88,653.91,39a31.44,31.44,0,0,1,3.34-3.27s.1-.07.15,0,0,.13,0,.1"/><path class="cls-2" d="M652.51,48a40.09,40.09,0,0,1,5-5.91"/><path class="cls-2" d="M653,53.39a21.47,21.47,0,0,1,4.8-4.93"/><path class="cls-2" d="M652.95,61.19a15.61,15.61,0,0,1,2.67-3.5l1.89-2s.11-.1.16-.07,0,.13,0,.07"/><path class="cls-2" d="M653.19,67.27q2.29-2.7,4.83-5.17"/><path class="cls-2" d="M654,74.37a23.68,23.68,0,0,1,4-4.53"/><path class="cls-2" d="M653.55,81.4a38.8,38.8,0,0,1,4-4.3"/><path class="cls-2" d="M657.83,83l3.46-3.88"/><path class="cls-2" d="M664.14,83.25a17.63,17.63,0,0,1,3-4.14l-.24.17"/><path class="cls-2" d="M670.07,46.17a25.59,25.59,0,0,1,2.59-3.92"/><path class="cls-2" d="M670.34,53.35A43.39,43.39,0,0,1,674,47.56"/><path class="cls-2" d="M672,58.72q1.73-2.51,3.58-4.92c.09-.12.35-.2.35,0"/><path class="cls-2" d="M673.65,64.49q1.95-2.71,4-5.32"/><path class="cls-2" d="M675.29,71.37a38.87,38.87,0,0,1,4.14-5.44"/><path class="cls-2" d="M677,77.56A7.29,7.29,0,0,0,678,76.23a25.17,25.17,0,0,1,3.86-4.4l-.38.19"/><path class="cls-2" d="M679.62,83.37a35,35,0,0,1,4.24-4.82s.07-.06.1,0,0,.09,0,.07"/><path class="cls-2" d="M686.52,84.1a36.56,36.56,0,0,0,3.62-5.36"/><path class="cls-2" d="M692.7,27.95a25.08,25.08,0,0,1,5.88-3.73"/><path class="cls-2" d="M690.63,34.32l6.63-4.22"/><path class="cls-2" d="M689.3,39.8q3.3-2.54,6.83-4.78s.11-.08.08-.14-.12,0-.06,0"/><path class="cls-2" d="M688.37,45.18q3.35-2.55,6.75-5l-.6.05"/><path class="cls-2" d="M688.84,50a36.7,36.7,0,0,1,4.69-3.59l-.42-.06"/><path class="cls-2" d="M705.5,40.66l2.8-1.92c.14-.1.37-.18.47,0"/><path class="cls-2" d="M703.44,48a19.3,19.3,0,0,1,5.1-4.15"/><path class="cls-2" d="M703.15,55.39Q706,53,708.91,50.58"/><path class="cls-2" d="M703.31,61.39Q706,58.3,709,55.46"/><path class="cls-2" d="M703,69c1.54-2.48,4.23-4,6-6.34l-.61.5"/><path class="cls-2" d="M703.87,75.71a46.25,46.25,0,0,1,5-4.5l-.36.31"/><path class="cls-2" d="M703.88,82.89a39.32,39.32,0,0,1,4.65-4.69"/><path class="cls-2" d="M709.81,83.73q2.32-2.71,4.81-5.28"/><path class="cls-2" d="M714.73,84.07A34.8,34.8,0,0,1,719.3,79"/><path class="cls-4" d="M657.78,18.53c-.36,12,.26,48,.16,60,0,.52,3.69,1,11.71-.08,1.1-.14-.08-49-.08-49s12.83,47.41,14.88,48.88c.84.61,9.54.51,9.63.13C696.43,68,709,28.81,709,28.81s-.43,43.29.07,49.52c.06.78,10.75.52,14.06-.12.75-.15.54-53,0-59.73a146.84,146.84,0,0,0-21.87,0c-1.15.07-10.5,38.16-10.5,38.16s-10.58-38-11-38.16c-.66-.21-18.41-.36-22,0"/><path class="cls-3" d="M657.28,18.53c-.3,10.66-.09,21.35,0,32q.07,8.91.14,17.82,0,3.47,0,6.94c0,1-.45,3,.31,3.82s2.91.5,3.76.5c1.54,0,3.08-.1,4.61-.24,1-.09,3.15.14,3.85-.51.87-.82.53-3.44.56-4.49.24-8.37,0-16.77-.08-25.14q-.15-9.86-.39-19.71l-1,.13c4,14.68,7.84,29.5,12.77,43.9.48,1.39,1,4.29,2.29,5.24s3.79.53,5.14.54c1.14,0,4,.44,5-.33.77-.6.89-2.86,1.13-3.78.56-2.12,1.16-4.24,1.77-6.35,1.52-5.27,3.11-10.53,4.73-15.77q3.72-12.1,7.58-24.15l-1-.13q-.11,11.21-.15,22.42c0,5.65,0,11.31,0,17,0,2.1,0,4.2.07,6.3,0,1-.3,3,.15,3.9s2.22.84,3.2.88A68.86,68.86,0,0,0,720.7,79c1-.09,2.48.09,3-.84a7,7,0,0,0,.19-2.44c.41-9.35.26-18.75.23-28.11,0-9.67.26-19.49-.47-29.14a.52.52,0,0,0-.5-.5,109.9,109.9,0,0,0-13-.35q-3.46.06-6.92.24c-.75,0-1.79-.2-2.39.33a6.13,6.13,0,0,0-1,2.44c-3,8.88-5.05,18.11-7.34,27.19q-1.09,4.34-2.16,8.68h1q-3.31-11.91-6.69-23.79c-1.2-4.23-2.38-8.47-3.69-12.67-.17-.53-.3-1.59-.77-2-.8-.62-3.22-.24-4.14-.26-6-.11-12.19-.42-18.17.19-.63.07-.64,1.07,0,1a137.11,137.11,0,0,1,15.32-.23,41.12,41.12,0,0,1,6.18.14c.65.11-.06-.42.21.14a10.13,10.13,0,0,1,.47,1.46c2.81,9.1,5.29,18.32,7.87,27.49q1.23,4.37,2.44,8.75a.5.5,0,0,0,1,0c2.71-11.05,5.4-22.14,8.63-33.05.31-1.06.63-2.12,1-3.17a4.24,4.24,0,0,1,.42-1.15c.59-.74-.32-.13,1-.48,1.6-.45,3.77-.19,5.44-.24q2-.06,4-.08c2.41,0,4.83,0,7.24.1a20.36,20.36,0,0,0,3.6.21,1.88,1.88,0,0,1,.61.05c-.79-.2-.28-.4-.39.46-.26,2.06.15,4.47.2,6.55q.44,21.93.14,43.88c0,2.2-.05,4.42-.18,6.62,0,.33.08,1.15-.12,1.43.1-.13-1.12,0-1.54.06-1,.11-2.1.17-3.15.23-2,.1-4,.16-6,.09-1.46-.05-2.37.24-2.49-.84a71.5,71.5,0,0,1-.15-7.29c-.13-13.78,0-27.57.14-41.35a.5.5,0,0,0-1-.13c-4.94,15.39-10,30.81-14.13,46.45-.2.76-.38,1.53-.58,2.3s0,.73-1.08.82a36.37,36.37,0,0,1-6.75,0c-1.23-.13-1.34-.22-1.81-1.27s-.9-2.32-1.3-3.49c-2.83-8.23-5.16-16.64-7.53-25q-2.7-9.51-5.29-19a.5.5,0,0,0-1,.13c.32,13.13.6,26.26.55,39.39,0,2.66,0,5.35-.19,8-.14,1.78-.53,1.17-2.48,1.37a32.85,32.85,0,0,1-7.54.23c-.93-.13-.77,0-1-.66a11.27,11.27,0,0,1,0-2.79q0-3.22,0-6.45,0-8.22-.13-16.43c-.09-11.22-.33-22.46,0-33.68a.5.5,0,0,0-1,0Z"/><path class="cls-1" d="M376.64,58a25.28,25.28,0,0,0-1.24-6,16.72,16.72,0,0,0-3.57-6.66c-3.49-3.62-9-4.22-14-4.6-4.22-.32-13.5-.2-13.87-.78-.2-.31.36-21.38-.55-21.8-.18-.08-12.44.11-13,.33-1.69.73-.15,54-.34,59.63,11.29.45,19.19.75,30.44-.25,1.78-.16,10.11-3.34,12-6A20.17,20.17,0,0,0,376.64,58Zm-17.39,7.76c-1.14.79-14.88,1.09-14.89.72-.06-2.45-1.29-13.53-.45-15.16.65-1.25,8.34-.28,10.76.09s8.08,1.56,8.08,7.78A7.57,7.57,0,0,1,359.24,65.74Z"/><path class="cls-2" d="M330.22,18.53a75.12,75.12,0,0,0-5.72,5.06c-.26.53-.41,57.68.31,58.22.34.25,35.13,3.19,42-6.14"/><path class="cls-2" d="M343.6,53.76c3.56-.1,8.89-.31,11.27,1.17a7.29,7.29,0,0,1,3.75,6.21,34.48,34.48,0,0,1-.64,4.92"/><path class="cls-2" d="M324.37,28.92c1.51-1.48,3.58-2.24,5.26-3.52,0,0,.06-.06.05-.09s-.09,0-.06,0"/><path class="cls-2" d="M324.31,34.21a1.47,1.47,0,0,1,.51-.56,52.22,52.22,0,0,1,4.66-3.17c.06,0,.14-.11.11-.18s-.15,0-.07.05"/><path class="cls-2" d="M324.39,39.11q2.52-2,5.2-3.7"/><path class="cls-2" d="M324.43,44.41l5.08-3.51"/><path class="cls-2" d="M324.12,49.16l1.44-.9,4.22-2.66"/><path class="cls-2" d="M324.31,54.54c1.58-1.35,3.78-1.87,5.23-3.36"/><path class="cls-2" d="M324.2,59.85a43.67,43.67,0,0,1,5.35-3.51"/><path class="cls-2" d="M324.11,64.6q2.7-1.9,5.52-3.6"/><path class="cls-2" d="M324.22,69.44a53.57,53.57,0,0,1,5.7-3.52"/><path class="cls-2" d="M324.57,74.36q2.72-1.72,5.51-3.32"/><path class="cls-2" d="M324.74,79.87q2.48-1.71,5.09-3.23"/><path class="cls-2" d="M329.38,82.1q2.43-2,4.73-4.09"/><path class="cls-2" d="M334.89,82.44l4.72-4.11"/><path class="cls-2" d="M341.73,82.29q2.32-2,4.54-4"/><path class="cls-2" d="M348.16,82a33,33,0,0,0,4.24-3.59"/><path class="cls-2" d="M355.61,80.68a33.32,33.32,0,0,0,2.87-2.56"/><path class="cls-2" d="M345.85,53.82A25.07,25.07,0,0,1,349,50.68"/><path class="cls-2" d="M351.4,53.79a12.85,12.85,0,0,1,2.3-2.61"/><path class="cls-2" d="M354.81,54.7l3-2.65"/><path class="cls-2" d="M357.9,57.29,361,54.43"/><path class="cls-2" d="M358.93,60.82q1.86-1.5,3.78-2.9"/><path class="cls-2" d="M358.58,64.47l3.1-1.54"/><path class="cls-1" d="M115.38,60.31a13.28,13.28,0,0,0-3.69-7.57c-1.83-2-5.75-3.8-8.45-4.64,3-1.32,6.71-2.72,8.45-5.47.35-.55,2.5-5.08,2.25-7.75a16.32,16.32,0,0,0-11.75-14.51c-1.7-.45-36.31-1.17-36.19-.48.28,1.55-.45,59.4-.17,59.68s21.22.35,31.48-.25a60.07,60.07,0,0,0,6.12-1.12,17.86,17.86,0,0,0,10.94-8.69C115.63,66.84,115.72,63.24,115.38,60.31ZM80,30.91c1.14-1.72,10.31-.84,12.54-.71s5.11,1.25,6,3.25a10.88,10.88,0,0,1,.05,5.75,6.73,6.73,0,0,1-1.38,3c-1,1.08-2.65,1.34-4.14,1.52-4.29.52-12.83-.21-12.91-.25S79.18,32.1,80,30.91Zm20.47,32.82a6.94,6.94,0,0,1-1.52,3.1C97.77,68,96,68.23,94.36,68.42c-4.71.55-14.1-.22-14.19-.26S79.13,56.27,80,55c1.25-1.81,11.33-.88,13.78-.75s5.62,1.31,6.6,3.42A10.93,10.93,0,0,1,100.44,63.72Z"/><path class="cls-2" d="M66.15,20.08a67.28,67.28,0,0,0-4.41,7.17,13.63,13.63,0,0,0-1.17,2.69,15.17,15.17,0,0,0-.38,4L59.94,77.2c0,2.49-.3,6,1.66,7.54,1.46,1.14,16.77,1.06,21.86.6,9.65-.87,19.08-3.65,26.18-10.24"/><path class="cls-2" d="M79.63,33.6c3-.52,12.46,0,13.37.72,1.16.9,1.67,3.07,1.84,4.53s-.71,3.62-.93,5.07"/><path class="cls-2" d="M79.63,58c1.32-.59,8.22-1,10.22-.78,2.69.34,5,1.88,5.47,3.31a28.87,28.87,0,0,1,.48,7.67"/><path class="cls-2" d="M60.35,34.89a6.33,6.33,0,0,1,1-1.42,35.67,35.67,0,0,1,5.13-4.89"/><path class="cls-2" d="M60.2,42.64a41.58,41.58,0,0,1,4.06-4.29A8.57,8.57,0,0,1,66.11,37"/><path class="cls-2" d="M60.26,50.62a28.25,28.25,0,0,1,5.73-5"/><path class="cls-2" d="M60.11,58.56A26.52,26.52,0,0,1,66,53.28"/><path class="cls-2" d="M59.88,65.74A12.52,12.52,0,0,1,63.07,63l2.81-1.88"/><path class="cls-2" d="M60.07,73.46a9.36,9.36,0,0,1,1.84-1.88,22,22,0,0,1,2.55-2,11,11,0,0,1,1.48-.77"/><path class="cls-2" d="M59.85,80l5.21-4a7.21,7.21,0,0,1,1-.66"/><path class="cls-2" d="M63.17,84.86q3-2.59,6.18-5"/><path class="cls-2" d="M70.37,85.23q2.74-3,5.67-5.74"/><path class="cls-2" d="M78.26,85.71q3.15-3.06,6.19-6.23"/><path class="cls-2" d="M87.17,84.7l5-5.11"/><path class="cls-2" d="M95.44,83.23l3.75-4.33"/><path class="cls-2" d="M96.25,66.13A8.51,8.51,0,0,1,98,64.54l3-2.28"/><path class="cls-2" d="M95.68,62.63q2.2-2.42,4.59-4.66"/><path class="cls-2" d="M93.6,58.39a20.46,20.46,0,0,1,2.84-3.75"/><path class="cls-2" d="M88.39,56.75A16.4,16.4,0,0,1,90.5,54.2"/><path class="cls-2" d="M82.28,57.23A22.25,22.25,0,0,1,84.67,54"/><path class="cls-2" d="M81.88,33.15c-.06-.28.17-.54.38-.74l2.43-2.28"/><path class="cls-2" d="M86.12,33.33c1.53-.92,2.52-2.61,4.16-3.32"/><path class="cls-2" d="M90.93,33.71a37.41,37.41,0,0,1,3.86-3.05"/><path class="cls-2" d="M94.16,35.69a18.2,18.2,0,0,1,3.64-3.11"/><path class="cls-2" d="M94.72,39.42q2.06-1.3,4.09-2.66"/><path class="cls-2" d="M453.14,35.9c2-1.9,5.13-2,7.92-2,1.42,0,3,.08,3.94,1.17a4.44,4.44,0,0,1,.79,1.79,23.79,23.79,0,0,1,.64,8"/><path class="cls-2" d="M458.16,61.29c1.28-.28,7.64-.47,8.36.62s-.29,22,1.68,23.18c1,.63,14.62.48,15,.3a26.57,26.57,0,0,0,4.12-7.14"/><path class="cls-2" d="M440.67,28.28c-9.4,16.29,1.67,23.94,1.85,25,.43,2.4-13.91,27.6-12.25,29.35,1.17,1.24,16,2.72,16.34,2.42a22.41,22.41,0,0,0,5.13-6.21"/><path class="cls-2" d="M436.94,43.22q1.16-1.91,2.41-3.76"/><path class="cls-2" d="M439.19,48.63q1.35-1.9,2.73-3.78s.08-.1.14-.09.07.12,0,.11"/><path class="cls-2" d="M442,52.82a28.28,28.28,0,0,1,2.71-3.75"/><path class="cls-2" d="M440.8,58.08a59.17,59.17,0,0,1,7.59-3.63.35.35,0,0,1-.33.21"/><path class="cls-2" d="M437.78,64.42c1.73-1.08,3.11-2,4.84-3.09a16.26,16.26,0,0,1,2.79-1.42"/><path class="cls-2" d="M435,70.4c1.05-.55,1.65-1,2.7-1.52A12.06,12.06,0,0,1,442,67.3"/><path class="cls-2" d="M431.87,76.95a23.58,23.58,0,0,1,6.78-2.87"/><path class="cls-2" d="M431.71,83.11a43.48,43.48,0,0,1,6.48-4.54l-.21.18"/><path class="cls-2" d="M437.63,84c0-.27.54-.72.75-.9l5.46-4.79"/><path class="cls-2" d="M443.86,84.81a2.69,2.69,0,0,1,.77-.93c1.74-1.54,3.86-3.26,5.6-4.79"/><path class="cls-2" d="M459.14,61.07A49.41,49.41,0,0,0,466,55.29a1.17,1.17,0,0,1,.87-.47"/><path class="cls-2" d="M466.34,61.72c2.06-1.87,4.77-4.44,6.83-6.3"/><path class="cls-2" d="M466.66,68.67a47.32,47.32,0,0,1,6.55-6"/><path class="cls-2" d="M466.92,74.7a42.08,42.08,0,0,1,6.3-5.72"/><path class="cls-2" d="M467.14,81l6-5.75"/><path class="cls-2" d="M469.46,85.54l6.75-6.73"/><path class="cls-2" d="M477.33,85.36a67.81,67.81,0,0,0,5.26-7.3l-.37.18"/><path class="cls-2" d="M456,34.66a1.81,1.81,0,0,1,.73-1.21q1.87-1.75,3.83-3.42"/><path class="cls-2" d="M462.79,33.81a23.77,23.77,0,0,1,4.78-4.21"/><path class="cls-2" d="M466.12,37.21q3.6-3.17,7.45-6"/><path class="cls-2" d="M466.34,41.94q3.25-2.6,6.64-5"/><path class="cls-2" d="M469.2,45a35,35,0,0,1,4.29-3.31.23.23,0,0,0-.25-.06"/><path class="cls-1" d="M486.7,18.85c-.3-.24-28.14.12-30.4.37a26.2,26.2,0,0,0-8.95,2.31,16.06,16.06,0,0,0-8.52,14.42c0,6,3.09,12.53,8.44,15.19.86.43,2.08.38,2,1.33a2.24,2.24,0,0,1-.33.85,219.8,219.8,0,0,0-11.74,24.62.64.64,0,0,0,.7.86c4.79-.75,13.39.54,13.68.36s5.2-15.84,8.85-22.74a1.82,1.82,0,0,1,.51-.68,1.84,1.84,0,0,1,1-.24l11.28-.72c-.1,4.87,0,24,.18,24.21s9.88-.1,13.74-.1C487.87,77.3,487,19.13,486.7,18.85ZM473.28,44.95a128.37,128.37,0,0,1-15-.62c-1-.13-3.83-1.73-4.48-3.85a9.6,9.6,0,0,1-.66-3.69,8.4,8.4,0,0,1,2.5-5.33c1.77-1.88,15.24-2.16,17-2C473.8,29.63,473.16,41.21,473.28,44.95Z"/><path class="cls-2" d="M136.34,35.9c2-1.9,5.13-2,7.92-2,1.42,0,3,.08,3.94,1.17a4.44,4.44,0,0,1,.79,1.79,23.79,23.79,0,0,1,.64,8"/><path class="cls-2" d="M141.36,61.29c1.28-.28,7.64-.47,8.36.62s-.29,22,1.68,23.18c1,.63,14.62.48,15,.3a26.57,26.57,0,0,0,4.12-7.14"/><path class="cls-2" d="M123.86,28.28c-9.4,16.29,1.67,23.94,1.85,25,.43,2.4-13.91,27.6-12.25,29.35,1.17,1.24,16,2.72,16.34,2.42a22.41,22.41,0,0,0,5.13-6.21"/><path class="cls-2" d="M120.14,43.22q1.16-1.91,2.41-3.76"/><path class="cls-2" d="M122.39,48.63q1.35-1.9,2.73-3.78s.08-.1.14-.09.07.12,0,.11"/><path class="cls-2" d="M125.18,52.82a28.28,28.28,0,0,1,2.71-3.75"/><path class="cls-2" d="M124,58.08a59.17,59.17,0,0,1,7.59-3.63.35.35,0,0,1-.33.21"/><path class="cls-2" d="M121,64.42c1.73-1.08,3.11-2,4.84-3.09a16.26,16.26,0,0,1,2.79-1.42"/><path class="cls-2" d="M118.15,70.4c1.05-.55,1.65-1,2.7-1.52a12.06,12.06,0,0,1,4.31-1.59"/><path class="cls-2" d="M115.07,76.95a23.58,23.58,0,0,1,6.78-2.87"/><path class="cls-2" d="M114.91,83.11a43.48,43.48,0,0,1,6.48-4.54l-.21.18"/><path class="cls-2" d="M120.83,84c0-.27.54-.72.75-.9L127,78.35"/><path class="cls-2" d="M127.06,84.81a2.69,2.69,0,0,1,.77-.93c1.74-1.54,3.86-3.26,5.6-4.79"/><path class="cls-2" d="M142.34,61.07a49.41,49.41,0,0,0,6.81-5.79,1.17,1.17,0,0,1,.87-.47"/><path class="cls-2" d="M149.53,61.72c2.06-1.87,4.77-4.44,6.83-6.3"/><path class="cls-2" d="M149.86,68.67a47.32,47.32,0,0,1,6.55-6"/><path class="cls-2" d="M150.12,74.7a42.08,42.08,0,0,1,6.3-5.72"/><path class="cls-2" d="M150.33,81l6-5.75"/><path class="cls-2" d="M152.66,85.54l6.75-6.73"/><path class="cls-2" d="M160.53,85.36a67.81,67.81,0,0,0,5.26-7.3l-.37.18"/><path class="cls-2" d="M139.16,34.66a1.81,1.81,0,0,1,.73-1.21q1.87-1.75,3.83-3.42"/><path class="cls-2" d="M146,33.81a23.77,23.77,0,0,1,4.78-4.21"/><path class="cls-2" d="M149.31,37.21q3.6-3.17,7.45-6"/><path class="cls-2" d="M149.53,41.94q3.25-2.6,6.64-5"/><path class="cls-2" d="M152.39,45a35,35,0,0,1,4.29-3.31.23.23,0,0,0-.25-.06"/><path class="cls-1" d="M169.9,18.85c-.3-.24-28.14.12-30.4.37a26.2,26.2,0,0,0-8.95,2.31A16.06,16.06,0,0,0,122,35.95c0,6,3.09,12.53,8.44,15.19.86.43,2.08.38,2,1.33a2.24,2.24,0,0,1-.33.85,219.8,219.8,0,0,0-11.74,24.62.64.64,0,0,0,.7.86c4.79-.75,13.39.54,13.68.36s5.2-15.84,8.85-22.74a1.82,1.82,0,0,1,.51-.68,1.84,1.84,0,0,1,1-.24l11.28-.72c-.1,4.87,0,24,.18,24.21s9.88-.1,13.74-.1C171.07,77.3,170.24,19.13,169.9,18.85ZM156.48,44.95a128.37,128.37,0,0,1-15-.62c-1-.13-3.83-1.73-4.48-3.85a9.6,9.6,0,0,1-.66-3.69,8.4,8.4,0,0,1,2.5-5.33c1.77-1.88,15.24-2.16,17-2C157,29.63,156.36,41.21,156.48,44.95Z"/><path class="cls-3" d="M734.21,18.48c-2.75,3.13-5.91,5.89-6.23,10.33-.14,1.9,0,3.84,0,5.75.08,6.63.26,13.27.46,19.9.21,7,.45,14,.85,21,.12,2,.21,4.07.46,6.09.13,1,.1,1.51,1,1.9,1.31.54,3.32.47,4.72.62a43,43,0,0,0,6.66.3c3.67-.2,5.35-2.36,7-5.56.29-.57-.57-1.08-.86-.5a14.06,14.06,0,0,1-2.92,4.17c-1.25,1.06-3.22.93-4.78.92s-3.4-.15-5.09-.32a18.27,18.27,0,0,1-4.32-.56c-.41-.15-.19.28-.37-.52a14.56,14.56,0,0,1-.21-2c-.19-2.18-.31-4.36-.42-6.54-.64-12.33-1-24.69-1.18-37,0-2.09-.09-4.19-.05-6.29.09-4.86,3-7.54,6-11,.42-.48-.28-1.19-.71-.71Z"/><path class="cls-3" d="M768,18.39c-2,.74-5,2.05-6.22,3.82-.83,1.16-.76,3.15-.85,4.5-.36,5.34-.18,10.7-.17,16a.5.5,0,0,0,1,0c0-4.46-.11-8.92,0-13.38.06-1.79-.14-4.17.52-5.87.76-2,4.07-3.44,6-4.15.6-.22.34-1.19-.27-1Z"/><path class="cls-3" d="M747.75,58.68c.63,1.54,6.44.47,7.68.44s4.68-.56,5.15.8c.37,1.06-.12,3-.15,4.13q0,2.42,0,4.85c0,2.84.1,5.68.28,8.51.1,1.6,0,3.73.6,5.26.4,1,.93,1.11,2,1.26a41,41,0,0,0,6.9.16,37.58,37.58,0,0,0,6.1-.32c2.47-.51,3.84-2.83,5-4.85a.5.5,0,0,0-.86-.5c-.93,1.61-2,3.62-3.88,4.27a10.17,10.17,0,0,1-3,.23c-2.55.07-5.06.27-7.62.19-.82,0-3.08.21-3.64-.5-.39-.5-.34-1.81-.4-2.4-.33-3.05-.42-6.14-.48-9.21-.07-3.39-.06-6.78.09-10.17.08-1.62.21-2.21-1.44-2.56a25.8,25.8,0,0,0-6.11-.09c-1.12,0-2.23.1-3.35.12h-1.35c-.39,0-.73-.26-.57.14-.24-.59-1.21-.33-1,.27Z"/><path class="cls-2" d="M734.38,24q-3.09,3.21-6,6.62"/><path class="cls-2" d="M734.6,30.49c-2.15,2.07-4,4-6.11,6.16"/><path class="cls-2" d="M734.89,37.61a84.31,84.31,0,0,0-6.08,6.22"/><path class="cls-2" d="M734.69,43.83q-3,3.12-5.88,6.43l.34-.39"/><path class="cls-2" d="M734.66,50.9A70.79,70.79,0,0,1,729,57.17"/><path class="cls-2" d="M734.61,56.67l-5.38,6.41"/><path class="cls-2" d="M734.72,65a65.78,65.78,0,0,1-5.3,6.43"/><path class="cls-2" d="M734.59,73.15c-1.49,1.69-3.45,4-4.84,5.79"/><path class="cls-2" d="M735.42,77.54l-4.15,5.71"/><path class="cls-2" d="M740.28,79.07a38.46,38.46,0,0,0-3.87,4.64"/><path class="cls-2" d="M745.38,78.94a25.93,25.93,0,0,0-3.22,4.77"/><path class="cls-2" d="M767.1,23.52c-2.07,1.72-3.82,3.26-5.76,5.13"/><path class="cls-2" d="M767.42,28.59c-2,1.48-4.3,3.39-6.13,5.06"/><path class="cls-2" d="M767.64,35c-2,1.52-4.3,3.21-6.3,4.77"/><path class="cls-2" d="M767.64,39.56c-1,1.06-2.36,2.28-3.4,3.34,0,0-.06,0-.09,0s0-.07,0,0"/><path class="cls-2" d="M753.6,53.67a52,52,0,0,0-5.32,4.89.37.37,0,0,0,.18-.18"/><path class="cls-2" d="M759.45,53.77a9.63,9.63,0,0,0-1.87,1.16l-3.27,3a.34.34,0,0,0,.23-.27"/><path class="cls-2" d="M764.05,54a41.16,41.16,0,0,0-4.61,4.52"/><path class="cls-2" d="M767.22,56.13q-3.2,2.66-6.14,5.61"/><path class="cls-2" d="M767.14,61.81c-2.25,2-4.12,3.66-6.28,5.72"/><path class="cls-2" d="M767,68.69,760.86,74"/><path class="cls-2" d="M767.1,74.58q-2.93,2.76-5.62,5.76"/><path class="cls-2" d="M769.28,79.19l-3.13,3.25a1.78,1.78,0,0,0-.55.86"/><path class="cls-2" d="M774.18,79.46c-.83,1.28-2,2.95-3,4.15"/><path class="cls-4" d="M734.56,18.83c0,12.2.18,46.43.18,59.76,0,.5,7.13.67,13.74.2,1-.08-1-15.26,0-24.7,0,0,11.15-.78,18.72.06.15,4.35-.77,23.47,0,24.72.25.39,13.82.83,13.69-.12-.44-3.25.84-51.25-.19-59.92-.06-.52-6.48-.24-12.72,0a1,1,0,0,0-1,1.06c.21,4.45,1,21.83.16,22.26-1.86,1-16.93.74-18.58.08-1.25-.5.11-22.76-.17-23.38-.42-.94-12.66.15-13.92,0"/><path class="cls-3" d="M734.06,18.83c0,13.76.08,27.51.13,41.27q0,5.19,0,10.37,0,2.09,0,4.17c0,1-.4,3.07,0,3.95.62,1.36,3.68.94,4.89,1,2.36,0,4.73,0,7.09-.13.84,0,2.27.25,2.84-.53.86-1.17.17-4.31.11-5.61-.18-3.79-.41-7.57-.45-11.37,0-2,0-3.95.14-5.92,0-.37.08-1.71-.22-1.42.14-.13,1-.06,1.18-.07,3.39-.19,6.8-.28,10.2-.24a57.42,57.42,0,0,1,5.86.25c1.21.14.58-.32.88.42a6,6,0,0,1,0,1.77c0,2.9-.12,5.79-.19,8.69-.07,3.09-.15,6.18-.12,9.26,0,1-.35,3.55.37,4.42s2.89.58,3.84.63a72.51,72.51,0,0,0,8,0c1-.06,2.45.06,2.83-1a11,11,0,0,0-.09-2.85c-.09-10.87.21-21.74.28-32.61,0-5.63.07-11.26,0-16.89,0-1.93-.07-3.86-.2-5.78-.07-1.17.14-2.11-1.08-2.46-1.4-.41-3.3-.12-4.74-.09-2.38.05-5.3-.3-7.61.25-2,.49-1.35,3-1.28,4.57.24,5.76.67,11.63.33,17.39,0,.69,0,1.22-.46,1.55-.75.5-2.61.32-3.48.37-3,.15-6,.13-9,0-1.24,0-4.67.27-5.27-.77a6.94,6.94,0,0,1-.21-2.55c0-1.28,0-2.57,0-3.85,0-5,.42-10.1.4-15.15,0-1,.06-1.43-.92-1.79-2-.73-5-.13-7.05,0a54.64,54.64,0,0,1-6.48.26c-.64,0-.64,1,0,1,3.15.24,6.44-.31,9.6-.37a29.45,29.45,0,0,1,3.84,0c.28.31,0,2,0,2.37-.17,6.43-1,13.21-.21,19.62.23,1.81.88,1.88,2.64,2.06a86.6,86.6,0,0,0,11.2.25c1.42,0,5.16.36,6.13-1a5.21,5.21,0,0,0,.3-2.33c.08-1.83,0-3.67,0-5.5-.06-3.92-.21-7.85-.37-11.77a8.59,8.59,0,0,1-.09-2.08c.42-1.72,2.71-1.36,4.16-1.41s2.81-.09,4.22-.12c1.17,0,2.91-.32,4,.05.57.19.22-.27.33.53.06.41.06.83.09,1.24.08,1.31.12,2.62.15,3.94.08,3.3.1,6.61.1,9.91,0,14.11-.59,28.24-.3,42.34a7.57,7.57,0,0,1,0,1.05c-.08.65.15.25-.1.44-.92.68-3.69.26-4.82.27-2,0-4,0-6.06-.17-1.31-.09-1.87.25-1.89-1-.1-7.84.41-15.71.19-23.54a.51.51,0,0,0-.5-.5,109.47,109.47,0,0,0-18.72-.06.52.52,0,0,0-.5.5c-.72,6.91,0,13.86.22,20.77a8.7,8.7,0,0,1,0,2.91c-.31.76-.66.57-1.6.62q-2,.11-4,.15c-1.83,0-3.66,0-5.48-.06s-2,.12-2-1.55c0-13-.08-26.06-.13-39.08q0-9.52,0-19a.5.5,0,0,0-1,0Z"/></g></g></svg>