<svg xmlns="http://www.w3.org/2000/svg" viewBox="0 0 922 70.12"><defs><style>.cls-1,.cls-4{fill:#fff;}.cls-1,.cls-2{stroke:#000105;stroke-miterlimit:10;}.cls-2{fill:none;}.cls-3{fill:#000105;}</style></defs><title>contactme_ua</title><g id="Слой_2" data-name="Слой 2"><g id="Слой_5" data-name="Слой 5"><path class="cls-1" d="M19.28,20.46a15.54,15.54,0,0,1,1.51-4.38c3-4.09,8.84-4.26,12.94-3.31s6.2,3.91,5.69,8.09a7.61,7.61,0,0,1-1.64,3.67,6.89,6.89,0,0,1-2.28,1.54,12.49,12.49,0,0,1-7.72.5.5.5,0,0,0-.59.47c-.1,3,0,5.2.11,8.1a.56.56,0,0,0,.63.54,19.39,19.39,0,0,1,8.61.73,6.58,6.58,0,0,1,4.13,5.77C40.86,45,39,49.06,37,50.11a30.2,30.2,0,0,1-8,1.69c-.86-.09-7.91-.31-9.34-8.9a1.47,1.47,0,0,0-.51-1.07,117.22,117.22,0,0,0-13.34,2C6.14,49,10.6,54.95,12.34,57,15.61,60.79,22.95,62.4,28,62.83A30.71,30.71,0,0,0,40.58,61.7a21.17,21.17,0,0,0,9-4.67A18.83,18.83,0,0,0,55.27,46,18.29,18.29,0,0,0,53.52,37c-1.62-3.37-6.78-5.27-11-6.92A32,32,0,0,0,49,26.56a11.18,11.18,0,0,0,4.22-5.88,14.4,14.4,0,0,0,.08-6.45A15.36,15.36,0,0,0,50,7.83C44.11.89,34.72.76,26.42,1.31A23.9,23.9,0,0,0,19,3a16.69,16.69,0,0,0-8.62,8.12,36.21,36.21,0,0,0-1.87,6.61A1.07,1.07,0,0,0,9.43,19S19.24,20.85,19.28,20.46Z"/><path class="cls-1" d="M920.75,24.12a31.94,31.94,0,0,0-2.85-8.91,26.38,26.38,0,0,0-5.48-8,23.71,23.71,0,0,0-9.71-5,26.1,26.1,0,0,0-12.76-.8,30.73,30.73,0,0,0-14.55,7.77c-7.19,7.41-6.69,15.95-7.36,16.27a65.55,65.55,0,0,1-9.37-.07.7.7,0,0,1-.63-.72c.3-7.54.49-15,.1-22.36,0-.4-13.21-.87-13.6-.39s0,53.07-.09,58.51a1.56,1.56,0,0,0,.44,1.36,1.54,1.54,0,0,0,1,.16c3.69-.21,8.13.15,11.9,0a.63.63,0,0,0,.61-.63c0-7.82-.74-24.42.05-24.81.52-.25,6.41.06,8.67-.06a.72.72,0,0,1,.72.52c1.55,5.34,1.86,8.76,5.14,14.27a27,27,0,0,0,7.16,7.5,25.41,25.41,0,0,0,16.79,4c2.36-.27,7.81-1.37,9.81-2.81,3.23-2.32,6.57-5,8.81-8.29C921,43.63,922.62,35.37,920.75,24.12ZM906.39,36.64c-.44,4-2.43,9-5,11.66-1.63,1.65-3.61,3.16-5.92,3.39a9.42,9.42,0,0,1-3.24-.35,12.45,12.45,0,0,1-4.39-2A11.8,11.8,0,0,1,885,46.25c-2.6-4-3.15-9-3.18-13.83,0-7,2.9-14.84,5.11-16.83a13.73,13.73,0,0,1,3.17-2.32c2.12-1.05,6.77-.71,9,.19,2,.81,5.81,5.44,6.71,10.24A69.91,69.91,0,0,1,906.39,36.64Z"/><path class="cls-1" d="M121.4,3c-.11,2.94-.34,10.33.17,10.83s5.18.45,6.92,0c.1,1.12-6.83,13.3-6.8,13.41s4.51-.47,4.64-.55,6-9.05,7.88-13.48a72.57,72.57,0,0,0-.06-11c-.37-.5-8.4-.63-11.8-.51C121.59,1.77,121.43,2.29,121.4,3Z"/><path class="cls-2" d="M121.87,1.85c-.91,1-3.8,3.66-4,4s-.59,10.54-.5,10.73,4.22.61,4.5,1.09-5.14,12.95-4.9,13.14,6.36-.34,6.54-.43a1.1,1.1,0,0,0,.36-.35c.84-1.11,1.67-2.37,2.51-3.48"/><path class="cls-2" d="M121.23,6.62a30.44,30.44,0,0,0-3.49,2.68"/><path class="cls-2" d="M117.35,12.94q1.81-1.08,3.68-2.06"/><path class="cls-2" d="M118.53,16.73q1.74-1.39,3.45-2.84"/><path class="cls-2" d="M121.92,17.95,128.46,14"/><path class="cls-2" d="M120.55,22q2.49-1.13,5-2.15"/><path class="cls-2" d="M119,25.9A35.51,35.51,0,0,1,123,24.54a.09.09,0,0,0-.11,0"/><path class="cls-2" d="M117.34,30.71l4.84-3.25"/><path class="cls-2" d="M27.36,35.36c.83.93,2.68,4,3,4.2s3.95-1.14,6.39,2.27c1.53,2.14.68,8.25.69,8"/><path class="cls-2" d="M5.68,43.81C4.34,45.18.76,48.72.58,49.34a3.82,3.82,0,0,0,.07,1.78c1.51,7.61,8.93,14,13,16.09,1.85.94,8.66,2.65,12.54,2.25,5.71-.59,9.56-1.31,15.31-4.58,2.12-1.21,4.31-3.48,7.09-7"/><path class="cls-2" d="M16.39,4.31c-4.25,2.1-9.12,5.35-11.5,9.45-.94,1.62-2,8.46-1.37,9.63s12.77,1.05,13,1a37.47,37.47,0,0,0,2.76-3.9"/><path class="cls-2" d="M22.69,14.22c2.15-.52,6.3.27,8.33,1.17a5.83,5.83,0,0,1,3.51,4.71,25.56,25.56,0,0,1,0,6"/><path class="cls-2" d="M11.89,24q1.05-2,2.18-3.94"/><path class="cls-2" d="M7.67,24.13a32.63,32.63,0,0,1,2.68-4.91"/><path class="cls-2" d="M3.61,22.17a48.3,48.3,0,0,1,5.19-5.32"/><path class="cls-2" d="M4.08,16a72.5,72.5,0,0,1,6.11-5"/><path class="cls-2" d="M34.59,23.28a58.23,58.23,0,0,1,4.87-4.63"/><path class="cls-2" d="M33.09,16.71a13.72,13.72,0,0,1,3.13-3.2.07.07,0,0,1,0,.12"/><path class="cls-2" d="M37.89,45.58a39.73,39.73,0,0,1,2.81-2.94"/><path class="cls-2" d="M36.53,41.52a28,28,0,0,1,2.14-3.84"/><path class="cls-2" d="M34.46,35.64q-1,1.72-1.83,3.49"/><path class="cls-2" d="M2.34,55.22q2.6-2.69,5.16-5.4"/><path class="cls-2" d="M6.35,61.34q2.43-2.87,5.09-5.54"/><path class="cls-2" d="M12,66.05q2.33-3,4.59-6.05"/><path class="cls-2" d="M18.57,68.57q2.15-3.36,4.44-6.63"/><path class="cls-2" d="M26.44,69.32q2-3.25,4.25-6.32"/><path class="cls-2" d="M34.58,67.85a27,27,0,0,0,2.81-5.26s0-.08.07-.09.08,0,0,.07"/><path class="cls-2" d="M42.65,61.2a18.08,18.08,0,0,1-.54,3.38"/><path class="cls-1" d="M213.29,20.51a15.54,15.54,0,0,1,1.51-4.38c3-4.09,8.84-4.26,12.94-3.31s6.2,3.91,5.69,8.09a7.61,7.61,0,0,1-1.64,3.67,6.89,6.89,0,0,1-2.28,1.54,12.49,12.49,0,0,1-7.72.5.5.5,0,0,0-.59.47c-.1,3,0,5.2.11,8.1a.56.56,0,0,0,.63.54,19.39,19.39,0,0,1,8.61.73,6.58,6.58,0,0,1,4.13,5.77c.19,2.88-1.64,6.88-3.66,7.94a30.2,30.2,0,0,1-8,1.69c-.86-.09-7.91-.31-9.34-8.9a1.47,1.47,0,0,0-.51-1.07,117.22,117.22,0,0,0-13.34,2C200.15,49,204.61,55,206.35,57c3.27,3.82,10.61,5.42,15.62,5.85a30.71,30.71,0,0,0,12.63-1.12,21.17,21.17,0,0,0,9-4.67A18.83,18.83,0,0,0,249.27,46a18.29,18.29,0,0,0-1.75-8.94c-1.62-3.37-6.78-5.27-11-6.92A32,32,0,0,0,243,26.61a11.18,11.18,0,0,0,4.22-5.88,14.4,14.4,0,0,0,.08-6.45A15.36,15.36,0,0,0,244,7.88C238.12.94,228.73.82,220.43,1.36A23.9,23.9,0,0,0,213,3a16.69,16.69,0,0,0-8.62,8.12,36.21,36.21,0,0,0-1.87,6.61,1.07,1.07,0,0,0,.91,1.3S213.24,20.9,213.29,20.51Z"/><path class="cls-2" d="M221.37,35.41c.83.93,2.68,4,3,4.2s3.95-1.14,6.39,2.27c1.53,2.14.68,8.25.69,8"/><path class="cls-2" d="M199.68,43.86c-1.33,1.37-4.92,4.9-5.09,5.52a3.82,3.82,0,0,0,.07,1.78c1.51,7.61,8.93,14,13,16.09,1.85.94,8.66,2.65,12.54,2.25,5.71-.59,9.56-1.31,15.31-4.58,2.12-1.21,4.31-3.48,7.09-7"/><path class="cls-2" d="M210.4,4.36c-4.25,2.1-9.12,5.35-11.5,9.45-.94,1.62-2,8.46-1.37,9.63s12.77,1.05,13,1a37.47,37.47,0,0,0,2.76-3.9"/><path class="cls-2" d="M216.7,14.27c2.15-.52,6.3.27,8.33,1.17a5.83,5.83,0,0,1,3.51,4.71,25.56,25.56,0,0,1,0,6"/><path class="cls-2" d="M205.9,24q1.05-2,2.18-3.94"/><path class="cls-2" d="M201.68,24.18a32.63,32.63,0,0,1,2.68-4.91"/><path class="cls-2" d="M197.61,22.22a48.3,48.3,0,0,1,5.19-5.32"/><path class="cls-2" d="M198.09,16a72.5,72.5,0,0,1,6.11-5"/><path class="cls-2" d="M228.6,23.33a58.23,58.23,0,0,1,4.87-4.63"/><path class="cls-2" d="M227.1,16.76a13.72,13.72,0,0,1,3.13-3.2.07.07,0,0,1,0,.12"/><path class="cls-2" d="M231.9,45.63a39.73,39.73,0,0,1,2.81-2.94"/><path class="cls-2" d="M230.54,41.57a28,28,0,0,1,2.14-3.84"/><path class="cls-2" d="M228.47,35.69q-1,1.72-1.83,3.49"/><path class="cls-2" d="M196.35,55.27q2.6-2.69,5.16-5.4"/><path class="cls-2" d="M200.35,61.39q2.43-2.87,5.09-5.54"/><path class="cls-2" d="M206,66.1q2.33-3,4.59-6.05"/><path class="cls-2" d="M212.57,68.62Q214.73,65.27,217,62"/><path class="cls-2" d="M220.45,69.37q2-3.25,4.25-6.32"/><path class="cls-2" d="M228.59,67.9a27,27,0,0,0,2.81-5.26s0-.08.07-.09.08,0,0,.07"/><path class="cls-2" d="M236.65,61.25a18.08,18.08,0,0,1-.54,3.38"/><path class="cls-1" d="M558.91,20.56a15.54,15.54,0,0,1,1.51-4.38c3-4.09,8.84-4.26,12.94-3.31s6.2,3.91,5.69,8.09a7.61,7.61,0,0,1-1.64,3.67,6.89,6.89,0,0,1-2.28,1.54,12.49,12.49,0,0,1-7.72.5.5.5,0,0,0-.59.47c-.1,3,0,5.2.11,8.1a.56.56,0,0,0,.63.54,19.39,19.39,0,0,1,8.61.73,6.58,6.58,0,0,1,4.13,5.77c.19,2.88-1.64,6.88-3.66,7.94a30.2,30.2,0,0,1-8,1.69c-.86-.09-7.91-.31-9.34-8.9a1.47,1.47,0,0,0-.51-1.07,117.22,117.22,0,0,0-13.34,2c.28,5.14,4.74,11.13,6.48,13.16,3.27,3.82,10.61,5.42,15.62,5.85a30.71,30.71,0,0,0,12.63-1.12,21.17,21.17,0,0,0,9-4.67,18.83,18.83,0,0,0,5.7-11.08,18.29,18.29,0,0,0-1.75-8.94c-1.62-3.37-6.78-5.27-11-6.92a32,32,0,0,0,6.46-3.53,11.18,11.18,0,0,0,4.22-5.88,14.4,14.4,0,0,0,.08-6.45,15.36,15.36,0,0,0-3.37-6.41C583.74,1,574.35.87,566.05,1.41a23.9,23.9,0,0,0-7.4,1.64A16.69,16.69,0,0,0,550,11.18a36.21,36.21,0,0,0-1.87,6.61,1.07,1.07,0,0,0,.91,1.3S558.87,20.95,558.91,20.56Z"/><path class="cls-2" d="M567,35.47c.83.93,2.68,4,3,4.2s3.95-1.14,6.39,2.27c1.53,2.14.68,8.25.69,8"/><path class="cls-2" d="M545.31,43.92c-1.33,1.37-4.92,4.9-5.09,5.52a3.82,3.82,0,0,0,.07,1.78c1.51,7.61,8.93,14,13,16.09,1.85.94,8.66,2.65,12.54,2.25,5.71-.59,9.56-1.31,15.31-4.58,2.12-1.21,4.31-3.48,7.09-7"/><path class="cls-2" d="M556,4.42c-4.25,2.1-9.12,5.35-11.5,9.45-.94,1.62-2,8.46-1.37,9.63s12.77,1.05,13,1a37.47,37.47,0,0,0,2.76-3.9"/><path class="cls-2" d="M562.32,14.32c2.15-.52,6.3.27,8.33,1.17a5.83,5.83,0,0,1,3.51,4.71,25.56,25.56,0,0,1,0,6"/><path class="cls-2" d="M551.52,24.05q1.05-2,2.18-3.94"/><path class="cls-2" d="M547.3,24.23A32.63,32.63,0,0,1,550,19.32"/><path class="cls-2" d="M543.24,22.27A48.3,48.3,0,0,1,548.42,17"/><path class="cls-2" d="M543.71,16.05a72.5,72.5,0,0,1,6.11-5"/><path class="cls-2" d="M574.22,23.38a58.23,58.23,0,0,1,4.87-4.63"/><path class="cls-2" d="M572.72,16.81a13.72,13.72,0,0,1,3.13-3.2.07.07,0,0,1,0,.12"/><path class="cls-2" d="M577.52,45.68a39.73,39.73,0,0,1,2.81-2.94"/><path class="cls-2" d="M576.16,41.62a28,28,0,0,1,2.14-3.84"/><path class="cls-2" d="M574.09,35.75q-1,1.72-1.83,3.49"/><path class="cls-2" d="M542,55.32q2.6-2.69,5.16-5.4"/><path class="cls-2" d="M546,61.44q2.43-2.87,5.09-5.54"/><path class="cls-2" d="M551.61,66.15q2.33-3,4.59-6.05"/><path class="cls-2" d="M558.2,68.67q2.15-3.36,4.44-6.63"/><path class="cls-2" d="M566.07,69.42q2-3.25,4.25-6.32"/><path class="cls-2" d="M574.21,68A27,27,0,0,0,577,62.69s0-.08.07-.09.08,0,0,.07"/><path class="cls-2" d="M582.28,61.31a18.08,18.08,0,0,1-.54,3.38"/><path class="cls-2" d="M844.54,2c-1.89,1.9-7.12,6.6-7.38,7.15s-1.42,57.18-1.08,57.22c3.54.34,13.65,2.34,15.65,1S857,63.68,858.08,62"/><path class="cls-2" d="M858.08,42.9a20.94,20.94,0,0,1,4.12,0,49.94,49.94,0,0,1,1.71,5.69c1.16,4.19,2.57,6.17,4.62,9.31,1.08,1.67,7.57,6.62,10.75,7.92,5.5,2.25,17.29,1.27,21.18-.81a62,62,0,0,0,10.24-8.08"/><path class="cls-2" d="M884.61,19.26c3.12-1.25,7.2-1.84,10.18-.28,3.58,1.88,4.56,4.69,5.33,8s.67,6.82.79,10.62a33.19,33.19,0,0,1-2.75,13.08"/><path class="cls-2" d="M837,15.25a26.52,26.52,0,0,1,7.14-4.93"/><path class="cls-2" d="M836.68,22A34,34,0,0,1,844,17.76"/><path class="cls-2" d="M836.77,28.71a25.69,25.69,0,0,1,5.69-2.65l1.72-.64"/><path class="cls-2" d="M836.48,35.57,844.3,31s.1-.07.09-.12-.12,0-.08,0"/><path class="cls-2" d="M836.28,43.52a70.07,70.07,0,0,1,8.05-5"/><path class="cls-2" d="M836.33,50a85.2,85.2,0,0,1,8.07-5.17"/><path class="cls-2" d="M836.15,57.08q4-2.58,8.06-5"/><path class="cls-2" d="M836.12,65.85a71.89,71.89,0,0,1,8.56-4.77"/><path class="cls-2" d="M844.06,67.45q3.5-2.8,7.25-5.27c.06,0,.13-.08.19,0s0,.16,0,.11"/><path class="cls-2" d="M858.31,42.63a44.2,44.2,0,0,1,5-6.12"/><path class="cls-2" d="M863.05,45.68a44.15,44.15,0,0,1,5.27-6.32l-.3.21"/><path class="cls-2" d="M864.89,51.51q2.4-3,5.07-5.83a.06.06,0,1,0-.07,0"/><path class="cls-2" d="M867.71,56.83q2.72-2.85,5.35-5.77"/><path class="cls-2" d="M872.34,61.17q1.62-2,3.34-3.94a2.62,2.62,0,0,1,1-.82"/><path class="cls-2" d="M876.74,64.31a58.71,58.71,0,0,1,4.06-4.81l-.21.15"/><path class="cls-2" d="M883.06,66.5l3.68-4.5"/><path class="cls-2" d="M889.54,67q1.48-2,3.13-3.88"/><path class="cls-2" d="M897.93,65.63a29.17,29.17,0,0,1,1.29-3.11"/><path class="cls-2" d="M888.06,18.14a1.08,1.08,0,0,1,.38-.6,35.54,35.54,0,0,0,3.94-4.71"/><path class="cls-2" d="M893.85,18.49a15.22,15.22,0,0,1,1.28-1.4l3.53-3.54"/><path class="cls-2" d="M898.6,22.18a6.46,6.46,0,0,1,.81-.93q1.77-1.78,3.61-3.49"/><path class="cls-2" d="M900.4,28a41.19,41.19,0,0,1,5.33-4.53l-.15.15"/><path class="cls-2" d="M900.95,34.69a36.81,36.81,0,0,1,5.26-3.92"/><path class="cls-2" d="M900.89,41q2.7-1.66,5.39-3.36"/><path class="cls-2" d="M900.14,45.89c0-.23.21-.4.41-.52l4-2.45"/><path class="cls-3" d="M803.14,17c3.87-3.11,7.91-.25,8.61,4.06a49.28,49.28,0,0,1,.24,10.1c-.32,6.75-1.36,13.47-1.37,20.23l1-.13a1.65,1.65,0,0,0-.47-.8c-.45-.47-1.15.24-.71.71l.21.36a.5.5,0,0,0,1-.13c0-9.6,2.1-19.14,1.3-28.76-.22-2.61-.74-5.19-2.94-6.85-2.49-1.88-5.24-1.35-7.55.51-.5.4.21,1.11.71.71Z"/><path class="cls-3" d="M796.69,3.86a24.58,24.58,0,0,0-6.52,4.42,29.8,29.8,0,0,0-6.43,7.15C779.62,22.07,778,30.18,778,37.92c0,13.4,8.8,27,22.58,29.62,8.6,1.64,15.85-2.51,22.08-8.07.48-.43-.23-1.13-.71-.71-5.56,5-12,9-19.79,8a25.78,25.78,0,0,1-16-9c-9.14-10.54-9.06-26.7-3.2-38.86a27.6,27.6,0,0,1,6.51-8.74c2.2-2,4.69-4.29,7.48-5.36.59-.23.34-1.2-.27-1Z"/><path class="cls-2" d="M789.47,12l-5,3.27"/><path class="cls-2" d="M787,17.77c0,.08.14-.06.07-.1s-.16,0-.22.05l-4.95,3.66a3.54,3.54,0,0,0-1,.92"/><path class="cls-2" d="M785.09,24.54l-5.87,4.75"/><path class="cls-2" d="M784.54,30.64l-6.06,5.46"/><path class="cls-2" d="M784.91,37.37c-2.18,2-4,3.76-6,5.85"/><path class="cls-2" d="M786,44.42l-5.44,5"/><path class="cls-2" d="M788.46,49.3l-5.22,5.32"/><path class="cls-2" d="M792.84,54.93l-5.09,4.91"/><path class="cls-2" d="M797.89,58.86q-2.57,2.52-5.09,5.09c-.12.12-.36,0-.29-.2a.19.19,0,0,1,.34.08"/><path class="cls-2" d="M803,61.35c-1.56,1.52-3.39,3.49-5,5"/><path class="cls-2" d="M809.43,62.47a40.92,40.92,0,0,0-4.19,5"/><path class="cls-2" d="M815.06,62a18.79,18.79,0,0,0-2.86,3.79"/><path class="cls-2" d="M811.75,12.42a1.69,1.69,0,0,0-1,.61l-2.4,2.38"/><path class="cls-2" d="M816.55,14.26q-2.36,2.33-4.54,4.84"/><path class="cls-2" d="M819.05,17.63a81.54,81.54,0,0,0-6.69,6.82"/><path class="cls-2" d="M820.53,23.13a33.43,33.43,0,0,1-3.78,4.19c-1.43,1.28-3.09,2.37-4.08,4l.08-.5"/><path class="cls-2" d="M821.26,30.09q-5.06,5.34-9.7,11.06"/><path class="cls-2" d="M820.78,37.11a114.87,114.87,0,0,1-9.31,9.56"/><path class="cls-2" d="M819,44.64a66.77,66.77,0,0,0-6.84,6.45"/><path class="cls-4" d="M835.45,31.58C835,11.43,825,1.28,810.43.7c-34.06-1.08-35.68,60.61-.78,61.75C825.86,63,835.8,48.34,835.45,31.58Zm-25.12,19.5c-17.4,1.1-13.21-40-.68-38.87,10.14-.83,11,12.68,11.14,14C821.54,35.87,820.89,50.41,810.33,51.08Z"/><path class="cls-3" d="M836,31.58c-.21-7.7-1.7-15.76-6.47-22A24,24,0,0,0,813.41.46a24.48,24.48,0,0,0-25.21,12.67c-9.48,17-4.13,46.07,18,49.5a24,24,0,0,0,21.31-6.91c6.11-6.41,8.55-15.46,8.45-24.14a.5.5,0,0,0-1,0c.18,15.12-8.88,31.19-25.79,30.35-10.26-.5-18.32-7.16-22-16.56-6.51-16.71-.08-43.16,21.14-44.15C815.17.9,822.16,3.16,827,8.16c6,6.2,7.75,15.11,8,23.42A.5.5,0,0,0,836,31.58Z"/><path class="cls-3" d="M810.33,50.58c-13.47.61-12-20.92-9.24-29.07,1.76-5.22,5-9.94,11.16-8.68s7.71,8.65,8.09,13.92c.56,7.92.77,22.88-10,23.83-.64.06-.64,1.06,0,1,9.91-.88,11.25-12.61,11.18-20.52-.05-5.93-.47-13.83-5.69-17.7a9.89,9.89,0,0,0-9-1.22c-2.37,1-4,3.21-5.18,5.4-3.22,6.14-4.06,13.89-3.12,20.69.89,6.45,4.22,13.7,11.78,13.35C811,51.55,811,50.55,810.33,50.58Z"/><path class="cls-1" d="M459.75,24.88a1,1,0,0,0,.9-1.05,39,39,0,0,0-2.18-8.59c-1.76-4.61-4.44-8.38-8.77-10.75a25.77,25.77,0,0,0-5.48-2.14,31.08,31.08,0,0,0-15.06.09c-6.78,1.64-12.2,6.41-15.94,12.3-4.85,7.65-5.66,20.61-2.81,29.21S418.58,58.28,427,61.53a40.71,40.71,0,0,0,8.5,1.56c5.84.62,11.8-2.16,16.56-5.6s7.25-9.2,8.5-14.93a1.19,1.19,0,0,0,0-.72c-.13-.31-13.1-1.8-13.45-1.54-.83.62-.8,6.28-3.47,8.57a12.43,12.43,0,0,1-10.22,3A11.27,11.27,0,0,1,429,49.33c-3.85-4.15-4.11-9.3-4.24-15s.35-11.08,2.61-16.27a11.21,11.21,0,0,1,4.38-5.06c1.9-.95,6.73-.63,8.63.2,2.88,1.26,4.67,4.85,4.92,7.92.34,4,.18,4.29,3.92,3.87C449.93,25,457.27,25,459.75,24.88Z"/><path class="cls-2" d="M413.23,14.75c-2.63,2.42-5.56,7.93-7,11.21-2.46,5.67-2.25,21.5,5.83,32.12,2.56,3.37,7.26,5.13,11.43,5.84s16.2-.25,17.88-1.21"/><path class="cls-2" d="M429.54,14.68c1.48-1.16,5.12-.81,6.25.7a23.38,23.38,0,0,1,2.39,6.71c.26,2.14.72,6.27,2.36,7.67,1.35,1.15,7.08,1,9.21.88,2-.12,3.85-.16,5.42-1.33s3.47-3.24,5.08-4.58"/><path class="cls-2" d="M447.46,40.28c-.69.27-6.84,2.92-7.29,3.89a52.27,52.27,0,0,0-2,7.37"/><path class="cls-2" d="M405.18,29q2.23-2.09,4.52-4.12l-.19.21"/><path class="cls-2" d="M404.68,36.05a31.56,31.56,0,0,1,4.08-4.17"/><path class="cls-2" d="M405.41,42.32a23.26,23.26,0,0,1,3.06-3.71,1.9,1.9,0,0,1,.6-.45"/><path class="cls-2" d="M407.3,48.1a21.86,21.86,0,0,1,3.16-3.52"/><path class="cls-2" d="M409.65,53.86a23.24,23.24,0,0,1,3.4-3.6"/><path class="cls-2" d="M412.28,58l3.8-4.12"/><path class="cls-2" d="M415.54,61.17q1.71-2,3.55-3.88"/><path class="cls-2" d="M419.71,62.84q1.48-1.64,3.07-3.18"/><path class="cls-2" d="M424.39,64A19.13,19.13,0,0,1,427,61.43"/><path class="cls-2" d="M429.63,63.69a4.41,4.41,0,0,1,1.22-1.54"/><path class="cls-2" d="M439,48.55l6.53-3.75a.68.68,0,0,0,.26-.22.23.23,0,0,0,0-.31"/><path class="cls-2" d="M435,14.71a19.45,19.45,0,0,1,2.59-2.15"/><path class="cls-2" d="M437.49,19.62A69.74,69.74,0,0,1,442.89,15"/><path class="cls-2" d="M438.32,23.61Q441.59,21,445,18.45"/><path class="cls-2" d="M439.81,28.85q3-2.21,5.83-4.66"/><path class="cls-2" d="M446.62,30.33q2.7-2.77,5.61-5.31"/><path class="cls-2" d="M270.77,1.62c-2.43,1.3-6,2.74-7.44,5.1C262.85,7.55,244.18,63,244.69,64c.68,1.29,13,3.06,14.45,2.33s2.51-2.33,4.07-4.91"/><path class="cls-2" d="M305.11,61.23A10.61,10.61,0,0,1,302,65.62c-.85.81-14.59.66-15.19,0C285.67,64.48,283,55.47,282.4,55c-1.19-.87-4.57-.61-6.75-.62-3.45,0-6.69-.25-10.14-.27"/><path class="cls-2" d="M273.53,25.54c1.31,4.92,3.13,8.24,4.93,13"/><path class="cls-2" d="M268.51,7l-7,4.59"/><path class="cls-2" d="M265.68,14.9q-2.9,1.61-5.66,3.46a1.64,1.64,0,0,0-.58.55l.17-.25"/><path class="cls-2" d="M264.11,20.75a51.42,51.42,0,0,1-7,3.34.13.13,0,0,0,.21,0"/><path class="cls-2" d="M262.09,26.8l-6.61,3.93.38-.15"/><path class="cls-2" d="M259.5,34.6a47.89,47.89,0,0,0-6.8,3.55.22.22,0,0,0,.24-.07"/><path class="cls-2" d="M257.58,40.2c-2.31,2-5.27,3.14-7.5,5.23"/><path class="cls-2" d="M255.34,46.31q-2.67,1.69-5.48,3.15a6.43,6.43,0,0,0-1.68,1.1l.18-.14"/><path class="cls-2" d="M253.5,52.95l-6.47,4"/><path class="cls-2" d="M244.9,63.45a30.4,30.4,0,0,1,6.31-3.74"/><path class="cls-2" d="M250.27,65.25c-.09,0,0-.16,0-.22q1.89-1.52,3.87-2.91"/><path class="cls-2" d="M256.28,66.09a10.3,10.3,0,0,1,2.88-2.92l1-.77"/><path class="cls-2" d="M273.77,26.41a17.78,17.78,0,0,1,4.16-4.18"/><path class="cls-2" d="M275.36,29.75a32.94,32.94,0,0,1,4.07-3.52"/><path class="cls-2" d="M277.09,35.16c-.16-.12,0-.38.08-.54a16.93,16.93,0,0,1,3.5-3.34"/><path class="cls-2" d="M278.92,38.56a32.79,32.79,0,0,1,3.77-2.73"/><path class="cls-2" d="M266.63,53.86q2-2.07,4.15-4"/><path class="cls-2" d="M272.19,54.66a1.81,1.81,0,0,1,.59-1l3.74-3.91c.24-.25.48-.5.74-.73a.16.16,0,0,1,.13-.05s.05.11,0,.1"/><path class="cls-2" d="M277.88,54.61q2.43-2.89,5.13-5.55"/><path class="cls-2" d="M282.78,55.4a1,1,0,0,1,.4-.78Q285.05,52.76,287,51"/><path class="cls-2" d="M284,60.59a54.61,54.61,0,0,1,4.08-4"/><path class="cls-2" d="M286.44,65.08a15.79,15.79,0,0,1,3.46-3.72"/><path class="cls-2" d="M291.56,66.24a2,2,0,0,1,.45-.69l2.38-2.74a4.63,4.63,0,0,1,.78-.77"/><path class="cls-2" d="M296.68,66.15c-.1,0-.09-.17,0-.26a44.59,44.59,0,0,1,2.61-4"/><path class="cls-4" d="M286.27,1.67c-.36-.29-13.22-.5-16.44.4-4.28,14.25-19.47,59.13-19,59.46.77.56,12.15.61,12.36,0,1.38-4.12,3.79-12.21,3.79-12.21s18.39-.63,19.33,0c.56.4,2.72,11.44,3.79,12.29.83.66,14.9.29,15,0C305.51,60.71,287.41,2.6,286.27,1.67ZM270.4,38.27c-.29-.37,4.91-19,6.36-21.14.89,2.66,6.43,21.09,6.29,21.14C281.82,38.69,270.63,38.56,270.4,38.27Z"/><path class="cls-3" d="M286.53,1.23A10.76,10.76,0,0,0,282.8.95c-2.54-.06-5.09,0-7.63.06-1.27.05-4.51-.25-5.59.63-.82.67-1.09,3.1-1.4,4.1-3.09,9.87-6.35,19.68-9.57,29.5-2.64,8-5.41,16.05-7.78,24.17-.42,1.44-1.06,2.5.78,2.81a35.62,35.62,0,0,0,6.11.24c1.44,0,4,.35,5.31-.33s1.5-3.16,1.91-4.46c.73-2.34,2.1-5.13,2.32-7.58a2.13,2.13,0,0,1,.19-.64c0,.08-.69.37-.32.33s1,0,1.55,0q3.05-.09,6.1-.15c2.28,0,4.56-.08,6.85-.06.92,0,3.65-.37,4.38.25.32.28.5,1.68.6,2.06.32,1.2.61,2.4.92,3.6a26.31,26.31,0,0,0,1.72,5.75c1.19,2.24,6,1.32,8.12,1.3s4.27,0,6.4-.18c.59,0,1.52.09,1.82-.53.43-.89-.76-3.45-1-4.29-.92-3.29-1.9-6.55-2.89-9.82q-4-13.33-8.27-26.59c-2-6.21-3.74-12.63-6.26-18.65a3.41,3.41,0,0,0-.56-1.11c-.45-.46-1.16.25-.71.71.84.85,1.4,3.63,1.83,4.9,1.29,3.75,2.51,7.52,3.72,11.29q4.5,14,8.76,28c1.09,3.61,2.18,7.22,3.21,10.85.32,1.13.65,2.25.92,3.39.07.29.14.59.2.88s.47-.06,0-.1c-4.21-.33-8.53.46-12.78.14-2.08-.16-2.09-1.85-2.61-3.69-.65-2.35-1.16-4.74-1.84-7.08-.35-1.18-.43-1.71-1.65-1.93a35.3,35.3,0,0,0-6.37-.16c-4.11,0-8.21.12-12.32.26a.51.51,0,0,0-.48.37c-1.06,3.56-2.14,7.11-3.28,10.64-.27.83-.22,1.13-.88,1.45a6.81,6.81,0,0,1-2.21.16c-1.88.08-3.77.07-5.65,0-.75,0-1.51,0-2.26-.13-.58-.07-1.08-.35-.9.16-.09-.25.28-1.08.36-1.37.64-2.25,1.37-4.48,2.08-6.71C258.6,38.24,263.71,23.18,268.51,8A30.88,30.88,0,0,1,270,3.14c.45-.86.31-.71,1.47-.87.95-.12,1.91-.18,2.86-.23,2.4-.13,4.81-.15,7.21-.12,1.21,0,3.33-.31,4.45.17C286.61,2.35,287.12,1.49,286.53,1.23Z"/><path class="cls-3" d="M270.88,38.14c-.21-.73.61-2.68.82-3.48.56-2.15,1.16-4.29,1.78-6.42,1-3.46,1.77-7.76,3.71-10.85l-.91-.12c2,6,3.74,12.11,5.49,18.18.25.88.43,1.83.75,2.69.17.47-.3-.21.26-.32a2,2,0,0,1-.7.08,10.76,10.76,0,0,0-2.17.1c-1.87,0-3.74,0-5.61,0-.92,0-2.81.27-3.65-.17-.57-.3-1.08.56-.5.86,1.49.78,4.33.32,5.94.33,2.25,0,4.89.3,7.09-.28a.52.52,0,0,0,.37-.48,9.16,9.16,0,0,0-.76-2.9c-.63-2.19-1.28-4.38-1.94-6.57-1.18-3.94-2.31-7.9-3.61-11.8a.51.51,0,0,0-.91-.12c-2.07,3.32-2.89,7.91-4,11.61-.66,2.28-1.3,4.56-1.88,6.86-.2.8-.82,2.21-.57,3.06A.5.5,0,0,0,270.88,38.14Z"/><path class="cls-2" d="M303.32,1c-1.82,2-3.87,2.43-4.44,5.08-.21,1,.45,12.32.94,12.78s8.73.57,12.37.55c.31,3.78.27,45.08.65,45.59.63.84,9.79.9,13.83.5.82-.08,4.92-3.25,5.58-4.67"/><path class="cls-2" d="M347,12.71a20.2,20.2,0,0,0-1.91,3.67,6.47,6.47,0,0,1-2.63,3.11,6.3,6.3,0,0,1-2.2.57c-3.15.35-6.48-.16-9.4,1.06a.41.41,0,0,0,.48.16"/><path class="cls-2" d="M298.92,8.6a21.85,21.85,0,0,1,3.7-2.81"/><path class="cls-2" d="M299.3,14a43.05,43.05,0,0,1,3.79-3l-.33.31"/><path class="cls-2" d="M300.34,19.14A75.69,75.69,0,0,1,308,13"/><path class="cls-2" d="M308.14,19.44c2.23-2,5.09-4.33,7.41-6.23"/><path class="cls-2" d="M312.28,23.58A51.85,51.85,0,0,1,318,18.16l-.34.15"/><path class="cls-2" d="M312.24,30.17l5.59-5-.33.16"/><path class="cls-2" d="M312.35,36.9q2.71-2.74,5.62-5.26"/><path class="cls-2" d="M312.59,43.83a52.7,52.7,0,0,1,6-5.85l-.66.46"/><path class="cls-2" d="M312.59,49.59A45,45,0,0,1,317.71,45"/><path class="cls-2" d="M312.77,55.46a37.4,37.4,0,0,1,4.84-4.31"/><path class="cls-2" d="M312.59,60.42c1.82-1.64,3.32-2.88,5.14-4.52"/><path class="cls-2" d="M314.25,65.41l5-4.44"/><path class="cls-2" d="M320.76,65.94a22.9,22.9,0,0,1,5.5-4.88"/><path class="cls-2" d="M331.94,16.24a18.76,18.76,0,0,1,4.8-3.52"/><path class="cls-2" d="M336.26,20.42c.63-.68,1.91-1.81,2.55-2.5A29.06,29.06,0,0,1,344.36,13"/><path class="cls-1" d="M303.09,12.75c.2.2,14.56.49,14.73.66s-.38,38.34.12,47.4c3.65.52,13.67.92,14.31,0,.42-.61-.64-47.89-.25-48.06s13.93.52,14.81.13.5-11.57-.06-11.9c-.29-.17-42.52-1-43.44,0C302.55,1.81,302.94,12.6,303.09,12.75Z"/><path class="cls-1" d="M352.21,62.61c.33.23,13.18.47,13.38.08s-.29-3.27.11-4.42,20.66-30,21.06-33.51C385.67,36.32,388,49.4,386.34,61a1.22,1.22,0,0,0,1.14,1.41c3.33.17,9.15,1,12.78.51.13-18.66.88-58.36-.12-59.91-.37-.57-13-1-13.56.13s0,3.39-.16,5.17c-.15,1.22-14.62,23-20.16,31.74a.35.35,0,0,1-.64-.22c.85-11.38,1-36.07.4-36.69-.83-.9-12.51-.6-13.2,0C351.66,4.24,351.75,62.28,352.21,62.61Z"/><path class="cls-2" d="M352.81,3.15c-1,1-5.87,5.51-5.9,6.18-.88,19-1,37.25-1,56.51a1.1,1.1,0,0,0,.84,1.07c5.26,1.32,15.42,1.08,15.63.73,1.07-1.72,2.57-3,3.25-4.95"/><path class="cls-2" d="M380.52,35.83c0,8,.37,31.38.58,31.56s11.78,1.15,12.59,1a9,9,0,0,0,6.56-5.49"/><path class="cls-2" d="M386.57,3.11c-1.94.79-5.31,2.54-6.06,4.5-.33.87-.73,8.13-.73,11.51"/><path class="cls-2" d="M346.66,15.28a40,40,0,0,1,5.65-5"/><path class="cls-2" d="M346.66,20.86A27.79,27.79,0,0,1,351.92,16"/><path class="cls-2" d="M346.46,26.33c1.7-1.59,4.11-3.86,5.71-5.56"/><path class="cls-2" d="M346.12,34.33c1.83-2,3.94-4,5.77-6"/><path class="cls-2" d="M346,41a76.85,76.85,0,0,1,6-5.89"/><path class="cls-2" d="M345.88,48.57c1.79-1.79,4.25-3.68,6-5.47"/><path class="cls-2" d="M345.76,56c2-2.16,4.34-4.26,6.29-6.15"/><path class="cls-2" d="M345.92,64.28a69.19,69.19,0,0,1,6.18-6.57"/><path class="cls-2" d="M350.41,67.53a64.27,64.27,0,0,0,4.15-4.92"/><path class="cls-2" d="M357.41,67.88,360.86,64A9.81,9.81,0,0,1,362,62.89"/><path class="cls-2" d="M379.86,12.78a62.84,62.84,0,0,1,6.46-6.36"/><path class="cls-2" d="M391.38,68.12a64.86,64.86,0,0,1,4.11-5.29"/><path class="cls-2" d="M385.36,67.84l4.83-5.24"/><path class="cls-2" d="M380.95,64.28a30.3,30.3,0,0,1,5.89-7"/><path class="cls-2" d="M380.8,55.14l3.71-4.06A8.91,8.91,0,0,1,387,49"/><path class="cls-2" d="M380.63,46.72a5,5,0,0,1,.95-1.5,36.71,36.71,0,0,1,5.17-5.74"/><path class="cls-2" d="M380.52,39a44.44,44.44,0,0,1,6-7.85"/><path class="cls-2" d="M651.45,2c-2.47,2.58-5.5,5.17-5.76,6s1.24,58.17,1.79,58.5c.34.21,12.4.25,13.23-.28s2.08-2.76,2.6-4.28"/><path class="cls-2" d="M663.65,35.52c.57,1.83,8.07,29.62,9.14,31,.11.15,10,1.35,11.39.48s2.2-2.78,3.55-5"/><path class="cls-2" d="M696.82,30.14c.07,10.57.11,35,.75,36,.78,1.22,15.3,1.21,15.55.81,1.52-2.45,2.23-3.1,3.76-5.55"/><path class="cls-2" d="M694.91,2a63.16,63.16,0,0,0-7.66,5.92c-.39.5-4.74,15.09-5.58,23"/><path class="cls-2" d="M646,13.15a31,31,0,0,1,4.92-5.36"/><path class="cls-2" d="M646.06,19.07a65.35,65.35,0,0,1,4.84-5.67"/><path class="cls-2" d="M645.8,24.38l1.77-1.91a31.44,31.44,0,0,1,3.34-3.27s.1-.07.15,0,0,.13,0,.1"/><path class="cls-2" d="M646.17,31.51a40.09,40.09,0,0,1,5-5.91"/><path class="cls-2" d="M646.64,36.88a21.47,21.47,0,0,1,4.8-4.93"/><path class="cls-2" d="M646.61,44.69a15.61,15.61,0,0,1,2.67-3.5l1.89-2s.11-.1.16-.07,0,.13,0,.07"/><path class="cls-2" d="M646.85,50.77q2.29-2.7,4.83-5.17"/><path class="cls-2" d="M647.62,57.86a23.68,23.68,0,0,1,4-4.53"/><path class="cls-2" d="M647.22,64.89a38.8,38.8,0,0,1,4-4.3"/><path class="cls-2" d="M651.49,66.5,655,62.62"/><path class="cls-2" d="M657.8,66.74a17.63,17.63,0,0,1,3-4.14l-.24.17"/><path class="cls-2" d="M663.73,29.67a25.59,25.59,0,0,1,2.59-3.92"/><path class="cls-2" d="M664,36.84a43.39,43.39,0,0,1,3.62-5.79"/><path class="cls-2" d="M665.68,42.21q1.73-2.51,3.58-4.92c.09-.12.35-.2.35,0"/><path class="cls-2" d="M667.31,48q1.95-2.71,4-5.32"/><path class="cls-2" d="M669,54.86a38.87,38.87,0,0,1,4.14-5.44"/><path class="cls-2" d="M670.63,61.06a7.29,7.29,0,0,0,1.06-1.34,25.17,25.17,0,0,1,3.86-4.4l-.38.19"/><path class="cls-2" d="M673.28,66.86A35,35,0,0,1,677.52,62s.07-.06.1,0,0,.09,0,.07"/><path class="cls-2" d="M680.18,67.6a36.56,36.56,0,0,0,3.62-5.36"/><path class="cls-2" d="M686.36,11.44a25.08,25.08,0,0,1,5.88-3.73"/><path class="cls-2" d="M684.3,17.81l6.63-4.22"/><path class="cls-2" d="M683,23.29q3.3-2.54,6.83-4.78s.11-.08.08-.14-.12,0-.06,0"/><path class="cls-2" d="M682,28.68q3.35-2.55,6.75-5l-.6.05"/><path class="cls-2" d="M682.5,33.49a36.7,36.7,0,0,1,4.69-3.59l-.42-.06"/><path class="cls-2" d="M699.16,24.15l2.8-1.92c.14-.1.37-.18.47,0"/><path class="cls-2" d="M697.1,31.51a19.3,19.3,0,0,1,5.1-4.15"/><path class="cls-2" d="M696.81,38.89q2.87-2.43,5.76-4.82"/><path class="cls-2" d="M697,44.89q2.73-3.09,5.73-5.94"/><path class="cls-2" d="M696.7,52.53c1.54-2.48,4.23-4,6-6.34l-.61.5"/><path class="cls-2" d="M697.53,59.2a46.25,46.25,0,0,1,5-4.5l-.36.31"/><path class="cls-2" d="M697.54,66.39a39.32,39.32,0,0,1,4.65-4.69"/><path class="cls-2" d="M703.47,67.23q2.32-2.71,4.81-5.28"/><path class="cls-2" d="M708.39,67.57A34.8,34.8,0,0,1,713,62.46"/><path class="cls-4" d="M651.45,2c-.36,12,.26,48,.16,60,0,.52,3.69,1,11.71-.08,1.1-.14-.08-49-.08-49s12.83,47.41,14.88,48.88c.84.61,9.54.51,9.63.13,2.37-10.56,14.93-49.71,14.93-49.71s-.43,43.29.07,49.52c.06.78,10.75.52,14.06-.12.75-.15.54-53,0-59.73a146.84,146.84,0,0,0-21.87,0c-1.15.07-10.5,38.16-10.5,38.16s-10.58-38-11-38.16c-.66-.21-18.41-.36-22,0"/><path class="cls-3" d="M650.95,2c-.3,10.66-.09,21.35,0,32q.07,8.91.14,17.82,0,3.47,0,6.94c0,1-.45,3,.31,3.82s2.91.5,3.76.5c1.54,0,3.08-.1,4.61-.24,1-.09,3.15.14,3.85-.51.87-.82.53-3.44.56-4.49.24-8.37,0-16.77-.08-25.14Q664,22.87,663.73,13l-1,.13c4,14.68,7.84,29.5,12.77,43.9.48,1.39,1,4.29,2.29,5.24s3.79.53,5.14.54c1.14,0,4,.44,5-.33.77-.6.89-2.86,1.13-3.78.56-2.12,1.16-4.24,1.77-6.35,1.52-5.27,3.11-10.53,4.73-15.77q3.72-12.1,7.58-24.15l-1-.13Q702,23.52,702,34.73c0,5.65,0,11.31,0,17,0,2.1,0,4.2.07,6.3,0,1-.3,3,.15,3.9s2.22.84,3.2.88a68.86,68.86,0,0,0,8.92-.27c1-.09,2.48.09,3-.84a7,7,0,0,0,.19-2.44c.41-9.35.26-18.75.23-28.11,0-9.67.26-19.49-.47-29.14a.52.52,0,0,0-.5-.5,109.9,109.9,0,0,0-13-.35q-3.46.06-6.92.24c-.75,0-1.79-.2-2.39.33a6.13,6.13,0,0,0-1,2.44c-3,8.88-5.05,18.11-7.34,27.19Q685,35.66,683.93,40h1q-3.31-11.91-6.69-23.79C677,12,675.83,7.74,674.52,3.54c-.17-.53-.3-1.59-.77-2-.8-.62-3.22-.24-4.14-.26-6-.11-12.19-.42-18.17.19-.63.07-.64,1.07,0,1a137.11,137.11,0,0,1,15.32-.23,41.12,41.12,0,0,1,6.18.14c.65.11-.06-.42.21.14A10.13,10.13,0,0,1,673.62,4c2.81,9.1,5.29,18.32,7.87,27.49q1.23,4.37,2.44,8.75a.5.5,0,0,0,1,0c2.71-11.05,5.4-22.14,8.63-33.05.31-1.06.63-2.12,1-3.17a4.24,4.24,0,0,1,.42-1.15c.59-.74-.32-.13,1-.48,1.6-.45,3.77-.19,5.44-.24q2-.06,4-.08c2.41,0,4.83,0,7.24.1a20.36,20.36,0,0,0,3.6.21,1.88,1.88,0,0,1,.61.05c-.79-.2-.28-.4-.39.46-.26,2.06.15,4.47.2,6.55q.44,21.93.14,43.88c0,2.2-.05,4.42-.18,6.62,0,.33.08,1.15-.12,1.43.1-.13-1.12,0-1.54.06-1,.11-2.1.17-3.15.23-2,.1-4,.16-6,.09-1.46-.05-2.37.24-2.49-.84a71.5,71.5,0,0,1-.15-7.29c-.13-13.78,0-27.57.14-41.35a.5.5,0,0,0-1-.13c-4.94,15.39-10,30.81-14.13,46.45-.2.76-.38,1.53-.58,2.3s0,.73-1.08.82a36.37,36.37,0,0,1-6.75,0c-1.23-.13-1.34-.22-1.81-1.27s-.9-2.32-1.3-3.49c-2.83-8.23-5.16-16.64-7.53-25q-2.7-9.51-5.29-19a.5.5,0,0,0-1,.13c.32,13.13.6,26.26.55,39.39,0,2.66,0,5.35-.19,8-.14,1.78-.53,1.17-2.48,1.37a32.85,32.85,0,0,1-7.54.23c-.93-.13-.77,0-1-.66a11.27,11.27,0,0,1,0-2.79q0-3.22,0-6.45,0-8.22-.13-16.43c-.09-11.22-.33-22.46,0-33.68a.5.5,0,0,0-1,0Z"/><path class="cls-2" d="M603.92,1.56c-2.16,1.91-5.74,4.88-6.24,6.81s-.84,54.95.3,57.84c.17.44,10.07,1.25,13.23.81,1.77-.25,5.24-3.27,6.69-6.25"/><path class="cls-2" d="M597.53,14.07a39.1,39.1,0,0,1,6.24-5.76"/><path class="cls-2" d="M597.06,21.1a58.08,58.08,0,0,1,6.79-6.46c.19-.15.51.15.37.35s-.53,0-.45-.23"/><path class="cls-2" d="M597.35,27.22q3.06-2.79,6.36-5.31"/><path class="cls-2" d="M597.44,34.73a70.88,70.88,0,0,1,6.19-5.81"/><path class="cls-2" d="M597.09,42.8A89,89,0,0,1,603.67,36s.1-.11.07-.16-.13,0-.07.05"/><path class="cls-2" d="M597.22,50.38a40.6,40.6,0,0,1,6.32-5.44l-.31.17"/><path class="cls-2" d="M597.59,56.71c2.07-2,3.76-3.57,5.93-5.48"/><path class="cls-2" d="M597.62,63.16q2.93-3.07,6-6"/><path class="cls-2" d="M601.1,66.65c1.87-1.67,3.87-4,5.95-5.4"/><path class="cls-2" d="M607.47,67a63.91,63.91,0,0,0,5.83-5.58"/><path class="cls-4" d="M603.92,1.56c0,15.2-.88,59.22.13,59.34,1.25.16,13.59,1,13.86-.13.45-1.93.43-59.39-.06-59.53s-10.23-.63-13.92.32"/><path class="cls-3" d="M603.42,1.56c0,13.76-.29,27.51-.35,41.27,0,5.26-.12,10.54.16,15.79,0,.65-.11,2.08.41,2.6.86.86,4.29.46,5.39.51,2.55.12,5.83.64,8.32-.13,1-.3,1-.66,1.11-1.57.33-3.58.17-7.27.2-10.87q.15-18.29,0-36.57c0-2.42-.05-4.84-.1-7.26a14.2,14.2,0,0,0-.15-3.84c-.42-1.22-1.84-.87-3-.92-3.79-.15-7.84-.36-11.56.51-.63.15-.36,1.11.27,1a40.25,40.25,0,0,1,10-.51,15.63,15.63,0,0,1,3.36.16c-.07,0,0-.48,0,.24-.2,3.1.17,6.35.21,9.46.12,11.07.12,22.13.06,33.2,0,4.24,0,8.49-.14,12.74,0,.63.26,2.56-.11,3.1-.61.88-4.43.44-5.59.41-1.35,0-2.69-.09-4-.16a13.53,13.53,0,0,1-3.38-.23c-.56-.2.1.34,0,.09a1.65,1.65,0,0,1-.08-.52c0-.63-.09-1.26-.12-1.9-.21-4.82-.16-9.65-.14-14.47,0-14,.34-28.05.35-42.08a.5.5,0,0,0-1,0Z"/><path class="cls-1" d="M113.31,42.81a13.28,13.28,0,0,0-3.69-7.57c-1.83-2-5.75-3.8-8.45-4.64,3-1.32,6.71-2.72,8.45-5.47.35-.55,2.5-5.08,2.25-7.75A16.32,16.32,0,0,0,100.12,2.88c-1.7-.45-36.31-1.17-36.19-.48.28,1.55-.45,59.4-.17,59.68s21.22.35,31.48-.25a60.07,60.07,0,0,0,6.13-1.12A17.86,17.86,0,0,0,112.31,52C113.56,49.34,113.65,45.74,113.31,42.81ZM77.9,13.41c1.14-1.72,10.31-.84,12.54-.71s5.11,1.25,6,3.25a10.88,10.88,0,0,1,.05,5.75,6.73,6.73,0,0,1-1.38,3c-1,1.08-2.65,1.34-4.14,1.52-4.29.52-12.83-.21-12.91-.25S77.11,14.6,77.9,13.41ZM98.37,46.23a6.94,6.94,0,0,1-1.52,3.1c-1.15,1.14-2.92,1.4-4.56,1.59-4.71.55-14.1-.22-14.19-.26s-1-11.88-.17-13.13c1.25-1.81,11.33-.88,13.78-.75s5.62,1.31,6.6,3.42A10.93,10.93,0,0,1,98.37,46.23Z"/><path class="cls-2" d="M64.08,2.58a67.28,67.28,0,0,0-4.41,7.17,13.63,13.63,0,0,0-1.17,2.69,15.17,15.17,0,0,0-.38,4L57.87,59.7c0,2.49-.3,6,1.66,7.54,1.46,1.14,16.77,1.06,21.86.6C91,67,100.47,64.19,107.57,57.59"/><path class="cls-2" d="M77.56,16.1c3-.52,12.46,0,13.37.72,1.16.9,1.67,3.07,1.84,4.53s-.71,3.62-.93,5.07"/><path class="cls-2" d="M77.56,40.51c1.32-.59,8.22-1,10.22-.78,2.69.34,5,1.88,5.47,3.31a28.87,28.87,0,0,1,.48,7.67"/><path class="cls-2" d="M58.28,17.39a6.33,6.33,0,0,1,1-1.42,35.67,35.67,0,0,1,5.13-4.89"/><path class="cls-2" d="M58.13,25.15a41.58,41.58,0,0,1,4.06-4.29A8.57,8.57,0,0,1,64,19.47"/><path class="cls-2" d="M58.19,33.12a28.25,28.25,0,0,1,5.73-5"/><path class="cls-2" d="M58,41.06a26.52,26.52,0,0,1,5.88-5.28"/><path class="cls-2" d="M57.81,48.24A12.52,12.52,0,0,1,61,45.54l2.81-1.88"/><path class="cls-2" d="M58,56a9.36,9.36,0,0,1,1.84-1.88,22,22,0,0,1,2.55-2,11,11,0,0,1,1.48-.77"/><path class="cls-2" d="M57.78,62.54l5.21-4a7.21,7.21,0,0,1,1-.66"/><path class="cls-2" d="M61.1,67.36q3-2.59,6.18-5"/><path class="cls-2" d="M68.3,67.73Q71,64.77,74,62"/><path class="cls-2" d="M76.19,68.21q3.15-3.06,6.19-6.23"/><path class="cls-2" d="M85.1,67.2l5-5.11"/><path class="cls-2" d="M93.37,65.73l3.75-4.33"/><path class="cls-2" d="M94.18,48.63A8.51,8.51,0,0,1,95.91,47l3-2.28"/><path class="cls-2" d="M93.61,45.13q2.2-2.42,4.59-4.66"/><path class="cls-2" d="M91.54,40.89a20.46,20.46,0,0,1,2.84-3.75"/><path class="cls-2" d="M86.32,39.25a16.4,16.4,0,0,1,2.12-2.55"/><path class="cls-2" d="M80.21,39.73a22.25,22.25,0,0,1,2.4-3.27"/><path class="cls-2" d="M79.81,15.65c-.06-.28.17-.54.38-.74l2.43-2.28"/><path class="cls-2" d="M84.05,15.83c1.53-.92,2.52-2.61,4.16-3.32"/><path class="cls-2" d="M88.86,16.21a37.41,37.41,0,0,1,3.86-3.05"/><path class="cls-2" d="M92.09,18.19a18.2,18.2,0,0,1,3.64-3.11"/><path class="cls-2" d="M92.65,21.92q2.06-1.3,4.09-2.66"/><path class="cls-2" d="M159.35,19.57c2-1.9,5.13-2,7.92-2,1.42,0,3,.08,3.94,1.17a4.44,4.44,0,0,1,.79,1.79,23.79,23.79,0,0,1,.64,8"/><path class="cls-2" d="M164.38,45c1.28-.28,7.64-.47,8.36.62s-.29,22,1.68,23.18c1,.63,14.62.48,15,.3a26.57,26.57,0,0,0,4.12-7.14"/><path class="cls-2" d="M146.88,11.95c-9.4,16.29,1.67,23.94,1.85,25,.43,2.4-13.91,27.6-12.25,29.35,1.17,1.24,16,2.72,16.34,2.42a22.41,22.41,0,0,0,5.13-6.21"/><path class="cls-2" d="M143.15,26.89q1.16-1.91,2.41-3.76"/><path class="cls-2" d="M145.4,32.3q1.35-1.9,2.73-3.78s.08-.1.14-.09.07.12,0,.11"/><path class="cls-2" d="M148.2,36.49a28.28,28.28,0,0,1,2.71-3.75"/><path class="cls-2" d="M147,41.75a59.17,59.17,0,0,1,7.59-3.63.35.35,0,0,1-.33.21"/><path class="cls-2" d="M144,48.09c1.73-1.08,3.11-2,4.84-3.09a16.26,16.26,0,0,1,2.79-1.42"/><path class="cls-2" d="M141.17,54.07c1.05-.55,1.65-1,2.7-1.52A12.06,12.06,0,0,1,148.18,51"/><path class="cls-2" d="M138.08,60.62a23.58,23.58,0,0,1,6.78-2.87"/><path class="cls-2" d="M137.92,66.78a43.48,43.48,0,0,1,6.48-4.54l-.21.18"/><path class="cls-2" d="M143.84,67.71c0-.27.54-.72.75-.9L150.05,62"/><path class="cls-2" d="M150.07,68.48a2.69,2.69,0,0,1,.77-.93c1.74-1.54,3.86-3.26,5.6-4.79"/><path class="cls-2" d="M165.36,44.75A49.41,49.41,0,0,0,172.16,39a1.17,1.17,0,0,1,.87-.47"/><path class="cls-2" d="M172.55,45.4c2.06-1.87,4.77-4.44,6.83-6.3"/><path class="cls-2" d="M172.87,52.34a47.32,47.32,0,0,1,6.55-6"/><path class="cls-2" d="M173.13,58.37a42.08,42.08,0,0,1,6.3-5.72"/><path class="cls-2" d="M173.35,64.65l6-5.75"/><path class="cls-2" d="M175.67,69.21l6.75-6.73"/><path class="cls-2" d="M183.54,69a67.81,67.81,0,0,0,5.26-7.3l-.37.18"/><path class="cls-2" d="M162.18,18.33a1.81,1.81,0,0,1,.73-1.21q1.87-1.75,3.83-3.42"/><path class="cls-2" d="M169,17.48a23.77,23.77,0,0,1,4.78-4.21"/><path class="cls-2" d="M172.33,20.88q3.6-3.17,7.45-6"/><path class="cls-2" d="M172.55,25.61q3.25-2.6,6.64-5"/><path class="cls-2" d="M175.41,28.63a35,35,0,0,1,4.29-3.31.23.23,0,0,0-.25-.06"/><path class="cls-1" d="M192.91,2.52c-.3-.24-28.14.12-30.4.37a26.2,26.2,0,0,0-8.95,2.31A16.06,16.06,0,0,0,145,19.62c0,6,3.09,12.53,8.44,15.19.86.43,2.08.38,2,1.33a2.24,2.24,0,0,1-.33.85A219.8,219.8,0,0,0,143.4,61.61a.64.64,0,0,0,.7.86c4.79-.75,13.39.54,13.68.36S163,47,166.62,40.09a1.82,1.82,0,0,1,.51-.68,1.84,1.84,0,0,1,1-.24l11.28-.72c-.1,4.87,0,24,.18,24.21s9.88-.1,13.74-.1C194.09,61,193.26,2.8,192.91,2.52ZM179.49,28.62a128.37,128.37,0,0,1-15-.62c-1-.13-3.83-1.73-4.48-3.85a9.6,9.6,0,0,1-.66-3.69,8.4,8.4,0,0,1,2.5-5.33c1.77-1.88,15.24-2.16,17-2C180,13.3,179.37,24.88,179.49,28.62Z"/><path class="cls-2" d="M482,18.9c2-1.9,5.13-2,7.92-2,1.42,0,3,.08,3.94,1.17a4.44,4.44,0,0,1,.79,1.79,23.79,23.79,0,0,1,.64,8"/><path class="cls-2" d="M487,44.29c1.28-.28,7.64-.47,8.36.62s-.29,22,1.68,23.18c1,.63,14.62.48,15,.3a26.57,26.57,0,0,0,4.12-7.14"/><path class="cls-2" d="M469.54,11.28c-9.4,16.29,1.67,23.94,1.85,25,.43,2.4-13.91,27.6-12.25,29.35,1.17,1.24,16,2.72,16.34,2.42a22.41,22.41,0,0,0,5.13-6.21"/><path class="cls-2" d="M465.81,26.22q1.16-1.91,2.41-3.76"/><path class="cls-2" d="M468.07,31.64q1.35-1.9,2.73-3.78s.08-.1.14-.09.07.12,0,.11"/><path class="cls-2" d="M470.86,35.82a28.28,28.28,0,0,1,2.71-3.75"/><path class="cls-2" d="M469.68,41.08a59.17,59.17,0,0,1,7.59-3.63.35.35,0,0,1-.33.21"/><path class="cls-2" d="M466.66,47.42c1.73-1.08,3.11-2,4.84-3.09a16.26,16.26,0,0,1,2.79-1.42"/><path class="cls-2" d="M463.83,53.41c1.05-.55,1.65-1,2.7-1.52a12.06,12.06,0,0,1,4.31-1.59"/><path class="cls-2" d="M460.75,60a23.58,23.58,0,0,1,6.78-2.87"/><path class="cls-2" d="M460.58,66.11a43.48,43.48,0,0,1,6.48-4.54l-.21.18"/><path class="cls-2" d="M466.51,67c0-.27.54-.72.75-.9l5.46-4.79"/><path class="cls-2" d="M472.74,67.82a2.69,2.69,0,0,1,.77-.93c1.74-1.54,3.86-3.26,5.6-4.79"/><path class="cls-2" d="M488,44.08a49.41,49.41,0,0,0,6.81-5.79,1.17,1.17,0,0,1,.87-.47"/><path class="cls-2" d="M495.21,44.73c2.06-1.87,4.77-4.44,6.83-6.3"/><path class="cls-2" d="M495.54,51.68a47.32,47.32,0,0,1,6.55-6"/><path class="cls-2" d="M495.8,57.71A42.08,42.08,0,0,1,502.1,52"/><path class="cls-2" d="M496,64l6-5.75"/><path class="cls-2" d="M498.34,68.55l6.75-6.73"/><path class="cls-2" d="M506.21,68.36a67.81,67.81,0,0,0,5.26-7.3l-.37.18"/><path class="cls-2" d="M484.84,17.66a1.81,1.81,0,0,1,.73-1.21q1.87-1.75,3.83-3.42"/><path class="cls-2" d="M491.67,16.81a23.77,23.77,0,0,1,4.78-4.21"/><path class="cls-2" d="M495,20.21q3.6-3.17,7.45-6"/><path class="cls-2" d="M495.21,24.94q3.25-2.6,6.64-5"/><path class="cls-2" d="M498.07,28a35,35,0,0,1,4.29-3.31.23.23,0,0,0-.25-.06"/><path class="cls-1" d="M515.58,1.86c-.3-.24-28.14.12-30.4.37a26.2,26.2,0,0,0-8.95,2.31A16.06,16.06,0,0,0,467.71,19c0,6,3.09,12.53,8.44,15.19.86.43,2.08.38,2,1.33a2.24,2.24,0,0,1-.33.85,219.8,219.8,0,0,0-11.74,24.62.64.64,0,0,0,.7.86c4.79-.75,13.39.54,13.68.36s5.2-15.84,8.85-22.74a1.82,1.82,0,0,1,.51-.68,1.84,1.84,0,0,1,1-.24L502,37.78c-.1,4.87,0,24,.18,24.21s9.88-.1,13.74-.1C516.75,60.3,515.92,2.13,515.58,1.86ZM502.16,27.95a128.37,128.37,0,0,1-15-.62c-1-.13-3.83-1.73-4.48-3.85a9.6,9.6,0,0,1-.66-3.69,8.4,8.4,0,0,1,2.5-5.33c1.77-1.88,15.24-2.16,17-2C502.68,12.63,502,24.21,502.16,27.95Z"/><path class="cls-3" d="M729.11,1.92c-2.75,3.13-5.91,5.89-6.23,10.33-.14,1.9,0,3.84,0,5.75.08,6.63.26,13.27.46,19.9.21,7,.45,14,.85,21,.12,2,.21,4.07.46,6.09.13,1,.1,1.51,1,1.9,1.31.54,3.32.47,4.72.62a43,43,0,0,0,6.66.3c3.67-.2,5.35-2.36,7-5.56.29-.57-.57-1.08-.86-.5a14.06,14.06,0,0,1-2.92,4.17c-1.25,1.06-3.22.93-4.78.92s-3.4-.15-5.09-.32a18.27,18.27,0,0,1-4.32-.56c-.41-.15-.19.28-.37-.52a14.56,14.56,0,0,1-.21-2c-.19-2.18-.31-4.36-.42-6.54-.64-12.33-1-24.69-1.18-37,0-2.09-.09-4.19-.05-6.29.09-4.86,3-7.54,6-11,.42-.48-.28-1.19-.71-.71Z"/><path class="cls-3" d="M762.92,1.83c-2,.74-5,2.05-6.22,3.82-.83,1.16-.76,3.15-.85,4.5-.36,5.34-.18,10.7-.17,16a.5.5,0,0,0,1,0c0-4.46-.11-8.92,0-13.38.06-1.79-.14-4.17.52-5.87.76-2,4.07-3.44,6-4.15.6-.22.34-1.19-.27-1Z"/><path class="cls-3" d="M742.66,42.12c.63,1.54,6.44.47,7.68.44s4.68-.56,5.15.8c.37,1.06-.12,3-.15,4.13q0,2.42,0,4.85c0,2.84.1,5.68.28,8.51.1,1.6,0,3.73.6,5.26.4,1,.93,1.11,2,1.26a41,41,0,0,0,6.9.16,37.58,37.58,0,0,0,6.1-.32c2.47-.51,3.84-2.83,5-4.85a.5.5,0,0,0-.86-.5c-.93,1.61-2,3.62-3.88,4.27a10.17,10.17,0,0,1-3,.23c-2.55.07-5.06.27-7.62.19-.82,0-3.08.21-3.64-.5-.39-.5-.34-1.81-.4-2.4-.33-3.05-.42-6.14-.48-9.21-.07-3.39-.06-6.78.09-10.17.08-1.62.21-2.21-1.44-2.56a25.8,25.8,0,0,0-6.11-.09c-1.12,0-2.23.1-3.35.12h-1.35c-.39,0-.73-.26-.57.14-.24-.59-1.21-.33-1,.27Z"/><path class="cls-2" d="M729.29,7.47q-3.09,3.21-6,6.62"/><path class="cls-2" d="M729.5,13.93c-2.15,2.07-4,4-6.11,6.16"/><path class="cls-2" d="M729.79,21.05a84.31,84.31,0,0,0-6.08,6.22"/><path class="cls-2" d="M729.59,27.27q-3,3.12-5.88,6.43l.34-.39"/><path class="cls-2" d="M729.57,34.35a70.79,70.79,0,0,1-5.65,6.27"/><path class="cls-2" d="M729.51,40.11l-5.38,6.41"/><path class="cls-2" d="M729.62,48.47a65.78,65.78,0,0,1-5.3,6.43"/><path class="cls-2" d="M729.49,56.59c-1.49,1.69-3.45,4-4.84,5.79"/><path class="cls-2" d="M730.32,61l-4.15,5.71"/><path class="cls-2" d="M735.18,62.51a38.46,38.46,0,0,0-3.87,4.64"/><path class="cls-2" d="M740.28,62.38a25.93,25.93,0,0,0-3.22,4.77"/><path class="cls-2" d="M762,7c-2.07,1.72-3.82,3.26-5.76,5.13"/><path class="cls-2" d="M762.32,12c-2,1.48-4.3,3.39-6.13,5.06"/><path class="cls-2" d="M762.55,18.42c-2,1.52-4.3,3.21-6.3,4.77"/><path class="cls-2" d="M762.55,23c-1,1.06-2.36,2.28-3.4,3.34,0,0-.06,0-.09,0s0-.07,0,0"/><path class="cls-2" d="M748.51,37.11A52,52,0,0,0,743.19,42a.37.37,0,0,0,.18-.18"/><path class="cls-2" d="M754.35,37.21a9.63,9.63,0,0,0-1.87,1.16l-3.27,3a.34.34,0,0,0,.23-.27"/><path class="cls-2" d="M759,37.4a41.16,41.16,0,0,0-4.61,4.52"/><path class="cls-2" d="M762.12,39.57q-3.2,2.66-6.14,5.61"/><path class="cls-2" d="M762,45.25c-2.25,2-4.12,3.66-6.28,5.72"/><path class="cls-2" d="M761.92,52.13l-6.16,5.34"/><path class="cls-2" d="M762,58q-2.93,2.76-5.62,5.76"/><path class="cls-2" d="M764.19,62.63l-3.13,3.25a1.78,1.78,0,0,0-.55.86"/><path class="cls-2" d="M769.08,62.9c-.83,1.28-2,2.95-3,4.15"/><path class="cls-4" d="M729.47,2.27c0,12.2.18,46.43.18,59.76,0,.5,7.13.67,13.74.2,1-.08-1-15.26,0-24.7,0,0,11.15-.78,18.72.06.15,4.35-.77,23.47,0,24.72.25.39,13.82.83,13.69-.12-.44-3.25.84-51.25-.19-59.92-.06-.52-6.48-.24-12.72,0a1,1,0,0,0-1,1.06c.21,4.45,1,21.83.16,22.26-1.86,1-16.93.74-18.58.08-1.25-.5.11-22.76-.17-23.38-.42-.94-12.66.15-13.92,0"/><path class="cls-3" d="M729,2.27c0,13.76.08,27.51.13,41.27q0,5.19,0,10.37,0,2.09,0,4.17c0,1-.4,3.07,0,3.95.62,1.36,3.68.94,4.89,1,2.36,0,4.73,0,7.09-.13.84,0,2.27.25,2.84-.53.86-1.17.17-4.31.11-5.61-.18-3.79-.41-7.57-.45-11.37,0-2,0-3.95.14-5.92,0-.37.08-1.71-.22-1.42.14-.13,1-.06,1.18-.07,3.39-.19,6.8-.28,10.2-.24a57.42,57.42,0,0,1,5.86.25c1.21.14.58-.32.88.42a6,6,0,0,1,0,1.77c0,2.9-.12,5.79-.19,8.69-.07,3.09-.15,6.18-.12,9.26,0,1-.35,3.55.37,4.42s2.89.58,3.84.63a72.51,72.51,0,0,0,8,0c1-.06,2.45.06,2.83-1a11,11,0,0,0-.09-2.85c-.09-10.87.21-21.74.28-32.61,0-5.63.07-11.26,0-16.89,0-1.93-.07-3.86-.2-5.78-.07-1.17.14-2.11-1.08-2.46-1.4-.41-3.3-.12-4.74-.09-2.38.05-5.3-.3-7.61.25-2,.49-1.35,3-1.28,4.57.24,5.76.67,11.63.33,17.39,0,.69,0,1.22-.46,1.55-.75.5-2.61.32-3.48.37-3,.15-6,.13-9,0-1.24,0-4.67.27-5.27-.77a6.94,6.94,0,0,1-.21-2.55c0-1.28,0-2.57,0-3.85,0-5,.42-10.1.4-15.15,0-1,.06-1.43-.92-1.79-2-.73-5-.13-7.05,0a54.64,54.64,0,0,1-6.48.26c-.64,0-.64,1,0,1,3.15.24,6.44-.31,9.6-.37a29.45,29.45,0,0,1,3.84,0c.28.31,0,2,0,2.37-.17,6.43-1,13.21-.21,19.62.23,1.81.88,1.88,2.64,2.06a86.6,86.6,0,0,0,11.2.25c1.42,0,5.16.36,6.13-1a5.21,5.21,0,0,0,.3-2.33c.08-1.83,0-3.67,0-5.5-.06-3.92-.21-7.85-.37-11.77A8.59,8.59,0,0,1,762.51,4c.42-1.72,2.71-1.36,4.16-1.41s2.81-.09,4.22-.12c1.17,0,2.91-.32,4,.05.57.19.22-.27.33.53.06.41.06.83.09,1.24.08,1.31.12,2.62.15,3.94.08,3.3.1,6.61.1,9.91,0,14.11-.59,28.24-.3,42.34a7.57,7.57,0,0,1,0,1.05c-.08.65.15.25-.1.44-.92.68-3.69.26-4.82.27-2,0-4,0-6.06-.17-1.31-.09-1.87.25-1.89-1-.1-7.84.41-15.71.19-23.54a.51.51,0,0,0-.5-.5A109.47,109.47,0,0,0,743.42,37a.52.52,0,0,0-.5.5c-.72,6.91,0,13.86.22,20.77a8.7,8.7,0,0,1,0,2.91c-.31.76-.66.57-1.6.62q-2,.11-4,.15c-1.83,0-3.66,0-5.48-.06s-2,.12-2-1.55c0-13-.08-26.06-.13-39.08q0-9.52,0-19a.5.5,0,0,0-1,0Z"/></g></g></svg>