<?xml version="1.0" encoding="utf-8"?>
<!-- Generator: Adobe Illustrator 21.0.2, SVG Export Plug-In . SVG Version: 6.00 Build 0)  -->
<svg version="1.1" xmlns="http://www.w3.org/2000/svg" xmlns:xlink="http://www.w3.org/1999/xlink" x="0px" y="0px"
	 viewBox="0 0 517.1 68" style="enable-background:new 0 0 517.1 68;" xml:space="preserve">
<style type="text/css">
	.st0{display:none;}
	.st1{display:inline;fill:#EEB755;stroke:#586DB0;stroke-miterlimit:10;}
	.st2{display:inline;}
	.st3{fill:#0D0E0F;}
	.st4{fill:none;stroke:#0D0E0F;stroke-miterlimit:10;}
	.st5{fill:#FFFFFF;}
	.st6{fill:#FFFFFF;stroke:#0D0E0F;stroke-miterlimit:10;}
	.st7{display:inline;fill:none;}
	.st8{font-family:'FranklinGothic-Demi';}
	.st9{font-size:90px;}
</style>
<g id="Слой_3" class="st0">
	<rect x="31.9" y="-1286.3" class="st1" width="1306" height="2822"/>
</g>
<g id="Слой_18">
</g>
<g id="Слой_2" class="st0">
	<g class="st2">
		<g>
			<g>
				<path class="st3" d="M17.7-1333.2c-2,1.7-4.9,4.9-4.7,7.7c0.1,1.7,0.7,3.5,1.1,5.2c1.6,6.6,3.3,13.2,5.1,19.8
					c2,7.3,4,14.5,6.1,21.8c0.7,2.4,1.4,4.7,2.1,7.1c0.3,0.8,0.5,2.3,1.2,2.9c0.9,0.7,3,0.5,4,0.5c2.3,0.1,4.7,0,7-0.1
					c1.4-0.1,3.1-0.1,4.4-0.6c1.9-0.7,2.8-2.9,3.6-4.6c0.3-0.6-0.6-1.1-0.9-0.5c-0.9,1.9-1.7,3.9-3.9,4.3c-1.4,0.3-2.8,0.3-4.2,0.4
					c-1.8,0.1-3.7,0.1-5.5,0.1c-0.9,0-3.3,0.3-4-0.3c-0.6-0.6-0.9-2.6-1.1-3.4c-0.7-2.3-1.4-4.5-2-6.8c-3.6-12.6-7.1-25.3-10.3-38
					c-0.5-2.2-1.1-4.4-1.5-6.7c-0.6-3.1,1.8-6,4.2-8C18.9-1332.9,18.2-1333.6,17.7-1333.2L17.7-1333.2z"/>
			</g>
		</g>
		<g>
			<g>
				<path class="st3" d="M51.3-1333.9c-2.3,0.1-4.6,0.5-6,2.5c-1.4,2-1.9,4.7-2.5,7c-1.8,6.5-3.2,13.2-4.6,19.8
					c-0.1,0.6,0.8,0.9,1,0.3c1.1-5.6,2.4-11.2,3.8-16.7c0.6-2.5,1.3-4.9,2.1-7.3c1.1-3.2,2.9-4.3,6.3-4.5
					C52-1333,52-1334,51.3-1333.9L51.3-1333.9z"/>
			</g>
		</g>
		<g>
			<g>
				<path class="st3" d="M83.6-1332c0.6,0,0.6-1,0-1C83-1333,83-1332,83.6-1332L83.6-1332z"/>
			</g>
		</g>
		<g>
			<g>
				<path class="st3" d="M83.6-1332c0.6,0,0.6-1,0-1C83-1333,83-1332,83.6-1332L83.6-1332z"/>
			</g>
		</g>
		<g>
			<g>
				<path class="st3" d="M84.2-1333.9c-2.4,1.2-5.2,2.5-6.2,5.2c-1.2,2.9-2,5.9-2.8,8.9c-1.6,5.7-3.4,11.4-4.3,17.2
					c0.2-0.1,0.5-0.2,0.7-0.3c-0.1,0-0.1-0.1-0.2-0.1c-0.6-0.3-1.1,0.6-0.5,0.9c0.1,0,0.1,0.1,0.2,0.1c0.3,0.1,0.7,0,0.7-0.3
					c0.8-5.3,2.4-10.5,3.8-15.7c0.8-3,1.7-5.9,2.7-8.9c0.3-0.8,0.5-1.9,1.1-2.6c1.1-1.5,3.6-2.6,5.3-3.5
					C85.3-1333.4,84.8-1334.2,84.2-1333.9L84.2-1333.9z"/>
			</g>
		</g>
		<g>
			<g>
				<path class="st3" d="M79.5-1273.6c-2.2,3.1-4.7,5.4-8.6,5.4c-2.5,0-5.3,0.1-7.7-0.6c-3-0.8-3.6-5.5-4.3-8.1
					c-1.3-4.6-2.3-9.2-3.2-13.8c-0.6-3.2-1.4-6.6-1.6-9.9c0-0.6-1-0.6-1,0c0.1,3.9,1.1,7.9,1.9,11.7c1.1,5.3,2.2,10.6,3.9,15.7
					c0.4,1.3,0.9,3.1,1.8,4.2c1,1.2,2.8,1.3,4.3,1.5c2.5,0.3,5.4,0.6,8,0.2c3.1-0.4,5.6-3.4,7.3-5.8
					C80.7-1273.6,79.9-1274.1,79.5-1273.6L79.5-1273.6z"/>
			</g>
		</g>
		<g>
			<g>
				<path class="st3" d="M101.4-1333.8c-2.8,3.1-5.9,5.9-6.2,10.3c-0.1,1.9,0,3.8,0,5.8c0.1,6.6,0.3,13.3,0.5,19.9
					c0.2,7,0.4,14,0.8,21c0.1,2,0.2,4.1,0.5,6.1c0.1,1,0.1,1.5,1,1.9c1.3,0.5,3.3,0.5,4.7,0.6c2.2,0.2,4.4,0.4,6.7,0.3
					c3.7-0.2,5.4-2.4,7-5.6c0.3-0.6-0.6-1.1-0.9-0.5c-0.7,1.4-1.7,3.1-2.9,4.2c-1.2,1.1-3.2,0.9-4.8,0.9c-1.7,0-3.4-0.1-5.1-0.3
					c-1.3-0.1-3.1-0.1-4.3-0.6c-0.4-0.2-0.2,0.3-0.4-0.5c-0.1-0.6-0.2-1.3-0.2-2c-0.2-2.2-0.3-4.4-0.4-6.5c-0.6-12.3-1-24.7-1.2-37
					c0-2.1-0.1-4.2-0.1-6.3c0.1-4.9,3-7.5,6-11C102.5-1333.6,101.8-1334.3,101.4-1333.8L101.4-1333.8z"/>
			</g>
		</g>
		<g>
			<g>
				<path class="st3" d="M135.2-1333.9c-2,0.7-5,2.1-6.2,3.8c-0.8,1.2-0.8,3.1-0.9,4.5c-0.4,5.3-0.2,10.7-0.2,16c0,0.6,1,0.6,1,0
					c0-4.5-0.1-8.9,0-13.4c0.1-1.8-0.1-4.2,0.5-5.9c0.8-2,4.1-3.4,6-4.2C136.1-1333.1,135.8-1334.1,135.2-1333.9L135.2-1333.9z"/>
			</g>
		</g>
		<g>
			<g>
				<path class="st3" d="M115-1293.6c0.6,1.5,6.4,0.5,7.7,0.4c1.3,0,4.7-0.6,5.1,0.8c0.4,1.1-0.1,3-0.1,4.1c0,1.6,0,3.2,0,4.8
					c0,2.8,0.1,5.7,0.3,8.5c0.1,1.6,0,3.7,0.6,5.3c0.4,1,0.9,1.1,2,1.3c2.3,0.3,4.6,0.2,6.9,0.2c2-0.1,4.2,0.1,6.1-0.3
					c2.5-0.5,3.8-2.8,5-4.9c0.3-0.6-0.5-1.1-0.9-0.5c-0.9,1.6-2,3.6-3.9,4.3c-1,0.3-2,0.2-3,0.2c-2.5,0.1-5.1,0.3-7.6,0.2
					c-0.8,0-3.1,0.2-3.6-0.5c-0.4-0.5-0.3-1.8-0.4-2.4c-0.3-3.1-0.4-6.1-0.5-9.2c-0.1-3.4-0.1-6.8,0.1-10.2c0.1-1.6,0.2-2.2-1.4-2.6
					c-1.9-0.4-4.1-0.2-6.1-0.1c-1.1,0-2.2,0.1-3.4,0.1c-0.5,0-0.9,0-1.3,0c-0.4,0-0.7-0.3-0.6,0.1
					C115.7-1294.4,114.7-1294.2,115-1293.6L115-1293.6z"/>
			</g>
		</g>
		<g>
			<g>
				<path class="st3" d="M176.1-1318.1c3.9-3.1,7.9-0.3,8.6,4.1c0.5,3.3,0.4,6.8,0.2,10.1c-0.3,6.8-1.4,13.5-1.4,20.2
					c0.3,0,0.7-0.1,1-0.1c-0.1-0.4-0.2-0.5-0.5-0.8c-0.4-0.5-1.2,0.2-0.7,0.7c0.1,0.1,0.1,0.2,0.2,0.4c0.2,0.5,1,0.5,1-0.1
					c0-9.6,2.1-19.1,1.3-28.8c-0.2-2.6-0.7-5.2-2.9-6.9c-2.5-1.9-5.2-1.3-7.5,0.5C174.9-1318.4,175.6-1317.7,176.1-1318.1
					L176.1-1318.1z"/>
			</g>
		</g>
		<g>
			<g>
				<path class="st3" d="M169.7-1331.2c-2.4,0.9-4.5,2.8-6.5,4.4c-2.5,2.1-4.7,4.4-6.4,7.2c-4.1,6.6-5.8,14.7-5.8,22.5
					c0,13.4,8.8,27,22.6,29.6c8.6,1.6,15.9-2.5,22.1-8.1c0.5-0.4-0.2-1.1-0.7-0.7c-5.6,5-12,9-19.8,8c-6.3-0.8-11.9-4.3-16-9
					c-9.1-10.5-9.1-26.7-3.2-38.9c1.6-3.3,3.7-6.3,6.5-8.7c2.2-2,4.7-4.3,7.5-5.4C170.5-1330.5,170.3-1331.5,169.7-1331.2
					L169.7-1331.2z"/>
			</g>
		</g>
		<path class="st4" d="M254.1-1333.4c-2.4,1.3-6,2.7-7.4,5.1c-0.5,0.8-19.2,56.3-18.6,57.3c0.7,1.3,13,3.1,14.4,2.3
			c1.3-0.7,2.5-2.3,4.1-4.9"/>
		<path class="st4" d="M288.4-1273.8c-0.5,1.7-1.9,3.2-3.1,4.4c-0.9,0.8-14.6,0.7-15.2,0c-1.2-1.2-3.9-10.2-4.4-10.6
			c-1.2-0.9-4.6-0.6-6.8-0.6c-3.5,0-6.7-0.2-10.1-0.3"/>
		<path class="st4" d="M256.9-1309.5c1.3,4.9,3.1,8.2,4.9,13"/>
		<path class="st4" d="M294.9-1333.4c-2.5,2.6-5.5,5.2-5.8,6c-0.3,0.9,1.2,58.2,1.8,58.5c0.3,0.2,12.4,0.3,13.2-0.3
			c0.9-0.6,2.1-2.8,2.6-4.3"/>
		<path class="st4" d="M307.1-1299.9c0.6,1.8,8.1,29.6,9.1,31c0.1,0.1,10,1.3,11.4,0.5c1.3-0.8,2.2-2.8,3.5-5"/>
		<path class="st4" d="M340.3-1305.3c0.1,10.6,0.1,35,0.8,36c0.8,1.2,15.3,1.2,15.5,0.8c1.5-2.4,2.2-3.1,3.8-5.5"/>
		<path class="st4" d="M338.4-1333.4c-1.9,1.1-7.1,5.2-7.7,5.9c-0.4,0.5-4.7,15.1-5.6,23"/>
		<path class="st4" d="M395-1332.9c-2.2,1.9-5.7,4.9-6.2,6.8c-0.5,1.9-0.8,54.9,0.3,57.8c0.2,0.4,10.1,1.2,13.2,0.8
			c1.8-0.2,5.2-3.3,6.7-6.3"/>
		<path class="st4" d="M426.1-1331.4c-7.5,2.6-13.4,8.9-13.7,16.8c-0.1,1.2,0,3.6,0.8,4.6c0.6,0.7,9.2,1.4,10.6,1.1
			c0.7-0.1,3-1.9,4-3.9"/>
		<path class="st4" d="M429.6-1319.2c2.1-0.9,4.9-1.5,7.1-0.7c1.4,0.5,2.4,1.9,2.8,3.3c0.3,0.8,0,1.8-0.1,2.7
			c-0.4,2.8-1.2,5.5-2.3,8"/>
		<path class="st4" d="M434.3-1304.9c-1.6,1.1-3.8,2.6-5.2,4.1c-0.8,0.8-1.5,1.7-2,2.7c-1.1,2.1-0.8,9.3-0.1,10.1
			c0.6,0.6,9.5,1.4,10,1.3c2.1-0.7,4.3-2.4,5-4.2"/>
		<path class="st4" d="M430.8-1286.3c-1.1,1-4.5,3.8-4.8,4.5c-0.3,0.8-0.1,12.3,1,13c0.6,0.4,12.8,0.2,13.8-0.5c0.6-0.5,3.2-3,4-4.5
			"/>
		<path class="st4" d="M388.4-1319.9"/>
		<path class="st4" d="M447.4-1274.1"/>
		<path class="st4" d="M18.8-1329.7c-1.6,3.3-2.9,6.2-4.3,9.6"/>
		<path class="st4" d="M20.9-1322.1c-1.6,3.6-2.8,6.9-4,10.7"/>
		<path class="st4" d="M23.2-1312.1c-1.7,3-3.1,5.7-4.3,8.8"/>
		<path class="st4" d="M25.3-1303.4c-1.6,2.6-3,5.2-4.3,7.9"/>
		<path class="st4" d="M28.1-1293.3c-1.3,2.8-2.9,6.3-4,9.2"/>
		<path class="st4" d="M30-1285.3c-1.3,2.8-2.5,5.7-3.6,8.6c0-0.1,0-0.2,0.1-0.3"/>
		<path class="st4" d="M32.3-1276.8c-1.2,2.3-2.5,4.6-3.8,6.8"/>
		<path class="st4" d="M35.6-1272.8c-1,1.4-1.9,2.8-2.7,4.3c0-0.1,0-0.1,0.1-0.2"/>
		<path class="st4" d="M40-1273.1c-0.9,1.3-1.8,2.8-2.5,4.2c0,0,0-0.1,0-0.1"/>
		<path class="st4" d="M44-1273.1c-0.8,1.2-1.6,2.4-2.3,3.7"/>
		<path class="st4" d="M51.3-1332.7c-2.3,1.4-4.6,2.9-6.9,4.4"/>
		<path class="st4" d="M49.6-1327.4c-2.5,1.6-4.4,3.1-6.7,4.9"/>
		<path class="st4" d="M48-1320.1c-2.3,1.2-4.4,2.4-6.8,3.6"/>
		<path class="st4" d="M46.4-1314.3c-2.2,1.4-3.9,2.1-6.3,3.3"/>
		<path class="st4" d="M45-1307.5c-1.6,1.7-3.9,2.6-5.8,4c0.1-0.1,0.2-0.1,0.3-0.2"/>
		<path class="st4" d="M43.5-1301.2c-0.3,0.2-0.6,0.5-0.9,0.7c-1.1,0.8-2.1,1.6-3.2,2.4c0,0,0.1,0,0.1-0.1"/>
		<path class="st4" d="M58.3-1305.9c-1.5,1.8-3.3,3.9-4.6,5.8"/>
		<path class="st4" d="M59.8-1300.1c0,0.2-0.2,0.4-0.4,0.6c-1.7,1.9-3.1,3.5-4.8,5.4"/>
		<path class="st4" d="M61.6-1292.9c-1.9,1.8-3.9,4-5.6,6.1"/>
		<path class="st4" d="M63-1286.1c-1.8,2.3-3.4,4.2-5.3,6.4"/>
		<path class="st4" d="M65-1279.5c-1.1,1.3-2.1,2.5-3.2,3.8c-0.8,0.9-1.6,1.9-2.2,2.9"/>
		<path class="st4" d="M66.1-1274.2c-1.6,1.8-3.2,3.6-4.8,5.4"/>
		<path class="st4" d="M72.6-1273.2c-1.5,1.4-3.3,3.7-4.3,5.5"/>
		<path class="st4" d="M77.4-1273c-1.4,1.6-2.7,3.4-3.9,5.1"/>
		<path class="st4" d="M83.2-1331.3c-2,1.5-3.9,3.1-5.6,4.9"/>
		<path class="st4" d="M81.6-1325.5c-1.8,1.5-3.9,3.2-5.6,4.7"/>
		<path class="st4" d="M79.9-1318.9c-2.1,1.6-3.9,3.2-5.9,5"/>
		<path class="st4" d="M78.7-1312.6c-2.2,1.5-3.9,2.7-6.1,4.3"/>
		<path class="st4" d="M77.5-1307c-1.9,1-3.8,2.1-5.7,3.3"/>
		<path class="st4" d="M76.6-1301.8c-1.2,0.9-2.4,1.7-3.5,2.6c0.1,0,0.2,0,0.2-0.1"/>
		<path class="st4" d="M101.6-1328.2c-2.1,2.1-4,4.3-6,6.6"/>
		<path class="st4" d="M101.8-1321.8c-2.1,2.1-4,4-6.1,6.2"/>
		<path class="st4" d="M102.1-1314.6c-2.3,2.1-4,3.9-6.1,6.2"/>
		<path class="st4" d="M101.9-1308.4c-2,2.1-4,4.2-5.9,6.4c0.1-0.1,0.2-0.3,0.3-0.4"/>
		<path class="st4" d="M101.9-1301.4c-1.9,2.3-3.6,4.2-5.7,6.3"/>
		<path class="st4" d="M101.8-1295.6c-1.8,2.1-3.6,4.3-5.4,6.4"/>
		<path class="st4" d="M101.9-1287.2c-1.6,2.3-3.4,4.4-5.3,6.4"/>
		<path class="st4" d="M101.8-1279.1c-1.5,1.7-3.4,4-4.8,5.8"/>
		<path class="st4" d="M102.6-1274.7c-1.4,1.9-2.8,3.8-4.1,5.7"/>
		<path class="st4" d="M107.5-1273.2c-1.1,1.1-3,3.3-3.9,4.6"/>
		<path class="st4" d="M112.6-1273.3c-1.2,1.5-2.3,3.1-3.2,4.8"/>
		<path class="st4" d="M134.3-1328.7c-2.1,1.7-3.8,3.3-5.8,5.1"/>
		<path class="st4" d="M134.6-1323.7c-2,1.5-4.3,3.4-6.1,5.1"/>
		<path class="st4" d="M134.8-1317.3c-2,1.5-4.3,3.2-6.3,4.8"/>
		<path class="st4" d="M134.8-1312.7c-1,1.1-2.4,2.3-3.4,3.3c0,0-0.1,0.1-0.1,0c0,0,0-0.1,0,0"/>
		<path class="st4" d="M120.8-1298.6c-1.7,1.3-3.9,3.3-5.3,4.9c0.1,0,0.1-0.1,0.2-0.2"/>
		<path class="st4" d="M126.6-1298.5c-0.5,0.2-1.4,0.8-1.9,1.2c-1.1,1-2.2,2-3.3,3c0.1,0,0.2-0.1,0.2-0.3"/>
		<path class="st4" d="M131.3-1298.3c-1.7,1.4-3.2,2.9-4.6,4.5"/>
		<path class="st4" d="M134.4-1296.1c-2.1,1.8-4.2,3.6-6.1,5.6"/>
		<path class="st4" d="M134.3-1290.4c-2.2,2-4.1,3.7-6.3,5.7"/>
		<path class="st4" d="M134.2-1283.6c-2.1,1.8-4.1,3.6-6.2,5.3"/>
		<path class="st4" d="M134.3-1277.7c-2,1.8-3.8,3.8-5.6,5.8"/>
		<path class="st4" d="M136.5-1273.1c-1,1.1-2.1,2.2-3.1,3.3c-0.2,0.3-0.5,0.5-0.6,0.9"/>
		<path class="st4" d="M141.4-1272.8c-0.8,1.3-2,2.9-3,4.2"/>
		<path class="st4" d="M162.4-1323.1c-1.6,1-3.4,2.2-5,3.3"/>
		<path class="st4" d="M160-1317.3c0,0.1,0.1-0.1,0.1-0.1c-0.1,0-0.2,0-0.2,0.1c-1.6,1.2-3.3,2.4-4.9,3.7c-0.4,0.3-0.7,0.5-1,0.9"/>
		<path class="st4" d="M158.1-1310.6c-2,1.6-3.9,3.2-5.9,4.8"/>
		<path class="st4" d="M157.5-1304.5c-2.1,1.9-4,3.6-6.1,5.5"/>
		<path class="st4" d="M157.9-1297.7c-2.2,2-4,3.8-6,5.8"/>
		<path class="st4" d="M158.9-1290.7c-1.8,1.7-3.6,3.4-5.4,5"/>
		<path class="st4" d="M161.4-1285.8c-1.9,1.9-3.3,3.4-5.2,5.3"/>
		<path class="st4" d="M165.8-1280.2c-1.7,1.6-3.4,3.3-5.1,4.9"/>
		<path class="st4" d="M170.9-1276.2c-1.7,1.7-3.4,3.4-5.1,5.1c-0.1,0.1-0.4,0-0.3-0.2c0.1-0.2,0.4-0.1,0.3,0.1"/>
		<path class="st4" d="M176-1273.7c-1.6,1.5-3.4,3.5-5,5"/>
		<path class="st4" d="M182.4-1272.6c-1.2,1.3-3.2,3.5-4.2,5"/>
		<path class="st4" d="M188-1273.1c-1.1,1.1-2.1,2.4-2.9,3.8"/>
		<path class="st4" d="M184.7-1322.7c-0.4,0-0.7,0.3-1,0.6c-0.8,0.8-1.6,1.6-2.4,2.4"/>
		<path class="st4" d="M189.5-1320.8c-1.6,1.6-3.1,3.2-4.5,4.8"/>
		<path class="st4" d="M192-1317.5c-2.4,2.1-4.6,4.4-6.7,6.8"/>
		<path class="st4" d="M193.5-1312c-1.2,1.5-2.4,2.9-3.8,4.2c-1.4,1.3-3.1,2.4-4.1,4c0-0.2,0.1-0.3,0.1-0.5"/>
		<path class="st4" d="M194.2-1305c-3.4,3.6-6.6,7.3-9.7,11.1"/>
		<path class="st4" d="M193.8-1298c-2.9,3.4-6,6.6-9.3,9.6"/>
		<path class="st4" d="M191.9-1290.4c-2.4,2-4.8,4.1-6.8,6.4"/>
		<path class="st4" d="M251.8-1328.1c-2.3,1.5-4.7,3.1-7,4.6"/>
		<path class="st4" d="M249-1320.2c-1.9,1.1-3.8,2.2-5.7,3.5c-0.2,0.2-0.5,0.3-0.6,0.5c0.1-0.1,0.1-0.2,0.2-0.2"/>
		<path class="st4" d="M247.4-1314.3c-2.2,1.3-4.6,2.4-7,3.3c0,0.1,0.2,0.1,0.2,0"/>
		<path class="st4" d="M245.4-1308.2c-2.2,1.3-4.4,2.6-6.6,3.9c0.1,0,0.3-0.1,0.4-0.1"/>
		<path class="st4" d="M242.8-1300.5c-2.4,1-4.6,2.2-6.8,3.5c0.1,0,0.2,0,0.2-0.1"/>
		<path class="st4" d="M240.9-1294.9c-2.3,2-5.3,3.1-7.5,5.2"/>
		<path class="st4" d="M238.7-1288.7c-1.8,1.1-3.6,2.2-5.5,3.1c-0.6,0.3-1.2,0.6-1.7,1.1c0.1,0,0.1-0.1,0.2-0.1"/>
		<path class="st4" d="M236.8-1282.1c-2.2,1.3-4.3,2.6-6.5,4"/>
		<path class="st4" d="M228.2-1271.6c1.9-1.5,4.1-2.8,6.3-3.7"/>
		<path class="st4" d="M233.6-1269.8c-0.1,0,0-0.2,0-0.2c1.3-1,2.5-2,3.9-2.9"/>
		<path class="st4" d="M239.6-1269c0.7-1.2,1.8-2.1,2.9-2.9c0.3-0.3,0.7-0.5,1-0.8"/>
		<path class="st4" d="M257.1-1308.6c1.1-1.6,2.6-3,4.2-4.2"/>
		<path class="st4" d="M258.7-1305.3c1.3-1.3,2.6-2.5,4.1-3.5"/>
		<path class="st4" d="M260.4-1299.9c-0.2-0.1,0-0.4,0.1-0.5c1-1.3,2.2-2.4,3.5-3.3"/>
		<path class="st4" d="M262.2-1296.5c1.2-1,2.5-1.9,3.8-2.7"/>
		<path class="st4" d="M250-1281.2c1.3-1.4,2.7-2.7,4.1-4"/>
		<path class="st4" d="M255.5-1280.4c0-0.4,0.3-0.7,0.6-1c1.2-1.3,2.5-2.6,3.7-3.9c0.2-0.3,0.5-0.5,0.7-0.7c0,0,0.1-0.1,0.1-0.1
			c0,0,0.1,0.1,0,0.1"/>
		<path class="st4" d="M261.2-1280.4c1.6-1.9,3.3-3.8,5.1-5.6"/>
		<path class="st4" d="M266.1-1279.6c0-0.3,0.2-0.6,0.4-0.8c1.2-1.2,2.5-2.5,3.8-3.7"/>
		<path class="st4" d="M267.4-1274.5c1.3-1.4,2.7-2.7,4.1-4"/>
		<path class="st4" d="M269.8-1270c0.9-1.4,2.1-2.7,3.5-3.7"/>
		<path class="st4" d="M274.9-1268.8c0.1-0.3,0.3-0.5,0.4-0.7c0.8-0.9,1.6-1.8,2.4-2.7c0.2-0.3,0.5-0.6,0.8-0.8"/>
		<path class="st4" d="M280-1268.9c-0.1,0-0.1-0.2,0-0.3c0.8-1.4,1.7-2.7,2.6-4"/>
		<path class="st4" d="M283.2-1268.8c-0.1,0-0.1-0.2,0-0.3c0.8-1.4,1.6-2.8,2.4-4.2"/>
		<path class="st4" d="M289.5-1322.3c1.4-2,3.1-3.8,4.9-5.4"/>
		<path class="st4" d="M289.5-1316.3c1.5-2,3.1-3.9,4.8-5.7"/>
		<path class="st4" d="M289.3-1311c0.6-0.6,1.2-1.3,1.8-1.9c1.1-1.1,2.1-2.3,3.3-3.3c0,0,0.1-0.1,0.2,0c0.1,0,0,0.1,0,0.1"/>
		<path class="st4" d="M289.7-1303.9c1.5-2.1,3.2-4.1,5-5.9"/>
		<path class="st4" d="M290.1-1298.5c1.3-1.9,3-3.6,4.8-4.9"/>
		<path class="st4" d="M290.1-1290.7c0.7-1.3,1.7-2.4,2.7-3.5c0.6-0.7,1.3-1.4,1.9-2c0,0,0.1-0.1,0.2-0.1c0.1,0,0,0.1,0,0.1"/>
		<path class="st4" d="M290.3-1284.6c1.5-1.8,3.1-3.5,4.8-5.2"/>
		<path class="st4" d="M291.1-1277.5c1.1-1.7,2.5-3.2,4-4.5"/>
		<path class="st4" d="M290.7-1270.5c1.2-1.5,2.6-3,4-4.3"/>
		<path class="st4" d="M295-1268.9c1.2-1.3,2.3-2.6,3.5-3.9"/>
		<path class="st4" d="M301.3-1268.7c0.8-1.5,1.8-2.9,3-4.1c-0.1,0.1-0.2,0.1-0.2,0.2"/>
		<path class="st4" d="M307.2-1305.7c0.7-1.4,1.6-2.7,2.6-3.9"/>
		<path class="st4" d="M307.5-1298.6c1.1-2,2.3-4,3.6-5.8"/>
		<path class="st4" d="M309.2-1293.2c1.2-1.7,2.3-3.3,3.6-4.9c0.1-0.1,0.3-0.2,0.3,0"/>
		<path class="st4" d="M310.8-1287.4c1.3-1.8,2.6-3.6,4-5.3"/>
		<path class="st4" d="M312.4-1280.5c1.2-1.9,2.6-3.8,4.1-5.4"/>
		<path class="st4" d="M314.1-1274.3c0.4-0.4,0.7-0.9,1.1-1.3c1.1-1.6,2.4-3.1,3.9-4.4c-0.1,0.1-0.3,0.1-0.4,0.2"/>
		<path class="st4" d="M316.8-1268.5c1.3-1.7,2.7-3.4,4.2-4.8c0,0,0.1-0.1,0.1,0c0,0,0,0.1,0,0.1"/>
		<path class="st4" d="M323.7-1267.8c1.4-1.7,2.6-3.5,3.6-5.4"/>
		<path class="st4" d="M329.9-1324c1.8-1.5,3.8-2.8,5.9-3.7"/>
		<path class="st4" d="M327.8-1317.6c2.2-1.4,4.4-2.8,6.6-4.2"/>
		<path class="st4" d="M326.5-1312.1c2.2-1.7,4.5-3.3,6.8-4.8c0,0,0.1-0.1,0.1-0.1c0-0.1-0.1,0-0.1,0"/>
		<path class="st4" d="M325.5-1306.7c2.2-1.7,4.5-3.4,6.8-5c-0.2,0-0.4,0-0.6,0.1"/>
		<path class="st4" d="M326-1301.9c1.5-1.3,3-2.5,4.7-3.6c-0.1,0-0.3,0-0.4-0.1"/>
		<path class="st4" d="M342.7-1311.3c0.9-0.6,1.9-1.3,2.8-1.9c0.1-0.1,0.4-0.2,0.5,0"/>
		<path class="st4" d="M340.6-1303.9c1.4-1.7,3.2-3.1,5.1-4.1"/>
		<path class="st4" d="M340.3-1296.5c1.9-1.6,3.8-3.2,5.8-4.8"/>
		<path class="st4" d="M340.5-1290.5c1.8-2.1,3.7-4,5.7-5.9"/>
		<path class="st4" d="M340.2-1282.9c1.5-2.5,4.2-4,6-6.3c-0.2,0.2-0.4,0.3-0.6,0.5"/>
		<path class="st4" d="M341-1276.2c1.6-1.6,3.2-3.1,5-4.5c-0.1,0.1-0.2,0.2-0.4,0.3"/>
		<path class="st4" d="M341-1269c1.4-1.7,3-3.3,4.6-4.7"/>
		<path class="st4" d="M347-1268.2c1.5-1.8,3.2-3.6,4.8-5.3"/>
		<path class="st4" d="M351.9-1267.8c1.3-1.8,2.9-3.6,4.6-5.1"/>
		<path class="st4" d="M388.6-1320.3c1.9-2.1,4-4.1,6.2-5.8"/>
		<path class="st4" d="M388.2-1313.3c2.1-2.3,4.4-4.5,6.8-6.5c0.2-0.2,0.5,0.1,0.4,0.3c-0.1,0.2-0.5,0-0.5-0.2"/>
		<path class="st4" d="M388.5-1307.2c2-1.9,4.2-3.6,6.4-5.3"/>
		<path class="st4" d="M388.6-1299.7c1.9-2.1,4-4,6.2-5.8"/>
		<path class="st4" d="M388.2-1291.6c2.1-2.4,4.3-4.6,6.6-6.8c0,0,0.1-0.1,0.1-0.2c0-0.1-0.1,0-0.1,0.1"/>
		<path class="st4" d="M388.3-1284c1.8-2,4.2-3.8,6.3-5.4c-0.1,0.1-0.2,0.1-0.3,0.2"/>
		<path class="st4" d="M388.7-1277.7c2.1-2,3.8-3.6,5.9-5.5"/>
		<path class="st4" d="M388.7-1271.3c2-2,4-4.1,6-6"/>
		<path class="st4" d="M392.2-1267.8c1.9-1.7,3.9-4,5.9-5.4"/>
		<path class="st4" d="M398.6-1267.4c2.1-1.7,4-3.6,5.8-5.6"/>
		<path class="st4" d="M415.1-1323.1c1.6-1.1,3.2-2,5-2.7c-0.1,0-0.2,0.1-0.3,0.1"/>
		<path class="st4" d="M412.6-1316.8c0.3-0.5,0.8-1,1.2-1.4c1.4-1.2,2.9-2.3,4.5-3.3"/>
		<path class="st4" d="M412.8-1310.7c1.3-1.4,2.8-2.8,4.2-4.1"/>
		<path class="st4" d="M418.1-1309.1c0-0.3,0.3-0.6,0.5-0.8c1.3-1.2,2.7-2.3,4.1-3.3"/>
		<path class="st4" d="M433.5-1320.1c1.5-1.3,3.1-2.4,4.8-3.3"/>
		<path class="st4" d="M439-1318.3c1.4-0.9,2.7-1.9,4.1-2.8c0,0,0.1-0.1,0.1-0.1c0,0-0.1,0-0.1,0"/>
		<path class="st4" d="M439.1-1312.5c1.6-1.2,3.7-2.4,5.4-3.4c-0.1,0-0.2,0-0.3,0"/>
		<path class="st4" d="M426.5-1296.4c1.6-1.3,3.3-2.4,5.1-3.2c-0.1,0.1-0.2,0.1-0.4,0.2"/>
		<path class="st4" d="M426.5-1291.1c1.4-1.4,3-2.8,4.6-4"/>
		<path class="st4" d="M428.1-1287.6c1.1-1,2.8-2.3,3.9-3.3"/>
		<path class="st4" d="M433.7-1286.9c1.3-1.3,3.2-3.1,4.6-4.3"/>
		<path class="st4" d="M425.8-1277.7c1.7-1.6,3.8-3.4,5.6-4.8"/>
		<path class="st4" d="M426.3-1271.1c1.3-1.6,2.8-3.2,4.2-4.7"/>
		<path class="st4" d="M429.9-1268.7c1.3-1.7,2.7-3.2,4.3-4.7"/>
		<path class="st4" d="M436.2-1268.6c0.9-1.4,2.7-3.5,3.9-4.7"/>
		<g>
			<path class="st5" d="M32.3-1332.9c1,4.2,9.3,40,9.3,40s9.5-40.5,9.8-40.5c6.5,0.2,12.8-0.6,12.9,0c0.7,3.2,10.5,40.6,10.5,40.6
				s7.3-37.5,9.1-40.6c0.5-0.8,11.3-0.3,11.3,0.4c0,1.1-12.3,54.1-14.9,59.4c-0.7,1.4-5.4,0-13.9,0.1c-0.3,0-9.8-39.6-9.8-39.6
				s-8.7,38.5-9.4,39.6c-0.3,0.4-13.4,1-13.8,0.2c-3-7.8-15.1-59.2-15.1-59.4C18.3-1333.3,31-1333.3,32.3-1332.9"/>
			<g>
				<path class="st3" d="M31.8-1332.8c3.2,13.3,6.2,26.7,9.2,40c0.1,0.5,0.9,0.5,1,0c2.8-12.1,5.6-24.2,8.7-36.3c0.3-1,0.5-2,0.8-3
					c0.5-1.7,0.9-0.8,2.8-0.8c2.8,0,5.6-0.3,8.4-0.2c1.5,0,1.1-0.1,1.5,1.4c1.7,7,3.6,14,5.4,21c1.6,6,3.1,12.1,4.7,18.1
					c0.1,0.5,0.9,0.5,1,0c2.2-11.1,4.3-22.2,7-33.2c0.5-2,0.8-4.6,1.7-6.4c0.5-1,0.9-0.9,2.2-1c1.7-0.1,3.5,0,5.3,0.1
					c0.8,0.1,1.6,0.1,2.3,0.2c0.4,0.1,1.2,0.5,0.9-0.1c0,0.1-0.2,0.9-0.2,1.1c-0.4,1.9-0.8,3.7-1.2,5.6c-3.1,13.5-6.3,27-9.8,40.4
					c-0.7,2.7-1.4,5.4-2.2,8c-0.4,1.2-0.7,3.8-1.9,4.4c-1.2,0.5-3.6,0-4.8-0.1c-1.2-0.1-2.4-0.2-3.6-0.2c-0.9,0-1.7-0.1-2.6-0.1
					c0.6,0-1.7,0-1.5,0.2c-0.7-0.6-1-3.6-1.2-4.4c-3-11.7-5.8-23.4-8.6-35.1c-0.1-0.5-0.9-0.5-1,0c-1.7,7.7-3.5,15.4-5.3,23.1
					c-1.1,4.6-2.1,9.2-3.3,13.7c-0.1,0.5-0.5,2.4-0.7,2.6c-0.7,0.6-4.8,0.3-6,0.4c-1.3,0-2.6,0.1-3.9,0.1c-0.6,0-2.5,0.2-3.1-0.2
					c-0.6-0.4-0.9-2.9-1.2-3.7c-1.3-4.5-2.5-9.1-3.7-13.7c-2.8-10.9-5.4-21.9-8-32.9c-0.5-2-0.9-4-1.4-5.9c-0.2-0.8-0.7-2-0.7-2.9
					c0-0.4-0.4,0.4-0.1,0.4c0.5,0,1-0.1,1.5-0.1c1.4-0.1,2.9-0.1,4.3-0.1c2.4,0,5.2-0.3,7.6,0.2c0.6,0.1,0.9-0.8,0.3-1
					c-2.1-0.5-4.5-0.3-6.6-0.3c-2.1,0-5.3-0.5-7.3,0.3c-1.5,0.6-0.1,3.3,0.2,4.5c2.6,11.2,5.3,22.4,8.1,33.5
					c1.4,5.4,2.7,10.9,4.3,16.3c0.5,1.7,0.9,3.3,1.5,5c0.5,1.4,1,1.5,2.5,1.6c2.8,0.2,5.7,0,8.6-0.1c1-0.1,3.2,0.2,3.9-0.7
					c0.5-0.6,0.7-2.1,0.9-2.9c0.6-2.2,1.1-4.4,1.6-6.6c2.4-10,4.7-20.1,7-30.2c-0.3,0-0.6,0-1,0c2.8,11.5,5.5,23,8.4,34.4
					c0.4,1.4,0.5,3.8,1.3,5c0.5,0.7,0.6,0.5,1.5,0.6c3.2,0,6.3,0.3,9.4,0.4c2,0.1,3.5,0.3,4.3-1.7c0.8-2,1.4-4.2,2-6.3
					c4-14.4,7.4-29.1,10.8-43.7c0.5-2.2,1-4.5,1.5-6.7c0.2-0.8,0.7-1.9,0-2.6c-0.5-0.5-2.3-0.5-2.9-0.5c-2-0.2-4-0.3-6-0.2
					c-2.1,0.1-2.8,0.2-3.5,2.1c-2.4,7.2-3.7,15-5.2,22.4c-1.2,5.6-2.3,11.2-3.4,16.8c0.3,0,0.6,0,1,0c-3.4-13-6.8-25.9-10.1-38.9
					c-0.1-0.5-0.2-1.6-0.6-1.9c-1-0.9-4-0.2-5.1-0.2c-1.9,0.1-3.8,0.1-5.7,0.1c-0.7,0-2.2-0.4-2.8,0.2c-0.3,0.3-0.3,0.9-0.4,1.3
					c-1.9,6.8-3.4,13.7-5,20.6c-1.5,6.3-3,12.5-4.4,18.8c0.3,0,0.6,0,1,0c-3.1-13.3-6.1-26.7-9.3-40
					C32.6-1333.7,31.6-1333.4,31.8-1332.8L31.8-1332.8z"/>
			</g>
		</g>
		<g>
			<path class="st5" d="M101.8-1333.4c0,12.2,0.2,46.4,0.2,59.8c0,0.5,7.1,0.7,13.7,0.2c1-0.1-1-15.3,0-24.7c0,0,11.2-0.8,18.7,0.1
				c0.2,4.4-0.8,23.5,0,24.7c0.3,0.4,13.8,0.8,13.7-0.1c-0.4-3.3,0.8-51.3-0.2-59.9c-0.1-0.5-6.5-0.2-12.7,0c-0.6,0-1,0.5-1,1.1
				c0.2,4.4,1,21.8,0.2,22.3c-1.9,1-16.9,0.7-18.6,0.1c-1.3-0.5,0.1-22.8-0.2-23.4C115.3-1334.4,103-1333.3,101.8-1333.4"/>
			<g>
				<path class="st3" d="M101.3-1333.4c0,13.8,0.1,27.5,0.1,41.3c0,3.5,0,6.9,0,10.4c0,1.4,0,2.8,0,4.2c0,1-0.4,3.1,0,3.9
					c0.6,1.4,3.7,0.9,4.9,1c2.4,0,4.7,0,7.1-0.1c0.8,0,2.3,0.3,2.8-0.5c0.9-1.2,0.2-4.3,0.1-5.6c-0.2-3.8-0.4-7.6-0.5-11.4
					c0-2,0-3.9,0.1-5.9c0-0.4,0.1-1.7-0.2-1.4c0.1-0.1,1-0.1,1.2-0.1c3.4-0.2,6.8-0.3,10.2-0.2c1.9,0,3.9,0,5.9,0.3
					c1.2,0.1,0.6-0.3,0.9,0.4c0.2,0.4,0,1.3,0,1.8c0,2.9-0.1,5.8-0.2,8.7c-0.1,3.1-0.1,6.2-0.1,9.3c0,1-0.3,3.6,0.4,4.4
					c0.7,0.8,2.9,0.6,3.8,0.6c2.6,0.1,5.3,0.2,8,0c1-0.1,2.5,0.1,2.8-1c0.2-0.7-0.1-2.1-0.1-2.9c-0.1-10.9,0.2-21.7,0.3-32.6
					c0-5.6,0.1-11.3,0-16.9c0-1.9-0.1-3.9-0.2-5.8c-0.1-1.2,0.1-2.1-1.1-2.5c-1.4-0.4-3.3-0.1-4.7-0.1c-2.4,0.1-5.3-0.3-7.6,0.2
					c-2,0.5-1.4,3-1.3,4.6c0.2,5.8,0.7,11.6,0.3,17.4c0,0.7,0,1.2-0.5,1.6c-0.8,0.5-2.6,0.3-3.5,0.4c-3,0.2-6,0.1-9,0
					c-1.2,0-4.7,0.3-5.3-0.8c-0.3-0.6-0.2-1.9-0.2-2.5c0-1.3,0-2.6,0-3.9c0-5,0.4-10.1,0.4-15.1c0-1,0.1-1.4-0.9-1.8
					c-2-0.7-5-0.1-7.1,0c-2.1,0.1-4.4,0.4-6.5,0.3c-0.6,0-0.6,1,0,1c3.2,0.2,6.4-0.3,9.6-0.4c0.7,0,3.7-0.2,3.8,0c0.3,0.3,0,2,0,2.4
					c-0.2,6.4-1,13.2-0.2,19.6c0.2,1.8,0.9,1.9,2.6,2.1c3.7,0.4,7.5,0.4,11.2,0.3c1.4,0,5.2,0.4,6.1-1c0.4-0.5,0.3-1.7,0.3-2.3
					c0.1-1.8,0-3.7,0-5.5c-0.1-3.9-0.2-7.8-0.4-11.8c0-0.6-0.2-1.5-0.1-2.1c0.4-1.7,2.7-1.4,4.2-1.4c1.4,0,2.8-0.1,4.2-0.1
					c1.2,0,2.9-0.3,4,0.1c0.6,0.2,0.2-0.3,0.3,0.5c0.1,0.4,0.1,0.8,0.1,1.2c0.1,1.3,0.1,2.6,0.1,3.9c0.1,3.3,0.1,6.6,0.1,9.9
					c0,14.1-0.6,28.2-0.3,42.3c0,0.3,0.1,0.7,0,1.1c-0.1,0.7,0.1,0.2-0.1,0.4c-0.9,0.7-3.7,0.3-4.8,0.3c-2,0-4,0-6.1-0.2
					c-1.3-0.1-1.9,0.2-1.9-1c-0.1-7.8,0.4-15.7,0.2-23.5c0-0.3-0.2-0.5-0.5-0.5c-6.2-0.6-12.5-0.5-18.7-0.1c-0.3,0-0.5,0.2-0.5,0.5
					c-0.7,6.9,0,13.9,0.2,20.8c0,0.8,0.3,2.2,0,2.9c-0.3,0.8-0.7,0.6-1.6,0.6c-1.3,0.1-2.7,0.1-4,0.1c-1.8,0-3.7,0-5.5-0.1
					c-1.7-0.1-2,0.1-2-1.5c0-13-0.1-26.1-0.1-39.1c0-6.3,0-12.7,0-19C102.3-1334.1,101.3-1334.1,101.3-1333.4L101.3-1333.4z"/>
			</g>
		</g>
		<g>
			<path class="st5" d="M208.4-1303.5c-0.4-20.1-10.5-30.3-25-30.9c-34.1-1.1-35.7,60.6-0.8,61.8
				C198.8-1272.1,208.8-1286.7,208.4-1303.5z M183.3-1284c-17.4,1.1-13.2-40-0.7-38.9c10.1-0.8,11,12.7,11.1,14
				C194.5-1299.2,193.9-1284.7,183.3-1284z"/>
			<g>
				<path class="st3" d="M208.9-1303.5c-0.2-7.7-1.7-15.8-6.5-22c-3.9-5.1-9.7-8.2-16.1-9.1c-10.5-1.4-20.1,3.4-25.2,12.7
					c-9.5,17-4.1,46.1,18,49.5c7.9,1.2,15.8-1.1,21.3-6.9C206.6-1285.8,209-1294.8,208.9-1303.5c0-0.6-1-0.6-1,0
					c0.2,15.1-8.9,31.2-25.8,30.4c-10.3-0.5-18.3-7.2-22-16.6c-6.5-16.7-0.1-43.2,21.1-44.1c6.9-0.3,13.8,1.9,18.7,6.9
					c6,6.2,7.7,15.1,8,23.4C207.9-1302.9,208.9-1302.9,208.9-1303.5z"/>
				<path class="st3" d="M183.3-1284.5c-13.5,0.6-12-20.9-9.2-29.1c1.8-5.2,5-9.9,11.2-8.7c6.1,1.2,7.7,8.6,8.1,13.9
					C193.9-1300.4,194.1-1285.5,183.3-1284.5c-0.6,0.1-0.6,1.1,0,1c9.9-0.9,11.2-12.6,11.2-20.5c-0.1-5.9-0.5-13.8-5.7-17.7
					c-2.4-1.8-6.2-2.3-9-1.2c-2.4,1-4,3.2-5.2,5.4c-3.2,6.1-4.1,13.9-3.1,20.7c0.9,6.5,4.2,13.7,11.8,13.4
					C183.9-1283.5,183.9-1284.5,183.3-1284.5z"/>
			</g>
		</g>
		<g>
			<path class="st5" d="M269.6-1333.4c-0.4-0.3-13.2-0.5-16.4,0.4c-4.3,14.3-19.5,59.1-19,59.5c0.8,0.6,12.1,0.6,12.4,0
				c1.4-4.1,3.8-12.2,3.8-12.2s18.4-0.6,19.3,0c0.6,0.4,2.7,11.4,3.8,12.3c0.8,0.7,14.9,0.3,15,0
				C288.8-1274.3,270.7-1332.5,269.6-1333.4z M253.7-1296.8c-0.3-0.4,4.9-19,6.4-21.1c0.9,2.7,6.4,21.1,6.3,21.1
				C265.1-1296.4,253.9-1296.5,253.7-1296.8z"/>
			<g>
				<path class="st3" d="M269.8-1333.8c-1.1-0.5-2.6-0.3-3.7-0.3c-2.5-0.1-5.1,0-7.6,0.1c-1.3,0.1-4.5-0.3-5.6,0.6
					c-0.8,0.7-1.1,3.1-1.4,4.1c-3.1,9.9-6.4,19.7-9.6,29.5c-2.6,8-5.4,16.1-7.8,24.2c-0.4,1.4-1.1,2.5,0.8,2.8
					c2,0.3,4.1,0.3,6.1,0.2c1.4,0,4,0.3,5.3-0.3c1.3-0.7,1.5-3.2,1.9-4.5c0.7-2.3,2.1-5.1,2.3-7.6c0-0.2,0.1-0.5,0.2-0.6
					c0,0.1-0.7,0.4-0.3,0.3c0.5-0.1,1,0,1.6,0c2-0.1,4.1-0.1,6.1-0.2c2.3,0,4.6-0.1,6.8-0.1c0.9,0,3.6-0.4,4.4,0.2
					c0.3,0.3,0.5,1.7,0.6,2.1c0.3,1.2,0.6,2.4,0.9,3.6c0.5,1.9,0.8,4,1.7,5.7c1.2,2.2,6,1.3,8.1,1.3c2.1,0,4.3,0,6.4-0.2
					c0.6,0,1.5,0.1,1.8-0.5c0.4-0.9-0.8-3.5-1-4.3c-0.9-3.3-1.9-6.6-2.9-9.8c-2.7-8.9-5.4-17.7-8.3-26.6c-2-6.2-3.7-12.6-6.3-18.7
					c-0.2-0.4-0.3-0.8-0.6-1.1c-0.5-0.5-1.2,0.2-0.7,0.7c0.8,0.8,1.4,3.6,1.8,4.9c1.3,3.7,2.5,7.5,3.7,11.3c3,9.3,5.9,18.7,8.8,28
					c1.1,3.6,2.2,7.2,3.2,10.8c0.3,1.1,0.6,2.3,0.9,3.4c0.1,0.3,0.1,0.6,0.2,0.9c0.1,0.4,0.5-0.1,0-0.1c-4.2-0.3-8.5,0.5-12.8,0.1
					c-2.1-0.2-2.1-1.9-2.6-3.7c-0.7-2.3-1.2-4.7-1.8-7.1c-0.3-1.2-0.4-1.7-1.7-1.9c-2-0.4-4.3-0.2-6.4-0.2c-4.1,0-8.2,0.1-12.3,0.3
					c-0.2,0-0.4,0.2-0.5,0.4c-1.1,3.6-2.1,7.1-3.3,10.6c-0.3,0.8-0.2,1.1-0.9,1.5c-0.5,0.3-1.6,0.1-2.2,0.2c-1.9,0.1-3.8,0.1-5.7,0
					c-0.8,0-1.5,0-2.3-0.1c-0.6-0.1-1.1-0.4-0.9,0.2c-0.1-0.2,0.3-1.1,0.4-1.4c0.6-2.3,1.4-4.5,2.1-6.7c4.8-15.1,9.9-30.2,14.7-45.3
					c0.5-1.5,0.8-3.5,1.5-4.9c0.5-0.9,0.3-0.7,1.5-0.9c0.9-0.1,1.9-0.2,2.9-0.2c2.4-0.1,4.8-0.2,7.2-0.1c1.2,0,3.3-0.3,4.4,0.2
					C269.9-1332.7,270.4-1333.6,269.8-1333.8z"/>
				<path class="st3" d="M254.2-1296.9c-0.2-0.7,0.6-2.7,0.8-3.5c0.6-2.1,1.2-4.3,1.8-6.4c1-3.5,1.8-7.8,3.7-10.9
					c-0.3,0-0.6-0.1-0.9-0.1c2,6,3.7,12.1,5.5,18.2c0.3,0.9,0.4,1.8,0.7,2.7c0.2,0.5-0.3-0.2,0.3-0.3c-0.2,0-0.5,0.1-0.7,0.1
					c-0.6-0.1-1.5,0.1-2.2,0.1c-1.9,0-3.7,0-5.6,0c-0.9,0-2.8,0.3-3.6-0.2c-0.6-0.3-1.1,0.6-0.5,0.9c1.5,0.8,4.3,0.3,5.9,0.3
					c2.3,0,4.9,0.3,7.1-0.3c0.2-0.1,0.3-0.3,0.4-0.5c0.1-0.8-0.5-2.1-0.8-2.9c-0.6-2.2-1.3-4.4-1.9-6.6c-1.2-3.9-2.3-7.9-3.6-11.8
					c-0.1-0.4-0.7-0.5-0.9-0.1c-2.1,3.3-2.9,7.9-4,11.6c-0.7,2.3-1.3,4.6-1.9,6.9c-0.2,0.8-0.8,2.2-0.6,3.1
					C253.4-1296,254.4-1296.3,254.2-1296.9z"/>
			</g>
		</g>
		<g>
			<path class="st5" d="M294.9-1333.4c-0.4,12,0.3,48,0.2,60c0,0.5,3.7,1,11.7-0.1c1.1-0.1-0.1-49-0.1-49s12.8,47.4,14.9,48.9
				c0.8,0.6,9.5,0.5,9.6,0.1c2.4-10.6,14.9-49.7,14.9-49.7s-0.4,43.3,0.1,49.5c0.1,0.8,10.8,0.5,14.1-0.1c0.7-0.1,0.5-53,0-59.7
				c0,0-8.1-0.8-21.9,0c-1.2,0.1-10.5,38.2-10.5,38.2s-10.6-38-11-38.2C316.3-1333.6,298.5-1333.8,294.9-1333.4"/>
			<g>
				<path class="st3" d="M294.4-1333.4c-0.3,10.7-0.1,21.4,0,32c0,5.9,0.1,11.9,0.1,17.8c0,2.3,0,4.6,0,6.9c0,1-0.5,3,0.3,3.8
					c0.7,0.7,2.9,0.5,3.8,0.5c1.5,0,3.1-0.1,4.6-0.2c1-0.1,3.2,0.1,3.8-0.5c0.9-0.8,0.5-3.4,0.6-4.5c0.2-8.4,0-16.8-0.1-25.1
					c-0.1-6.6-0.2-13.1-0.4-19.7c-0.3,0-0.7,0.1-1,0.1c4,14.7,7.8,29.5,12.8,43.9c0.5,1.4,1,4.3,2.3,5.2c1.2,0.9,3.8,0.5,5.1,0.5
					c1.1,0,4,0.4,5-0.3c0.8-0.6,0.9-2.9,1.1-3.8c0.6-2.1,1.2-4.2,1.8-6.4c1.5-5.3,3.1-10.5,4.7-15.8c2.5-8.1,5-16.1,7.6-24.1
					c-0.3,0-0.7-0.1-1-0.1c-0.1,7.5-0.1,14.9-0.2,22.4c0,5.7,0,11.3,0,17c0,2.1,0,4.2,0.1,6.3c0,1-0.3,3,0.2,3.9
					c0.5,1,2.2,0.8,3.2,0.9c3,0.1,6,0,8.9-0.3c1-0.1,2.5,0.1,3-0.8c0.3-0.6,0.2-1.8,0.2-2.4c0.4-9.4,0.3-18.8,0.2-28.1
					c0-9.7,0.3-19.5-0.5-29.1c0-0.3-0.2-0.5-0.5-0.5c-4.3-0.4-8.7-0.4-13-0.3c-2.3,0-4.6,0.1-6.9,0.2c-0.7,0-1.8-0.2-2.4,0.3
					c-0.6,0.5-0.8,1.8-1,2.4c-3,8.9-5.1,18.1-7.3,27.2c-0.7,2.9-1.5,5.8-2.2,8.7c0.3,0,0.6,0,1,0c-2.2-7.9-4.4-15.9-6.7-23.8
					c-1.2-4.2-2.4-8.5-3.7-12.7c-0.2-0.5-0.3-1.6-0.8-2c-0.8-0.6-3.2-0.2-4.1-0.3c-6-0.1-12.2-0.4-18.2,0.2c-0.6,0.1-0.6,1.1,0,1
					c5-0.5,10.3-0.3,15.3-0.2c2,0,4.2-0.2,6.2,0.1c0.6,0.1-0.1-0.4,0.2,0.1c0.2,0.4,0.3,1,0.5,1.5c2.8,9.1,5.3,18.3,7.9,27.5
					c0.8,2.9,1.6,5.8,2.4,8.7c0.1,0.5,0.8,0.5,1,0c2.7-11.1,5.4-22.1,8.6-33.1c0.3-1.1,0.6-2.1,1-3.2c0.1-0.3,0.2-0.9,0.4-1.1
					c0.6-0.7-0.3-0.1,1-0.5c1.6-0.4,3.8-0.2,5.4-0.2c1.3,0,2.6-0.1,4-0.1c2.4,0,4.8,0,7.2,0.1c1.1,0,2.5,0.4,3.6,0.2
					c0.2,0,0.4,0,0.6,0.1c-0.8-0.2-0.3-0.4-0.4,0.5c-0.3,2.1,0.2,4.5,0.2,6.5c0.3,14.6,0.4,29.3,0.1,43.9c0,2.2-0.1,4.4-0.2,6.6
					c0,0.3,0.1,1.2-0.1,1.4c0.1-0.1-1.1,0-1.5,0.1c-1,0.1-2.1,0.2-3.2,0.2c-2,0.1-4,0.2-6,0.1c-1.5-0.1-2.4,0.2-2.5-0.8
					c-0.3-2.4-0.1-4.9-0.2-7.3c-0.1-13.8,0-27.6,0.1-41.4c0-0.6-0.8-0.7-1-0.1c-4.9,15.4-10,30.8-14.1,46.5
					c-0.2,0.8-0.4,1.5-0.6,2.3c-0.2,0.9,0,0.7-1.1,0.8c-2.2,0.2-4.5,0.2-6.7,0c-1.2-0.1-1.3-0.2-1.8-1.3c-0.5-1.1-0.9-2.3-1.3-3.5
					c-2.8-8.2-5.2-16.6-7.5-25c-1.8-6.3-3.6-12.7-5.3-19c-0.1-0.5-1-0.4-1,0.1c0.3,13.1,0.6,26.3,0.5,39.4c0,2.7,0,5.4-0.2,8
					c-0.1,1.8-0.5,1.2-2.5,1.4c-2.4,0.2-5.1,0.6-7.5,0.2c-0.9-0.1-0.8,0-1-0.7c-0.2-0.8,0-2,0-2.8c0-2.1,0-4.3,0-6.4
					c0-5.5-0.1-11-0.1-16.4c-0.1-11.2-0.3-22.5,0-33.7C295.5-1334,294.5-1334,294.4-1333.4L294.4-1333.4z"/>
			</g>
		</g>
		<g>
			<path class="st5" d="M395-1332.9c0,15.2-0.9,59.2,0.1,59.3c1.2,0.2,13.6,1,13.9-0.1c0.5-1.9,0.4-59.4-0.1-59.5
				C408.5-1333.3,398.7-1333.8,395-1332.9"/>
			<g>
				<path class="st3" d="M394.5-1332.9c0,13.8-0.3,27.5-0.3,41.3c0,5.3-0.1,10.5,0.2,15.8c0,0.6-0.1,2.1,0.4,2.6
					c0.9,0.9,4.3,0.5,5.4,0.5c2.6,0.1,5.8,0.6,8.3-0.1c1-0.3,1-0.7,1.1-1.6c0.3-3.6,0.2-7.3,0.2-10.9c0.1-12.2,0.1-24.4,0-36.6
					c0-2.4-0.1-4.8-0.1-7.3c0-1.1,0.2-2.8-0.1-3.8c-0.4-1.2-1.8-0.9-3-0.9c-3.8-0.2-7.8-0.4-11.6,0.5c-0.6,0.1-0.4,1.1,0.3,1
					c3.2-0.7,6.7-0.6,10-0.5c1,0,2.4-0.1,3.4,0.2c-0.1,0,0-0.5,0,0.2c-0.2,3.1,0.2,6.4,0.2,9.5c0.1,11.1,0.1,22.1,0.1,33.2
					c0,4.2,0,8.5-0.1,12.7c0,0.6,0.3,2.6-0.1,3.1c-0.6,0.9-4.4,0.4-5.6,0.4c-1.3,0-2.7-0.1-4-0.2c-1-0.1-2.4,0.1-3.4-0.2
					c-0.6-0.2,0.1,0.3,0,0.1c-0.1-0.1-0.1-0.4-0.1-0.5c0-0.6-0.1-1.3-0.1-1.9c-0.2-4.8-0.2-9.7-0.1-14.5c0-14,0.3-28.1,0.3-42.1
					C395.5-1333.5,394.5-1333.5,394.5-1332.9L394.5-1332.9z"/>
			</g>
		</g>
		<g>
			<path class="st5" d="M423.1-1329.2c-4.1,3.1-7.5,14.7-7.1,14.9c1.4,0.4,11.3,1.9,12,1.5c0.3-0.2-0.3-8.6,6.5-10.5
				c10.3-2.8,11.4,8.2,7.3,12.9c-1.4,1.5-6.7,3.4-9.4,8.1c-2.3,3.9-1.6,9.8-1.1,11.8c0,0,8.8-0.1,10.8,0c0.2,0,0.4-0.2,0.4-0.4
				c0.3-3-1-4,0.7-5.6c6.1-5.7,15.5-10.7,14.7-21.3C456.6-1335,433.1-1339.2,423.1-1329.2"/>
			<g>
				<path class="st3" d="M422.8-1329.6c-2.4,1.9-3.8,5-4.9,7.7c-0.6,1.5-1.2,2.9-1.6,4.4c-0.2,0.7-0.9,2-0.7,2.8
					c0.3,1.4,3.1,1.2,4.2,1.4c1.5,0.2,2.9,0.4,4.4,0.6c1,0.1,2.6,0.6,3.6,0.3c1.3-0.4,0.9-2,1.1-3.2c0.7-4,2.9-7,7.1-7.7
					c4-0.7,7.2,1.4,7.6,5.5c0.3,2.9-0.8,6.1-3.2,7.8c-3.3,2.3-7,4.2-8.8,8.1c-1.6,3.4-1.5,7.6-0.7,11.3c0,0.2,0.3,0.3,0.5,0.4
					c2.3,0.2,4.8,0,7.1,0c2.2,0,4.7,0.9,4.7-1.9c-0.1-2.2-0.5-3.2,1.4-4.9c1.5-1.3,3-2.5,4.5-3.8c2.7-2.3,5.4-4.7,7.3-7.8
					c3.4-5.7,2.8-13.2-1.1-18.4c-3.4-4.5-8.8-7.1-14.3-7.8C434.4-1335.6,427.5-1334.1,422.8-1329.6c-0.5,0.4,0.2,1.2,0.7,0.7
					c8.7-8.4,26.2-6.4,32.1,4.5c4,7.4,1.2,15-4.5,20.4c-2.5,2.4-5.5,4.4-8,6.9c-0.8,0.8-1.3,1.5-1.3,2.6c0,0.7,0.2,1.4,0.2,2.1
					c0,1.2-0.1,1.1-1,1.3c-2.6,0.4-5.7,0-8.4,0c-0.2,0-0.9,0.1-1.1,0c0,0,0.1,0.1,0.1-0.6c0-1.8-0.4-3.6-0.2-5.5
					c0.5-4.9,3.5-8.1,7.5-10.6c2-1.3,3.7-2.3,4.7-4.6c1.7-3.7,1.4-9.1-2.6-11.2c-4.7-2.5-10.7,0.6-12.5,5.3
					c-0.4,1.1-0.6,2.2-0.8,3.4c-0.1,0.4,0,1-0.1,1.4c-0.2,0.5,0.5,0.2-0.3,0.2c-3,0-6.2-0.6-9.2-1.1c-0.4-0.1-1.4-0.1-1.6-0.3
					c0.2,0.1,0,0,0.2-0.6c0.5-1.3,0.8-2.6,1.2-3.9c1.2-3.3,2.8-7.3,5.6-9.6C424-1329.3,423.3-1330,422.8-1329.6L422.8-1329.6z"/>
			</g>
		</g>
		<g>
			<path class="st5" d="M430.8-1286.5c0,5.9-0.6,12.5,0,13.2c0.3,0.3,14,0.1,13.9-0.3c-0.1-0.6,0.4-13.1-0.5-12.9
				C442.6-1286.4,432.6-1287.1,430.8-1286.5"/>
			<g>
				<path class="st3" d="M430.3-1286.5c0,3.8-0.4,7.6-0.3,11.4c0,1.1-0.1,2,1,2.3c1.5,0.5,3.8,0.1,5.4,0.1c2.2,0,4.4-0.1,6.5-0.2
					c0.7,0,1.8,0.1,2.2-0.6c0.5-0.8,0-3.3,0-4.2c0-2.3,0.1-4.6-0.1-6.8c-0.1-0.8,0-2.1-0.9-2.5c-0.5-0.2-1.8,0.1-2.3,0.1
					c-1.4,0-2.8-0.1-4.2-0.1c-2.3-0.1-4.9-0.4-7.2,0.2c-0.6,0.1-0.4,1.1,0.3,1c2.2-0.5,4.7-0.2,6.9-0.1c1.2,0,2.5,0.1,3.7,0.1
					c0.4,0,2.3-0.3,2.6-0.1c-0.2-0.2,0,1.6,0,1.9c0.1,1.1,0.1,2.2,0.1,3.2c0,2.1-0.3,4.4-0.1,6.5c0,0.2,0.1,0.5,0,0.7
					c-0.1,0.4,0.5-0.3,0.1-0.3c-0.9,0.1-1.7,0.2-2.6,0.2c-2.2,0.1-4.4,0.2-6.6,0.2c-0.9,0-2.2,0.2-3.1,0c-1-0.3-0.8,0.2-0.9-1.1
					c-0.2-3.9,0.2-7.8,0.3-11.6C431.3-1287.2,430.3-1287.2,430.3-1286.5L430.3-1286.5z"/>
			</g>
		</g>
	</g>
</g>
<g id="Слой_4" class="st0">
	<g class="st2">
		<path class="st4" d="M43.6-1197.5c3.8,5.8,10.4,20.7,11.3,21.5c1.3,1.1,14.9,0.7,16.6-0.7c1.7-1.6,2.3-3.1,3.9-5.5"/>
		<path class="st4" d="M60.3-1242.1c-1.6,0.7-6.6,1.3-7.1,1.5c-0.6,0.3-5.2,8.6-6.7,12.4"/>
		<path class="st4" d="M24.6-1241.6c-1.4,1.3-3.9,4.7-3.5,5.6c0.6,1,12.8,21.4,12.9,22.2c0.1,1.1-18.9,33.4-18.7,35.8
			c0.1,1.1,15.8,1.5,16.3,1.3c0.7-0.3,3.7-5.2,4.8-7.3"/>
		<path class="st4" d="M76-1242.1c-1.8,2-3.9,2.4-4.4,5.1c-0.2,1,0.4,12.3,0.9,12.8c0.6,0.6,8.7,0.6,12.4,0.5
			c0.3,3.8,0.3,45.1,0.6,45.6c0.6,0.8,9.8,0.9,13.8,0.5c0.8-0.1,4.9-3.2,5.6-4.7"/>
		<path class="st4" d="M119.7-1230.4c-0.8,1.1-1.3,2.4-1.9,3.7s-1.4,2.5-2.6,3.1c-0.7,0.3-1.4,0.5-2.2,0.6c-3.2,0.4-6.5-0.2-9.4,1.1
			c0.1,0.2,0.3,0.2,0.5,0.2"/>
		<path class="st4" d="M218.9-1225.1c2-1.9,5.1-2,7.9-2c1.4,0,3,0.1,3.9,1.2c0.4,0.5,0.6,1.2,0.8,1.8c0.7,2.6,0.9,5.3,0.6,8"/>
		<path class="st4" d="M223.9-1199.7c1.3-0.3,7.6-0.5,8.4,0.6c0.7,1.1-0.3,22,1.7,23.2c1,0.6,14.6,0.5,15,0.3
			c0.4-0.2,3.2-4.3,4.1-7.1"/>
		<path class="st4" d="M206.4-1232.7c-9.4,16.3,1.7,23.9,1.9,25c0.4,2.4-13.9,27.6-12.3,29.4c1.2,1.2,16,2.7,16.3,2.4
			c2.1-1.8,3.7-3.8,5.1-6.2"/>
		<path class="st4" d="M25.2-1239.3c-1.2,1.6-2.1,2.9-3.3,4.6"/>
		<path class="st4" d="M27.5-1236.5c0.1,0.2,0,0.4-0.1,0.5c-1.1,1.6-2.2,3.2-3.3,4.8"/>
		<path class="st4" d="M29.8-1232.2c-1.4,1.6-2.5,3-3.9,4.6"/>
		<path class="st4" d="M31.7-1228.6c-1.3,1.4-2.6,2.7-4,4"/>
		<path class="st4" d="M34.2-1225c-1.3,1.5-2.8,3-4.3,4.3"/>
		<path class="st4" d="M36-1221.6c-1.6,1.4-2.6,2.3-4,3.9"/>
		<path class="st4" d="M38-1218.3c-1.3,1.3-2.7,2.6-4,3.9c-0.1,0.1-0.2,0.1-0.3,0.1"/>
		<path class="st4" d="M32.2-1210.5c2.2-1.2,5.7-2.9,8-3.8"/>
		<path class="st4" d="M30.2-1206.4c2.9-1.1,4.6-1.8,7.5-2.9"/>
		<path class="st4" d="M26.7-1200.3c2.1-1,5.3-2.4,7.5-3.2"/>
		<path class="st4" d="M23.8-1194.9c2-1.1,4.6-1.9,6.8-2.2"/>
		<path class="st4" d="M20.6-1189.6c2.2-0.8,4.8-1.7,7-2.4"/>
		<path class="st4" d="M17.1-1182.7c2.1-1.3,4.2-2.2,6.6-2.8"/>
		<path class="st4" d="M16.2-1177.8c3.1-1.3,6-3,8.7-4.9"/>
		<path class="st4" d="M22.9-1177.1c1.7-1.3,4.3-3.3,5.9-4.7c0,0,0.1,0,0.1,0"/>
		<path class="st4" d="M29.4-1176.8c1.2-1.5,3.6-3.7,5.2-4.8"/>
		<path class="st4" d="M45.1-1195.1c1.1-1.4,3.3-3.3,4.6-4.5"/>
		<path class="st4" d="M47.7-1190.8c1.5-1.7,3.2-3.3,5-4.6c-0.1,0.2-0.3,0.4-0.4,0.6"/>
		<path class="st4" d="M51.1-1183.9c1.2-2,2.7-3.9,4.5-5.5"/>
		<path class="st4" d="M53.3-1179.1c1-2,2.4-3.9,3.9-5.6"/>
		<path class="st4" d="M56.6-1175.6c1.5-2,3.5-4.3,5.2-6.2"/>
		<path class="st4" d="M64.6-1175.7c1.3-2.2,2.9-4.3,4.6-6.1"/>
		<path class="st4" d="M69.3-1176.3c1.1-2.2,2.3-4.4,3.7-6.4"/>
		<path class="st4" d="M48.2-1226.6c1.6-1.4,4.1-3,6-3.9"/>
		<path class="st4" d="M47.5-1230.3c1.1-1.5,3.2-2.3,4.9-3.1c1.9-0.8,3.6-1.8,5.4-3"/>
		<path class="st4" d="M50.6-1236.6c1.8-1.1,4.6-2,6.6-2.8c0.6-0.2,1.7-0.7,2.2-1.1"/>
		<path class="st4" d="M71.6-1234.5c1.1-1.1,2.4-2,3.7-2.8"/>
		<path class="st4" d="M71.9-1229.1c1.2-1.1,2.5-2.1,3.8-3c-0.1,0.1-0.2,0.2-0.3,0.3"/>
		<path class="st4" d="M73-1224c2.3-2.1,5.2-4.4,7.7-6.1"/>
		<path class="st4" d="M80.8-1223.7c2.2-2,5.1-4.3,7.4-6.2"/>
		<path class="st4" d="M84.9-1219.5c1.8-1.9,3.7-3.8,5.7-5.4c-0.1,0-0.2,0.1-0.3,0.1"/>
		<path class="st4" d="M84.9-1212.9c1.9-1.7,3.7-3.3,5.6-5c-0.1,0.1-0.2,0.1-0.3,0.2"/>
		<path class="st4" d="M85-1206.2c1.8-1.8,3.7-3.6,5.6-5.3"/>
		<path class="st4" d="M85.2-1199.3c1.7-2,3.9-4.2,6-5.9c-0.2,0.2-0.4,0.3-0.7,0.5"/>
		<path class="st4" d="M85.2-1193.5c1.7-1.8,3.2-3.1,5.1-4.6"/>
		<path class="st4" d="M85.4-1187.7c1.6-1.7,3-2.9,4.8-4.3"/>
		<path class="st4" d="M85.2-1182.7c1.8-1.6,3.3-2.9,5.1-4.5"/>
		<path class="st4" d="M86.9-1177.7c1.7-1.5,3.3-3,5-4.4"/>
		<path class="st4" d="M93.4-1177.2c1.6-1.9,3.4-3.6,5.5-4.9"/>
		<path class="st4" d="M104.6-1226.9c1.4-1.4,3-2.6,4.8-3.5"/>
		<path class="st4" d="M108.9-1222.7c0.6-0.7,1.9-1.8,2.5-2.5c1.6-1.7,3.6-3.7,5.6-4.9"/>
		<path class="st4" d="M202.7-1217.8c0.8-1.3,1.6-2.5,2.4-3.8"/>
		<path class="st4" d="M205-1212.4c0.9-1.3,1.8-2.5,2.7-3.8c0,0,0.1-0.1,0.1-0.1c0.1,0,0.1,0.1,0,0.1"/>
		<path class="st4" d="M207.7-1208.2c0.8-1.4,1.7-2.5,2.7-3.8"/>
		<path class="st4" d="M206.6-1202.9c2.1-1.2,5.3-2.8,7.6-3.6c-0.1,0.1-0.2,0.2-0.3,0.2"/>
		<path class="st4" d="M203.5-1196.6c1.7-1.1,3.1-2,4.8-3.1c0.7-0.4,2.1-1.2,2.8-1.4"/>
		<path class="st4" d="M200.7-1190.6c1.1-0.5,1.6-1,2.7-1.5c1.4-0.7,2.8-1.4,4.3-1.6"/>
		<path class="st4" d="M197.6-1184.1c2.1-1.3,4.4-2.3,6.8-2.9"/>
		<path class="st4" d="M197.5-1177.9c1.9-1.6,4.3-3.3,6.5-4.5c-0.1,0.1-0.1,0.1-0.2,0.2"/>
		<path class="st4" d="M203.4-1177c0-0.3,0.5-0.7,0.8-0.9c1.8-1.6,3.6-3.2,5.5-4.8"/>
		<path class="st4" d="M209.6-1176.2c0.2-0.4,0.5-0.7,0.8-0.9c1.7-1.5,3.9-3.3,5.6-4.8"/>
		<path class="st4" d="M224.9-1199.9c2.3-1.5,4.9-3.8,6.8-5.8c0.2-0.2,0.5-0.5,0.9-0.5"/>
		<path class="st4" d="M232.1-1199.3c2.1-1.9,4.8-4.4,6.8-6.3"/>
		<path class="st4" d="M232.4-1192.3c2-2.2,4.2-4.2,6.5-6"/>
		<path class="st4" d="M232.7-1186.3c2-2.2,3.9-4,6.3-5.7"/>
		<path class="st4" d="M232.9-1180c2-1.9,4-3.8,6-5.8"/>
		<path class="st4" d="M235.2-1175.5c2.1-2.1,4.7-4.7,6.8-6.7"/>
		<path class="st4" d="M243.1-1175.6c1.8-2.1,3.8-4.9,5.3-7.3c-0.1,0.1-0.2,0.1-0.4,0.2"/>
		<path class="st4" d="M221.7-1226.3c0-0.5,0.4-0.9,0.7-1.2c1.2-1.2,2.5-2.3,3.8-3.4"/>
		<path class="st4" d="M228.6-1227.2c1.4-1.6,3-3,4.8-4.2"/>
		<path class="st4" d="M231.9-1223.8c2.4-2.1,4.9-4.1,7.4-6"/>
		<path class="st4" d="M232.1-1219.1c2.2-1.7,4.4-3.4,6.6-5"/>
		<path class="st4" d="M235-1216c1.3-1.2,2.8-2.3,4.3-3.3c-0.1-0.1-0.2-0.1-0.2-0.1"/>
		<path class="st6" d="M40.2-1242.1c0.5,0.3,2.5,4.1,3.7,6.4c1.8,3.8,3.6,7.6,5.5,11.4c0.2,0.4,0.4,0.8,0.8,0.8
			c0.3,0,0.6-0.3,0.7-0.6c3.1-5.3,9.1-17.7,9.5-17.9c0.4-0.3,12.6-0.2,13,0c0.9,0.4-16.2,27.1-16.4,27.8c-0.3,1.3,18.7,31.6,18.4,32
			c-0.5,0.5-15.1,1-16.1,0.4c-0.9-0.5-9.3-18.3-12.1-21.9c-3.1,5.5-11,20.7-12.1,21.5c-1.3,0.9-13.6,0.7-13-0.2
			c6.5-11,17.5-29.8,17.5-29.9c0.3-0.6,0.5-1.3,0.5-2c0-1.2-12.3-20.8-13.5-23.3c-0.5-1-1.5-2.3-2.1-3.6
			C23.7-1243,38.6-1242.9,40.2-1242.1z"/>
		<g>
			<g>
				<path class="st3" d="M141.4-1226.4c3.9-3.1,7.9-0.3,8.6,4.1c0.5,3.3,0.4,6.8,0.2,10.1c-0.3,6.8-1.4,13.5-1.4,20.2
					c0.3,0,0.7-0.1,1-0.1c-0.1-0.4-0.2-0.5-0.5-0.8c-0.4-0.5-1.2,0.2-0.7,0.7c0.1,0.1,0.1,0.2,0.2,0.4c0.2,0.5,1,0.5,1-0.1
					c0-9.6,2.1-19.1,1.3-28.8c-0.2-2.6-0.7-5.2-2.9-6.9c-2.5-1.9-5.2-1.3-7.5,0.5C140.2-1226.7,140.9-1226,141.4-1226.4
					L141.4-1226.4z"/>
			</g>
		</g>
		<g>
			<g>
				<path class="st3" d="M134.9-1239.5c-2.4,0.9-4.5,2.8-6.5,4.4c-2.5,2.1-4.7,4.4-6.4,7.2c-4.1,6.6-5.8,14.7-5.8,22.5
					c0,13.4,8.8,27,22.6,29.6c8.6,1.6,15.9-2.5,22.1-8.1c0.5-0.4-0.2-1.1-0.7-0.7c-5.6,5-12,9-19.8,8c-6.3-0.8-11.9-4.3-16-9
					c-9.1-10.5-9.1-26.7-3.2-38.9c1.6-3.3,3.7-6.3,6.5-8.7c2.2-2,4.7-4.3,7.5-5.4C135.8-1238.8,135.5-1239.7,134.9-1239.5
					L134.9-1239.5z"/>
			</g>
		</g>
		<path class="st4" d="M127.7-1231.4c-1.6,1-3.4,2.2-5,3.3"/>
		<path class="st4" d="M125.2-1225.6c0,0.1,0.1-0.1,0.1-0.1c-0.1,0-0.2,0-0.2,0.1c-1.6,1.2-3.3,2.4-4.9,3.7c-0.4,0.3-0.7,0.5-1,0.9"
			/>
		<path class="st4" d="M123.3-1218.8c-2,1.6-3.9,3.2-5.9,4.8"/>
		<path class="st4" d="M122.8-1212.7c-2.1,1.9-4,3.6-6.1,5.5"/>
		<path class="st4" d="M123.1-1206c-2.2,2-4,3.8-6,5.8"/>
		<path class="st4" d="M124.2-1198.9c-1.8,1.7-3.6,3.4-5.4,5"/>
		<path class="st4" d="M126.7-1194.1c-1.9,1.9-3.3,3.4-5.2,5.3"/>
		<path class="st4" d="M131.1-1188.4c-1.7,1.6-3.4,3.3-5.1,4.9"/>
		<path class="st4" d="M136.1-1184.5c-1.7,1.7-3.4,3.4-5.1,5.1c-0.1,0.1-0.4,0-0.3-0.2c0.1-0.2,0.4-0.1,0.3,0.1"/>
		<path class="st4" d="M141.2-1182c-1.6,1.5-3.4,3.5-5,5"/>
		<path class="st4" d="M147.7-1180.9c-1.2,1.3-3.2,3.5-4.2,5"/>
		<path class="st4" d="M153.3-1181.4c-1.1,1.1-2.1,2.4-2.9,3.8"/>
		<path class="st4" d="M150-1230.9c-0.4,0-0.7,0.3-1,0.6c-0.8,0.8-1.6,1.6-2.4,2.4"/>
		<path class="st4" d="M154.8-1229.1c-1.6,1.6-3.1,3.2-4.5,4.8"/>
		<path class="st4" d="M157.3-1225.7c-2.4,2.1-4.6,4.4-6.7,6.8"/>
		<path class="st4" d="M158.8-1220.2c-1.2,1.5-2.4,2.9-3.8,4.2c-1.4,1.3-3.1,2.4-4.1,4c0-0.2,0.1-0.3,0.1-0.5"/>
		<path class="st4" d="M159.5-1213.3c-3.4,3.6-6.6,7.3-9.7,11.1"/>
		<path class="st4" d="M159-1206.2c-2.9,3.4-6,6.6-9.3,9.6"/>
		<path class="st4" d="M157.2-1198.7c-2.4,2-4.8,4.1-6.8,6.4"/>
		<g>
			<path class="st5" d="M173.7-1211.8c-0.4-20.1-10.5-30.3-25-30.9c-34.1-1.1-35.7,60.6-0.8,61.8
				C164.1-1180.4,174-1195,173.7-1211.8z M148.6-1192.3c-17.4,1.1-13.2-40-0.7-38.9c10.1-0.8,11,12.7,11.1,14
				C159.8-1207.5,159.1-1192.9,148.6-1192.3z"/>
			<g>
				<path class="st3" d="M174.2-1211.8c-0.2-7.7-1.7-15.8-6.5-22c-3.9-5.1-9.7-8.2-16.1-9.1c-10.5-1.4-20.1,3.4-25.2,12.7
					c-9.5,17-4.1,46.1,18,49.5c7.9,1.2,15.8-1.1,21.3-6.9C171.8-1194,174.3-1203.1,174.2-1211.8c0-0.6-1-0.6-1,0
					c0.2,15.1-8.9,31.2-25.8,30.4c-10.3-0.5-18.3-7.2-22-16.6c-6.5-16.7-0.1-43.2,21.1-44.1c6.9-0.3,13.8,1.9,18.7,6.9
					c6,6.2,7.7,15.1,8,23.4C173.2-1211.1,174.2-1211.1,174.2-1211.8z"/>
				<path class="st3" d="M148.6-1192.8c-13.5,0.6-12-20.9-9.2-29.1c1.8-5.2,5-9.9,11.2-8.7c6.1,1.2,7.7,8.6,8.1,13.9
					C159.1-1208.7,159.3-1193.7,148.6-1192.8c-0.6,0.1-0.6,1.1,0,1c9.9-0.9,11.2-12.6,11.2-20.5c-0.1-5.9-0.5-13.8-5.7-17.7
					c-2.4-1.8-6.2-2.3-9-1.2c-2.4,1-4,3.2-5.2,5.4c-3.2,6.1-4.1,13.9-3.1,20.7c0.9,6.5,4.2,13.7,11.8,13.4
					C149.2-1191.8,149.2-1192.8,148.6-1192.8z"/>
			</g>
		</g>
		<path class="st4" d="M270.6-1240.4c-7.5,2.6-13.4,8.9-13.7,16.8c-0.1,1.2,0,3.6,0.8,4.6c0.6,0.7,9.2,1.4,10.6,1.1
			c0.7-0.1,3-1.9,4-3.9"/>
		<path class="st4" d="M274-1228.2c2.1-0.9,4.9-1.5,7.1-0.7c1.4,0.5,2.4,1.9,2.8,3.3c0.3,0.8,0,1.8-0.1,2.7c-0.4,2.8-1.2,5.5-2.3,8"
			/>
		<path class="st4" d="M278.7-1213.9c-1.6,1.1-3.8,2.6-5.2,4.1c-0.8,0.8-1.5,1.7-2,2.7c-1.1,2.1-0.8,9.3-0.1,10.1
			c0.6,0.6,9.5,1.4,10,1.3c2.1-0.7,4.3-2.4,5-4.2"/>
		<path class="st4" d="M275.3-1195.3c-1.1,1-4.5,3.8-4.8,4.5c-0.3,0.8-0.1,12.3,1,13c0.6,0.4,12.8,0.2,13.8-0.5c0.6-0.5,3.2-3,4-4.5
			"/>
		<path class="st4" d="M291.9-1183.1"/>
		<path class="st4" d="M259.6-1232.1c1.6-1.1,3.2-2,5-2.7c-0.1,0-0.2,0.1-0.3,0.1"/>
		<path class="st4" d="M257-1225.8c0.3-0.5,0.8-1,1.2-1.4c1.4-1.2,2.9-2.3,4.5-3.3"/>
		<path class="st4" d="M257.2-1219.7c1.3-1.4,2.8-2.8,4.2-4.1"/>
		<path class="st4" d="M262.6-1218.1c0-0.3,0.3-0.6,0.5-0.8c1.3-1.2,2.7-2.3,4.1-3.3"/>
		<path class="st4" d="M278-1229.1c1.5-1.3,3.1-2.4,4.8-3.3"/>
		<path class="st4" d="M283.5-1227.3c1.4-0.9,2.7-1.9,4.1-2.8c0,0,0.1-0.1,0.1-0.1c0,0-0.1,0-0.1,0"/>
		<path class="st4" d="M283.6-1221.5c1.6-1.2,3.7-2.4,5.4-3.4c-0.1,0-0.2,0-0.3,0"/>
		<path class="st4" d="M270.9-1205.4c1.6-1.3,3.3-2.4,5.1-3.2c-0.1,0.1-0.2,0.1-0.4,0.2"/>
		<path class="st4" d="M270.9-1200.1c1.4-1.4,3-2.8,4.6-4"/>
		<path class="st4" d="M272.5-1196.6c1.1-1,2.8-2.3,3.9-3.3"/>
		<path class="st4" d="M278.2-1195.9c1.3-1.3,3.2-3.1,4.6-4.3"/>
		<path class="st4" d="M270.3-1186.7c1.7-1.6,3.8-3.4,5.6-4.8"/>
		<path class="st4" d="M270.8-1180.1c1.3-1.6,2.8-3.2,4.2-4.7"/>
		<path class="st4" d="M274.4-1177.7c1.3-1.7,2.7-3.2,4.3-4.7"/>
		<path class="st4" d="M280.7-1177.6c0.9-1.4,2.7-3.5,3.9-4.7"/>
		<g>
			<path class="st5" d="M267.6-1238.2c-4.1,3.1-7.5,14.7-7.1,14.9c1.4,0.4,11.3,1.9,12,1.5c0.3-0.2-0.3-8.6,6.5-10.5
				c10.3-2.8,11.4,8.2,7.3,12.9c-1.4,1.5-6.7,3.4-9.4,8.1c-2.3,3.9-1.6,9.8-1.1,11.8c0,0,8.8-0.1,10.8,0c0.2,0,0.4-0.2,0.4-0.4
				c0.3-3-1-4,0.7-5.6c6.1-5.7,15.5-10.7,14.7-21.3C301.1-1244,277.5-1248.2,267.6-1238.2"/>
			<g>
				<path class="st3" d="M267.2-1238.6c-2.4,1.9-3.8,5-4.9,7.7c-0.6,1.5-1.2,2.9-1.6,4.4c-0.2,0.7-0.9,2-0.7,2.8
					c0.3,1.4,3.1,1.2,4.2,1.4c1.5,0.2,2.9,0.4,4.4,0.6c1,0.1,2.6,0.6,3.6,0.3c1.3-0.4,0.9-2,1.1-3.2c0.7-4,2.9-7,7.1-7.7
					c4-0.7,7.2,1.4,7.6,5.5c0.3,2.9-0.8,6.1-3.2,7.8c-3.3,2.3-7,4.2-8.8,8.1c-1.6,3.4-1.5,7.6-0.7,11.3c0,0.2,0.3,0.3,0.5,0.4
					c2.3,0.2,4.8,0,7.1,0c2.2,0,4.7,0.9,4.7-1.9c-0.1-2.2-0.5-3.2,1.4-4.9c1.5-1.3,3-2.5,4.5-3.8c2.7-2.3,5.4-4.7,7.3-7.8
					c3.4-5.7,2.8-13.2-1.1-18.4c-3.4-4.5-8.8-7.1-14.3-7.8C278.8-1244.7,271.9-1243.2,267.2-1238.6c-0.5,0.4,0.2,1.2,0.7,0.7
					c8.7-8.4,26.2-6.4,32.1,4.5c4,7.4,1.2,15-4.5,20.4c-2.5,2.4-5.5,4.4-8,6.9c-0.8,0.8-1.3,1.5-1.3,2.6c0,0.7,0.2,1.4,0.2,2.1
					c0,1.2-0.1,1.1-1,1.3c-2.6,0.4-5.7,0-8.4,0c-0.2,0-0.9,0.1-1.1,0c0,0,0.1,0.1,0.1-0.6c0-1.8-0.4-3.6-0.2-5.5
					c0.5-4.9,3.5-8.1,7.5-10.6c2-1.3,3.7-2.3,4.7-4.6c1.7-3.7,1.4-9.1-2.6-11.2c-4.7-2.5-10.7,0.6-12.5,5.3
					c-0.4,1.1-0.6,2.2-0.8,3.4c-0.1,0.4,0,1-0.1,1.4c-0.2,0.5,0.5,0.2-0.3,0.2c-3,0-6.2-0.6-9.2-1.1c-0.4-0.1-1.4-0.1-1.6-0.3
					c0.2,0.1,0,0,0.2-0.6c0.5-1.3,0.8-2.6,1.2-3.9c1.2-3.3,2.8-7.3,5.6-9.6C268.4-1238.3,267.7-1239,267.2-1238.6L267.2-1238.6z"/>
			</g>
		</g>
		<g>
			<path class="st5" d="M275.3-1195.6c0,5.9-0.6,12.5,0,13.2c0.3,0.3,14,0.1,13.9-0.3c-0.1-0.6,0.4-13.1-0.5-12.9
				C287.1-1195.4,277.1-1196.1,275.3-1195.6"/>
			<g>
				<path class="st3" d="M274.8-1195.6c0,3.8-0.4,7.6-0.3,11.4c0,1.1-0.1,2,1,2.3c1.5,0.5,3.8,0.1,5.4,0.1c2.2,0,4.4-0.1,6.5-0.2
					c0.7,0,1.8,0.1,2.2-0.6c0.5-0.8,0-3.3,0-4.2c0-2.3,0.1-4.6-0.1-6.8c-0.1-0.8,0-2.1-0.9-2.5c-0.5-0.2-1.8,0.1-2.3,0.1
					c-1.4,0-2.8-0.1-4.2-0.1c-2.3-0.1-4.9-0.4-7.2,0.2c-0.6,0.1-0.4,1.1,0.3,1c2.2-0.5,4.7-0.2,6.9-0.1c1.2,0,2.5,0.1,3.7,0.1
					c0.4,0,2.3-0.3,2.6-0.1c-0.2-0.2,0,1.6,0,1.9c0.1,1.1,0.1,2.2,0.1,3.2c0,2.1-0.3,4.4-0.1,6.5c0,0.2,0.1,0.5,0,0.7
					c-0.1,0.4,0.5-0.3,0.1-0.3c-0.9,0.1-1.7,0.2-2.6,0.2c-2.2,0.1-4.4,0.2-6.6,0.2c-0.9,0-2.2,0.2-3.1,0c-1-0.3-0.8,0.2-0.9-1.1
					c-0.2-3.9,0.2-7.8,0.3-11.6C275.8-1196.2,274.8-1196.2,274.8-1195.6L274.8-1195.6z"/>
			</g>
		</g>
		<path class="st6" d="M75.7-1230.4c0.2,0.2,14.6,0.5,14.7,0.7c0.1,0.1-0.4,38.3,0.1,47.4c3.6,0.5,13.7,0.9,14.3,0
			c0.4-0.6-0.6-47.9-0.3-48.1c0.4-0.2,13.9,0.5,14.8,0.1c0.8-0.3,0.5-11.6-0.1-11.9c-0.3-0.2-42.5-1-43.4,0
			C75.2-1241.3,75.6-1230.5,75.7-1230.4z"/>
		<path class="st6" d="M252.5-1242.2c-0.3-0.2-28.1,0.1-30.4,0.4c-3,0.3-6.2,0.9-8.9,2.3c-5.3,2.7-8.5,8.4-8.5,14.4
			c0,6,3.1,12.5,8.4,15.2c0.9,0.4,2.1,0.4,2,1.3c0,0.3-0.2,0.6-0.3,0.9c-4.4,8-8.3,16.2-11.7,24.6c-0.2,0.5,0.2,0.9,0.7,0.9
			c4.8-0.8,13.4,0.5,13.7,0.4c0.4-0.3,5.2-15.8,8.8-22.7c0.1-0.3,0.3-0.5,0.5-0.7c0.3-0.2,0.6-0.2,1-0.2c3.8-0.2,7.5-0.5,11.3-0.7
			c-0.1,4.9,0,24,0.2,24.2c0.2,0.2,9.9-0.1,13.7-0.1C253.6-1183.7,252.8-1241.9,252.5-1242.2z M239-1216.1c-5-0.1-10.1,0-15-0.6
			c-1-0.1-3.8-1.7-4.5-3.9c-0.4-1.4-0.7-2.3-0.7-3.7c0.1-1.9,0.9-3.7,2.5-5.3c1.8-1.9,15.2-2.2,17-2
			C239.6-1231.4,238.9-1219.8,239-1216.1z"/>
	</g>
</g>
<g id="Слой_8" class="st0">
	<rect x="-5.4" y="-376.6" class="st7" width="1304" height="306"/>
	<text transform="matrix(1 0 0 1 -5.4049 -316.606)" class="st2"><tspan x="0" y="0" class="st8 st9">YES, YOU CAN!</tspan><tspan x="0" y="108" class="st8 st9">ТИ МОЖЕШ ДОПОМОГТИ! </tspan><tspan x="0" y="216" class="st8 st9">ТЫ МОЖЕШЬ ПОМОЧЬ!</tspan></text>
	<rect x="2.7" y="1.4" class="st7" width="1304" height="306"/>
	<text transform="matrix(1 0 0 1 2.6916 61.394)" class="st2"><tspan x="0" y="0" class="st8 st9">CONTACT ME</tspan><tspan x="0" y="108" class="st8 st9">ЗВ’ЯЗАТИСЯ ЗІ МНОЮ </tspan><tspan x="0" y="216" class="st8 st9">СВЯЗАТЬСЯ СО МНОЙ</tspan></text>
</g>
<g id="Слой_15">
	<path class="st6" d="M122.9,61.5c0.4,0.3,7.1,0,10.7,0.2c0.2,0,0.3-0.1,0.3-0.3c0.5-12.7,0.3-26.1-0.4-38.8c0-0.3,0.3-0.4,0.5-0.1
		c3.8,6.4,21.9,38.2,23.3,38.9c1,0.5,11.5,0.4,11.7,0.2c0.2-0.1,0.1-60-0.1-60.2c-0.1-0.1-6.1-0.4-10.6-0.3c-0.2,0-0.4,0.2-0.4,0.5
		c0.1,6.7,1.1,30.9,0.7,36.2c-3.2-3.8-20.4-36-20.7-36.2c-0.4-0.2-13.9-0.1-14.7,0.2C122.3,2,121.9,60.6,122.9,61.5z"/>
	<path class="st4" d="M123.2,1.7c-2.2,2-7.4,7-7.5,7.2c-0.6,1.3-0.2,49,1.8,57.5c0.1,0.3,0.3,0.5,0.6,0.6c3.3,0.7,11,0.4,12-0.2
		c1.4-0.9,3.4-4,3.9-5.5"/>
	<path class="st4" d="M134.1,37.6c0.9,1.3,17.7,27.6,18.7,28.5c0.9,0.9,12.4,1.5,12.6,1.4c0.3-0.2,2.8-4,3.7-5.9"/>
	<path class="st4" d="M158.1,1.2c-1.3,0.8-5.7,4.4-6.3,5.3c-1.2,1.7-0.5,14.8-0.3,19.4"/>
	<path class="st4" d="M115.6,14.5c2.4-2.1,4.7-4.1,7.1-6.2"/>
	<path class="st4" d="M115.4,20.2c2.3-2,4.7-4,7.1-5.8"/>
	<path class="st4" d="M115.4,25.9c2.2-2.1,4.5-4.1,7-5.9"/>
	<path class="st4" d="M115.4,32.7c2.3-1.8,4.5-3.7,6.8-5.5"/>
	<path class="st4" d="M115.5,38.1c2.2-1.9,4.5-3.7,6.8-5.5"/>
	<path class="st4" d="M115.7,44.2c2.2-1.6,4.4-3.2,6.5-5c-0.1,0.1-0.2,0.2-0.3,0.3"/>
	<path class="st4" d="M116,51.1c2-1.6,4.1-3.1,6.3-4.3"/>
	<path class="st4" d="M116.4,57.4c2-1.7,4.1-3.3,6.2-4.9c-0.1,0-0.1,0.1-0.2,0.1"/>
	<path class="st4" d="M116.9,63c1.9-1.7,3.8-3.4,5.8-5.1c-0.1,0.1-0.2,0.2-0.3,0.3"/>
	<path class="st4" d="M120.6,67.6c1.6-1.5,3.1-3.1,4.5-4.8c0.3-0.4,0.7-0.8,1.1-1.1"/>
	<path class="st4" d="M127.3,67.2c1.2-1.8,2.3-3.5,3.5-5.3"/>
	<path class="st4" d="M134,33.3c1.1-1.6,2.1-3.2,3.2-4.8"/>
	<path class="st4" d="M136.1,40.7c0.7-1.5,1.7-2.8,2.8-4.1c0.6-0.8,1.3-1.6,1.9-2.4"/>
	<path class="st4" d="M138.7,44.9c1.6-2,3.3-3.9,5.1-5.7"/>
	<path class="st4" d="M142.1,49.9c1.2-2,2.7-3.8,4.4-5.4"/>
	<path class="st4" d="M144.6,53.8c0.8-0.9,1.6-1.8,2.4-2.6c0.8-0.9,1.6-1.7,2.5-2.4c0.1,0,0.1,0.2,0,0.2"/>
	<path class="st4" d="M147.4,58c1.5-1.4,3.2-2.7,4.8-4"/>
	<path class="st4" d="M150.3,62.5c1.3-1.7,2.7-3.2,4.3-4.5c0.1,0,0.1,0.1,0,0.2"/>
	<path class="st4" d="M153.1,66.1c0.9-1.2,1.9-2.3,2.9-3.4c0.4-0.4,0.8-0.9,1.3-1.1"/>
	<path class="st4" d="M160.6,67.1c1-1.8,2-3.6,3.2-5.3c0,0,0.1-0.1,0.1-0.1c0,0,0.1,0.1,0,0.1"/>
	<path class="st4" d="M151.3,12.4c2-1.9,4.3-3.5,6.6-5"/>
	<path class="st4" d="M151.1,17.9c2.3-1.4,4.7-2.7,7.2-3.8"/>
	<path class="st4" d="M151.4,24.4c2.2-1.4,4.5-2.7,6.8-3.9"/>
	<path class="st4" d="M154,29.9c1.6-1,3.2-2,4.8-3"/>
</g>
<g id="Слой_16">
</g>
<g id="Слой_9">
	<path class="st4" d="M473.7,2.4c-1.7,1.7-5.7,5.9-5.9,6.4c-0.2,0.5-1,57.1-0.8,57.4c0.2,0.4,43.8,0.8,44.4,0.5c2-1,4.3-3.3,5-5.3"
		/>
	<path class="st4" d="M516.1,13c-1,1.5-5.1,5.3-5.9,5.8c-0.8,0.4-16.9-1-23.8-0.3"/>
	<path class="st4" d="M510.2,36.3c-2.1,2.2-6.7,7.1-7,7.2c-0.3,0.1-10.5,0.1-16.3-0.1c0.2,0-0.4,0.9-0.2,0.9"/>
	<path class="st4" d="M473.2,7.4c-1.9,2.2-3.7,4.4-5.5,6.6"/>
	<path class="st4" d="M473,14.2c-2,2-3.8,4.2-5.5,6.5"/>
	<path class="st4" d="M473,21.1c-2,2.3-3.7,4.5-5.7,6.8"/>
	<path class="st4" d="M473.2,27.8c-2,2.2-3.9,4.4-5.9,6.7"/>
	<path class="st4" d="M473.1,34.3c-2.2,2.1-4.2,4.4-6.1,6.9"/>
	<path class="st4" d="M473,41.8c-1.2,1.2-2.4,2.5-3.7,3.7c-0.8,0.8-1.6,1.6-2.2,2.6"/>
	<path class="st4" d="M473.1,47.8c-2.1,1.9-4.1,3.9-6,6"/>
	<path class="st4" d="M472.9,53.4c-0.5,0.4-0.9,0.8-1.4,1.1c-1.5,1.3-3.4,2.8-4.6,4.4"/>
	<path class="st4" d="M473,59.5c-0.2,0.3-0.6,0.6-0.9,0.9c-1.9,1.7-3.3,2.9-5.2,4.5"/>
	<path class="st4" d="M477.8,61.4c-1.6,1.5-3.2,3.2-4.5,4.9"/>
	<path class="st4" d="M486,61.1c-1.8,1.6-3.8,3.6-5.4,5.4"/>
	<path class="st4" d="M491.5,61.4c-1.7,1.5-3.6,3.4-5.1,5.1"/>
	<path class="st4" d="M512.3,61.2c-1.5,1.7-3.1,3.5-4.3,5.5"/>
	<path class="st4" d="M506.4,61.6c-1.7,1.3-2.9,3.5-4.3,5.1"/>
	<path class="st4" d="M500.2,61.6c-1.4,1.5-2.6,3.3-3.5,5.2"/>
	<path class="st4" d="M494.7,61.5c-1.3,1.5-2.6,3.4-3.5,5.2"/>
	<path class="st4" d="M491.8,36.5c-1.3,2.1-2.5,4.3-3.7,6.6"/>
	<path class="st4" d="M491.7,43.3c1.5-2.3,2.9-4.6,4.3-7"/>
	<path class="st4" d="M497.8,43.4c-0.1-0.1,0-0.2,0-0.3c1.4-2.2,2.9-4.4,4.3-6.5"/>
	<path class="st4" d="M506.4,18.9c1.4-2,2.8-4,4.2-6c-0.1,0-0.3,0.1-0.4,0.1"/>
	<path class="st4" d="M502.1,18.4c0.4-0.4,0.9-0.9,1.3-1.4c1.1-1.4,2-3.1,3.4-4.3"/>
	<path class="st4" d="M497.5,18.5c1.5-2,3-4.1,4.6-6.1"/>
	<path class="st4" d="M493.5,18.1c1.1-1.9,2.2-3.8,3.3-5.6"/>
	<path class="st4" d="M488.2,18.1c0.6-1,1.2-2,1.7-3c0.4-0.8,0.9-1.5,1.3-2.3c0.1-0.1,0.1-0.3,0.2-0.4"/>
	<path class="st6" d="M473.2,60.9c-0.1,0.5,43.1,0.7,43.3,0.5c0.2-0.3,0.2-11.5,0-11.8c-0.2-0.2-28,0.3-28.6-0.1
		c-1-0.5-0.5-12.7-0.1-13.2c0.5-0.6,22.1,0.4,22.4,0c0.3-0.3,0.8-10.9,0.1-11.2c-0.8-0.3-21.9,0.3-22.3,0c-0.4-0.3-0.5-12-0.1-12.4
		c0.4-0.4,19,0,28.3,0.2c-0.1-3.2,0.5-11.1,0.2-11.7c0,0-42.2-0.2-42.7,0.9C472.3,4.7,473.3,59.8,473.2,60.9z"/>
</g>
<g id="Слой_24">
</g>
<g id="Слой_7">
</g>
<g id="Слой_6">
</g>
<g id="Слой_13">
</g>
<g id="Слой_14">
</g>
<g id="Слой_11">
</g>
<g id="Слой_12">
</g>
<g id="Слой_10">
</g>
<g id="Слой_5">
	<g>
		<g>
			<path class="st3" d="M80.9,17.1c3.9-3.1,7.9-0.3,8.6,4.1c0.5,3.3,0.4,6.8,0.2,10.1c-0.3,6.8-1.4,13.5-1.4,20.2
				c0.3,0,0.7-0.1,1-0.1c-0.1-0.4-0.2-0.5-0.5-0.8c-0.4-0.5-1.2,0.2-0.7,0.7c0.1,0.1,0.1,0.2,0.2,0.4c0.2,0.5,1,0.5,1-0.1
				c0-9.6,2.1-19.1,1.3-28.8c-0.2-2.6-0.7-5.2-2.9-6.9c-2.5-1.9-5.2-1.3-7.5,0.5C79.6,16.8,80.4,17.5,80.9,17.1L80.9,17.1z"/>
		</g>
	</g>
	<g>
		<g>
			<path class="st3" d="M74.4,4C72,5,69.9,6.8,67.9,8.5c-2.5,2.1-4.7,4.4-6.4,7.2c-4.1,6.6-5.8,14.7-5.8,22.5
				c0,13.4,8.8,27,22.6,29.6c8.6,1.6,15.9-2.5,22.1-8.1c0.5-0.4-0.2-1.1-0.7-0.7c-5.6,5-12,9-19.8,8c-6.3-0.8-11.9-4.3-16-9
				c-9.1-10.5-9.1-26.7-3.2-38.9c1.6-3.3,3.7-6.3,6.5-8.7c2.2-2,4.7-4.3,7.5-5.4C75.3,4.8,75,3.8,74.4,4L74.4,4z"/>
		</g>
	</g>
	<path class="st4" d="M67.2,12.1c-1.6,1-3.4,2.2-5,3.3"/>
	<path class="st4" d="M64.7,17.9c0,0.1,0.1-0.1,0.1-0.1c-0.1,0-0.2,0-0.2,0.1c-1.6,1.2-3.3,2.4-4.9,3.7c-0.4,0.3-0.7,0.5-1,0.9"/>
	<path class="st4" d="M62.8,24.7c-2,1.6-3.9,3.2-5.9,4.8"/>
	<path class="st4" d="M62.3,30.8c-2.1,1.9-4,3.6-6.1,5.5"/>
	<path class="st4" d="M62.6,37.5c-2.2,2-4,3.8-6,5.8"/>
	<path class="st4" d="M63.7,44.6c-1.8,1.7-3.6,3.4-5.4,5"/>
	<path class="st4" d="M66.2,49.5c-1.9,1.9-3.3,3.4-5.2,5.3"/>
	<path class="st4" d="M70.6,55.1c-1.7,1.6-3.4,3.3-5.1,4.9"/>
	<path class="st4" d="M75.6,59c-1.7,1.7-3.4,3.4-5.1,5.1c-0.1,0.1-0.4,0-0.3-0.2c0.1-0.2,0.4-0.1,0.3,0.1"/>
	<path class="st4" d="M80.7,61.5c-1.6,1.5-3.4,3.5-5,5"/>
	<path class="st4" d="M87.1,62.6c-1.2,1.3-3.2,3.5-4.2,5"/>
	<path class="st4" d="M92.8,62.1c-1.1,1.1-2.1,2.4-2.9,3.8"/>
	<path class="st4" d="M89.5,12.6c-0.4,0-0.7,0.3-1,0.6c-0.8,0.8-1.6,1.6-2.4,2.4"/>
	<path class="st4" d="M94.3,14.4c-1.6,1.6-3.1,3.2-4.5,4.8"/>
	<path class="st4" d="M96.8,17.8c-2.4,2.1-4.6,4.4-6.7,6.8"/>
	<path class="st4" d="M98.2,23.3c-1.2,1.5-2.4,2.9-3.8,4.2c-1.4,1.3-3.1,2.4-4.1,4c0-0.2,0.1-0.3,0.1-0.5"/>
	<path class="st4" d="M99,30.3c-3.4,3.6-6.6,7.3-9.7,11.1"/>
	<path class="st4" d="M98.5,37.3c-2.9,3.4-6,6.6-9.3,9.6"/>
	<path class="st4" d="M96.7,44.8c-2.4,2-4.8,4.1-6.8,6.4"/>
	<g>
		<path class="st5" d="M113.2,31.8c-0.4-20.1-10.5-30.3-25-30.9c-34.1-1.1-35.7,60.6-0.8,61.8C103.6,63.2,113.5,48.5,113.2,31.8z
			 M88,51.3c-17.4,1.1-13.2-40-0.7-38.9c10.1-0.8,11,12.7,11.1,14C99.2,36,98.6,50.6,88,51.3z"/>
		<g>
			<path class="st3" d="M113.7,31.8c-0.2-7.7-1.7-15.8-6.5-22c-3.9-5.1-9.7-8.2-16.1-9.1C80.6-0.8,71,4.1,65.9,13.3
				c-9.5,17-4.1,46.1,18,49.5c7.9,1.2,15.8-1.1,21.3-6.9C111.3,49.5,113.8,40.4,113.7,31.8c0-0.6-1-0.6-1,0
				c0.2,15.1-8.9,31.2-25.8,30.4c-10.3-0.5-18.3-7.2-22-16.6C58.4,28.8,64.8,2.4,86,1.4c6.9-0.3,13.8,1.9,18.7,6.9
				c6,6.2,7.7,15.1,8,23.4C112.7,32.4,113.7,32.4,113.7,31.8z"/>
			<path class="st3" d="M88,50.8c-13.5,0.6-12-20.9-9.2-29.1c1.8-5.2,5-9.9,11.2-8.7c6.1,1.2,7.7,8.6,8.1,13.9
				C98.6,34.8,98.8,49.8,88,50.8c-0.6,0.1-0.6,1.1,0,1c9.9-0.9,11.2-12.6,11.2-20.5c-0.1-5.9-0.5-13.8-5.7-17.7
				c-2.4-1.8-6.2-2.3-9-1.2c-2.4,1-4,3.2-5.2,5.4c-3.2,6.1-4.1,13.9-3.1,20.7c0.9,6.5,4.2,13.7,11.8,13.4
				C88.7,51.7,88.7,50.7,88,50.8z"/>
		</g>
	</g>
	<path class="st6" d="M55.5,23.9c0.5,0,0.9-0.5,0.9-1.1c-0.2-2.4-1.3-6.3-2.2-8.6c-1.8-4.6-4.4-8.4-8.8-10.8C44,2.7,41.6,1.7,40,1.3
		c-5.2-1.2-9.9-1.2-15.1,0.1C18.1,3.1,12.7,7.8,9,13.7c-4.9,7.7-5.7,20.6-2.8,29.2s8.2,14.3,16.6,17.6c2.2,0.8,6.2,1.3,8.5,1.6
		c5.8,0.6,11.8-2.2,16.6-5.6c4.8-3.4,7.2-9.2,8.5-14.9c0.1-0.2,0.1-0.5,0-0.7c-0.1-0.3-13.1-1.8-13.4-1.5c-0.8,0.6-0.8,6.3-3.5,8.6
		c-1.7,1.4-4.9,3.7-10.2,3c-1.2-0.1-3.7-1.7-4.5-2.6c-3.8-4.2-4.1-9.3-4.2-15s0.4-11.1,2.6-16.3c0.8-1.8,2.6-4.2,4.4-5.1
		c1.9-0.9,6.7-0.6,8.6,0.2c2.9,1.3,4.7,4.9,4.9,7.9c0.3,4,0.2,4.3,3.9,3.9C45.7,24,53,24,55.5,23.9z"/>
	<path class="st4" d="M9,13.7c-2.6,2.4-5.6,7.9-7,11.2c-2.5,5.7-2.3,21.5,5.8,32.1c2.6,3.4,7.3,5.1,11.4,5.8s16.2-0.2,17.9-1.2"/>
	<path class="st4" d="M25.3,13.7c1.5-1.2,5.1-0.8,6.3,0.7c0.8,1,2.2,5.1,2.4,6.7c0.3,2.1,0.7,6.3,2.4,7.7c1.3,1.1,7.1,1,9.2,0.9
		c2-0.1,3.8-0.2,5.4-1.3c1.7-1.3,3.5-3.2,5.1-4.6"/>
	<path class="st4" d="M43.2,39.3c-0.7,0.3-6.8,2.9-7.3,3.9c-0.2,0.4-1.8,5.4-2,7.4"/>
	<path class="st4" d="M0.9,28c1.5-1.4,3-2.8,4.5-4.1C5.4,23.9,5.3,24,5.3,24"/>
	<path class="st4" d="M0.4,35c1.2-1.5,2.6-2.9,4.1-4.2"/>
	<path class="st4" d="M1.2,41.3C2,40,3.1,38.7,4.2,37.6c0.2-0.2,0.4-0.4,0.6-0.4"/>
	<path class="st4" d="M3,47.1c0.9-1.3,2-2.5,3.2-3.5"/>
	<path class="st4" d="M5.4,52.9c1-1.3,2.1-2.5,3.4-3.6"/>
	<path class="st4" d="M8,57c1.3-1.4,2.5-2.7,3.8-4.1"/>
	<path class="st4" d="M11.3,60.2c1.1-1.3,2.3-2.6,3.5-3.9"/>
	<path class="st4" d="M15.5,61.8c1-1.1,2-2.2,3.1-3.2"/>
	<path class="st4" d="M20.1,63c0.8-0.9,1.6-1.8,2.6-2.6"/>
	<path class="st4" d="M25.4,62.7c0.3-0.6,0.7-1.1,1.2-1.5"/>
	<path class="st4" d="M34.8,47.5c2.2-1.3,4.4-2.5,6.5-3.8c0.1-0.1,0.2-0.1,0.3-0.2c0.1-0.1,0.1-0.2,0-0.3"/>
	<path class="st4" d="M30.7,13.7c0.8-0.8,1.7-1.5,2.6-2.2"/>
	<path class="st4" d="M33.2,18.6c1.7-1.6,3.5-3.2,5.4-4.6"/>
	<path class="st4" d="M34.1,22.6c2.2-1.8,4.4-3.5,6.7-5.2"/>
	<path class="st4" d="M35.6,27.8c2-1.5,4-3,5.8-4.7"/>
	<path class="st4" d="M42.4,29.3c1.8-1.8,3.7-3.6,5.6-5.3"/>
	<path class="st6" d="M322,23.9c0.5,0,0.9-0.5,0.9-1.1c-0.2-2.4-1.3-6.3-2.2-8.6c-1.8-4.6-4.4-8.4-8.8-10.8
		c-1.5-0.8-3.9-1.8-5.5-2.1c-5.2-1.2-9.9-1.2-15.1,0.1c-6.8,1.6-12.2,6.4-15.9,12.3c-4.9,7.7-5.7,20.6-2.8,29.2s8.2,14.3,16.6,17.6
		c2.2,0.8,6.2,1.3,8.5,1.6c5.8,0.6,11.8-2.2,16.6-5.6c4.8-3.4,7.2-9.2,8.5-14.9c0.1-0.2,0.1-0.5,0-0.7c-0.1-0.3-13.1-1.8-13.4-1.5
		c-0.8,0.6-0.8,6.3-3.5,8.6c-1.7,1.4-4.9,3.7-10.2,3c-1.2-0.1-3.7-1.7-4.5-2.6c-3.8-4.2-4.1-9.3-4.2-15c-0.1-5.7,0.4-11.1,2.6-16.3
		c0.8-1.8,2.6-4.2,4.4-5.1c1.9-0.9,6.7-0.6,8.6,0.2c2.9,1.3,4.7,4.9,4.9,7.9c0.3,4,0.2,4.3,3.9,3.9C312.2,24,319.5,24,322,23.9z"/>
	<path class="st4" d="M275.5,13.7c-2.6,2.4-5.6,7.9-7,11.2c-2.5,5.7-2.3,21.5,5.8,32.1c2.6,3.4,7.3,5.1,11.4,5.8s16.2-0.2,17.9-1.2"
		/>
	<path class="st4" d="M291.8,13.7c1.5-1.2,5.1-0.8,6.3,0.7c0.8,1,2.2,5.1,2.4,6.7c0.3,2.1,0.7,6.3,2.4,7.7c1.3,1.1,7.1,1,9.2,0.9
		c2-0.1,3.8-0.2,5.4-1.3c1.7-1.3,3.5-3.2,5.1-4.6"/>
	<path class="st4" d="M309.7,39.3c-0.7,0.3-6.8,2.9-7.3,3.9c-0.2,0.4-1.8,5.4-2,7.4"/>
	<path class="st4" d="M267.4,28c1.5-1.4,3-2.8,4.5-4.1c-0.1,0.1-0.1,0.1-0.2,0.2"/>
	<path class="st4" d="M266.9,35c1.2-1.5,2.6-2.9,4.1-4.2"/>
	<path class="st4" d="M267.7,41.3c0.9-1.3,1.9-2.6,3.1-3.7c0.2-0.2,0.4-0.4,0.6-0.4"/>
	<path class="st4" d="M269.6,47.1c0.9-1.3,2-2.5,3.2-3.5"/>
	<path class="st4" d="M271.9,52.9c1-1.3,2.1-2.5,3.4-3.6"/>
	<path class="st4" d="M274.5,57c1.3-1.4,2.5-2.7,3.8-4.1"/>
	<path class="st4" d="M277.8,60.2c1.1-1.3,2.3-2.6,3.5-3.9"/>
	<path class="st4" d="M282,61.8c1-1.1,2-2.2,3.1-3.2"/>
	<path class="st4" d="M286.7,63c0.8-0.9,1.6-1.8,2.6-2.6"/>
	<path class="st4" d="M291.9,62.7c0.3-0.6,0.7-1.1,1.2-1.5"/>
	<path class="st4" d="M301.3,47.5c2.2-1.3,4.4-2.5,6.5-3.8c0.1-0.1,0.2-0.1,0.3-0.2c0.1-0.1,0.1-0.2,0-0.3"/>
	<path class="st4" d="M297.3,13.7c0.8-0.8,1.7-1.5,2.6-2.2"/>
	<path class="st4" d="M299.8,18.6c1.7-1.6,3.5-3.2,5.4-4.6"/>
	<path class="st4" d="M300.6,22.6c2.2-1.8,4.4-3.5,6.7-5.2"/>
	<path class="st4" d="M302.1,27.8c2-1.5,4-3,5.8-4.7"/>
	<path class="st4" d="M308.9,29.3c1.8-1.8,3.7-3.6,5.6-5.3"/>
	<path class="st4" d="M235,1.9c-2.4,1.3-6,2.7-7.4,5.1c-0.5,0.8-19.2,56.3-18.6,57.3c0.7,1.3,13,3.1,14.4,2.3
		c1.3-0.7,2.5-2.3,4.1-4.9"/>
	<path class="st4" d="M269.4,61.5c-0.5,1.7-1.9,3.2-3.1,4.4c-0.9,0.8-14.6,0.7-15.2,0c-1.2-1.2-3.9-10.2-4.4-10.6
		c-1.2-0.9-4.6-0.6-6.8-0.6c-3.5,0-6.7-0.2-10.1-0.3"/>
	<path class="st4" d="M237.8,25.8c1.3,4.9,3.1,8.2,4.9,13"/>
	<path class="st4" d="M232.8,7.3c-2.3,1.5-4.7,3.1-7,4.6"/>
	<path class="st4" d="M229.9,15.2c-1.9,1.1-3.8,2.2-5.7,3.5c-0.2,0.2-0.5,0.3-0.6,0.5c0.1-0.1,0.1-0.2,0.2-0.2"/>
	<path class="st4" d="M228.4,21.1c-2.2,1.3-4.6,2.4-7,3.3c0,0.1,0.2,0.1,0.2,0"/>
	<path class="st4" d="M226.3,27.1c-2.2,1.3-4.4,2.6-6.6,3.9c0.1,0,0.3-0.1,0.4-0.1"/>
	<path class="st4" d="M223.8,34.9c-2.4,1-4.6,2.2-6.8,3.5c0.1,0,0.2,0,0.2-0.1"/>
	<path class="st4" d="M221.8,40.5c-2.3,2-5.3,3.1-7.5,5.2"/>
	<path class="st4" d="M219.6,46.6c-1.8,1.1-3.6,2.2-5.5,3.1c-0.6,0.3-1.2,0.6-1.7,1.1c0.1,0,0.1-0.1,0.2-0.1"/>
	<path class="st4" d="M217.8,53.3c-2.2,1.3-4.3,2.6-6.5,4"/>
	<path class="st4" d="M209.2,63.8c1.9-1.5,4.1-2.8,6.3-3.7"/>
	<path class="st4" d="M214.5,65.6c-0.1,0,0-0.2,0-0.2c1.3-1,2.5-2,3.9-2.9"/>
	<path class="st4" d="M220.5,66.4c0.7-1.2,1.8-2.1,2.9-2.9c0.3-0.3,0.7-0.5,1-0.8"/>
	<path class="st4" d="M238,26.7c1.1-1.6,2.6-3,4.2-4.2"/>
	<path class="st4" d="M239.6,30.1c1.3-1.3,2.6-2.5,4.1-3.5"/>
	<path class="st4" d="M241.4,35.5c-0.2-0.1,0-0.4,0.1-0.5c1-1.3,2.2-2.4,3.5-3.3"/>
	<path class="st4" d="M243.2,38.9c1.2-1,2.5-1.9,3.8-2.7"/>
	<path class="st4" d="M230.9,54.2c1.3-1.4,2.7-2.7,4.1-4"/>
	<path class="st4" d="M236.4,55c0-0.4,0.3-0.7,0.6-1c1.2-1.3,2.5-2.6,3.7-3.9c0.2-0.3,0.5-0.5,0.7-0.7c0,0,0.1-0.1,0.1-0.1
		s0.1,0.1,0,0.1"/>
	<path class="st4" d="M242.1,54.9c1.6-1.9,3.3-3.8,5.1-5.6"/>
	<path class="st4" d="M247,55.7c0-0.3,0.2-0.6,0.4-0.8c1.2-1.2,2.5-2.5,3.8-3.7"/>
	<path class="st4" d="M248.3,60.9c1.3-1.4,2.7-2.7,4.1-4"/>
	<path class="st4" d="M250.7,65.4c0.9-1.4,2.1-2.7,3.5-3.7"/>
	<path class="st4" d="M255.8,66.6c0.1-0.3,0.3-0.5,0.4-0.7c0.8-0.9,1.6-1.8,2.4-2.7c0.2-0.3,0.5-0.6,0.8-0.8"/>
	<path class="st4" d="M260.9,66.5c-0.1,0-0.1-0.2,0-0.3c0.8-1.4,1.7-2.7,2.6-4"/>
	<g>
		<path class="st5" d="M250.5,2c-0.4-0.3-13.2-0.5-16.4,0.4c-4.3,14.3-19.5,59.1-19,59.5c0.8,0.6,12.1,0.6,12.4,0
			c1.4-4.1,3.8-12.2,3.8-12.2s18.4-0.6,19.3,0c0.6,0.4,2.7,11.4,3.8,12.3c0.8,0.7,14.9,0.3,15,0C269.8,61,251.7,2.9,250.5,2z
			 M234.7,38.6c-0.3-0.4,4.9-19,6.4-21.1c0.9,2.7,6.4,21.1,6.3,21.1C246.1,39,234.9,38.9,234.7,38.6z"/>
		<g>
			<path class="st3" d="M250.8,1.5c-1.1-0.5-2.6-0.3-3.7-0.3c-2.5-0.1-5.1,0-7.6,0.1c-1.3,0.1-4.5-0.3-5.6,0.6
				C233,2.6,232.8,5,232.4,6c-3.1,9.9-6.4,19.7-9.6,29.5c-2.6,8-5.4,16.1-7.8,24.2c-0.4,1.4-1.1,2.5,0.8,2.8c2,0.3,4.1,0.3,6.1,0.2
				c1.4,0,4,0.4,5.3-0.3c1.3-0.7,1.5-3.2,1.9-4.5c0.7-2.3,2.1-5.1,2.3-7.6c0-0.2,0.1-0.5,0.2-0.6c0,0.1-0.7,0.4-0.3,0.3
				c0.5-0.1,1,0,1.6,0c2-0.1,4.1-0.1,6.1-0.2c2.3,0,4.6-0.1,6.8-0.1c0.9,0,3.6-0.4,4.4,0.2c0.3,0.3,0.5,1.7,0.6,2.1
				c0.3,1.2,0.6,2.4,0.9,3.6c0.5,1.9,0.8,4,1.7,5.7c1.2,2.2,6,1.3,8.1,1.3c2.1,0,4.3,0,6.4-0.2c0.6,0,1.5,0.1,1.8-0.5
				c0.4-0.9-0.8-3.5-1-4.3c-0.9-3.3-1.9-6.6-2.9-9.8c-2.7-8.9-5.4-17.7-8.3-26.6c-2-6.2-3.7-12.6-6.3-18.7c-0.2-0.4-0.3-0.8-0.6-1.1
				c-0.5-0.5-1.2,0.2-0.7,0.7c0.8,0.8,1.4,3.6,1.8,4.9c1.3,3.7,2.5,7.5,3.7,11.3c3,9.3,5.9,18.7,8.8,28c1.1,3.6,2.2,7.2,3.2,10.8
				c0.3,1.1,0.6,2.3,0.9,3.4c0.1,0.3,0.1,0.6,0.2,0.9c0.1,0.4,0.5-0.1,0-0.1c-4.2-0.3-8.5,0.5-12.8,0.1c-2.1-0.2-2.1-1.9-2.6-3.7
				c-0.7-2.3-1.2-4.7-1.8-7.1c-0.3-1.2-0.4-1.7-1.7-1.9c-2-0.4-4.3-0.2-6.4-0.2c-4.1,0-8.2,0.1-12.3,0.3c-0.2,0-0.4,0.2-0.5,0.4
				c-1.1,3.6-2.1,7.1-3.3,10.6c-0.3,0.8-0.2,1.1-0.9,1.5c-0.5,0.3-1.6,0.1-2.2,0.2c-1.9,0.1-3.8,0.1-5.7,0c-0.8,0-1.5,0-2.3-0.1
				c-0.6-0.1-1.1-0.4-0.9,0.2c-0.1-0.2,0.3-1.1,0.4-1.4c0.6-2.3,1.4-4.5,2.1-6.7c4.8-15.1,9.9-30.2,14.7-45.3
				c0.5-1.5,0.8-3.5,1.5-4.9c0.5-0.9,0.3-0.7,1.5-0.9c0.9-0.1,1.9-0.2,2.9-0.2c2.4-0.1,4.8-0.2,7.2-0.1c1.2,0,3.3-0.3,4.4,0.2
				C250.9,2.7,251.4,1.8,250.8,1.5z"/>
			<path class="st3" d="M235.1,38.4c-0.2-0.7,0.6-2.7,0.8-3.5c0.6-2.1,1.2-4.3,1.8-6.4c1-3.5,1.8-7.8,3.7-10.9
				c-0.3,0-0.6-0.1-0.9-0.1c2,6,3.7,12.1,5.5,18.2c0.3,0.9,0.4,1.8,0.7,2.7c0.2,0.5-0.3-0.2,0.3-0.3c-0.2,0-0.5,0.1-0.7,0.1
				c-0.6-0.1-1.5,0.1-2.2,0.1c-1.9,0-3.7,0-5.6,0c-0.9,0-2.8,0.3-3.6-0.2c-0.6-0.3-1.1,0.6-0.5,0.9c1.5,0.8,4.3,0.3,5.9,0.3
				c2.3,0,4.9,0.3,7.1-0.3c0.2-0.1,0.3-0.3,0.4-0.5c0.1-0.8-0.5-2.1-0.8-2.9c-0.6-2.2-1.3-4.4-1.9-6.6c-1.2-3.9-2.3-7.9-3.6-11.8
				c-0.1-0.4-0.7-0.5-0.9-0.1c-2.1,3.3-2.9,7.9-4,11.6c-0.7,2.3-1.3,4.6-1.9,6.9c-0.2,0.8-0.8,2.2-0.6,3.1
				C234.4,39.3,235.3,39.1,235.1,38.4z"/>
		</g>
	</g>
	<path class="st4" d="M175.3,1.1c-1.8,2-3.9,2.4-4.4,5.1c-0.2,1,0.4,12.3,0.9,12.8c0.6,0.6,8.7,0.6,12.4,0.5
		c0.3,3.8,0.3,45.1,0.6,45.6c0.6,0.8,9.8,0.9,13.8,0.5c0.8-0.1,4.9-3.2,5.6-4.7"/>
	<path class="st4" d="M219,12.9c-0.8,1.1-1.3,2.4-1.9,3.7c-0.6,1.2-1.4,2.5-2.6,3.1c-0.7,0.3-1.4,0.5-2.2,0.6
		c-3.2,0.4-6.5-0.2-9.4,1.1c0.1,0.2,0.3,0.2,0.5,0.2"/>
	<path class="st4" d="M170.9,8.7c1.1-1.1,2.4-2,3.7-2.8"/>
	<path class="st4" d="M171.3,14.1c1.2-1.1,2.5-2.1,3.8-3c-0.1,0.1-0.2,0.2-0.3,0.3"/>
	<path class="st4" d="M172.3,19.3c2.3-2.1,5.2-4.4,7.7-6.1"/>
	<path class="st4" d="M180.1,19.6c2.2-2,5.1-4.3,7.4-6.2"/>
	<path class="st4" d="M184.3,23.7c1.8-1.9,3.7-3.8,5.7-5.4c-0.1,0-0.2,0.1-0.3,0.1"/>
	<path class="st4" d="M184.2,30.3c1.9-1.7,3.7-3.3,5.6-5c-0.1,0.1-0.2,0.1-0.3,0.2"/>
	<path class="st4" d="M184.4,37c1.8-1.8,3.7-3.6,5.6-5.3"/>
	<path class="st4" d="M184.6,44c1.7-2,3.9-4.2,6-5.9c-0.2,0.2-0.4,0.3-0.7,0.5"/>
	<path class="st4" d="M184.6,49.7c1.7-1.8,3.2-3.1,5.1-4.6"/>
	<path class="st4" d="M184.8,55.6c1.6-1.7,3-2.9,4.8-4.3"/>
	<path class="st4" d="M184.6,60.6c1.8-1.6,3.3-2.9,5.1-4.5"/>
	<path class="st4" d="M186.3,65.6c1.7-1.5,3.3-3,5-4.4"/>
	<path class="st4" d="M192.8,66.1c1.6-1.9,3.4-3.6,5.5-4.9"/>
	<path class="st4" d="M203.9,16.4c1.4-1.4,3-2.6,4.8-3.5"/>
	<path class="st4" d="M208.3,20.6c0.6-0.7,1.9-1.8,2.5-2.5c1.6-1.7,3.6-3.7,5.6-4.9"/>
	<path class="st6" d="M175.1,12.9c0.2,0.2,14.6,0.5,14.7,0.7c0.1,0.1-0.4,38.3,0.1,47.4c3.6,0.5,13.7,0.9,14.3,0
		c0.4-0.6-0.6-47.9-0.3-48.1c0.4-0.2,13.9,0.5,14.8,0.1c0.8-0.3,0.5-11.6-0.1-11.9c-0.3-0.2-42.5-1-43.4,0
		C174.6,2,174.9,12.7,175.1,12.9z"/>
	<path class="st4" d="M324.7,2c-1.8,2-3.9,2.4-4.4,5.1c-0.2,1,0.4,12.3,0.9,12.8c0.6,0.6,8.7,0.6,12.4,0.5
		c0.3,3.8,0.3,45.1,0.6,45.6c0.6,0.8,9.8,0.9,13.8,0.5c0.8-0.1,4.9-3.2,5.6-4.7"/>
	<path class="st4" d="M368.4,13.8c-0.8,1.1-1.3,2.4-1.9,3.7c-0.6,1.2-1.4,2.5-2.6,3.1c-0.7,0.3-1.4,0.5-2.2,0.6
		c-3.2,0.4-6.5-0.2-9.4,1.1c0.1,0.2,0.3,0.2,0.5,0.2"/>
	<path class="st4" d="M320.3,9.6c1.1-1.1,2.4-2,3.7-2.8"/>
	<path class="st4" d="M320.7,15c1.2-1.1,2.5-2.1,3.8-3c-0.1,0.1-0.2,0.2-0.3,0.3"/>
	<path class="st4" d="M321.7,20.2c2.3-2.1,5.2-4.4,7.7-6.1"/>
	<path class="st4" d="M329.5,20.5c2.2-2,5.1-4.3,7.4-6.2"/>
	<path class="st4" d="M333.7,24.6c1.8-1.9,3.7-3.8,5.7-5.4c-0.1,0-0.2,0.1-0.3,0.1"/>
	<path class="st4" d="M333.6,31.2c1.9-1.7,3.7-3.3,5.6-5c-0.1,0.1-0.2,0.1-0.3,0.2"/>
	<path class="st4" d="M333.7,37.9c1.8-1.8,3.7-3.6,5.6-5.3"/>
	<path class="st4" d="M334,44.9c1.7-2,3.9-4.2,6-5.9c-0.2,0.2-0.4,0.3-0.7,0.5"/>
	<path class="st4" d="M334,50.6c1.7-1.8,3.2-3.1,5.1-4.6"/>
	<path class="st4" d="M334.2,56.5c1.6-1.7,3-2.9,4.8-4.3"/>
	<path class="st4" d="M334,61.5c1.8-1.6,3.3-2.9,5.1-4.5"/>
	<path class="st4" d="M335.6,66.4c1.7-1.5,3.3-3,5-4.4"/>
	<path class="st4" d="M342.2,67c1.6-1.9,3.4-3.6,5.5-4.9"/>
	<path class="st4" d="M353.3,17.3c1.4-1.4,3-2.6,4.8-3.5"/>
	<path class="st4" d="M357.7,21.5c0.6-0.7,1.9-1.8,2.5-2.5c1.6-1.7,3.6-3.7,5.6-4.9"/>
	<path class="st6" d="M324.5,13.8c0.2,0.2,14.6,0.5,14.7,0.7c0.1,0.1-0.4,38.3,0.1,47.4c3.6,0.5,13.7,0.9,14.3,0
		c0.4-0.6-0.6-47.9-0.3-48.1c0.4-0.2,13.9,0.5,14.8,0.1c0.8-0.3,0.5-11.6-0.1-11.9c-0.3-0.2-42.5-1-43.4,0
		C324,2.9,324.3,13.6,324.5,13.8z"/>
	<path class="st4" d="M396.2,1c-2.5,2.6-5.5,5.2-5.8,6c-0.3,0.9,1.2,58.2,1.8,58.5c0.3,0.2,12.4,0.3,13.2-0.3
		c0.9-0.6,2.1-2.8,2.6-4.3"/>
	<path class="st4" d="M408.4,34.5c0.6,1.8,8.1,29.6,9.1,31c0.1,0.1,10,1.3,11.4,0.5c1.3-0.8,2.2-2.8,3.5-5"/>
	<path class="st4" d="M441.6,29.1c0.1,10.6,0.1,35,0.8,36c0.8,1.2,15.3,1.2,15.5,0.8c1.5-2.4,2.2-3.1,3.8-5.5"/>
	<path class="st4" d="M439.7,0.9c-1.9,1.1-7.1,5.2-7.7,5.9c-0.4,0.5-4.7,15.1-5.6,23"/>
	<path class="st4" d="M390.7,12.1c1.4-2,3.1-3.8,4.9-5.4"/>
	<path class="st4" d="M390.8,18c1.5-2,3.1-3.9,4.8-5.7"/>
	<path class="st4" d="M390.6,23.3c0.6-0.6,1.2-1.3,1.8-1.9c1.1-1.1,2.1-2.3,3.3-3.3c0,0,0.1-0.1,0.2,0s0,0.1,0,0.1"/>
	<path class="st4" d="M390.9,30.4c1.5-2.1,3.2-4.1,5-5.9"/>
	<path class="st4" d="M391.4,35.8c1.3-1.9,3-3.6,4.8-4.9"/>
	<path class="st4" d="M391.4,43.6c0.7-1.3,1.7-2.4,2.7-3.5c0.6-0.7,1.3-1.4,1.9-2c0,0,0.1-0.1,0.2-0.1c0.1,0,0,0.1,0,0.1"/>
	<path class="st4" d="M391.6,49.7c1.5-1.8,3.1-3.5,4.8-5.2"/>
	<path class="st4" d="M392.4,56.8c1.1-1.7,2.5-3.2,4-4.5"/>
	<path class="st4" d="M392,63.8c1.2-1.5,2.6-3,4-4.3"/>
	<path class="st4" d="M396.3,65.4c1.2-1.3,2.3-2.6,3.5-3.9"/>
	<path class="st4" d="M402.6,65.7c0.8-1.5,1.8-2.9,3-4.1c-0.1,0.1-0.2,0.1-0.2,0.2"/>
	<path class="st4" d="M408.5,28.6c0.7-1.4,1.6-2.7,2.6-3.9"/>
	<path class="st4" d="M408.8,35.8c1.1-2,2.3-4,3.6-5.8"/>
	<path class="st4" d="M410.4,41.2c1.2-1.7,2.3-3.3,3.6-4.9c0.1-0.1,0.3-0.2,0.3,0"/>
	<path class="st4" d="M412.1,46.9c1.3-1.8,2.6-3.6,4-5.3"/>
	<path class="st4" d="M413.7,53.8c1.2-1.9,2.6-3.8,4.1-5.4"/>
	<path class="st4" d="M415.4,60c0.4-0.4,0.7-0.9,1.1-1.3c1.1-1.6,2.4-3.1,3.9-4.4c-0.1,0.1-0.3,0.1-0.4,0.2"/>
	<path class="st4" d="M418,65.8c1.3-1.7,2.7-3.4,4.2-4.8c0,0,0.1-0.1,0.1,0c0,0,0,0.1,0,0.1"/>
	<path class="st4" d="M425,66.5c1.4-1.7,2.6-3.5,3.6-5.4"/>
	<path class="st4" d="M431.1,10.4c1.8-1.5,3.8-2.8,5.9-3.7"/>
	<path class="st4" d="M429.1,16.7c2.2-1.4,4.4-2.8,6.6-4.2"/>
	<path class="st4" d="M427.7,22.2c2.2-1.7,4.5-3.3,6.8-4.8c0,0,0.1-0.1,0.1-0.1c0-0.1-0.1,0-0.1,0"/>
	<path class="st4" d="M426.8,27.6c2.2-1.7,4.5-3.4,6.8-5c-0.2,0-0.4,0-0.6,0.1"/>
	<path class="st4" d="M427.3,32.4c1.5-1.3,3-2.5,4.7-3.6c-0.1,0-0.3,0-0.4-0.1"/>
	<path class="st4" d="M443.9,23.1c0.9-0.6,1.9-1.3,2.8-1.9c0.1-0.1,0.4-0.2,0.5,0"/>
	<path class="st4" d="M441.9,30.5c1.4-1.7,3.2-3.1,5.1-4.1"/>
	<path class="st4" d="M441.6,37.8c1.9-1.6,3.8-3.2,5.8-4.8"/>
	<path class="st4" d="M441.7,43.8c1.8-2.1,3.7-4,5.7-5.9"/>
	<path class="st4" d="M441.5,51.5c1.5-2.5,4.2-4,6-6.3c-0.2,0.2-0.4,0.3-0.6,0.5"/>
	<path class="st4" d="M442.3,58.1c1.6-1.6,3.2-3.1,5-4.5c-0.1,0.1-0.2,0.2-0.4,0.3"/>
	<path class="st4" d="M442.3,65.3c1.4-1.7,3-3.3,4.6-4.7"/>
	<path class="st4" d="M448.2,66.2c1.5-1.8,3.2-3.6,4.8-5.3"/>
	<path class="st4" d="M453.2,66.5c1.3-1.8,2.9-3.6,4.6-5.1"/>
	<g>
		<path class="st5" d="M396.2,1c-0.4,12,0.3,48,0.2,60c0,0.5,3.7,1,11.7-0.1c1.1-0.1-0.1-49-0.1-49s12.8,47.4,14.9,48.9
			c0.8,0.6,9.5,0.5,9.6,0.1c2.4-10.6,14.9-49.7,14.9-49.7s-0.4,43.3,0.1,49.5c0.1,0.8,10.8,0.5,14.1-0.1c0.7-0.1,0.5-53,0-59.7
			c0,0-8.1-0.8-21.9,0c-1.2,0.1-10.5,38.2-10.5,38.2s-10.6-38-11-38.2C417.6,0.7,399.8,0.5,396.2,1"/>
		<g>
			<path class="st3" d="M395.7,1c-0.3,10.7-0.1,21.4,0,32c0,5.9,0.1,11.9,0.1,17.8c0,2.3,0,4.6,0,6.9c0,1-0.5,3,0.3,3.8
				c0.7,0.7,2.9,0.5,3.8,0.5c1.5,0,3.1-0.1,4.6-0.2c1-0.1,3.2,0.1,3.8-0.5c0.9-0.8,0.5-3.4,0.6-4.5c0.2-8.4,0-16.8-0.1-25.1
				c-0.1-6.6-0.2-13.1-0.4-19.7c-0.3,0-0.7,0.1-1,0.1c4,14.7,7.8,29.5,12.8,43.9c0.5,1.4,1,4.3,2.3,5.2c1.2,0.9,3.8,0.5,5.1,0.5
				c1.1,0,4,0.4,5-0.3c0.8-0.6,0.9-2.9,1.1-3.8c0.6-2.1,1.2-4.2,1.8-6.4c1.5-5.3,3.1-10.5,4.7-15.8c2.5-8.1,5-16.1,7.6-24.1
				c-0.3,0-0.7-0.1-1-0.1c-0.1,7.5-0.1,14.9-0.2,22.4c0,5.7,0,11.3,0,17c0,2.1,0,4.2,0.1,6.3c0,1-0.3,3,0.2,3.9
				c0.5,1,2.2,0.8,3.2,0.9c3,0.1,6,0,8.9-0.3c1-0.1,2.5,0.1,3-0.8c0.3-0.6,0.2-1.8,0.2-2.4c0.4-9.4,0.3-18.8,0.2-28.1
				c0-9.7,0.3-19.5-0.5-29.1c0-0.3-0.2-0.5-0.5-0.5c-4.3-0.4-8.7-0.4-13-0.3c-2.3,0-4.6,0.1-6.9,0.2c-0.7,0-1.8-0.2-2.4,0.3
				c-0.6,0.5-0.8,1.8-1,2.4c-3,8.9-5.1,18.1-7.3,27.2c-0.7,2.9-1.5,5.8-2.2,8.7c0.3,0,0.6,0,1,0c-2.2-7.9-4.4-15.9-6.7-23.8
				c-1.2-4.2-2.4-8.5-3.7-12.7c-0.2-0.5-0.3-1.6-0.8-2c-0.8-0.6-3.2-0.2-4.1-0.3c-6-0.1-12.2-0.4-18.2,0.2c-0.6,0.1-0.6,1.1,0,1
				c5-0.5,10.3-0.3,15.3-0.2c2,0,4.2-0.2,6.2,0.1c0.6,0.1-0.1-0.4,0.2,0.1c0.2,0.4,0.3,1,0.5,1.5c2.8,9.1,5.3,18.3,7.9,27.5
				c0.8,2.9,1.6,5.8,2.4,8.7c0.1,0.5,0.8,0.5,1,0c2.7-11.1,5.4-22.1,8.6-33.1c0.3-1.1,0.6-2.1,1-3.2c0.1-0.3,0.2-0.9,0.4-1.1
				c0.6-0.7-0.3-0.1,1-0.5c1.6-0.4,3.8-0.2,5.4-0.2c1.3,0,2.6-0.1,4-0.1c2.4,0,4.8,0,7.2,0.1c1.1,0,2.5,0.4,3.6,0.2
				c0.2,0,0.4,0,0.6,0.1c-0.8-0.2-0.3-0.4-0.4,0.5c-0.3,2.1,0.2,4.5,0.2,6.5c0.3,14.6,0.4,29.3,0.1,43.9c0,2.2-0.1,4.4-0.2,6.6
				c0,0.3,0.1,1.2-0.1,1.4c0.1-0.1-1.1,0-1.5,0.1c-1,0.1-2.1,0.2-3.2,0.2c-2,0.1-4,0.2-6,0.1c-1.5-0.1-2.4,0.2-2.5-0.8
				c-0.3-2.4-0.1-4.9-0.2-7.3c-0.1-13.8,0-27.6,0.1-41.4c0-0.6-0.8-0.7-1-0.1c-4.9,15.4-10,30.8-14.1,46.5c-0.2,0.8-0.4,1.5-0.6,2.3
				c-0.2,0.9,0,0.7-1.1,0.8c-2.2,0.2-4.5,0.2-6.7,0c-1.2-0.1-1.3-0.2-1.8-1.3c-0.5-1.1-0.9-2.3-1.3-3.5c-2.8-8.2-5.2-16.6-7.5-25
				c-1.8-6.3-3.6-12.7-5.3-19c-0.1-0.5-1-0.4-1,0.1c0.3,13.1,0.6,26.3,0.5,39.4c0,2.7,0,5.4-0.2,8c-0.1,1.8-0.5,1.2-2.5,1.4
				c-2.4,0.2-5.1,0.6-7.5,0.2c-0.9-0.1-0.8,0-1-0.7c-0.2-0.8,0-2,0-2.8c0-2.1,0-4.3,0-6.4c0-5.5-0.1-11-0.1-16.4
				c-0.1-11.2-0.3-22.5,0-33.7C396.7,0.3,395.7,0.3,395.7,1L395.7,1z"/>
		</g>
	</g>
</g>
<g id="Слой_21">
</g>
<g id="Слой_20">
</g>
<g id="Слой_19">
</g>
<g id="Слой_22">
</g>
<g id="Слой_25">
</g>
</svg>
