<?xml version="1.0" encoding="utf-8"?>
<!-- Generator: Adobe Illustrator 21.0.2, SVG Export Plug-In . SVG Version: 6.00 Build 0)  -->
<svg version="1.1" xmlns="http://www.w3.org/2000/svg" xmlns:xlink="http://www.w3.org/1999/xlink" x="0px" y="0px"
	 viewBox="0 0 85.8 79.7" style="enable-background:new 0 0 85.8 79.7;" xml:space="preserve">
<style type="text/css">
	.st0{fill:#FFFFFF;stroke:#000000;stroke-miterlimit:10;}
	.st1{fill:none;stroke:#000000;stroke-miterlimit:10;}
</style>
<g id="Слой_1">
</g>
<g id="Слой_2">
	<g>
		<path class="st0" d="M82.8,25.4C81,12.8,64.1,5.3,59.5,3.1c-4.6-2.2-12.7-2.8-18-2.4s-8.1,1.3-19.7,6C10.2,11.4,8.7,17.2,8.7,17.2
			C-6.7,41.1,4.5,62.8,4.5,62.8c12.9,22,32.1,16.8,48.9,12.9c16.7-3.9,25.1-18,29.5-26.9C87.1,39.9,84.7,38,82.8,25.4z M46.2,46.5
			c-1.9,2.6-5.8,2.5-9.8,2c-4.1-0.4-4-3.2-5.3-6.9c-1.3-3.7,3.3-8.2,3.3-8.2s6.7-1.8,11.1-1.7c4.3,0.1,4.1,3,4.7,6.1
			C50.7,40.9,48.1,43.9,46.2,46.5z"/>
		<path class="st1" d="M19.6,28.5c0,0,1.5,0.3,3.6-2.1s1.4-4.3,4.6-5.7c3.3-1.4,4.1,0.3,5.6-0.5s1.3-2.1,4.1-3.1
			c2.9-1,3.9-0.4,6.2,1.3s3.1,2.1,5.6,1.7c2.6-0.5,5,0.7,5.3,3.9c0.3,3.2,1.9,5.7,2.1,7.4c0.2,1.7-0.4,3.3-1,4.4
			c-0.6,1.2,0.9,4.3,0,6.4c-0.9,2.1-3.1,4.8-5.2,6.1c-2.2,1.3-5.2,4.4-6.9,4.3c-1.7-0.1-7.6-2.3-10.3-2.3s-6.3-1-9.4-3.3
			c-3.1-2.3-4.6-3.1-4.5-5.6c0.1-2.5,1.3-3.9,1-5.2s-2.1-3.7-2.1-5.1C18.4,29.8,18.5,29.1,19.6,28.5z"/>
		<path class="st1" d="M24.4,40.7c0.8,0.4,1.5,0.9,2,1.6"/>
		<path class="st1" d="M24.5,37.8c0.7,0.5,1.4,1.2,1.8,2"/>
		<path class="st1" d="M24.6,34.4c0.8,0.6,1.5,1.4,1.9,2.3"/>
		<path class="st1" d="M25,31.4c0.8,0.6,1.5,1.3,2,2.1"/>
		<path class="st1" d="M26.9,30.4c0.6,0.8,1.1,1.6,1.7,2.4"/>
		<path class="st1" d="M28.3,29.1c0.5,0.2,0.7,0.7,1,1.1c0.1,0.3,0.2,0.5,0.4,0.8"/>
		<path class="st1" d="M29.4,27.5c0.7,0.7,1.2,1.6,1.5,2.5"/>
		<path class="st1" d="M31.6,26.3c0.4,0.8,0.9,1.6,1.3,2.4c0-0.1,0-0.1,0.1-0.2"/>
		<path class="st1" d="M33.5,24.7c0-0.1,0.2,0,0.2,0c0.7,0.9,1.3,1.8,1.8,2.8"/>
		<path class="st1" d="M36.8,23.3c0.3,0,0.5,0.3,0.7,0.5c0.8,0.9,1.3,2,1.6,3.1"/>
		<path class="st1" d="M39.8,23.4c0.2,0.1,0.3,0.4,0.4,0.7c0.2,0.9,0.6,1.8,1,2.6"/>
		<path class="st1" d="M42.2,23.4c0.4,0.9,0.7,1.8,1.1,2.7"/>
		<path class="st1" d="M44.9,23.9c0.1,0.6,0.3,1.2,0.4,1.8c0.1,0.4,0.2,0.8,0.5,0.9"/>
		<path class="st1" d="M46.7,24.7c0.2,0,0.3,0.3,0.4,0.5c0.2,0.6,0.4,1.2,0.6,1.8"/>
		<path class="st1" d="M49.1,26.1c0.3,0.5,0.6,0.9,1,1.3"/>
		<path class="st1" d="M50.7,28.3c0,0.4,0,0.7,0.1,1.1"/>
		<path class="st1" d="M6.9,33.3c0.4-0.2,1.7-0.7,1.9-1.1c0.2-0.6-0.6-0.9-1.1-0.9c-1.1-0.1-2.2,1.3-2.7,2.1
			C5.5,33.7,6.3,33.5,6.9,33.3z"/>
		<path class="st1" d="M5.7,36.7c-0.2,0.8-0.3,1.7-0.3,2.6c0,0.1,0,0.3,0.2,0.3c0.1,0,0.1,0,0.1-0.1c0.4-0.3,0.8-0.7,1.1-1.1
			c0.2-0.3,0.4-0.6,0.5-1c0.1-0.4,0-0.8-0.3-1c-0.1,0-0.1,0.1-0.1,0.2"/>
		<path class="st1" d="M4,43.9c-0.5,0.8-0.9,1.7-1,2.6c0,0.1,0,0.1,0,0.2c0,0,0.1,0.1,0.1,0.1c0.2,0.1,0.5-0.1,0.6-0.2
			C4,46.4,4.1,46.2,4.2,46c0.5-1,0.6-2.2,0.2-3.3"/>
		<path class="st1" d="M11.5,38.3C11.2,39,11,39.9,11,40.7c0,0.2,0,0.3,0.1,0.4c0.1,0.2,0.4,0.2,0.6,0.2c0.2-0.1,0.4-0.2,0.5-0.4
			c0.5-0.6,0.7-1.5,0.6-2.2c0-0.1-0.1-0.2-0.2-0.2"/>
		<path class="st1" d="M15.7,36.9c0,0.6,0,1.1,0.1,1.7c0,0.2,0.1,0.3,0.2,0.5c0.1,0.1,0.3,0.2,0.4,0.1c0.1,0,0.2-0.1,0.2-0.2
			c0.3-0.5,0.3-1.2,0.1-1.7c-0.2-0.6-0.5-1.1-0.9-1.5"/>
		<path class="st1" d="M14.7,33.3c0.7,0,4.3-1.5,2.8-2.5c-0.5-0.3-1.1,0-1.5,0.4C15.8,31.3,14.5,33.3,14.7,33.3z"/>
		<path class="st1" d="M6.2,24.1c0.3,0.2,0.7,0.5,1,0.7c0.2,0.1,0.3,0.3,0.4,0.4c0.1,0.4-0.3,0.6-0.7,0.7s-0.7,0-1.1,0.1"/>
		<path class="st1" d="M13.6,25.7c-0.1,0.4,0.1,0.8,0.5,0.9c0,0,0.1,0,0.1,0c0.2,0,0.3-0.1,0.4-0.2c0.4-0.3,0.8-0.6,1.2-0.9
			C16.7,24.4,14,24.2,13.6,25.7z"/>
		<path class="st1" d="M8.7,21.6c0,0.1,0,0.1,0,0.2c0,0.1,0.2,0.1,0.3,0.1c0.8,0.1,1.6-0.3,2.3-0.7c1-0.6-0.1-1.3-0.8-1.2
			C9.6,20.1,8.8,20.8,8.7,21.6z"/>
		<path class="st1" d="M13.8,18.1c0.5,0,0.9-0.2,1.4-0.4c0.9-0.4,1.9-0.7,2.8-1.1c0.4-0.2,0.8-0.4,0.7-0.8c-0.2-1.2-2-0.3-2.5,0
			C14.9,16.4,14.3,16.7,13.8,18.1z"/>
		<path class="st1" d="M21.5,20.8c1,0,2.7-2.9,1.5-3C21.7,17.5,20.6,20.8,21.5,20.8z"/>
		<path class="st1" d="M16.1,10.5c-0.1,0.7-0.2,1.5-0.1,2.2c0,0.2,0,0.4,0.1,0.6c0.1,0.2,0.3,0.3,0.4,0.3c0.3,0,0.5-0.3,0.7-0.6
			c0.4-0.7,0.7-1.5,1-2.3"/>
		<path class="st1" d="M21.9,10.7c-0.1,0.2-0.2,0.4-0.2,0.6c0.7-0.1,1.4-0.2,2.1-0.4s1.3-0.7,1.5-1.4c0.1-0.1,0.1-0.3,0-0.4
			C25.3,9,25.1,8.9,25,8.9C23.7,8.7,22.6,9.7,21.9,10.7z"/>
		<path class="st1" d="M28,15.9c0.1,0.1,0.2,0.2,0.3,0.2c0.1,0,0.1,0,0.1-0.1c0.3-0.2,0.3-0.6,0.2-1c-0.2-0.5-1.2-1.7-1.7-1.1
			C26.3,14.5,27.7,15.5,28,15.9z"/>
		<path class="st1" d="M35.7,16.3c0.1,0,0.1,0,0.2,0c0,0,0.1-0.1,0.1-0.1c0.2-0.5-0.2-0.9-0.6-1.3c-0.5-0.4-2.1-1.7-2.1-0.2
			C33.3,15.8,34.9,16.1,35.7,16.3z"/>
		<path class="st1" d="M31.6,8.7c0-0.1-0.2-0.2-0.3-0.1S31.1,8.8,31,8.9c-0.3,0.3-0.4,0.7-0.6,1.2c0,0.1,0,0.1,0,0.2
			c0,0.1,0.1,0.1,0.2,0.2c0.3,0.1,0.6-0.1,0.8-0.2c0.5-0.3,0.8-0.7,1.1-1.2c0-0.1,0.1-0.1,0-0.2c0-0.1-0.1-0.1-0.1-0.1
			c-0.2-0.1-0.4-0.1-0.5-0.1C31.7,8.5,31.6,8.6,31.6,8.7"/>
		<path class="st1" d="M31.1,4.2c0-0.1-0.1,0-0.1,0c-0.2,0.2-0.1,0.5,0.1,0.6c0.2,0.1,0.4,0.1,0.6,0c0.2-0.1,0.3-0.3,0.5-0.5"/>
		<path class="st1" d="M35.4,5c0,0.2,0,0.5,0.1,0.6c0.1,0.1,0.2,0.1,0.3,0.1c0.6,0,1.2-0.3,1.6-0.8c0.3-0.5,0.4-1.2,0.2-1.8
			c-0.2-0.7-0.9-0.6-1.4-0.2C35.7,3.4,35.6,4.4,35.4,5z"/>
		<path class="st1" d="M37.9,8.1c-0.3,0.6-0.5,1.1-0.6,1.7c-0.1,0.4-0.1,1,0.3,1.2c0.3,0.2,0.7,0,0.9-0.2c0.2-0.3,0.3-0.6,0.3-1
			c0-0.4,0-0.8-0.2-1.2c-0.1-0.2-0.2-0.3-0.3-0.4c-0.2-0.1-0.5,0-0.6,0.2c-0.2,0.2-0.3,0.4-0.3,0.6"/>
		<path class="st1" d="M44.6,14.2c0.2,0.3,0.6,0.7,1,0.5c0,0,0,0,0,0c0.2-0.1,0.3-0.3,0.3-0.6c0-0.2-0.1-0.5-0.2-0.7
			C45.2,12.7,44,13.3,44.6,14.2z"/>
		<path class="st1" d="M45.6,7.3c0.1,0.1,0.3,0.2,0.4,0.2c0.3,0,0.5-0.4,0.5-0.7c0-1.1-0.5-2.1-1.3-2.8c0,0-0.1-0.1-0.1-0.1
			c-0.3,0-0.4,1.4-0.4,1.7C44.7,6.3,45,6.9,45.6,7.3z"/>
		<path class="st1" d="M47.3,0.9C47,1.5,46.9,2.2,47,2.8c0,0.2,0.1,0.4,0.3,0.4c0.2,0,0.3-0.2,0.4-0.3c0.4-0.7,0.5-1.5,0.4-2.2"/>
		<path class="st1" d="M52.5,3.7c0.1,0.2,0.1,0.3,0.3,0.4c0.2,0.1,0.4,0.1,0.6,0.1c0.2,0,0.4,0,0.6,0c0.2,0,0.3-0.1,0.4-0.3
			c0.1-0.1,0.1-0.2,0.1-0.4C54.8,1.4,51.9,2,52.5,3.7z"/>
		<path class="st1" d="M49.7,11.8c0.9,0.2,3.5-1.4,2-2C50.4,9.3,48.5,11.6,49.7,11.8z"/>
		<path class="st1" d="M58.4,7.5c0.1,0.1,0.2,0.1,0.3,0.2c0.9,0.1,2-1.6,1-2.2C58.8,4.9,57.9,6.9,58.4,7.5z"/>
		<path class="st1" d="M60.4,12c-0.9-0.1-1.8,0.6-2,1.4c0,0.1,0,0.2,0,0.3c0,0.1,0.1,0.1,0.2,0.1c0.5,0.2,1-0.1,1.4-0.4
			c0.3-0.2,0.6-0.4,0.8-0.6c0.2-0.1,0.5-0.3,0.5-0.6c0-0.2-0.1-0.4-0.3-0.6c-0.2-0.1-0.4-0.2-0.6-0.2"/>
		<path class="st1" d="M55.4,15.2C55.4,15.2,55.4,15.1,55.4,15.2c0-0.1,0-0.1-0.1-0.1c-0.5,0-1.1,0.3-1.3,0.7
			c-0.1,0.1-0.1,0.3,0,0.4c0,0.1,0.1,0.1,0.2,0.1c0.5,0.2,1.1-0.1,1.6-0.2c0.3-0.1,0.6-0.1,0.9-0.1c0.1,0,0.2,0,0.2,0
			c0,0,0-0.1,0.1-0.1c0.1-0.3-0.1-0.7-0.4-0.8c-0.3-0.1-0.7,0-0.9,0.3"/>
		<path class="st1" d="M67.1,8.3c-0.3,0.1-0.5,0.5-0.5,0.8c0,0.1,0,0.2,0,0.3c0.1,0.1,0.2,0.1,0.3,0.2c0.5,0.1,1.1,0,1.5-0.4"/>
		<path class="st1" d="M67.6,12.8c-1,0.2-1.8,0.8-2.2,1.6c-0.1,0.2-0.1,0.4,0,0.5c0.1,0.1,0.2,0.1,0.3,0.1c0.3,0,0.7-0.1,1-0.3
			c0.3-0.1,0.5-0.3,0.7-0.4c0.2-0.2,0.4-0.5,0.3-0.8c0-0.2-0.1-0.3-0.2-0.4c-0.2-0.1-0.4-0.1-0.6,0c-0.2,0.1-0.3,0.3-0.4,0.5"/>
		<path class="st1" d="M58.9,22.4c0,0.1,0,0.2,0.1,0.3c0.1,0.1,0.3,0.1,0.4,0.1c0.7-0.1,1.3-0.6,1.7-1.2c0.6-0.7,1.4-2.7-0.3-2
			C59.7,20.1,58.9,21.3,58.9,22.4z"/>
		<path class="st1" d="M71.2,21.6c0.1,0.1,0.1,0.1,0.2,0.1c0.2,0,0.3-0.1,0.4-0.2c0.3-0.5,0.9-2.8-0.3-2.6
			C70.3,19,70.6,21,71.2,21.6z"/>
		<path class="st1" d="M62.9,23.7c0,0.1-0.1,0.2,0,0.3c0.1,0.2,0.4,0.1,0.6,0c0.5-0.3,2.5-1.3,1.4-1.9C63.9,21.6,63.1,23,62.9,23.7z
			"/>
		<path class="st1" d="M60.6,28.5c-0.1,0.1-0.1,0.1-0.1,0.2c0,0.1,0.1,0.1,0.2,0.2c1.2,0.4,2.6,0,3.8-0.5c0,0,0.1,0,0.1-0.1
			c0.1-0.1,0-0.2-0.1-0.3C63.7,27,61.5,27.6,60.6,28.5z"/>
		<path class="st1" d="M70.1,27.2c-0.5,0.4-0.9,1-1.1,1.7c0,0.1-0.1,0.3,0,0.4c0.1,0.2,0.3,0.3,0.6,0.2c0.2-0.1,0.4-0.2,0.5-0.4
			c0.4-0.5,0.7-1.2,0.7-1.8c0-0.1,0-0.2-0.1-0.3c-0.1-0.1-0.3,0-0.4,0.2c-0.1,0.1-0.1,0.3-0.2,0.4"/>
		<path class="st1" d="M58.2,34.9c0,0.1-0.1,0.3,0,0.4c0.1,0.2,0.4,0.2,0.6,0c0.5-0.3,1.2-1.6,0.6-2.1
			C58.7,32.7,58.3,34.5,58.2,34.9z"/>
		<path class="st1" d="M63.7,34.9c0.1,0.1,0.2,0.1,0.3,0.2c0.7,0.2,1.4-0.1,2-0.3c0.5-0.2,1.2-0.3,1-1.1c-0.2-0.5-0.6-0.6-1-0.6
			C65.5,33.2,63,34.1,63.7,34.9z"/>
		<path class="st1" d="M70.1,40.8c0,0.1,0,0.2,0,0.2c0.1,0.2,0.4,0.1,0.6,0c0.3-0.3,1.5-1.7,0.9-2.1C70.9,38.5,70.2,40.4,70.1,40.8z
			"/>
		<path class="st1" d="M63.3,41.4c0.2,0.1,0.4,0.2,0.6,0.2c0.2,0,0.3-0.2,0.3-0.3c0.4-0.7-0.4-2-1.3-1.8
			C61.9,39.8,62.7,41.1,63.3,41.4z"/>
		<path class="st1" d="M58.3,48.3c0,0.1,0,0.1,0,0.1c0.1,0.1,0.2,0.1,0.3,0.1c0.7-0.2,1.2-0.9,1.6-1.5c0.2-0.4,0.3-0.8,0.3-1.2
			c0-0.4-0.2-0.8-0.5-1.1C58.5,43.5,58.2,47.6,58.3,48.3z"/>
		<path class="st1" d="M61.3,53.1c-0.5,0.9-0.9,1.9-1,2.9c0,0.1,0,0.2,0,0.2c0,0.1,0.1,0.1,0.2,0.2c0.4,0.2,0.8,0,1.2-0.2
			c0.5-0.3,0.9-0.7,1.2-1.2c0.2-0.3,0.3-0.7,0.2-1c-0.2-0.4-0.8-0.4-1.1-0.2c-0.4,0.2-0.5,0.7-0.7,1.1"/>
		<path class="st1" d="M49.9,52.9c0.1,0.4,0.6,0.4,0.9,0.3c0.2-0.1,0.4-0.2,0.6-0.3c0.3-0.1,0.6-0.3,0.9-0.4
			c0.3-0.1,0.5-0.1,0.8-0.2c1.2-0.5-0.5-0.9-0.9-0.9C51.6,51.6,49.7,51.8,49.9,52.9z"/>
		<path class="st1" d="M49.1,60.6c0,0.1,0,0.2,0,0.3c0.1,0.2,0.3,0.2,0.5,0.1c0.9-0.2,2.9-2.2,1.7-3.2C50,56.8,49.3,59.9,49.1,60.6z
			"/>
		<path class="st1" d="M45,58.1c0,0.3,0,0.6,0.1,0.8c0.1,0.2,0.4,0.4,0.7,0.3c0.1-0.1,0.2-0.2,0.3-0.3c0.3-0.5,1.3-3.1,0.4-3.3
			C45.5,55.3,45,57.6,45,58.1z"/>
		<path class="st1" d="M36.3,52.9c0.2,0.3,0.4,0.5,0.6,0.8c0.3,0.3,0.7,0.6,1.1,0.7c0.4,0.1,0.8,0,1.2-0.2c0.4-0.2,0.9-0.5,0.9-0.9
			c0-0.3-0.3-0.6-0.6-0.7c-0.4-0.3-0.8-0.4-1.3-0.5c-0.2,0-0.5-0.1-0.7,0c-0.2,0.1-0.4,0.3-0.4,0.5"/>
		<path class="st1" d="M35.9,58c-0.3,0-0.6,0.1-0.8,0.1c-0.4,0.1-0.7,0.1-1.1,0.3c-0.6,0.2-1,0.7-1.3,1.2c-0.1,0.1-0.1,0.3-0.1,0.4
			c0,0.1,0.1,0.2,0.2,0.2c0.4,0.2,0.8,0,1.1-0.2c0.8-0.4,1.5-0.9,2.2-1.5c0.1-0.1,0.2-0.2,0.2-0.3c0-0.1,0-0.1-0.1-0.2
			c-0.2-0.2-0.5-0.4-0.8-0.4c-0.3,0-0.6,0.3-0.6,0.6"/>
		<path class="st1" d="M38.5,62.1c-0.5,0.2-1,0.5-1.4,0.8c-0.2,0.2-0.5,0.5-0.4,0.7c0.1,0.3,0.4,0.4,0.7,0.5
			c0.7,0.1,1.4-0.3,2.1-0.6c0.2-0.1,0.4-0.2,0.6-0.4c0.2-0.2,0.2-0.4,0.2-0.6c-0.1-0.2-0.3-0.3-0.5-0.4c-0.6-0.2-1.3-0.1-1.8,0.3"/>
		<path class="st1" d="M28.1,57.7c0,0.4,0,0.9,0.4,1.2c0.3,0.2,0.7,0.1,0.9-0.2c0.1-0.1,0.2-0.2,0.2-0.3c0.1-0.2,0.2-0.4,0.2-0.6
			c0.1-0.5,0.3-2.6-0.6-2.4C28.5,55.5,28.2,57.1,28.1,57.7z"/>
		<path class="st1" d="M20.2,59.9c0,0.1,0,0.1,0,0.2c0.1,0.1,0.2,0.1,0.2,0.1c0.2,0,0.4-0.1,0.6-0.2c0.5-0.2,1-0.6,1.4-0.9
			c0.1-0.1,0.3-0.2,0.4-0.4c0.5-0.8-0.4-1.1-1-1C20.8,57.9,20.3,58.9,20.2,59.9z"/>
		<path class="st1" d="M21.3,50.9c-0.4,0.2-0.8,0.5-1,0.9c0,0.1-0.1,0.2-0.1,0.3c0,0.1,0.1,0.2,0.2,0.2c0.3,0.1,0.6,0.1,0.8,0.1
			c0.2,0,0.5,0,0.7-0.1c0.2-0.1,0.4-0.3,0.4-0.6c0-0.4-0.3-0.7-0.7-0.7c-0.4,0-0.7,0.2-1,0.4"/>
		<path class="st1" d="M14.3,52.8c-0.9,0.1-1.6,1-1.4,1.9c0,0.1,0,0.1,0.1,0.2c0.1,0.1,0.2,0.1,0.4,0c0.5-0.2,0.8-0.5,1.1-0.9
			c0.2-0.3,0.4-0.6,0.3-0.9s-0.4-0.6-0.7-0.4"/>
		<path class="st1" d="M8,53.4c0.1,0,0.3,0,0.4-0.1c0.1-0.1,0.1-0.2,0.1-0.3c0.1-0.5-0.3-1-0.8-1.3c-0.6-0.4-2-0.9-1.5,0.3
			C6.4,52.8,7.2,53.4,8,53.4z"/>
		<path class="st1" d="M7.2,47.1c0.1,0.6,0.7,1.1,1.3,1.3c1,0.3,2.1,0.2,3-0.4c0.1-0.1,0.2-0.1,0.2-0.2c0-0.1-0.1-0.2-0.1-0.2
			c-0.6-0.5-1.4-0.6-2.2-0.6C8.8,46.8,7.1,46.2,7.2,47.1z"/>
		<path class="st1" d="M2.6,46.8C3,47,3.5,46.9,3.8,46.7c0.5-0.4,1.6-2.6,0.6-2.8C3.4,43.8,2.7,46.1,2.6,46.8z"/>
		<path class="st1" d="M11.1,40.3c0,0.4,0.2,0.8,0.5,0.9c0.2,0,0.4-0.1,0.6-0.2c0.1-0.1,0.2-0.2,0.2-0.3c0.2-0.3,0.4-0.6,0.4-0.9
			C13.2,38,11.1,38.9,11.1,40.3z"/>
		<path class="st1" d="M15.6,36.5c-0.2,0.5-0.2,1-0.1,1.5c0.1,0.4,0.3,0.9,0.7,1c0.1,0,0.1,0,0.2,0c0.1,0,0.1-0.1,0.1-0.2
			c0.3-0.5,0.3-1.2,0.1-1.7c-0.1-0.2-0.2-0.5-0.5-0.6s-0.6,0.1-0.6,0.3"/>
		<path class="st1" d="M15.6,47.4c0.1,0,0.3,0,0.4,0c1.1-0.5,0.2-2.9-1-2.6C13.7,45.1,14.5,47.2,15.6,47.4z"/>
		<path class="st1" d="M7.6,60.3c0.2,1,0.4,2,0.5,3"/>
		<path class="st1" d="M9.8,61.1c0.1,1.3,0.3,2.6,0.5,3.9"/>
		<path class="st1" d="M12.4,63.4c0.4,1.6,0.7,3.1,0.9,4.7"/>
		<path class="st1" d="M15.8,66.6c0.2,1,0.4,1.9,0.7,2.8"/>
		<path class="st1" d="M19.4,67.6c0,0.9,0.2,1.7,0.4,2.6"/>
		<path class="st1" d="M21.1,67.4c0.4,1,0.7,2.1,0.9,3.2"/>
		<path class="st1" d="M23.9,67.2c0,1.8,0.2,3.5,0.5,5.3"/>
		<path class="st1" d="M27.2,67.3c0.5,1.8,1,3.5,1.5,5.3"/>
		<path class="st1" d="M30.9,69c0.3,1.4,0.6,2.9,1,4.3"/>
		<path class="st1" d="M34.5,70.4c0.3,1.2,0.7,2.4,1.1,3.6"/>
		<path class="st1" d="M37.4,70.4c0.7,1.2,1.5,2.3,2.3,3.3"/>
		<path class="st1" d="M41.3,68.4c0.3,0.9,0.7,1.9,1.1,2.8c0.1,0.2,0.2,0.3,0.3,0.4"/>
		<path class="st1" d="M44.7,67.4c0.3,1.6,0.8,3.1,1.5,4.6"/>
		<path class="st1" d="M48.5,67.8c0.3,1,0.8,2,1.3,3"/>
		<path class="st1" d="M51.4,66.7c-0.1,0,0-0.1,0-0.1c0.1,0,0.1,0,0.1,0.1c0.8,1,1.4,2.3,1.6,3.6c0,0.1-0.1,0.2-0.1,0.1"/>
		<path class="st1" d="M55.5,64.4c0.4,1.2,0.8,2.4,0.9,3.7"/>
		<path class="st1" d="M59.2,63.2c1,0.6,1.6,1.8,1.7,2.9"/>
		<path class="st1" d="M62.5,60.7c0.2,0.1,0.3,0.3,0.4,0.5c0.2,0.6,0.4,1.2,0.6,1.8"/>
		<path class="st1" d="M65.5,59.1c0.1,0.9,0.4,1.8,0.8,2.7"/>
		<path class="st1" d="M68.4,55.6c0.8,0.9,1.2,2.1,1.1,3.2"/>
		<path class="st1" d="M70.1,52.1c0.5,1.1,0.8,2.3,1,3.5"/>
		<path class="st1" d="M71.7,49.4c0.1,0.5,0.4,1,0.6,1.6c0.3,0.8,0.4,1.6,0.4,2.3"/>
		<path class="st1" d="M73.6,46.8c0.7,1,1.1,2.3,1.1,3.5"/>
		<path class="st1" d="M75,44.7c0.5,0.8,0.9,1.7,1.2,2.7"/>
		<path class="st1" d="M77.1,41.9c0.4,0.9,0.7,1.8,0.8,2.7"/>
		<path class="st1" d="M78.5,37.7c0.2,0.7,0.4,1.4,0.6,2.2"/>
		<path class="st1" d="M79,34.4c0.1,0.6,0.2,1.1,0.3,1.7"/>
		<path class="st1" d="M1.4,54.5c2.8,4.9,11.5,3.3,14.3,8.2c0.6,1.1,0.9,2.6,2,3.3c1.1,0.8,2.7,0.5,3.9-0.1s2.4-1.3,3.8-1.5
			c2.1-0.2,4,1.3,5.7,2.6c1.7,1.3,3.8,2.6,5.8,2c2-0.6,3.3-2.8,5.4-3c1.7-0.2,3.2,1,4.8,1.1c1.7,0,3.2-1.1,4.3-2.4
			c1.1-1.3,2.1-2.8,3.5-3.7C58.3,58.8,63.4,60,66,57c0.7-0.8,1.1-1.8,1.4-2.8c1.2-3.5,2.4-7.3,5.2-9.7c1.5-1.3,3.6-2.3,3.9-4.3
			c0.1-0.8-0.1-1.6-0.4-2.3c-1.2-2.8-3.4-5.7-2.4-8.6c0.4-1,1.1-1.9,1.5-2.9c1.9-4.4-2.6-9.9-0.4-14.2"/>
	</g>
</g>
<g id="Слой_3">
</g>
<g id="Слой_4">
</g>
</svg>
