<svg xmlns="http://www.w3.org/2000/svg" viewBox="0 0 96.9 76.93"><defs><style>.cls-1,.cls-5{fill:#fff;}.cls-1,.cls-3,.cls-4{stroke:#000105;stroke-linecap:round;stroke-linejoin:round;}.cls-2,.cls-4{fill:#000105;}.cls-3{fill:none;}</style></defs><title>dracula</title><g id="Слой_2" data-name="Слой 2"><g id="Слой_33" data-name="Слой 33"><path class="cls-1" d="M87.07,17.82c-1.4,1.45-4.5,1.32-5.87,2.88s-.47,3.23-1.41,4.64c-.71,1.08-2.91,1.53-3.82,2.7A20.07,20.07,0,0,0,73.8,33c-.86-2.58.12-2.52.43-4.74.15-1.09-.87-6.07-3-2.82a30.8,30.8,0,0,1-.1-5.54c.05-2,.87-3.56.91-5.09,0-.62-.87-2.61-1-3.53a35.67,35.67,0,0,1,0-4.23l-.83.18c.16-.52.17-1.09.32-1.61l-.74.16C70.17,3.06,72.28.17,68.17.53c-3.84.34-8.6,3.27-12,4.85C45.23,10.44,36.47,17.07,29.93,27.3a27.3,27.3,0,0,0-3,6.45c-.88,2.76-.36,7.78-1.68,10-2.08,3.54-8.33,3-12.12,3.74a12.25,12.25,0,0,1-5.52.23c-1.38-.19-3.67-1-5-.78C-1,47.5.64,50,2.91,51c.74.33,6.72,1.42,6.93,1.18C8.23,54,5.56,54.62,4.25,56.93c-1.75,3.07-.3,4.91,2.9,3,1.47-.86,3-2.8,4.2-3.78,2.5-2,2.15-1.1,5.19-1.75,2.62-.56,8.35-3.44,11-2.15,1,.47,2.69,3.93,3.46,4.75a31.22,31.22,0,0,0,8.44,5.89c8.82,4.7,17.41,9.54,27.23,11.8A56,56,0,0,0,80.2,76.26c1.64,0,7,.9,7.63-1.39.51-1.81-2.39-2.35-3-4.25l.7-.35c-1.18-1.64-1.79-4.8-2.76-7-.63-1.44-1.24-2.89-1.86-4.33,0,0,.65-.41.42-.92s-1.34-.89-1.64-1.52C79,54.86,77.46,50,77.89,48.58s2.22-.07,1.68-2.67c-.5-2.42-3.63-2-3.37-5.05,1.2,3,5.22,2.94,7.91,2.61C82,49.24,93,48.16,95.65,47.69l-6.22-4.62C100.52,37.88,97,24,84.93,23.5Z"/><path class="cls-2" d="M81,43a1.54,1.54,0,0,0,.43-.29l.06,0,.13-.14,0,0a.19.19,0,0,0,.11-.13l.23-.27a.16.16,0,0,0,0-.08,4.08,4.08,0,0,1,.25-.4.16.16,0,0,0,0-.08,2,2,0,0,0,.23-.52.21.21,0,0,0,0-.11c0-.09.07-.18.1-.27a.23.23,0,0,0,0-.06.19.19,0,0,0,.07-.14.35.35,0,0,1,0-.15l.05-.07a.21.21,0,0,0-.06-.29.2.2,0,0,0-.12,0,3.11,3.11,0,0,0-.51-.26l-.27-.14a.21.21,0,0,0-.08-.11,5.18,5.18,0,0,0-.55-.37l.17-.09,0,0,.43-.15a1.87,1.87,0,0,0,.32-.1,1,1,0,0,0,.39-.15.92.92,0,0,0,.43-.23h0A.18.18,0,0,0,83.1,38v0a.21.21,0,0,0-.06-.31.26.26,0,0,0,0-.1,6.27,6.27,0,0,0-.26-1.05.18.18,0,0,0,0-.14.64.64,0,0,0-.2-.37l-.09-.22a2.35,2.35,0,0,0-.37-.78.23.23,0,0,0-.25-.27,7.49,7.49,0,0,1-1.3,0,1.89,1.89,0,0,0-.38,0,2,2,0,0,0,.16-.32.18.18,0,0,0,0-.2,4.25,4.25,0,0,1,.44-1.05.21.21,0,0,0,0-.21,1.67,1.67,0,0,0-.29-.4.21.21,0,0,0-.09-.06.39.39,0,0,0-.11-.19l-.09-.07v0L80.08,32a.43.43,0,0,0-.07-.1,2.16,2.16,0,0,0-.79-.55,1.13,1.13,0,0,0-.95-.27.55.55,0,0,0-.29,0,1.1,1.1,0,0,0-.28.08.83.83,0,0,0-.36.23,1.15,1.15,0,0,0-.44.56v0a1.77,1.77,0,0,0-.15.44,1.32,1.32,0,0,0,0,.38.94.94,0,0,1,0,.26.53.53,0,0,0,.16.54.22.22,0,0,0,.14.2.2.2,0,0,0,.21,0l.21-.12h0l.08,0a1.6,1.6,0,0,1,.3-.09.19.19,0,0,0,.2.07l.81-.2.08,0,.47-.13-.16.35a.18.18,0,0,0,0,.14c-.09.25-.18.51-.28.76a2,2,0,0,0-.1.22h0l-.08.05a.21.21,0,0,0,0,.33l.06,0a.25.25,0,0,0,.11.21h0a.17.17,0,0,0,.06.08v0l0,.06a.3.3,0,0,0,.05.16c0,.06,0,.13,0,.19h0a.22.22,0,0,0,0,.33c0,.69,0,1.38,0,2.06a.86.86,0,0,0,0,.46h0c0,.1,0,.27,0,.36a.22.22,0,0,0,0,.26.35.35,0,0,0,.28.12l.64.2.39.16c.35.15.69.31,1,.47l-.4.31a2.29,2.29,0,0,0-.31.21.19.19,0,0,0-.07.1v0l-.32.23c-.2.13-.4.25-.61.36l-.3.15a.21.21,0,0,0,0,.39.66.66,0,0,0,.31.55A.94.94,0,0,0,81,43Z"/><path class="cls-3" d="M90.27,29c-1.25-3.35-6.69-1.84-5.71,1.84C85.63,34.88,91.63,32.55,90.27,29Z"/><path class="cls-3" d="M92.93,37c-2.81-2.51-8,.07-4.79,3.17C90.41,42.43,95.35,39.21,92.93,37Z"/><path class="cls-3" d="M94.77,29.84c.71,1.34-2.62,4-3.35,4.21,1.76,0,4.28-.28,5,1.68"/><path class="cls-4" d="M91.93,36.39c-3.65,3.33,2.34,2.64,1.23,1C93.11,37.26,92.92,36.87,91.93,36.39Z"/><path class="cls-4" d="M89.85,31.59c-4.78-1.26.85-3.43.65-1.42A2.51,2.51,0,0,1,89.85,31.59Z"/><path class="cls-3" d="M84.5,22.93c-.43-.2-3.56-.38-3.23,2.45"/><path class="cls-3" d="M84.07,24.76s-1.77-.87-1.88.41"/><path class="cls-3" d="M86.15,34.24a10.26,10.26,0,0,0-1.27,1.44,9.63,9.63,0,0,0,1.67.41"/><path class="cls-3" d="M86.32,38.59a3.56,3.56,0,0,0,3.78,3.56"/><path class="cls-3" d="M84.58,27.06a3.46,3.46,0,0,0-1,4.28"/><path class="cls-3" d="M85.54,44.8c.26.33,2.15,2.62,2.16.1"/><path class="cls-5" d="M81.92,34.52a1.5,1.5,0,0,0-.12-.2.13.13,0,0,0,0-.07.5.5,0,0,0-.12-.19h0q-.19-.24-.35-.5a.14.14,0,0,0-.08-.06l-.06-.09a.13.13,0,0,0-.06-.06l-.1-.18a.14.14,0,0,0-.26.1,2,2,0,0,1-.13.23.34.34,0,0,0,0,.17c0,.11,0,.22-.07.33a.15.15,0,0,0,0,0l-.06.19-.08.13a.13.13,0,0,0,0,.12.14.14,0,0,0,.11.25h.06l.17,0a1.93,1.93,0,0,0,.7,0l.24,0a.12.12,0,0,0,.08,0A.14.14,0,0,0,81.92,34.52Z"/><path class="cls-3" d="M85.71,45.58c-.3.41,2.06,4.09,4,1"/><path class="cls-3" d="M73.8,33s.57,5.3,2.4,7.87"/><path class="cls-3" d="M80.87,33a9.43,9.43,0,0,0-.63,1.71A7.57,7.57,0,0,0,82,34.66"/><path class="cls-3" d="M83.11,38.29a12.74,12.74,0,0,0-1.93.72,11.37,11.37,0,0,0,1.7.91"/><path class="cls-3" d="M77.05,33.85a16.45,16.45,0,0,1,2.36-.52A10.6,10.6,0,0,1,78.68,35"/><path class="cls-3" d="M79.15,39.43a14.64,14.64,0,0,1,2.32.91,14,14,0,0,1-2,1.35"/><path class="cls-3" d="M75.53,39.66c-3.67.26-5.71-2.59-1.4-3.92-1.64-1.45-4.59-3.48-6.41-1.4-2,2.31.52,4.31,2.76,4.49C67,44.33,73.51,44.4,75.53,39.66Z"/><path class="cls-3" d="M71,8.8,67.23,8l-.76,16.15c-.24,5.08.37,5-4.31,6.5q-9.51,3-19,6.16c-1,.32-12.36,4.87-12.54,4.7C32.2,43,39.86,41.18,42.15,41c-5.57,1.73-13.5,2.93-19.07,4.66"/><path class="cls-3" d="M26.32,52c4.58-.7,10.57.26,15.14-.44-2,.76-7.09,1.87-8.26,3.69,7.62-.6,15.16-1.78,22.75-2.52a74,74,0,0,0,8-.9c1.81-.38,7.9-2.4,9.37-1.26.82.64,2,5.71,2.7,7.31.81,1.95,1.41,4,2.2,5.92.71,1.76,1.62,5.09,3,6.42s1.1,1.44,3.62.42"/><path class="cls-3" d="M70.27,7.23c-.64,0-1.83-.17-2.6-.26l-.07,1.1"/><path class="cls-3" d="M85.64,71.83c-1.41,1-3,1.18-3.22-.6"/><path class="cls-3" d="M87.61,73.63c-.73,1-2.52.88-3.26,1a.37.37,0,0,1-.43-.38,9.1,9.1,0,0,0-.36-1.59"/><path class="cls-3" d="M70.11,4.45c-.4.13-2.62.1-2.71.39A6.52,6.52,0,0,1,68.11,7"/><path class="cls-3" d="M67,36.38c-.79.67-6.36,5.09-7.06,5.85a59,59,0,0,0,9.93.37"/><path class="cls-3" d="M68,37.9c-1.46,0-3.12.06-1.24,1.74a10.12,10.12,0,0,0-3.45.21c.5-.22,2.79.29,3.59.21-.67.2-3,1.42-3.29,1.36a7.62,7.62,0,0,0,3.56-.78c-.21.15-1.7,1.28-.92,1.65s2.51-1.55,3.35-1.75"/><path class="cls-3" d="M68.89,45.7c-.05-.46-2.29-.5-2.61-.51l1.22,3.57c.12,0,1.6-.5,1.37-.78a8.32,8.32,0,0,0-1.08-.92A8,8,0,0,1,68.89,45.7Z"/><path class="cls-3" d="M73.78,56.52c-1.57-1.21-4.69-1.36-6.53-2.05a22.74,22.74,0,0,0-3.7-.79"/><path class="cls-3" d="M54.81,54.62c4.12.06,6.58,2.23,9.88,4.36a18.37,18.37,0,0,0,11.56,3.27"/><path class="cls-3" d="M46.74,56c9.91,3.18,18.57,12.8,29.74,11"/><path class="cls-3" d="M37.8,57.47c7,.36,13,8.07,19.6,10.19s14.51,5.06,21.57,4"/><path class="cls-3" d="M66,6.43c-2.27,1-3.68,3.15-5.83,4.31-1.7.92-3.57,1-5.31,1.7C51.21,14,49.53,17.86,46,20,38.5,24.62,35,33.35,29.42,40.07"/><path class="cls-3" d="M65.45,11.28c-4.9,4-8,9.76-14,12.42-3.12,1.38-4.91,1.15-6.93,4A106.32,106.32,0,0,1,38,36.58"/><path class="cls-3" d="M65.52,18.6c-2.35,1.73-18.87,11-16.52,14.33"/><path class="cls-3" d="M65.8,24.88a11.39,11.39,0,0,0-6.6,4.78"/><path class="cls-2" d="M96.43,35.31a1.23,1.23,0,0,0-.07-.28.13.13,0,0,0,0-.17l0,0a.14.14,0,0,0,0-.12.14.14,0,0,0,0-.21v0a.17.17,0,0,0,0-.21v0a.14.14,0,0,0,0-.18L96.3,34a.14.14,0,0,0,0-.26.1.1,0,0,0,0-.06l0-.05a.19.19,0,0,0-.1-.27v0a.14.14,0,0,0,0-.14l-.06-.08,0,0c.05-.06.07-.18,0-.22l-.05,0,0,0A.14.14,0,0,0,96,32.6H96a.14.14,0,0,0,0-.09l0,0a.14.14,0,0,0,0-.14.14.14,0,0,0-.05-.12.14.14,0,0,0,0-.15.11.11,0,0,0-.06-.1.3.3,0,0,0,0-.16.11.11,0,0,0,0-.13l0,0a.16.16,0,0,0-.06-.18v0a.13.13,0,0,0-.09-.18h0a.15.15,0,0,0-.06-.2v0l0,0a.15.15,0,0,0-.08-.19.43.43,0,0,0-.15-.38l-.06,0a.15.15,0,0,0,0-.05.14.14,0,0,0-.13-.11.14.14,0,0,0-.15.13,1.66,1.66,0,0,1,0,.17s0,0,0,0h0a1.33,1.33,0,0,1-.08.28.14.14,0,0,0,0,.05l0,.06c-.07.15-.15.29-.23.43a.13.13,0,0,0-.12.06c-.1.15-.24.31-.36.48a3.79,3.79,0,0,0-.31.41v0l-.27.3-.14.12-.12.1h0l-.38.35-.14.11-.32.21a3.3,3.3,0,0,1-.48.24c-.15.06-.06.3.1.26l.36-.08h.06c.25,0,.49,0,.73,0a13.24,13.24,0,0,0,1.34.12h0l.27,0a.14.14,0,0,0,.09.08l.13,0a3.8,3.8,0,0,0,.71.3,2.57,2.57,0,0,1,.6.81C96.23,35.56,96.45,35.46,96.43,35.31Z"/><path class="cls-3" d="M79.67,31.68c-1.14-1-2.76-1-2.95,1.07-.16,1.69,1.83,1.5,2.34,2.73s-.65,7,1.26,7.47c2.21.5,2.91-4.13,2.78-5.2A11,11,0,0,0,79.67,31.68Z"/><circle class="cls-3" cx="57.26" cy="44.05" r="0.52" transform="translate(-8.11 13.3) rotate(-12.38)"/><circle class="cls-3" cx="54.45" cy="44.67" r="0.52" transform="translate(-8.31 12.71) rotate(-12.38)"/><path class="cls-2" d="M66.58,42.35a4,4,0,0,0,.54-.22.23.23,0,0,0,.17,0l.21-.15a.24.24,0,0,0,.14,0,6.55,6.55,0,0,0,.77-.6h0l.47-.29a.3.3,0,0,0,.12-.15l.16-.12.07,0,.17-.1,0,0a.27.27,0,0,0,.21-.13v0a.27.27,0,0,0,0-.13.29.29,0,0,0,.18-.18l0,0a.26.26,0,0,0,0-.17.25.25,0,0,0,0-.11l.18-.28a.21.21,0,0,0,0-.19.52.52,0,0,0,.19-.16.21.21,0,0,0-.07-.4l-.09,0a.16.16,0,0,0-.12,0l0,0a.19.19,0,0,0-.15-.07h-.22l-.16,0a.2.2,0,0,0-.1-.07.2.2,0,0,0-.11-.08l-.49-.16-.22-.11-.06-.05-.06-.06-.07,0L68.19,38l-.1,0H68a.23.23,0,0,0-.14,0h-.08a.92.92,0,0,0-.24,0H67.4l-.09,0a2.41,2.41,0,0,0-1.09.2l-.06,0h0a.21.21,0,0,0-.1.25.22.22,0,0,0,0,.32l0,0a.23.23,0,0,0,0,.07.18.18,0,0,0,0,.13,3.06,3.06,0,0,0,.29.38,2.91,2.91,0,0,0,.28.28h-.85a.22.22,0,0,0-.18,0,.22.22,0,0,0-.12,0l-.07,0-.05,0H65a3.32,3.32,0,0,0-.65,0l-.05,0h-.13l0,0h0c-.09,0-.1.15,0,.14h.55a.07.07,0,0,0,.05,0l.23,0a3.07,3.07,0,0,0,.49,0,.25.25,0,0,0,.24.14h.06a1.35,1.35,0,0,0,.52,0h0a.19.19,0,0,0,.1,0,4.64,4.64,0,0,0,.58,0,.25.25,0,0,0,0,.06h0a3.41,3.41,0,0,0-.67.3h0l-.11,0h0a4,4,0,0,0-.46.19l-.49.22-.17.07a.2.2,0,0,0-.08.06l-.16,0-.1,0a.13.13,0,0,0-.09.06l0,0h0l-.25.05-.06,0-.15,0c-.18,0-.12.31.06.28l.09,0h.07l.24-.05h0l.28-.06a.13.13,0,0,0,.08-.05l.14,0h.13a.22.22,0,0,0,.15,0l.32-.13c.27-.1.54-.19.82-.28l0,0h.12A3.19,3.19,0,0,0,67,40.7a.28.28,0,0,0,0,.13l-.26.18a.25.25,0,0,0-.08.11,2,2,0,0,0-.46.43.22.22,0,0,0-.05.13l0,0c-.19.13-.09.35.07.44l.08.07A.23.23,0,0,0,66.58,42.35Z"/><path class="cls-2" d="M85,70.51l.1-.06a.06.06,0,0,0,.06,0l.1,0a.06.06,0,0,0,.05-.08h0a.23.23,0,0,0,.11,0,.07.07,0,0,0,0-.13.06.06,0,0,0,0-.05L85.31,70h0a.65.65,0,0,0-.21-.4.59.59,0,0,0-.06-.2,31.67,31.67,0,0,1-1.46-3.93.59.59,0,0,0-.09-.17A14.82,14.82,0,0,0,82.68,63a.55.55,0,0,0-.14-.19,22.52,22.52,0,0,0-1-2.28l0-.08a6.73,6.73,0,0,0-.62-1.59l.21-.11a.57.57,0,0,0,0-1,4.27,4.27,0,0,0-1-.82.57.57,0,0,0-.18-.09l0,0v0h0a.4.4,0,0,0-.06-.13,8,8,0,0,1-.43-.69c-.07-.21-.14-.42-.21-.6l0-.07q-.2-.63-.33-1.28a.53.53,0,0,0-.18-.31c-.07-.25-.15-.5-.23-.74,0,0,0,0,0,0a3.38,3.38,0,0,0-.15-.49.86.86,0,0,0,0-.11q0-.12,0-.25a.43.43,0,0,0-.09-.2v0a1.48,1.48,0,0,0,0-.2.54.54,0,0,0,0-.1.72.72,0,0,0,0-.34v0c0-.24,0-.43-.1-.63s0-.55-.09-.83a.45.45,0,0,0,0-.11v0a.4.4,0,0,0,0,0,2.25,2.25,0,0,0,.09-1,3,3,0,0,0,.15-.42l0,0a1.86,1.86,0,0,0,.27-.19.59.59,0,0,0,.11-.11,2.08,2.08,0,0,0,.8-.25.59.59,0,0,0,.31-.31.53.53,0,0,0,0-.12,2,2,0,0,0-.06-1.33,2.71,2.71,0,0,0-.51-1,.73.73,0,0,0-.13-.19,1.35,1.35,0,0,0-.23-.18l-.08-.06-.08-.06a.68.68,0,0,0-.17-.18,5.6,5.6,0,0,0-.61-.4.73.73,0,0,0-.2-.25l-.12-.09-.64-.48h0c-.12-.23-.29-.42-.42-.64l0,0,0-.14c0-.05,0-.11,0-.17v0s0,0,0,0h0a.68.68,0,0,0-.08-.42s0,0,0-.05a.31.31,0,0,0,0-.31.28.28,0,0,0,0-.25.27.27,0,0,0-.13-.21h0v0a1.18,1.18,0,0,0-.07-.16.78.78,0,0,0-.13-.29.34.34,0,0,0-.1-.1c0-.1,0-.22-.12-.24a.15.15,0,0,0-.18.09.15.15,0,0,0,0,.12h0a.3.3,0,0,0-.15.25.24.24,0,0,0,0,.08v0a.27.27,0,0,0-.16.17l-.06.15h0a4.08,4.08,0,0,0-.34.49c-.17.2-.35.38-.54.56l-.08.05c-.21.19-.42.36-.64.53l-.63.36-.25.1h-.08A3.16,3.16,0,0,0,72,43l-.42.09-.07,0-.24,0-.15,0H71l-.14,0h-.14l-.07,0-.19,0-.11,0-.08,0-.07-.08a.48.48,0,0,0-.58-.23l-.12,0a.6.6,0,0,0-.24,0h-.15l-.28,0a.44.44,0,0,0-.3,0h-.38a1.21,1.21,0,0,0-.31,0l-.51,0a.24.24,0,0,0-.23.09H67a.27.27,0,0,0-.13,0H65.68a4,4,0,0,0-.47-.06h-.1a.26.26,0,0,0-.14,0h-.15l-.31,0H64.4l-.16,0c-.55-.05-1.1-.12-1.65-.21a.71.71,0,0,0-.42,0h0a11.11,11.11,0,0,0-1.77-.13h0l-.18,0H60l-.09-.06.08-.06q.75-.66,1.43-1.38a.43.43,0,0,0,.16-.09l.28-.25,0,0,.19-.14a.79.79,0,0,0,.29-.24,1.62,1.62,0,0,0,.3-.23l.07-.09,0,0A21.85,21.85,0,0,0,66,37.18h0l.63-.46h0a.79.79,0,0,0,.28-.25.39.39,0,0,0,.05-.33.45.45,0,0,0,0-.33,2.21,2.21,0,0,0,.08-.26.49.49,0,0,0,0-.21l.17-.37.19-.27.05,0,.79-.84.25-.17.38-.14a5.85,5.85,0,0,1,.87-.07l1.5.32h0l.47.22a.42.42,0,0,0,.14.13,8.8,8.8,0,0,1,1.29.91.54.54,0,0,0,.24.12.06.06,0,0,0,0,0h0l.07,0a.06.06,0,0,0,0,.06l.24.14.09.07a.07.07,0,0,0,0,.07.71.71,0,0,1,.17.16.06.06,0,0,0,.09,0c.06,0,.14-.06.08-.11l-.09-.08a.07.07,0,0,0,0,0,.06.06,0,0,0,0-.07.07.07,0,0,0,0-.07.25.25,0,0,0-.06-.12.07.07,0,0,0,0-.1.37.37,0,0,0-.09-.09.06.06,0,0,0,0,0,.07.07,0,0,0,0-.12h0a.06.06,0,0,0,0,0l0,0a.06.06,0,0,0,0-.1L74,34.66v0a.07.07,0,0,0,0-.05v0a.06.06,0,0,0,0-.07h0a2.46,2.46,0,0,0-.14-1,.47.47,0,0,0,0-.37,5.91,5.91,0,0,1-.36-1.92.44.44,0,0,0-.05-.25c.06-.21.14-.41.2-.61a.44.44,0,0,0,0-.14,1.14,1.14,0,0,0,.08-.28.49.49,0,0,0,.14-.26c.07-.18.1-.36.16-.54L74,29a1.1,1.1,0,0,0,.1-.49.65.65,0,0,0,.07-.18,5.52,5.52,0,0,0,0-.61c0-.22-.07-.26-.11-.45a2.2,2.2,0,0,1,0-.24,1.59,1.59,0,0,0,0-.16.45.45,0,0,0,0-.24.59.59,0,0,0-.11-.25.4.4,0,0,0-.13-.34.44.44,0,0,0-.09-.29.44.44,0,0,0,0-.11c-.16-.54-.53-1.28-1.18-1.29s-1,.66-1.32,1.13a2.68,2.68,0,0,0-.09-.42v-.35a.34.34,0,0,0,0-.15,6.92,6.92,0,0,0-.05-.75c0-.06,0-.12,0-.19a.43.43,0,0,0-.07-.23l0-.09c0-.1,0-.19,0-.29a.35.35,0,0,0,0-.15.43.43,0,0,0,0-.16,4.26,4.26,0,0,0,0-.75,2.1,2.1,0,0,0,0-.6v0q0-.79,0-1.58a.46.46,0,0,0,0-.13l0-.28a3.22,3.22,0,0,0,0-.4l0,0v-.08a4.83,4.83,0,0,0,.22-1.15.47.47,0,0,0,0-.06,4.79,4.79,0,0,0,.28-.93A8.41,8.41,0,0,0,72,15.25a1.39,1.39,0,0,0,.08-.46.37.37,0,0,0,0-.24c-.1-.3-.1-.62-.21-.92s-.2-.42-.28-.65a4.2,4.2,0,0,0-.28-.86.19.19,0,0,0,0-.2,6.35,6.35,0,0,1-.24-.76,3.57,3.57,0,0,0,0-.48,4.53,4.53,0,0,0,0-1,.21.21,0,0,0,0-.11,1.55,1.55,0,0,0,0-.49.23.23,0,0,0-.19-.33h-.06a.22.22,0,0,0-.15-.09l-.37-.06h-.09A.17.17,0,0,0,70,8.56l-.87-.18-.14,0-.08,0a4.61,4.61,0,0,0-.65-.12l-.07,0A6.55,6.55,0,0,1,67.47,8a.21.21,0,0,0-.27.25l.06.26a.19.19,0,0,0,0,.14.21.21,0,0,0,0,.18v0A42.8,42.8,0,0,0,67,14.06a.43.43,0,0,0,0,.09.36.36,0,0,0-.06.2,3.67,3.67,0,0,0,0,.56q0,.11,0,.21a1.93,1.93,0,0,0,0,.57,2.29,2.29,0,0,0,0,.38.39.39,0,0,0-.06.32,4.69,4.69,0,0,1,0,.55h0l0,.21a2.35,2.35,0,0,0,0,.3.53.53,0,0,0-.06.27s0,.08,0,.12h0s0,0,0,.07,0,.12,0,0a.69.69,0,0,0,0,.17h0a.4.4,0,0,0,0,.18.41.41,0,0,0-.05.28.45.45,0,0,0,0,.15,2.31,2.31,0,0,0,0,.24c0,.07,0,.14,0,.21l0,.19v0a.56.56,0,0,0,0,.15c0,.19,0,.38,0,.57a.4.4,0,0,0,0,.23c0,.37-.07.73-.09,1.1a.41.41,0,0,0,0,.21c0,.23,0,.46,0,.69a.46.46,0,0,0,0,.18,6.46,6.46,0,0,1,0,.71v0a.66.66,0,0,0,0,.4v.13a.36.36,0,0,0,0,.09s0,0,0,0l0,.17a3.16,3.16,0,0,0-.06.56,2.21,2.21,0,0,0-.12.8.43.43,0,0,0,.08.24l0,0,0,.11a.38.38,0,0,0,0,.29c0,.18,0,.37,0,.56a.36.36,0,0,0,0,.2,3.81,3.81,0,0,1-.12.89.41.41,0,0,0,0,.28l-.07.23a4.69,4.69,0,0,1-.31.65l-.08.07c-.17.19-.36.37-.55.54l-.23.11a.43.43,0,0,0-.23,0l-1.67.7a.44.44,0,0,0-.29,0l-2.14.79h-.12a.36.36,0,0,0-.24,0,3.53,3.53,0,0,0-.49.18.37.37,0,0,0-.15.13q-1.07.31-2.11.7a.33.33,0,0,0-.17,0,.38.38,0,0,0-.25.08l-.23.09a.38.38,0,0,0-.19,0l-1,.35h-.08a2.1,2.1,0,0,0-.59.21l-.23.09h0a.44.44,0,0,0-.16,0,5.86,5.86,0,0,0-1.47.55l-.11,0a7.7,7.7,0,0,0-2.2.71L48.57,35a.41.41,0,0,0-.25.18,18.41,18.41,0,0,0-2.31.71h-.11l-.91.3a.54.54,0,0,0-.16.08l-1.32.44a.46.46,0,0,0-.14.08l-1.31.43a.45.45,0,0,0-.17.11l-.59.23-.11,0-1,.4-2.58.93-.08,0a13,13,0,0,0-2.21.87l-.1,0-1.75.68-.06,0a.11.11,0,0,0-.11,0l-.07,0h0l-.33.1a.14.14,0,0,0-.09.08h0l-.59.18a.15.15,0,0,0-.1.14l-.68.13a.13.13,0,0,0-.09.07h0a.12.12,0,0,0-.09.06l0,0h-.07l-.16,0h-.11c-.17,0-.13.26,0,.28h0a.12.12,0,0,0,.07,0l.25,0,.06,0,.24,0a.12.12,0,0,0,.08.06,2.25,2.25,0,0,0,.47,0,.12.12,0,0,0,.08,0h0a1.8,1.8,0,0,0,.37,0h.6a.45.45,0,0,0,.2,0l.4-.08A.41.41,0,0,0,34,42l.26-.05a.39.39,0,0,0,.19,0h.06a.41.41,0,0,0,.16,0l.23,0H35a.49.49,0,0,0,.22,0l.44,0a1.81,1.81,0,0,0,.59,0l.08,0h.13c.39,0,.77-.11,1.15-.19a6.63,6.63,0,0,0,.81-.17l.43,0,.67-.08,1.3-.16h.38a.43.43,0,0,0,.22-.07l.21,0,.1,0-.23.12a2.32,2.32,0,0,0-.39.16h-.13l-.28.08h0l-.12,0h0l-.1.05-.35.08c-.39.09-.78.19-1.16.3l-.05,0-.38.11h0l-.4.09a11.18,11.18,0,0,0-1.36.2.62.62,0,0,0-.25.11l-.11,0c-.6.19-1.2.33-1.81.47s-1,.2-1.56.32h-.15l-1,.19h0a8.73,8.73,0,0,0-2,.51l-1,.18-.17.06-.38.07-.17.05-1,.26c-.29.06-.58.13-.87.21l-.84.16a.63.63,0,0,0-.27.13l-.32.06a.6.6,0,0,0-.24.1l-.2,0a.86.86,0,0,0-.28.06l0,0h0l-.17.05-.34.09a.61.61,0,0,0-.46,0l-1.36.66,0,0-.92.25-.46.12L19,46.85h-.14a4.19,4.19,0,0,0-.69.11h-.33l-.28.06-.16,0h-.08l-.15,0h-.07a11.28,11.28,0,0,0-1.47.14l-.16,0a5.11,5.11,0,0,0-.69.09l-.14,0a5.77,5.77,0,0,0-1.27.16l-.11,0a6.87,6.87,0,0,0-1,.18h0l-.09,0H12a4.4,4.4,0,0,0-1.35.24l0,0c-.48,0-1,0-1.42,0l-.12,0H9l-.31,0-.84-.2a.68.68,0,0,0-.38,0q-.73-.19-1.47-.31c-.36-.1-.73-.17-1.09-.24H4.85l-.2,0-.16,0H4.29l-.22,0a.71.71,0,0,0-.2-.05l-.44,0H2.59l-.18,0-.34.07a2.33,2.33,0,0,0-.85.3.56.56,0,0,0-.18.06A.82.82,0,0,0,.63,48c-.36.53,0,1.3.57,1.74a.53.53,0,0,0,.29.3l.06.06a4.29,4.29,0,0,0,1.27.81l.28.1h.06a2.52,2.52,0,0,0,.8.22H4l.56.13c.59.15,1.19.27,1.79.37a4,4,0,0,0,1.24.21,3.92,3.92,0,0,0,1.71.26,2.09,2.09,0,0,0,.51,0,1.38,1.38,0,0,0-.2.22.51.51,0,0,0-.06.12l-.23.11A.55.55,0,0,0,9,53l-.58.45a.78.78,0,0,0-.23.12,9.41,9.41,0,0,1-1.11.74L7,54.4a.72.72,0,0,0-.31.15l-.32.26-.09.08L6,55.12l-.11.07A8,8,0,0,0,5,56l0,0a.67.67,0,0,0-.13.15,5.39,5.39,0,0,0-.8,1.22.48.48,0,0,0-.14.24v0l-.07.14a1.58,1.58,0,0,0-.12.32l0,.1a1.32,1.32,0,0,0-.13.45c0,.08,0,.17,0,.25v0a1.13,1.13,0,0,0,0,.47,1,1,0,0,0,0,.33,1.3,1.3,0,0,0,.09.22h0V60a.56.56,0,0,0,.14.3.7.7,0,0,0,.75.33l.09,0a2.31,2.31,0,0,0,1.37-.24.63.63,0,0,0,.22,0,.68.68,0,0,0,.26-.08c.25-.13.5-.27.73-.43h0a3.59,3.59,0,0,0,.7-.47.57.57,0,0,0,.15-.19,6.54,6.54,0,0,0,.72-.72q.31-.27.6-.56a13.61,13.61,0,0,0,1-1l.7-.63.62-.5q.81-.45,1.58-1a5.72,5.72,0,0,1,1-.07.62.62,0,0,0,.39-.12,4.93,4.93,0,0,0,.54-.08h0A3.66,3.66,0,0,0,16,54.5l.07,0h0l.06,0a.57.57,0,0,0,.35,0q1-.3,1.89-.64a.47.47,0,0,0,.21,0l1.33-.47.13,0c.76-.27,1.54-.51,2.32-.72l.11,0,1.73-.33a.58.58,0,0,0,.36-.21l.33,0a.62.62,0,0,0,.3,0l.39-.07h.11a.64.64,0,0,0,.43.06h0l.11,0h.11a.65.65,0,0,0,.24,0h0l1.77-.1a.82.82,0,0,0,.35-.1l1.37,0a.65.65,0,0,0,.28-.05h.29a7.35,7.35,0,0,0,2,0c.35,0,.71.07,1.06.06a.77.77,0,0,0,.31-.08h0l.46,0a.74.74,0,0,0,.35.07h.14a.55.55,0,0,0,.3-.08.55.55,0,0,0,.27.07h0a3.16,3.16,0,0,0,.68,0l.38,0,1.4,0h0a.65.65,0,0,0,.18,0q.64,0,1.27,0H40a.84.84,0,0,0,.4-.13l.39,0a.86.86,0,0,0,.26-.06h.27l-.06,0-.18.1-.08,0-.56.2q-.89.25-1.76.55l-.17.08-.12,0-.12,0-.15,0-.19.06-.11.05h0l-.49.15h0l-.94.27a.74.74,0,0,0-.26.14l-.48.2a.52.52,0,0,0-.22.19,4.64,4.64,0,0,0-.84.41l-.34.13a.24.24,0,0,0-.15.17h0l-.14.09,0,0a.26.26,0,0,0-.13.1l0,0,0,.05h0a.26.26,0,0,0-.1.13h0a.21.21,0,0,0-.16.24l0,0c-.07.05,0,.15.08.11h0a.24.24,0,0,0,.18.05.51.51,0,0,0,.15,0h0l.09,0H34l.36-.06a.21.21,0,0,0,.12,0,5.48,5.48,0,0,1,1.2-.08.19.19,0,0,0,.17-.08h.06l.06,0h.11a6,6,0,0,0,.63,0l.37,0a.2.2,0,0,0,.11,0h.43a.44.44,0,0,0,.21,0h-.07a.58.58,0,0,0,.31-.09h.09a.47.47,0,0,0,.31-.1l.63,0a.71.71,0,0,0,.29-.06h.05l.37,0a.62.62,0,0,0,.32,0l.27,0a.62.62,0,0,0,.28,0l.37-.07a.76.76,0,0,0,.2,0,4.89,4.89,0,0,0,.82-.19l.16-.08c.73,0,1.45-.12,2.17-.22q.55,0,1.1-.1a.6.6,0,0,0,.26-.09q.64,0,1.27-.11a.81.81,0,0,0,.23,0c1.21-.25,2.45-.23,3.66-.46l.67-.07a8.71,8.71,0,0,0,1-.07l.41,0a1.08,1.08,0,0,0,.26,0,.61.61,0,0,0,.36,0,4.5,4.5,0,0,1,.63-.15h.22q.9-.11,1.79-.18L57,52.6l.15,0h.1l1.07,0a.75.75,0,0,0,.45-.11h.75a.79.79,0,0,0,.4-.11,10.83,10.83,0,0,0,1.59-.13l.13,0,.52-.05.1,0h.19l.07,0h.13a.62.62,0,0,0,.23-.09H63l.45-.08.14,0,.4-.09h0l2.2-.46a.78.78,0,0,0,.31-.13l.64-.14a.76.76,0,0,0,.33-.15h.08a.63.63,0,0,0,.25,0l.3-.08.23-.06.85-.18a.77.77,0,0,0,.3,0,11.54,11.54,0,0,1,1.26-.23c.45,0,.9,0,1.35,0a.81.81,0,0,0,.3,0l.3.08h.16l.13,0a.61.61,0,0,0,.15.11,2.06,2.06,0,0,1,.3.2l.23.22a3.2,3.2,0,0,1,.42,1,.51.51,0,0,0,.16.27c0,.14.06.27.1.41a.55.55,0,0,0,.16.25l0,.06a2.19,2.19,0,0,0,.25.87,2.55,2.55,0,0,0,.15.44.66.66,0,0,0,0,.17l0,0a.62.62,0,0,0,0,.11,50.6,50.6,0,0,0,1.95,5.61c.65,1.83,1.19,3.69,1.94,5.48a.53.53,0,0,0,.15.21.82.82,0,0,0,.1.38l.05.09h0a5.39,5.39,0,0,0,.27.66,6.1,6.1,0,0,0,2.23,3.69.49.49,0,0,0,.14.24C82.81,71.8,84,71,85,70.51Zm-27.57-27a.8.8,0,0,0,.29.17l0,.06a2.42,2.42,0,0,1,0,.37,1.08,1.08,0,0,0,0,.23h0l-.18.11a1.21,1.21,0,0,1-.32,0H57a.46.46,0,0,0-.13-.12.78.78,0,0,0,0-.1,2.24,2.24,0,0,1-.1-.23s0-.08,0-.11.09-.25.12-.37l.28,0a.42.42,0,0,0,.15-.05ZM54,44.85a.43.43,0,0,1,0-.26.43.43,0,0,0,0-.23l0,0a.38.38,0,0,0,.18-.18c.26,0,.55,0,.63.17a.44.44,0,0,0,.16.16.73.73,0,0,0,0,.4l0,0h0a.87.87,0,0,0-.15.14l-.37.11-.09,0A.81.81,0,0,0,54,44.85Zm13.56,3.83h0l-.06-.11a.74.74,0,0,0-.13-.21l-.07-.09a1.16,1.16,0,0,0,0-.33,4.43,4.43,0,0,0-.46-1.11.73.73,0,0,0-.19-.56,2.27,2.27,0,0,0-.27-.79h0l0,0h0a.87.87,0,0,0-.07-.26H67a8.63,8.63,0,0,1,1,.12h0l.41.08h0l.21.06.17.12.05,0,.07.05q-.2.2-.37.42a1.94,1.94,0,0,0-.23.27l-.18.21,0,0a.43.43,0,0,0-.17.19.29.29,0,0,0-.09.27.28.28,0,0,0,.14.18.35.35,0,0,0,.09.09l.08,0,.1.06a1.54,1.54,0,0,1,.34.24.35.35,0,0,0,.1.13l.09.07a.32.32,0,0,0,.07.15l0,0v0l-.11.06-.14.1-.79.35-.13.08h0l-.14,0Z"/></g></g></svg>