<svg xmlns="http://www.w3.org/2000/svg" viewBox="0 0 104.79 67.47"><defs><style>.cls-1{fill:#fff;}.cls-1,.cls-2{stroke:#000105;stroke-miterlimit:10;}.cls-2{fill:none;}</style></defs><title>Ресурс 5</title><g id="Слой_2" data-name="Слой 2"><g id="Слой_9" data-name="Слой 9"><path class="cls-1" d="M58.08,60.91c.36.32,7.06,0,10.66.17a.3.3,0,0,0,.32-.3c.46-12.72.25-26.09-.36-38.84a.25.25,0,0,1,.46-.14C72.94,28.19,91,60,92.46,60.76c1,.51,11.55.4,11.72.25s.15-60-.1-60.22A101.35,101.35,0,0,0,93.51.52a.42.42,0,0,0-.39.47c.09,6.7,1.05,30.87.65,36.2C90.56,33.36,73.38,1.16,73.09,1S59.2.87,58.35,1.16,57.1,60.05,58.08,60.91Z"/><path class="cls-2" d="M58.35,1.16c-2.21,2-7.4,7-7.5,7.23-.61,1.33-.23,49,1.77,57.55a.77.77,0,0,0,.61.58c3.31.66,11,.4,12-.24a14.3,14.3,0,0,0,3.86-5.5"/><path class="cls-2" d="M69.22,37c.86,1.29,17.74,27.6,18.65,28.51s12.39,1.53,12.6,1.42A41.86,41.86,0,0,0,104.18,61"/><path class="cls-2" d="M93.23.66A43.79,43.79,0,0,0,86.89,6c-1.24,1.69-.46,14.76-.27,19.44"/><path class="cls-2" d="M50.75,13.92l7.11-6.15"/><path class="cls-2" d="M50.54,19.63q3.45-3,7.12-5.8"/><path class="cls-2" d="M50.53,25.28a75.22,75.22,0,0,1,7-5.86"/><path class="cls-2" d="M50.54,32.12l6.78-5.54"/><path class="cls-2" d="M50.63,37.55q3.35-2.78,6.76-5.49"/><path class="cls-2" d="M50.83,43.66q3.31-2.37,6.46-5L57,39"/><path class="cls-2" d="M51.19,50.52a40.59,40.59,0,0,1,6.29-4.29"/><path class="cls-2" d="M51.52,56.86q3.05-2.5,6.19-4.9l-.21.12"/><path class="cls-2" d="M52,62.45l5.75-5.13-.3.33"/><path class="cls-2" d="M55.74,67.07a58,58,0,0,0,4.53-4.75,5.23,5.23,0,0,1,1.13-1.1"/><path class="cls-2" d="M62.41,66.58l3.45-5.28"/><path class="cls-2" d="M69.17,32.75,72.38,28"/><path class="cls-2" d="M71.26,40.17A18.36,18.36,0,0,1,74,36.1L76,33.72"/><path class="cls-2" d="M73.84,44.34q2.47-2.94,5.1-5.73"/><path class="cls-2" d="M77.29,49.31a27.8,27.8,0,0,1,4.42-5.43"/><path class="cls-2" d="M79.76,53.25l2.36-2.65a15.56,15.56,0,0,1,2.51-2.42.13.13,0,0,1,0,.21"/><path class="cls-2" d="M82.51,57.46a59.35,59.35,0,0,1,4.85-4"/><path class="cls-2" d="M85.41,61.94a32.15,32.15,0,0,1,4.32-4.55.1.1,0,0,1,0,.17"/><path class="cls-2" d="M88.31,65.57q1.37-1.75,2.86-3.39a4.24,4.24,0,0,1,1.32-1.1"/><path class="cls-2" d="M95.74,66.5a60.67,60.67,0,0,1,3.2-5.27s.05-.07.1-.08.08.07,0,.08"/><path class="cls-2" d="M86.44,11.77a45.6,45.6,0,0,1,6.6-5"/><path class="cls-2" d="M86.24,17.33q3.51-2.06,7.16-3.84"/><path class="cls-2" d="M86.55,23.79a73.18,73.18,0,0,1,6.83-3.93"/><path class="cls-2" d="M89.12,29.32q2.4-1.49,4.76-3"/><path class="cls-2" d="M7.28,1.95C5.61,3.68,1.55,7.88,1.36,8.36s-1,57.05-.83,57.4,43.84.8,44.42.51A12,12,0,0,0,50,61"/><path class="cls-2" d="M49.65,12.56a36,36,0,0,1-5.91,5.75c-.84.45-16.89-1-23.83-.3"/><path class="cls-2" d="M43.75,35.84C41.68,38,37,42.91,36.72,43s-10.52.15-16.33-.1c.15,0-.39.87-.24.9"/><path class="cls-2" d="M6.73,7Q3.93,10.24,1.25,13.6"/><path class="cls-2" d="M6.58,13.69A64,64,0,0,0,1.09,20.2"/><path class="cls-2" d="M6.6,20.66.91,27.48"/><path class="cls-2" d="M6.76,27.3.88,34"/><path class="cls-2" d="M6.67,33.78A55.13,55.13,0,0,0,.61,40.67"/><path class="cls-2" d="M6.55,41.35,2.89,45.08a15.14,15.14,0,0,0-2.19,2.6"/><path class="cls-2" d="M6.64,47.32a84.63,84.63,0,0,0-6,6"/><path class="cls-2" d="M6.5,52.94,5.14,54.08A32,32,0,0,0,.53,58.47"/><path class="cls-2" d="M6.6,59a4.54,4.54,0,0,1-.87.89C3.79,61.57,2.45,62.76.5,64.42"/><path class="cls-2" d="M11.4,60.95A39.6,39.6,0,0,0,6.89,65.9"/><path class="cls-2" d="M19.57,60.67a63.8,63.8,0,0,0-5.41,5.43"/><path class="cls-2" d="M25,61A58.62,58.62,0,0,0,20,66.11"/><path class="cls-2" d="M45.91,60.77a42.75,42.75,0,0,0-4.33,5.48"/><path class="cls-2" d="M40,61.13c-1.68,1.28-2.91,3.53-4.3,5.12"/><path class="cls-2" d="M33.76,61.13a19.61,19.61,0,0,0-3.46,5.16"/><path class="cls-2" d="M28.22,61a27.3,27.3,0,0,0-3.47,5.19"/><path class="cls-2" d="M25.31,36.06q-2,3.2-3.67,6.57"/><path class="cls-2" d="M25.3,42.86q2.24-3.43,4.26-7"/><path class="cls-2" d="M31.39,42.95c-.1-.05,0-.2,0-.3l4.32-6.53"/><path class="cls-2" d="M40,18.44l4.2-6-.39.12"/><path class="cls-2" d="M35.65,18a15.15,15.15,0,0,0,1.25-1.37,40.73,40.73,0,0,1,3.37-4.32"/><path class="cls-2" d="M31,18l4.55-6.08"/><path class="cls-2" d="M27.1,17.67,30.4,12"/><path class="cls-2" d="M21.79,17.58l1.74-3,1.33-2.27L25.1,12"/><path class="cls-1" d="M6.72,60.46C6.65,61,49.77,61.2,50,61s.24-11.49,0-11.75-28,.25-28.63-.08c-1-.53-.48-12.74-.07-13.17s22.1.43,22.42,0,.8-10.86.08-11.17-21.85.3-22.26,0S21,12.8,21.4,12.4s19,0,28.25.17c-.06-3.23.54-11.14.17-11.65,0,0-42.19-.23-42.75.9C5.89,4.19,6.86,59.32,6.72,60.46Z"/></g></g></svg>