<?xml version="1.0" encoding="utf-8"?>
<!-- Generator: Adobe Illustrator 21.0.2, SVG Export Plug-In . SVG Version: 6.00 Build 0)  -->
<svg version="1.1" xmlns="http://www.w3.org/2000/svg" xmlns:xlink="http://www.w3.org/1999/xlink" x="0px" y="0px"
	 viewBox="0 0 132.1 125.9" style="enable-background:new 0 0 132.1 125.9;" xml:space="preserve">
<style type="text/css">
	.st0{display:none;}
	.st1{display:inline;fill:#EEB755;stroke:#586DB0;stroke-miterlimit:10;}
	.st2{display:inline;}
	.st3{fill:#0D0E0F;}
	.st4{fill:none;stroke:#0D0E0F;stroke-miterlimit:10;}
	.st5{fill:#FFFFFF;}
	.st6{fill:#FFFFFF;stroke:#0D0E0F;stroke-miterlimit:10;}
	.st7{fill:#0D0E0F;stroke:#0D0E0F;stroke-miterlimit:10;}
</style>
<g id="Слой_3" class="st0">
	<rect x="40.7" y="-1816.4" class="st1" width="1306" height="2822"/>
</g>
<g id="Слой_18">
</g>
<g id="Слой_2" class="st0">
	<g class="st2">
		<g>
			<g>
				<path class="st3" d="M26.4-1863.3c-2,1.7-4.9,4.9-4.7,7.7c0.1,1.7,0.7,3.5,1.1,5.2c1.6,6.6,3.3,13.2,5.1,19.8
					c2,7.3,4,14.5,6.1,21.8c0.7,2.4,1.4,4.7,2.1,7.1c0.3,0.8,0.5,2.3,1.2,2.9c0.9,0.7,3,0.5,4,0.5c2.3,0.1,4.7,0,7-0.1
					c1.4-0.1,3.1-0.1,4.4-0.6c1.9-0.7,2.8-2.9,3.6-4.6c0.3-0.6-0.6-1.1-0.9-0.5c-0.9,1.9-1.7,3.9-3.9,4.3c-1.4,0.3-2.8,0.3-4.2,0.4
					c-1.8,0.1-3.7,0.1-5.5,0.1c-0.9,0-3.3,0.3-4-0.3c-0.6-0.6-0.9-2.6-1.1-3.4c-0.7-2.3-1.4-4.5-2-6.8c-3.6-12.6-7.1-25.3-10.3-38
					c-0.5-2.2-1.1-4.4-1.5-6.7c-0.6-3.1,1.8-6,4.2-8C27.6-1863,26.9-1863.7,26.4-1863.3L26.4-1863.3z"/>
			</g>
		</g>
		<g>
			<g>
				<path class="st3" d="M60.1-1864c-2.3,0.1-4.6,0.5-6,2.5c-1.4,2-1.9,4.7-2.5,7c-1.8,6.5-3.2,13.2-4.6,19.8
					c-0.1,0.6,0.8,0.9,1,0.3c1.1-5.6,2.4-11.2,3.8-16.7c0.6-2.5,1.3-4.9,2.1-7.3c1.1-3.2,2.9-4.3,6.3-4.5
					C60.7-1863.1,60.7-1864.1,60.1-1864L60.1-1864z"/>
			</g>
		</g>
		<g>
			<g>
				<path class="st3" d="M92.3-1862.1c0.6,0,0.6-1,0-1C91.7-1863.1,91.7-1862.1,92.3-1862.1L92.3-1862.1z"/>
			</g>
		</g>
		<g>
			<g>
				<path class="st3" d="M92.3-1862.1c0.6,0,0.6-1,0-1C91.7-1863.1,91.7-1862.1,92.3-1862.1L92.3-1862.1z"/>
			</g>
		</g>
		<g>
			<g>
				<path class="st3" d="M93-1864.1c-2.4,1.2-5.2,2.5-6.2,5.2c-1.2,2.9-2,5.9-2.8,8.9c-1.6,5.7-3.4,11.4-4.3,17.2
					c0.2-0.1,0.5-0.2,0.7-0.3c-0.1,0-0.1-0.1-0.2-0.1c-0.6-0.3-1.1,0.6-0.5,0.9c0.1,0,0.1,0.1,0.2,0.1c0.3,0.1,0.7,0,0.7-0.3
					c0.8-5.3,2.4-10.5,3.8-15.7c0.8-3,1.7-5.9,2.7-8.9c0.3-0.8,0.5-1.9,1.1-2.6c1.1-1.5,3.6-2.6,5.3-3.5
					C94-1863.5,93.5-1864.3,93-1864.1L93-1864.1z"/>
			</g>
		</g>
		<g>
			<g>
				<path class="st3" d="M88.3-1803.7c-2.2,3.1-4.7,5.4-8.6,5.4c-2.5,0-5.3,0.1-7.7-0.6c-3-0.8-3.6-5.5-4.3-8.1
					c-1.3-4.6-2.3-9.2-3.2-13.8c-0.6-3.2-1.4-6.6-1.6-9.9c0-0.6-1-0.6-1,0c0.1,3.9,1.1,7.9,1.9,11.7c1.1,5.3,2.2,10.6,3.9,15.7
					c0.4,1.3,0.9,3.1,1.8,4.2c1,1.2,2.8,1.3,4.3,1.5c2.5,0.3,5.4,0.6,8,0.2c3.1-0.4,5.6-3.4,7.3-5.8
					C89.5-1803.7,88.6-1804.2,88.3-1803.7L88.3-1803.7z"/>
			</g>
		</g>
		<g>
			<g>
				<path class="st3" d="M110.2-1863.9c-2.8,3.1-5.9,5.9-6.2,10.3c-0.1,1.9,0,3.8,0,5.8c0.1,6.6,0.3,13.3,0.5,19.9
					c0.2,7,0.4,14,0.8,21c0.1,2,0.2,4.1,0.5,6.1c0.1,1,0.1,1.5,1,1.9c1.3,0.5,3.3,0.5,4.7,0.6c2.2,0.2,4.4,0.4,6.7,0.3
					c3.7-0.2,5.4-2.4,7-5.6c0.3-0.6-0.6-1.1-0.9-0.5c-0.7,1.4-1.7,3.1-2.9,4.2c-1.2,1.1-3.2,0.9-4.8,0.9c-1.7,0-3.4-0.1-5.1-0.3
					c-1.3-0.1-3.1-0.1-4.3-0.6c-0.4-0.2-0.2,0.3-0.4-0.5c-0.1-0.6-0.2-1.3-0.2-2c-0.2-2.2-0.3-4.4-0.4-6.5c-0.6-12.3-1-24.7-1.2-37
					c0-2.1-0.1-4.2-0.1-6.3c0.1-4.9,3-7.5,6-11C111.3-1863.7,110.6-1864.4,110.2-1863.9L110.2-1863.9z"/>
			</g>
		</g>
		<g>
			<g>
				<path class="st3" d="M144-1864c-2,0.7-5,2.1-6.2,3.8c-0.8,1.2-0.8,3.1-0.9,4.5c-0.4,5.3-0.2,10.7-0.2,16c0,0.6,1,0.6,1,0
					c0-4.5-0.1-8.9,0-13.4c0.1-1.8-0.1-4.2,0.5-5.9c0.8-2,4.1-3.4,6-4.2C144.8-1863.2,144.6-1864.2,144-1864L144-1864z"/>
			</g>
		</g>
		<g>
			<g>
				<path class="st3" d="M123.7-1823.7c0.6,1.5,6.4,0.5,7.7,0.4c1.3,0,4.7-0.6,5.1,0.8c0.4,1.1-0.1,3-0.1,4.1c0,1.6,0,3.2,0,4.8
					c0,2.8,0.1,5.7,0.3,8.5c0.1,1.6,0,3.7,0.6,5.3c0.4,1,0.9,1.1,2,1.3c2.3,0.3,4.6,0.2,6.9,0.2c2-0.1,4.2,0.1,6.1-0.3
					c2.5-0.5,3.8-2.8,5-4.9c0.3-0.6-0.5-1.1-0.9-0.5c-0.9,1.6-2,3.6-3.9,4.3c-1,0.3-2,0.2-3,0.2c-2.5,0.1-5.1,0.3-7.6,0.2
					c-0.8,0-3.1,0.2-3.6-0.5c-0.4-0.5-0.3-1.8-0.4-2.4c-0.3-3.1-0.4-6.1-0.5-9.2c-0.1-3.4-0.1-6.8,0.1-10.2c0.1-1.6,0.2-2.2-1.4-2.6
					c-1.9-0.4-4.1-0.2-6.1-0.1c-1.1,0-2.2,0.1-3.4,0.1c-0.5,0-0.9,0-1.3,0c-0.4,0-0.7-0.3-0.6,0.1
					C124.4-1824.6,123.5-1824.3,123.7-1823.7L123.7-1823.7z"/>
			</g>
		</g>
		<g>
			<g>
				<path class="st3" d="M184.9-1848.2c3.9-3.1,7.9-0.3,8.6,4.1c0.5,3.3,0.4,6.8,0.2,10.1c-0.3,6.8-1.4,13.5-1.4,20.2
					c0.3,0,0.7-0.1,1-0.1c-0.1-0.4-0.2-0.5-0.5-0.8c-0.4-0.5-1.2,0.2-0.7,0.7c0.1,0.1,0.1,0.2,0.2,0.4c0.2,0.5,1,0.5,1-0.1
					c0-9.6,2.1-19.1,1.3-28.8c-0.2-2.6-0.7-5.2-2.9-6.9c-2.5-1.9-5.2-1.3-7.5,0.5C183.7-1848.5,184.4-1847.8,184.9-1848.2
					L184.9-1848.2z"/>
			</g>
		</g>
		<g>
			<g>
				<path class="st3" d="M178.4-1861.3c-2.4,0.9-4.5,2.8-6.5,4.4c-2.5,2.1-4.7,4.4-6.4,7.2c-4.1,6.6-5.8,14.7-5.8,22.5
					c0,13.4,8.8,27,22.6,29.6c8.6,1.6,15.9-2.5,22.1-8.1c0.5-0.4-0.2-1.1-0.7-0.7c-5.6,5-12,9-19.8,8c-6.3-0.8-11.9-4.3-16-9
					c-9.1-10.5-9.1-26.7-3.2-38.9c1.6-3.3,3.7-6.3,6.5-8.7c2.2-2,4.7-4.3,7.5-5.4C179.3-1860.6,179-1861.6,178.4-1861.3
					L178.4-1861.3z"/>
			</g>
		</g>
		<path class="st4" d="M262.8-1863.5c-2.4,1.3-6,2.7-7.4,5.1c-0.5,0.8-19.2,56.3-18.6,57.3c0.7,1.3,13,3.1,14.4,2.3
			c1.3-0.7,2.5-2.3,4.1-4.9"/>
		<path class="st4" d="M297.2-1803.9c-0.5,1.7-1.9,3.2-3.1,4.4c-0.9,0.8-14.6,0.7-15.2,0c-1.2-1.2-3.9-10.2-4.4-10.6
			c-1.2-0.9-4.6-0.6-6.8-0.6c-3.5,0-6.7-0.2-10.1-0.3"/>
		<path class="st4" d="M265.6-1839.6c1.3,4.9,3.1,8.2,4.9,13"/>
		<path class="st4" d="M303.7-1863.5c-2.5,2.6-5.5,5.2-5.8,6c-0.3,0.9,1.2,58.2,1.8,58.5c0.3,0.2,12.4,0.3,13.2-0.3
			c0.9-0.6,2.1-2.8,2.6-4.3"/>
		<path class="st4" d="M315.9-1830c0.6,1.8,8.1,29.6,9.1,31c0.1,0.1,10,1.3,11.4,0.5c1.3-0.8,2.2-2.8,3.5-5"/>
		<path class="st4" d="M349.1-1835.4c0.1,10.6,0.1,35,0.8,36c0.8,1.2,15.3,1.2,15.5,0.8c1.5-2.4,2.2-3.1,3.8-5.5"/>
		<path class="st4" d="M347.2-1863.5c-1.9,1.1-7.1,5.2-7.7,5.9c-0.4,0.5-4.7,15.1-5.6,23"/>
		<path class="st4" d="M403.8-1863c-2.2,1.9-5.7,4.9-6.2,6.8c-0.5,1.9-0.8,54.9,0.3,57.8c0.2,0.4,10.1,1.2,13.2,0.8
			c1.8-0.2,5.2-3.3,6.7-6.3"/>
		<path class="st4" d="M434.8-1861.5c-7.5,2.6-13.4,8.9-13.7,16.8c-0.1,1.2,0,3.6,0.8,4.6c0.6,0.7,9.2,1.4,10.6,1.1
			c0.7-0.1,3-1.9,4-3.9"/>
		<path class="st4" d="M438.3-1849.3c2.1-0.9,4.9-1.5,7.1-0.7c1.4,0.5,2.4,1.9,2.8,3.3c0.3,0.8,0,1.8-0.1,2.7
			c-0.4,2.8-1.2,5.5-2.3,8"/>
		<path class="st4" d="M443-1835c-1.6,1.1-3.8,2.6-5.2,4.1c-0.8,0.8-1.5,1.7-2,2.7c-1.1,2.1-0.8,9.3-0.1,10.1
			c0.6,0.6,9.5,1.4,10,1.3c2.1-0.7,4.3-2.4,5-4.2"/>
		<path class="st4" d="M439.6-1816.4c-1.1,1-4.5,3.8-4.8,4.5c-0.3,0.8-0.1,12.3,1,13c0.6,0.4,12.8,0.2,13.8-0.5c0.6-0.5,3.2-3,4-4.5
			"/>
		<path class="st4" d="M397.1-1850"/>
		<path class="st4" d="M456.2-1804.3"/>
		<path class="st4" d="M27.6-1859.8c-1.6,3.3-2.9,6.2-4.3,9.6"/>
		<path class="st4" d="M29.6-1852.2c-1.6,3.6-2.8,6.9-4,10.7"/>
		<path class="st4" d="M31.9-1842.2c-1.7,3-3.1,5.7-4.3,8.8"/>
		<path class="st4" d="M34.1-1833.5c-1.6,2.6-3,5.2-4.3,7.9"/>
		<path class="st4" d="M36.9-1823.4c-1.3,2.8-2.9,6.3-4,9.2"/>
		<path class="st4" d="M38.7-1815.4c-1.3,2.8-2.5,5.7-3.6,8.6c0-0.1,0-0.2,0.1-0.3"/>
		<path class="st4" d="M41.1-1806.9c-1.2,2.3-2.5,4.6-3.8,6.8"/>
		<path class="st4" d="M44.3-1803c-1,1.4-1.9,2.8-2.7,4.3c0-0.1,0-0.1,0.1-0.2"/>
		<path class="st4" d="M48.7-1803.2c-0.9,1.3-1.8,2.8-2.5,4.2c0,0,0-0.1,0-0.1"/>
		<path class="st4" d="M52.8-1803.2c-0.8,1.2-1.6,2.4-2.3,3.7"/>
		<path class="st4" d="M60.1-1862.9c-2.3,1.4-4.6,2.9-6.9,4.4"/>
		<path class="st4" d="M58.3-1857.5c-2.5,1.6-4.4,3.1-6.7,4.9"/>
		<path class="st4" d="M56.8-1850.2c-2.3,1.2-4.4,2.4-6.8,3.6"/>
		<path class="st4" d="M55.2-1844.4c-2.2,1.4-3.9,2.1-6.3,3.3"/>
		<path class="st4" d="M53.7-1837.6c-1.6,1.7-3.9,2.6-5.8,4c0.1-0.1,0.2-0.1,0.3-0.2"/>
		<path class="st4" d="M52.3-1831.4c-0.3,0.2-0.6,0.5-0.9,0.7c-1.1,0.8-2.1,1.6-3.2,2.4c0,0,0.1,0,0.1-0.1"/>
		<path class="st4" d="M67.1-1836c-1.5,1.8-3.3,3.9-4.6,5.8"/>
		<path class="st4" d="M68.5-1830.2c0,0.2-0.2,0.4-0.4,0.6c-1.7,1.9-3.1,3.5-4.8,5.4"/>
		<path class="st4" d="M70.3-1823c-1.9,1.8-3.9,4-5.6,6.1"/>
		<path class="st4" d="M71.7-1816.3c-1.8,2.3-3.4,4.2-5.3,6.4"/>
		<path class="st4" d="M73.7-1809.6c-1.1,1.3-2.1,2.5-3.2,3.8c-0.8,0.9-1.6,1.9-2.2,2.9"/>
		<path class="st4" d="M74.8-1804.3c-1.6,1.8-3.2,3.6-4.8,5.4"/>
		<path class="st4" d="M81.3-1803.4c-1.5,1.4-3.3,3.7-4.3,5.5"/>
		<path class="st4" d="M86.1-1803.1c-1.4,1.6-2.7,3.4-3.9,5.1"/>
		<path class="st4" d="M92-1861.4c-2,1.5-3.9,3.1-5.6,4.9"/>
		<path class="st4" d="M90.4-1855.6c-1.8,1.5-3.9,3.2-5.6,4.7"/>
		<path class="st4" d="M88.7-1849c-2.1,1.6-3.9,3.2-5.9,5"/>
		<path class="st4" d="M87.4-1842.8c-2.2,1.5-3.9,2.7-6.1,4.3"/>
		<path class="st4" d="M86.2-1837.1c-1.9,1-3.8,2.1-5.7,3.3"/>
		<path class="st4" d="M85.3-1831.9c-1.2,0.9-2.4,1.7-3.5,2.6c0.1,0,0.2,0,0.2-0.1"/>
		<path class="st4" d="M110.3-1858.3c-2.1,2.1-4,4.3-6,6.6"/>
		<path class="st4" d="M110.5-1851.9c-2.1,2.1-4,4-6.1,6.2"/>
		<path class="st4" d="M110.8-1844.8c-2.3,2.1-4,3.9-6.1,6.2"/>
		<path class="st4" d="M110.6-1838.5c-2,2.1-4,4.2-5.9,6.4c0.1-0.1,0.2-0.3,0.3-0.4"/>
		<path class="st4" d="M110.6-1831.5c-1.9,2.3-3.6,4.2-5.7,6.3"/>
		<path class="st4" d="M110.6-1825.7c-1.8,2.1-3.6,4.3-5.4,6.4"/>
		<path class="st4" d="M110.7-1817.3c-1.6,2.3-3.4,4.4-5.3,6.4"/>
		<path class="st4" d="M110.5-1809.2c-1.5,1.7-3.4,4-4.8,5.8"/>
		<path class="st4" d="M111.4-1804.8c-1.4,1.9-2.8,3.8-4.1,5.7"/>
		<path class="st4" d="M116.2-1803.3c-1.1,1.1-3,3.3-3.9,4.6"/>
		<path class="st4" d="M121.3-1803.4c-1.2,1.5-2.3,3.1-3.2,4.8"/>
		<path class="st4" d="M143-1858.9c-2.1,1.7-3.8,3.3-5.8,5.1"/>
		<path class="st4" d="M143.4-1853.8c-2,1.5-4.3,3.4-6.1,5.1"/>
		<path class="st4" d="M143.6-1847.4c-2,1.5-4.3,3.2-6.3,4.8"/>
		<path class="st4" d="M143.6-1842.8c-1,1.1-2.4,2.3-3.4,3.3c0,0-0.1,0.1-0.1,0c0,0,0-0.1,0,0"/>
		<path class="st4" d="M129.6-1828.7c-1.7,1.3-3.9,3.3-5.3,4.9c0.1,0,0.1-0.1,0.2-0.2"/>
		<path class="st4" d="M135.4-1828.6c-0.5,0.2-1.4,0.8-1.9,1.2c-1.1,1-2.2,2-3.3,3c0.1,0,0.2-0.1,0.2-0.3"/>
		<path class="st4" d="M140-1828.4c-1.7,1.4-3.2,2.9-4.6,4.5"/>
		<path class="st4" d="M143.2-1826.2c-2.1,1.8-4.2,3.6-6.1,5.6"/>
		<path class="st4" d="M143.1-1820.6c-2.2,2-4.1,3.7-6.3,5.7"/>
		<path class="st4" d="M143-1813.7c-2.1,1.8-4.1,3.6-6.2,5.3"/>
		<path class="st4" d="M143-1807.8c-2,1.8-3.8,3.8-5.6,5.8"/>
		<path class="st4" d="M145.2-1803.2c-1,1.1-2.1,2.2-3.1,3.3c-0.2,0.3-0.5,0.5-0.6,0.9"/>
		<path class="st4" d="M150.1-1802.9c-0.8,1.3-2,2.9-3,4.2"/>
		<path class="st4" d="M171.2-1853.2c-1.6,1-3.4,2.2-5,3.3"/>
		<path class="st4" d="M168.7-1847.4c0,0.1,0.1-0.1,0.1-0.1c-0.1,0-0.2,0-0.2,0.1c-1.6,1.2-3.3,2.4-4.9,3.7c-0.4,0.3-0.7,0.5-1,0.9"
			/>
		<path class="st4" d="M166.8-1840.7c-2,1.6-3.9,3.2-5.9,4.8"/>
		<path class="st4" d="M166.3-1834.6c-2.1,1.9-4,3.6-6.1,5.5"/>
		<path class="st4" d="M166.6-1827.8c-2.2,2-4,3.8-6,5.8"/>
		<path class="st4" d="M167.7-1820.8c-1.8,1.7-3.6,3.4-5.4,5"/>
		<path class="st4" d="M170.2-1815.9c-1.9,1.9-3.3,3.4-5.2,5.3"/>
		<path class="st4" d="M174.6-1810.3c-1.7,1.6-3.4,3.3-5.1,4.9"/>
		<path class="st4" d="M179.6-1806.3c-1.7,1.7-3.4,3.4-5.1,5.1c-0.1,0.1-0.4,0-0.3-0.2c0.1-0.2,0.4-0.1,0.3,0.1"/>
		<path class="st4" d="M184.7-1803.9c-1.6,1.5-3.4,3.5-5,5"/>
		<path class="st4" d="M191.2-1802.7c-1.2,1.3-3.2,3.5-4.2,5"/>
		<path class="st4" d="M196.8-1803.2c-1.1,1.1-2.1,2.4-2.9,3.8"/>
		<path class="st4" d="M193.5-1852.8c-0.4,0-0.7,0.3-1,0.6c-0.8,0.8-1.6,1.6-2.4,2.4"/>
		<path class="st4" d="M198.3-1850.9c-1.6,1.6-3.1,3.2-4.5,4.8"/>
		<path class="st4" d="M200.8-1847.6c-2.4,2.1-4.6,4.4-6.7,6.8"/>
		<path class="st4" d="M202.3-1842.1c-1.2,1.5-2.4,2.9-3.8,4.2c-1.4,1.3-3.1,2.4-4.1,4c0-0.2,0.1-0.3,0.1-0.5"/>
		<path class="st4" d="M203-1835.1c-3.4,3.6-6.6,7.3-9.7,11.1"/>
		<path class="st4" d="M202.5-1828.1c-2.9,3.4-6,6.6-9.3,9.6"/>
		<path class="st4" d="M200.7-1820.6c-2.4,2-4.8,4.1-6.8,6.4"/>
		<path class="st4" d="M260.6-1858.2c-2.3,1.5-4.7,3.1-7,4.6"/>
		<path class="st4" d="M257.7-1850.3c-1.9,1.1-3.8,2.2-5.7,3.5c-0.2,0.2-0.5,0.3-0.6,0.5c0.1-0.1,0.1-0.2,0.2-0.2"/>
		<path class="st4" d="M256.2-1844.4c-2.2,1.3-4.6,2.4-7,3.3c0,0.1,0.2,0.1,0.2,0"/>
		<path class="st4" d="M254.2-1838.4c-2.2,1.3-4.4,2.6-6.6,3.9c0.1,0,0.3-0.1,0.4-0.1"/>
		<path class="st4" d="M251.6-1830.6c-2.4,1-4.6,2.2-6.8,3.5c0.1,0,0.2,0,0.2-0.1"/>
		<path class="st4" d="M249.7-1825c-2.3,2-5.3,3.1-7.5,5.2"/>
		<path class="st4" d="M247.4-1818.9c-1.8,1.1-3.6,2.2-5.5,3.1c-0.6,0.3-1.2,0.6-1.7,1.1c0.1,0,0.1-0.1,0.2-0.1"/>
		<path class="st4" d="M245.6-1812.2c-2.2,1.3-4.3,2.6-6.5,4"/>
		<path class="st4" d="M237-1801.7c1.9-1.5,4.1-2.8,6.3-3.7"/>
		<path class="st4" d="M242.3-1799.9c-0.1,0,0-0.2,0-0.2c1.3-1,2.5-2,3.9-2.9"/>
		<path class="st4" d="M248.3-1799.1c0.7-1.2,1.8-2.1,2.9-2.9c0.3-0.3,0.7-0.5,1-0.8"/>
		<path class="st4" d="M265.8-1838.8c1.1-1.6,2.6-3,4.2-4.2"/>
		<path class="st4" d="M267.4-1835.4c1.3-1.3,2.6-2.5,4.1-3.5"/>
		<path class="st4" d="M269.2-1830c-0.2-0.1,0-0.4,0.1-0.5c1-1.3,2.2-2.4,3.5-3.3"/>
		<path class="st4" d="M271-1826.6c1.2-1,2.5-1.9,3.8-2.7"/>
		<path class="st4" d="M258.7-1811.3c1.3-1.4,2.7-2.7,4.1-4"/>
		<path class="st4" d="M264.3-1810.5c0-0.4,0.3-0.7,0.6-1c1.2-1.3,2.5-2.6,3.7-3.9c0.2-0.3,0.5-0.5,0.7-0.7c0,0,0.1-0.1,0.1-0.1
			c0,0,0.1,0.1,0,0.1"/>
		<path class="st4" d="M269.9-1810.6c1.6-1.9,3.3-3.8,5.1-5.6"/>
		<path class="st4" d="M274.9-1809.8c0-0.3,0.2-0.6,0.4-0.8c1.2-1.2,2.5-2.5,3.8-3.7"/>
		<path class="st4" d="M276.1-1804.6c1.3-1.4,2.7-2.7,4.1-4"/>
		<path class="st4" d="M278.5-1800.1c0.9-1.4,2.1-2.7,3.5-3.7"/>
		<path class="st4" d="M283.6-1798.9c0.1-0.3,0.3-0.5,0.4-0.7c0.8-0.9,1.6-1.8,2.4-2.7c0.2-0.3,0.5-0.6,0.8-0.8"/>
		<path class="st4" d="M288.8-1799c-0.1,0-0.1-0.2,0-0.3c0.8-1.4,1.7-2.7,2.6-4"/>
		<path class="st4" d="M291.9-1798.9c-0.1,0-0.1-0.2,0-0.3c0.8-1.4,1.6-2.8,2.4-4.2"/>
		<path class="st4" d="M298.2-1852.4c1.4-2,3.1-3.8,4.9-5.4"/>
		<path class="st4" d="M298.3-1846.5c1.5-2,3.1-3.9,4.8-5.7"/>
		<path class="st4" d="M298-1841.1c0.6-0.6,1.2-1.3,1.8-1.9c1.1-1.1,2.1-2.3,3.3-3.3c0,0,0.1-0.1,0.2,0c0.1,0,0,0.1,0,0.1"/>
		<path class="st4" d="M298.4-1834c1.5-2.1,3.2-4.1,5-5.9"/>
		<path class="st4" d="M298.9-1828.6c1.3-1.9,3-3.6,4.8-4.9"/>
		<path class="st4" d="M298.9-1820.8c0.7-1.3,1.7-2.4,2.7-3.5c0.6-0.7,1.3-1.4,1.9-2c0,0,0.1-0.1,0.2-0.1c0.1,0,0,0.1,0,0.1"/>
		<path class="st4" d="M299.1-1814.8c1.5-1.8,3.1-3.5,4.8-5.2"/>
		<path class="st4" d="M299.9-1807.7c1.1-1.7,2.5-3.2,4-4.5"/>
		<path class="st4" d="M299.5-1800.6c1.2-1.5,2.6-3,4-4.3"/>
		<path class="st4" d="M303.7-1799c1.2-1.3,2.3-2.6,3.5-3.9"/>
		<path class="st4" d="M310-1798.8c0.8-1.5,1.8-2.9,3-4.1c-0.1,0.1-0.2,0.1-0.2,0.2"/>
		<path class="st4" d="M316-1835.9c0.7-1.4,1.6-2.7,2.6-3.9"/>
		<path class="st4" d="M316.2-1828.7c1.1-2,2.3-4,3.6-5.8"/>
		<path class="st4" d="M317.9-1823.3c1.2-1.7,2.3-3.3,3.6-4.9c0.1-0.1,0.3-0.2,0.3,0"/>
		<path class="st4" d="M319.5-1817.5c1.3-1.8,2.6-3.6,4-5.3"/>
		<path class="st4" d="M321.2-1810.7c1.2-1.9,2.6-3.8,4.1-5.4"/>
		<path class="st4" d="M322.9-1804.5c0.4-0.4,0.7-0.9,1.1-1.3c1.1-1.6,2.4-3.1,3.9-4.4c-0.1,0.1-0.3,0.1-0.4,0.2"/>
		<path class="st4" d="M325.5-1798.7c1.3-1.7,2.7-3.4,4.2-4.8c0,0,0.1-0.1,0.1,0c0,0,0,0.1,0,0.1"/>
		<path class="st4" d="M332.4-1797.9c1.4-1.7,2.6-3.5,3.6-5.4"/>
		<path class="st4" d="M338.6-1854.1c1.8-1.5,3.8-2.8,5.9-3.7"/>
		<path class="st4" d="M336.5-1847.7c2.2-1.4,4.4-2.8,6.6-4.2"/>
		<path class="st4" d="M335.2-1842.2c2.2-1.7,4.5-3.3,6.8-4.8c0,0,0.1-0.1,0.1-0.1c0-0.1-0.1,0-0.1,0"/>
		<path class="st4" d="M334.3-1836.8c2.2-1.7,4.5-3.4,6.8-5c-0.2,0-0.4,0-0.6,0.1"/>
		<path class="st4" d="M334.7-1832c1.5-1.3,3-2.5,4.7-3.6c-0.1,0-0.3,0-0.4-0.1"/>
		<path class="st4" d="M351.4-1841.4c0.9-0.6,1.9-1.3,2.8-1.9c0.1-0.1,0.4-0.2,0.5,0"/>
		<path class="st4" d="M349.3-1834c1.4-1.7,3.2-3.1,5.1-4.1"/>
		<path class="st4" d="M349.1-1826.6c1.9-1.6,3.8-3.2,5.8-4.8"/>
		<path class="st4" d="M349.2-1820.6c1.8-2.1,3.7-4,5.7-5.9"/>
		<path class="st4" d="M348.9-1813c1.5-2.5,4.2-4,6-6.3c-0.2,0.2-0.4,0.3-0.6,0.5"/>
		<path class="st4" d="M349.8-1806.3c1.6-1.6,3.2-3.1,5-4.5c-0.1,0.1-0.2,0.2-0.4,0.3"/>
		<path class="st4" d="M349.8-1799.1c1.4-1.7,3-3.3,4.6-4.7"/>
		<path class="st4" d="M355.7-1798.3c1.5-1.8,3.2-3.6,4.8-5.3"/>
		<path class="st4" d="M360.6-1797.9c1.3-1.8,2.9-3.6,4.6-5.1"/>
		<path class="st4" d="M397.4-1850.5c1.9-2.1,4-4.1,6.2-5.8"/>
		<path class="st4" d="M396.9-1843.4c2.1-2.3,4.4-4.5,6.8-6.5c0.2-0.2,0.5,0.1,0.4,0.3s-0.5,0-0.5-0.2"/>
		<path class="st4" d="M397.2-1837.3c2-1.9,4.2-3.6,6.4-5.3"/>
		<path class="st4" d="M397.3-1829.8c1.9-2.1,4-4,6.2-5.8"/>
		<path class="st4" d="M396.9-1821.7c2.1-2.4,4.3-4.6,6.6-6.8c0,0,0.1-0.1,0.1-0.2c0-0.1-0.1,0-0.1,0.1"/>
		<path class="st4" d="M397.1-1814.1c1.8-2,4.2-3.8,6.3-5.4c-0.1,0.1-0.2,0.1-0.3,0.2"/>
		<path class="st4" d="M397.4-1807.8c2.1-2,3.8-3.6,5.9-5.5"/>
		<path class="st4" d="M397.5-1801.4c2-2,4-4.1,6-6"/>
		<path class="st4" d="M401-1797.9c1.9-1.7,3.9-4,5.9-5.4"/>
		<path class="st4" d="M407.3-1797.5c2.1-1.7,4-3.6,5.8-5.6"/>
		<path class="st4" d="M423.9-1853.2c1.6-1.1,3.2-2,5-2.7c-0.1,0-0.2,0.1-0.3,0.1"/>
		<path class="st4" d="M421.3-1846.9c0.3-0.5,0.8-1,1.2-1.4c1.4-1.2,2.9-2.3,4.5-3.3"/>
		<path class="st4" d="M421.5-1840.8c1.3-1.4,2.8-2.8,4.2-4.1"/>
		<path class="st4" d="M426.9-1839.2c0-0.3,0.3-0.6,0.5-0.8c1.3-1.2,2.7-2.3,4.1-3.3"/>
		<path class="st4" d="M442.3-1850.2c1.5-1.3,3.1-2.4,4.8-3.3"/>
		<path class="st4" d="M447.8-1848.4c1.4-0.9,2.7-1.9,4.1-2.8c0,0,0.1-0.1,0.1-0.1c0,0-0.1,0-0.1,0"/>
		<path class="st4" d="M447.9-1842.6c1.6-1.2,3.7-2.4,5.4-3.4c-0.1,0-0.2,0-0.3,0"/>
		<path class="st4" d="M435.2-1826.5c1.6-1.3,3.3-2.4,5.1-3.2c-0.1,0.1-0.2,0.1-0.4,0.2"/>
		<path class="st4" d="M435.2-1821.2c1.4-1.4,3-2.8,4.6-4"/>
		<path class="st4" d="M436.8-1817.7c1.1-1,2.8-2.3,3.9-3.3"/>
		<path class="st4" d="M442.5-1817c1.3-1.3,3.2-3.1,4.6-4.3"/>
		<path class="st4" d="M434.6-1807.8c1.7-1.6,3.8-3.4,5.6-4.8"/>
		<path class="st4" d="M435.1-1801.2c1.3-1.6,2.8-3.2,4.2-4.7"/>
		<path class="st4" d="M438.7-1798.8c1.3-1.7,2.7-3.2,4.3-4.7"/>
		<path class="st4" d="M445-1798.7c0.9-1.4,2.7-3.5,3.9-4.7"/>
		<g>
			<path class="st5" d="M41-1863.1c1,4.2,9.3,40,9.3,40s9.5-40.5,9.8-40.5c6.5,0.2,12.8-0.6,12.9,0c0.7,3.2,10.5,40.6,10.5,40.6
				s7.3-37.5,9.1-40.6c0.5-0.8,11.3-0.3,11.3,0.4c0,1.1-12.3,54.1-14.9,59.4c-0.7,1.4-5.4,0-13.9,0.1c-0.3,0-9.8-39.6-9.8-39.6
				s-8.7,38.5-9.4,39.6c-0.3,0.4-13.4,1-13.8,0.2c-3-7.8-15.1-59.2-15.1-59.4C27-1863.4,39.8-1863.4,41-1863.1"/>
			<g>
				<path class="st3" d="M40.5-1862.9c3.2,13.3,6.2,26.7,9.3,40c0.1,0.5,0.9,0.5,1,0c2.8-12.1,5.6-24.2,8.7-36.3c0.3-1,0.5-2,0.8-3
					c0.5-1.7,0.9-0.8,2.8-0.8c2.8,0,5.6-0.3,8.4-0.2c1.5,0,1.1-0.1,1.5,1.4c1.7,7,3.6,14,5.4,21c1.6,6,3.1,12.1,4.7,18.1
					c0.1,0.5,0.9,0.5,1,0c2.2-11.1,4.3-22.2,7-33.2c0.5-2,0.8-4.6,1.7-6.4c0.5-1,0.9-0.9,2.2-1c1.7-0.1,3.5,0,5.3,0.1
					c0.8,0.1,1.6,0.1,2.3,0.2c0.4,0.1,1.2,0.5,0.9-0.1c0,0.1-0.2,0.9-0.2,1.1c-0.4,1.9-0.8,3.7-1.2,5.6c-3.1,13.5-6.3,27-9.8,40.4
					c-0.7,2.7-1.4,5.4-2.2,8c-0.4,1.2-0.7,3.8-1.9,4.4c-1.2,0.5-3.6,0-4.8-0.1c-1.2-0.1-2.4-0.2-3.6-0.2c-0.9,0-1.7-0.1-2.6-0.1
					c0.6,0-1.7,0-1.5,0.2c-0.7-0.6-1-3.6-1.2-4.4c-3-11.7-5.8-23.4-8.6-35.1c-0.1-0.5-0.9-0.5-1,0c-1.7,7.7-3.5,15.4-5.3,23.1
					c-1.1,4.6-2.1,9.2-3.3,13.7c-0.1,0.5-0.5,2.4-0.7,2.6c-0.7,0.6-4.8,0.3-6,0.4c-1.3,0-2.6,0.1-3.9,0.1c-0.6,0-2.5,0.2-3.1-0.2
					c-0.6-0.4-0.9-2.9-1.2-3.7c-1.3-4.5-2.5-9.1-3.7-13.7c-2.8-10.9-5.4-21.9-8-32.9c-0.5-2-0.9-4-1.4-5.9c-0.2-0.8-0.7-2-0.7-2.9
					c0-0.4-0.4,0.4-0.1,0.4c0.5,0,1-0.1,1.5-0.1c1.4-0.1,2.9-0.1,4.3-0.1c2.4,0,5.2-0.3,7.6,0.2c0.6,0.1,0.9-0.8,0.3-1
					c-2.1-0.5-4.5-0.3-6.6-0.3c-2.1,0-5.3-0.5-7.3,0.3c-1.5,0.6-0.1,3.3,0.2,4.5c2.6,11.2,5.3,22.4,8.1,33.5
					c1.4,5.4,2.7,10.9,4.3,16.3c0.5,1.7,0.9,3.3,1.5,5c0.5,1.4,1,1.5,2.5,1.6c2.8,0.2,5.7,0,8.6-0.1c1-0.1,3.2,0.2,3.9-0.7
					c0.5-0.6,0.7-2.1,0.9-2.9c0.6-2.2,1.1-4.4,1.6-6.6c2.4-10,4.7-20.1,7-30.2c-0.3,0-0.6,0-1,0c2.8,11.5,5.5,23,8.4,34.4
					c0.4,1.4,0.5,3.8,1.3,5c0.5,0.7,0.6,0.5,1.5,0.6c3.2,0,6.3,0.3,9.4,0.4c2,0.1,3.5,0.3,4.3-1.7c0.8-2,1.4-4.2,2-6.3
					c4-14.4,7.4-29.1,10.8-43.7c0.5-2.2,1-4.5,1.5-6.7c0.2-0.8,0.7-1.9,0-2.6c-0.5-0.5-2.3-0.5-2.9-0.5c-2-0.2-4-0.3-6-0.2
					c-2.1,0.1-2.8,0.2-3.5,2.1c-2.4,7.2-3.7,15-5.2,22.4c-1.2,5.6-2.3,11.2-3.4,16.8c0.3,0,0.6,0,1,0c-3.4-13-6.8-25.9-10.1-38.9
					c-0.1-0.5-0.2-1.6-0.6-1.9c-1-0.9-4-0.2-5.1-0.2c-1.9,0.1-3.8,0.1-5.7,0.1c-0.7,0-2.2-0.4-2.8,0.2c-0.3,0.3-0.3,0.9-0.4,1.3
					c-1.9,6.8-3.4,13.7-5,20.6c-1.5,6.3-3,12.5-4.4,18.8c0.3,0,0.6,0,1,0c-3.1-13.3-6.1-26.7-9.3-40
					C41.3-1863.8,40.4-1863.6,40.5-1862.9L40.5-1862.9z"/>
			</g>
		</g>
		<g>
			<path class="st5" d="M110.5-1863.5c0,12.2,0.2,46.4,0.2,59.8c0,0.5,7.1,0.7,13.7,0.2c1-0.1-1-15.3,0-24.7c0,0,11.2-0.8,18.7,0.1
				c0.2,4.4-0.8,23.5,0,24.7c0.3,0.4,13.8,0.8,13.7-0.1c-0.4-3.3,0.8-51.3-0.2-59.9c-0.1-0.5-6.5-0.2-12.7,0c-0.6,0-1,0.5-1,1.1
				c0.2,4.4,1,21.8,0.2,22.3c-1.9,1-16.9,0.7-18.6,0.1c-1.3-0.5,0.1-22.8-0.2-23.4C124-1864.5,111.8-1863.4,110.5-1863.5"/>
			<g>
				<path class="st3" d="M110-1863.5c0,13.8,0.1,27.5,0.1,41.3c0,3.5,0,6.9,0,10.4c0,1.4,0,2.8,0,4.2c0,1-0.4,3.1,0,3.9
					c0.6,1.4,3.7,0.9,4.9,1c2.4,0,4.7,0,7.1-0.1c0.8,0,2.3,0.3,2.8-0.5c0.9-1.2,0.2-4.3,0.1-5.6c-0.2-3.8-0.4-7.6-0.5-11.4
					c0-2,0-3.9,0.1-5.9c0-0.4,0.1-1.7-0.2-1.4c0.1-0.1,1-0.1,1.2-0.1c3.4-0.2,6.8-0.3,10.2-0.2c1.9,0,3.9,0,5.9,0.3
					c1.2,0.1,0.6-0.3,0.9,0.4c0.2,0.4,0,1.3,0,1.8c0,2.9-0.1,5.8-0.2,8.7c-0.1,3.1-0.1,6.2-0.1,9.3c0,1-0.3,3.6,0.4,4.4
					c0.7,0.8,2.9,0.6,3.8,0.6c2.6,0.1,5.3,0.2,8,0c1-0.1,2.5,0.1,2.8-1c0.2-0.7-0.1-2.1-0.1-2.9c-0.1-10.9,0.2-21.7,0.3-32.6
					c0-5.6,0.1-11.3,0-16.9c0-1.9-0.1-3.9-0.2-5.8c-0.1-1.2,0.1-2.1-1.1-2.5c-1.4-0.4-3.3-0.1-4.7-0.1c-2.4,0.1-5.3-0.3-7.6,0.2
					c-2,0.5-1.4,3-1.3,4.6c0.2,5.8,0.7,11.6,0.3,17.4c0,0.7,0,1.2-0.5,1.6c-0.8,0.5-2.6,0.3-3.5,0.4c-3,0.2-6,0.1-9,0
					c-1.2,0-4.7,0.3-5.3-0.8c-0.3-0.6-0.2-1.9-0.2-2.5c0-1.3,0-2.6,0-3.9c0-5,0.4-10.1,0.4-15.1c0-1,0.1-1.4-0.9-1.8
					c-2-0.7-5-0.1-7.1,0c-2.1,0.1-4.4,0.4-6.5,0.3c-0.6,0-0.6,1,0,1c3.2,0.2,6.4-0.3,9.6-0.4c0.7,0,3.7-0.2,3.8,0c0.3,0.3,0,2,0,2.4
					c-0.2,6.4-1,13.2-0.2,19.6c0.2,1.8,0.9,1.9,2.6,2.1c3.7,0.4,7.5,0.4,11.2,0.3c1.4,0,5.2,0.4,6.1-1c0.4-0.5,0.3-1.7,0.3-2.3
					c0.1-1.8,0-3.7,0-5.5c-0.1-3.9-0.2-7.8-0.4-11.8c0-0.6-0.2-1.5-0.1-2.1c0.4-1.7,2.7-1.4,4.2-1.4c1.4,0,2.8-0.1,4.2-0.1
					c1.2,0,2.9-0.3,4,0.1c0.6,0.2,0.2-0.3,0.3,0.5c0.1,0.4,0.1,0.8,0.1,1.2c0.1,1.3,0.1,2.6,0.1,3.9c0.1,3.3,0.1,6.6,0.1,9.9
					c0,14.1-0.6,28.2-0.3,42.3c0,0.3,0.1,0.7,0,1.1c-0.1,0.7,0.1,0.2-0.1,0.4c-0.9,0.7-3.7,0.3-4.8,0.3c-2,0-4,0-6.1-0.2
					c-1.3-0.1-1.9,0.2-1.9-1c-0.1-7.8,0.4-15.7,0.2-23.5c0-0.3-0.2-0.5-0.5-0.5c-6.2-0.6-12.5-0.5-18.7-0.1c-0.3,0-0.5,0.2-0.5,0.5
					c-0.7,6.9,0,13.9,0.2,20.8c0,0.8,0.3,2.2,0,2.9c-0.3,0.8-0.7,0.6-1.6,0.6c-1.3,0.1-2.7,0.1-4,0.1c-1.8,0-3.7,0-5.5-0.1
					c-1.7-0.1-2,0.1-2-1.5c0-13-0.1-26.1-0.1-39.1c0-6.3,0-12.7,0-19C111-1864.2,110-1864.2,110-1863.5L110-1863.5z"/>
			</g>
		</g>
		<g>
			<path class="st5" d="M217.2-1833.6c-0.4-20.1-10.5-30.3-25-30.9c-34.1-1.1-35.7,60.6-0.8,61.8
				C207.6-1802.2,217.5-1816.9,217.2-1833.6z M192.1-1814.1c-17.4,1.1-13.2-40-0.7-38.9c10.1-0.8,11,12.7,11.1,14
				C203.3-1829.3,202.6-1814.8,192.1-1814.1z"/>
			<g>
				<path class="st3" d="M217.7-1833.6c-0.2-7.7-1.7-15.8-6.5-22c-3.9-5.1-9.7-8.2-16.1-9.1c-10.5-1.4-20.1,3.4-25.2,12.7
					c-9.5,17-4.1,46.1,18,49.5c7.9,1.2,15.8-1.1,21.3-6.9C215.3-1815.9,217.8-1824.9,217.7-1833.6c0-0.6-1-0.6-1,0
					c0.2,15.1-8.9,31.2-25.8,30.4c-10.3-0.5-18.3-7.2-22-16.6c-6.5-16.7-0.1-43.2,21.1-44.1c6.9-0.3,13.8,1.9,18.7,6.9
					c6,6.2,7.7,15.1,8,23.4C216.7-1833,217.7-1833,217.7-1833.6z"/>
				<path class="st3" d="M192.1-1814.6c-13.5,0.6-12-20.9-9.2-29.1c1.8-5.2,5-9.9,11.2-8.7c6.1,1.2,7.7,8.6,8.1,13.9
					C202.6-1830.5,202.8-1815.6,192.1-1814.6c-0.6,0.1-0.6,1.1,0,1c9.9-0.9,11.2-12.6,11.2-20.5c-0.1-5.9-0.5-13.8-5.7-17.7
					c-2.4-1.8-6.2-2.3-9-1.2c-2.4,1-4,3.2-5.2,5.4c-3.2,6.1-4.1,13.9-3.1,20.7c0.9,6.5,4.2,13.7,11.8,13.4
					C192.7-1813.7,192.7-1814.7,192.1-1814.6z"/>
			</g>
		</g>
		<g>
			<path class="st5" d="M278.3-1863.5c-0.4-0.3-13.2-0.5-16.4,0.4c-4.3,14.3-19.5,59.1-19,59.5c0.8,0.6,12.1,0.6,12.4,0
				c1.4-4.1,3.8-12.2,3.8-12.2s18.4-0.6,19.3,0c0.6,0.4,2.7,11.4,3.8,12.3c0.8,0.7,14.9,0.3,15,0
				C297.6-1804.5,279.5-1862.6,278.3-1863.5z M262.5-1826.9c-0.3-0.4,4.9-19,6.4-21.1c0.9,2.7,6.4,21.1,6.3,21.1
				C273.9-1826.5,262.7-1826.6,262.5-1826.9z"/>
			<g>
				<path class="st3" d="M278.6-1863.9c-1.1-0.5-2.6-0.3-3.7-0.3c-2.5-0.1-5.1,0-7.6,0.1c-1.3,0.1-4.5-0.3-5.6,0.6
					c-0.8,0.7-1.1,3.1-1.4,4.1c-3.1,9.9-6.4,19.7-9.6,29.5c-2.6,8-5.4,16.1-7.8,24.2c-0.4,1.4-1.1,2.5,0.8,2.8
					c2,0.3,4.1,0.3,6.1,0.2c1.4,0,4,0.3,5.3-0.3c1.3-0.7,1.5-3.2,1.9-4.5c0.7-2.3,2.1-5.1,2.3-7.6c0-0.2,0.1-0.5,0.2-0.6
					c0,0.1-0.7,0.4-0.3,0.3c0.5-0.1,1,0,1.6,0c2-0.1,4.1-0.1,6.1-0.2c2.3,0,4.6-0.1,6.8-0.1c0.9,0,3.6-0.4,4.4,0.2
					c0.3,0.3,0.5,1.7,0.6,2.1c0.3,1.2,0.6,2.4,0.9,3.6c0.5,1.9,0.8,4,1.7,5.7c1.2,2.2,6,1.3,8.1,1.3c2.1,0,4.3,0,6.4-0.2
					c0.6,0,1.5,0.1,1.8-0.5c0.4-0.9-0.8-3.5-1-4.3c-0.9-3.3-1.9-6.6-2.9-9.8c-2.7-8.9-5.4-17.8-8.3-26.6c-2-6.2-3.7-12.6-6.3-18.7
					c-0.2-0.4-0.3-0.8-0.6-1.1c-0.5-0.5-1.2,0.2-0.7,0.7c0.8,0.8,1.4,3.6,1.8,4.9c1.3,3.7,2.5,7.5,3.7,11.3c3,9.3,5.9,18.7,8.8,28
					c1.1,3.6,2.2,7.2,3.2,10.8c0.3,1.1,0.6,2.3,0.9,3.4c0.1,0.3,0.1,0.6,0.2,0.9c0.1,0.4,0.5-0.1,0-0.1c-4.2-0.3-8.5,0.5-12.8,0.1
					c-2.1-0.2-2.1-1.9-2.6-3.7c-0.7-2.3-1.2-4.7-1.8-7.1c-0.3-1.2-0.4-1.7-1.7-1.9c-2-0.4-4.3-0.2-6.4-0.2c-4.1,0-8.2,0.1-12.3,0.3
					c-0.2,0-0.4,0.2-0.5,0.4c-1.1,3.6-2.1,7.1-3.3,10.6c-0.3,0.8-0.2,1.1-0.9,1.5c-0.5,0.3-1.6,0.1-2.2,0.2c-1.9,0.1-3.8,0.1-5.7,0
					c-0.8,0-1.5,0-2.3-0.1c-0.6-0.1-1.1-0.4-0.9,0.2c-0.1-0.2,0.3-1.1,0.4-1.4c0.6-2.3,1.4-4.5,2.1-6.7c4.8-15.1,9.9-30.2,14.7-45.3
					c0.5-1.5,0.8-3.5,1.5-4.9c0.5-0.9,0.3-0.7,1.5-0.9c0.9-0.1,1.9-0.2,2.9-0.2c2.4-0.1,4.8-0.2,7.2-0.1c1.2,0,3.3-0.3,4.4,0.2
					C278.7-1862.8,279.2-1863.7,278.6-1863.9z"/>
				<path class="st3" d="M263-1827c-0.2-0.7,0.6-2.7,0.8-3.5c0.6-2.1,1.2-4.3,1.8-6.4c1-3.5,1.8-7.8,3.7-10.9
					c-0.3,0-0.6-0.1-0.9-0.1c2,6,3.7,12.1,5.5,18.2c0.3,0.9,0.4,1.8,0.7,2.7c0.2,0.5-0.3-0.2,0.3-0.3c-0.2,0-0.5,0.1-0.7,0.1
					c-0.6-0.1-1.5,0.1-2.2,0.1c-1.9,0-3.7,0-5.6,0c-0.9,0-2.8,0.3-3.6-0.2c-0.6-0.3-1.1,0.6-0.5,0.9c1.5,0.8,4.3,0.3,5.9,0.3
					c2.3,0,4.9,0.3,7.1-0.3c0.2-0.1,0.3-0.3,0.4-0.5c0.1-0.8-0.5-2.1-0.8-2.9c-0.6-2.2-1.3-4.4-1.9-6.6c-1.2-3.9-2.3-7.9-3.6-11.8
					c-0.1-0.4-0.7-0.5-0.9-0.1c-2.1,3.3-2.9,7.9-4,11.6c-0.7,2.3-1.3,4.6-1.9,6.9c-0.2,0.8-0.8,2.2-0.6,3.1
					C262.2-1826.1,263.1-1826.4,263-1827z"/>
			</g>
		</g>
		<g>
			<path class="st5" d="M303.7-1863.5c-0.4,12,0.3,48,0.2,60c0,0.5,3.7,1,11.7-0.1c1.1-0.1-0.1-49-0.1-49s12.8,47.4,14.9,48.9
				c0.8,0.6,9.5,0.5,9.6,0.1c2.4-10.6,14.9-49.7,14.9-49.7s-0.4,43.3,0.1,49.5c0.1,0.8,10.8,0.5,14.1-0.1c0.7-0.1,0.5-53,0-59.7
				c0,0-8.1-0.8-21.9,0c-1.2,0.1-10.5,38.2-10.5,38.2s-10.6-38-11-38.2C325-1863.7,307.3-1863.9,303.7-1863.5"/>
			<g>
				<path class="st3" d="M303.2-1863.5c-0.3,10.7-0.1,21.4,0,32c0,5.9,0.1,11.9,0.1,17.8c0,2.3,0,4.6,0,6.9c0,1-0.5,3,0.3,3.8
					c0.7,0.7,2.9,0.5,3.8,0.5c1.5,0,3.1-0.1,4.6-0.2c1-0.1,3.2,0.1,3.8-0.5c0.9-0.8,0.5-3.4,0.6-4.5c0.2-8.4,0-16.8-0.1-25.1
					c-0.1-6.6-0.2-13.1-0.4-19.7c-0.3,0-0.7,0.1-1,0.1c4,14.7,7.8,29.5,12.8,43.9c0.5,1.4,1,4.3,2.3,5.2c1.2,0.9,3.8,0.5,5.1,0.5
					c1.1,0,4,0.4,5-0.3c0.8-0.6,0.9-2.9,1.1-3.8c0.6-2.1,1.2-4.2,1.8-6.4c1.5-5.3,3.1-10.5,4.7-15.8c2.5-8.1,5-16.1,7.6-24.1
					c-0.3,0-0.7-0.1-1-0.1c-0.1,7.5-0.1,14.9-0.2,22.4c0,5.7,0,11.3,0,17c0,2.1,0,4.2,0.1,6.3c0,1-0.3,3,0.2,3.9
					c0.5,1,2.2,0.8,3.2,0.9c3,0.1,6,0,8.9-0.3c1-0.1,2.5,0.1,3-0.8c0.3-0.6,0.2-1.8,0.2-2.4c0.4-9.4,0.3-18.8,0.2-28.1
					c0-9.7,0.3-19.5-0.5-29.1c0-0.3-0.2-0.5-0.5-0.5c-4.3-0.4-8.7-0.4-13-0.3c-2.3,0-4.6,0.1-6.9,0.2c-0.7,0-1.8-0.2-2.4,0.3
					c-0.6,0.5-0.8,1.8-1,2.4c-3,8.9-5.1,18.1-7.3,27.2c-0.7,2.9-1.5,5.8-2.2,8.7c0.3,0,0.6,0,1,0c-2.2-7.9-4.4-15.9-6.7-23.8
					c-1.2-4.2-2.4-8.5-3.7-12.7c-0.2-0.5-0.3-1.6-0.8-2c-0.8-0.6-3.2-0.2-4.1-0.3c-6-0.1-12.2-0.4-18.2,0.2c-0.6,0.1-0.6,1.1,0,1
					c5-0.5,10.3-0.3,15.3-0.2c2,0,4.2-0.2,6.2,0.1c0.6,0.1-0.1-0.4,0.2,0.1c0.2,0.4,0.3,1,0.5,1.5c2.8,9.1,5.3,18.3,7.9,27.5
					c0.8,2.9,1.6,5.8,2.4,8.7c0.1,0.5,0.8,0.5,1,0c2.7-11.1,5.4-22.1,8.6-33.1c0.3-1.1,0.6-2.1,1-3.2c0.1-0.3,0.2-0.9,0.4-1.1
					c0.6-0.7-0.3-0.1,1-0.5c1.6-0.4,3.8-0.2,5.4-0.2c1.3,0,2.6-0.1,4-0.1c2.4,0,4.8,0,7.2,0.1c1.1,0,2.5,0.4,3.6,0.2
					c0.2,0,0.4,0,0.6,0.1c-0.8-0.2-0.3-0.4-0.4,0.5c-0.3,2.1,0.2,4.5,0.2,6.5c0.3,14.6,0.4,29.3,0.1,43.9c0,2.2-0.1,4.4-0.2,6.6
					c0,0.3,0.1,1.2-0.1,1.4c0.1-0.1-1.1,0-1.5,0.1c-1,0.1-2.1,0.2-3.2,0.2c-2,0.1-4,0.2-6,0.1c-1.5-0.1-2.4,0.2-2.5-0.8
					c-0.3-2.4-0.1-4.9-0.2-7.3c-0.1-13.8,0-27.6,0.1-41.3c0-0.6-0.8-0.7-1-0.1c-4.9,15.4-10,30.8-14.1,46.5
					c-0.2,0.8-0.4,1.5-0.6,2.3c-0.2,0.9,0,0.7-1.1,0.8c-2.2,0.2-4.5,0.2-6.7,0c-1.2-0.1-1.3-0.2-1.8-1.3c-0.5-1.1-0.9-2.3-1.3-3.5
					c-2.8-8.2-5.2-16.6-7.5-25c-1.8-6.3-3.6-12.7-5.3-19c-0.1-0.5-1-0.4-1,0.1c0.3,13.1,0.6,26.3,0.5,39.4c0,2.7,0,5.4-0.2,8
					c-0.1,1.8-0.5,1.2-2.5,1.4c-2.4,0.2-5.1,0.6-7.5,0.2c-0.9-0.1-0.8,0-1-0.7c-0.2-0.8,0-2,0-2.8c0-2.1,0-4.3,0-6.4
					c0-5.5-0.1-11-0.1-16.4c-0.1-11.2-0.3-22.5,0-33.7C304.2-1864.1,303.2-1864.1,303.2-1863.5L303.2-1863.5z"/>
			</g>
		</g>
		<g>
			<path class="st5" d="M403.8-1863c0,15.2-0.9,59.2,0.1,59.3c1.2,0.2,13.6,1,13.9-0.1c0.5-1.9,0.4-59.4-0.1-59.5
				C417.3-1863.4,407.5-1863.9,403.8-1863"/>
			<g>
				<path class="st3" d="M403.3-1863c0,13.8-0.3,27.5-0.3,41.3c0,5.3-0.1,10.5,0.2,15.8c0,0.6-0.1,2.1,0.4,2.6
					c0.9,0.9,4.3,0.5,5.4,0.5c2.6,0.1,5.8,0.6,8.3-0.1c1-0.3,1-0.7,1.1-1.6c0.3-3.6,0.2-7.3,0.2-10.9c0.1-12.2,0.1-24.4,0-36.6
					c0-2.4-0.1-4.8-0.1-7.3c0-1.1,0.2-2.8-0.1-3.8c-0.4-1.2-1.8-0.9-3-0.9c-3.8-0.2-7.8-0.4-11.6,0.5c-0.6,0.1-0.4,1.1,0.3,1
					c3.2-0.7,6.7-0.6,10-0.5c1,0,2.4-0.1,3.4,0.2c-0.1,0,0-0.5,0,0.2c-0.2,3.1,0.2,6.4,0.2,9.5c0.1,11.1,0.1,22.1,0.1,33.2
					c0,4.2,0,8.5-0.1,12.7c0,0.6,0.3,2.6-0.1,3.1c-0.6,0.9-4.4,0.4-5.6,0.4c-1.3,0-2.7-0.1-4-0.2c-1-0.1-2.4,0.1-3.4-0.2
					c-0.6-0.2,0.1,0.3,0,0.1c-0.1-0.1-0.1-0.4-0.1-0.5c0-0.6-0.1-1.3-0.1-1.9c-0.2-4.8-0.2-9.7-0.1-14.5c0-14,0.3-28.1,0.3-42.1
					C404.3-1863.6,403.3-1863.6,403.3-1863L403.3-1863z"/>
			</g>
		</g>
		<g>
			<path class="st5" d="M431.9-1859.3c-4.1,3.1-7.5,14.7-7.1,14.9c1.4,0.4,11.3,1.9,12,1.5c0.3-0.2-0.3-8.6,6.5-10.5
				c10.3-2.8,11.4,8.2,7.3,12.9c-1.4,1.5-6.7,3.4-9.4,8.1c-2.3,3.9-1.6,9.8-1.1,11.8c0,0,8.8-0.1,10.8,0c0.2,0,0.4-0.2,0.4-0.4
				c0.3-3-1-4,0.7-5.6c6.1-5.7,15.5-10.7,14.7-21.3C465.3-1865.1,441.8-1869.3,431.9-1859.3"/>
			<g>
				<path class="st3" d="M431.5-1859.7c-2.4,1.9-3.8,5-4.9,7.7c-0.6,1.5-1.2,2.9-1.6,4.4c-0.2,0.7-0.9,2-0.7,2.8
					c0.3,1.4,3.1,1.2,4.2,1.4c1.5,0.2,2.9,0.4,4.4,0.6c1,0.1,2.6,0.6,3.6,0.3c1.3-0.4,0.9-2,1.1-3.2c0.7-4,2.9-7,7.1-7.7
					c4-0.7,7.2,1.4,7.6,5.5c0.3,2.9-0.8,6.1-3.2,7.8c-3.3,2.3-7,4.2-8.8,8.1c-1.6,3.4-1.5,7.6-0.7,11.3c0,0.2,0.3,0.3,0.5,0.4
					c2.3,0.2,4.8,0,7.1,0c2.2,0,4.7,0.9,4.7-1.9c-0.1-2.2-0.5-3.2,1.4-4.9c1.5-1.3,3-2.5,4.5-3.8c2.7-2.3,5.4-4.7,7.3-7.8
					c3.4-5.7,2.8-13.2-1.1-18.4c-3.4-4.5-8.8-7.1-14.3-7.8C443.1-1865.8,436.2-1864.3,431.5-1859.7c-0.5,0.4,0.2,1.2,0.7,0.7
					c8.7-8.4,26.2-6.4,32.1,4.5c4,7.4,1.2,15-4.5,20.4c-2.5,2.4-5.5,4.4-8,6.9c-0.8,0.8-1.3,1.5-1.3,2.6c0,0.7,0.2,1.4,0.2,2.1
					c0,1.2-0.1,1.1-1,1.3c-2.6,0.4-5.7,0-8.4,0c-0.2,0-0.9,0.1-1.1,0c0,0,0.1,0.1,0.1-0.6c0-1.8-0.4-3.6-0.2-5.5
					c0.5-4.9,3.5-8.1,7.5-10.6c2-1.3,3.7-2.3,4.7-4.6c1.7-3.7,1.4-9.1-2.6-11.2c-4.7-2.5-10.7,0.6-12.5,5.3
					c-0.4,1.1-0.6,2.2-0.8,3.4c-0.1,0.4,0,1-0.1,1.4c-0.2,0.5,0.5,0.2-0.3,0.2c-3,0-6.2-0.6-9.2-1.1c-0.4-0.1-1.4-0.1-1.6-0.3
					c0.2,0.1,0,0,0.2-0.6c0.5-1.3,0.8-2.6,1.2-3.9c1.2-3.3,2.8-7.3,5.6-9.6C432.7-1859.4,432-1860.1,431.5-1859.7L431.5-1859.7z"/>
			</g>
		</g>
		<g>
			<path class="st5" d="M439.6-1816.7c0,5.9-0.6,12.5,0,13.2c0.3,0.3,14,0.1,13.9-0.3c-0.1-0.6,0.4-13.1-0.5-12.9
				C451.4-1816.5,441.3-1817.2,439.6-1816.7"/>
			<g>
				<path class="st3" d="M439.1-1816.7c0,3.8-0.4,7.6-0.3,11.4c0,1.1-0.1,2,1,2.3c1.5,0.5,3.8,0.1,5.4,0.1c2.2,0,4.4-0.1,6.5-0.2
					c0.7,0,1.8,0.1,2.2-0.6c0.5-0.8,0-3.3,0-4.2c0-2.3,0.1-4.6-0.1-6.8c-0.1-0.8,0-2.1-0.9-2.5c-0.5-0.2-1.8,0.1-2.3,0.1
					c-1.4,0-2.8-0.1-4.2-0.1c-2.3-0.1-4.9-0.4-7.2,0.2c-0.6,0.1-0.4,1.1,0.3,1c2.2-0.5,4.7-0.2,6.9-0.1c1.2,0,2.5,0.1,3.7,0.1
					c0.4,0,2.3-0.3,2.6-0.1c-0.2-0.2,0,1.6,0,1.9c0.1,1.1,0.1,2.2,0.1,3.2c0,2.1-0.3,4.4-0.1,6.5c0,0.2,0.1,0.5,0,0.7
					c-0.1,0.4,0.5-0.3,0.1-0.3c-0.9,0.1-1.7,0.2-2.6,0.2c-2.2,0.1-4.4,0.2-6.6,0.2c-0.9,0-2.2,0.2-3.1,0c-1-0.3-0.8,0.2-0.9-1.1
					c-0.2-3.9,0.2-7.8,0.3-11.6C440.1-1817.3,439.1-1817.3,439.1-1816.7L439.1-1816.7z"/>
			</g>
		</g>
	</g>
</g>
<g id="Слой_4" class="st0">
	<g class="st2">
		<path class="st4" d="M52.4-1727.6c3.8,5.8,10.4,20.7,11.3,21.5c1.3,1.1,14.9,0.7,16.6-0.7c1.7-1.6,2.3-3.1,3.9-5.5"/>
		<path class="st4" d="M69.1-1772.3c-1.6,0.7-6.6,1.3-7.1,1.5c-0.6,0.3-5.2,8.6-6.7,12.4"/>
		<path class="st4" d="M33.3-1771.8c-1.4,1.3-3.9,4.7-3.5,5.6c0.6,1,12.8,21.4,12.9,22.2c0.1,1.1-18.9,33.4-18.7,35.8
			c0.1,1.1,15.8,1.5,16.3,1.3c0.7-0.3,3.7-5.2,4.8-7.3"/>
		<path class="st4" d="M84.7-1772.3c-1.8,2-3.9,2.4-4.4,5.1c-0.2,1,0.4,12.3,0.9,12.8c0.6,0.6,8.7,0.6,12.4,0.5
			c0.3,3.8,0.3,45.1,0.6,45.6c0.6,0.8,9.8,0.9,13.8,0.5c0.8-0.1,4.9-3.2,5.6-4.7"/>
		<path class="st4" d="M128.4-1760.5c-0.8,1.1-1.3,2.4-1.9,3.7c-0.6,1.2-1.4,2.5-2.6,3.1c-0.7,0.3-1.4,0.5-2.2,0.6
			c-3.2,0.4-6.5-0.2-9.4,1.1c0.1,0.2,0.3,0.2,0.5,0.2"/>
		<path class="st4" d="M227.6-1755.2c2-1.9,5.1-2,7.9-2c1.4,0,3,0.1,3.9,1.2c0.4,0.5,0.6,1.2,0.8,1.8c0.7,2.6,0.9,5.3,0.6,8"/>
		<path class="st4" d="M232.7-1729.8c1.3-0.3,7.6-0.5,8.4,0.6c0.7,1.1-0.3,22,1.7,23.2c1,0.6,14.6,0.5,15,0.3
			c0.4-0.2,3.2-4.3,4.1-7.1"/>
		<path class="st4" d="M215.2-1762.8c-9.4,16.3,1.7,23.9,1.9,25c0.4,2.4-13.9,27.6-12.3,29.4c1.2,1.2,16,2.7,16.3,2.4
			c2.1-1.8,3.7-3.8,5.1-6.2"/>
		<path class="st4" d="M34-1769.4c-1.2,1.6-2.1,2.9-3.3,4.6"/>
		<path class="st4" d="M36.2-1766.6c0.1,0.2,0,0.4-0.1,0.5c-1.1,1.6-2.2,3.2-3.3,4.8"/>
		<path class="st4" d="M38.6-1762.3c-1.4,1.6-2.5,3-3.9,4.6"/>
		<path class="st4" d="M40.5-1758.7c-1.3,1.4-2.6,2.7-4,4"/>
		<path class="st4" d="M42.9-1755.1c-1.3,1.5-2.8,3-4.3,4.3"/>
		<path class="st4" d="M44.8-1751.7c-1.6,1.4-2.6,2.3-4,3.9"/>
		<path class="st4" d="M46.8-1748.4c-1.3,1.3-2.7,2.6-4,3.9c-0.1,0.1-0.2,0.1-0.3,0.1"/>
		<path class="st4" d="M40.9-1740.6c2.2-1.2,5.7-2.9,8-3.8"/>
		<path class="st4" d="M38.9-1736.5c2.9-1.1,4.6-1.8,7.5-2.9"/>
		<path class="st4" d="M35.4-1730.4c2.1-1,5.3-2.4,7.5-3.2"/>
		<path class="st4" d="M32.5-1725.1c2-1.1,4.6-1.9,6.8-2.2"/>
		<path class="st4" d="M29.4-1719.7c2.2-0.8,4.8-1.7,7-2.4"/>
		<path class="st4" d="M25.8-1712.9c2.1-1.3,4.2-2.2,6.6-2.8"/>
		<path class="st4" d="M25-1707.9c3.1-1.3,6-3,8.7-4.9"/>
		<path class="st4" d="M31.6-1707.2c1.7-1.3,4.3-3.3,5.9-4.7c0,0,0.1,0,0.1,0"/>
		<path class="st4" d="M38.1-1706.9c1.2-1.5,3.6-3.7,5.2-4.8"/>
		<path class="st4" d="M53.9-1725.2c1.1-1.4,3.3-3.3,4.6-4.5"/>
		<path class="st4" d="M56.5-1720.9c1.5-1.7,3.2-3.3,5-4.6c-0.1,0.2-0.3,0.4-0.4,0.6"/>
		<path class="st4" d="M59.8-1714c1.2-2,2.7-3.9,4.5-5.5"/>
		<path class="st4" d="M62-1709.2c1-2,2.4-3.9,3.9-5.6"/>
		<path class="st4" d="M65.3-1705.7c1.5-2,3.5-4.3,5.2-6.2"/>
		<path class="st4" d="M73.3-1705.8c1.3-2.2,2.9-4.3,4.6-6.1"/>
		<path class="st4" d="M78.1-1706.4c1.1-2.2,2.3-4.4,3.7-6.4"/>
		<path class="st4" d="M57-1756.7c1.6-1.4,4.1-3,6-3.9"/>
		<path class="st4" d="M56.2-1760.4c1.1-1.5,3.2-2.3,4.9-3.1c1.9-0.8,3.6-1.8,5.4-3"/>
		<path class="st4" d="M59.4-1766.7c1.8-1.1,4.6-2,6.6-2.8c0.6-0.2,1.7-0.7,2.2-1.1"/>
		<path class="st4" d="M80.3-1764.6c1.1-1.1,2.4-2,3.7-2.8"/>
		<path class="st4" d="M80.7-1759.3c1.2-1.1,2.5-2.1,3.8-3c-0.1,0.1-0.2,0.2-0.3,0.3"/>
		<path class="st4" d="M81.7-1754.1c2.3-2.1,5.2-4.4,7.7-6.1"/>
		<path class="st4" d="M89.5-1753.8c2.2-2,5.1-4.3,7.4-6.2"/>
		<path class="st4" d="M93.7-1749.6c1.8-1.9,3.7-3.8,5.7-5.4c-0.1,0-0.2,0.1-0.3,0.1"/>
		<path class="st4" d="M93.6-1743.1c1.9-1.7,3.7-3.3,5.6-5c-0.1,0.1-0.2,0.1-0.3,0.2"/>
		<path class="st4" d="M93.7-1736.3c1.8-1.8,3.7-3.6,5.6-5.3"/>
		<path class="st4" d="M94-1729.4c1.7-2,3.9-4.2,6-5.9c-0.2,0.2-0.4,0.3-0.7,0.5"/>
		<path class="st4" d="M94-1723.6c1.7-1.8,3.2-3.1,5.1-4.6"/>
		<path class="st4" d="M94.2-1717.8c1.6-1.7,3-2.9,4.8-4.3"/>
		<path class="st4" d="M94-1712.8c1.8-1.6,3.3-2.9,5.1-4.5"/>
		<path class="st4" d="M95.6-1707.8c1.7-1.5,3.3-3,5-4.4"/>
		<path class="st4" d="M102.1-1707.3c1.6-1.9,3.4-3.6,5.5-4.9"/>
		<path class="st4" d="M113.3-1757c1.4-1.4,3-2.6,4.8-3.5"/>
		<path class="st4" d="M117.7-1752.8c0.6-0.7,1.9-1.8,2.5-2.5c1.6-1.7,3.6-3.7,5.6-4.9"/>
		<path class="st4" d="M211.4-1747.9c0.8-1.3,1.6-2.5,2.4-3.8"/>
		<path class="st4" d="M213.7-1742.5c0.9-1.3,1.8-2.5,2.7-3.8c0,0,0.1-0.1,0.1-0.1c0.1,0,0.1,0.1,0,0.1"/>
		<path class="st4" d="M216.5-1738.3c0.8-1.4,1.7-2.5,2.7-3.8"/>
		<path class="st4" d="M215.3-1733c2.1-1.2,5.3-2.8,7.6-3.6c-0.1,0.1-0.2,0.2-0.3,0.2"/>
		<path class="st4" d="M212.3-1726.7c1.7-1.1,3.1-2,4.8-3.1c0.7-0.4,2.1-1.2,2.8-1.4"/>
		<path class="st4" d="M209.5-1720.7c1.1-0.5,1.6-1,2.7-1.5c1.4-0.7,2.8-1.4,4.3-1.6"/>
		<path class="st4" d="M206.4-1714.2c2.1-1.3,4.4-2.3,6.8-2.9"/>
		<path class="st4" d="M206.2-1708c1.9-1.6,4.3-3.3,6.5-4.5c-0.1,0.1-0.1,0.1-0.2,0.2"/>
		<path class="st4" d="M212.1-1707.1c0-0.3,0.5-0.7,0.8-0.9c1.8-1.6,3.6-3.2,5.5-4.8"/>
		<path class="st4" d="M218.4-1706.3c0.2-0.4,0.5-0.7,0.8-0.9c1.7-1.5,3.9-3.3,5.6-4.8"/>
		<path class="st4" d="M233.7-1730c2.3-1.5,4.9-3.8,6.8-5.8c0.2-0.2,0.5-0.5,0.9-0.5"/>
		<path class="st4" d="M240.8-1729.4c2.1-1.9,4.8-4.4,6.8-6.3"/>
		<path class="st4" d="M241.2-1722.4c2-2.2,4.2-4.2,6.5-6"/>
		<path class="st4" d="M241.4-1716.4c2-2.2,3.9-4,6.3-5.7"/>
		<path class="st4" d="M241.6-1710.1c2-1.9,4-3.8,6-5.8"/>
		<path class="st4" d="M244-1705.6c2.1-2.1,4.7-4.7,6.8-6.7"/>
		<path class="st4" d="M251.8-1705.8c1.8-2.1,3.8-4.9,5.3-7.3c-0.1,0.1-0.2,0.1-0.4,0.2"/>
		<path class="st4" d="M230.5-1756.5c0-0.5,0.4-0.9,0.7-1.2c1.2-1.2,2.5-2.3,3.8-3.4"/>
		<path class="st4" d="M237.3-1757.3c1.4-1.6,3-3,4.8-4.2"/>
		<path class="st4" d="M240.6-1753.9c2.4-2.1,4.9-4.1,7.4-6"/>
		<path class="st4" d="M240.8-1749.2c2.2-1.7,4.4-3.4,6.6-5"/>
		<path class="st4" d="M243.7-1746.2c1.3-1.2,2.8-2.3,4.3-3.3c-0.1-0.1-0.2-0.1-0.2-0.1"/>
		<path class="st6" d="M48.9-1772.3c0.5,0.3,2.5,4.1,3.7,6.4c1.8,3.8,3.6,7.6,5.5,11.4c0.2,0.4,0.4,0.8,0.8,0.8
			c0.3,0,0.6-0.3,0.7-0.6c3.1-5.3,9.1-17.7,9.5-17.9c0.4-0.3,12.6-0.2,13,0c0.9,0.4-16.2,27.1-16.4,27.8c-0.3,1.3,18.7,31.6,18.4,32
			c-0.5,0.5-15.1,1-16.1,0.4c-0.9-0.5-9.3-18.3-12.1-21.9c-3.1,5.5-11,20.7-12.1,21.5c-1.3,0.9-13.6,0.7-13-0.2
			c6.5-11,17.5-29.8,17.5-29.9c0.3-0.6,0.5-1.3,0.5-2c0-1.2-12.3-20.8-13.5-23.3c-0.5-1-1.5-2.3-2.1-3.6
			C32.5-1773.1,47.3-1773,48.9-1772.3z"/>
		<g>
			<g>
				<path class="st3" d="M150.1-1756.5c3.9-3.1,7.9-0.3,8.6,4.1c0.5,3.3,0.4,6.8,0.2,10.1c-0.3,6.8-1.4,13.5-1.4,20.2
					c0.3,0,0.7-0.1,1-0.1c-0.1-0.4-0.2-0.5-0.5-0.8c-0.4-0.5-1.2,0.2-0.7,0.7c0.1,0.1,0.1,0.2,0.2,0.4c0.2,0.5,1,0.5,1-0.1
					c0-9.6,2.1-19.1,1.3-28.8c-0.2-2.6-0.7-5.2-2.9-6.9c-2.5-1.9-5.2-1.3-7.5,0.5C148.9-1756.8,149.6-1756.1,150.1-1756.5
					L150.1-1756.5z"/>
			</g>
		</g>
		<g>
			<g>
				<path class="st3" d="M143.7-1769.6c-2.4,0.9-4.5,2.8-6.5,4.4c-2.5,2.1-4.7,4.4-6.4,7.2c-4.1,6.6-5.8,14.7-5.8,22.5
					c0,13.4,8.8,27,22.6,29.6c8.6,1.6,15.9-2.5,22.1-8.1c0.5-0.4-0.2-1.1-0.7-0.7c-5.6,5-12,9-19.8,8c-6.3-0.8-11.9-4.3-16-9
					c-9.1-10.5-9.1-26.7-3.2-38.9c1.6-3.3,3.7-6.3,6.5-8.7c2.2-2,4.7-4.3,7.5-5.4C144.5-1768.9,144.3-1769.8,143.7-1769.6
					L143.7-1769.6z"/>
			</g>
		</g>
		<path class="st4" d="M136.5-1761.5c-1.6,1-3.4,2.2-5,3.3"/>
		<path class="st4" d="M134-1755.7c0,0.1,0.1-0.1,0.1-0.1s-0.2,0-0.2,0.1c-1.6,1.2-3.3,2.4-4.9,3.7c-0.4,0.3-0.7,0.5-1,0.9"/>
		<path class="st4" d="M132.1-1748.9c-2,1.6-3.9,3.2-5.9,4.8"/>
		<path class="st4" d="M131.5-1742.8c-2.1,1.9-4,3.6-6.1,5.5"/>
		<path class="st4" d="M131.9-1736.1c-2.2,2-4,3.8-6,5.8"/>
		<path class="st4" d="M132.9-1729c-1.8,1.7-3.6,3.4-5.4,5"/>
		<path class="st4" d="M135.4-1724.2c-1.9,1.9-3.3,3.4-5.2,5.3"/>
		<path class="st4" d="M139.8-1718.5c-1.7,1.6-3.4,3.3-5.1,4.9"/>
		<path class="st4" d="M144.9-1714.6c-1.7,1.7-3.4,3.4-5.1,5.1c-0.1,0.1-0.4,0-0.3-0.2c0.1-0.2,0.4-0.1,0.3,0.1"/>
		<path class="st4" d="M150-1712.1c-1.6,1.5-3.4,3.5-5,5"/>
		<path class="st4" d="M156.4-1711c-1.2,1.3-3.2,3.5-4.2,5"/>
		<path class="st4" d="M162-1711.5c-1.1,1.1-2.1,2.4-2.9,3.8"/>
		<path class="st4" d="M158.7-1761.1c-0.4,0-0.7,0.3-1,0.6c-0.8,0.8-1.6,1.6-2.4,2.4"/>
		<path class="st4" d="M163.5-1759.2c-1.6,1.6-3.1,3.2-4.5,4.8"/>
		<path class="st4" d="M166-1755.8c-2.4,2.1-4.6,4.4-6.7,6.8"/>
		<path class="st4" d="M167.5-1750.3c-1.2,1.5-2.4,2.9-3.8,4.2c-1.4,1.3-3.1,2.4-4.1,4c0-0.2,0.1-0.3,0.1-0.5"/>
		<path class="st4" d="M168.2-1743.4c-3.4,3.6-6.6,7.3-9.7,11.1"/>
		<path class="st4" d="M167.8-1736.4c-2.9,3.4-6,6.6-9.3,9.6"/>
		<path class="st4" d="M165.9-1728.8c-2.4,2-4.8,4.1-6.8,6.4"/>
		<g>
			<path class="st5" d="M182.4-1741.9c-0.4-20.1-10.5-30.3-25-30.9c-34.1-1.1-35.7,60.6-0.8,61.8
				C172.8-1710.5,182.8-1725.1,182.4-1741.9z M157.3-1722.4c-17.4,1.1-13.2-40-0.7-38.9c10.1-0.8,11,12.7,11.1,14
				C168.5-1737.6,167.9-1723.1,157.3-1722.4z"/>
			<g>
				<path class="st3" d="M182.9-1741.9c-0.2-7.7-1.7-15.8-6.5-22c-3.9-5.1-9.7-8.2-16.1-9.1c-10.5-1.4-20.1,3.4-25.2,12.7
					c-9.5,17-4.1,46.1,18,49.5c7.9,1.2,15.8-1.1,21.3-6.9C180.6-1724.2,183-1733.2,182.9-1741.9c0-0.6-1-0.6-1,0
					c0.2,15.1-8.9,31.2-25.8,30.4c-10.3-0.5-18.3-7.2-22-16.6c-6.5-16.7-0.1-43.2,21.1-44.1c6.9-0.3,13.8,1.9,18.7,6.9
					c6,6.2,7.7,15.1,8,23.4C182-1741.2,183-1741.2,182.9-1741.9z"/>
				<path class="st3" d="M157.3-1722.9c-13.5,0.6-12-20.9-9.2-29.1c1.8-5.2,5-9.9,11.2-8.7c6.1,1.2,7.7,8.6,8.1,13.9
					C167.9-1738.8,168.1-1723.8,157.3-1722.9c-0.6,0.1-0.6,1.1,0,1c9.9-0.9,11.2-12.6,11.2-20.5c-0.1-5.9-0.5-13.8-5.7-17.7
					c-2.4-1.8-6.2-2.3-9-1.2c-2.4,1-4,3.2-5.2,5.4c-3.2,6.1-4.1,13.9-3.1,20.7c0.9,6.5,4.2,13.7,11.8,13.4
					C157.9-1721.9,158-1722.9,157.3-1722.9z"/>
			</g>
		</g>
		<path class="st4" d="M279.3-1770.5c-7.5,2.6-13.4,8.9-13.7,16.8c-0.1,1.2,0,3.6,0.8,4.6c0.6,0.7,9.2,1.4,10.6,1.1
			c0.7-0.1,3-1.9,4-3.9"/>
		<path class="st4" d="M282.8-1758.3c2.1-0.9,4.9-1.5,7.1-0.7c1.4,0.5,2.4,1.9,2.8,3.3c0.3,0.8,0,1.8-0.1,2.7
			c-0.4,2.8-1.2,5.5-2.3,8"/>
		<path class="st4" d="M287.5-1744c-1.6,1.1-3.8,2.6-5.2,4.1c-0.8,0.8-1.5,1.7-2,2.7c-1.1,2.1-0.8,9.3-0.1,10.1
			c0.6,0.6,9.5,1.4,10,1.3c2.1-0.7,4.3-2.4,5-4.2"/>
		<path class="st4" d="M284-1725.4c-1.1,1-4.5,3.8-4.8,4.5c-0.3,0.8-0.1,12.3,1,13c0.6,0.4,12.8,0.2,13.8-0.5c0.6-0.5,3.2-3,4-4.5"
			/>
		<path class="st4" d="M300.6-1713.3"/>
		<path class="st4" d="M268.3-1762.2c1.6-1.1,3.2-2,5-2.7c-0.1,0-0.2,0.1-0.3,0.1"/>
		<path class="st4" d="M265.8-1755.9c0.3-0.5,0.8-1,1.2-1.4c1.4-1.2,2.9-2.3,4.5-3.3"/>
		<path class="st4" d="M266-1749.8c1.3-1.4,2.8-2.8,4.2-4.1"/>
		<path class="st4" d="M271.3-1748.2c0-0.3,0.3-0.6,0.5-0.8c1.3-1.2,2.7-2.3,4.1-3.3"/>
		<path class="st4" d="M286.8-1759.2c1.5-1.3,3.1-2.4,4.8-3.3"/>
		<path class="st4" d="M292.3-1757.4c1.4-0.9,2.7-1.9,4.1-2.8c0,0,0.1-0.1,0.1-0.1c0,0-0.1,0-0.1,0"/>
		<path class="st4" d="M292.3-1751.6c1.6-1.2,3.7-2.4,5.4-3.4c-0.1,0-0.2,0-0.3,0"/>
		<path class="st4" d="M279.7-1735.5c1.6-1.3,3.3-2.4,5.1-3.2c-0.1,0.1-0.2,0.1-0.4,0.2"/>
		<path class="st4" d="M279.7-1730.2c1.4-1.4,3-2.8,4.6-4"/>
		<path class="st4" d="M281.3-1726.7c1.1-1,2.8-2.3,3.9-3.3"/>
		<path class="st4" d="M286.9-1726c1.3-1.3,3.2-3.1,4.6-4.3"/>
		<path class="st4" d="M279.1-1716.8c1.7-1.6,3.8-3.4,5.6-4.8"/>
		<path class="st4" d="M279.5-1710.2c1.3-1.6,2.8-3.2,4.2-4.7"/>
		<path class="st4" d="M283.1-1707.9c1.3-1.7,2.7-3.2,4.3-4.7"/>
		<path class="st4" d="M289.4-1707.7c0.9-1.4,2.7-3.5,3.9-4.7"/>
		<g>
			<path class="st5" d="M276.3-1768.4c-4.1,3.1-7.5,14.7-7.1,14.9c1.4,0.4,11.3,1.9,12,1.5c0.3-0.2-0.3-8.6,6.5-10.5
				c10.3-2.8,11.4,8.2,7.3,12.9c-1.4,1.5-6.7,3.4-9.4,8.1c-2.3,3.9-1.6,9.8-1.1,11.8c0,0,8.8-0.1,10.8,0c0.2,0,0.4-0.2,0.4-0.4
				c0.3-3-1-4,0.7-5.6c6.1-5.7,15.5-10.7,14.7-21.3C309.8-1774.1,286.3-1778.3,276.3-1768.4"/>
			<g>
				<path class="st3" d="M276-1768.7c-2.4,1.9-3.8,5-4.9,7.7c-0.6,1.5-1.2,2.9-1.6,4.4c-0.2,0.7-0.9,2-0.7,2.8
					c0.3,1.4,3.1,1.2,4.2,1.4c1.5,0.2,2.9,0.4,4.4,0.6c1,0.1,2.6,0.6,3.6,0.3c1.3-0.4,0.9-2,1.1-3.2c0.7-4,2.9-7,7.1-7.7
					c4-0.7,7.2,1.4,7.6,5.5c0.3,2.9-0.8,6.1-3.2,7.8c-3.3,2.3-7,4.2-8.8,8.1c-1.6,3.4-1.5,7.6-0.7,11.3c0,0.2,0.3,0.3,0.5,0.4
					c2.3,0.2,4.8,0,7.1,0c2.2,0,4.7,0.9,4.7-1.9c-0.1-2.2-0.5-3.2,1.4-4.9c1.5-1.3,3-2.5,4.5-3.8c2.7-2.3,5.4-4.7,7.3-7.8
					c3.4-5.7,2.8-13.2-1.1-18.4c-3.4-4.5-8.8-7.1-14.3-7.8C287.6-1774.8,280.7-1773.3,276-1768.7c-0.5,0.4,0.2,1.2,0.7,0.7
					c8.7-8.4,26.2-6.4,32.1,4.5c4,7.4,1.2,15-4.5,20.4c-2.5,2.4-5.5,4.4-8,6.9c-0.8,0.8-1.3,1.5-1.3,2.6c0,0.7,0.2,1.4,0.2,2.1
					c0,1.2-0.1,1.1-1,1.3c-2.6,0.4-5.7,0-8.4,0c-0.2,0-0.9,0.1-1.1,0c0,0,0.1,0.1,0.1-0.6c0-1.8-0.4-3.6-0.2-5.5
					c0.5-4.9,3.5-8.1,7.5-10.6c2-1.3,3.7-2.3,4.7-4.6c1.7-3.7,1.4-9.1-2.6-11.2c-4.7-2.5-10.7,0.6-12.5,5.3
					c-0.4,1.1-0.6,2.2-0.8,3.4c-0.1,0.4,0,1-0.1,1.4c-0.2,0.5,0.5,0.2-0.3,0.2c-3,0-6.2-0.6-9.2-1.1c-0.4-0.1-1.4-0.1-1.6-0.3
					c0.2,0.1,0,0,0.2-0.6c0.5-1.3,0.8-2.6,1.2-3.9c1.2-3.3,2.8-7.3,5.6-9.6C277.2-1768.4,276.5-1769.1,276-1768.7L276-1768.7z"/>
			</g>
		</g>
		<g>
			<path class="st5" d="M284-1725.7c0,5.9-0.6,12.5,0,13.2c0.3,0.3,14,0.1,13.9-0.3c-0.1-0.6,0.4-13.1-0.5-12.9
				C295.8-1725.5,285.8-1726.2,284-1725.7"/>
			<g>
				<path class="st3" d="M283.5-1725.7c0,3.8-0.4,7.6-0.3,11.4c0,1.1-0.1,2,1,2.3c1.5,0.5,3.8,0.1,5.4,0.1c2.2,0,4.4-0.1,6.5-0.2
					c0.7,0,1.8,0.1,2.2-0.6c0.5-0.8,0-3.3,0-4.2c0-2.3,0.1-4.6-0.1-6.8c-0.1-0.8,0-2.1-0.9-2.5c-0.5-0.2-1.8,0.1-2.3,0.1
					c-1.4,0-2.8-0.1-4.2-0.1c-2.3-0.1-4.9-0.4-7.2,0.2c-0.6,0.1-0.4,1.1,0.3,1c2.2-0.5,4.7-0.2,6.9-0.1c1.2,0,2.5,0.1,3.7,0.1
					c0.4,0,2.3-0.3,2.6-0.1c-0.2-0.2,0,1.6,0,1.9c0.1,1.1,0.1,2.2,0.1,3.2c0,2.1-0.3,4.4-0.1,6.5c0,0.2,0.1,0.5,0,0.7
					c-0.1,0.4,0.5-0.3,0.1-0.3c-0.9,0.1-1.7,0.2-2.6,0.2c-2.2,0.1-4.4,0.2-6.6,0.2c-0.9,0-2.2,0.2-3.1,0c-1-0.3-0.8,0.2-0.9-1.1
					c-0.2-3.9,0.2-7.8,0.3-11.6C284.5-1726.3,283.5-1726.3,283.5-1725.7L283.5-1725.7z"/>
			</g>
		</g>
		<path class="st6" d="M84.5-1760.5c0.2,0.2,14.6,0.5,14.7,0.7c0.1,0.1-0.4,38.3,0.1,47.4c3.6,0.5,13.7,0.9,14.3,0
			c0.4-0.6-0.6-47.9-0.3-48.1c0.4-0.2,13.9,0.5,14.8,0.1c0.8-0.3,0.5-11.6-0.1-11.9c-0.3-0.2-42.5-1-43.4,0
			C83.9-1771.4,84.3-1760.6,84.5-1760.5z"/>
		<path class="st6" d="M261.2-1772.3c-0.3-0.2-28.1,0.1-30.4,0.4c-3,0.3-6.2,0.9-8.9,2.3c-5.3,2.7-8.5,8.4-8.5,14.4
			c0,6,3.1,12.5,8.4,15.2c0.9,0.4,2.1,0.4,2,1.3c0,0.3-0.2,0.6-0.3,0.9c-4.4,8-8.3,16.2-11.7,24.6c-0.2,0.5,0.2,0.9,0.7,0.9
			c4.8-0.8,13.4,0.5,13.7,0.4c0.4-0.3,5.2-15.8,8.8-22.7c0.1-0.3,0.3-0.5,0.5-0.7c0.3-0.2,0.6-0.2,1-0.2c3.8-0.2,7.5-0.5,11.3-0.7
			c-0.1,4.9,0,24,0.2,24.2c0.2,0.2,9.9-0.1,13.7-0.1C262.4-1713.8,261.6-1772,261.2-1772.3z M247.8-1746.2c-5-0.1-10.1,0-15-0.6
			c-1-0.1-3.8-1.7-4.5-3.9c-0.4-1.4-0.7-2.3-0.7-3.7c0.1-1.9,0.9-3.7,2.5-5.3c1.8-1.9,15.2-2.2,17-2
			C248.3-1761.5,247.7-1749.9,247.8-1746.2z"/>
	</g>
</g>
<g id="Слой_8" class="st0">
	<rect x="3.3" y="-906.8" style="display:inline;fill:none;" width="1304" height="306"/>
	<text transform="matrix(1 0 0 1 3.3438 -846.7207)" class="st2"><tspan x="0" y="0" style="font-family:'FranklinGothic-Demi'; font-size:90px;">YES, YOU CAN!</tspan><tspan x="0" y="108" style="font-family:'FranklinGothic-Demi'; font-size:90px;">ТИ МОЖЕШ ДОПОМОГТИ! </tspan><tspan x="0" y="216" style="font-family:'FranklinGothic-Demi'; font-size:90px;">ТЫ МОЖЕШЬ ПОМОЧЬ!</tspan></text>
	<rect x="11.4" y="-528.8" style="display:inline;fill:none;" width="1304" height="306"/>
	<text transform="matrix(1 0 0 1 11.4403 -468.7207)" class="st2"><tspan x="0" y="0" style="font-family:'FranklinGothic-Demi'; font-size:90px;">CONTACT ME</tspan><tspan x="0" y="108" style="font-family:'FranklinGothic-Demi'; font-size:90px;">ЗВ’ЯЗАТИСЯ ЗІ МНОЮ </tspan><tspan x="0" y="216" style="font-family:'FranklinGothic-Demi'; font-size:90px;">СВЯЗАТЬСЯ СО МНОЙ</tspan></text>
</g>
<g id="Слой_15">
</g>
<g id="Слой_16">
</g>
<g id="Слой_9">
</g>
<g id="Слой_24">
</g>
<g id="Слой_7">
</g>
<g id="Слой_6">
</g>
<g id="Слой_13">
</g>
<g id="Слой_14">
</g>
<g id="Слой_11">
</g>
<g id="Слой_12">
</g>
<g id="Слой_10">
</g>
<g id="Слой_5">
</g>
<g id="Слой_21">
</g>
<g id="Слой_20">
	<g>
		<path class="st4" d="M83.8,120c-0.7,0.9-1.5,1.7-2.3,2.5"/>
		<path class="st4" d="M77.9,121.2c-0.3,0.9-0.7,1.7-1.2,2.5"/>
		<path class="st4" d="M73.8,121.7c-0.7,1-1.4,2.1-2.2,3.1"/>
		<path class="st4" d="M69.2,121.7c-0.8,1-1.5,2.1-2.1,3.2"/>
		<path class="st4" d="M65.8,121.8c-1.1,0.9-2,1.9-2.7,3.1"/>
		<path class="st4" d="M61.9,120.9c-1.1,1.4-2.2,2.8-3.4,4.3"/>
		<path class="st4" d="M57.5,120c-1.3,1.8-2.7,3.5-4.3,5.1"/>
		<path class="st4" d="M51.6,118.6c-1.5,2.1-2.8,3.8-4.1,6"/>
		<path class="st4" d="M47.3,116.8c-1.8,2.6-3.1,4.6-4.9,7.2"/>
		<path class="st4" d="M42.4,114.8c-2,2.6-4,5.2-6,7.7"/>
		<path class="st4" d="M35.5,110c-1.4,3.6-2.9,7.1-4.7,10.6"/>
		<path class="st4" d="M30.2,105.8c-1.9,4-3.6,7.4-5.5,11.4"/>
		<path class="st4" d="M25.6,100.6c-2.6,4.3-4.7,7.8-7.3,12.2"/>
		<path class="st4" d="M21,95.5c-0.4,0.5-3.2,4-4.4,5.5c-1.6,1.8-2.5,3.6-4.3,5.2"/>
		<path class="st4" d="M15.8,86.1c-3.7,2.9-6.1,7.1-9.6,10.3"/>
		<path class="st4" d="M2.5,87.3c3-3.9,6.3-7.3,10-10.5"/>
		<path class="st4" d="M0.6,75.1c2.8-3.3,6.2-6.1,10-8.1"/>
		<path class="st4" d="M1.3,81c2.5-2.8,4.6-5.2,7.4-7.7c0.8-0.7,1.7-1.5,2.7-2"/>
		<path class="st4" d="M8.9,100.9c1.8-4,6.1-7.5,9-10.8"/>
		<path class="st4" d="M4.1,92c3-4,6.3-7.2,10-10.6"/>
		<path class="st4" d="M0.9,68c2.9-3.1,5.8-5.3,9.5-7.2"/>
		<path class="st4" d="M1.3,61.7c0.7-0.5,0.8-1,1.3-1.3c2.7-1.8,5.3-3.7,8-5.5c-0.1,0-0.2,0-0.4,0"/>
		<path class="st4" d="M3.4,54.2c2.7-2.5,5-4.1,8.4-5.7"/>
		<path class="st4" d="M6,47.8c2.1-1.5,4.5-2.8,7-3.7"/>
		<path class="st4" d="M8.9,42c1.9-1.2,3.7-2,5.8-2.6"/>
		<path class="st4" d="M12,36.6c1.5-0.5,2.9-1.4,4.4-1.6"/>
		<path class="st4" d="M16.4,30.9c0.9-0.2,1.8-0.5,2.6-0.7"/>
		<circle class="st6" cx="71.1" cy="61.1" r="60.5"/>
		<path class="st4" d="M27,19.8C13.9,30.5,1.1,51.3,0.7,68.2c-0.4,14,1.3,25.1,13,39.5c9.1,11.2,22.5,14.7,26.8,15.8
			c9.7,2.3,40.4,4.3,56.5-7.6"/>
	</g>
</g>
<g id="Слой_19">
	<path class="st7" d="M87,38.5c-1.6,0.2-3.6-0.1-5.2,0c-2.3,0.2-3.3,0.7-4.3,2c-1,1.3-1.2,2.4-1.2,4.7c0,0.9,0,1.8,0,1.8
		s7.8-0.1,10.8,0.1c0,3.4,0,8.2,0,11.6c0,0.1-1.5,0.2-1.9,0.2c-2.9,0-5.9,0-8.8,0c-0.1,4.7-0.4,9.6-0.4,14.2c0,2.5,0.2,5.2,0.2,7.6
		c0,5.8,0,9,0,13.8c-1.3,0-7.3,0.1-8,0.1c-2.8,0-4.5,0.3-7,0.3c-0.2,0-0.3-12.1-0.4-18c0-3.4-0.3-15.2-0.1-17.9
		c-2.8,0.1-4.7-0.1-7.5,0c-0.7,0-1.9-0.2-2.4-0.3c-0.1,0-0.2-0.1-0.2-0.2c0,0-0.2-10.7,0.3-11.1c0.4-0.3,6.7-0.1,9.4-0.1
		c0.2-2.6,0.4-4.9,0.6-7.5c0.2-1.6,0.4-3.2,0.9-4.7c1.6-4.5,6.3-7.4,11-8.3c2.4-0.4,4.8-0.5,7.1-0.3c1.6,0.1,6.7,0.2,6.7,0.2
		S87.5,38.5,87,38.5z"/>
</g>
<g id="Слой_22">
</g>
<g id="Слой_25">
</g>
</svg>
