<?xml version="1.0" encoding="utf-8"?>
<!-- Generator: Adobe Illustrator 21.0.2, SVG Export Plug-In . SVG Version: 6.00 Build 0)  -->
<svg version="1.1" id="Слой_1" xmlns="http://www.w3.org/2000/svg" xmlns:xlink="http://www.w3.org/1999/xlink" x="0px" y="0px"
	 viewBox="0 0 261.3 67.4" style="enable-background:new 0 0 261.3 67.4;" xml:space="preserve">
<style type="text/css">
	.st0{fill:#FFFFFF;stroke:#201600;stroke-miterlimit:10;}
	.st1{fill:none;stroke:#201600;stroke-miterlimit:10;}
	.st2{enable-background:new    ;}
	.st3{fill:#201600;}
</style>
<title>Ресурс 1</title>
<g id="Слой_2">
	<g id="Слой_5">
		<path class="st0" d="M8.5,39.7c0,2.8,0.4,11.2,1.7,14c1.8,3.8,14.9,3.8,25.1,5.1c16.8,2,209.6-2.9,219.1-5.6
			c2.9-0.8,9.5-32.2,4.5-42.7c-0.9-2.3-2.6-4.3-4.7-5.6c-2.2-1.3-5.2-1.7-8-2.1c-10.8-1.2-21.8-0.9-32.7-0.5
			c-14.9,0.5-100.2,0.7-108.3-0.1C79.6-0.3,53.6,0.5,27.8,1.4c-4.2,0.1-11.4,0.1-14.1,2.8C11.5,6.5,8.6,31.3,8.5,39.7z"/>
		<path class="st1" d="M13.8,4.2C5.1,6.9,2.7,12.5,2.3,14.5c-1.1,5.1-1.2,10.4-1.5,15.7c-0.3,5.5-0.5,28.2,1,30.5
			c3.5,5.2,91.3,5.7,108.7,5.8c58.6,0.5,115.3,0.7,125.9,0.2c4.9-0.2,12.9-6.4,18.3-13.2"/>
		<path class="st1" d="M11.4,12.6C7.8,15.9,5,18.2,1.2,21.3"/>
		<path class="st1" d="M0.9,29.8c3-2.5,6.1-4.7,9.3-6.8"/>
		<path class="st1" d="M0.4,38.8c2.8-2.3,5.7-4.5,8.7-6.5"/>
		<path class="st1" d="M0.6,47.2c2.6-1.9,5.2-3.8,7.9-5.5"/>
		<path class="st1" d="M1.1,56.8c2.4-2.6,5.2-4.8,8.3-6.6"/>
		<path class="st1" d="M7.2,62.4c2.5-2.2,5.2-4.3,8-6.1"/>
		<path class="st1" d="M19.1,63.8c1.9-2.2,3.9-4.2,6.1-6"/>
		<path class="st1" d="M31,64.6c1.8-2,3.8-3.9,6-5.5"/>
		<path class="st1" d="M42.8,65.2c2.3-2.3,4.9-4.4,7.7-6.2"/>
		<path class="st1" d="M54,65.6c2.3-2.4,4.7-4.6,7.3-6.6"/>
		<path class="st1" d="M64.7,65.8c2.2-2.4,4.5-4.7,6.9-6.8"/>
		<path class="st1" d="M74.9,66.1c0.2-0.5,0.5-0.9,0.9-1.3l5.4-5.9"/>
		<path class="st1" d="M84,66l6.4-7"/>
		<path class="st1" d="M93.7,66.4c2.4-2.6,4.9-5.2,7.4-7.6"/>
		<path class="st1" d="M103.2,66.4c-0.2-0.2,0-0.5,0.1-0.7c2.2-2.3,4.4-4.6,6.6-6.9"/>
		<path class="st1" d="M113.2,66.8c0.7-1,1.6-1.9,2.5-2.7c1.9-1.8,3.6-3.7,5.1-5.7"/>
		<path class="st1" d="M124.6,66.5c2.4-2.6,4.7-5.3,6.8-8.2"/>
		<path class="st1" d="M136.1,66.5c2.6-2.7,5-5.7,7.2-8.7"/>
		<path class="st1" d="M146.7,66.6c2.7-2.8,4.4-6.3,7.2-9.1"/>
		<path class="st1" d="M156.9,66.7c1.9-2.8,4.8-6.5,6.5-9.4"/>
		<path class="st1" d="M165.7,66.5c2.2-2.8,4.5-6.8,6.8-9.5"/>
		<path class="st1" d="M175.5,66.9c0.5-0.8,1.1-1.6,1.7-2.4c1.6-2.2,4.4-5.6,6-7.8"/>
		<path class="st1" d="M183.8,66.9c2.3-3.1,6.5-8,9.1-10.8"/>
		<path class="st1" d="M192.5,66.9c0.6-0.9,1.6-2.1,2.2-2.9l6.1-8l-1.1,1.4"/>
		<path class="st1" d="M200.8,66.9c1.9-3,6.1-8.3,8.2-11.2"/>
		<path class="st1" d="M210.2,66.5c2.3-3.2,5.7-7.6,8.2-10.7"/>
		<path class="st1" d="M218.4,66.9l7.8-11.8"/>
		<path class="st1" d="M228.5,66.8c1.9-3.2,5.2-8.9,7-12.2"/>
		<path class="st1" d="M238.6,66.4l8.7-12.5"/>
		<g class="st2">
			<path class="st3" d="M52.7,29.1c0,0.4-0.1,0.8-0.3,1.2c-0.2,0.4-0.5,0.7-1,1.1c-0.8,0.6-1.6,1.3-2.5,1.9
				c-0.9,0.7-1.8,1.1-2.6,1.4c-0.2,0.1-0.4,0.1-0.5,0.1c0,0.3,0.1,0.9,0.3,1.8c0,0.1,0,0.2,0,0.3c0,0.2-0.1,0.4-0.2,0.6
				c-0.1,0.2-0.3,0.3-0.6,0.4c-0.1,0-0.2,0.1-0.3,0.1c-0.2,0-0.5-0.1-0.7-0.2c-0.2-0.2-0.3-0.3-0.4-0.6c-0.2-1-0.3-1.8-0.4-2.3
				l-0.4-0.1c-0.9-0.2-1.7-0.6-2.4-1.1c-0.7-0.5-1.6-1.2-2.5-2.1c-0.2-0.2-0.3-0.4-0.3-0.7c0-0.3,0.1-0.5,0.3-0.8
				c0.2-0.2,0.4-0.3,0.7-0.3c0.3,0,0.5,0.1,0.8,0.3l0.4,0.4c0.8,0.7,1.2,1,1.4,1.2c0,0-0.1,0-0.2-0.1c0.7,0.5,1.3,0.9,1.7,1
				l-0.1-0.1c0.2,0.1,0.4,0.2,0.4,0.2L43.4,32c-0.1-1.5-0.2-3.3-0.2-5.4c-0.2,0-0.5,0-1-0.1c-0.9-0.1-1.8-0.3-2.6-0.7
				c-0.4-0.2-0.7-0.4-1-0.7c-0.3-0.3-0.6-0.7-0.8-1.2c-0.1-0.3-0.2-0.7-0.2-1c0-0.5,0.1-1,0.3-1.4c0.3-0.7,0.7-1.4,1.3-2.1
				c1.1-1.2,2.4-2.1,4-2.6c0-1.3-0.1-2.2-0.1-2.9c0-0.3,0.1-0.5,0.3-0.8c0.2-0.2,0.5-0.3,0.8-0.3c0.3,0,0.5,0.1,0.7,0.3
				c0.2,0.2,0.3,0.5,0.3,0.8c0.1,0.8,0.1,1.6,0.1,2.4c0.2,0,0.4,0,0.7,0c0.3,0,0.5,0,0.7,0c0.3,0,0.5,0.1,0.7,0.3
				c0.2,0.2,0.3,0.4,0.3,0.7c0,0.3-0.1,0.5-0.3,0.8c-0.1,0.1-0.2,0.2-0.4,0.2c-0.1,0.1-0.3,0.1-0.4,0.1c-0.1,0-0.3,0-0.6,0
				c-0.4,0-0.6,0-0.8,0c0,0.9,0,2.2-0.1,4l0,2c0.8,0,1.4,0,1.9,0c0.5,0,1,0.1,1.5,0.3c0.9,0.2,1.7,0.7,2.4,1.3
				c0.8,0.6,1.3,1.4,1.5,2.3C52.6,28.6,52.7,28.8,52.7,29.1z M42.8,24.5l0.4,0V23c0-1.7,0.1-3,0.1-3.9h0l0,0c-0.5,0.3-1,0.5-1.4,0.8
				c-0.5,0.4-1,0.9-1.4,1.4c-0.2,0.3-0.4,0.6-0.5,0.9l-0.1,0.4c0,0.1,0,0.3,0,0.5l0,0.1l0.1,0.2l0.1,0.2c0.2,0.2,0.5,0.3,0.9,0.5
				L40.6,24c0.4,0.2,1,0.3,1.7,0.4l-0.3,0C42.4,24.4,42.6,24.5,42.8,24.5z M43,32.4L43,32.4C43,32.5,43,32.5,43,32.4z M50.1,29.9
				c0,0,0.1-0.1,0.3-0.4c0,0-0.1,0.1-0.1,0.1l0.1-0.1l0.1-0.1l-0.1,0.1l0.1-0.1l0.1-0.2V29c0-0.2-0.1-0.4-0.2-0.6l0.1,0.3
				c-0.1-0.3-0.2-0.5-0.4-0.8c0,0,0,0,0.1,0.1c-0.2-0.3-0.4-0.5-0.6-0.6h0c-0.4-0.2-0.7-0.4-0.9-0.5l0.3,0.1c-0.5-0.2-1-0.3-1.6-0.4
				h0c-0.7-0.1-1.4-0.1-2-0.1c0,2.5,0.1,4.6,0.3,6.2c0.2,0,0.3-0.1,0.5-0.2l-0.2,0.1c0.6-0.3,1.2-0.6,1.7-1c0.2-0.1,0.8-0.5,1.6-1.1
				v0c0,0,0,0,0.1-0.1h0C49.8,30.1,50.1,29.9,50.1,29.9z M49.2,30.5L49.2,30.5C49.2,30.5,49.2,30.5,49.2,30.5z M50.5,29.4
				C50.5,29.4,50.5,29.5,50.5,29.4L50.5,29.4L50.5,29.4z M50.6,29l0-0.2C50.6,28.9,50.6,29,50.6,29z M50.6,29.3L50.6,29.3
				c0,0,0-0.1,0-0.1L50.6,29.3z M50.6,29.3L50.6,29.3L50.6,29.3L50.6,29.3z"/>
			<path class="st3" d="M67.3,19.5c0,0,0.1,0.1,0.2,0.3c0.1,0.2,0.2,0.4,0.2,0.6c0,0.1,0,0.2,0,0.3c0,0.2-0.2,0.4-0.4,0.6
				c-0.2,0.2-0.4,0.2-0.6,0.2c-0.1,0-0.1,0-0.3-0.1c-1.2-0.4-2.5-0.7-3.9-0.8l0.3,0c-1-0.1-2-0.2-3.2-0.2c-0.7,0-1.4,0-2.2,0.1
				c0,0.8,0,1.9,0,3.5c0.4,0,0.6-0.1,0.8-0.1c1.1,0,2.1,0.4,3,1.3c0.6,0.6,1.1,1.3,1.4,2.1c0.3,0.8,0.5,1.7,0.5,2.6
				c0,0.8-0.1,1.6-0.4,2.3c-0.3,0.8-0.7,1.4-1.2,2.1c-0.5,0.6-1.2,1.2-1.9,1.6c-0.8,0.4-1.5,0.7-2.3,0.7c-0.5,0-0.9,0-1.3-0.2
				c-0.3-0.1-0.6-0.3-0.8-0.5c-0.1,0-0.2-0.2-0.4-0.5c-0.3-0.4-0.5-0.9-0.5-1.4c0-0.5,0.1-0.8,0.3-1.1c0.2-0.3,0.5-0.5,0.9-0.5
				c0.2,0,0.3,0,0.5,0.1c0.1,0.1,0.2,0.1,0.3,0.3c0.1,0.1,0.2,0.2,0.2,0.4c0,0.1,0,0.1,0,0.2c0,0.2-0.1,0.4-0.1,0.6l0,0.1V34l0,0.1
				l0.1,0.1l0.1,0.1l0.1,0h-0.1h0.1c0,0,0.1,0.1,0.1,0.1l-0.1,0l0.3,0.1h-0.1c0.1,0,0.1,0,0.2,0h0.1h0c0.1,0,0.3,0,0.5-0.1l-0.3,0.1
				c0.3,0,0.7-0.2,1.1-0.3L58,34.2c0.5-0.2,0.9-0.4,1.4-0.8l-0.1,0.1c0.3-0.3,0.6-0.6,0.9-0.9c0,0-0.1,0.1-0.1,0.1
				c0.3-0.4,0.5-0.7,0.7-1.1l0,0c0.2-0.5,0.3-0.9,0.4-1.2v0.1c0-0.1,0-0.1,0-0.2v-0.1v0c0-0.1,0-0.3,0-0.5c0-0.2,0-0.4,0-0.5v0v0
				l0-0.2v0.1c-0.1-0.4-0.2-0.8-0.3-1l-0.1-0.2l0.1,0.2c-0.2-0.4-0.4-0.8-0.7-1.1l0.1,0.1c-0.2-0.2-0.4-0.5-0.8-0.8
				c-0.1-0.1-0.3-0.2-0.5-0.3c-0.2-0.1-0.4-0.1-0.5-0.1h-0.4c-0.2,0-0.3,0.1-0.4,0.1c-0.1,0-0.2,0.1-0.3,0.2l0.1-0.1
				c0,0-0.1,0.1-0.1,0.1l-0.1,0.1l0.1,0l-0.1,0.1c-0.2,0.2-0.4,0.3-0.7,0.3c-0.2,0-0.3,0-0.4-0.1c-0.2-0.1-0.4-0.2-0.5-0.4
				s-0.2-0.4-0.2-0.6l-0.1-6.4c0-0.3,0.1-0.5,0.3-0.7c0.2-0.2,0.4-0.3,0.8-0.3c0.3,0,0.5,0.1,0.7,0.3c0,0,0.1,0,0.1,0
				c1.1-0.1,1.9-0.1,2.4-0.1c2.5,0,4.9,0.4,7.3,1.1C67.2,19.5,67.3,19.5,67.3,19.5z M56.2,34.1C56.2,34.1,56.2,34,56.2,34.1
				C56.2,34,56.3,34.1,56.2,34.1C56.3,34.1,56.2,34.1,56.2,34.1z M56.3,34.2L56.3,34.2C56.4,34.3,56.4,34.3,56.3,34.2z M56.4,34.3
				L56.4,34.3L56.4,34.3C56.5,34.3,56.4,34.3,56.4,34.3z M56.5,34.4L56.5,34.4L56.5,34.4z M56.9,34.5L56.9,34.5
				C56.9,34.5,56.9,34.5,56.9,34.5L56.9,34.5z M57.4,26.2L57.4,26.2L57.4,26.2L57.4,26.2z M60.9,28.1L60.9,28.1L60.9,28.1z
				 M61.2,29.3c0,0,0-0.1,0-0.1L61.2,29.3z M61.2,30.3l0,0.1C61.1,30.4,61.1,30.4,61.2,30.3L61.2,30.3z"/>
			<path class="st3" d="M79.7,22.8c-0.3,1.2-0.6,2.5-0.7,3.7v-0.1c-0.1,0.8-0.2,1.7-0.2,2.6c0,0.6,0,1.4,0.1,2.2v0
				c0.2,1.4,0.5,2.6,1,3.7l-0.1-0.1c0.4,0.9,0.9,1.8,1.5,2.6c0.1,0.1,0.1,0.3,0.1,0.5c0,0.1,0,0.2,0,0.3c-0.1,0.3-0.2,0.5-0.5,0.6
				c-0.1,0.1-0.3,0.1-0.5,0.1c-0.1,0-0.2,0-0.3-0.1c-0.2,0-0.4-0.2-0.6-0.5c-0.9-1.2-1.6-2.7-2.1-4.3c-0.5-1.5-0.7-3.2-0.7-5
				c0-1.1,0.1-2.4,0.3-3.8c0.2-1.4,0.5-2.8,1-4.2c0.4-1.4,1-3,1.7-5c0.1-0.2,0.2-0.4,0.4-0.6c0.2-0.1,0.4-0.2,0.6-0.2
				c0.1,0,0.2,0,0.3,0c0.1,0,0.2,0.1,0.4,0.2c0.1,0.1,0.2,0.2,0.3,0.3c0.1,0.1,0.1,0.3,0.1,0.5c0,0.1,0,0.2,0,0.3l-0.8,2.1
				C80.4,20.2,80,21.5,79.7,22.8z M79.9,35c0-0.1-0.1-0.1-0.1-0.2L79.9,35z"/>
			<path class="st3" d="M91.9,35c-0.2,0.2-0.4,0.3-0.7,0.3c-1.5,0.1-3,0.1-4.4,0.1l-2.5,0c-0.3,0-0.5-0.1-0.7-0.3
				c-0.2-0.2-0.3-0.5-0.3-0.8c0-0.3,0.1-0.5,0.3-0.7c0.2-0.2,0.4-0.3,0.7-0.3l2.7,0v-2.5v-9.6l-0.4,0.2c-0.2,0.1-0.3,0.2-0.5,0.2
				c-0.1,0-0.2,0-0.3,0c-0.2-0.1-0.4-0.2-0.6-0.5c-0.1-0.2-0.1-0.4-0.1-0.6c0-0.1,0-0.2,0-0.2c0-0.1,0.1-0.2,0.2-0.4
				c0.1-0.1,0.2-0.2,0.3-0.2c0.9-0.4,2.1-0.9,3.9-1.7c0.2-0.1,0.3-0.2,0.5-0.2c0.1,0,0.1,0,0.3,0c0.2,0.1,0.4,0.2,0.6,0.5
				c0.1,0.1,0.1,0.3,0.1,0.5c0,0.1,0,0.2,0,0.3c0,0.1-0.1,0.2-0.2,0.4c-0.1,0.1-0.2,0.2-0.3,0.2L89,20.3v2.5v10.5
				c0.5,0,1.2,0,2.2-0.1c0.3,0,0.5,0.1,0.7,0.3c0.2,0.2,0.3,0.5,0.3,0.8C92.2,34.6,92.1,34.8,91.9,35z"/>
			<path class="st3" d="M108.6,33.4c0,0,0,0.1-0.1,0.4c-0.2,0.4-0.4,0.7-0.6,1c-0.3,0.2-0.6,0.4-0.9,0.5s-0.7,0.2-1,0.2
				c-0.6,0-1.2-0.2-1.7-0.5c-0.5-0.4-1.1-0.9-1.7-1.5c-0.5-0.5-0.9-1.1-1.1-1.7c-0.1-0.5-0.2-1.1-0.2-1.9c0-0.8,0-1.5,0.1-2
				c0-0.5,0.1-1.1,0.3-1.6c0.2-0.6,0.5-1.1,0.8-1.5c0.4-0.5,0.9-0.8,1.4-0.9c0.1,0,0.2,0,0.3,0c0.2,0,0.3,0,0.5,0.1
				c0.2,0.1,0.4,0.3,0.5,0.6c0,0.1,0,0.1,0,0.2c0,0.2-0.1,0.4-0.1,0.5c-0.1,0.1-0.1,0.2-0.3,0.3c-0.1,0.1-0.2,0.1-0.3,0.2l-0.2,0.1
				l-0.1,0.1c0,0,0,0,0,0l-0.1,0l-0.1,0.1l0.1,0l-0.1,0.1c0,0,0,0,0,0l0,0.1l-0.1,0.1l0.1-0.1l-0.2,0.3v0c0,0-0.1,0.1-0.1,0.2
				l0.1-0.1c-0.1,0.2-0.2,0.5-0.2,1v0c-0.1,0.4-0.1,0.9-0.1,1.6c0,0.1,0,0.4,0,0.6c0,0.3,0,0.5,0,0.7v0v0.1c0,0,0,0.1,0,0.2v-0.1
				c0,0.2,0.1,0.4,0.2,0.5c0,0.1,0.1,0.2,0.2,0.2l-0.1-0.1c0.2,0.3,0.5,0.6,0.8,0.8l0.6,0.6l0,0c0.2,0.2,0.4,0.3,0.7,0.5l0.2,0.1
				c0.2,0,0.3,0,0.4,0l0.2-0.1l0.1-0.1l0,0c0.1-0.2,0.2-0.4,0.4-0.6c0.1-0.1,0.3-0.1,0.5-0.1c0.2,0,0.3,0,0.3,0
				c0.3,0.1,0.5,0.2,0.6,0.5C108.5,33.3,108.6,33.4,108.6,33.4z M103.3,30.8L103.3,30.8C103.3,30.7,103.3,30.8,103.3,30.8
				C103.3,30.8,103.3,30.8,103.3,30.8z M103.6,26.7L103.6,26.7L103.6,26.7L103.6,26.7z M103.9,26.2L103.9,26.2
				C103.9,26.2,103.9,26.2,103.9,26.2C103.9,26.3,103.9,26.3,103.9,26.2z M104,26.1L104,26.1C104,26.1,104,26.1,104,26.1L104,26.1z
				 M104.1,26L104.1,26L104.1,26L104.1,26z M106,33.5l0.2,0C106.1,33.4,106,33.4,106,33.5l-0.1,0C105.9,33.5,105.9,33.5,106,33.5z
				 M106.4,33.3L106.4,33.3L106.4,33.3z M106.5,33.3L106.5,33.3C106.5,33.3,106.5,33.3,106.5,33.3z M106.6,33.2L106.6,33.2
				L106.6,33.2L106.6,33.2z"/>
			<path class="st3" d="M117,27.8c0,0.4-0.1,0.9-0.2,1.4c-0.1,0.8-0.3,1.5-0.5,2.2c-0.2,0.7-0.4,1.4-0.7,2.1
				c-0.1,0.1-0.1,0.3-0.2,0.5c-0.1,0.2-0.2,0.4-0.3,0.7c-0.1,0.3-0.3,0.5-0.6,0.6c-0.3,0.2-0.5,0.3-0.8,0.3c-0.3,0-0.7-0.1-1.1-0.2
				c-0.3-0.1-0.6-0.2-1-0.4c-0.3-0.2-0.6-0.4-0.9-0.7c-0.3-0.3-0.4-0.6-0.6-1c-0.1-0.2-0.1-0.5-0.1-0.8s0-0.5,0-0.5v-1.2v-2.4
				c0-0.3,0.1-0.5,0.3-0.7s0.5-0.3,0.7-0.3c0.3,0,0.5,0.1,0.7,0.3s0.3,0.5,0.3,0.7v2.2v1.1c0,0.1,0,0.2,0,0.4c0,0.1,0,0.3,0,0.5
				c0,0,0,0,0-0.1c0,0,0,0.1,0,0.1v0.2v-0.2l0,0.2l0-0.1c0,0,0,0.1,0.1,0.2l0,0l0,0l0,0.1l0-0.1v0l0.1,0.1l-0.1-0.1l0.2,0.2l0.5,0.3
				l0.6,0.2c0.1-0.2,0.2-0.4,0.3-0.7l-0.1,0.3c0.7-1.6,1.1-3.1,1.3-4.7v0c0-0.2,0-0.5,0-0.9c0-0.1-0.1-0.3-0.1-0.5
				c0-0.1-0.1-0.2-0.1-0.2l-0.2-0.2l-0.3-0.2h-0.1c0,0-0.1,0-0.2,0l-0.1,0l0,0c-0.1,0.1-0.3,0.1-0.5,0.1c-0.4,0-0.7-0.2-0.9-0.5
				c-0.1-0.1-0.2-0.3-0.2-0.5c0-0.2,0-0.4,0.1-0.5c0.1-0.2,0.2-0.3,0.4-0.4c0.4-0.2,0.8-0.3,1.2-0.3c0.5,0,0.9,0.1,1.4,0.4
				c0.4,0.2,0.7,0.5,1,0.9c0.3,0.4,0.4,0.8,0.5,1.2C117,27,117,27.4,117,27.8z M112.1,32.4L112.1,32.4L112.1,32.4L112.1,32.4z
				 M112.1,32.7L112.1,32.7C112.1,32.7,112.1,32.7,112.1,32.7L112.1,32.7z M113.9,26.2L113.9,26.2L113.9,26.2L113.9,26.2L113.9,26.2
				L113.9,26.2h0.1H113.9L113.9,26.2z M114,26.2L114,26.2L114,26.2z M114.4,26.4L114.4,26.4l-0.2-0.2L114.4,26.4L114.4,26.4z
				 M114.6,26.5C114.5,26.5,114.5,26.5,114.6,26.5C114.5,26.5,114.5,26.5,114.6,26.5z M114.9,27.4c0,0,0-0.1,0-0.2
				C114.9,27.3,114.9,27.3,114.9,27.4z"/>
			<path class="st3" d="M124,36.3c-0.2,0.2-0.5,0.3-0.8,0.3c-0.3,0-0.5-0.1-0.7-0.3c-0.2-0.2-0.3-0.4-0.3-0.8l-0.1-1.9v-0.1
				c-0.4,0.6-0.8,1-1,1.3c-0.3,0.4-0.7,0.6-1.2,0.6c-0.3,0-0.5-0.1-0.7-0.2c-0.2-0.1-0.4-0.3-0.5-0.6c-0.1-0.2-0.2-0.4-0.2-0.7
				s0-0.5,0-0.7c0-0.3,0-0.4,0-0.6V31v-3.6c0-0.3,0.1-0.5,0.3-0.7c0.2-0.2,0.4-0.3,0.7-0.3c0.3,0,0.5,0.1,0.7,0.3
				c0.2,0.2,0.3,0.5,0.3,0.7c0,1.5,0,2.7,0,3.4v1.6c0.3-0.6,0.6-1.1,0.9-1.7l-0.1,0.2c0.3-0.7,0.5-1.6,0.7-2.6l0,0.3
				c0-0.3,0.1-0.5,0.1-0.6l0-0.7c0-0.3,0.1-0.5,0.3-0.7c0.2-0.2,0.4-0.3,0.7-0.3c0.3,0,0.5,0.1,0.7,0.3s0.3,0.5,0.3,0.7
				c0,0.4,0,0.7,0,0.9c0,0.2,0,0.5,0,0.9c0,1.9,0,4.1,0.2,6.6C124.3,35.9,124.2,36.1,124,36.3z M120.2,32.8
				c-0.1,0.1-0.1,0.1-0.1,0.2L120.2,32.8z M120.4,33.7C120.4,33.7,120.4,33.7,120.4,33.7C120.4,33.7,120.4,33.7,120.4,33.7z"/>
			<path class="st3" d="M130.5,33c0,0.2-0.1,0.4-0.1,0.5l-1.1,1.5c-0.2,0.2-0.4,0.4-0.5,0.4c-0.1,0.1-0.3,0.1-0.4,0.1l-0.3,0
				c-0.6-0.2-1-0.5-1.4-1c-0.4-0.5-0.6-1-0.8-1.5c-0.2-0.7-0.2-1.5-0.2-2.5c0-0.4,0.1-0.9,0.1-1.6c0.1-1.1,0.3-2.4,0.5-3.9v0
				l0.3-2.4c0.1-0.8,0.1-1.4,0.1-1.8c0-0.3,0.1-0.5,0.3-0.8c0.2-0.2,0.5-0.3,0.8-0.3c0.3,0,0.5,0.1,0.7,0.3c0.2,0.2,0.3,0.5,0.3,0.7
				c0,0.2,0,0.6-0.1,1c-0.1,1-0.3,2.7-0.6,4.9v-0.1c-0.1,0.6-0.1,1.1-0.2,1.3c-0.2,1.3-0.3,2.3-0.3,3.2c0,0.4,0,0.7,0,0.9
				c0,0.3,0.1,0.6,0.2,0.9l-0.1-0.1l0.1,0.2l0.4-0.5c0.2-0.2,0.4-0.4,0.6-0.5c0,0,0.1,0,0.2,0c0.2,0,0.4,0,0.6,0.2
				c0.2,0.1,0.4,0.3,0.5,0.6C130.5,32.8,130.5,32.9,130.5,33z M126.5,24.7l0,0.2C126.5,24.9,126.5,24.8,126.5,24.7z M127.9,32.1
				c0,0,0,0.1,0,0.2C127.9,32.2,127.9,32.1,127.9,32.1z M128.3,26.9l0-0.2C128.3,26.7,128.3,26.8,128.3,26.9z M128.6,33.4
				L128.6,33.4L128.6,33.4L128.6,33.4z M128.6,33.5L128.6,33.5L128.6,33.5z"/>
			<path class="st3" d="M140,34.1c0,0.2-0.1,0.5-0.2,0.6c-0.1,0.2-0.3,0.3-0.6,0.4c0,0-0.1,0-0.2,0c-0.2,0-0.4,0-0.6-0.2
				c-0.3-0.1-0.4-0.3-0.5-0.6c-0.2-1-0.3-1.8-0.4-2.4l-0.1-0.7l-0.4,1.1c-0.8,2.1-1.6,3.9-2.5,5.4c-0.1,0.2-0.2,0.3-0.4,0.4
				c-0.2,0.1-0.3,0.1-0.5,0.1c-0.1,0-0.2,0-0.3,0c-0.6-0.1-1-0.5-1.3-1.2c-0.1-0.3-0.2-0.7-0.2-1.3c0-0.3,0-0.8,0-1.5
				c0-1.4,0.2-2.5,0.5-3.4c0.2-0.5,0.4-0.9,0.6-1.2c0.3-0.4,0.6-0.7,1-1c0.5-0.3,1-0.5,1.5-0.5c0.3,0,0.5,0,0.6,0.1
				c0.3-1,0.6-2.7,1.1-5c0-0.2,0.2-0.4,0.4-0.5s0.4-0.2,0.7-0.2c0.3,0,0.5,0.1,0.7,0.3c0.1,0.1,0.2,0.2,0.2,0.4
				c0.1,0.1,0.1,0.3,0.1,0.4c-0.1,0.6-0.1,1.2-0.1,1.8c0,0.1,0,0.3,0,0.4c0,0.2,0,0.4,0,0.6c0,1.8,0.1,3.5,0.4,5.3l-0.1-0.3
				c0.1,0.6,0.2,1.4,0.4,2.5C140,33.8,140,33.9,140,34.1z M135.3,31.4l0.4-1.3h-0.1l-0.1,0c-0.1,0.1-0.2,0.1-0.2,0.1l0,0l-0.1,0
				l-0.2,0.1l0.1-0.1c-0.1,0.1-0.2,0.2-0.2,0.3c-0.1,0.1-0.2,0.3-0.4,0.6c-0.2,0.5-0.4,1.1-0.4,1.7l0.1-0.3
				c-0.1,0.6-0.1,1.2-0.1,1.8v0.1l0.5-1l-0.1,0.2C134.9,32.7,135.1,31.9,135.3,31.4z M134.5,31.5l0.1-0.2
				C134.6,31.3,134.5,31.3,134.5,31.5z M135.3,30.3L135.3,30.3L135.3,30.3L135.3,30.3z M135.6,30.1L135.6,30.1h0.1H135.6z
				 M135.8,30.1C135.8,30.1,135.8,30.1,135.8,30.1C135.8,30.1,135.8,30.1,135.8,30.1C135.8,30.1,135.8,30.1,135.8,30.1z"/>
			<path class="st3" d="M155.7,28.7c0,0.9-0.3,1.8-0.8,2.5c-0.3,0.4-0.7,0.9-1.2,1.3c-0.2,0.2-0.7,0.5-1.5,1
				c-0.1,0.1-0.3,0.2-0.5,0.2c-0.2,0-0.4-0.1-0.6-0.2v0.2c0,0.3-0.1,0.5-0.3,0.7c-0.2,0.2-0.4,0.3-0.6,0.3c0,0-0.1,0-0.2,0
				c-0.2,0-0.3,0-0.5-0.2c-0.1,0-0.2-0.1-0.3-0.2c-0.1-0.1-0.2-0.2-0.2-0.4c0-0.2-0.1-0.4-0.1-0.8c0-0.3,0-0.5,0-0.7v-1.4v-9
				c0-0.3,0.1-0.5,0.3-0.7c0.2-0.2,0.4-0.3,0.7-0.3c0.3,0,0.5,0.1,0.7,0.3s0.3,0.5,0.3,0.7v2.6V28c0.4-0.6,0.7-1.1,1-1.4
				c0.3-0.3,0.6-0.5,1-0.6c0.2,0,0.3-0.1,0.4-0.1c0.3,0,0.6,0.1,0.9,0.2c0.3,0.1,0.6,0.4,0.8,0.6s0.4,0.6,0.5,0.9
				C155.7,28,155.7,28.3,155.7,28.7z M151.4,31.9C151.4,31.9,151.4,31.8,151.4,31.9C151.4,31.8,151.4,31.9,151.4,31.9
				C151.4,31.9,151.4,31.9,151.4,31.9C151.4,31.9,151.4,31.9,151.4,31.9z M152.8,30.5c0,0,0.1-0.2,0.4-0.5l-0.1,0.1l0.4-0.5
				c0.1-0.2,0.1-0.4,0.2-0.7v-0.3l-0.1-0.4l-0.1-0.1c-0.5,0.7-0.8,1.3-1.1,1.8l-0.8,1.5l0.7-0.5l-0.2,0.2
				C152.6,30.7,152.8,30.5,152.8,30.5z M153.1,30.2C153.1,30.2,153.1,30.2,153.1,30.2C153.1,30.2,153.1,30.2,153.1,30.2z"/>
			<path class="st3" d="M162.7,36.3c-0.2,0.2-0.5,0.3-0.8,0.3c-0.3,0-0.5-0.1-0.7-0.3c-0.2-0.2-0.3-0.4-0.3-0.8l-0.1-1.9v-0.1
				c-0.4,0.6-0.8,1-1,1.3c-0.3,0.4-0.7,0.6-1.2,0.6c-0.3,0-0.5-0.1-0.7-0.2c-0.2-0.1-0.4-0.3-0.5-0.6c-0.1-0.2-0.2-0.4-0.2-0.7
				s0-0.5,0-0.7c0-0.3,0-0.4,0-0.6V31v-3.6c0-0.3,0.1-0.5,0.3-0.7c0.2-0.2,0.4-0.3,0.7-0.3c0.3,0,0.5,0.1,0.7,0.3
				c0.2,0.2,0.3,0.5,0.3,0.7c0,1.5,0,2.7,0,3.4v1.6c0.3-0.6,0.6-1.1,0.9-1.7l-0.1,0.2c0.3-0.7,0.5-1.6,0.7-2.6l0,0.3
				c0-0.3,0.1-0.5,0.1-0.6l0-0.7c0-0.3,0.1-0.5,0.3-0.7c0.2-0.2,0.4-0.3,0.7-0.3c0.3,0,0.5,0.1,0.7,0.3s0.3,0.5,0.3,0.7
				c0,0.4,0,0.7,0,0.9c0,0.2,0,0.5,0,0.9c0,1.9,0,4.1,0.2,6.6C163.1,35.9,163,36.1,162.7,36.3z M158.9,32.8
				c-0.1,0.1-0.1,0.1-0.1,0.2L158.9,32.8z M159.1,33.7C159.1,33.7,159.1,33.7,159.1,33.7C159.1,33.7,159.1,33.7,159.1,33.7z"/>
			<path class="st3" d="M171.7,33.9C171.7,33.8,171.7,33.8,171.7,33.9l-0.5,0.7l0.3,3.6c0,0.5,0.1,1.1,0.2,1.9l0.1,1.8
				c0,0.8-0.1,1.4-0.4,1.8c-0.2,0.3-0.4,0.6-0.8,0.8c-0.2,0.1-0.6,0.2-1,0.3c-0.5,0-1.1-0.1-1.6-0.4c-0.5-0.3-1-0.9-1.2-1.6
				c-0.2-0.4-0.2-0.9-0.2-1.5c0-0.6,0.1-1.3,0.2-2c0.2-1.1,0.6-2.2,1.1-3.2c0.3-0.6,0.6-1.2,1.2-2.1c0-0.3-0.1-0.9-0.2-1.5l-0.2-1.9
				l-0.5,0.8c-0.2,0.2-0.3,0.4-0.4,0.5c-0.1,0.1-0.1,0.2-0.2,0.3c-0.1,0.1-0.2,0.2-0.3,0.3c-0.4,0.3-0.8,0.5-1.2,0.5
				c-0.3,0-0.6-0.1-0.8-0.2c-0.4-0.3-0.6-0.6-0.7-1c-0.1-0.4-0.1-1-0.1-1.8V27c0-0.3,0.1-0.5,0.3-0.7c0.2-0.2,0.5-0.3,0.8-0.3
				c0.3,0,0.5,0.1,0.7,0.3s0.3,0.4,0.3,0.7v2.2V30c0.3-0.5,0.6-1,0.8-1.4c0,0,0,0,0,0c0.4-0.9,0.7-1.8,0.8-2.9
				c0-0.2,0.2-0.4,0.5-0.6c0.1-0.1,0.3-0.1,0.5-0.1c0.3,0,0.5,0.1,0.8,0.3c0.1,0.1,0.2,0.3,0.2,0.4s0.1,0.3,0.1,0.3l0.1,0.9
				c0.1,0.6,0.2,1.9,0.5,3.9l0.1,0.8c0.2-0.2,0.4-0.5,0.8-0.9c0.2-0.2,0.4-0.3,0.7-0.3c0.3,0,0.5,0.1,0.8,0.3
				c0.1,0.1,0.2,0.2,0.2,0.3c0,0.1,0.1,0.3,0.1,0.4c0,0.2-0.1,0.5-0.3,0.7L171.7,33.9z M165.9,31L165.9,31L165.9,31z M165.9,31
				C165.9,31,165.9,31,165.9,31L165.9,31L165.9,31C165.9,31,165.9,31,165.9,31z M168.5,41.3c0,0,0,0.1,0,0.4l0.1,0.5l0.2,0.3
				c0,0.1,0.1,0.1,0.1,0.1c0,0,0.1,0.1,0.1,0.1l0.2,0.1h0.2l0,0l0.1,0v0l0.1-0.3c0-0.2,0-0.5,0-0.8c0-0.3,0-0.5,0-0.6l-0.1-1.8
				c0-0.6-0.1-1-0.1-1.3c-0.4,0.8-0.6,1.8-0.8,2.8C168.5,41,168.5,41.3,168.5,41.3z M168.6,40.5c0,0,0-0.1,0-0.2
				C168.6,40.4,168.6,40.4,168.6,40.5z M169.4,42.7L169.4,42.7L169.4,42.7L169.4,42.7L169.4,42.7C169.4,42.7,169.4,42.7,169.4,42.7
				L169.4,42.7C169.4,42.7,169.4,42.7,169.4,42.7L169.4,42.7L169.4,42.7L169.4,42.7L169.4,42.7L169.4,42.7z M169.5,42.7
				C169.5,42.7,169.5,42.7,169.5,42.7C169.5,42.7,169.5,42.7,169.5,42.7z M169.5,42.7C169.5,42.7,169.5,42.7,169.5,42.7L169.5,42.7z
				 M169.6,42.6L169.6,42.6L169.6,42.6z M169.6,42.6L169.6,42.6L169.6,42.6L169.6,42.6z M169.6,42.4v-0.1V42.4l-0.1,0.1
				C169.6,42.5,169.6,42.5,169.6,42.4z"/>
			<path class="st3" d="M190.4,34.1c0,0.2-0.1,0.5-0.2,0.6c-0.1,0.2-0.3,0.3-0.6,0.4c0,0-0.1,0-0.2,0c-0.2,0-0.4,0-0.6-0.2
				c-0.3-0.1-0.4-0.3-0.5-0.6c-0.2-1-0.3-1.8-0.4-2.4l-0.1-0.7l-0.4,1.1c-0.8,2.1-1.6,3.9-2.5,5.4c-0.1,0.2-0.2,0.3-0.4,0.4
				c-0.2,0.1-0.3,0.1-0.5,0.1c-0.1,0-0.2,0-0.3,0c-0.6-0.1-1-0.5-1.3-1.2c-0.1-0.3-0.2-0.7-0.2-1.3c0-0.3,0-0.8,0-1.5
				c0-1.4,0.2-2.5,0.5-3.4c0.2-0.5,0.4-0.9,0.6-1.2c0.3-0.4,0.6-0.7,1-1c0.5-0.3,1-0.5,1.5-0.5c0.3,0,0.4,0,0.6,0.1
				c0.3-1,0.6-2.7,1.1-5c0-0.2,0.2-0.4,0.4-0.5c0.2-0.1,0.4-0.2,0.7-0.2c0.3,0,0.5,0.1,0.7,0.3c0.1,0.1,0.2,0.2,0.2,0.4
				c0.1,0.1,0.1,0.3,0.1,0.4c-0.1,0.6-0.1,1.2-0.1,1.8c0,0.1,0,0.3,0,0.4c0,0.2,0,0.4,0,0.6c0,1.8,0.1,3.5,0.4,5.3l-0.1-0.3
				c0.1,0.6,0.2,1.4,0.4,2.5C190.4,33.8,190.4,33.9,190.4,34.1z M185.7,31.4l0.4-1.3H186l-0.2,0c-0.1,0.1-0.2,0.1-0.2,0.1l0,0
				l-0.1,0l-0.2,0.1l0.1-0.1c-0.1,0.1-0.2,0.2-0.2,0.3c-0.1,0.1-0.2,0.3-0.4,0.6c-0.2,0.5-0.4,1.1-0.5,1.7l0.1-0.3
				c-0.1,0.6-0.1,1.2-0.1,1.8v0.1l0.5-1l-0.1,0.2C185.2,32.7,185.5,31.9,185.7,31.4z M184.8,31.5l0.1-0.2
				C184.9,31.3,184.9,31.3,184.8,31.5z M185.7,30.3L185.7,30.3L185.7,30.3L185.7,30.3z M186,30.1L186,30.1h0.1H186z M186.2,30.1
				C186.2,30.1,186.2,30.1,186.2,30.1C186.2,30.1,186.2,30.1,186.2,30.1C186.1,30.1,186.2,30.1,186.2,30.1z"/>
			<path class="st3" d="M198.9,27.8c0,0.4-0.1,0.9-0.2,1.4c-0.1,0.8-0.3,1.5-0.5,2.2s-0.4,1.4-0.7,2.1c-0.1,0.1-0.1,0.3-0.2,0.5
				s-0.2,0.4-0.3,0.7c-0.1,0.3-0.3,0.5-0.6,0.6s-0.5,0.3-0.8,0.3s-0.7-0.1-1.1-0.2c-0.3-0.1-0.6-0.2-1-0.4c-0.3-0.2-0.6-0.4-0.9-0.7
				s-0.4-0.6-0.6-1c-0.1-0.2-0.1-0.5-0.1-0.8s0-0.5,0-0.5v-1.2v-2.4c0-0.3,0.1-0.5,0.3-0.7s0.5-0.3,0.7-0.3c0.3,0,0.5,0.1,0.7,0.3
				s0.3,0.5,0.3,0.7v2.2v1.1c0,0.1,0,0.2,0,0.4c0,0.1,0,0.3,0,0.5c0,0,0,0,0-0.1c0,0,0,0.1,0,0.1v0.2v-0.2l0,0.2l0-0.1
				c0,0,0,0.1,0.1,0.2l0,0l0,0l0,0.1l0-0.1v0l0.1,0.1l-0.1-0.1l0.2,0.2l0.5,0.3l0.6,0.2c0.1-0.2,0.2-0.4,0.3-0.7l-0.1,0.3
				c0.7-1.6,1.1-3.1,1.3-4.7v0c0-0.2,0-0.5,0-0.9c0-0.1-0.1-0.3-0.2-0.5c0-0.1-0.1-0.2-0.1-0.2l-0.2-0.2l-0.3-0.2H196
				c0,0-0.1,0-0.2,0l-0.1,0l0,0c-0.1,0.1-0.3,0.1-0.5,0.1c-0.4,0-0.7-0.2-0.9-0.5c-0.1-0.1-0.2-0.3-0.2-0.5c0-0.2,0-0.4,0.1-0.5
				c0.1-0.2,0.2-0.3,0.4-0.4c0.4-0.2,0.8-0.3,1.2-0.3c0.5,0,0.9,0.1,1.4,0.4c0.4,0.2,0.7,0.5,1,0.9c0.3,0.4,0.4,0.8,0.5,1.2
				C198.9,27,198.9,27.4,198.9,27.8z M194,32.4L194,32.4L194,32.4L194,32.4z M194,32.7L194,32.7C194,32.7,194,32.7,194,32.7
				L194,32.7z M195.8,26.2L195.8,26.2L195.8,26.2L195.8,26.2L195.8,26.2L195.8,26.2h0.1H195.8L195.8,26.2z M195.9,26.2L195.9,26.2
				L195.9,26.2z M196.3,26.4L196.3,26.4l-0.2-0.2L196.3,26.4L196.3,26.4z M196.5,26.5C196.4,26.5,196.4,26.5,196.5,26.5
				C196.4,26.5,196.4,26.5,196.5,26.5z M196.8,27.4c0,0,0-0.1,0-0.2C196.8,27.3,196.8,27.3,196.8,27.4z"/>
			<path class="st3" d="M208.7,33.5c0,0.2-0.1,0.4-0.2,0.6c-0.1,0.2-0.3,0.3-0.5,0.4c0,0-0.1,0-0.2,0c-0.2,0-0.4,0-0.6-0.1
				c-0.2-0.1-0.4-0.3-0.5-0.6c-0.3-0.7-0.5-1.4-0.6-2c-0.3-1.3-0.5-2.6-0.6-4c-0.1-0.6-0.1-1.3-0.1-1.9c0-0.3,0-0.5,0-0.6
				c-0.5,0.3-0.7,0.5-0.8,0.5l0.1-0.1c-0.8,0.6-1.5,1.3-2.1,2.1v1.2c0,1.8,0,3.6-0.1,5.4c0,0.3-0.1,0.5-0.3,0.7
				c-0.2,0.2-0.5,0.3-0.8,0.3c-0.3,0-0.5-0.1-0.7-0.3s-0.3-0.4-0.3-0.7c0-1,0.1-1.8,0.1-2.3c0-1.8,0.1-3.2,0.1-4.1
				c0-0.9,0-2.3-0.1-4.1c0-0.3,0.1-0.5,0.3-0.7s0.5-0.3,0.7-0.3c0.3,0,0.5,0.1,0.7,0.3s0.3,0.5,0.3,0.7l0,0.9l0.1-0.1
				c0.8-0.6,1.4-1.1,2-1.4c0.6-0.4,1.1-0.6,1.4-0.6c0.4,0,0.7,0.1,1,0.4c0.2,0.3,0.3,0.6,0.4,1v0.2l0,0.9c0,0.3,0,0.7,0,1.2
				c0,0.9,0.1,1.8,0.2,2.5l-0.1-0.3c0.2,1.4,0.6,2.9,1.1,4.5C208.7,33.3,208.7,33.4,208.7,33.5z"/>
			<path class="st3" d="M215.7,36.3c-0.2,0.2-0.5,0.3-0.8,0.3c-0.3,0-0.5-0.1-0.7-0.3c-0.2-0.2-0.3-0.4-0.3-0.8l-0.1-1.9v-0.1
				c-0.4,0.6-0.8,1-1,1.3c-0.3,0.4-0.7,0.6-1.2,0.6c-0.3,0-0.5-0.1-0.7-0.2c-0.2-0.1-0.4-0.3-0.5-0.6c-0.1-0.2-0.2-0.4-0.2-0.7
				s0-0.5,0-0.7c0-0.3,0-0.4,0-0.6V31v-3.6c0-0.3,0.1-0.5,0.3-0.7c0.2-0.2,0.4-0.3,0.7-0.3c0.3,0,0.5,0.1,0.7,0.3
				c0.2,0.2,0.3,0.5,0.3,0.7c0,1.5,0,2.7,0,3.4v1.6c0.3-0.6,0.6-1.1,0.9-1.7l-0.1,0.2c0.3-0.7,0.5-1.6,0.7-2.6l0,0.3
				c0-0.3,0.1-0.5,0.1-0.6l0-0.7c0-0.3,0.1-0.5,0.3-0.7c0.2-0.2,0.4-0.3,0.7-0.3c0.3,0,0.5,0.1,0.7,0.3s0.3,0.5,0.3,0.7
				c0,0.4,0,0.7,0,0.9c0,0.2,0,0.5,0,0.9c0,1.9,0,4.1,0.2,6.6C216,35.9,215.9,36.1,215.7,36.3z M211.9,32.8
				c-0.1,0.1-0.1,0.1-0.1,0.2L211.9,32.8z M212.1,33.7C212.1,33.7,212.1,33.7,212.1,33.7C212.1,33.7,212.1,33.7,212.1,33.7z"/>
			<path class="st3" d="M224.5,29.7c0,0.3-0.1,0.5-0.3,0.8c-0.2,0.2-0.4,0.3-0.8,0.3c-0.5,0.1-1,0.1-1.5,0.1c0,1.2,0.1,2.5,0.2,3.7
				c0,0.3-0.1,0.5-0.3,0.7c-0.2,0.2-0.5,0.3-0.7,0.3c-0.3,0-0.6-0.1-0.8-0.3c-0.2-0.2-0.3-0.4-0.3-0.7l-0.2-2.6l0-1
				c-0.6,0-1.1,0-1.4,0s-0.5-0.1-0.7-0.3c-0.2-0.2-0.3-0.4-0.3-0.7c0-0.3,0.1-0.5,0.3-0.7s0.4-0.3,0.7-0.3l1.4,0v-1.6
				c0-1.6,0-3.2,0.1-4.7c0-0.3,0.1-0.5,0.3-0.7c0.2-0.2,0.5-0.3,0.8-0.3c0.2,0,0.5,0.1,0.7,0.3c0.2,0.2,0.3,0.4,0.3,0.7
				c0,0.6,0,1.5-0.1,2.7l0,1.8l0,1.8c0.7,0,1.2-0.1,1.5-0.1h0.1c0.2,0,0.5,0.1,0.7,0.3C224.3,29.1,224.4,29.3,224.5,29.7z"/>
			<path class="st3" d="M230.4,28.6c0,2.4-0.2,5.3-0.6,8.7c0,0.2-0.1,0.4-0.2,0.5l-0.2,0.2c-0.2,0.2-0.4,0.3-0.8,0.3
				c-0.3,0-0.5-0.1-0.7-0.3c-0.1-0.1-0.2-0.2-0.2-0.3c-0.1-0.1-0.1-0.3-0.1-0.4c0.1-0.7,0.2-1.6,0.3-2.9c0.2-2.3,0.3-4.3,0.3-5.8
				c0-1.5-0.1-2.8-0.2-4v0c-0.1-0.9-0.2-1.5-0.3-1.9c-0.2-1.1-0.6-2.2-1-3.3c-0.3-0.7-0.5-1.4-0.6-1.9c-0.1-0.5-0.2-1.1-0.2-1.7
				c0-0.3,0.1-0.5,0.3-0.7s0.5-0.3,0.8-0.3c0.3,0,0.5,0.1,0.7,0.3c0.2,0.2,0.3,0.4,0.3,0.7c0,0.2,0,0.4,0.1,0.7l0-0.3
				c0.1,0.6,0.3,1.3,0.6,2.2c0.4,1,0.6,1.7,0.8,2.2C230.1,23,230.4,25.7,230.4,28.6z"/>
		</g>
	</g>
</g>
</svg>
