<svg xmlns="http://www.w3.org/2000/svg" viewBox="0 0 261.28 67.43"><defs><style>.cls-1{fill:#fff;}.cls-1,.cls-2{stroke:#201600;stroke-miterlimit:10;}.cls-2{fill:none;}.cls-3{fill:#201600;}</style></defs><title>firstdonut_ua_1</title><g id="Слой_2" data-name="Слой 2"><g id="Слой_5" data-name="Слой 5"><path class="cls-1" d="M8.48,39.66c0,2.78.44,11.24,1.72,14,1.75,3.75,14.91,3.82,25.15,5.07,16.81,2.05,209.56-2.91,219.09-5.59,2.93-.82,9.55-32.17,4.51-42.74a11.66,11.66,0,0,0-4.71-5.57c-2.24-1.26-5.17-1.73-8-2.06-10.78-1.23-21.78-.9-32.7-.55-14.86.47-100.22.69-108.35-.08C79.59-.34,53.62.51,27.83,1.37c-4.24.14-11.35.06-14.05,2.79C11.46,6.48,8.59,31.34,8.48,39.66Z"/><path class="cls-2" d="M13.77,4.16C5.1,6.9,2.7,12.55,2.28,14.46,1.15,19.59,1.06,24.89.73,30.13c-.34,5.49-.5,28.23,1,30.5,3.5,5.15,91.35,5.65,108.67,5.81,58.64.53,115.29.67,125.86.22,4.88-.21,12.91-6.38,18.31-13.19"/><path class="cls-2" d="M11.39,12.61C7.77,15.86,5,18.25,1.24,21.33"/><path class="cls-2" d="M.92,29.77A85.86,85.86,0,0,1,10.25,23"/><path class="cls-2" d="M.38,38.82q4.18-3.46,8.69-6.5"/><path class="cls-2" d="M.55,47.24q3.86-2.9,7.94-5.5"/><path class="cls-2" d="M1.15,56.83A36.43,36.43,0,0,1,9.4,50.21"/><path class="cls-2" d="M7.23,62.4a60.55,60.55,0,0,1,8-6.07"/><path class="cls-2" d="M19.06,63.76a53.56,53.56,0,0,1,6.07-6"/><path class="cls-2" d="M31.05,64.58A46.42,46.42,0,0,1,37,59.06"/><path class="cls-2" d="M42.8,65.24A52,52,0,0,1,50.45,59"/><path class="cls-2" d="M54,65.6A63.13,63.13,0,0,1,61.29,59"/><path class="cls-2" d="M64.71,65.85a83.24,83.24,0,0,1,6.87-6.79"/><path class="cls-2" d="M74.89,66.12a4.44,4.44,0,0,1,.91-1.29l5.38-5.93"/><path class="cls-2" d="M84,66,90.36,59"/><path class="cls-2" d="M93.67,66.36q3.58-3.93,7.45-7.6"/><path class="cls-2" d="M103.16,66.43c-.22-.15,0-.49.14-.69q3.29-3.47,6.61-6.91"/><path class="cls-2" d="M113.24,66.81a17.85,17.85,0,0,1,2.53-2.66,42.64,42.64,0,0,0,5.07-5.73"/><path class="cls-2" d="M124.62,66.55a79.72,79.72,0,0,0,6.76-8.24"/><path class="cls-2" d="M136.07,66.51a88.36,88.36,0,0,0,7.21-8.72"/><path class="cls-2" d="M146.7,66.64c2.73-2.81,4.39-6.34,7.16-9.12"/><path class="cls-2" d="M156.87,66.69c1.86-2.81,4.83-6.51,6.49-9.44"/><path class="cls-2" d="M165.72,66.54c2.23-2.85,4.51-6.78,6.83-9.55"/><path class="cls-2" d="M175.53,66.86a25,25,0,0,1,1.73-2.39c1.65-2.23,4.36-5.59,6-7.82"/><path class="cls-2" d="M183.78,66.93c2.3-3.09,6.46-8.05,9.11-10.85"/><path class="cls-2" d="M192.53,66.93c.55-.86,1.56-2.08,2.17-2.89l6.08-8-1.09,1.4"/><path class="cls-2" d="M200.78,66.93c1.92-3,6.06-8.28,8.22-11.15"/><path class="cls-2" d="M210.19,66.54c2.32-3.19,5.7-7.62,8.16-10.7"/><path class="cls-2" d="M218.35,66.93l7.82-11.85"/><path class="cls-2" d="M228.49,66.77c1.95-3.2,5.22-8.86,7-12.15"/><path class="cls-2" d="M238.64,66.42l8.66-12.51"/><path class="cls-3" d="M67.68,32.21a3,3,0,0,1-.27,1.23,3.6,3.6,0,0,1-1,1.11A30.16,30.16,0,0,1,64,36.4a11,11,0,0,1-2.61,1.41,3.91,3.91,0,0,1-.54.15q.06.48.33,1.77a1,1,0,0,1,0,.3,1,1,0,0,1-.19.6,1.09,1.09,0,0,1-.56.39,1,1,0,0,1-.27.06,1.07,1.07,0,0,1-.66-.23.88.88,0,0,1-.36-.55q-.3-1.56-.42-2.34l-.45-.09a7.11,7.11,0,0,1-2.4-1.12,23.45,23.45,0,0,1-2.49-2.12.88.88,0,0,1-.33-.72,1,1,0,0,1,.33-.75.92.92,0,0,1,.72-.3,1,1,0,0,1,.75.3l.45.42,1.38,1.17a1,1,0,0,1-.24-.15,9.84,9.84,0,0,0,1.71,1l-.09-.06.39.15-.06-.63q-.18-2.25-.24-5.4-.3,0-1-.06A9.77,9.77,0,0,1,54.66,29a4,4,0,0,1-1-.69,2.94,2.94,0,0,1-.81-1.17,3,3,0,0,1-.18-1,3.47,3.47,0,0,1,.27-1.38,7.18,7.18,0,0,1,1.29-2.07A9.07,9.07,0,0,1,58.26,20q-.06-1.92-.12-2.88a.88.88,0,0,1,.3-.75,1.08,1.08,0,0,1,.75-.3.86.86,0,0,1,.74.28,1.23,1.23,0,0,1,.31.77q.09,1.2.09,2.43a6.32,6.32,0,0,1,.72,0,5.94,5.94,0,0,1,.69,0,1.13,1.13,0,0,1,.72.31,1.07,1.07,0,0,1,.33.73,1.16,1.16,0,0,1-.3.75,1.57,1.57,0,0,1-.36.21,1,1,0,0,1-.39.09,3.93,3.93,0,0,0-.57,0c-.36,0-.63,0-.81,0q0,1.32-.06,4l0,2q1.17,0,1.93,0a7.17,7.17,0,0,1,1.52.25,6.3,6.3,0,0,1,2.4,1.26,4.09,4.09,0,0,1,1.47,2.28A3.1,3.1,0,0,1,67.68,32.21Zm-9.93-4.62.45,0V26.15q.06-2.58.06-3.87h0l0,0a9.79,9.79,0,0,0-1.44.84,9.37,9.37,0,0,0-1.41,1.41,8,8,0,0,0-.51.87l-.12.42a2.43,2.43,0,0,0,0,.45l0,.15.15.21.12.15a3.93,3.93,0,0,0,.87.48l-.27-.09a7.31,7.31,0,0,0,1.68.42l-.27,0A6.2,6.2,0,0,0,57.75,27.59Zm.24,8,.09,0A.12.12,0,0,1,58,35.57ZM65.13,33l.33-.39s-.06.07-.06.09l.09-.12.06-.09-.06.06.06-.12.06-.15v-.09a2,2,0,0,0-.18-.63l.09.27a2.53,2.53,0,0,0-.42-.75s0,.05.06.09a2.66,2.66,0,0,0-.63-.57h0a6,6,0,0,0-.93-.48l.27.09a8,8,0,0,0-1.65-.42h0a17.85,17.85,0,0,0-2-.06q.06,3.78.3,6.15a1.81,1.81,0,0,0,.51-.15l-.18.06a11,11,0,0,0,1.74-1q.33-.21,1.59-1.11v0s0,0,.09-.06h0Zm-.9.66.06-.06Zm1.26-1.08a0,0,0,0,0,0,0l0-.06Zm.12-.42,0-.18A.41.41,0,0,0,65.61,32.15Zm0,.24v0a.12.12,0,0,0,0-.09Zm0,.06v0Z"/><path class="cls-3" d="M82.32,22.63l.2.27a1,1,0,0,1,.2.6.92.92,0,0,1,0,.27.88.88,0,0,1-.36.56,1,1,0,0,1-.63.23,1,1,0,0,1-.27-.06,22.44,22.44,0,0,0-3.87-.84l.3,0a22.59,22.59,0,0,0-3.18-.21q-1.08,0-2.16.09,0,1.17,0,3.48c.36,0,.61-.06.75-.06a4.28,4.28,0,0,1,3,1.29,5.78,5.78,0,0,1,1.43,2.12A6.9,6.9,0,0,1,78.24,33a6.39,6.39,0,0,1-.43,2.32,6.89,6.89,0,0,1-1.25,2.06,6.66,6.66,0,0,1-2,1.58,6.2,6.2,0,0,1-2.34.73,3,3,0,0,1-1.35-.18,2.32,2.32,0,0,1-.84-.51,2.13,2.13,0,0,1-.45-.48,2.46,2.46,0,0,1-.45-1.41,1.87,1.87,0,0,1,.33-1.14,1.09,1.09,0,0,1,.93-.51,1,1,0,0,1,.48.12,1.24,1.24,0,0,1,.3.27.76.76,0,0,1,.18.36.79.79,0,0,1,0,.24,1,1,0,0,1-.15.57l0,.06v.09l0,.12.09.12.09.09.09,0h0a.17.17,0,0,0,.12.06l-.12,0,.27.06h-.15a.69.69,0,0,1,.21,0h0a3.53,3.53,0,0,0,.51-.06l-.27.06a4.62,4.62,0,0,0,1.14-.33l-.27.09a5.49,5.49,0,0,0,1.35-.78l-.06.06a6.43,6.43,0,0,0,.9-.9s-.06.07-.06.09a7.8,7.8,0,0,0,.66-1.08l0,0a6,6,0,0,0,.36-1.2v.09a.65.65,0,0,1,0-.21v0a3.66,3.66,0,0,0,0-.54,3.39,3.39,0,0,0,0-.51v0l0-.24v.12a7.26,7.26,0,0,0-.27-1.05L75.78,31l.09.21a5.57,5.57,0,0,0-.66-1.08l.09.12a4.42,4.42,0,0,0-.75-.75,3.19,3.19,0,0,0-.51-.3A4,4,0,0,0,73.5,29h-.36a1.88,1.88,0,0,0-.42.12,1,1,0,0,0-.3.15l.06-.06s-.07.06-.09.06l-.12.09.09,0-.12.09a.89.89,0,0,1-.69.3.93.93,0,0,1-.42-.09,1,1,0,0,1-.46-.37,1,1,0,0,1-.17-.55l-.06-6.39a1,1,0,0,1,.3-.73,1.17,1.17,0,0,1,.75-.31.9.9,0,0,1,.66.27.33.33,0,0,1,.15,0q1.62-.12,2.37-.12A24.62,24.62,0,0,1,82,22.52ZM71.25,37.19v0s0,0,0,0Zm.09.18.06.06Zm.09.09.06,0h0A0,0,0,0,0,71.43,37.46Zm.12,0v0Zm.33.12-.06,0a.13.13,0,0,1,.09,0Zm.51-8.31h0l-.06.06Zm3.48,1.92v0Zm.3,1.17a.17.17,0,0,1,0-.12Zm0,1.08,0,.12a.33.33,0,0,1,0-.15Z"/><path class="cls-3" d="M94.66,25.89a28.47,28.47,0,0,0-.74,3.67v-.06a18.21,18.21,0,0,0-.18,2.58,18.94,18.94,0,0,0,.15,2.22v0a15.71,15.71,0,0,0,1,3.66l-.06-.06a12,12,0,0,0,1.5,2.58.77.77,0,0,1,.12.48,1.07,1.07,0,0,1,0,.3,1,1,0,0,1-.48.63.81.81,0,0,1-.48.15,1,1,0,0,1-.3-.06,1.21,1.21,0,0,1-.63-.45,13.17,13.17,0,0,1-2.1-4.32,16.94,16.94,0,0,1-.69-5,27.13,27.13,0,0,1,.3-3.81,29.71,29.71,0,0,1,1-4.19q.64-2.08,1.69-5a1.12,1.12,0,0,1,.38-.56.94.94,0,0,1,.58-.19,1.08,1.08,0,0,1,.3,0,.84.84,0,0,1,.36.17,1,1,0,0,1,.27.29,1.09,1.09,0,0,1,.12.54.92.92,0,0,1,0,.27l-.75,2.13Q95.16,24,94.66,25.89Zm.25,12.23a.46.46,0,0,1-.06-.18Z"/><path class="cls-3" d="M111.06,36a1,1,0,0,1-.51.87l-.18.12a10.62,10.62,0,0,1,.24,2.19,14.41,14.41,0,0,1-.12,1.56A11.15,11.15,0,0,1,109,45.11a11,11,0,0,1-2.76,3.27,12.9,12.9,0,0,1-3.84,2.07,12.1,12.1,0,0,1-2.19.48,3.78,3.78,0,0,1-.6.06,1.28,1.28,0,0,1-1-.39,1.89,1.89,0,0,1-.48-1.44,9,9,0,0,1,1.5-4.56A25.12,25.12,0,0,1,102.51,41a38.52,38.52,0,0,1,5.43-4.8l-.27-.42.18.21a2.9,2.9,0,0,0-.33-.36l-.12-.09-.12-.06-.15,0a1.08,1.08,0,0,0-.3,0l-.15.06-.15.09a.77.77,0,0,1-.48.12,1.06,1.06,0,0,1-.3,0,.7.7,0,0,1-.54-.36,1.4,1.4,0,0,1-.24-.63,1,1,0,0,1,.09-.39,1,1,0,0,1,.21-.33,9.07,9.07,0,0,0,1.29-1.32l-.18.21A7.48,7.48,0,0,0,107.46,31l-.09.24a7.38,7.38,0,0,0,.48-1.59v-.06l0-.12v.06a3.63,3.63,0,0,0,0-.54s0-.15-.09-.39a.73.73,0,0,0-.12-.18.36.36,0,0,0-.18-.21l-.18-.12h-.06a.88.88,0,0,1-.36.56,1,1,0,0,1-.63.23.88.88,0,0,1-.75-.3,1.12,1.12,0,0,1-.3-.78,1.53,1.53,0,0,1,.29-.87,2.11,2.11,0,0,1,.71-.66,2.58,2.58,0,0,1,1-.24,2.09,2.09,0,0,1,.72.12,3,3,0,0,1,1.23.85,2.85,2.85,0,0,1,.66,1.33,4.69,4.69,0,0,1,.09.93,5.59,5.59,0,0,1-.36,2,10.2,10.2,0,0,1-1.26,2.46,2.4,2.4,0,0,1,.75.51,3.15,3.15,0,0,1,.6.81.8.8,0,0,1,.36-.09,1.1,1.1,0,0,1,.93.51A1.08,1.08,0,0,1,111.06,36Zm-11.28,13h0Zm8.76-9.78q0-.57,0-.84l-.27.21.21-.18q-.78.6-1.47,1.2a29.8,29.8,0,0,0-4.56,4.74v0a14.07,14.07,0,0,0-1.74,2.88l.12-.24a6,6,0,0,0-.51,1.68v.09a.12.12,0,0,0,0,.09v.09a9.84,9.84,0,0,0,2.46-.69l-.24.09a9.54,9.54,0,0,0,2.34-1.35l-.09.09a13,13,0,0,0,1.89-1.92v0a12.41,12.41,0,0,0,1.14-2l-.06.12a11.66,11.66,0,0,0,.75-2.61v.09A12.71,12.71,0,0,0,108.54,39.17Zm-8.25,9.42a.34.34,0,0,1,0,.15s0-.06,0-.06Zm6.63-13.23a.33.33,0,0,0,.15,0,.17.17,0,0,1-.12,0h0s0,0-.06,0S106.92,35.38,106.92,35.36Zm.72.33s-.07-.06-.09-.06S107.6,35.65,107.64,35.69Zm0-7.26s0,0,0,0a0,0,0,0,0,0,0Zm.17,1.14v.06a.17.17,0,0,1,0-.12Zm.6,8.34a.41.41,0,0,0,0,.18Zm0,2.52,0,.18A.41.41,0,0,1,108.48,40.42Z"/><path class="cls-3" d="M116.94,18.83a.85.85,0,0,1-.15.51,14.59,14.59,0,0,0-1.56,2.7.1.1,0,0,0,0-.08.1.1,0,0,1,0-.08,14.06,14.06,0,0,0-.72,2.25.82.82,0,0,1-.36.54,1.13,1.13,0,0,1-.66.21.9.9,0,0,1-.72-.31,1.09,1.09,0,0,1-.27-.73.76.76,0,0,1,0-.24A13.52,13.52,0,0,1,115,18.29a1,1,0,0,1,.6-.48.91.91,0,0,1,.27,0,1.09,1.09,0,0,1,.54.12,1.06,1.06,0,0,1,.45.63A1,1,0,0,1,116.94,18.83Z"/><path class="cls-3" d="M117.66,20a1.54,1.54,0,0,1,1.53-1.53A1.47,1.47,0,0,1,120.66,20a1.49,1.49,0,0,1-1.47,1.53A1.52,1.52,0,0,1,117.66,20Zm3,18.63V24.11h2.64V38.63ZM123.24,20a1.52,1.52,0,0,1,1.53-1.53,1.53,1.53,0,0,1,0,3.06A1.49,1.49,0,0,1,123.24,20Z"/><path class="cls-3" d="M139.89,34v3.3a1,1,0,0,1-.34.73,1.1,1.1,0,0,1-.76.29,1,1,0,0,1-1-1V33.77q-.21.3-.69.9L135,37.4a9.2,9.2,0,0,1-.85.94,1.23,1.23,0,0,1-.86.29,1.44,1.44,0,0,1-1-.36,1.62,1.62,0,0,1-.54-.9,2.63,2.63,0,0,1-.06-.66l0-1,.06-1.11q-.24.42-.78,1.26a3.92,3.92,0,0,1-1.71,1.65,2.19,2.19,0,0,1-.69.24,2.5,2.5,0,0,1-.45,0,3.06,3.06,0,0,1-.48,0,2.57,2.57,0,0,1-1.26-.6,2.14,2.14,0,0,1-.72-.93,3,3,0,0,1-.24-.93v-.21a3,3,0,0,1,0-.48.73.73,0,0,1,.17-.35A1,1,0,0,1,126,34a1,1,0,0,1,.51-.15.93.93,0,0,1,.27,0,.77.77,0,0,1,.36.18,1.23,1.23,0,0,1,.27.3,1.16,1.16,0,0,1,.12.63v.21l.12.24.21.18h0a0,0,0,0,1,0,0h0l.06,0h0a0,0,0,0,0,0,0h0l.06,0h.18a.47.47,0,0,1,.18-.06l.18-.12a1.77,1.77,0,0,0,.42-.45s0,.05-.06.09a6.86,6.86,0,0,0,.69-1l.81-1.38L132.09,30a1,1,0,0,1,.51-.42,1.25,1.25,0,0,1,.66-.06,1,1,0,0,1,.56.39.9.9,0,0,1,.19.63q-.06,1.11-.12,3.33l-.09,1.65v0l.15-.18,4.11-5.25a.77.77,0,0,1,.6-.27l.21,0a.75.75,0,0,1,.33.09,1,1,0,0,1,.46.36,1,1,0,0,1,.17.57Q139.89,34,139.89,34Zm-12.39,1h0l0,.06Zm.21.45v0l-.06-.09A.05.05,0,0,0,127.71,35.51Zm.15.12h0l.06,0Zm0,0a0,0,0,0,1,0,0Zm0,0h0a.12.12,0,0,1,.09,0Zm.21.09,0,0s0,0,.06,0-.06,0-.06,0h0s0,0-.06,0l-.06,0a0,0,0,0,0,0,0l.09.06Zm0,0h0Zm5.55,1.05v0h0A0,0,0,0,1,133.68,36.77Zm.09.24v0Z"/><path class="cls-3" d="M158.64,36v.18a1,1,0,0,1-.12.51,1.61,1.61,0,0,1-.72.77,2.14,2.14,0,0,1-2.16,0,2.68,2.68,0,0,1-.87-.84,3.05,3.05,0,0,1-.48-2,5.5,5.5,0,0,1,0-.62c0-.17,0-.31.06-.43s0-.19.06-.33a3.75,3.75,0,0,0,0-.51,5.65,5.65,0,0,0,0-.69q0-.3,0-.51-1.89,1.35-3.54,2.43v3.6a1,1,0,0,1-.32.73,1.1,1.1,0,0,1-.76.29.88.88,0,0,1-.67-.31,1,1,0,0,1-.29-.71V30a1,1,0,0,1,.32-.73A1.1,1.1,0,0,1,150,29a.88.88,0,0,1,.67.31,1,1,0,0,1,.29.71v1.56q2-1.38,3.42-2.46h0l.06,0,.15-.12-.06.06a1.13,1.13,0,0,1,.45-.27.64.64,0,0,1,.54,0,1,1,0,0,1,.48.27.78.78,0,0,1,.24.45,9.88,9.88,0,0,1,.36,2.67q0,.57-.12,1.71a7.42,7.42,0,0,0-.09,1.17c0,.16.08.3.12.42l.09.18.12.09h.06a1,1,0,0,1,.9-.51,1,1,0,0,1,.51.12.93.93,0,0,1,.48.63Zm-2-.3h0Zm0,0h0Z"/><path class="cls-3" d="M167.13,30.88A7.92,7.92,0,0,1,167,32.3a17.25,17.25,0,0,1-.48,2.16q-.3,1-.72,2.1c-.06.12-.13.28-.21.48a6.92,6.92,0,0,1-.33.69,1.8,1.8,0,0,1-.58.65,1.39,1.39,0,0,1-.79.25,3.83,3.83,0,0,1-1.14-.24,6.62,6.62,0,0,1-1-.39,2.79,2.79,0,0,1-.9-.68,2.74,2.74,0,0,1-.57-1,2.55,2.55,0,0,1-.12-.81V31.42a1,1,0,0,1,.32-.72,1,1,0,0,1,.73-.3.88.88,0,0,1,.71.29,1,1,0,0,1,.32.73V34.7c0,.1,0,.22,0,.36a2.65,2.65,0,0,0,0,.48s0,0,0-.06a.12.12,0,0,0,0,.09v0l0,.18,0-.09a.51.51,0,0,0,.06.15l0,0,0,0,0,.09,0-.09v0l.12.15-.09-.15.18.18.48.27.6.18a5.22,5.22,0,0,0,.27-.66l-.09.27A17.8,17.8,0,0,0,165,31.46v0q0-.33,0-.93a4,4,0,0,0-.15-.54.31.31,0,0,0-.12-.21l-.18-.24-.27-.15h-.06a.52.52,0,0,0-.21,0l-.06,0,0,0a1,1,0,0,1-.51.12,1,1,0,0,1-.9-.51.78.78,0,0,1-.15-.51,1.11,1.11,0,0,1,.13-.52.85.85,0,0,1,.38-.37,2.36,2.36,0,0,1,1.2-.33,2.79,2.79,0,0,1,1.38.39,3,3,0,0,1,1,.88,3.43,3.43,0,0,1,.54,1.22A4.51,4.51,0,0,1,167.13,30.88Zm-4.92,4.68v0Zm.06.3v0a0,0,0,0,0,0,0ZM164,29.36h.06l0,0h0l.06,0H164Zm.06,0v0Zm.48.21-.09-.09-.15-.06.15.06Zm.12.09s-.07-.06-.09-.06S164.66,29.62,164.7,29.65Zm.36.84a.33.33,0,0,1,0-.15A.33.33,0,0,0,165.06,30.5Z"/><path class="cls-3" d="M175.2,25.9l.31.32a1,1,0,0,1,.32.73V37.61a1,1,0,0,1-.32.73,1.1,1.1,0,0,1-.76.29.93.93,0,0,1-.69-.31,1,1,0,0,1-.3-.71V32.48a4.75,4.75,0,0,1-3.06,1.41v2.76a1,1,0,0,1-.32.73,1.1,1.1,0,0,1-.76.29.93.93,0,0,1-.69-.31,1,1,0,0,1-.3-.71V27.53a1,1,0,0,1,.3-.73,1.17,1.17,0,0,1,.75-.31,1,1,0,0,1,.71.31,1,1,0,0,1,.32.73v4.26h0a2.9,2.9,0,0,0,.75-.21l-.15.09.21-.09a0,0,0,0,1,0,0h0l.51-.3-.06.06.06-.06.15-.09-.15.09a1.89,1.89,0,0,0,.45-.42l.15-.18a1,1,0,0,1,.48-.42,1.13,1.13,0,0,1,.63-.06V27a1,1,0,0,1,.3-.73,1.17,1.17,0,0,1,.75-.32Zm-3.66,5.67h-.06l.06,0Z"/><path class="cls-3" d="M186.78,38l-.32.3a1.15,1.15,0,0,1-.73.33q-1.56,0-2.34,0a3.67,3.67,0,0,1-1.2-.24,1.42,1.42,0,0,1-.56-.45,1.49,1.49,0,0,1-.29-.63,8.67,8.67,0,0,1-.06-1.2v-1l0-1.32-.36.27a3.55,3.55,0,0,1-.78.36,1.82,1.82,0,0,1-.54.06,2.73,2.73,0,0,1-.48,0,2,2,0,0,1-1.44-1,1.11,1.11,0,0,1-.3-.66l0-.36,0-.36a1.17,1.17,0,0,1,.18-.48.77.77,0,0,1,.6-.45.93.93,0,0,1,.27,0,1.09,1.09,0,0,1,.54.12,1.23,1.23,0,0,1,.48.63,1.87,1.87,0,0,1,0,.48s0,0,.06,0l0,0,.15-.06a.69.69,0,0,0,.18-.12,4.22,4.22,0,0,0,.48-.51v0l0-.06.15-.15-.09.09q.33-.42.93-1.26a1.34,1.34,0,0,1,.63-.48.9.9,0,0,1,.27,0,.91.91,0,0,1,.27,0,1,1,0,0,1,.54.38,1.2,1.2,0,0,1,.24.61q0,2,0,3.06t0,1.53c0,.12,0,.27,0,.45a4.58,4.58,0,0,0,0,.63q.33,0,1,0h1.38a.87.87,0,0,1,.72.28,1,1,0,0,1,.3.74Zm-7.47-5.34,0-.09,0-.06-.06.12Zm.09-.21v0h0v0a0,0,0,0,1,0,0Zm0,0,0,0v0Zm.18-.09v0h0A0,0,0,0,0,179.58,32.36Zm0,0h0a0,0,0,0,0,0,0Zm.18-.06.09-.06S179.8,32.26,179.76,32.3Zm.6-.63a0,0,0,0,1,0,0l.09-.09Z"/><path class="cls-3" d="M200.4,28.31a.93.93,0,0,1,0,.27,28.75,28.75,0,0,0-1.29,5.34l0-.27q-.18,1.41-.24,3.3a1,1,0,0,1-1,1,.91.91,0,0,1-.73-.28,1,1,0,0,1-.32-.74l.09-1.95c0-.18,0-.43.08-.75s.06-.59.11-.81l-1.56,2.25-1.14,1.62a4.15,4.15,0,0,1-.83.92,1.94,1.94,0,0,1-1,.4,1.36,1.36,0,0,1-1.23-.6,1.86,1.86,0,0,1-.36-1.2,16,16,0,0,1,.27-2q.09-.57.33-1.65l.3-1.65a16.79,16.79,0,0,0-1.65,2.85,1,1,0,0,1-.6.48.92.92,0,0,1-.27,0,1.08,1.08,0,0,1-.54-.12,1.23,1.23,0,0,1-.3-.27.76.76,0,0,1-.18-.36.5.5,0,0,1,0-.21,1.27,1.27,0,0,1,.15-.57,19.63,19.63,0,0,1,3.69-5.43.92.92,0,0,1,.72-.3,1.12,1.12,0,0,1,.65.19.92.92,0,0,1,.38.56,8.81,8.81,0,0,1,.15,1.53,11.75,11.75,0,0,1-.14,1.8q-.13.87-.43,2.52a10.51,10.51,0,0,0-.24,1.2c.06-.1.14-.22.24-.36l.33-.48,4.74-6.84a1.07,1.07,0,0,1,.9-.51,1,1,0,0,1,.39.09,1.18,1.18,0,0,1,.48.42A1,1,0,0,1,200.4,28.31Zm-8.16,8.34.06,0h0Z"/><path class="cls-3" d="M209.49,36.4a1,1,0,0,1,0,.3.89.89,0,0,1-.48.6,1.2,1.2,0,0,1-.78.12,5.43,5.43,0,0,1-2.58-1.2,4.54,4.54,0,0,1-1.17-1.29l-.15.09-.12.06q-.12,2.82-.21,4.23a1.29,1.29,0,0,1-.33.73,1.05,1.05,0,0,1-.72.32,1,1,0,0,1-.72-.3.82.82,0,0,1-.3-.75l.12-2.13q.12-3.06.12-4.59,0-1,0-1.53l0-1.5a.87.87,0,0,1,.33-.67,1.16,1.16,0,0,1,.78-.29.84.84,0,0,1,.66.31,1.21,1.21,0,0,1,.3.71l.06,2.16v.66a8.17,8.17,0,0,0,.66-.75l-.15.21a8.56,8.56,0,0,0,1-1.65l-.09.15a6.81,6.81,0,0,0,.51-1.8,1,1,0,0,1,.48-.63,1,1,0,0,1,.48-.12,1.08,1.08,0,0,1,.3,0,.83.83,0,0,1,.63.48,1,1,0,0,1,.12.48,1.07,1.07,0,0,1,0,.3,8.3,8.3,0,0,1-.33,1.41,8.5,8.5,0,0,1-1.77,3,5.21,5.21,0,0,0,.42.66l-.15-.21a5.17,5.17,0,0,0,.81.81l-.09-.06a3.21,3.21,0,0,0,.66.39h0l.06,0,.09,0-.06,0a2.75,2.75,0,0,0,1,.27,1,1,0,0,1,.6.48A.78.78,0,0,1,209.49,36.4Zm-5.79-3.48-.12.09.06,0Zm4,2.22a0,0,0,0,1,0,0l.06,0Z"/><path class="cls-3" d="M215.43,31.73a72.31,72.31,0,0,1-.63,8.67,1,1,0,0,1-.15.51l-.15.21a1,1,0,0,1-.75.3,1,1,0,0,1-.72-.3,1.2,1.2,0,0,1-.24-.35.63.63,0,0,1-.06-.37q.12-1.05.3-2.85.33-3.51.33-5.79a30.83,30.83,0,0,0-.24-4v0a17.93,17.93,0,0,0-.33-1.92,24.35,24.35,0,0,0-1-3.27q-.39-1.08-.6-1.9A7.8,7.8,0,0,1,211,19a.92.92,0,0,1,.33-.73,1.15,1.15,0,0,1,.78-.29.88.88,0,0,1,.67.31,1,1,0,0,1,.29.71,6.32,6.32,0,0,0,.06.72l0-.3a8.85,8.85,0,0,0,.6,2.22q.54,1.44.75,2.19A29.39,29.39,0,0,1,215.43,31.73Z"/></g></g></svg>