<svg xmlns="http://www.w3.org/2000/svg" viewBox="0 0 261.28 67.43"><defs><style>.cls-1{fill:#fff;}.cls-1,.cls-2{stroke:#201600;stroke-miterlimit:10;}.cls-2{fill:none;}.cls-3{font-size:30px;fill:#201600;font-family:Kurochkalapkoi-Regular, Kurochka lapkoi;}.cls-4{font-family:MyriadPro-Regular, Myriad Pro;}</style></defs><title>firstdonut_ua</title><g id="Слой_2" data-name="Слой 2"><g id="Слой_5" data-name="Слой 5"><path class="cls-1" d="M8.48,39.66c0,2.78.44,11.24,1.72,14,1.75,3.75,14.91,3.82,25.15,5.07,16.81,2.05,209.56-2.91,219.09-5.59,2.93-.82,9.55-32.17,4.51-42.74a11.66,11.66,0,0,0-4.71-5.57c-2.24-1.26-5.17-1.73-8-2.06-10.78-1.23-21.78-.9-32.7-.55-14.86.47-100.22.69-108.35-.08C79.59-.34,53.62.51,27.83,1.37c-4.24.14-11.35.06-14.05,2.79C11.46,6.48,8.59,31.34,8.48,39.66Z"/><path class="cls-2" d="M13.77,4.16C5.1,6.9,2.7,12.55,2.28,14.46,1.15,19.59,1.06,24.89.73,30.13c-.34,5.49-.5,28.23,1,30.5,3.5,5.15,91.35,5.65,108.67,5.81,58.64.53,115.29.67,125.86.22,4.88-.21,12.91-6.38,18.31-13.19"/><path class="cls-2" d="M11.39,12.61C7.77,15.86,5,18.25,1.24,21.33"/><path class="cls-2" d="M.92,29.77A85.86,85.86,0,0,1,10.25,23"/><path class="cls-2" d="M.38,38.82q4.18-3.46,8.69-6.5"/><path class="cls-2" d="M.55,47.24q3.86-2.9,7.94-5.5"/><path class="cls-2" d="M1.15,56.83A36.43,36.43,0,0,1,9.4,50.21"/><path class="cls-2" d="M7.23,62.4a60.55,60.55,0,0,1,8-6.07"/><path class="cls-2" d="M19.06,63.76a53.56,53.56,0,0,1,6.07-6"/><path class="cls-2" d="M31.05,64.58A46.42,46.42,0,0,1,37,59.06"/><path class="cls-2" d="M42.8,65.24A52,52,0,0,1,50.45,59"/><path class="cls-2" d="M54,65.6A63.13,63.13,0,0,1,61.29,59"/><path class="cls-2" d="M64.71,65.85a83.24,83.24,0,0,1,6.87-6.79"/><path class="cls-2" d="M74.89,66.12a4.44,4.44,0,0,1,.91-1.29l5.38-5.93"/><path class="cls-2" d="M84,66,90.36,59"/><path class="cls-2" d="M93.67,66.36q3.58-3.93,7.45-7.6"/><path class="cls-2" d="M103.16,66.43c-.22-.15,0-.49.14-.69q3.29-3.47,6.61-6.91"/><path class="cls-2" d="M113.24,66.81a17.85,17.85,0,0,1,2.53-2.66,42.64,42.64,0,0,0,5.07-5.73"/><path class="cls-2" d="M124.62,66.55a79.72,79.72,0,0,0,6.76-8.24"/><path class="cls-2" d="M136.07,66.51a88.36,88.36,0,0,0,7.21-8.72"/><path class="cls-2" d="M146.7,66.64c2.73-2.81,4.39-6.34,7.16-9.12"/><path class="cls-2" d="M156.87,66.69c1.86-2.81,4.83-6.51,6.49-9.44"/><path class="cls-2" d="M165.72,66.54c2.23-2.85,4.51-6.78,6.83-9.55"/><path class="cls-2" d="M175.53,66.86a25,25,0,0,1,1.73-2.39c1.65-2.23,4.36-5.59,6-7.82"/><path class="cls-2" d="M183.78,66.93c2.3-3.09,6.46-8.05,9.11-10.85"/><path class="cls-2" d="M192.53,66.93c.55-.86,1.56-2.08,2.17-2.89l6.08-8-1.09,1.4"/><path class="cls-2" d="M200.78,66.93c1.92-3,6.06-8.28,8.22-11.15"/><path class="cls-2" d="M210.19,66.54c2.32-3.19,5.7-7.62,8.16-10.7"/><path class="cls-2" d="M218.35,66.93l7.82-11.85"/><path class="cls-2" d="M228.49,66.77c1.95-3.2,5.22-8.86,7-12.15"/><path class="cls-2" d="M238.64,66.42l8.66-12.51"/><text class="cls-3" transform="translate(52.65 38.63)">$5 (з’<tspan class="cls-4" x="65.79" y="0">ї</tspan><tspan x="72.81" y="0">м пончик)</tspan></text></g></g></svg>