<svg xmlns="http://www.w3.org/2000/svg" viewBox="0 0 261.28 67.43"><defs><style>.cls-1{fill:#fff;}.cls-1,.cls-2{stroke:#201600;stroke-miterlimit:10;}.cls-2{fill:none;}.cls-3{fill:#201600;}</style></defs><title>forthdonut_ru</title><g id="Слой_2" data-name="Слой 2"><g id="Слой_5" data-name="Слой 5"><path class="cls-1" d="M8.48,39.66c0,2.78.44,11.24,1.72,14,1.75,3.75,14.91,3.82,25.15,5.07,16.81,2.05,209.56-2.91,219.09-5.59,2.93-.82,9.55-32.17,4.51-42.74a11.66,11.66,0,0,0-4.71-5.57c-2.24-1.26-5.17-1.73-8-2.06-10.78-1.23-21.78-.9-32.7-.55-14.86.47-100.22.69-108.35-.08C79.59-.34,53.62.51,27.83,1.37c-4.24.14-11.35.06-14.05,2.79C11.46,6.48,8.59,31.34,8.48,39.66Z"/><path class="cls-2" d="M13.77,4.16C5.1,6.9,2.7,12.55,2.28,14.46,1.15,19.59,1.06,24.89.73,30.13c-.34,5.49-.5,28.23,1,30.5,3.5,5.15,91.35,5.65,108.67,5.81,58.64.53,115.29.67,125.86.22,4.88-.21,12.91-6.38,18.31-13.19"/><path class="cls-2" d="M11.39,12.61C7.77,15.86,5,18.25,1.24,21.33"/><path class="cls-2" d="M.92,29.77A85.86,85.86,0,0,1,10.25,23"/><path class="cls-2" d="M.38,38.82q4.18-3.46,8.69-6.5"/><path class="cls-2" d="M.55,47.24q3.86-2.9,7.94-5.5"/><path class="cls-2" d="M1.15,56.83A36.43,36.43,0,0,1,9.4,50.21"/><path class="cls-2" d="M7.23,62.4a60.55,60.55,0,0,1,8-6.07"/><path class="cls-2" d="M19.06,63.76a53.56,53.56,0,0,1,6.07-6"/><path class="cls-2" d="M31.05,64.58A46.42,46.42,0,0,1,37,59.06"/><path class="cls-2" d="M42.8,65.24A52,52,0,0,1,50.45,59"/><path class="cls-2" d="M54,65.6A63.13,63.13,0,0,1,61.29,59"/><path class="cls-2" d="M64.71,65.85a83.24,83.24,0,0,1,6.87-6.79"/><path class="cls-2" d="M74.89,66.12a4.44,4.44,0,0,1,.91-1.29l5.38-5.93"/><path class="cls-2" d="M84,66,90.36,59"/><path class="cls-2" d="M93.67,66.36q3.58-3.93,7.45-7.6"/><path class="cls-2" d="M103.16,66.43c-.22-.15,0-.49.14-.69q3.29-3.47,6.61-6.91"/><path class="cls-2" d="M113.24,66.81a17.85,17.85,0,0,1,2.53-2.66,42.64,42.64,0,0,0,5.07-5.73"/><path class="cls-2" d="M124.62,66.55a79.72,79.72,0,0,0,6.76-8.24"/><path class="cls-2" d="M136.07,66.51a88.36,88.36,0,0,0,7.21-8.72"/><path class="cls-2" d="M146.7,66.64c2.73-2.81,4.39-6.34,7.16-9.12"/><path class="cls-2" d="M156.87,66.69c1.86-2.81,4.83-6.51,6.49-9.44"/><path class="cls-2" d="M165.72,66.54c2.23-2.85,4.51-6.78,6.83-9.55"/><path class="cls-2" d="M175.53,66.86a25,25,0,0,1,1.73-2.39c1.65-2.23,4.36-5.59,6-7.82"/><path class="cls-2" d="M183.78,66.93c2.3-3.09,6.46-8.05,9.11-10.85"/><path class="cls-2" d="M192.53,66.93c.55-.86,1.56-2.08,2.17-2.89l6.08-8-1.09,1.4"/><path class="cls-2" d="M200.78,66.93c1.92-3,6.06-8.28,8.22-11.15"/><path class="cls-2" d="M210.19,66.54c2.32-3.19,5.7-7.62,8.16-10.7"/><path class="cls-2" d="M218.35,66.93l7.82-11.85"/><path class="cls-2" d="M228.49,66.77c1.95-3.2,5.22-8.86,7-12.15"/><path class="cls-2" d="M238.64,66.42l8.66-12.51"/><path class="cls-3" d="M51.24,21.7a1,1,0,0,1-1,1,1.24,1.24,0,0,1-.75-.3l-.15-.12.21.18a6.39,6.39,0,0,0-1.59-.93l.06,0a8,8,0,0,0-1.74-.45l.27,0a3.65,3.65,0,0,0-.9-.06h-.06a0,0,0,0,1,0,0l0,0h0l-.06.06.06-.06s0,.05-.06.09l0,.06-.54,1a10.09,10.09,0,0,0-.6,1.23l.09-.18a18.48,18.48,0,0,0-1.26,4.59l.06-.27A9.89,9.89,0,0,0,43,29.14q0,.33.06,1v0a5.51,5.51,0,0,0,.45,1.68l0-.06a7.44,7.44,0,0,0,.48.81,4.19,4.19,0,0,0,.48.51S44.42,33,44.4,33l.15.12.06,0,0,0,.39.21-.12,0,.24.09.24.06a2.66,2.66,0,0,0,.48,0l-.27.06a1.56,1.56,0,0,0,.51-.15l-.06.06s.07-.06.09-.06l.06,0h0a.84.84,0,0,0,.24-.13l.18-.13-.21.18a5.13,5.13,0,0,0,.81-.81L47,32.5a10.32,10.32,0,0,0,.72-1.11,1,1,0,0,1,.9-.48,1,1,0,0,1,.51.12,1,1,0,0,1,.48.9,1,1,0,0,1-.12.51l-.27.48a6.24,6.24,0,0,1-1.86,2,3.43,3.43,0,0,1-1.89.54,3.22,3.22,0,0,1-1.08-.18,4.83,4.83,0,0,1-2.37-2,7.17,7.17,0,0,1-1-3A6.52,6.52,0,0,1,41,29.25q0-.57.12-1.71a18.93,18.93,0,0,1,.6-3,17.4,17.4,0,0,1,1.14-2.94q.21-.45.69-1.29a5,5,0,0,1,.65-.82,1.67,1.67,0,0,1,.79-.44,2.61,2.61,0,0,1,.69-.09,4.76,4.76,0,0,1,.62,0,4.44,4.44,0,0,0,.53,0,12.12,12.12,0,0,1,1.35.33,8.57,8.57,0,0,1,2.76,1.53.82.82,0,0,1,.3.72Zm-8.13,8.52a.41.41,0,0,1,0,.18A.41.41,0,0,0,43.11,30.22Zm1.44,2.88L44.49,33l.09.06Zm.78.33.18,0A.43.43,0,0,0,45.33,33.43Zm.15-12.3.06-.06-.09.12Zm.11-.12s0,0,0,0l0,.06v0Zm.52,12.29H46l.06,0Zm.84-.71s.06-.07.06-.09S47,32.55,46.95,32.59Z"/><path class="cls-3" d="M59.85,33.88s.06-.07.06-.09l-.57.78.33,3.63q0,.69.15,1.86l.12,1.8a3.34,3.34,0,0,1-.42,1.8,2.54,2.54,0,0,1-.75.78,3.53,3.53,0,0,1-1,.3,2.87,2.87,0,0,1-2.85-2,4,4,0,0,1-.24-1.47,9.69,9.69,0,0,1,.24-2A12.62,12.62,0,0,1,56,36.1,18.87,18.87,0,0,1,57.21,34c0-.34-.07-.85-.15-1.53l-.18-1.92-.51.84q-.24.36-.39.54l-.2.25-.25.31a1.73,1.73,0,0,1-1.17.48,1.29,1.29,0,0,1-.78-.24,1.63,1.63,0,0,1-.72-1,10,10,0,0,1-.12-1.78V27a1,1,0,0,1,.32-.73,1.1,1.1,0,0,1,.76-.28.93.93,0,0,1,.69.31,1,1,0,0,1,.3.7v3a14.79,14.79,0,0,0,.75-1.41,0,0,0,0,0,0,0,11,11,0,0,0,.84-2.91,1,1,0,0,1,.48-.63,1,1,0,0,1,.48-.12,1.27,1.27,0,0,1,.78.27.9.9,0,0,1,.24.43,2.18,2.18,0,0,1,.06.32l.09.93q.12.93.48,3.87l.09.81q.24-.3.78-.9a.85.85,0,0,1,.66-.3,1.2,1.2,0,0,1,.78.3.55.55,0,0,1,.23.3,1.27,1.27,0,0,1,.07.42,1.13,1.13,0,0,1-.3.72ZM54.06,31h0Zm.06,0s0,0,0,0l.06,0h0ZM56.7,41.26l0,.36.12.48.18.27a.53.53,0,0,0,.15.15s.07.06.09.06l.18.09h.21l0,0,.09,0v0l.09-.33a4.4,4.4,0,0,0,0-.79q0-.44,0-.62L57.66,39q-.06-.84-.12-1.32a11.17,11.17,0,0,0-.78,2.82Zm.06-.81a.33.33,0,0,0,0-.15A.33.33,0,0,1,56.76,40.45Zm.84,2.25h0a0,0,0,0,0,0,0l0,0a0,0,0,0,1,0,0h0l0,0h0Zm.12,0s-.05,0-.09.06S57.7,42.67,57.72,42.67Zm-.06.06s.06-.07.06-.09Zm.09-.09h0Zm0,0v0l0,0Zm.06-.21v0l-.06.12A.17.17,0,0,0,57.84,42.43Z"/><path class="cls-3" d="M77.52,30.91v3.3a1,1,0,0,1-.34.73,1.1,1.1,0,0,1-.76.29,1,1,0,0,1-1-1V30.64q-.21.3-.69.9L72.6,34.27a9.16,9.16,0,0,1-.85.95,1.23,1.23,0,0,1-.86.29,1.43,1.43,0,0,1-1-.36,1.62,1.62,0,0,1-.54-.9,2.63,2.63,0,0,1-.06-.66l0-1,.06-1.11q-.24.42-.78,1.26a3.92,3.92,0,0,1-1.71,1.65,2.16,2.16,0,0,1-.69.24,2.45,2.45,0,0,1-.45,0,3,3,0,0,1-.48,0A2.57,2.57,0,0,1,64,34a2.14,2.14,0,0,1-.72-.93,3,3,0,0,1-.24-.93v-.21a3,3,0,0,1,0-.48.73.73,0,0,1,.17-.35,1,1,0,0,1,.31-.25,1,1,0,0,1,.51-.15.93.93,0,0,1,.27,0,.77.77,0,0,1,.36.18,1.23,1.23,0,0,1,.27.3,1.16,1.16,0,0,1,.12.63V32l.12.24.21.18h0a0,0,0,0,1,0,0h0l.06,0h0a0,0,0,0,0,0,0h0l.06,0h.18a.46.46,0,0,1,.18-.06l.18-.12a1.77,1.77,0,0,0,.42-.45s0,0-.06.09a6.87,6.87,0,0,0,.69-1l.81-1.38,1.65-2.76a1,1,0,0,1,.51-.42,1.25,1.25,0,0,1,.66-.06,1,1,0,0,1,.56.39.9.9,0,0,1,.19.63q-.06,1.11-.12,3.33l-.09,1.65v0l.15-.18L75.69,27a.77.77,0,0,1,.6-.27l.21,0a.75.75,0,0,1,.33.09,1,1,0,0,1,.46.36,1,1,0,0,1,.17.57Q77.52,30.91,77.52,30.91Zm-12.39,1h0l0,.06Zm.21.45v0l-.06-.09A.05.05,0,0,0,65.34,32.38Zm.15.12h0l.06,0Zm0,0a0,0,0,0,1,0,0Zm0,0h0a.12.12,0,0,1,.09,0Zm.21.09,0,0s0,0,.06,0-.06,0-.06,0h0s0,0-.06,0l-.06,0a0,0,0,0,0,0,0l.09.06Zm0,0h0Zm5.55,1v0h0A0,0,0,0,1,71.31,33.64Zm.09.24v0Z"/><path class="cls-3" d="M93.45,30.91v3.3a1,1,0,0,1-.34.73,1.1,1.1,0,0,1-.76.29,1,1,0,0,1-1-1V30.64q-.21.3-.69.9l-2.16,2.73a9.16,9.16,0,0,1-.85.95,1.23,1.23,0,0,1-.86.29,1.43,1.43,0,0,1-1-.36,1.62,1.62,0,0,1-.54-.9,2.63,2.63,0,0,1-.06-.66l0-1,.06-1.11q-.24.42-.78,1.26a3.92,3.92,0,0,1-1.71,1.65,2.16,2.16,0,0,1-.69.24,2.45,2.45,0,0,1-.45,0,3,3,0,0,1-.48,0A2.57,2.57,0,0,1,80,34a2.14,2.14,0,0,1-.72-.93,3,3,0,0,1-.24-.93v-.21a3,3,0,0,1,0-.48.73.73,0,0,1,.17-.35,1,1,0,0,1,.31-.25A1,1,0,0,1,80,30.7a.93.93,0,0,1,.27,0,.77.77,0,0,1,.36.18,1.23,1.23,0,0,1,.27.3,1.16,1.16,0,0,1,.12.63V32l.12.24.21.18h0a0,0,0,0,1,0,0h0l.06,0h0a0,0,0,0,0,0,0h0l.06,0h.18a.46.46,0,0,1,.18-.06l.18-.12a1.77,1.77,0,0,0,.42-.45s0,0-.06.09a6.87,6.87,0,0,0,.69-1L84,29.64l1.65-2.76a1,1,0,0,1,.51-.42,1.25,1.25,0,0,1,.66-.06,1,1,0,0,1,.56.39.9.9,0,0,1,.19.63q-.06,1.11-.12,3.33l-.09,1.65v0l.15-.18L91.62,27a.77.77,0,0,1,.6-.27l.21,0a.75.75,0,0,1,.33.09,1,1,0,0,1,.46.36,1,1,0,0,1,.17.57Q93.45,30.91,93.45,30.91Zm-12.39,1h0l0,.06Zm.21.45v0l-.06-.09A.05.05,0,0,0,81.27,32.38Zm.15.12h0l.06,0Zm0,0a0,0,0,0,1,0,0Zm0,0h0a.12.12,0,0,1,.09,0Zm.21.09,0,0s0,0,.06,0-.06,0-.06,0h0s0,0-.06,0l-.06,0a0,0,0,0,0,0,0l.09.06Zm0,0h0Zm5.55,1v0h0A0,0,0,0,1,87.24,33.64Zm.09.24v0Z"/><path class="cls-3" d="M106.23,34.33a1,1,0,0,1-.12.51.92.92,0,0,1-.63.48,1,1,0,0,1-.3,0,.77.77,0,0,1-.48-.12,3.14,3.14,0,0,1-.84-.87,5.36,5.36,0,0,1-.39-.9,11.35,11.35,0,0,1-.27-1.68q-.06-.39-.12-1.17A15.88,15.88,0,0,1,102,32a16.68,16.68,0,0,1-1.83,1.8q-.78.66-1.2,1l-.54.36a2.78,2.78,0,0,1-1.23.33,2,2,0,0,1-1.5-.69A2.85,2.85,0,0,1,95,33a5,5,0,0,1,.18-1.56,11.91,11.91,0,0,1,.45-1.29A7.3,7.3,0,0,1,97,28.13a9.09,9.09,0,0,1,2-1.6,7.93,7.93,0,0,1,4.2-1.23,4.6,4.6,0,0,1,.6,0,1.05,1.05,0,0,1,.33.06h.27a1.07,1.07,0,0,1,.6.3,1,1,0,0,1,.21.33,1,1,0,0,1,.09.39,22.15,22.15,0,0,0-.12,2.43,25.63,25.63,0,0,0,.18,3.06v0a7.17,7.17,0,0,0,.3,1.32l.12.18.06.06a1.62,1.62,0,0,1,.45.63A.93.93,0,0,1,106.23,34.33Zm-4.32-5.55.69-1.38-.33,0,.27-.06a6.53,6.53,0,0,0-1.62.45l.06-.06a7.88,7.88,0,0,0-1.53.9,0,0,0,0,1,0,0A7.2,7.2,0,0,0,98.13,30l0,0a6.06,6.06,0,0,0-.78,1.38l0-.09A8.34,8.34,0,0,0,97,32.52v-.12a.42.42,0,0,1,0,.18V33l.09.33.12.12,0,0a8.15,8.15,0,0,0,1-.66l-.21.15a17.18,17.18,0,0,0,3-3l-.06.09ZM97,32.52l0,.12v-.06S97,32.57,97,32.52Zm0,.6,0,.06.06.12L97,33.18v0Zm.12.21v0Zm3.6-5.46a.47.47,0,0,1,.18-.06Zm4.56,4.26a.43.43,0,0,0,0-.18A.43.43,0,0,1,105.3,32.14Z"/><path class="cls-3" d="M125,32.89v.18a1,1,0,0,1-.12.51,1.6,1.6,0,0,1-.72.76,2.13,2.13,0,0,1-1,.29,2.15,2.15,0,0,1-1.11-.3,2.69,2.69,0,0,1-.87-.84,3.05,3.05,0,0,1-.48-2,5.51,5.51,0,0,1,0-.62c0-.17,0-.31.06-.43s0-.19.06-.33a3.75,3.75,0,0,0,0-.51,5.65,5.65,0,0,0,0-.69q0-.3,0-.51-1.89,1.35-3.54,2.43v3.6a1,1,0,0,1-.32.74,1.1,1.1,0,0,1-.76.29.88.88,0,0,1-.67-.32,1,1,0,0,1-.29-.71V26.85a1,1,0,0,1,.32-.73,1.1,1.1,0,0,1,.76-.29.88.88,0,0,1,.67.31,1,1,0,0,1,.29.71v1.56q2-1.38,3.42-2.46h0l.06,0,.15-.12-.06.06a1.13,1.13,0,0,1,.45-.27.64.64,0,0,1,.54,0,1,1,0,0,1,.48.27.78.78,0,0,1,.24.45,9.88,9.88,0,0,1,.36,2.67q0,.57-.12,1.71a7.43,7.43,0,0,0-.09,1.17c0,.16.08.3.12.42l.09.18.12.09h.06A1,1,0,0,1,124,32a1,1,0,0,1,.51.12.93.93,0,0,1,.48.63Zm-2-.3h0Zm0,0h0Z"/><path class="cls-3" d="M133.47,27.75a7.92,7.92,0,0,1-.15,1.41,17.25,17.25,0,0,1-.48,2.16q-.3,1-.72,2.1-.09.18-.21.48a6.92,6.92,0,0,1-.33.69,1.8,1.8,0,0,1-.58.65,1.39,1.39,0,0,1-.79.25,3.85,3.85,0,0,1-1.14-.24,6.67,6.67,0,0,1-1-.39,2.78,2.78,0,0,1-.9-.68,2.73,2.73,0,0,1-.57-1,2.55,2.55,0,0,1-.12-.81V28.29a1,1,0,0,1,.32-.72,1,1,0,0,1,.73-.3.88.88,0,0,1,.71.29,1,1,0,0,1,.32.73v3.27c0,.1,0,.22,0,.36a2.65,2.65,0,0,0,0,.48s0,0,0-.06a.12.12,0,0,0,0,.09v0l0,.18,0-.09a.51.51,0,0,0,.06.15l0,0,0,0,0,.09,0-.09v0l.12.15-.09-.15.18.18.48.27.6.18a5.25,5.25,0,0,0,.27-.66l-.09.27a17.8,17.8,0,0,0,1.29-4.65v0q0-.33,0-.93a4,4,0,0,0-.15-.54.31.31,0,0,0-.12-.21l-.18-.24-.27-.15h-.06a.52.52,0,0,0-.21,0l-.06,0,0,0a1,1,0,0,1-.51.12,1,1,0,0,1-.9-.51.78.78,0,0,1-.15-.51,1.11,1.11,0,0,1,.13-.52.85.85,0,0,1,.38-.37,2.36,2.36,0,0,1,1.2-.33,2.79,2.79,0,0,1,1.38.39,3,3,0,0,1,1,.88,3.43,3.43,0,0,1,.54,1.22A4.51,4.51,0,0,1,133.47,27.75Zm-4.92,4.68v0Zm.06.3v0a0,0,0,0,0,0,0Zm1.77-6.51h.06l0,0h0l.06,0h-.12Zm.06,0v0Zm.48.21-.09-.09-.15-.06.15.06Zm.12.09s-.07-.06-.09-.06S131,26.49,131,26.52Zm.36.84a.33.33,0,0,1,0-.15A.33.33,0,0,0,131.4,27.37Z"/><path class="cls-3" d="M158.4,20.95a1,1,0,0,1-.3.72q-1.23,1.29-2,2.22l.18-.21a22,22,0,0,0-3,5l.09-.24a7.44,7.44,0,0,0-.48,1.65l0,.3,0,.33a.52.52,0,0,0,.09.24l.06.12,0,0,.12.06.15.06h0s.07-.06.09-.06A.78.78,0,0,1,154,31a1.07,1.07,0,0,1,.3,0,1.25,1.25,0,0,1,.63.48,1,1,0,0,1,.12.51.9.9,0,0,1,0,.27,1.1,1.1,0,0,1-.48.63,1.89,1.89,0,0,1-1.17.36,1.8,1.8,0,0,1-.72-.12,2.61,2.61,0,0,1-1.5-1.29,1.68,1.68,0,0,1-.18-.48q-.21.39-.57,1.17a.87.87,0,0,1-.36.38,1,1,0,0,1-.51.13.91.91,0,0,1-.42-.09,1,1,0,0,1-.45-.39,1,1,0,0,1-.18-.57.92.92,0,0,1,0-.27,15.16,15.16,0,0,0,.54-2.52v0l.06-.54-.72.9a8.13,8.13,0,0,1-1.32,3.24,7.76,7.76,0,0,1-2.91,2.52,1,1,0,0,1-.51.12,1,1,0,0,1-.72-.3.92.92,0,0,1-.33-.75.9.9,0,0,1,.15-.48l1.35-2q.72-1.08,2.28-3.12a6.8,6.8,0,0,0-.06-1.23l.06.27a12.38,12.38,0,0,0-.42-1.53,5.9,5.9,0,0,0-.84-1.44l.09.09a4.94,4.94,0,0,0-.72-.75v0a3.55,3.55,0,0,0,.12.54.93.93,0,0,1,0,.27,1,1,0,0,1-.21.62,1,1,0,0,1-.54.38,1,1,0,0,1-.3.06.91.91,0,0,1-.6-.23,1.07,1.07,0,0,1-.36-.56,4.29,4.29,0,0,1-.21-1.23,2.39,2.39,0,0,1,.12-.81,1.91,1.91,0,0,1,.9-1.08,2.2,2.2,0,0,1,.87-.21,2.28,2.28,0,0,1,.93.27,4.32,4.32,0,0,1,1.5,1.35,7.19,7.19,0,0,1,1.08,1.8,11.25,11.25,0,0,1,.39,1.14q.78-1,1.2-1.41a.89.89,0,0,1,.69-.3,1,1,0,0,1,.45.09,1,1,0,0,1,.63.93,6.07,6.07,0,0,1,0,.69q.9-1.44,1.89-2.88.6-.84,1.86-2.46a5.75,5.75,0,0,1,1-1.11,1.77,1.77,0,0,1,1-.33,1.39,1.39,0,0,1,1,.42A.92.92,0,0,1,158.4,20.95ZM144.12,33s.07-.06.09-.06S144.16,33,144.12,33Zm.42-8.7a.34.34,0,0,1,0,.15A.34.34,0,0,0,144.54,24.33Zm1.89,4.8a.17.17,0,0,0,0,.12.12.12,0,0,1,0-.09Z"/><path class="cls-3" d="M166.65,33.55l.21.3a1.13,1.13,0,0,1,.21.66.77.77,0,0,1,0,.24,1.1,1.1,0,0,1-.48.63,1,1,0,0,1-.51.12,1,1,0,0,1-.3,0A12.82,12.82,0,0,1,163,34.7a5.32,5.32,0,0,1-2-1.43,3.94,3.94,0,0,1-1.08-2.1,5.76,5.76,0,0,1,0-.66,5.3,5.3,0,0,1,0-.66,4.49,4.49,0,0,1,.33-1.08,3.67,3.67,0,0,1,1.41-1.63,3.72,3.72,0,0,1,2-.62,3.93,3.93,0,0,1,2.28.66,2.71,2.71,0,0,1,1.41,2.22,1.41,1.41,0,0,1-.32.88,1.59,1.59,0,0,1-.79.56,3.28,3.28,0,0,1-.79.09H165q-.84,0-2.52,0a1,1,0,0,1-.48-.12,1.1,1.1,0,0,0,.12.33,4.71,4.71,0,0,0,.3.57l-.06-.06.06.06.09.15s0,0-.06-.09l.48.48a5.25,5.25,0,0,0,1.17.69,19.2,19.2,0,0,0,2.25.57Zm-4.71-3.18a.34.34,0,0,0,0-.15.12.12,0,0,1,0,.09Zm0,.27a.12.12,0,0,1,0,.09.34.34,0,0,0,0-.15Zm.15-.81v0Zm1.62-1.23a1.44,1.44,0,0,0-.33,0l.3-.06-.48.09-.33.18h1.35a4.14,4.14,0,0,0,.57,0l-.15-.09.06,0-.09,0-.15-.09.12.06a1.91,1.91,0,0,0-.54-.12A1.23,1.23,0,0,0,163.71,28.6Zm-.64.12a.1.1,0,0,0-.08,0,.1.1,0,0,1,.08,0,.1.1,0,0,0,.08,0A.1.1,0,0,1,163.06,28.72Zm1.58.06-.06,0,0,0Zm.75.45v0Z"/><path class="cls-3" d="M178.17,34.45A1.24,1.24,0,0,1,178,35a1.08,1.08,0,0,1-.6.48.9.9,0,0,1-.27,0,1,1,0,0,1-.54-.15.89.89,0,0,1-.48-.6q-.12-.87-.3-2.31a37.4,37.4,0,0,1-.3-3.84l-.06.12q-1.14,2.13-1.79,3.22a13.86,13.86,0,0,1-1.58,2.15,2.4,2.4,0,0,1-1.74,1,1.2,1.2,0,0,1-.74-.18,1.42,1.42,0,0,1-.53-.54,2.17,2.17,0,0,1-.18-1.2V29.31a.92.92,0,0,1,.33-.73,1.15,1.15,0,0,1,.78-.29.88.88,0,0,1,.67.32,1,1,0,0,1,.29.7V32.2l.18-.24-.15.21q.45-.6,1.08-1.62l1.08-1.92.63-1.17a20.11,20.11,0,0,1,2-3.12,1,1,0,0,1,.6-.3h.15a1.69,1.69,0,0,1,.39.06,1.34,1.34,0,0,1,.45.4.94.94,0,0,1,.18.56q-.06,1.2-.06,1.83a50.79,50.79,0,0,0,.42,6.42l0-.3.18,1.17ZM170.37,33h0Zm6.84-7.11-.06.09S177.21,25.95,177.21,25.93Z"/><path class="cls-3" d="M190.95,34.33a1,1,0,0,1-.12.51.92.92,0,0,1-.63.48,1,1,0,0,1-.3,0,.77.77,0,0,1-.48-.12,3.14,3.14,0,0,1-.84-.87,5.36,5.36,0,0,1-.39-.9,11.35,11.35,0,0,1-.27-1.68q-.06-.39-.12-1.17A15.88,15.88,0,0,1,186.68,32a16.68,16.68,0,0,1-1.83,1.8q-.78.66-1.2,1l-.54.36a2.78,2.78,0,0,1-1.23.33,2,2,0,0,1-1.5-.69A2.85,2.85,0,0,1,179.7,33a5,5,0,0,1,.18-1.56,11.91,11.91,0,0,1,.45-1.29,7.3,7.3,0,0,1,1.35-2.06,9.09,9.09,0,0,1,2-1.6,7.93,7.93,0,0,1,4.2-1.23,4.6,4.6,0,0,1,.6,0,1.05,1.05,0,0,1,.33.06H189a1.07,1.07,0,0,1,.6.3,1,1,0,0,1,.21.33,1,1,0,0,1,.09.39,22.15,22.15,0,0,0-.12,2.43,25.63,25.63,0,0,0,.18,3.06v0a7.17,7.17,0,0,0,.3,1.32l.12.18.06.06a1.62,1.62,0,0,1,.45.63A.93.93,0,0,1,190.95,34.33Zm-4.32-5.55.69-1.38-.33,0,.27-.06a6.53,6.53,0,0,0-1.62.45l.06-.06a7.88,7.88,0,0,0-1.53.9,0,0,0,0,1,0,0A7.2,7.2,0,0,0,182.84,30l0,0a6.06,6.06,0,0,0-.78,1.38l0-.09a8.34,8.34,0,0,0-.36,1.29v-.12a.42.42,0,0,1,0,.18V33l.09.33.12.12,0,0a8.15,8.15,0,0,0,1-.66l-.21.15a17.18,17.18,0,0,0,3-3l-.06.09Zm-4.86,3.75,0,.12v-.06S181.76,32.57,181.76,32.52Zm0,.6,0,.06.06.12-.06-.12v0Zm.12.21v0Zm3.6-5.46a.47.47,0,0,1,.18-.06ZM190,32.14a.43.43,0,0,0,0-.18A.43.43,0,0,1,190,32.14Z"/><path class="cls-3" d="M199,22.77l.31.32a1,1,0,0,1,.32.73V34.48a1,1,0,0,1-.32.74,1.1,1.1,0,0,1-.76.29.93.93,0,0,1-.69-.32,1,1,0,0,1-.3-.71V29.35a4.75,4.75,0,0,1-3.06,1.41v2.76a1,1,0,0,1-.32.74,1.1,1.1,0,0,1-.76.29.93.93,0,0,1-.69-.32,1,1,0,0,1-.3-.71V24.39a1,1,0,0,1,.3-.73,1.17,1.17,0,0,1,.75-.31,1,1,0,0,1,.71.31,1,1,0,0,1,.32.73v4.26h0a2.9,2.9,0,0,0,.75-.21l-.15.09.21-.09a0,0,0,0,1,0,0h0l.51-.3-.06.06.06-.06L196,28l-.15.09a1.89,1.89,0,0,0,.45-.42l.15-.18a1,1,0,0,1,.48-.42,1.13,1.13,0,0,1,.63-.06V23.83a1,1,0,0,1,.3-.73,1.17,1.17,0,0,1,.75-.32Zm-3.66,5.67h-.06l.06,0Z"/><path class="cls-3" d="M213.3,25.18a.93.93,0,0,1,0,.27A28.75,28.75,0,0,0,212,30.79l0-.27q-.18,1.41-.24,3.3a1,1,0,0,1-1,1,.91.91,0,0,1-.73-.29,1,1,0,0,1-.32-.74l.09-1.95c0-.18,0-.43.08-.75s.06-.59.11-.81l-1.56,2.25-1.14,1.62a4.14,4.14,0,0,1-.83.92,1.93,1.93,0,0,1-1,.41,1.36,1.36,0,0,1-1.23-.6,1.86,1.86,0,0,1-.36-1.2,16,16,0,0,1,.27-2q.09-.57.33-1.65l.3-1.65a16.79,16.79,0,0,0-1.65,2.85,1,1,0,0,1-.6.48.94.94,0,0,1-.27,0,1.08,1.08,0,0,1-.54-.12,1.23,1.23,0,0,1-.3-.27.76.76,0,0,1-.18-.36.5.5,0,0,1,0-.21,1.27,1.27,0,0,1,.15-.57A19.63,19.63,0,0,1,205,24.81a.92.92,0,0,1,.72-.3,1.12,1.12,0,0,1,.65.19.92.92,0,0,1,.38.56,8.81,8.81,0,0,1,.15,1.53,11.75,11.75,0,0,1-.14,1.8q-.13.87-.43,2.52a10.51,10.51,0,0,0-.24,1.2c.06-.1.14-.22.24-.36l.33-.48,4.74-6.84a1.07,1.07,0,0,1,.9-.51,1,1,0,0,1,.39.09,1.18,1.18,0,0,1,.48.42A1,1,0,0,1,213.3,25.18Zm-8.16,8.34.06,0h0Z"/><path class="cls-3" d="M227.13,26.89l-.06.72a6.24,6.24,0,0,1-.15,1.32,7.87,7.87,0,0,1-.79,2.28,9.86,9.86,0,0,1-1.4,2,6.53,6.53,0,0,1-1.63,1.29,3.71,3.71,0,0,1-1.81.51,2.78,2.78,0,0,1-1.26-.3,2.23,2.23,0,0,1-.93-.83,3.28,3.28,0,0,1-.48-1.21,5.72,5.72,0,0,1-.06-1.14h-1.68l0,3.54a.85.85,0,0,1-.33.69,1.15,1.15,0,0,1-.75.27.88.88,0,0,1-.67-.32,1.16,1.16,0,0,1-.31-.71l0-2q0-3.75.21-7a1.1,1.1,0,0,1,.32-.74,1,1,0,0,1,.76-.28.93.93,0,0,1,.69.31A.9.9,0,0,1,217,26L217,28l-.06,1.47q1.86,0,2.76,0a1,1,0,0,1,.81.39,1,1,0,0,1,.21.6,1.23,1.23,0,0,1,0,.3l0,.33q0,.33,0,1a1.77,1.77,0,0,0,.15.51l.06.09.12.15.12.06.24.06h.12l.21,0h-.12a1.32,1.32,0,0,0,.28-.09l.23-.09.54-.3a9.67,9.67,0,0,0,1.17-1.2l-.09.12a9.9,9.9,0,0,0,.9-1.56s-.06.07-.06.09A9,9,0,0,0,225,28l-.06.27a6.46,6.46,0,0,0,.06-.75,2.76,2.76,0,0,0,0-.48l.06.27a2,2,0,0,0-.12-.42l0-.09a0,0,0,0,1,0,0h0l-.06,0-.18-.06h-.24l-.24.06-.27.15-.24.24-.36.6s.06-.07.06-.09a8,8,0,0,0-.36,1.26.82.82,0,0,1-.36.54,1.13,1.13,0,0,1-.66.21.78.78,0,0,1-.24,0,1.1,1.1,0,0,1-.63-.48,1,1,0,0,1-.12-.51,1.08,1.08,0,0,1,0-.3,5.21,5.21,0,0,1,1.17-2.64,2.89,2.89,0,0,1,1-.78,3,3,0,0,1,1.29-.3,2.78,2.78,0,0,1,1.44.39,2.53,2.53,0,0,1,1,1.26Zm-6.48,4a.34.34,0,0,1,0,.15A.34.34,0,0,0,220.64,30.85Zm.09,1.8v0h0Zm.21.21,0,.06h0Zm.09.09h0Zm.06,0h0l.06,0A.12.12,0,0,0,221.09,32.95Zm.3,0h0a.18.18,0,0,1,.12,0Zm3.09-6.33a.12.12,0,0,0,.09,0l-.09,0h0l-.12,0A.18.18,0,0,0,224.49,26.64Zm.28.06s0,0,0,0l-.06-.06,0,0Zm.11.09.06,0-.09-.06Zm0,0h0v0A0,0,0,0,0,224.91,26.83Zm0,.06,0-.06v0Z"/></g></g></svg>