<?xml version="1.0" encoding="utf-8"?>
<!-- Generator: Adobe Illustrator 21.0.2, SVG Export Plug-In . SVG Version: 6.00 Build 0)  -->
<svg version="1.1" id="Слой_1" xmlns="http://www.w3.org/2000/svg" xmlns:xlink="http://www.w3.org/1999/xlink" x="0px" y="0px"
	 viewBox="0 0 261.3 67.4" style="enable-background:new 0 0 261.3 67.4;" xml:space="preserve">
<style type="text/css">
	.st0{fill:#FFFFFF;stroke:#201600;stroke-miterlimit:10;}
	.st1{fill:none;stroke:#201600;stroke-miterlimit:10;}
	.st2{enable-background:new    ;}
	.st3{fill:#201600;}
</style>
<title>Ресурс 5</title>
<g id="Слой_2">
	<g id="Слой_5">
		<path class="st0" d="M8.5,39.7c0,2.8,0.4,11.2,1.7,14c1.8,3.8,14.9,3.8,25.1,5.1c16.8,2,209.6-2.9,219.1-5.6
			c2.9-0.8,9.5-32.2,4.5-42.7c-0.9-2.3-2.6-4.3-4.7-5.6c-2.2-1.3-5.2-1.7-8-2.1c-10.8-1.2-21.8-0.9-32.7-0.5
			c-14.9,0.5-100.2,0.7-108.3-0.1C79.6-0.3,53.6,0.5,27.8,1.4c-4.2,0.1-11.4,0.1-14.1,2.8C11.5,6.5,8.6,31.3,8.5,39.7z"/>
		<path class="st1" d="M13.8,4.2C5.1,6.9,2.7,12.5,2.3,14.5c-1.1,5.1-1.2,10.4-1.5,15.7c-0.3,5.5-0.5,28.2,1,30.5
			c3.5,5.2,91.3,5.7,108.7,5.8c58.6,0.5,115.3,0.7,125.9,0.2c4.9-0.2,12.9-6.4,18.3-13.2"/>
		<path class="st1" d="M11.4,12.6C7.8,15.9,5,18.2,1.2,21.3"/>
		<path class="st1" d="M0.9,29.8c3-2.5,6.1-4.7,9.3-6.8"/>
		<path class="st1" d="M0.4,38.8c2.8-2.3,5.7-4.5,8.7-6.5"/>
		<path class="st1" d="M0.6,47.2c2.6-1.9,5.2-3.8,7.9-5.5"/>
		<path class="st1" d="M1.1,56.8c2.4-2.6,5.2-4.8,8.3-6.6"/>
		<path class="st1" d="M7.2,62.4c2.5-2.2,5.2-4.3,8-6.1"/>
		<path class="st1" d="M19.1,63.8c1.9-2.2,3.9-4.2,6.1-6"/>
		<path class="st1" d="M31,64.6c1.8-2,3.8-3.9,6-5.5"/>
		<path class="st1" d="M42.8,65.2c2.3-2.3,4.9-4.4,7.7-6.2"/>
		<path class="st1" d="M54,65.6c2.3-2.4,4.7-4.6,7.3-6.6"/>
		<path class="st1" d="M64.7,65.8c2.2-2.4,4.5-4.7,6.9-6.8"/>
		<path class="st1" d="M74.9,66.1c0.2-0.5,0.5-0.9,0.9-1.3l5.4-5.9"/>
		<path class="st1" d="M84,66l6.4-7"/>
		<path class="st1" d="M93.7,66.4c2.4-2.6,4.9-5.2,7.4-7.6"/>
		<path class="st1" d="M103.2,66.4c-0.2-0.2,0-0.5,0.1-0.7c2.2-2.3,4.4-4.6,6.6-6.9"/>
		<path class="st1" d="M113.2,66.8c0.7-1,1.6-1.9,2.5-2.7c1.9-1.8,3.6-3.7,5.1-5.7"/>
		<path class="st1" d="M124.6,66.5c2.4-2.6,4.7-5.3,6.8-8.2"/>
		<path class="st1" d="M136.1,66.5c2.6-2.7,5-5.7,7.2-8.7"/>
		<path class="st1" d="M146.7,66.6c2.7-2.8,4.4-6.3,7.2-9.1"/>
		<path class="st1" d="M156.9,66.7c1.9-2.8,4.8-6.5,6.5-9.4"/>
		<path class="st1" d="M165.7,66.5c2.2-2.8,4.5-6.8,6.8-9.5"/>
		<path class="st1" d="M175.5,66.9c0.5-0.8,1.1-1.6,1.7-2.4c1.6-2.2,4.4-5.6,6-7.8"/>
		<path class="st1" d="M183.8,66.9c2.3-3.1,6.5-8,9.1-10.8"/>
		<path class="st1" d="M192.5,66.9c0.6-0.9,1.6-2.1,2.2-2.9l6.1-8l-1.1,1.4"/>
		<path class="st1" d="M200.8,66.9c1.9-3,6.1-8.3,8.2-11.2"/>
		<path class="st1" d="M210.2,66.5c2.3-3.2,5.7-7.6,8.2-10.7"/>
		<path class="st1" d="M218.4,66.9l7.8-11.8"/>
		<path class="st1" d="M228.5,66.8c1.9-3.2,5.2-8.9,7-12.2"/>
		<path class="st1" d="M238.6,66.4l8.7-12.5"/>
		<g class="st2">
			<path class="st3" d="M64,29.1c0,0.4-0.1,0.8-0.3,1.2c-0.2,0.4-0.5,0.7-1,1.1c-0.8,0.6-1.6,1.3-2.5,1.9c-0.9,0.7-1.8,1.1-2.6,1.4
				c-0.2,0.1-0.4,0.1-0.5,0.1c0,0.3,0.2,0.9,0.3,1.8c0,0.1,0,0.2,0,0.3c0,0.2-0.1,0.4-0.2,0.6c-0.1,0.2-0.3,0.3-0.6,0.4
				c-0.1,0-0.2,0.1-0.3,0.1c-0.2,0-0.5-0.1-0.7-0.2c-0.2-0.2-0.3-0.3-0.4-0.6c-0.2-1-0.3-1.8-0.4-2.3l-0.5-0.1
				c-0.9-0.2-1.7-0.6-2.4-1.1c-0.7-0.5-1.6-1.2-2.5-2.1c-0.2-0.2-0.3-0.4-0.3-0.7c0-0.3,0.1-0.5,0.3-0.8c0.2-0.2,0.4-0.3,0.7-0.3
				s0.5,0.1,0.8,0.3l0.5,0.4c0.8,0.7,1.2,1,1.4,1.2c0,0-0.1,0-0.2-0.1c0.7,0.5,1.3,0.9,1.7,1l-0.1-0.1c0.2,0.1,0.4,0.2,0.4,0.2
				L54.8,32c-0.1-1.5-0.2-3.3-0.2-5.4c-0.2,0-0.5,0-1-0.1c-0.9-0.1-1.8-0.3-2.5-0.7c-0.4-0.2-0.7-0.4-1-0.7
				c-0.3-0.3-0.6-0.7-0.8-1.2C49,23.6,49,23.3,49,23c0-0.5,0.1-1,0.3-1.4c0.3-0.7,0.7-1.4,1.3-2.1c1.1-1.2,2.4-2.1,4-2.6
				c0-1.3-0.1-2.2-0.1-2.9c0-0.3,0.1-0.5,0.3-0.8c0.2-0.2,0.5-0.3,0.8-0.3c0.3,0,0.5,0.1,0.7,0.3s0.3,0.5,0.3,0.8
				c0.1,0.8,0.1,1.6,0.1,2.4c0.2,0,0.4,0,0.7,0c0.3,0,0.5,0,0.7,0c0.3,0,0.5,0.1,0.7,0.3c0.2,0.2,0.3,0.4,0.3,0.7
				c0,0.3-0.1,0.5-0.3,0.8c-0.1,0.1-0.2,0.2-0.4,0.2s-0.3,0.1-0.4,0.1c-0.1,0-0.3,0-0.6,0c-0.4,0-0.6,0-0.8,0c0,0.9,0,2.2-0.1,4l0,2
				c0.8,0,1.4,0,1.9,0s1,0.1,1.5,0.3c0.9,0.2,1.7,0.7,2.4,1.3c0.8,0.6,1.3,1.4,1.5,2.3C64,28.6,64,28.8,64,29.1z M54.1,24.5l0.5,0
				V23c0-1.7,0.1-3,0.1-3.9h0l0,0c-0.5,0.3-1,0.5-1.4,0.8c-0.5,0.4-1,0.9-1.4,1.4c-0.2,0.3-0.4,0.6-0.5,0.9l-0.1,0.4
				c0,0.1,0,0.3,0,0.5l0,0.1l0.1,0.2l0.1,0.2c0.2,0.2,0.5,0.3,0.9,0.5L52,24c0.4,0.2,1,0.3,1.7,0.4l-0.3,0
				C53.7,24.4,54,24.5,54.1,24.5z M54.3,32.4L54.3,32.4C54.4,32.5,54.3,32.5,54.3,32.4z M61.5,29.9c0,0,0.1-0.1,0.3-0.4
				c0,0-0.1,0.1-0.1,0.1l0.1-0.1l0.1-0.1l-0.1,0.1l0.1-0.1l0.1-0.2V29c0-0.2-0.1-0.4-0.2-0.6l0.1,0.3c-0.1-0.3-0.2-0.5-0.4-0.8
				c0,0,0,0,0.1,0.1c-0.2-0.3-0.4-0.5-0.6-0.6h0c-0.4-0.2-0.7-0.4-0.9-0.5l0.3,0.1c-0.5-0.2-1-0.3-1.7-0.4h0c-0.7-0.1-1.4-0.1-2-0.1
				c0,2.5,0.1,4.6,0.3,6.2c0.2,0,0.3-0.1,0.5-0.2l-0.2,0.1c0.6-0.3,1.2-0.6,1.7-1c0.2-0.1,0.8-0.5,1.6-1.1v0c0,0,0,0,0.1-0.1h0
				C61.2,30.1,61.5,29.9,61.5,29.9z M60.6,30.5L60.6,30.5C60.6,30.5,60.6,30.5,60.6,30.5z M61.8,29.4C61.8,29.4,61.8,29.5,61.8,29.4
				L61.8,29.4L61.8,29.4z M62,29l0-0.2C61.9,28.9,61.9,29,62,29z M61.9,29.3L61.9,29.3c0,0,0-0.1,0-0.1L61.9,29.3z M61.9,29.3
				L61.9,29.3L61.9,29.3L61.9,29.3z"/>
			<path class="st3" d="M71,36.3c-0.2,0.2-0.5,0.3-0.8,0.3c-0.3,0-0.5-0.1-0.7-0.3c-0.2-0.2-0.3-0.4-0.3-0.8l-0.1-1.9v-0.1
				c-0.4,0.6-0.8,1-1,1.3c-0.3,0.4-0.7,0.6-1.2,0.6c-0.3,0-0.5-0.1-0.7-0.2c-0.2-0.1-0.4-0.3-0.5-0.6c-0.1-0.2-0.2-0.4-0.2-0.7
				s0-0.5,0-0.7s0-0.4,0-0.6V31v-3.6c0-0.3,0.1-0.5,0.3-0.7s0.4-0.3,0.7-0.3c0.3,0,0.5,0.1,0.7,0.3c0.2,0.2,0.3,0.5,0.3,0.7
				c0,1.5,0,2.7,0,3.4v1.6c0.3-0.6,0.6-1.1,0.9-1.7l-0.1,0.2c0.3-0.7,0.5-1.6,0.7-2.6l0,0.3c0-0.3,0.1-0.5,0.1-0.6l0-0.7
				c0-0.3,0.1-0.5,0.3-0.7s0.4-0.3,0.7-0.3c0.3,0,0.5,0.1,0.7,0.3s0.3,0.5,0.3,0.7c0,0.4,0,0.7,0,0.9c0,0.2,0,0.5,0,0.9
				c0,1.9,0,4.1,0.2,6.6C71.4,35.9,71.3,36.1,71,36.3z M67.2,32.8c-0.1,0.1-0.1,0.1-0.1,0.2L67.2,32.8z M67.4,33.7
				C67.4,33.7,67.4,33.7,67.4,33.7C67.4,33.7,67.4,33.7,67.4,33.7z"/>
			<path class="st3" d="M84,35.9c-0.2,0.2-0.5,0.3-0.8,0.3c-0.3,0-0.5-0.1-0.7-0.3c-0.2-0.2-0.3-0.4-0.3-0.7c0-0.9-0.1-1.8-0.2-2.5
				l0,0.3c-0.1-0.9-0.3-1.7-0.5-2.5c-0.2-0.7-0.4-1.4-0.6-2c0,0-0.2,0.1-0.4,0.3l0.2-0.2c-0.4,0.3-0.8,0.7-1.1,1.1v0
				c-0.3,0.4-0.5,0.8-0.6,1.1l0-0.1L79.1,31L79,31.1c0.1,0.5,0.1,0.8,0.1,1.1c0.1,0.7,0.1,1.4,0.1,2.3c0,0.3-0.1,0.5-0.3,0.7
				s-0.4,0.3-0.7,0.3c-0.3,0-0.5-0.1-0.7-0.3s-0.3-0.5-0.3-0.7c0-1-0.1-1.9-0.2-2.6V32c-0.1-0.8-0.3-1.5-0.5-2l0.1,0.3
				c-0.1-0.2-0.1-0.3-0.2-0.4l-0.1-0.1c-0.1-0.1-0.2-0.1-0.3-0.2l-0.2-0.1h-0.2l-0.3,0.1l-0.1,0.1l-0.1,0.1
				c-0.1,0.1-0.1,0.2-0.2,0.3v0c0,0.1-0.1,0.2-0.2,0.3v4.1c0,0.3-0.1,0.5-0.3,0.7s-0.5,0.3-0.7,0.3c-0.3,0-0.5-0.1-0.7-0.3
				c-0.2-0.2-0.3-0.5-0.3-0.7v-1.8v-6.4c0-0.3,0.1-0.6,0.3-0.8c0.2-0.2,0.5-0.3,0.8-0.3c0.3,0,0.5,0.1,0.7,0.3s0.3,0.5,0.3,0.7v1.4
				l0.2-0.1c0.2-0.1,0.5-0.1,0.8-0.1c0.5,0,1.1,0.1,1.6,0.4c0.3,0.2,0.6,0.4,0.7,0.6c0.3-0.4,0.5-0.6,0.7-0.8
				c0.4-0.4,0.8-0.7,1.1-0.9c0.5-0.4,1-0.6,1.4-0.6c0.1,0,0.2,0,0.4,0.1c0.6,0.1,1,0.6,1.3,1.4c0.2,0.5,0.3,0.9,0.5,1.4
				c0.6,2,0.9,4,0.9,6.1C84.3,35.5,84.2,35.7,84,35.9z M75.2,29.9L75.2,29.9C75.2,29.9,75.2,29.9,75.2,29.9z M75.8,29.5L75.8,29.5
				C75.9,29.5,75.9,29.5,75.8,29.5z M77.1,32.2c0-0.1,0-0.1,0-0.2C77.1,32,77.1,32.1,77.1,32.2z M80.9,28.2L80.9,28.2L80.9,28.2
				C80.9,28.2,80.9,28.2,80.9,28.2z M80.9,28.1L80.9,28.1L80.9,28.1z M81,28.3L81,28.3L81,28.3L81,28.3z"/>
			<path class="st3" d="M102,25.8c0.1,0.2,0.2,0.4,0.2,0.7c0,0.1,0,0.2,0,0.3l-0.5,1.7c-0.5,1.9-1,4-1.4,6.2c0,0.2-0.1,0.3-0.3,0.5
				c-0.1,0.1-0.3,0.2-0.5,0.3c-0.1,0-0.1,0-0.2,0c-0.3,0-0.5-0.1-0.8-0.3c-0.7-0.6-1.2-1.3-1.7-2.1l-0.1,0.4l-0.1,1
				c0,0.2-0.1,0.5-0.2,0.6s-0.3,0.3-0.5,0.4c-0.1,0-0.1,0-0.2,0c-0.2,0-0.4,0-0.5-0.1c-0.2-0.1-0.3-0.2-0.4-0.4
				c-0.3-0.5-0.6-1-0.8-1.7c-0.3-0.8-0.5-1.9-0.6-3.2c0-0.3,0-0.7,0-1.2c0-0.4,0-1.1,0.1-1.9c0-0.3,0.1-0.5,0.3-0.7s0.4-0.3,0.7-0.3
				c0.3,0,0.5,0.1,0.7,0.3s0.3,0.5,0.3,0.7c0,0.8-0.1,1.4-0.1,1.9c0,0.6,0,1.2,0.1,1.9c0.2-0.4,0.5-0.8,0.8-1.1
				c0.2-0.2,0.4-0.3,0.7-0.3c0.1,0,0.2,0,0.3,0.1c0.2,0,0.3,0.1,0.5,0.3c0.2,0.1,0.2,0.3,0.3,0.5c0.1,0.4,0.2,0.9,0.4,1.3l0-0.1
				l0.1,0.2l0,0.1v0l0.2,0.4c0.4-2,0.9-4,1.5-5.9c0.1-0.2,0.2-0.4,0.4-0.5c0.2-0.1,0.4-0.2,0.6-0.2c0.1,0,0.2,0,0.2,0
				C101.6,25.5,101.8,25.6,102,25.8z M98.4,31.6l-0.1-0.1L98.4,31.6L98.4,31.6z M99.1,32.7L99.1,32.7l0.1,0.1L99.1,32.7z"/>
			<path class="st3" d="M111.8,34c0,0.2-0.1,0.4-0.2,0.6c-0.1,0.2-0.3,0.3-0.6,0.4c-0.1,0-0.2,0.1-0.3,0.1c-0.2,0-0.4-0.1-0.6-0.2
				c-0.2-0.1-0.3-0.3-0.4-0.6c-0.4-1.5-0.8-2.7-1.2-3.8l0.1,0.1l-0.2-0.4c-0.1,0-0.2,0.1-0.4,0.2l0.2-0.1c-0.2,0.1-0.5,0.2-0.8,0.5
				l-0.1,0.1l-0.1,0l0,0l-0.5,0.5c0.1,0.7,0.2,1.8,0.3,3.4c0,0.3-0.1,0.5-0.3,0.7c-0.2,0.2-0.5,0.3-0.7,0.3c-0.3,0-0.5-0.1-0.8-0.3
				c-0.2-0.2-0.3-0.4-0.3-0.7l-0.2-2.3c-0.2-2.6-0.5-5.3-0.9-8v0c-0.2-1.2-0.3-2.2-0.4-2.8c0-0.1-0.1-0.2-0.1-0.3
				c0-0.1,0-0.2,0.1-0.3l0.1-0.3c0.1-0.2,0.3-0.4,0.6-0.5c0,0,0.1,0,0.2,0c0.2,0,0.4,0,0.6,0.1c0.1,0.1,0.2,0.2,0.3,0.3
				c0.1,0.1,0.1,0.2,0.2,0.4c0.2,1.3,0.3,2.2,0.4,2.9c0.3,2,0.5,3.6,0.6,4.8c0.1-0.1,0.2-0.1,0.2-0.1c0.2-0.1,0.5-0.3,0.9-0.4
				c0.1,0,0.2-0.1,0.4-0.1c0.2-0.1,0.4-0.1,0.5-0.1c0.6,0,1.1,0.3,1.3,1l0.5,1.1c0.5,1.4,0.9,2.6,1.2,3.7
				C111.8,33.7,111.8,33.8,111.8,34z M104.1,24.5c0-0.1,0-0.1,0-0.1C104.1,24.4,104.1,24.5,104.1,24.5z M107.5,30.7L107.5,30.7
				C107.5,30.7,107.5,30.7,107.5,30.7L107.5,30.7z M108.4,29.8L108.4,29.8L108.4,29.8L108.4,29.8z M108.9,30L108.9,30L108.9,30
				L108.9,30z"/>
			<path class="st3" d="M113.6,21.5c-0.2-0.2-0.3-0.4-0.3-0.7v-0.9c0-0.3,0.1-0.5,0.3-0.8c0.2-0.2,0.5-0.3,0.8-0.3
				c0.3,0,0.5,0.1,0.7,0.3c0.2,0.2,0.3,0.5,0.3,0.7v0.9c0,0.3-0.1,0.5-0.3,0.7c-0.2,0.2-0.5,0.3-0.8,0.3
				C114.1,21.8,113.8,21.7,113.6,21.5z M119.8,32c0,0.2-0.1,0.3-0.2,0.5c-0.7,1-1.4,1.8-2.2,2.4c-0.4,0.3-0.7,0.5-0.9,0.5
				c-0.2,0-0.3,0.1-0.4,0.1c-0.3,0-0.6-0.1-0.8-0.2c-0.5-0.2-0.8-0.7-1.1-1.5c-0.1-0.3-0.2-0.8-0.2-1.5v-1.4v-6.2
				c0-0.3,0.1-0.5,0.3-0.7s0.5-0.3,0.8-0.3c0.3,0,0.5,0.1,0.7,0.3s0.3,0.4,0.3,0.7v1.9v3.3v1.7c0,0.6,0,1.1,0.1,1.4l-0.1-0.3
				l0.1,0.6c0.5-0.4,0.9-0.8,1.3-1.3l0,0l0.4-0.5c0.2-0.3,0.5-0.5,0.9-0.5c0.2,0,0.4,0,0.5,0.1c0.2,0.1,0.4,0.3,0.5,0.6
				C119.8,31.8,119.8,31.9,119.8,32z M116.4,33.5L116.4,33.5L116.4,33.5L116.4,33.5z M116.4,33.6L116.4,33.6L116.4,33.6z"/>
			<path class="st3" d="M128.7,33.4c0,0,0,0.1-0.1,0.4c-0.2,0.4-0.4,0.7-0.6,1c-0.3,0.2-0.6,0.4-0.9,0.5s-0.7,0.2-1,0.2
				c-0.6,0-1.2-0.2-1.7-0.5c-0.5-0.4-1.1-0.9-1.7-1.5c-0.5-0.5-0.9-1.1-1.1-1.7c-0.1-0.5-0.2-1.1-0.2-1.9c0-0.8,0-1.5,0.1-2
				s0.1-1.1,0.3-1.6c0.2-0.6,0.5-1.1,0.8-1.5c0.4-0.5,0.9-0.8,1.4-0.9c0.1,0,0.2,0,0.3,0c0.2,0,0.3,0,0.5,0.1
				c0.2,0.1,0.4,0.3,0.5,0.6c0,0.1,0,0.1,0,0.2c0,0.2-0.1,0.4-0.2,0.5c-0.1,0.1-0.1,0.2-0.3,0.3c-0.1,0.1-0.2,0.1-0.3,0.2l-0.2,0.1
				l-0.1,0.1c0,0,0,0,0,0l-0.1,0l-0.1,0.1l0.1,0l-0.1,0.1c0,0,0,0,0,0l0,0.1l-0.1,0.1l0.1-0.1l-0.2,0.3v0c0,0-0.1,0.1-0.1,0.2
				l0.1-0.1c-0.1,0.2-0.2,0.5-0.2,1v0c-0.1,0.4-0.1,0.9-0.1,1.6c0,0.1,0,0.4,0,0.6s0,0.5,0,0.7v0v0.1c0,0,0,0.1,0,0.2v-0.1
				c0,0.2,0.1,0.4,0.2,0.5c0,0.1,0.1,0.2,0.2,0.2l-0.1-0.1c0.2,0.3,0.5,0.6,0.8,0.8L125,33l0,0c0.2,0.2,0.4,0.3,0.7,0.5l0.2,0.1
				c0.2,0,0.3,0,0.4,0l0.2-0.1l0.1-0.1l0,0c0.1-0.2,0.2-0.4,0.5-0.6c0.1-0.1,0.3-0.1,0.5-0.1c0.2,0,0.3,0,0.3,0
				c0.3,0.1,0.5,0.2,0.6,0.5C128.6,33.3,128.7,33.4,128.7,33.4z M123.4,30.8L123.4,30.8C123.4,30.7,123.4,30.8,123.4,30.8
				C123.4,30.8,123.4,30.8,123.4,30.8z M123.7,26.7L123.7,26.7L123.7,26.7L123.7,26.7z M124,26.2L124,26.2
				C124,26.2,124,26.2,124,26.2C124,26.3,124,26.3,124,26.2z M124.1,26.1L124.1,26.1C124.1,26.1,124.1,26.1,124.1,26.1L124.1,26.1z
				 M124.2,26L124.2,26L124.2,26L124.2,26z M126.1,33.5l0.2,0C126.2,33.4,126.1,33.4,126.1,33.5l-0.1,0
				C126,33.5,126,33.5,126.1,33.5z M126.5,33.3L126.5,33.3L126.5,33.3z M126.6,33.3L126.6,33.3C126.6,33.3,126.6,33.3,126.6,33.3z
				 M126.7,33.2L126.7,33.2L126.7,33.2L126.7,33.2z"/>
			<path class="st3" d="M138.3,34c0,0.2-0.1,0.4-0.2,0.6c-0.1,0.2-0.3,0.3-0.6,0.4c-0.1,0-0.2,0.1-0.3,0.1c-0.2,0-0.4-0.1-0.6-0.2
				c-0.2-0.1-0.3-0.3-0.4-0.6c-0.4-1.5-0.8-2.7-1.2-3.8l0.1,0.1l-0.2-0.4c-0.1,0-0.2,0.1-0.4,0.2l0.2-0.1c-0.2,0.1-0.5,0.2-0.8,0.5
				l-0.1,0.1l-0.1,0l0,0l-0.5,0.5c0.1,0.7,0.2,1.8,0.3,3.4c0,0.3-0.1,0.5-0.3,0.7c-0.2,0.2-0.5,0.3-0.7,0.3c-0.3,0-0.5-0.1-0.8-0.3
				c-0.2-0.2-0.3-0.4-0.3-0.7l-0.2-2.3c-0.2-2.6-0.5-5.3-0.9-8v0c-0.2-1.2-0.3-2.2-0.4-2.8c0-0.1-0.1-0.2-0.1-0.3
				c0-0.1,0-0.2,0.1-0.3l0.1-0.3c0.1-0.2,0.3-0.4,0.6-0.5c0,0,0.1,0,0.2,0c0.2,0,0.4,0,0.6,0.1c0.1,0.1,0.2,0.2,0.3,0.3
				c0.1,0.1,0.1,0.2,0.2,0.4c0.2,1.3,0.3,2.2,0.4,2.9c0.3,2,0.5,3.6,0.6,4.8c0.1-0.1,0.2-0.1,0.2-0.1c0.2-0.1,0.5-0.3,0.9-0.4
				c0.1,0,0.2-0.1,0.4-0.1c0.2-0.1,0.4-0.1,0.5-0.1c0.6,0,1.1,0.3,1.3,1l0.5,1.1c0.5,1.4,0.9,2.6,1.2,3.7
				C138.3,33.7,138.3,33.8,138.3,34z M130.6,24.5c0-0.1,0-0.1,0-0.1C130.5,24.4,130.6,24.5,130.6,24.5z M133.9,30.7L133.9,30.7
				C133.9,30.7,133.9,30.7,133.9,30.7L133.9,30.7z M134.8,29.8L134.8,29.8L134.8,29.8L134.8,29.8z M135.3,30L135.3,30L135.3,30
				L135.3,30z"/>
			<path class="st3" d="M154.4,33.9C154.4,33.8,154.4,33.8,154.4,33.9l-0.5,0.7l0.3,3.6c0,0.5,0.1,1.1,0.2,1.9l0.1,1.8
				c0,0.8-0.1,1.4-0.4,1.8c-0.2,0.3-0.4,0.6-0.8,0.8c-0.2,0.1-0.6,0.2-1,0.3c-0.5,0-1.1-0.1-1.6-0.4c-0.5-0.3-1-0.9-1.2-1.6
				c-0.2-0.4-0.2-0.9-0.2-1.5c0-0.6,0.1-1.3,0.2-2c0.2-1.1,0.6-2.2,1.1-3.2c0.3-0.6,0.6-1.2,1.2-2.1c0-0.3-0.1-0.9-0.2-1.5l-0.2-1.9
				l-0.5,0.8c-0.2,0.2-0.3,0.4-0.4,0.5c-0.1,0.1-0.1,0.2-0.2,0.3c-0.1,0.1-0.2,0.2-0.3,0.3c-0.4,0.3-0.8,0.5-1.2,0.5
				c-0.3,0-0.6-0.1-0.8-0.2c-0.4-0.3-0.6-0.6-0.7-1c-0.1-0.4-0.1-1-0.1-1.8V27c0-0.3,0.1-0.5,0.3-0.7c0.2-0.2,0.5-0.3,0.8-0.3
				c0.3,0,0.5,0.1,0.7,0.3s0.3,0.4,0.3,0.7v2.2V30c0.3-0.5,0.6-1,0.8-1.4c0,0,0,0,0,0c0.4-0.9,0.7-1.8,0.8-2.9
				c0-0.2,0.2-0.4,0.5-0.6c0.1-0.1,0.3-0.1,0.5-0.1c0.3,0,0.5,0.1,0.8,0.3c0.1,0.1,0.2,0.3,0.2,0.4s0.1,0.3,0.1,0.3l0.1,0.9
				c0.1,0.6,0.2,1.9,0.5,3.9l0.1,0.8c0.2-0.2,0.4-0.5,0.8-0.9c0.2-0.2,0.4-0.3,0.7-0.3c0.3,0,0.5,0.1,0.8,0.3
				c0.1,0.1,0.2,0.2,0.2,0.3c0,0.1,0.1,0.3,0.1,0.4c0,0.2-0.1,0.5-0.3,0.7L154.4,33.9z M148.6,31L148.6,31L148.6,31z M148.6,31
				C148.6,31,148.6,31,148.6,31L148.6,31L148.6,31C148.6,31,148.6,31,148.6,31z M151.2,41.3c0,0,0,0.1,0,0.4l0.1,0.5l0.2,0.3
				c0,0.1,0.1,0.1,0.1,0.1c0,0,0.1,0.1,0.1,0.1l0.2,0.1h0.2l0,0l0.1,0v0l0.1-0.3c0-0.2,0-0.5,0-0.8c0-0.3,0-0.5,0-0.6l-0.1-1.8
				c0-0.6-0.1-1-0.1-1.3c-0.4,0.8-0.6,1.8-0.8,2.8C151.2,41,151.2,41.3,151.2,41.3z M151.3,40.5c0,0,0-0.1,0-0.2
				C151.3,40.4,151.3,40.4,151.3,40.5z M152.1,42.7L152.1,42.7L152.1,42.7L152.1,42.7L152.1,42.7C152.1,42.7,152.2,42.7,152.1,42.7
				L152.1,42.7C152.1,42.7,152.1,42.7,152.1,42.7L152.1,42.7L152.1,42.7L152.1,42.7L152.1,42.7L152.1,42.7z M152.2,42.7
				C152.2,42.7,152.2,42.7,152.2,42.7C152.2,42.7,152.2,42.7,152.2,42.7z M152.2,42.7C152.2,42.7,152.2,42.7,152.2,42.7L152.2,42.7z
				 M152.3,42.6L152.3,42.6L152.3,42.6z M152.3,42.6L152.3,42.6L152.3,42.6L152.3,42.6z M152.4,42.4v-0.1V42.4l-0.1,0.1
				C152.3,42.5,152.4,42.5,152.4,42.4z"/>
			<path class="st3" d="M164.6,27.8c0,0.4-0.1,0.9-0.2,1.4c-0.1,0.8-0.3,1.5-0.5,2.2s-0.4,1.4-0.7,2.1c-0.1,0.1-0.1,0.3-0.2,0.5
				s-0.2,0.4-0.3,0.7c-0.1,0.3-0.3,0.5-0.6,0.6s-0.5,0.3-0.8,0.3s-0.7-0.1-1.1-0.2c-0.3-0.1-0.6-0.2-1-0.4c-0.3-0.2-0.6-0.4-0.9-0.7
				s-0.4-0.6-0.6-1c-0.1-0.2-0.1-0.5-0.1-0.8s0-0.5,0-0.5v-1.2v-2.4c0-0.3,0.1-0.5,0.3-0.7s0.5-0.3,0.7-0.3c0.3,0,0.5,0.1,0.7,0.3
				s0.3,0.5,0.3,0.7v2.2v1.1c0,0.1,0,0.2,0,0.4c0,0.1,0,0.3,0,0.5c0,0,0,0,0-0.1c0,0,0,0.1,0,0.1v0.2v-0.2l0,0.2l0-0.1
				c0,0,0,0.1,0.1,0.2l0,0l0,0l0,0.1l0-0.1v0l0.1,0.1l-0.1-0.1l0.2,0.2l0.5,0.3l0.6,0.2c0.1-0.2,0.2-0.4,0.3-0.7l-0.1,0.3
				c0.7-1.6,1.1-3.1,1.3-4.7v0c0-0.2,0-0.5,0-0.9c0-0.1-0.1-0.3-0.2-0.5c0-0.1-0.1-0.2-0.1-0.2l-0.2-0.2l-0.3-0.2h-0.1
				c0,0-0.1,0-0.2,0l-0.1,0l0,0c-0.1,0.1-0.3,0.1-0.5,0.1c-0.4,0-0.7-0.2-0.9-0.5c-0.1-0.1-0.2-0.3-0.2-0.5c0-0.2,0-0.4,0.1-0.5
				c0.1-0.2,0.2-0.3,0.4-0.4c0.4-0.2,0.8-0.3,1.2-0.3c0.5,0,0.9,0.1,1.4,0.4c0.4,0.2,0.7,0.5,1,0.9c0.3,0.4,0.4,0.8,0.5,1.2
				C164.6,27,164.6,27.4,164.6,27.8z M159.7,32.4L159.7,32.4L159.7,32.4L159.7,32.4z M159.7,32.7L159.7,32.7
				C159.7,32.7,159.8,32.7,159.7,32.7L159.7,32.7z M161.5,26.2L161.5,26.2L161.5,26.2L161.5,26.2L161.5,26.2L161.5,26.2h0.1H161.5
				L161.5,26.2z M161.6,26.2L161.6,26.2L161.6,26.2z M162.1,26.4L162.1,26.4l-0.2-0.2L162.1,26.4L162.1,26.4z M162.2,26.5
				C162.1,26.5,162.1,26.5,162.2,26.5C162.1,26.5,162.1,26.5,162.2,26.5z M162.5,27.4c0,0,0-0.1,0-0.2
				C162.5,27.3,162.5,27.3,162.5,27.4z"/>
			<path class="st3" d="M171.6,36.3c-0.2,0.2-0.5,0.3-0.8,0.3c-0.3,0-0.5-0.1-0.7-0.3c-0.2-0.2-0.3-0.4-0.3-0.8l-0.1-1.9v-0.1
				c-0.4,0.6-0.8,1-1,1.3c-0.3,0.4-0.7,0.6-1.2,0.6c-0.3,0-0.5-0.1-0.7-0.2c-0.2-0.1-0.4-0.3-0.5-0.6c-0.1-0.2-0.2-0.4-0.2-0.7
				s0-0.5,0-0.7s0-0.4,0-0.6V31v-3.6c0-0.3,0.1-0.5,0.3-0.7s0.4-0.3,0.7-0.3c0.3,0,0.5,0.1,0.7,0.3c0.2,0.2,0.3,0.5,0.3,0.7
				c0,1.5,0,2.7,0,3.4v1.6c0.3-0.6,0.6-1.1,0.9-1.7l-0.1,0.2c0.3-0.7,0.5-1.6,0.7-2.6l0,0.3c0-0.3,0.1-0.5,0.1-0.6l0-0.7
				c0-0.3,0.1-0.5,0.3-0.7s0.4-0.3,0.7-0.3c0.3,0,0.5,0.1,0.7,0.3s0.3,0.5,0.3,0.7c0,0.4,0,0.7,0,0.9c0,0.2,0,0.5,0,0.9
				c0,1.9,0,4.1,0.2,6.6C171.9,35.9,171.8,36.1,171.6,36.3z M167.8,32.8c-0.1,0.1-0.1,0.1-0.1,0.2L167.8,32.8z M168,33.7
				C168,33.7,168,33.7,168,33.7C168,33.7,168,33.7,168,33.7z"/>
			<path class="st3" d="M189.6,25.8c0.1,0.2,0.2,0.4,0.2,0.7c0,0.1,0,0.2,0,0.3l-0.5,1.7c-0.5,1.9-1,4-1.4,6.2
				c0,0.2-0.1,0.3-0.3,0.5c-0.1,0.1-0.3,0.2-0.5,0.3c-0.1,0-0.1,0-0.2,0c-0.3,0-0.5-0.1-0.8-0.3c-0.7-0.6-1.2-1.3-1.7-2.1l-0.1,0.4
				l-0.1,1c0,0.2-0.1,0.5-0.2,0.6s-0.3,0.3-0.5,0.4c-0.1,0-0.1,0-0.2,0c-0.2,0-0.4,0-0.5-0.1c-0.2-0.1-0.3-0.2-0.4-0.4
				c-0.3-0.5-0.6-1-0.8-1.7c-0.3-0.8-0.5-1.9-0.6-3.2c0-0.3,0-0.7,0-1.2c0-0.4,0-1.1,0.1-1.9c0-0.3,0.1-0.5,0.3-0.7s0.4-0.3,0.7-0.3
				c0.3,0,0.5,0.1,0.7,0.3s0.3,0.5,0.3,0.7c0,0.8-0.1,1.4-0.1,1.9c0,0.6,0,1.2,0.1,1.9c0.2-0.4,0.5-0.8,0.8-1.1
				c0.2-0.2,0.4-0.3,0.7-0.3c0.1,0,0.2,0,0.3,0.1c0.2,0,0.3,0.1,0.5,0.3c0.2,0.1,0.2,0.3,0.3,0.5c0.1,0.4,0.2,0.9,0.4,1.3l0-0.1
				l0.1,0.2l0,0.1v0l0.2,0.4c0.4-2,0.9-4,1.5-5.9c0.1-0.2,0.2-0.4,0.4-0.5c0.2-0.1,0.4-0.2,0.6-0.2c0.1,0,0.2,0,0.2,0
				C189.2,25.5,189.4,25.6,189.6,25.8z M186,31.6l-0.1-0.1L186,31.6L186,31.6z M186.7,32.7L186.7,32.7l0.1,0.1L186.7,32.7z"/>
			<path class="st3" d="M191.6,21.5c-0.2-0.2-0.3-0.4-0.3-0.7v-0.9c0-0.3,0.1-0.5,0.3-0.8c0.2-0.2,0.5-0.3,0.8-0.3
				c0.3,0,0.5,0.1,0.7,0.3c0.2,0.2,0.3,0.5,0.3,0.7v0.9c0,0.3-0.1,0.5-0.3,0.7c-0.2,0.2-0.5,0.3-0.8,0.3
				C192,21.8,191.8,21.7,191.6,21.5z M197.7,32c0,0.2,0,0.3-0.2,0.5c-0.7,1-1.4,1.8-2.2,2.4c-0.4,0.3-0.7,0.5-0.9,0.5
				c-0.2,0-0.3,0.1-0.4,0.1c-0.3,0-0.5-0.1-0.8-0.2c-0.5-0.2-0.8-0.7-1.1-1.5c-0.1-0.3-0.2-0.8-0.2-1.5v-1.4v-6.2
				c0-0.3,0.1-0.5,0.3-0.7s0.5-0.3,0.8-0.3c0.3,0,0.5,0.1,0.7,0.3c0.2,0.2,0.3,0.4,0.3,0.7v1.9v3.3v1.7c0,0.6,0,1.1,0.1,1.4
				l-0.1-0.3l0.2,0.6c0.5-0.4,0.9-0.8,1.3-1.3l0,0l0.4-0.5c0.2-0.3,0.5-0.5,0.9-0.5c0.2,0,0.4,0,0.5,0.1c0.2,0.1,0.4,0.3,0.5,0.6
				C197.7,31.8,197.7,31.9,197.7,32z M194.3,33.5L194.3,33.5L194.3,33.5L194.3,33.5z M194.3,33.6L194.3,33.6L194.3,33.6z"/>
			<path class="st3" d="M207.4,32c0,0.3,0,0.5-0.1,0.7c-0.4,1.1-1.2,1.9-2.5,2.4c-0.6,0.2-1.1,0.3-1.7,0.3c-0.5,0-1-0.1-1.5-0.3
				c-0.6-0.2-1.1-0.5-1.4-0.9c-0.4-0.3-0.7-0.8-0.9-1.4c0-0.1,0-0.2,0-0.3c0-0.2,0-0.4,0.1-0.5c0.2-0.2,0.4-0.4,0.6-0.4
				c0.1,0,0.2,0,0.3,0c0.2,0,0.4,0,0.5,0.1c0.2,0.1,0.4,0.3,0.5,0.6l-0.1-0.2c0.2,0.3,0.3,0.5,0.3,0.5l0.3,0.2
				c0.2,0.1,0.4,0.2,0.6,0.3l-0.3-0.1c0.3,0.1,0.5,0.2,0.7,0.2l0.3,0l0.3,0c0.3,0,0.5-0.1,0.8-0.2c0.1-0.1,0.3-0.2,0.6-0.3l0,0
				c0.1,0,0.1-0.1,0.2-0.1l-0.1,0c0,0,0.1-0.1,0.1-0.1c0,0,0.1-0.1,0.2-0.1l0.2-0.3l0.1-0.2V32l0-0.1l0,0c-0.2-0.3-0.6-0.6-1.1-1
				l0.2,0.2c-0.3-0.2-0.8-0.6-1.4-1c-0.3-0.2-0.5-0.3-0.7-0.4c-0.4-0.2-0.6-0.4-0.7-0.5c-0.3-0.3-0.4-0.7-0.4-1.1
				c0-0.4,0.1-0.8,0.4-1c0.4-0.5,0.9-0.9,1.5-1.1c0.3-0.1,0.6-0.2,1-0.2c0.3,0,0.5,0,0.8,0.1c0.2,0,0.4,0.2,0.5,0.4
				c0.1,0.2,0.2,0.4,0.2,0.7c0,0.1,0,0.2,0,0.2c0,0.1-0.1,0.2-0.2,0.4c-0.1,0.1-0.2,0.2-0.3,0.3c-0.1,0.1-0.3,0.1-0.5,0.1
				c-0.1,0-0.2,0-0.3,0H204c0.1,0,0.2,0,0.3,0c-0.1,0-0.2,0-0.3,0c-0.1,0-0.2,0-0.2,0c0,0-0.1,0-0.2,0.1l-0.2,0.1
				c0.1,0,0.1,0,0.1,0.1c0,0,0.1,0,0.1,0.1c0.2,0.1,0.3,0.2,0.4,0.3c0.1,0.1,0.2,0.2,0.3,0.2l1.6,1.2c0.5,0.4,0.9,0.8,1.1,1.2
				C207.3,31.2,207.4,31.6,207.4,32z M203.2,28L203.2,28L203.2,28z M203.2,28L203.2,28L203.2,28L203.2,28z M203.8,27.7
				c0.1,0,0.1,0,0.2,0L203.8,27.7z M204.7,32.9L204.7,32.9L204.7,32.9L204.7,32.9z M205.3,32.3C205.2,32.4,205.2,32.4,205.3,32.3
				C205.2,32.4,205.2,32.4,205.3,32.3z M205.3,32.3C205.3,32.3,205.3,32.3,205.3,32.3C205.3,32.3,205.3,32.3,205.3,32.3z
				 M205.4,32.1C205.4,32.1,205.4,32,205.4,32.1C205.4,32,205.4,32.1,205.4,32.1L205.4,32.1L205.4,32.1L205.4,32.1L205.4,32.1z"/>
			<path class="st3" d="M217.1,34c0,0.2-0.1,0.4-0.2,0.6c-0.1,0.2-0.3,0.3-0.6,0.4c-0.1,0-0.2,0.1-0.3,0.1c-0.2,0-0.4-0.1-0.6-0.2
				c-0.2-0.1-0.3-0.3-0.4-0.6c-0.4-1.5-0.8-2.7-1.2-3.8l0.1,0.1l-0.2-0.4c-0.1,0-0.2,0.1-0.4,0.2l0.2-0.1c-0.2,0.1-0.5,0.2-0.8,0.5
				l-0.1,0.1l-0.1,0l0,0l-0.5,0.5c0.1,0.7,0.2,1.8,0.3,3.4c0,0.3-0.1,0.5-0.3,0.7c-0.2,0.2-0.5,0.3-0.7,0.3c-0.3,0-0.6-0.1-0.8-0.3
				c-0.2-0.2-0.3-0.4-0.3-0.7l-0.2-2.3c-0.2-2.6-0.5-5.3-0.9-8v0c-0.2-1.2-0.3-2.2-0.4-2.8c0-0.1-0.1-0.2-0.1-0.3
				c0-0.1,0-0.2,0.1-0.3l0.1-0.3c0.1-0.2,0.3-0.4,0.6-0.5c0,0,0.1,0,0.2,0c0.2,0,0.4,0,0.6,0.1c0.1,0.1,0.2,0.2,0.3,0.3
				c0.1,0.1,0.1,0.2,0.2,0.4c0.2,1.3,0.3,2.2,0.4,2.9c0.3,2,0.5,3.6,0.6,4.8c0.1-0.1,0.2-0.1,0.2-0.1c0.2-0.1,0.5-0.3,0.9-0.4
				c0.1,0,0.2-0.1,0.4-0.1c0.2-0.1,0.4-0.1,0.5-0.1c0.6,0,1.1,0.3,1.3,1l0.5,1.1c0.5,1.4,0.9,2.6,1.2,3.7
				C217.1,33.7,217.1,33.8,217.1,34z M209.4,24.5c0-0.1,0-0.1,0-0.1C209.4,24.4,209.4,24.5,209.4,24.5z M212.7,30.7L212.7,30.7
				C212.7,30.7,212.7,30.7,212.7,30.7L212.7,30.7z M213.6,29.8L213.6,29.8L213.6,29.8L213.6,29.8z M214.1,30L214.1,30L214.1,30
				L214.1,30z"/>
		</g>
	</g>
</g>
</svg>
