<svg xmlns="http://www.w3.org/2000/svg" viewBox="0 0 261.28 67.43"><defs><style>.cls-1{fill:#fff;}.cls-1,.cls-2{stroke:#201600;stroke-miterlimit:10;}.cls-2{fill:none;}.cls-3{fill:#201600;}</style></defs><title>forthdonut_ua_1</title><g id="Слой_2" data-name="Слой 2"><g id="Слой_5" data-name="Слой 5"><path class="cls-1" d="M8.48,39.66c0,2.78.44,11.24,1.72,14,1.75,3.75,14.91,3.82,25.15,5.07,16.81,2.05,209.56-2.91,219.09-5.59,2.93-.82,9.55-32.17,4.51-42.74a11.66,11.66,0,0,0-4.71-5.57c-2.24-1.26-5.17-1.73-8-2.06-10.78-1.23-21.78-.9-32.7-.55-14.86.47-100.22.69-108.35-.08C79.59-.34,53.62.51,27.83,1.37c-4.24.14-11.35.06-14.05,2.79C11.46,6.48,8.59,31.34,8.48,39.66Z"/><path class="cls-2" d="M13.77,4.16C5.1,6.9,2.7,12.55,2.28,14.46,1.15,19.59,1.06,24.89.73,30.13c-.34,5.49-.5,28.23,1,30.5,3.5,5.15,91.35,5.65,108.67,5.81,58.64.53,115.29.67,125.86.22,4.88-.21,12.91-6.38,18.31-13.19"/><path class="cls-2" d="M11.39,12.61C7.77,15.86,5,18.25,1.24,21.33"/><path class="cls-2" d="M.92,29.77A85.86,85.86,0,0,1,10.25,23"/><path class="cls-2" d="M.38,38.82q4.18-3.46,8.69-6.5"/><path class="cls-2" d="M.55,47.24q3.86-2.9,7.94-5.5"/><path class="cls-2" d="M1.15,56.83A36.43,36.43,0,0,1,9.4,50.21"/><path class="cls-2" d="M7.23,62.4a60.55,60.55,0,0,1,8-6.07"/><path class="cls-2" d="M19.06,63.76a53.56,53.56,0,0,1,6.07-6"/><path class="cls-2" d="M31.05,64.58A46.42,46.42,0,0,1,37,59.06"/><path class="cls-2" d="M42.8,65.24A52,52,0,0,1,50.45,59"/><path class="cls-2" d="M54,65.6A63.13,63.13,0,0,1,61.29,59"/><path class="cls-2" d="M64.71,65.85a83.24,83.24,0,0,1,6.87-6.79"/><path class="cls-2" d="M74.89,66.12a4.44,4.44,0,0,1,.91-1.29l5.38-5.93"/><path class="cls-2" d="M84,66,90.36,59"/><path class="cls-2" d="M93.67,66.36q3.58-3.93,7.45-7.6"/><path class="cls-2" d="M103.16,66.43c-.22-.15,0-.49.14-.69q3.29-3.47,6.61-6.91"/><path class="cls-2" d="M113.24,66.81a17.85,17.85,0,0,1,2.53-2.66,42.64,42.64,0,0,0,5.07-5.73"/><path class="cls-2" d="M124.62,66.55a79.72,79.72,0,0,0,6.76-8.24"/><path class="cls-2" d="M136.07,66.51a88.36,88.36,0,0,0,7.21-8.72"/><path class="cls-2" d="M146.7,66.64c2.73-2.81,4.39-6.34,7.16-9.12"/><path class="cls-2" d="M156.87,66.69c1.86-2.81,4.83-6.51,6.49-9.44"/><path class="cls-2" d="M165.72,66.54c2.23-2.85,4.51-6.78,6.83-9.55"/><path class="cls-2" d="M175.53,66.86a25,25,0,0,1,1.73-2.39c1.65-2.23,4.36-5.59,6-7.82"/><path class="cls-2" d="M183.78,66.93c2.3-3.09,6.46-8.05,9.11-10.85"/><path class="cls-2" d="M192.53,66.93c.55-.86,1.56-2.08,2.17-2.89l6.08-8-1.09,1.4"/><path class="cls-2" d="M200.78,66.93c1.92-3,6.06-8.28,8.22-11.15"/><path class="cls-2" d="M210.19,66.54c2.32-3.19,5.7-7.62,8.16-10.7"/><path class="cls-2" d="M218.35,66.93l7.82-11.85"/><path class="cls-2" d="M228.49,66.77c1.95-3.2,5.22-8.86,7-12.15"/><path class="cls-2" d="M238.64,66.42l8.66-12.51"/><path class="cls-3" d="M47.64,21.39a1,1,0,0,1-1,1,1.24,1.24,0,0,1-.75-.3l-.15-.12.21.18a6.39,6.39,0,0,0-1.59-.93l.06,0a8,8,0,0,0-1.74-.45l.27,0a3.65,3.65,0,0,0-.9-.06H42a0,0,0,0,1,0,0l0,0h0l-.06.06.06-.06s0,.05-.06.09l0,.06-.54,1a10.09,10.09,0,0,0-.6,1.23l.09-.18a18.48,18.48,0,0,0-1.26,4.59l.06-.27a9.89,9.89,0,0,0-.15,1.62q0,.33.06,1v0A5.51,5.51,0,0,0,40,31.48l0-.06a7.54,7.54,0,0,0,.48.81,4.1,4.1,0,0,0,.48.51s-.07-.06-.09-.06l.15.12.06,0,0,0,.39.21-.12,0,.24.09.24.06a2.76,2.76,0,0,0,.48,0l-.27.06a1.59,1.59,0,0,0,.51-.15l-.06.06s.07-.06.09-.06l.06,0h0a.88.88,0,0,0,.24-.13l.18-.14-.21.18a5.13,5.13,0,0,0,.81-.81l-.12.12a10.4,10.4,0,0,0,.72-1.11,1,1,0,0,1,.9-.48,1,1,0,0,1,.51.12,1,1,0,0,1,.48.9,1,1,0,0,1-.12.51l-.27.48a6.24,6.24,0,0,1-1.86,2,3.42,3.42,0,0,1-1.89.54A3.22,3.22,0,0,1,40.8,35a4.84,4.84,0,0,1-2.37-2,7.18,7.18,0,0,1-1-3A6.53,6.53,0,0,1,37.41,29q0-.57.12-1.71a18.93,18.93,0,0,1,.6-3,17.4,17.4,0,0,1,1.14-2.94q.21-.45.69-1.29a5,5,0,0,1,.65-.82,1.67,1.67,0,0,1,.79-.44,2.61,2.61,0,0,1,.69-.09,4.76,4.76,0,0,1,.62,0,4.44,4.44,0,0,0,.53,0,12.12,12.12,0,0,1,1.35.33,8.57,8.57,0,0,1,2.76,1.53.82.82,0,0,1,.3.72Zm-8.13,8.52a.41.41,0,0,1,0,.18A.41.41,0,0,0,39.51,29.92Zm1.44,2.88-.06-.06.09.06Zm.78.33.18,0A.43.43,0,0,0,41.73,33.13Zm.15-12.3.06-.06-.09.12ZM42,20.7s0,0,0,0l0,.06v0ZM42.51,33s0,0,0,0h0l.06,0Zm.84-.71s.06-.07.06-.09S43.39,32.25,43.35,32.28Z"/><path class="cls-3" d="M56.25,33.57s.06-.07.06-.09l-.57.78.33,3.63q0,.69.15,1.86l.12,1.8a3.34,3.34,0,0,1-.42,1.8,2.55,2.55,0,0,1-.75.78,3.5,3.5,0,0,1-1,.3,2.87,2.87,0,0,1-2.85-2A4,4,0,0,1,51.06,41a9.7,9.7,0,0,1,.24-2,12.61,12.61,0,0,1,1.14-3.15,18.78,18.78,0,0,1,1.17-2.07c0-.34-.07-.85-.15-1.53l-.18-1.92-.51.84q-.24.36-.39.54l-.2.25-.25.32a1.73,1.73,0,0,1-1.17.48,1.29,1.29,0,0,1-.78-.24,1.63,1.63,0,0,1-.72-1,10,10,0,0,1-.12-1.79V26.7a1,1,0,0,1,.32-.73,1.1,1.1,0,0,1,.76-.28.93.93,0,0,1,.69.31,1,1,0,0,1,.3.7v3A14.73,14.73,0,0,0,52,28.29a0,0,0,0,0,0,0,11,11,0,0,0,.84-2.91,1,1,0,0,1,.48-.63,1,1,0,0,1,.48-.12,1.27,1.27,0,0,1,.78.27.9.9,0,0,1,.24.43,2.18,2.18,0,0,1,.06.32l.09.93q.12.93.48,3.87l.09.81q.24-.3.78-.9a.86.86,0,0,1,.66-.3,1.2,1.2,0,0,1,.78.3.55.55,0,0,1,.23.3,1.27,1.27,0,0,1,.07.42,1.13,1.13,0,0,1-.3.72Zm-5.79-2.85h0Zm.06,0h0l.06,0h0ZM53.1,41l0,.36.12.48.18.27a.54.54,0,0,0,.15.15s.07.06.09.06l.18.09h.21l0,0,.09,0v0l.09-.33a4.4,4.4,0,0,0,0-.79q0-.44,0-.62l-.15-1.8q-.06-.84-.12-1.32a11.15,11.15,0,0,0-.78,2.82Zm.06-.81a.33.33,0,0,0,0-.15A.33.33,0,0,1,53.16,40.14ZM54,42.39h0a0,0,0,0,0,0,0l0,0a0,0,0,0,1,0,0h0l0,0h0Zm.12,0s-.05,0-.09.06S54.1,42.36,54.12,42.36Zm-.06.06s.06-.07.06-.09Zm.09-.09h0Zm0,0v0l0,0Zm.06-.21v0l-.06.12A.17.17,0,0,0,54.24,42.13Z"/><path class="cls-3" d="M73.92,30.6v3.3a1,1,0,0,1-.34.74,1.1,1.1,0,0,1-.76.29,1,1,0,0,1-1-1V30.34q-.21.3-.69.9L69,34a9.24,9.24,0,0,1-.85.94,1.23,1.23,0,0,1-.86.29,1.44,1.44,0,0,1-1-.36,1.62,1.62,0,0,1-.54-.9,2.63,2.63,0,0,1-.06-.66l0-1,.06-1.11q-.24.42-.78,1.26a3.92,3.92,0,0,1-1.71,1.65,2.21,2.21,0,0,1-.69.24,2.56,2.56,0,0,1-.45,0,3.13,3.13,0,0,1-.48,0,2.57,2.57,0,0,1-1.26-.6,2.14,2.14,0,0,1-.72-.93,3,3,0,0,1-.24-.93v-.21a3,3,0,0,1,0-.48.73.73,0,0,1,.17-.34,1.2,1.2,0,0,1,.82-.41.93.93,0,0,1,.27,0,.76.76,0,0,1,.36.18,1.24,1.24,0,0,1,.27.3,1.16,1.16,0,0,1,.12.63v.21l.12.24.21.18h0a0,0,0,0,1,0,0h0l.06,0h0a0,0,0,0,0,0,0h0l.06,0h.18a.47.47,0,0,1,.18-.06l.18-.12a1.77,1.77,0,0,0,.42-.45s0,.05-.06.09a6.85,6.85,0,0,0,.69-1l.81-1.38,1.65-2.76a1,1,0,0,1,.51-.42,1.25,1.25,0,0,1,.66-.06,1,1,0,0,1,.56.39.9.9,0,0,1,.19.63q-.06,1.11-.12,3.33l-.09,1.65v0L68,32l4.11-5.25a.77.77,0,0,1,.6-.27l.21,0a.75.75,0,0,1,.33.09,1,1,0,0,1,.46.36,1,1,0,0,1,.17.57Q73.92,30.61,73.92,30.6Zm-12.39,1h0l0,.06Zm.21.45v0L61.68,32A.05.05,0,0,0,61.74,32.07Zm.15.12h0l.06,0Zm0,0s0,0,0,0Zm0,0h0a.12.12,0,0,1,.09,0Zm.21.09,0,0s0,0,.06,0-.06,0-.06,0h0s0,0-.06,0l-.06,0s0,0,0,0l.09.06Zm0,0h0Zm5.55,1.05v0h0S67.71,33.31,67.71,33.34Zm.09.24v0Z"/><path class="cls-3" d="M86.7,34a1,1,0,0,1-.12.51.93.93,0,0,1-.63.48,1,1,0,0,1-.3,0,.77.77,0,0,1-.48-.12,3.16,3.16,0,0,1-.84-.87,5.33,5.33,0,0,1-.39-.9,11.31,11.31,0,0,1-.27-1.68q-.06-.39-.12-1.17a15.88,15.88,0,0,1-1.11,1.44,16.7,16.7,0,0,1-1.83,1.8q-.78.66-1.2,1l-.54.36a2.76,2.76,0,0,1-1.23.33,2,2,0,0,1-1.5-.69,2.85,2.85,0,0,1-.69-1.77,5,5,0,0,1,.18-1.56,11.83,11.83,0,0,1,.45-1.29,7.29,7.29,0,0,1,1.35-2.06,9.09,9.09,0,0,1,2-1.6A7.93,7.93,0,0,1,83.58,25a4.6,4.6,0,0,1,.6,0,1.05,1.05,0,0,1,.33.06h.27a1.07,1.07,0,0,1,.6.3,1,1,0,0,1,.21.33,1,1,0,0,1,.09.39,22.15,22.15,0,0,0-.12,2.43,25.63,25.63,0,0,0,.18,3.06v0a7.19,7.19,0,0,0,.3,1.32l.12.18.06.06a1.62,1.62,0,0,1,.45.63A.92.92,0,0,1,86.7,34Zm-4.32-5.55.69-1.38-.33,0,.27-.06a6.53,6.53,0,0,0-1.62.45l.06-.06a7.88,7.88,0,0,0-1.53.9,0,0,0,0,1,0,0,7.19,7.19,0,0,0-1.35,1.35l0,0A6.06,6.06,0,0,0,77.85,31l0-.09a8.36,8.36,0,0,0-.36,1.29V32.1a.42.42,0,0,1,0,.18v.39l.09.33.12.12,0,0a8.07,8.07,0,0,0,1-.66l-.21.15a17.23,17.23,0,0,0,3-3l-.06.09Zm-4.86,3.75,0,.12v-.06S77.52,32.27,77.52,32.23Zm0,.6,0,.06.06.12-.06-.12v0Zm.12.21v0Zm3.6-5.46a.47.47,0,0,1,.18-.06Zm4.56,4.26a.43.43,0,0,0,0-.18A.43.43,0,0,1,85.77,31.84Z"/><path class="cls-3" d="M102.27,22.47l.31.32a1,1,0,0,1,.32.73V34.18a.94.94,0,0,1-.32.73,1.1,1.1,0,0,1-.76.29.93.93,0,0,1-.69-.31,1,1,0,0,1-.3-.71V29a4.75,4.75,0,0,1-3.06,1.41v2.76a.94.94,0,0,1-.32.73,1.1,1.1,0,0,1-.76.29.93.93,0,0,1-.69-.31,1,1,0,0,1-.3-.71V24.09a1,1,0,0,1,.3-.73,1.17,1.17,0,0,1,.75-.31,1,1,0,0,1,.71.31,1,1,0,0,1,.32.73v4.26h0a2.9,2.9,0,0,0,.75-.21l-.15.09.21-.09a0,0,0,0,1,0,0h0l.51-.3-.06.06.06-.06.15-.09-.15.09a1.89,1.89,0,0,0,.45-.42l.15-.18a1,1,0,0,1,.48-.42,1.13,1.13,0,0,1,.63-.06V23.52a1,1,0,0,1,.3-.73,1.17,1.17,0,0,1,.75-.32Zm-3.66,5.67h-.06l.06,0Z"/><path class="cls-3" d="M115.68,34a1,1,0,0,1-.12.51.93.93,0,0,1-.63.48,1,1,0,0,1-.3,0,.77.77,0,0,1-.48-.12,3.16,3.16,0,0,1-.84-.87,5.33,5.33,0,0,1-.39-.9,11.31,11.31,0,0,1-.27-1.68q-.06-.39-.12-1.17a15.88,15.88,0,0,1-1.11,1.44,16.7,16.7,0,0,1-1.83,1.8q-.78.66-1.2,1l-.54.36a2.76,2.76,0,0,1-1.23.33,2,2,0,0,1-1.5-.69,2.85,2.85,0,0,1-.69-1.77,5,5,0,0,1,.18-1.56,11.83,11.83,0,0,1,.45-1.29,7.29,7.29,0,0,1,1.35-2.06,9.09,9.09,0,0,1,2-1.6,7.93,7.93,0,0,1,4.2-1.23,4.6,4.6,0,0,1,.6,0,1.05,1.05,0,0,1,.33.06h.27a1.07,1.07,0,0,1,.6.3,1,1,0,0,1,.21.33,1,1,0,0,1,.09.39,22.15,22.15,0,0,0-.12,2.43,25.63,25.63,0,0,0,.18,3.06v0a7.19,7.19,0,0,0,.3,1.32l.12.18.06.06a1.62,1.62,0,0,1,.45.63A.92.92,0,0,1,115.68,34Zm-4.32-5.55.69-1.38-.33,0,.27-.06a6.53,6.53,0,0,0-1.62.45l.06-.06a7.88,7.88,0,0,0-1.53.9,0,0,0,0,1,0,0,7.19,7.19,0,0,0-1.35,1.35l0,0a6.06,6.06,0,0,0-.78,1.38l0-.09a8.36,8.36,0,0,0-.36,1.29V32.1a.42.42,0,0,1,0,.18v.39l.09.33.12.12,0,0a8.07,8.07,0,0,0,1-.66l-.21.15a17.23,17.23,0,0,0,3-3l-.06.09Zm-4.86,3.75,0,.12v-.06S106.5,32.27,106.5,32.23Zm0,.6,0,.06.06.12-.06-.12v0Zm.12.21v0Zm3.6-5.46a.47.47,0,0,1,.18-.06Zm4.56,4.26a.43.43,0,0,0,0-.18A.43.43,0,0,1,114.75,31.84Z"/><path class="cls-3" d="M126.78,28.86V30.1a24.74,24.74,0,0,0,.15,3V33a.17.17,0,0,0,0,.12h0l.06,0a2.8,2.8,0,0,0,.39-.42l-.09.15a12.17,12.17,0,0,0,1.26-2.16.1.1,0,0,0,0,.08.1.1,0,0,1,0,.07l.22-.58a4.26,4.26,0,0,0,.23-.79v-.18a1.05,1.05,0,0,1-1.08-.48.89.89,0,0,1-.15-.48,1.07,1.07,0,0,1,.15-.55.93.93,0,0,1,.39-.37,1.69,1.69,0,0,1,.81-.21,1.92,1.92,0,0,1,.81.18,2.06,2.06,0,0,1,.9.84,2.14,2.14,0,0,1,.24,1,4.28,4.28,0,0,1-.22,1.36,12.89,12.89,0,0,1-.62,1.49,8.43,8.43,0,0,1-1.11,1.8,4.6,4.6,0,0,1-1,1,2,2,0,0,1-1.26.39,1.87,1.87,0,0,1-1.38-.54,2.24,2.24,0,0,1-.57-1.2q-.09-.6-.13-1.35t-.08-1q0-.39,0-1.17,0-1.44.15-3.24a34.64,34.64,0,0,1,2-8.82l.45-1.14a5.18,5.18,0,0,1,.6-.93,2.35,2.35,0,0,1,.74-.58,1.91,1.91,0,0,1,.88-.23,1.34,1.34,0,0,1,.6.12,2,2,0,0,1,1.11.93,2.26,2.26,0,0,1,.33,1.14,3.76,3.76,0,0,1-.12.94,8.72,8.72,0,0,1-.29.9l-.25.67q-1.62,4.35-3.66,8.79A.84.84,0,0,1,126.78,28.86Zm.09,4.29h0Zm.63-.57-.06.06Zm.12-10.23,1-2.43.51-1.35q.06-.18.17-.45a5.35,5.35,0,0,0,.19-.63,1.56,1.56,0,0,0,0-.36v0l-.06,0,0-.06v0s-.06.07-.06.09l-.09.09.06-.06-.3.51s.06-.07.06-.09l-.63,1.65Q127.95,20.91,127.62,22.35ZM128.94,29l0,.09A.12.12,0,0,0,128.94,29Zm.09.3a.18.18,0,0,0,0,.12l0-.12v0Zm0,0v0Zm.39-12.12-.06.09a0,0,0,0,1,0,0Zm.06-.12v0Zm0,.21a0,0,0,0,0,0,0,0,0,0,0,1,0,0,.41.41,0,0,0,0,.18l0-.15Zm.06-.18s0,0,0,0v0Z"/><path class="cls-3" d="M144.33,34a1,1,0,0,1-.12.51.93.93,0,0,1-.63.48,1,1,0,0,1-.3,0,.77.77,0,0,1-.48-.12,3.16,3.16,0,0,1-.84-.87,5.33,5.33,0,0,1-.39-.9,11.31,11.31,0,0,1-.27-1.68q-.06-.39-.12-1.17a15.88,15.88,0,0,1-1.11,1.44,16.7,16.7,0,0,1-1.83,1.8q-.78.66-1.2,1l-.54.36a2.76,2.76,0,0,1-1.23.33,2,2,0,0,1-1.5-.69,2.85,2.85,0,0,1-.69-1.77,5,5,0,0,1,.18-1.56,11.83,11.83,0,0,1,.45-1.29,7.29,7.29,0,0,1,1.35-2.06,9.09,9.09,0,0,1,2-1.6,7.93,7.93,0,0,1,4.2-1.23,4.6,4.6,0,0,1,.6,0,1.05,1.05,0,0,1,.33.06h.27a1.07,1.07,0,0,1,.6.3,1,1,0,0,1,.21.33,1,1,0,0,1,.09.39,22.15,22.15,0,0,0-.12,2.43,25.63,25.63,0,0,0,.18,3.06v0a7.19,7.19,0,0,0,.3,1.32l.12.18.06.06a1.62,1.62,0,0,1,.45.63A.92.92,0,0,1,144.33,34ZM140,28.47l.69-1.38-.33,0,.27-.06a6.53,6.53,0,0,0-1.62.45l.06-.06a7.88,7.88,0,0,0-1.53.9,0,0,0,0,1,0,0,7.19,7.19,0,0,0-1.35,1.35l0,0a6.06,6.06,0,0,0-.78,1.38l0-.09a8.36,8.36,0,0,0-.36,1.29V32.1a.42.42,0,0,1,0,.18v.39l.09.33.12.12,0,0a8.07,8.07,0,0,0,1-.66l-.21.15a17.23,17.23,0,0,0,3-3l-.06.09Zm-4.86,3.75,0,.12v-.06S135.15,32.27,135.15,32.23Zm0,.6,0,.06.06.12-.06-.12v0Zm.12.21v0Zm3.6-5.46a.47.47,0,0,1,.18-.06Zm4.56,4.26a.43.43,0,0,0,0-.18A.43.43,0,0,1,143.4,31.84Z"/><path class="cls-3" d="M157,35.07a1.22,1.22,0,0,1-.75.33.91.91,0,0,1-.71-.31,1.19,1.19,0,0,1-.32-.74q-.06-1-.06-1.53-.27.3-.75.9a6.58,6.58,0,0,1-.84.9,2.15,2.15,0,0,1-1.41.6,1.46,1.46,0,0,1-.74-.2,1.55,1.55,0,0,1-.55-.52,2.08,2.08,0,0,1-.27-.9c0-.2,0-.44,0-.72v-1l-.63.9q-.84,1.05-1.14,1.35a12.56,12.56,0,0,1-1.35,1.17.9.9,0,0,1-.48.15,1,1,0,0,1-.57-.15,1.16,1.16,0,0,1-.51-.9q-.09-2.07-.09-4.17,0-1.53,0-2.31a1,1,0,0,1,.31-.75,1.07,1.07,0,0,1,.77-.3.93.93,0,0,1,.69.31,1,1,0,0,1,.3.73l0,2.07,0,2.07.24-.3-.06.09a16,16,0,0,0,1.26-1.92q.57-1,1.29-2.46a.84.84,0,0,1,.39-.37,1.2,1.2,0,0,1,.54-.13.8.8,0,0,1,.24,0,.83.83,0,0,1,.54.36,1.3,1.3,0,0,1,.24.63l0,2.88,0,1.44v.36a3.52,3.52,0,0,1,.3-.36q.9-1.11.84-1l-.18.21a20.48,20.48,0,0,0,1.62-2.37,1,1,0,0,1,.9-.51.9.9,0,0,1,.27,0A.88.88,0,0,1,157,29a1,1,0,0,1,.23.63q0,2.61.12,4.74A.85.85,0,0,1,157,35.07Zm-10.44-1.71-.06.06.06,0Zm5.67-.3v0a0,0,0,0,1,0,0Z"/><path class="cls-3" d="M174.42,27.57a3.37,3.37,0,0,1-.42,1.62,4.68,4.68,0,0,1-1,1.29,17.37,17.37,0,0,1-1.54,1.2,12.21,12.21,0,0,1-3,1.5v7.32a1,1,0,0,1-1,1,.91.91,0,0,1-.73-.29,1,1,0,0,1-.32-.73V26.1a1,1,0,0,1,.32-.72,1.16,1.16,0,0,1,.73-.33,1,1,0,0,1,.57.2,1.09,1.09,0,0,1,.39.52l.36-.18c.4-.16.7-.27.9-.33a5.27,5.27,0,0,1,2-.33,3.58,3.58,0,0,1,1.71.51,2.62,2.62,0,0,1,1.14,1.62A3.38,3.38,0,0,1,174.42,27.57ZM171.6,29l.36-.42-.06.06a3,3,0,0,0,.33-.48,0,0,0,0,1,0,0l0-.06.06-.18a.93.93,0,0,0,0-.27l0-.15-.09-.12,0,0-.21-.15a3,3,0,0,0-.48-.15h-.36l-.12,0H171a13.11,13.11,0,0,0-1.8.6l.06,0-.45.27-.09.09-.09.15v.06l0,.06,0-.06v.15a1,1,0,0,1-.12.48.33.33,0,0,1-.12.15V31a12,12,0,0,0,2.52-1.47l-.21.15Zm-3-.75s0-.06,0-.06S168.6,28.16,168.6,28.2Zm.12-.27a0,0,0,0,1,0,0h0Zm.72-.42a.46.46,0,0,1-.18.06Zm1.71-.54a.33.33,0,0,1-.15,0h.06A.12.12,0,0,1,171.15,27Zm1.17.39-.06-.06.06.09Zm.06.09-.06-.06Zm0,.21v-.09l0,.06v0a.43.43,0,0,1,0,.18.34.34,0,0,0,0-.15l0,.06Zm0,0s0,0,0,0h0v0Z"/><path class="cls-3" d="M182.91,27.45a7.92,7.92,0,0,1-.15,1.41,17.23,17.23,0,0,1-.48,2.16q-.3,1-.72,2.1c-.06.12-.13.28-.21.48a6.92,6.92,0,0,1-.33.69,1.8,1.8,0,0,1-.58.64,1.39,1.39,0,0,1-.79.25A3.82,3.82,0,0,1,178.5,35a6.56,6.56,0,0,1-1-.39,2.79,2.79,0,0,1-.9-.67,2.75,2.75,0,0,1-.57-1,2.56,2.56,0,0,1-.12-.81V28a1,1,0,0,1,.32-.72A1,1,0,0,1,177,27a.88.88,0,0,1,.71.29A1,1,0,0,1,178,28v3.27c0,.1,0,.22,0,.36a2.64,2.64,0,0,0,0,.48s0,0,0-.06a.12.12,0,0,0,0,.09v0l0,.18,0-.09a.51.51,0,0,0,.06.15l0,0,0,0,0,.09,0-.09v0l.12.15-.09-.15.18.18.48.27.6.18a5.19,5.19,0,0,0,.27-.66l-.09.27A17.81,17.81,0,0,0,180.81,28v0q0-.33,0-.93a4,4,0,0,0-.15-.54.31.31,0,0,0-.12-.21l-.18-.24-.27-.15h-.06a.52.52,0,0,0-.21,0l-.06,0,0,0a1,1,0,0,1-.51.12,1,1,0,0,1-.9-.51.78.78,0,0,1-.15-.51,1.11,1.11,0,0,1,.13-.52.85.85,0,0,1,.38-.37,2.36,2.36,0,0,1,1.2-.33,2.79,2.79,0,0,1,1.38.39,3,3,0,0,1,1,.88,3.43,3.43,0,0,1,.54,1.22A4.51,4.51,0,0,1,182.91,27.45ZM178,32.14v0Zm.06.3v0a0,0,0,0,0,0,0Zm1.77-6.51h.06l0,0h0l.06,0h-.12Zm.06,0v0Zm.48.21-.09-.09-.15-.06.15.06Zm.12.09s-.07-.06-.09-.06S180.44,26.18,180.48,26.22Zm.36.84a.33.33,0,0,1,0-.15A.33.33,0,0,0,180.84,27.06Z"/><path class="cls-3" d="M197.28,32.52a1,1,0,0,1-.51.87l-.18.12a10.62,10.62,0,0,1,.24,2.19,14.43,14.43,0,0,1-.12,1.56,11.15,11.15,0,0,1-1.44,4.41,11,11,0,0,1-2.76,3.27A12.91,12.91,0,0,1,188.67,47a12.1,12.1,0,0,1-2.19.48,3.78,3.78,0,0,1-.6.06,1.28,1.28,0,0,1-1-.39,1.9,1.9,0,0,1-.48-1.44,9,9,0,0,1,1.5-4.56,25.12,25.12,0,0,1,2.82-3.63,38.52,38.52,0,0,1,5.43-4.8l-.27-.42.18.21a2.88,2.88,0,0,0-.33-.36l-.12-.09L193.5,32l-.15,0a1.08,1.08,0,0,0-.3,0l-.15.06-.15.09a.77.77,0,0,1-.48.12,1,1,0,0,1-.3,0,.7.7,0,0,1-.54-.36,1.4,1.4,0,0,1-.24-.63,1,1,0,0,1,.09-.39,1,1,0,0,1,.21-.33,9.09,9.09,0,0,0,1.29-1.32l-.18.21a7.49,7.49,0,0,0,1.08-1.83l-.09.24a7.38,7.38,0,0,0,.48-1.59v-.06l0-.12v.06a3.63,3.63,0,0,0,0-.54s0-.15-.09-.39a.73.73,0,0,0-.12-.18.36.36,0,0,0-.18-.21l-.18-.12h-.06a.88.88,0,0,1-.36.56,1,1,0,0,1-.63.23.88.88,0,0,1-.75-.3,1.12,1.12,0,0,1-.3-.78,1.53,1.53,0,0,1,.29-.87,2.11,2.11,0,0,1,.71-.66,2.58,2.58,0,0,1,1-.24,2.09,2.09,0,0,1,.72.12,3,3,0,0,1,1.23.85,2.85,2.85,0,0,1,.66,1.33,4.69,4.69,0,0,1,.09.93,5.59,5.59,0,0,1-.36,2,10.2,10.2,0,0,1-1.26,2.46,2.4,2.4,0,0,1,.75.51,3.14,3.14,0,0,1,.6.81.81.81,0,0,1,.36-.09,1.1,1.1,0,0,1,.93.51A1.08,1.08,0,0,1,197.28,32.52ZM186,45.52h0Zm8.76-9.78q0-.57,0-.84l-.27.21.21-.18q-.78.6-1.47,1.2a29.8,29.8,0,0,0-4.56,4.74v0a14,14,0,0,0-1.74,2.88l.12-.24a6,6,0,0,0-.51,1.68v.09a.13.13,0,0,0,0,.09v.09a9.84,9.84,0,0,0,2.46-.69l-.24.09A9.52,9.52,0,0,0,191,43.48l-.09.09a13,13,0,0,0,1.89-1.92v0a12.45,12.45,0,0,0,1.14-2l-.06.12a11.66,11.66,0,0,0,.75-2.61v.09A12.72,12.72,0,0,0,194.76,35.73Zm-8.25,9.42a.34.34,0,0,1,0,.15s0-.06,0-.06Zm6.63-13.23a.34.34,0,0,0,.15,0,.18.18,0,0,1-.12,0h0s0,0-.06,0S193.14,31.94,193.14,31.93Zm.72.33s-.07-.06-.09-.06S193.82,32.22,193.86,32.26Zm0-7.26s0,0,0,0a0,0,0,0,0,0,0Zm.17,1.14v.06a.17.17,0,0,1,0-.12Zm.6,8.34a.41.41,0,0,0,0,.18Zm0,2.52,0,.18A.41.41,0,0,1,194.7,37Z"/><path class="cls-3" d="M206.16,33.13l-.09.39a3,3,0,0,1-.6,1,2.91,2.91,0,0,1-.93.54,3,3,0,0,1-1,.18,3,3,0,0,1-1.74-.54,11.77,11.77,0,0,1-1.71-1.5A5.32,5.32,0,0,1,199,31.51a6.62,6.62,0,0,1-.21-1.86q0-1.2.06-2a6.68,6.68,0,0,1,.3-1.56,4.23,4.23,0,0,1,.84-1.53,2.28,2.28,0,0,1,1.44-.87,1.46,1.46,0,0,1,.33,0,1.07,1.07,0,0,1,.48.12,1,1,0,0,1,.48.63.79.79,0,0,1,0,.24,1,1,0,0,1-.15.54,1,1,0,0,1-.25.31.73.73,0,0,1-.34.17l-.24.06-.09.06a0,0,0,0,1,0,0l-.06,0-.09.06.09,0-.12.09a0,0,0,0,0,0,0l0,.06-.15.15.09-.09-.21.33v0a1.19,1.19,0,0,0-.12.21l.06-.12a6.41,6.41,0,0,0-.24,1v0a10.91,10.91,0,0,0-.09,1.65c0,.14,0,.35,0,.63a5.36,5.36,0,0,0,0,.72v.06a.43.43,0,0,1,0,.18v-.09a2.88,2.88,0,0,0,.18.54,1.55,1.55,0,0,0,.15.24l-.06-.09a10.08,10.08,0,0,0,.75.84l.63.57,0,0a2.35,2.35,0,0,0,.72.45l.21.06a1.81,1.81,0,0,0,.39,0L204,33l.06-.06,0,0a1.37,1.37,0,0,1,.45-.57,1,1,0,0,1,.48-.12,1.23,1.23,0,0,1,.33,0,.89.89,0,0,1,.6.48Zm-5.31-2.67v-.06a.34.34,0,0,1,0,.15A.13.13,0,0,0,200.85,30.45Zm.39-4.11v0l-.06.12Zm.27-.42v0s0,0-.06.09Zm.12-.15h0a0,0,0,0,0,0,0Zm.06,0v0l.06,0Zm1.89,7.41.18,0a.43.43,0,0,0-.18,0l-.12,0A.18.18,0,0,0,203.58,33.15ZM204,33h0Zm.09-.06,0,.06S204.06,33,204.06,33Zm.09-.12-.06.06v0Z"/><path class="cls-3" d="M214.71,33.57s.06-.07.06-.09l-.57.78.33,3.63q0,.69.15,1.86l.12,1.8a3.34,3.34,0,0,1-.42,1.8,2.55,2.55,0,0,1-.75.78,3.5,3.5,0,0,1-1,.3,2.87,2.87,0,0,1-2.85-2,4,4,0,0,1-.24-1.47,9.7,9.7,0,0,1,.24-2,12.61,12.61,0,0,1,1.14-3.15,18.78,18.78,0,0,1,1.17-2.07c0-.34-.07-.85-.15-1.53l-.18-1.92-.51.84q-.24.36-.39.54l-.2.25-.25.32a1.73,1.73,0,0,1-1.17.48,1.29,1.29,0,0,1-.78-.24,1.63,1.63,0,0,1-.72-1,10,10,0,0,1-.12-1.79V26.7a1,1,0,0,1,.32-.73,1.1,1.1,0,0,1,.76-.28.93.93,0,0,1,.69.31,1,1,0,0,1,.3.7v3a14.73,14.73,0,0,0,.75-1.41,0,0,0,0,0,0,0,11,11,0,0,0,.84-2.91,1,1,0,0,1,.48-.63,1,1,0,0,1,.48-.12,1.27,1.27,0,0,1,.78.27.9.9,0,0,1,.24.43,2.18,2.18,0,0,1,.06.32l.09.93q.12.93.48,3.87l.09.81q.24-.3.78-.9a.86.86,0,0,1,.66-.3,1.2,1.2,0,0,1,.78.3.55.55,0,0,1,.23.3,1.27,1.27,0,0,1,.07.42,1.13,1.13,0,0,1-.3.72Zm-5.79-2.85h0Zm.06,0h0l.06,0h0ZM211.56,41l0,.36.12.48.18.27a.54.54,0,0,0,.15.15s.07.06.09.06l.18.09h.21l0,0,.09,0v0l.09-.33a4.4,4.4,0,0,0,0-.79q0-.44,0-.62l-.15-1.8q-.06-.84-.12-1.32a11.15,11.15,0,0,0-.78,2.82Zm.06-.81a.33.33,0,0,0,0-.15A.33.33,0,0,1,211.62,40.14Zm.84,2.25h0a0,0,0,0,0,0,0l0,0a0,0,0,0,1,0,0h0l0,0h0Zm.12,0s-.05,0-.09.06S212.56,42.36,212.58,42.36Zm-.06.06s.06-.07.06-.09Zm.09-.09h0Zm0,0v0l0,0Zm.06-.21v0l-.06.12A.17.17,0,0,0,212.7,42.13Z"/><path class="cls-3" d="M230.7,29.35a1,1,0,0,1-.33.75l-2.1,2-1.71,1.65-.27,1.38a17,17,0,0,1-1.21,3.65A8.18,8.18,0,0,1,223,41.43a6,6,0,0,1-1.44,1,3.86,3.86,0,0,1-1.71.54,2.53,2.53,0,0,1-.45-.06,1.58,1.58,0,0,1-.92-.67,2.1,2.1,0,0,1-.31-1.16,4.09,4.09,0,0,1,.42-1.5A11.67,11.67,0,0,1,220.36,37q1-1.16,2.87-3l1.41-1.38.12-.87,0,.27q.12-.81.24-2.43a17.92,17.92,0,0,1-1.23,1.53q-.69.81-1.62,1.74l-.87.84a6.2,6.2,0,0,1-.83.63,1.43,1.43,0,0,1-.76.21,1.61,1.61,0,0,1-1.44-.81,1.91,1.91,0,0,1-.27-1.05A3,3,0,0,1,218,32a6.86,6.86,0,0,1,.39-1.14q.24-.72.39-1.08a14.69,14.69,0,0,1,1.2-2.31,6.76,6.76,0,0,1,1.56-1.71,6.46,6.46,0,0,1,2.25-1.23,4.56,4.56,0,0,1,1.44-.21,4.49,4.49,0,0,1,1.08.12.83.83,0,0,1,.54.36,1.13,1.13,0,0,1,.21.66.8.8,0,0,1,0,.24.53.53,0,0,1-.06.15,1,1,0,0,1,.06.33c0,.2,0,.52,0,1q0,1.83-.12,3.3l2-1.8a1,1,0,0,1,1.44,0A.88.88,0,0,1,230.7,29.35Zm-11,11.58a.13.13,0,0,0,.09,0Zm5-14.49a3.84,3.84,0,0,0-.81.27l.24-.12a4.67,4.67,0,0,0-1.05.6l0,0-.06.06-.15.09.06,0a6.24,6.24,0,0,0-1,1l0-.06a12.11,12.11,0,0,0-1.2,2.19l0-.06a8.35,8.35,0,0,0-.42,1l-.15.42.18-.18,1-1q.87-.93,1.8-2.13l-.15.21Q223.92,27.64,224.67,26.43Zm-.87,9.9q-1.62,1.68-2.37,2.61l.09-.09a10.5,10.5,0,0,0-1.14,1.8l0-.06-.06.15a9.1,9.1,0,0,0,1-.57h0a6.26,6.26,0,0,0,1.23-1.2l-.18.18a7.84,7.84,0,0,0,1.14-2l-.09.27Q223.59,37,223.8,36.34ZM223,27.18h0l-.12.09s.07-.06.09-.06Z"/></g></g></svg>