<svg xmlns="http://www.w3.org/2000/svg" viewBox="0 0 187.4 231.29"><defs><style>.cls-1{fill:#fff;}.cls-1,.cls-2{stroke:#000105;stroke-miterlimit:10;}.cls-2{fill:none;}</style></defs><title>hat</title><g id="Слой_2" data-name="Слой 2"><g id="Слой_3" data-name="Слой 3"><path class="cls-1" d="M184.77,174.65s5.25-6.5-.75-20-4.5-19.5-5.25-21.5-10.25-20.75-19.25-22.25-10,1.5-10,1.5-12.75-24.25-35-40.25S84.4,55.28,84.4,55.28a10.34,10.34,0,0,0-7.87-7.75s11.75-5.87,9-12.75c0,0-7.5,3.75-8.25,4.63s-6.5,3.88-6.5,3.88S76.65,28.78,74,26.65s-3.25-.87-3.25-.87,3.88-14.62,1.13-15.25S63.15,19,63.15,19,59.52,1.4,54.52.53,46.15,19.4,46.15,19.4,44.52,6,40.77,5.28,34.27,17,34.27,17,23.52,1.78,17.77,5.65s3,17.62,3,17.62S2.27,19.78,1.4,27.15,8.27,38,8.27,38,4,37.78,3.65,40.4a5.73,5.73,0,0,0,1.5,4.5s-5.63,1-4.5,3.38,5.87,6,11.62,7c0,0-9.62,6.13-8.25,9.13s11.63,2.38,13.88,0c0,0-7.25,7.75-2.5,10.75S32.77,65.9,32.77,65.9s-3.62,7.75-1.25,8.63,2.75.13,2.75.13S24.77,86.4,23,96.28s-5,26.5-2.37,45.38,9.13,29.88,12.62,36.5c0,0-4.87,3.63-3.87,9.38s0,8,6,16.25S49,222.15,51.77,223.9s8.5,7.13,15.5,6.88S83.52,228,88.52,227s10.42-1.54,15.08-2.71S118.77,217,130.44,212,176.94,187.49,184.77,174.65Z"/><path class="cls-2" d="M162.95,139.49c.83,2.5,3.28,5.4,4.76,7.58,1.93,2.83,3.08,4.6,3.78,8,1.17,5.65.75,11,3.17,16.45,1.56,3.48,3.74,5.5,6,8.5"/><path class="cls-2" d="M169.74,188.83a64.9,64.9,0,0,1-4.46-8,46,46,0,0,1-3.19-8.27,49.06,49.06,0,0,1-2-8.68,28.18,28.18,0,0,0-1.63-7.72,26.12,26.12,0,0,0-5.87-8.82"/><path class="cls-2" d="M154.5,199.09c-.39-.6-5.73-7.57-6.06-10.25s0-20-11.33-31"/><path class="cls-2" d="M143,205.69c-.61-.53-6.78-4-8.44-10.53s-3.33-18.81-11.67-27.07"/><path class="cls-2" d="M126.36,213.8c-.16.07-7.75-6.65-9.75-12.15s-7-17.17-9.33-20.83-1.5-3.67-1.5-3.67"/><path class="cls-2" d="M109.85,221.81c-.74-.65-5.41-2.19-7.57-8s.5-3.81-7.67-12.31-7-13.83-7-13.83"/><path class="cls-2" d="M91.74,226.45c-.57.1-5-2.46-6.47-6.29s-1.33-9-3.67-12-5.67-5-6.83-7.5a39.37,39.37,0,0,1-2-7.67"/><path class="cls-2" d="M74.63,229.94c-.69-.62-5.52-3.12-7.85-7.29s-3.33-9.83-5-11.67-7.5-8-8.83-11.17"/><path class="cls-2" d="M159.52,110.9s3.84,2.42,1.63,9.75-4.71,13.17-12.55,18.83-15,10.17-18.83,13.17-19,15.43-28,19.17c-6.76,2.81-28.31,15.5-38,18.5s-23.47,9.17-34,0"/><path class="cls-2" d="M149.52,112.4s2.42,1.42,2.25,6.25S139.55,138.32,133,143.49s-38.89,24.67-42.72,26.33-33.5,14.67-38.5,16-12.67,1.5-14.67-.67-3.83-7-3.83-7"/><polyline class="cls-2" points="140.22 98.07 141.11 112.4 144.27 112.4 144.27 118.15 140.22 118.15 140.22 122.32 133 122.32 133 116.32 107.11 112.4 101.77 140.65 107.27 142.32 105.63 148.15 100.61 147.33 99.44 150.99 94.61 149.6 95.82 145.82 67.61 135.65 58.77 161.99 62.44 164.15 59.94 169.65 56.27 168.08 54.61 171.15 49.27 168.08 50.61 165.49 27.27 151.99 24.65 159.08"/><path class="cls-2" d="M20.65,141.65l4,2.5,2.12-6,5.83,3-2.81,5.33,23.15,13.25,9-25.92-6-2.33,1.83-6,7,2.5,2.5-7.67,5.5,2.33-3,7.33,27.17,10,4.17-29.12-9.37-1.75.79-5,9.91,2,.67-9.67h5.33V107l26,2.83v-19"/><path class="cls-2" d="M84.4,55.28s-3.79,3.54-15.29-3.12c0,0,7.67,11.67,4.83,13.17s-13.83-3-14.67-4.33c0,0,1.17,20.5-3.33,19.33s-6.5-9.62-6.67-14.06c0,0-4.5,14.39-8,12.89s-1.67-11.33-1.67-11.33l-5.33,6.83"/><path class="cls-2" d="M70.77,25.78s-9.5,6.71-9.33,6.21-1-17.17-4.67-16.17-9.83,12-9.83,12l-.79-8.42"/><path class="cls-2" d="M14.61,22.54c-.48,0-6.84,3.28-5.34,5.94s8,7.5,8,7.5S7.82,38.15,9,42.15,12.27,47,12.27,47s-9.06.47-9,4.24"/><path class="cls-2" d="M98.61,61.69S80,100.09,26.21,87.29"/><path class="cls-2" d="M105.36,65.86S77.16,113.5,23.8,93.16"/><path class="cls-2" d="M117.94,122.15c4.38,0,9.69,6,6.47,9.87-4.52,5.39-11.95.68-11.47-5.45.24-3,2-4.46,5-4.42"/><path class="cls-2" d="M74.8,147.84c4.38,0,9.69,6,6.47,9.87-4.52,5.39-11.95.68-11.47-5.45.24-3,2-4.46,5-4.42"/><path class="cls-2" d="M27.11,166c.91-3.19,7.87-.58,9.22.92,3.21,3.58-1.52,6.88-5.26,7.08"/></g></g></svg>