<?xml version="1.0" encoding="utf-8"?>
<!-- Generator: Adobe Illustrator 21.0.2, SVG Export Plug-In . SVG Version: 6.00 Build 0)  -->
<svg version="1.1" xmlns="http://www.w3.org/2000/svg" xmlns:xlink="http://www.w3.org/1999/xlink" x="0px" y="0px"
	 viewBox="0 0 286.7 160.9" style="enable-background:new 0 0 286.7 160.9;" xml:space="preserve">
<style type="text/css">
	.st0{fill:none;stroke:#000000;stroke-width:2;stroke-miterlimit:10;}
	.st1{fill:#FFFFFF;stroke:#000000;stroke-width:2;stroke-miterlimit:10;}
</style>
<g id="Слой_1">
</g>
<g id="Слой_2">
</g>
<g id="Слой_3">
	<g>
		<path class="st0" d="M230.3,101.7c0,0,10.1-17.2,4.7-22.1s-70-45.4-70-45.4"/>
		<path class="st1" d="M251.3,122.3L285,49.1L215.5,15l-13,28.4L31.2,1.4c0,0-2.6-0.9-3.9,1.9c-1.3,2.8-5.5,12-6.1,13.3
			s-4.4,4.3-4.5,6.4s-0.8,5.1-0.8,5.1L1,60.4l53.7,99.5L251.3,122.3z"/>
		<polyline class="st0" points="16.2,26.4 79.1,110 261.6,100 		"/>
		<polygon class="st0" points="75.8,110 54.6,152.6 3.9,60 16.4,32.9 		"/>
		<path class="st0" d="M193.2,107.8c-0.6-0.6-64.3,5.1-64.3,5.1l-11.4,28.8l64.8-10L193.2,107.8z"/>
		<polygon class="st0" points="166.7,123.2 165.4,126 148.4,127.3 149.8,124.3 		"/>
		<polygon class="st0" points="254.7,103.6 196.8,107.9 185.7,132 247.2,119.9 		"/>
		<polygon class="st0" points="236.2,114.2 235,116.7 215.8,118.2 216.7,116.2 		"/>
		<path class="st0" d="M262.9,84.5c-0.4-0.2-21.8-1.1-21.8-1.1"/>
		<path class="st1" d="M261.2,79.3c0,0,1.1-8.1-20.4-22.6s-36.2-12.6-36.2-12.6s-11.5,0.6-16.1,3.7c0,0,36.8,30,46.5,31.9
			C244.7,81.5,257.7,81.5,261.2,79.3z"/>
		<path class="st0" d="M266.3,89.7c0,0,2-5.8-2.4-8.7c-4.4-2.9-13.3-8.8-31.5-6.9c0,0-1.2,0.3-2.2,2.2"/>
		<path class="st0" d="M211.4,102.8c0,0,9.1-15,3.4-21.7s-66.4-51-66.4-51"/>
		<line class="st0" x1="222.8" y1="96.4" x2="220.1" y2="102.3"/>
		<line class="st0" x1="207" y1="98.6" x2="204.9" y2="103.1"/>
		<path class="st0" d="M210,79.3c0,0-29.9,0.9-45.2-2.5"/>
		<path class="st0" d="M145.5,89.6c0,0-3.6,14.4-9,17.2"/>
		<path class="st0" d="M127.6,75.2c0,0,3.6,3.9,2.1,7.9s-10.2,13.1-10.2,13.1S130.8,81.7,127.6,75.2z"/>
		<path class="st0" d="M109.6,74.2c-0.3-0.3-7.5,2.8-14.2-2.3C88.7,66.9,79.6,58,79.6,58"/>
		<line class="st0" x1="75.3" y1="53.6" x2="73.8" y2="51.4"/>
		<line class="st0" x1="71.7" y1="49.5" x2="34.2" y2="8.5"/>
		<path class="st0" d="M35.5,34.5c0,0-1,2-2.7,4.2C31.2,41,30,44.8,30,44.8"/>
		<path class="st0" d="M27.5,23.2c0,0-6.4,9.7-5.9,10.3"/>
		<path class="st0" d="M68.5,46c0,0-4.7,5.2-7.1,13.3"/>
		<path class="st0" d="M89.7,97c0,0.4-0.6,3.2-3.8,5.9c-3.2,2.6-3.4,4.2-4.6,5c-1.1,0.8-2.2,2.2-2.2,2.2l-24.5,49.9"/>
		<path class="st0" d="M78.1,108.8c0,0-7.5-7.9-7.2-15.1"/>
		<path class="st0" d="M79.1,110c0,0,1.7-7,0.3-12.5C77.9,92,79.7,90,79.7,90s-3.8,5.8-3.2,9.5C77.1,103.1,79.1,110,79.1,110z"/>
	</g>
</g>
<g id="Слой_4">
</g>
</svg>
