<svg xmlns="http://www.w3.org/2000/svg" viewBox="0 0 89.17 91.07"><defs><style>.cls-1{fill:#fff;}.cls-1,.cls-2{stroke:#000105;stroke-miterlimit:10;}.cls-2{fill:none;}</style></defs><title>hurrican</title><g id="Слой_2" data-name="Слой 2"><g id="Слой_26" data-name="Слой 26"><path class="cls-1" d="M88,74.69S82.12,81,75.19,76s-4.54-6.44-7-9-4.47-2.14-5.67-1.78-.47,1.1-3.4,1.17-5.86-.77-8.36,2.87-2.7,5.66-6,6.83a21.85,21.85,0,0,0-7.17,4,6.7,6.7,0,0,1-7.06,1.33c-2.92-1-3.65-1.77-5.58-1.32s-2.66,1.17-4.66-2.14S17,75.11,16.66,74.38s-1.43-5.51-1.79-6.61a75.35,75.35,0,0,1-2-9.27c0-1.28-.73-14-.73-14L5,43.24v.92L.52,37.35S.23,26.44,2.07,24.16c0,0,2.12-2,6.88-1.42a6.74,6.74,0,0,1,.73,1.1,24.81,24.81,0,0,1,3.94.49,20.52,20.52,0,0,1,4.07-5.93c2.3-2,3.94-3.77,5.53-4.63.83-.45,4.22-.15,5.13-.51a30.22,30.22,0,0,1,5.42-1.43c1.56-.17,3.48.21,5.31,0s3.86-1.26,6-.78S55.72,16,57.73,17.31A22.42,22.42,0,0,1,65,25.52c1.81,3.77,5.32,12.59,6.86,15.07a41.33,41.33,0,0,1,4.31,11.94c.35,3,.92,12.37,2.64,15S83.26,74.66,88,74.69Z"/><path class="cls-1" d="M46.51,90.07S47.6,91.72,53.2,89s5.8-3.44,6.09-5.64,0-2.2,0-2.2-2.37-1.48-4.48-.76-6.07,3-7.19,5.72A12.45,12.45,0,0,0,46.51,90.07Z"/><path class="cls-1" d="M15.87,2.73S19.5,7.52,24.81,8.2s5.61-2.66,5.61-2.66S30,1.64,24.86.69A12.17,12.17,0,0,0,15.87,2.73Z"/><path class="cls-2" d="M12.19,44.48s1.74.47,2.48-.44,1.87-6.13,1.87-6.13,2.18-10.52,1.27-11.44-4.2-2.14-4.2-2.14"/><path class="cls-2" d="M16.55,37.92a23.13,23.13,0,0,0-8.77-3.08C4.39,34.35.52,37.35.52,37.35"/><path class="cls-2" d="M15.22,42.85s-5.58-.77-5-2.23,1-1.18,2-1,3.72.77,3.72.77"/><path class="cls-2" d="M7.77,34.83s2.71-7.13,1.91-11"/><path class="cls-2" d="M14.47,66.27s3.12,5.1,4.34,2,3.13-1.63,2.83-25.36c0,0,1.4-13.73-3.33-20.45"/><path class="cls-2" d="M17.39,22.44a5.08,5.08,0,0,0-1.67,2.78"/><path class="cls-2" d="M20.54,64.39S15,58.26,17.31,33.85"/><path class="cls-2" d="M17.09,65.49S13.28,59.24,14.67,44"/><path class="cls-2" d="M19.7,71.83s4.58,0,3.8-32.28c0,0,.48-12.74-5.1-21.77"/><path class="cls-2" d="M19.67,76.93s3.85-1,4.94-13.86,2.62-31.59-.85-41.42"/><path class="cls-2" d="M26.33,79.91s2.21-.59,3-8.37,3.46-22.88.91-39.39"/><path class="cls-2" d="M30,12.71s10.1,19.88,5.46,42.2"/><path class="cls-2" d="M39.54,78.58s4.81-5.87,3.73-36.63"/><path class="cls-2" d="M47.7,50.68c0-.27.48-29.13-8.62-38.81"/><path class="cls-2" d="M52.62,67.3c.19-.12,5.07-17.65-.75-37.2"/><path class="cls-2" d="M58.79,49.4s0-25.46-8-35.83"/><path class="cls-2" d="M61.56,65.8s6-3.16,1.32-37.19"/><path class="cls-2" d="M68.6,61.64c.19-.27,2.71-9.32-.36-28.77"/><path class="cls-2" d="M69.62,69.51s4.23-3,3.88-14.71"/><path class="cls-2" d="M74.22,70.38s2.64-3.92,2.53-12.07"/><path class="cls-2" d="M76.63,76.87s4.06-2,3.16-4.61"/><path class="cls-2" d="M46.51,90.07s11.14-7.8,12.8-8.89"/><path class="cls-2" d="M15.87,2.73s9.25.52,14.55,2.8"/><polyline class="cls-2" points="51.93 89.59 51.95 86.26 47.63 86.14"/><polyline class="cls-2" points="55.41 87.9 55.31 83.92 50.28 82.95"/><polyline class="cls-2" points="18.98 5.7 22.08 3.41 19.64 0.48"/><path class="cls-2" d="M23.14,7.84l3.71-3.48c-.36-.55-2-3.68-2-3.68"/></g></g></svg>