<svg xmlns="http://www.w3.org/2000/svg" viewBox="0 0 111.29 101"><defs><style>.cls-1{fill:#fff;}.cls-1,.cls-2{stroke:#000105;stroke-linecap:round;stroke-linejoin:round;}.cls-2{fill:none;}</style></defs><title>Ресурс 6</title><g id="Слой_2" data-name="Слой 2"><g id="Layer_7" data-name="Layer 7"><path class="cls-1" d="M2.67,21.95c-.12.32-3,6.41-1.91,10,1.83,5.85,1.69,8.22,15.42,16s35.34,7.54,38.94,6.86l3.6-.68s15.31,6.19,19,8.33,7.09,6.08,7.2,9S85.72,77,83.47,81s-8.67,7.09-10.58,10.13-3.26,6.19-2.81,9.34a15.17,15.17,0,0,1,7.09-9.12c5.74-3.15,14.07-7.54,14.07-23.63,0-11.48-13.05-17.67-13.05-17.67s37.48-5,32.07-22.4S68.06-.45,49.26.57,7.85,8.11,2.67,21.95Z"/><path class="cls-2" d="M58.71,54.13S47,46.23,42.82,32c0,0-2.53-6.33-7-8.86"/><path class="cls-2" d="M78.18,50.08s-19-13.73-2.45-24.45"/><path class="cls-2" d="M83.87,68.13a15.39,15.39,0,0,1,2.23-2.41,4.38,4.38,0,0,1,2.75-1.31c.07,0,.15,0,.16.08s-.13.07-.09,0"/><path class="cls-2" d="M78.56,62.67a6.41,6.41,0,0,1,4.5-4.11"/><path class="cls-2" d="M74.63,60.33a1.76,1.76,0,0,1,.18-1.25A13,13,0,0,1,77.63,55a3.08,3.08,0,0,1,1.72-1l-.15.18"/><path class="cls-2" d="M69.13,58.14a1.07,1.07,0,0,1,.08-.9,11.46,11.46,0,0,1,3.09-4.85A1.3,1.3,0,0,1,73.47,52"/><path class="cls-2" d="M63.42,55.58A17.24,17.24,0,0,1,66,50a6.09,6.09,0,0,1,3-2.9c.38-.12.94,0,1,.36"/><path class="cls-2" d="M58.27,53.32a12.85,12.85,0,0,1,1.81-6,10.38,10.38,0,0,1,1.85-2.6,4.66,4.66,0,0,1,2.83-1.36"/><path class="cls-2" d="M51.63,48.06a15.36,15.36,0,0,1,7.25-10.29,4.41,4.41,0,0,1,2.2-.74.83.83,0,0,1-.54.41"/><path class="cls-2" d="M47.37,41.49a20.76,20.76,0,0,1,1-3.77,11.91,11.91,0,0,1,1.19-2.39,8.41,8.41,0,0,1,4.12-3.21"/><path class="cls-2" d="M42.92,32.32A21.32,21.32,0,0,1,49.36,24c1.37-1.07,3.05-2,4.77-1.72"/><path class="cls-2" d="M39.13,26.37A36,36,0,0,1,45.71,19a2.7,2.7,0,0,1,1.55-.8c.59,0,1.23.53,1.06,1.09"/><path class="cls-2" d="M28,24.23c2.16.14,4.39,1,6.43.29A7,7,0,0,0,36,23.68a20.54,20.54,0,0,0,4.45-4.14"/><path class="cls-2" d="M29.78,50.75a23.5,23.5,0,0,0,11.33.83,12,12,0,0,1,3.75-.36"/><path class="cls-2" d="M12.56,42.36C20,46.89,28.9,48.29,37.58,49a41.46,41.46,0,0,0,6.44.19,42.64,42.64,0,0,0,7.59-1.43c.07,0,0,.14,0,.08"/><path class="cls-2" d="M13.38,40a55.55,55.55,0,0,0,7.32,2.75"/><path class="cls-2" d="M25.58,44.15a2.1,2.1,0,0,0,1,.22A21.75,21.75,0,0,0,30,44.22l-.23-.44"/><path class="cls-2" d="M8,41.42C4.82,38.75,4.16,34,5.2,29.92a21.79,21.79,0,0,1,6.39-10.27A39.65,39.65,0,0,1,21.81,13a67.77,67.77,0,0,1,30-6.51"/><path class="cls-2" d="M9.11,39.93A15.75,15.75,0,0,1,6,23.51C8,18.44,12.55,14.86,17,11.72a53.06,53.06,0,0,1,6-3.8c1.62-.84,3.31-1.54,5-2.23a7.63,7.63,0,0,1,3.05-.78"/><path class="cls-2" d="M10.57,23.78c-.87,2.33-.08,4.91.75,7.26a16.21,16.21,0,0,0,3.35,6.29"/><path class="cls-2" d="M9.75,35.69a6.63,6.63,0,0,0,2.78,3.93"/><path class="cls-2" d="M12.56,29.45a7.7,7.7,0,0,1,.15-1.67,16.72,16.72,0,0,1,3.56-7.3,41.14,41.14,0,0,1,5.87-5.71A35.07,35.07,0,0,1,30.84,9"/><path class="cls-2" d="M23.69,17.92a18.75,18.75,0,0,0-6,5.12,10,10,0,0,0-1.9,7.49,10.73,10.73,0,0,0,3.37,5.67,32,32,0,0,0,5.47,3.86"/><path class="cls-2" d="M46.27,40.13c-1.36,1.44-3.57,1.56-5.55,1.52s-4.12-.17-6.18-.37c-3.2-.31-6.48-.84-9.23-2.5a8.8,8.8,0,0,1-3.24-3.22c-1.24-2.29-1.07-5.06-.77-7.64"/><path class="cls-2" d="M26.86,32.92a14.54,14.54,0,0,0,4.94,4.48C34.72,39,38.11,39.57,41.13,41"/><path class="cls-2" d="M27.48,29.49A19.89,19.89,0,0,0,37.85,34c1.43.17,3,.23,4.08,1.17"/><path class="cls-2" d="M39,12.94a67.28,67.28,0,0,1,26.89.69c3.9.9,7.71,2.16,11.51,3.43"/><path class="cls-2" d="M61.22,7.65a52.29,52.29,0,0,1,19.37,4.82,14.4,14.4,0,0,1,5.47,3.86"/><path class="cls-2" d="M74.3,46.4a171.7,171.7,0,0,0,17.24-1.86"/><path class="cls-2" d="M100,20.61c1.43,1.23,2.95,2.6,3.35,4.45a6.17,6.17,0,0,1-.13,2.83,10.2,10.2,0,0,1-2.68,4.69"/><path class="cls-2" d="M93.5,43.53c.52-.24,1.07-.4,1.62-.58a19.15,19.15,0,0,0,7.19-4.42"/><path class="cls-2" d="M96.48,24.2c.32,1.11-.44,2.22-1.19,3.1A41.73,41.73,0,0,1,74.6,40.4"/><polygon class="cls-1" points="83.06 35.13 88.31 30.28 93.09 35.4 87.75 39.92 83.06 35.13"/><path class="cls-1" d="M88.91,26.59c-.08.31-.74,3.69-.74,3.69L92.9,35.4V29.94Z"/><polygon class="cls-1" points="83.06 35.13 83.87 29.45 88.4 30.28 83.06 35.13"/><polygon class="cls-1" points="89.06 26.59 83.87 29.45 88.4 30.28 89.06 26.59"/><polygon class="cls-1" points="85.94 35.4 88.08 33.09 90.34 35.4 88.08 37.48 85.94 35.4"/><path class="cls-2" d="M87.18,34.09a7,7,0,0,1,1.91,2h.32"/><path class="cls-2" d="M87.08,36.36l2-2.09"/></g></g></svg>