<svg xmlns="http://www.w3.org/2000/svg" viewBox="0 0 87.68 101"><defs><style>.cls-1,.cls-6{fill:#000105;}.cls-1,.cls-2,.cls-3{stroke:#000105;stroke-linejoin:round;}.cls-1,.cls-2,.cls-3,.cls-4,.cls-5,.cls-6{stroke-linecap:round;}.cls-2{fill:#fff;}.cls-3,.cls-5{fill:none;}.cls-4{fill:#e2e2e2;}.cls-4,.cls-5,.cls-6{stroke:#201600;stroke-miterlimit:10;}</style></defs><title>Ресурс 2</title><g id="Слой_2" data-name="Слой 2"><g id="Слой_4" data-name="Слой 4"><path class="cls-1" d="M47.53,35.29s-1.12-5.67.41-9.93,3.52-2.27,3.52-2.27S54,26.24,47.53,35.29"/><path class="cls-2" d="M60.43,30.83s.1-3,.58-3.35,1.27.3,1.39.71.86-.07,1.24.56a1.93,1.93,0,0,0,.79.82c.56.37.9.75.67,2.17s-.3,1.72-.3,1.72S60.67,31,60.43,30.83Z"/><path class="cls-2" d="M71.88,36.89,23.88.5a5.21,5.21,0,0,1-4,5S53.11,25.76,56.11,28.68s13.27,9.67,13.27,9.67Z"/><path class="cls-2" d="M51.38,27.84a35.32,35.32,0,0,0-7-6.32c-1-.67-5.13-1.87-4.91-2.36s5-.71,8.51,1.46c0,0,.45.34.49-.3s.3-2.4,1.07-3,.24.67.39,1.39a42.37,42.37,0,0,0,1.81,5A5.68,5.68,0,0,1,51.38,27.84Z"/><path class="cls-2" d="M77.18,41.9a130.52,130.52,0,0,1,1.75,20.51,4.06,4.06,0,0,1-1.75.9s-.12,2.26-.2,2.76c0,0-3.94,1.2-4,5.25s-7.21-15.85-7.21-15.85l2.4-5.13Z"/><path class="cls-2" d="M47.53,35.29A17.19,17.19,0,0,0,50.67,30c1.12-3.15,1.8-5.51.79-6.86,0,0,1.57,1.46,4.38,3.82s4.2,4.2,9.33,6.75,6,2.89,6.71,3.22A9.07,9.07,0,0,1,74.45,39c1,1.12,2.57,1,2.87,3.64a6.39,6.39,0,0,1-1,4.83,11.06,11.06,0,0,1-3.86,3.11c-2.51,1.39-4.83,2.47-5.25,4.57s1.24,6.86,2,8,5.9,11,5.73,17.29-.5,9.33-.5,9.33l-.51,1.24s-5.23.51-6.86-.73c0,0,2.25-1.29,2.25-2.87s-1.61-10.79-6.87-15.18c0,0-9.37,4.33-12.29,17.43a12,12,0,0,1-7.7.39l2.14-1.91a114.17,114.17,0,0,1,6.52-23.1C56.24,52,59.93,46,59.93,46l2.43-3.49S58.51,36.35,47.53,35.29Z"/><path class="cls-2" d="M42.47,90.1a4.42,4.42,0,0,1-2.61-1.6l-.17-.22s-1.41,2.3-.24,4.24l.14.22s9.41.59,10.84-.17a7.22,7.22,0,0,0,0-2.61c-.31-.59-.25-.25-.25-.25A12,12,0,0,1,42.47,90.1Z"/><path class="cls-2" d="M67.09,90.33s-1.74-.08-2.11-1.18c0,0-2,1.94-.73,3.79,0,0,10.62.28,10.62.17s.48-2.22-.42-3.29l-.51,1.24S69.17,91.71,67.09,90.33Z"/><path class="cls-3" d="M68.41,82.63s4.65,1.14,6.5-.55"/><path class="cls-3" d="M69,84.89s2.34,1.17,5.85-.56"/><path class="cls-3" d="M46.51,79.28s2,2.28,7.66.8"/><path class="cls-3" d="M45.93,81.6s2.11,1.52,6.8.95"/><path class="cls-3" d="M51,65.31s14,2.81,22.66,8.09"/><path class="cls-3" d="M52,62.79s14.12,3.91,17.3,6.56"/><path class="cls-3" d="M54.56,56.81s8.71.24,12,2.34"/><path class="cls-3" d="M57,51.47s4.87.41,7.76,2.51"/><path class="cls-3" d="M65.1,47.64s-.64-3.07-2.4-4.27"/><path class="cls-3" d="M63,45.51a16.77,16.77,0,0,1,1.8,2.92"/><path class="cls-3" d="M54,25.36S50.67,34.34,50,35s-.48.53-.48.53"/><path class="cls-3" d="M77.18,63.31s.27-13.64.19-18.66c0,0-3.68,15.66-5.71,19.67,0,0,3.79-1.67,5.32,1.75"/><path class="cls-1" d="M19.83,5.52s-.32-4.85,4-5A5.11,5.11,0,0,1,19.83,5.52Z"/><path class="cls-2" d="M75.49,33.48c0-.18-1.12-5.88.84-5s7.81,4.75,6.77,14.11S75.49,33.48,75.49,33.48Z"/><path class="cls-2" d="M81.62,33.59s1-.29,1.18-.68a9.34,9.34,0,0,1,1,5c-.39,2.36-.53,2.33-.53,2.33A17.12,17.12,0,0,0,81.62,33.59Z"/><path class="cls-3" d="M75.3,32.24s7.35-.13,5.16,11.88"/><path class="cls-2" d="M71.88,36.89l1.16-1s-1.31-.56-1.16-1,3.78-.93,3.78-.93,2.22,6.12,3,7.12-1.67.33-1.67.33.82-.07-2.55-2.37A9.82,9.82,0,0,0,71.88,36.89Z"/><polygon class="cls-1" points="75.46 34.59 75.66 35.56 74.96 34.9 75.46 34.59"/><line class="cls-4" x1="77.82" y1="33.84" x2="77.2" y2="38.94"/><line class="cls-4" x1="78.59" y1="34.32" x2="78.02" y2="39.52"/><line class="cls-4" x1="79.03" y1="34.9" x2="78.26" y2="41.73"/><line class="cls-4" x1="79.36" y1="35.04" x2="79.12" y2="41.87"/><line class="cls-4" x1="79.99" y1="35.57" x2="79.36" y2="42.5"/><line class="cls-4" x1="80.23" y1="37.4" x2="79.31" y2="44.57"/><line class="cls-4" x1="80.81" y1="38.17" x2="78.88" y2="45.43"/><line class="cls-4" x1="80.71" y1="40.62" x2="79.51" y2="44.33"/><line class="cls-4" x1="80.85" y1="41.25" x2="79.31" y2="46.11"/><line class="cls-4" x1="79.75" y1="40.19" x2="78.16" y2="44.66"/><line class="cls-4" x1="79.31" y1="40" x2="77.77" y2="43.89"/><line class="cls-4" x1="78.74" y1="38.75" x2="77.77" y2="41.92"/><line class="cls-4" x1="78.35" y1="37.74" x2="77.15" y2="40.91"/><line class="cls-4" x1="78.4" y1="36.49" x2="76.57" y2="40.38"/><line class="cls-4" x1="78.26" y1="35.28" x2="77" y2="38.94"/><line class="cls-4" x1="78.59" y1="35.14" x2="77.53" y2="37.69"/><line class="cls-4" x1="77.68" y1="35.09" x2="76.81" y2="37.59"/><line class="cls-4" x1="78.3" y1="33.94" x2="78.02" y2="35.14"/><line class="cls-4" x1="78.78" y1="34.18" x2="79.12" y2="36.24"/><line class="cls-4" x1="78.93" y1="34.22" x2="79.55" y2="36.58"/><line class="cls-4" x1="79.65" y1="35.04" x2="80.08" y2="37.88"/><line class="cls-4" x1="79.94" y1="35.67" x2="80.42" y2="38.79"/><line class="cls-4" x1="80.23" y1="36.53" x2="80.56" y2="40.81"/><line class="cls-4" x1="80.42" y1="37.54" x2="80.13" y2="41.92"/><line class="cls-4" x1="78.93" y1="37.54" x2="78.69" y2="40.86"/><line class="cls-4" x1="78.93" y1="37.83" x2="78.54" y2="40.72"/><line class="cls-4" x1="78.4" y1="38.12" x2="77.73" y2="39.95"/><line class="cls-4" x1="77.87" y1="38.65" x2="76.86" y2="40.67"/><line class="cls-4" x1="78.21" y1="38.7" x2="77.44" y2="42.11"/><line class="cls-4" x1="78.11" y1="33.79" x2="75.56" y2="34.27"/><line class="cls-4" x1="78.11" y1="34.46" x2="76.67" y2="35.76"/><line class="cls-4" x1="77.77" y1="34.13" x2="76.76" y2="34.95"/><line class="cls-4" x1="75.85" y1="32.64" x2="76.67" y2="35.19"/><line class="cls-4" x1="76.28" y1="32.43" x2="76.38" y2="33.37"/><line class="cls-4" x1="76.38" y1="32.5" x2="76.59" y2="34.14"/><line class="cls-4" x1="76.76" y1="32.71" x2="76.97" y2="33.84"/><line class="cls-4" x1="76.75" y1="32.77" x2="77.29" y2="34"/><line class="cls-4" x1="77.12" y1="32.89" x2="77.67" y2="33.93"/><line class="cls-4" x1="77.35" y1="33.03" x2="77.99" y2="33.83"/><line class="cls-4" x1="77.8" y1="33.19" x2="78.05" y2="33.74"/><polygon class="cls-4" points="76.79 34.34 76.88 34.39 76.88 34.49 76.79 34.55 76.7 34.49 76.7 34.39 76.79 34.34"/><line class="cls-4" x1="75.78" y1="33.15" x2="75.98" y2="33.92"/><line class="cls-4" x1="77.12" y1="35.67" x2="76.87" y2="36.31"/><line class="cls-4" x1="76.51" y1="35.38" x2="76.65" y2="35.61"/><line class="cls-4" x1="76.96" y1="37.62" x2="76.57" y2="38.84"/><line class="cls-4" x1="78.11" y1="37.16" x2="77.46" y2="41.22"/><line class="cls-4" x1="78.59" y1="40.6" x2="77.99" y2="43.05"/><line class="cls-4" x1="77.97" y1="41.97" x2="77.41" y2="43.61"/><line class="cls-4" x1="79.31" y1="41.97" x2="78.98" y2="44.37"/><path class="cls-5" d="M75.18,51"/><path class="cls-5" d="M75,49.68"/><path class="cls-5" d="M73.63,51.12q.3,1.38.54,2.78"/><path class="cls-5" d="M70.88,53.72a39.46,39.46,0,0,0,1.6,4.9"/><path class="cls-5" d="M68.82,58.52q1,1.6,1.81,3.28"/><path class="cls-5" d="M73,64.91,73.88,66"/><path class="cls-5" d="M39.71,89.91a9.79,9.79,0,0,0,1,1.45l.35.48"/><path class="cls-5" d="M44.11,90.76q.68.92,1.39,1.82"/><path class="cls-5" d="M47.83,90.75a2.66,2.66,0,0,0,.68.53,7.82,7.82,0,0,1,1.36,1.12"/><path class="cls-5" d="M66.59,90.53q.72.94,1.49,1.84"/><path class="cls-5" d="M71.83,91.4a12.17,12.17,0,0,0,1.25.81"/><path class="cls-5" d="M70.9,83.09q1,.87,1.93,1.82"/><path class="cls-5" d="M46.38,79.77l1.2,2.45s0,0,0,.05,0,0,0,0"/><path class="cls-5" d="M50.46,80.74q.51.85,1,1.74"/><path class="cls-5" d="M52.28,62.8a3.52,3.52,0,0,1,.45.73L53.8,65.6"/><path class="cls-5" d="M58.25,64.66A22.8,22.8,0,0,1,60,67.5"/><path class="cls-5" d="M63.3,66.57a15.59,15.59,0,0,1,1.84,2.92"/><path class="cls-5" d="M55.8,54.44q.52,1.19.92,2.42"/><path class="cls-5" d="M58.24,51.89a3.19,3.19,0,0,1,.49.81l1.9,4"/><path class="cls-5" d="M63.31,53.25a2.16,2.16,0,0,1,.63.83c.3.59.58,1.19.85,1.79L65.73,58"/><path class="cls-3" d="M26.84,9.81c.93.18.86,0,1.65-.5a3.6,3.6,0,0,0,1.16-1.75,4.6,4.6,0,0,0,.48-2.34"/><path class="cls-3" d="M33.52,13.94c.86.22,1.21-.11,1.87-.7a3.74,3.74,0,0,0,1.14-2.34,1.48,1.48,0,0,0,0-.66"/><path class="cls-3" d="M39.46,17.64a1.94,1.94,0,0,0,2-.94,5.3,5.3,0,0,0,.77-2.3"/><path class="cls-3" d="M47.34,20a1.15,1.15,0,0,0,.42-1.39"/><path class="cls-3" d="M54.49,25.62A1.89,1.89,0,0,0,55,24.27"/><path class="cls-3" d="M58.44,29.27A1.53,1.53,0,0,0,60,27.9"/><path class="cls-3" d="M63.45,32.58a1.36,1.36,0,0,0,1.09-1.29"/><ellipse class="cls-6" cx="85.34" cy="41.21" rx="0.63" ry="2.53" transform="translate(-4.14 72.42) rotate(-45)"/><path class="cls-1" d="M28.2,42.65s-1.12-5.67.41-9.93,3.52-2.27,3.52-2.27,2.59,3.14-3.93,12.19"/><path class="cls-2" d="M41.11,38.2s.1-3,.58-3.35,1.27.3,1.39.71.86-.07,1.24.56a1.93,1.93,0,0,0,.79.82c.56.37.9.75.67,2.17s-.3,1.72-.3,1.72S41.34,38.37,41.11,38.2Z"/><path class="cls-2" d="M52.56,44.25,4.55,7.86a5.21,5.21,0,0,1-4,5S33.78,33.12,36.78,36,50,45.71,50,45.71Z"/><path class="cls-2" d="M32.06,35.2a35.32,35.32,0,0,0-7-6.32c-1-.67-5.13-1.87-4.91-2.36s5-.71,8.51,1.46c0,0,.45.34.49-.3s.3-2.4,1.07-3,.24.67.39,1.39a42.37,42.37,0,0,0,1.81,5A5.68,5.68,0,0,1,32.06,35.2Z"/><path class="cls-2" d="M57.85,49.26A130.52,130.52,0,0,1,59.6,69.77a4.06,4.06,0,0,1-1.75.9s-.12,2.26-.2,2.76c0,0-3.94,1.2-4,5.25s-7.21-15.85-7.21-15.85l2.4-5.13Z"/><path class="cls-2" d="M28.2,42.65a17.19,17.19,0,0,0,3.15-5.33c1.12-3.15,1.8-5.51.79-6.86,0,0,1.57,1.46,4.38,3.82s4.2,4.2,9.33,6.75,6,2.89,6.71,3.22a9.07,9.07,0,0,1,2.57,2.14c1,1.12,2.57,1,2.87,3.64a6.39,6.39,0,0,1-1,4.83A11.06,11.06,0,0,1,53.12,58c-2.51,1.39-4.83,2.47-5.25,4.57s1.24,6.86,2,8,5.9,11,5.73,17.29-.5,9.33-.5,9.33l-.51,1.24s-5.23.51-6.86-.73c0,0,2.25-1.29,2.25-2.87S48.4,84,43.14,79.65c0,0-9.37,4.33-12.29,17.43a12,12,0,0,1-7.7.39l2.14-1.91a114.17,114.17,0,0,1,6.52-23.1c5.12-13.1,8.81-19.06,8.81-19.06L43,49.91S39.18,43.71,28.2,42.65Z"/><path class="cls-2" d="M23.14,97.47a4.42,4.42,0,0,1-2.61-1.6l-.17-.22s-1.41,2.3-.24,4.24l.14.22s9.41.59,10.84-.17a7.22,7.22,0,0,0,0-2.61c-.31-.59-.25-.25-.25-.25A12,12,0,0,1,23.14,97.47Z"/><path class="cls-2" d="M47.76,97.69s-1.74-.08-2.11-1.18c0,0-2,1.94-.73,3.79,0,0,10.62.28,10.62.17s.48-2.22-.42-3.29l-.51,1.24S49.84,99.07,47.76,97.69Z"/><path class="cls-3" d="M49.09,90s4.65,1.14,6.5-.55"/><path class="cls-3" d="M49.65,92.25s2.34,1.17,5.85-.56"/><path class="cls-3" d="M27.19,86.65s2,2.28,7.66.8"/><path class="cls-3" d="M26.61,89s2.11,1.52,6.8.95"/><path class="cls-3" d="M31.71,72.67s14,2.81,22.66,8.09"/><path class="cls-3" d="M32.71,70.15S46.82,74.06,50,76.71"/><path class="cls-3" d="M35.23,64.17s8.71.24,12,2.34"/><path class="cls-3" d="M37.72,58.83s4.87.41,7.76,2.51"/><path class="cls-3" d="M45.78,55s-.64-3.07-2.4-4.27"/><path class="cls-3" d="M43.68,52.87a16.77,16.77,0,0,1,1.8,2.92"/><path class="cls-3" d="M34.69,32.73s-3.34,9-4.05,9.65-.48.53-.48.53"/><path class="cls-3" d="M57.85,70.67S58.12,57,58,52c0,0-3.68,15.66-5.71,19.67,0,0,3.79-1.67,5.32,1.75"/><path class="cls-1" d="M.51,12.88s-.32-4.85,4-5A5.11,5.11,0,0,1,.51,12.88Z"/><path class="cls-2" d="M56.17,40.84c0-.18-1.12-5.88.84-5s7.81,4.75,6.77,14.11S56.17,40.84,56.17,40.84Z"/><path class="cls-2" d="M62.3,41s1-.29,1.18-.68a9.34,9.34,0,0,1,1,5c-.39,2.36-.53,2.33-.53,2.33A17.12,17.12,0,0,0,62.3,41Z"/><path class="cls-3" d="M56,39.6s7.35-.13,5.16,11.88"/><path class="cls-2" d="M52.56,44.25l1.16-1s-1.31-.56-1.16-1,3.78-.93,3.78-.93,2.22,6.12,3,7.12-1.67.33-1.67.33.82-.07-2.55-2.37A9.82,9.82,0,0,0,52.56,44.25Z"/><polygon class="cls-1" points="56.14 41.95 56.34 42.92 55.63 42.27 56.14 41.95"/><line class="cls-4" x1="58.5" y1="41.2" x2="57.87" y2="46.3"/><line class="cls-4" x1="59.27" y1="41.68" x2="58.69" y2="46.88"/><line class="cls-4" x1="59.7" y1="42.26" x2="58.93" y2="49.09"/><line class="cls-4" x1="60.04" y1="42.4" x2="59.8" y2="49.24"/><line class="cls-4" x1="60.66" y1="42.93" x2="60.04" y2="49.86"/><line class="cls-4" x1="60.9" y1="44.76" x2="59.99" y2="51.93"/><line class="cls-4" x1="61.48" y1="45.53" x2="59.56" y2="52.8"/><line class="cls-4" x1="61.38" y1="47.98" x2="60.18" y2="51.69"/><line class="cls-4" x1="61.53" y1="48.61" x2="59.99" y2="53.47"/><line class="cls-4" x1="60.42" y1="47.55" x2="58.83" y2="52.03"/><line class="cls-4" x1="59.99" y1="47.36" x2="58.45" y2="51.26"/><line class="cls-4" x1="59.41" y1="46.11" x2="58.45" y2="49.28"/><line class="cls-4" x1="59.03" y1="45.1" x2="57.82" y2="48.27"/><line class="cls-4" x1="59.07" y1="43.85" x2="57.25" y2="47.74"/><line class="cls-4" x1="58.93" y1="42.64" x2="57.68" y2="46.3"/><line class="cls-4" x1="59.27" y1="42.5" x2="58.21" y2="45.05"/><line class="cls-4" x1="58.35" y1="42.45" x2="57.49" y2="44.95"/><line class="cls-4" x1="58.98" y1="41.3" x2="58.69" y2="42.5"/><line class="cls-4" x1="59.46" y1="41.54" x2="59.8" y2="43.61"/><line class="cls-4" x1="59.6" y1="41.59" x2="60.23" y2="43.94"/><line class="cls-4" x1="60.33" y1="42.4" x2="60.76" y2="45.24"/><line class="cls-4" x1="60.61" y1="43.03" x2="61.1" y2="46.16"/><line class="cls-4" x1="60.9" y1="43.9" x2="61.24" y2="48.18"/><line class="cls-4" x1="61.1" y1="44.91" x2="60.81" y2="49.28"/><line class="cls-4" x1="59.6" y1="44.91" x2="59.36" y2="48.23"/><line class="cls-4" x1="59.6" y1="45.19" x2="59.22" y2="48.08"/><line class="cls-4" x1="59.07" y1="45.48" x2="58.4" y2="47.31"/><line class="cls-4" x1="58.55" y1="46.01" x2="57.53" y2="48.03"/><line class="cls-4" x1="58.88" y1="46.06" x2="58.11" y2="49.48"/><line class="cls-4" x1="58.79" y1="41.15" x2="56.24" y2="41.63"/><line class="cls-4" x1="58.79" y1="41.83" x2="57.34" y2="43.13"/><line class="cls-4" x1="58.45" y1="41.49" x2="57.44" y2="42.31"/><line class="cls-4" x1="56.52" y1="40" x2="57.34" y2="42.55"/><line class="cls-4" x1="56.95" y1="39.79" x2="57.05" y2="40.73"/><line class="cls-4" x1="57.05" y1="39.86" x2="57.26" y2="41.5"/><line class="cls-4" x1="57.43" y1="40.08" x2="57.64" y2="41.2"/><line class="cls-4" x1="57.42" y1="40.14" x2="57.97" y2="41.37"/><line class="cls-4" x1="57.8" y1="40.25" x2="58.35" y2="41.29"/><line class="cls-4" x1="58.03" y1="40.39" x2="58.66" y2="41.19"/><line class="cls-4" x1="58.47" y1="40.55" x2="58.73" y2="41.1"/><polygon class="cls-4" points="57.47 41.7 57.56 41.75 57.56 41.86 57.47 41.91 57.38 41.86 57.38 41.75 57.47 41.7"/><line class="cls-4" x1="56.46" y1="40.51" x2="56.66" y2="41.28"/><line class="cls-4" x1="57.8" y1="43.04" x2="57.55" y2="43.68"/><line class="cls-4" x1="57.19" y1="42.74" x2="57.33" y2="42.98"/><line class="cls-4" x1="57.63" y1="44.98" x2="57.25" y2="46.2"/><line class="cls-4" x1="58.79" y1="44.52" x2="58.14" y2="48.59"/><line class="cls-4" x1="59.27" y1="47.96" x2="58.67" y2="50.41"/><line class="cls-4" x1="58.64" y1="49.33" x2="58.09" y2="50.97"/><line class="cls-4" x1="59.99" y1="49.33" x2="59.65" y2="51.74"/><path class="cls-5" d="M55.85,58.41"/><path class="cls-5" d="M55.71,57"/><path class="cls-5" d="M54.31,58.48q.3,1.38.54,2.78"/><path class="cls-5" d="M51.55,61.08a39.46,39.46,0,0,0,1.6,4.9"/><path class="cls-5" d="M49.5,65.88q1,1.6,1.81,3.28"/><path class="cls-5" d="M53.72,72.27l.83,1.08"/><path class="cls-5" d="M20.38,97.27a9.79,9.79,0,0,0,1,1.45l.35.48"/><path class="cls-5" d="M24.78,98.12q.68.92,1.39,1.82"/><path class="cls-5" d="M28.5,98.11a2.66,2.66,0,0,0,.68.53,7.82,7.82,0,0,1,1.36,1.12"/><path class="cls-5" d="M47.26,97.89q.72.94,1.49,1.84"/><path class="cls-5" d="M52.5,98.76a12.17,12.17,0,0,0,1.25.81"/><path class="cls-5" d="M51.58,90.45q1,.87,1.93,1.82"/><path class="cls-5" d="M27.06,87.14l1.2,2.45s0,0,0,.05,0,0,0,0"/><path class="cls-5" d="M31.13,88.1q.51.85,1,1.74"/><path class="cls-5" d="M33,70.16a3.52,3.52,0,0,1,.45.73L34.48,73"/><path class="cls-5" d="M38.92,72a22.8,22.8,0,0,1,1.71,2.84"/><path class="cls-5" d="M44,73.93a15.59,15.59,0,0,1,1.84,2.92"/><path class="cls-5" d="M36.48,61.8Q37,63,37.4,64.23"/><path class="cls-5" d="M38.91,59.26a3.19,3.19,0,0,1,.49.81l1.9,4"/><path class="cls-5" d="M44,60.61a2.16,2.16,0,0,1,.63.83c.3.59.58,1.19.85,1.79l.95,2.08"/><path class="cls-3" d="M7.52,17.17c.93.18.86,0,1.65-.5a3.6,3.6,0,0,0,1.16-1.75,4.6,4.6,0,0,0,.48-2.34"/><path class="cls-3" d="M14.19,21.3c.86.22,1.21-.11,1.87-.7a3.74,3.74,0,0,0,1.14-2.34,1.48,1.48,0,0,0,0-.66"/><path class="cls-3" d="M20.13,25a1.94,1.94,0,0,0,2-.94,5.3,5.3,0,0,0,.77-2.3"/><path class="cls-3" d="M28,27.35A1.15,1.15,0,0,0,28.43,26"/><path class="cls-3" d="M35.17,33a1.89,1.89,0,0,0,.47-1.35"/><path class="cls-3" d="M39.11,36.63a1.53,1.53,0,0,0,1.52-1.37"/><path class="cls-3" d="M44.12,39.94a1.36,1.36,0,0,0,1.09-1.29"/><ellipse class="cls-6" cx="66.02" cy="48.57" rx="0.63" ry="2.53" transform="translate(-15.01 60.91) rotate(-45)"/></g></g></svg>