<?xml version="1.0" encoding="UTF-8"?>
<svg enable-background="new 0 0 132.1 125.9" viewBox="0 0 132.1 125.9" xmlns="http://www.w3.org/2000/svg">
<g stroke="#0d0e0f" stroke-miterlimit="10">
<g fill="none">
<path d="m83.8 120c-.7.9-1.5 1.7-2.3 2.5"/>
<path d="m77.9 121.2c-.3.9-.7 1.7-1.2 2.5"/>
<path d="m73.8 121.7c-.7 1-1.4 2.1-2.2 3.1"/>
<path d="m69.2 121.7c-.8 1-1.5 2.1-2.1 3.2"/>
<path d="m65.8 121.8c-1.1.9-2 1.9-2.7 3.1"/>
<path d="m61.9 120.9c-1.1 1.4-2.2 2.8-3.4 4.3"/>
<path d="m57.5 120c-1.3 1.8-2.7 3.5-4.3 5.1"/>
<path d="m51.6 118.6c-1.5 2.1-2.8 3.8-4.1 6"/>
<path d="m47.3 116.8c-1.8 2.6-3.1 4.6-4.9 7.2"/>
<path d="m42.4 114.8c-2 2.6-4 5.2-6 7.7"/>
<path d="m35.5 110c-1.4 3.6-2.9 7.1-4.7 10.6"/>
<path d="m30.2 105.8c-1.9 4-3.6 7.4-5.5 11.4"/>
<path d="m25.6 100.6c-2.6 4.3-4.7 7.8-7.3 12.2"/>
<path d="m21 95.5l-4.4 5.5c-1.6 1.8-2.5 3.6-4.3 5.2"/>
<path d="m15.8 86.1c-3.7 2.9-6.1 7.1-9.6 10.3"/>
<path d="m2.5 87.3c3-3.9 6.3-7.3 10-10.5"/>
<path d="m0.6 75.1c2.8-3.3 6.2-6.1 10-8.1"/>
<path d="m1.3 81c2.5-2.8 4.6-5.2 7.4-7.7.8-.7 1.7-1.5 2.7-2"/>
<path d="m8.9 100.9c1.8-4 6.1-7.5 9-10.8"/>
<path d="m4.1 92c3-4 6.3-7.2 10-10.6"/>
<path d="m0.9 68c2.9-3.1 5.8-5.3 9.5-7.2"/>
<path d="m1.3 61.7c0.7-0.5 0.8-1 1.3-1.3 2.7-1.8 5.3-3.7 8-5.5h-0.4"/>
<path d="m3.4 54.2c2.7-2.5 5-4.1 8.4-5.7"/>
<path d="m6 47.8c2.1-1.5 4.5-2.8 7-3.7"/>
<path d="m8.9 42c1.9-1.2 3.7-2 5.8-2.6"/>
<path d="m12 36.6c1.5-.5 2.9-1.4 4.4-1.6"/>
<path d="m16.4 30.9c.9-.2 1.8-.5 2.6-.7"/>
</g>
<circle cx="71.1" cy="61.1" r="60.5" fill="#fff"/>
<path d="m27 19.8c-13.1 10.7-25.9 31.5-26.3 48.4-.4 14 1.3 25.1 13 39.5 9.1 11.2 22.5 14.7 26.8 15.8 9.7 2.3 40.4 4.3 56.5-7.6" fill="none"/>
<path d="m50.9 34.4c-4.1 2.8-5.8 5.9-6.2 8.1-.6 3.6-.9 8.2-.9 11.9 0 11.6-.9 23.5 2 28.7 3.2 5.9 10.4 5.9 14 6 5.1.2 25.9.6 30.1-.5s5.9-2.2 7.9-6c1.4-2.7 2.1-8 2-11.1-.1-7.2.1-9.8-.2-17-.2-3.6.4-9.6-.9-12.9-1.5-4-5-7.1-9.2-8-4.7-1-33.3-2.8-38.6.8z"/>
<circle cx="72" cy="61.2" r="13" fill="#fff"/>
<circle cx="88.6" cy="44.7" r="2" fill="#fff"/>
</g>
</svg>
