<?xml version="1.0" encoding="utf-8"?>
<!-- Generator: Adobe Illustrator 21.0.2, SVG Export Plug-In . SVG Version: 6.00 Build 0)  -->
<svg version="1.1" xmlns="http://www.w3.org/2000/svg" xmlns:xlink="http://www.w3.org/1999/xlink" x="0px" y="0px"
	 viewBox="0 0 100.3 195.8" style="enable-background:new 0 0 100.3 195.8;" xml:space="preserve">
<style type="text/css">
	.st0{fill:#FFFFFF;stroke:#0D0E0F;stroke-linecap:round;stroke-linejoin:round;stroke-miterlimit:10;}
	.st1{fill:none;stroke:#0D0E0F;stroke-linecap:round;stroke-linejoin:round;stroke-miterlimit:10;}
	.st2{fill:#FFFFFF;stroke:#0D0E0F;stroke-miterlimit:10;}
	.st3{fill:none;stroke:#0D0E0F;stroke-miterlimit:10;}
	.st4{fill:#F4C944;stroke:#0D0E0F;stroke-width:2;stroke-linecap:round;stroke-linejoin:round;stroke-miterlimit:10;}
	.st5{fill:none;stroke:#0D0E0F;stroke-width:2;stroke-linecap:round;stroke-linejoin:round;stroke-miterlimit:10;}
	.st6{fill:#FFFFFF;stroke:#0D0E0F;stroke-width:2;stroke-miterlimit:10;}
	.st7{stroke:#0D0E0F;stroke-width:2;stroke-miterlimit:10;}
	.st8{fill:none;stroke:#0D0E0F;stroke-width:2;stroke-miterlimit:10;}
	.st9{fill:#FFFFFF;stroke:#0D0E0F;stroke-width:3;stroke-miterlimit:10;}
	.st10{fill:none;stroke:#0D0E0F;stroke-width:3;stroke-miterlimit:10;}
</style>
<g id="Слой_1">
</g>
<g id="Слой_2">
</g>
<g id="Слой_3">
	<g>
		<path class="st0" d="M692-595.4c0,0-11.2,1-11.2-8.2c0-7.2,10.2-6.8,10.2-6.8s1-9.7,12-8.5c0,0,4.5-17.6,23.7-9
			c0,0,7.4-10.5,25.9-2.9c5.8,2.4,6.9,11.6,6.9,11.6s6.9-2.1,8.9,5.1c0,0,7.9-1.2,9,9.3c0,0,0.1,2.9-3.7,6.8c0,0,1.8,8.6-6.6,11.3
			c-6.3,1.9-9.5-1.5-9.5-1.5s-13,15.3-26.8,0.4c0,0-14.4,9.3-22.9-4.4C707.9-592.4,697.8-587,692-595.4z"/>
		<path class="st1" d="M707.9-592.4"/>
		<path class="st1" d="M707.9-592.4c0,0,4.1-3.9,4.8-5.6"/>
		<path class="st1" d="M691-610.4c0,0,2.6,1.4,3.3,2"/>
		<path class="st1" d="M703-618.9c0,0,5.4,0.1,6.9,3"/>
		<path class="st1" d="M726.7-627.9c0,0,3,1.4,3.1,2.1"/>
		<path class="st1" d="M759.5-619.2c0,0,1.2,8.2-3.6,11.7"/>
		<path class="st1" d="M773.7-598.1c0,0-5.3,1.9-7.8,0.2"/>
	</g>
	<g>
		<path class="st0" d="M629.1-386.6c0,0,0-10.5,11.3-7.3c0,0,2.8-5.9,8.3-2c0,0,3.1-10,12.8-4.9c0,0,1.6-9.2,9.9-7.1
			c0,0,10.3-24.3,29.9-8.6c0,0,11.1-5.9,17,5.5c0,0,2.4,6.5,0.8,9.8c0,0,9-3.5,10.8,4.4c0,0,8.4-4,12.4,3.1c0,0,12.9-13.8,20,3.4
			c0,0,3.5-0.9,4.3,2.8c0,0,8.1-8.2,12.9,2.9c0,0,5.3-5.8,9.6,1c0,0,4.1-2.6,6.6,1.9c0,0,9.4-6.5,9.3,1.3s-7.1,3.6-7.1,3.6
			s-4.8,3.8-8.1,0.1c0,0-6.6,6.4-11.8-0.8c0,0-6.9,6.3-12.6-0.3c0,0-6,5.3-9.9,0.4c0,0-9.9,7-15.6-0.4c0,0-7.3,7-15.7-0.3
			c0,0-9,3.8-15.8-4c0,0-15.6,10.7-24.7-1c0,0-5.1,8.5-14.6,2.1c0,0-8.5,10.4-16.7-1.1c0,0-12.3,6.3-17,0.1c0,0-4.1,8.5-9.5,0.9
			C621.5-387,629.1-386.6,629.1-386.6z"/>
		<path class="st1" d="M729.6-396.9c0,0,0.4,2.7,0,3.1"/>
		<line class="st1" x1="742" y1="-393.8" x2="741.5" y2="-391.1"/>
		<path class="st1" d="M762-390.4c0,0,0.1,2.6-0.6,3.5"/>
		<path class="st1" d="M755.2-377.5c0,0,2.5-1,3-2.3"/>
		<path class="st1" d="M708.1-382.2c0,0,3.1-1.4,3.7-2.6"/>
		<path class="st1" d="M683.4-383.2c0,0-1.3-2.9-1.1-4.6"/>
		<path class="st1" d="M668.8-381.1c0,0-1.3-0.5-1.8-1.6"/>
		<path class="st1" d="M661.4-400.8c0,0,1.4,2.5,2.7,3.3"/>
		<path class="st1" d="M671.3-407.9c0,0-1.1,6.4,4.5,7.7"/>
		<path class="st0" d="M808.3-383.2"/>
		<path class="st0" d="M813.3-386.9c3.5-0.4,5,2.8,4.5,3.7c-0.5,0.9-3.8,2.6-6.7,1.3C808.3-383.2,807-386.2,813.3-386.9z"/>
	</g>
	<g>
		<path class="st0" d="M466.1-385c0,0-6.1-12.6,13-16c0,0,1-6.9,7.9-4.8c0,0,5.1-11,18.4-9.8s18.4,12.9,18.4,12.9s13.4-7.9,22.4,2.3
			c4.4,5,2.8,13.5,2.8,13.5s10.9,0.3,6.8,13.1c0,0,7.7,3.9,4.9,9.5s-7.9,4.8-10.9,2.2c0,0-17.7,11.4-27.9-0.2c0,0-19.3,9.7-27.3-1.3
			c0,0-15.7,9.6-22.8-0.5c0,0-14.6,5.2-15.3-9.5C456.1-382.9,466.1-385,466.1-385z"/>
		<path class="st1" d="M555.8-373.8c0,0-2.5,4.8-6.5,2.3"/>
		<path class="st1" d="M548.9-386.8c0,0-1.2,3-3,3.8"/>
		<path class="st1" d="M523.8-402.6c0,0-1.3,1.3-2,2.4"/>
		<path class="st1" d="M487-405.8c0,0-0.6,2-0.6,3.1"/>
		<path class="st1" d="M479.1-401c0,0,5.4-0.5,6.3,0.8"/>
		<path class="st1" d="M466.1-385c0,0,2.4-0.8,4,1"/>
		<path class="st1" d="M471.9-364.1c0,0,1.6-0.8,2.1-1.4"/>
		<path class="st1" d="M521.9-362.3c0,0,0.9-0.2,1.9-1.8"/>
		<path class="st1" d="M549.8-362.1c0,0,1.9-1.9,2.1-2.7"/>
	</g>
	<g>
		<path class="st0" d="M-313.3-193.4c0,0-11.2,1-11.2-8.2c0-7.2,10.2-6.8,10.2-6.8s1-9.7,12-8.5c0,0,4.5-17.6,23.7-9
			c0,0,7.4-10.5,25.9-2.9c5.8,2.4,6.9,11.6,6.9,11.6s6.9-2.1,8.9,5.1c0,0,7.9-1.2,9,9.3c0,0,0.1,2.9-3.7,6.8c0,0,1.8,8.6-6.6,11.3
			c-6.3,1.9-9.5-1.5-9.5-1.5s-13,15.3-26.7,0.4c0,0-14.4,9.3-22.9-4.4C-297.3-190.4-307.5-184.9-313.3-193.4z"/>
		<path class="st1" d="M-297.3-190.4"/>
		<path class="st1" d="M-297.3-190.4c0,0,4.1-3.9,4.8-5.6"/>
		<path class="st1" d="M-314.3-208.4c0,0,2.6,1.4,3.3,2"/>
		<path class="st1" d="M-302.3-216.9c0,0,5.4,0.1,6.9,3"/>
		<path class="st1" d="M-278.6-225.8c0,0,3,1.4,3.1,2.1"/>
		<path class="st1" d="M-245.8-217.1c0,0,1.2,8.2-3.6,11.7"/>
		<path class="st1" d="M-231.6-196.1c0,0-5.3,1.9-7.8,0.2"/>
	</g>
	<g>
		<path class="st0" d="M-178.8-190.4c0,0,0-10.5,11.3-7.3c0,0,2.8-5.9,8.3-2c0,0,3.1-10,12.8-4.9c0,0,1.6-9.2,9.9-7.1
			c0,0,10.3-24.3,29.9-8.6c0,0,11.1-5.9,17,5.5c0,0,2.4,6.5,0.8,9.8c0,0,9-3.5,10.8,4.4c0,0,8.4-4,12.4,3.1c0,0,12.9-13.8,20,3.4
			c0,0,3.5-0.9,4.3,2.8c0,0,8.1-8.2,12.9,2.9c0,0,5.3-5.8,9.6,1c0,0,4.1-2.6,6.6,1.9c0,0,9.4-6.5,9.3,1.3s-7.1,3.6-7.1,3.6
			s-4.8,3.8-8.1,0.1c0,0-6.6,6.4-11.8-0.8c0,0-6.9,6.3-12.6-0.3c0,0-6,5.3-9.9,0.4c0,0-9.9,7-15.6-0.4c0,0-7.3,7-15.7-0.3
			c0,0-9,3.8-15.8-4c0,0-15.6,10.7-24.7-1c0,0-5.1,8.5-14.6,2.1c0,0-8.5,10.4-16.7-1.1c0,0-12.3,6.3-17,0.1c0,0-4.1,8.5-9.5,0.9
			C-186.4-190.8-178.8-190.4-178.8-190.4z"/>
		<path class="st1" d="M-78.3-200.7c0,0,0.4,2.7,0,3.1"/>
		<line class="st1" x1="-65.9" y1="-197.6" x2="-66.4" y2="-194.9"/>
		<path class="st1" d="M-45.9-194.2c0,0,0.1,2.6-0.6,3.5"/>
		<path class="st1" d="M-52.7-181.3c0,0,2.5-1,3-2.3"/>
		<path class="st1" d="M-99.8-186c0,0,3.1-1.4,3.7-2.6"/>
		<path class="st1" d="M-124.5-187c0,0-1.3-2.9-1.1-4.6"/>
		<path class="st1" d="M-139.1-184.9c0,0-1.3-0.5-1.8-1.6"/>
		<path class="st1" d="M-146.5-204.6c0,0,1.4,2.5,2.7,3.3"/>
		<path class="st1" d="M-136.7-211.7c0,0-1.1,6.4,4.5,7.7"/>
		<path class="st0" d="M0.4-187"/>
		<path class="st0" d="M5.4-190.7c3.5-0.4,5,2.8,4.5,3.7c-0.5,0.9-3.8,2.6-6.7,1.3C0.4-187-0.9-190,5.4-190.7z"/>
	</g>
	<g>
		<path class="st0" d="M-450.3-208.9c0,0-6.1-12.6,13-16c0,0,1-6.9,7.9-4.8c0,0,5.1-11,18.4-9.8s18.4,12.9,18.4,12.9
			s13.4-7.9,22.4,2.3c4.4,5,2.8,13.5,2.8,13.5s10.9,0.3,6.8,13.1c0,0,7.7,3.9,4.9,9.5s-7.9,4.8-10.9,2.2c0,0-17.7,11.4-27.9-0.2
			c0,0-19.3,9.7-27.3-1.3c0,0-15.7,9.6-22.8-0.5c0,0-14.6,5.2-15.3-9.5C-460.3-206.8-450.3-208.9-450.3-208.9z"/>
		<path class="st1" d="M-360.7-197.6c0,0-2.5,4.8-6.5,2.3"/>
		<path class="st1" d="M-367.5-210.7c0,0-1.2,3-3,3.8"/>
		<path class="st1" d="M-392.7-226.5c0,0-1.3,1.3-2,2.4"/>
		<path class="st1" d="M-429.5-229.6c0,0-0.6,2-0.6,3.1"/>
		<path class="st1" d="M-437.3-224.9c0,0,5.4-0.5,6.3,0.8"/>
		<path class="st1" d="M-450.3-208.9c0,0,2.4-0.8,4,1"/>
		<path class="st1" d="M-444.6-188c0,0,1.6-0.8,2.1-1.4"/>
		<path class="st1" d="M-394.6-186.2c0,0,0.9-0.2,1.9-1.8"/>
		<path class="st1" d="M-366.7-185.9c0,0,1.9-1.9,2.1-2.7"/>
	</g>
	<g>
		<path class="st2" d="M-249.4-96.2c0,0,14.2,12.8,34-3.5s25.9-32.6,46.3-31.3c13.5,0.8,16.8,14.5,16.8,14.5s2.3-14.6,20.2-14.6
			s28.7,22.2,39.3,29.1s19.8,16.3,37.7,6c0,0-8.5,17-26.2,18.5s-50,3.7-71-29.2c0,0-19.3,31.3-45.3,31.3S-231.2-76-249.4-96.2z"/>
		<path class="st3" d="M-152.2-116.5"/>
		<path class="st3" d="M-161.7-94.5c10.5-11.2,9.8-20.8,9.5-22c0,0,0,14.6,8.2,20.4"/>
		<path class="st3" d="M-249.4-96.2c0.6,0.5,1.1,1,1.7,1.4c10.5,7.8,22.7,3.7,33.6,1.8c11.5-2,32.8-27,45-31.5
			c12.2-4.5,16.8,8,16.8,8v9.8"/>
		<path class="st3" d="M-245.8-92.9c9.5,8.4,33.1,3.9,33.1,3.9c14.7-1.1,43.5-25.9,43.5-25.9c11.3-6.8,17-1.5,17-1.5s3.6,1.3-18,14
			s-57.4,27.6-74.6,11.2"/>
		<path class="st3" d="M-152-113.1c0,0-23.1,31.5-45.6,32.6s-32.8,1.2-41.1-5.1"/>
		<path class="st3" d="M-55.9-94.5c-29.3,24.8-47.7,14.8-70.7,5.5s-25.7-27.4-25.7-27.4s3.3-10,11.8-9c8.5,1,11,0.8,19.3,7.8
			c0,0,33.8,43.3,66,21.7"/>
		<path class="st3" d="M-57.3-92.4c-5.5,2.6-10.9,4.5-16,5.8c-47.7,11.8-78.9-30-78.9-30s9.3-6.8,22.3,4.9s45,37.2,73,18"/>
	</g>
	<g>
		<path class="st2" d="M-282.4,21.8c0,0,5.3-6.5-0.8-20s-4.5-19.5-5.3-21.5s-10.3-20.8-19.3-22.3s-10,1.5-10,1.5s-12.8-24.3-35-40.3
			s-30.1-16.9-30.1-16.9s-1-6-7.9-7.8c0,0,11.8-5.9,9-12.8c0,0-7.5,3.8-8.3,4.6s-6.5,3.9-6.5,3.9s5.9-14.5,3.3-16.6
			s-3.3-0.9-3.3-0.9s3.9-14.6,1.1-15.3s-8.8,8.5-8.8,8.5s-3.6-17.6-8.6-18.5s-8.4,18.9-8.4,18.9s-1.6-13.4-5.4-14.1
			s-6.5,11.8-6.5,11.8s-10.8-15.3-16.5-11.4s3,17.6,3,17.6s-18.5-3.5-19.4,3.9s6.9,10.9,6.9,10.9s-4.3-0.3-4.6,2.4s1.5,4.5,1.5,4.5
			s-5.6,1-4.5,3.4s5.9,6,11.6,7c0,0-9.6,6.1-8.3,9.1s11.6,2.4,13.9,0c0,0-7.3,7.8-2.5,10.8s17.4-9.3,17.4-9.3s-3.6,7.8-1.3,8.6
			s2.8,0.1,2.8,0.1s-9.5,11.8-11.3,21.6s-5,26.5-2.4,45.4s9.1,29.9,12.6,36.5c0,0-4.9,3.6-3.9,9.4s0,8,6,16.3s13.6,18.4,16.4,20.1
			s8.5,7.1,15.5,6.9s16.3-2.8,21.3-3.8s10.4-1.5,15.1-2.7c4.7-1.2,15.2-7.3,26.8-12.3C-325.1,54.1-290.3,34.6-282.4,21.8z"/>
		<path class="st3" d="M-304.3-13.4c0.8,2.5,3.3,5.4,4.8,7.6c1.9,2.8,3.1,4.6,3.8,8c1.2,5.6,0.7,11,3.2,16.5c1.6,3.5,3.7,5.5,6,8.5"
			/>
		<path class="st3" d="M-297.5,35.9c-1.8-2.4-3.1-5.4-4.5-8c-1.4-2.6-2.3-5.4-3.2-8.3c-0.9-2.9-1.7-5.7-2-8.7
			c-0.3-2.6-0.6-5.3-1.6-7.7c-1.4-3.3-3.3-6.3-5.9-8.8"/>
		<path class="st3" d="M-312.7,46.2c-0.4-0.6-5.7-7.6-6.1-10.3c-0.3-2.7,0-20-11.3-31"/>
		<path class="st3" d="M-324.2,52.8c-0.6-0.5-6.8-4-8.4-10.5s-3.3-18.8-11.7-27.1"/>
		<path class="st3" d="M-340.8,60.9c-0.2,0.1-7.7-6.6-9.7-12.1s-7-17.2-9.3-20.8c-2.3-3.7-1.5-3.7-1.5-3.7"/>
		<path class="st3" d="M-357.4,68.9c-0.7-0.7-5.4-2.2-7.6-8c-2.2-5.8,0.5-3.8-7.7-12.3s-7-13.8-7-13.8"/>
		<path class="st3" d="M-375.5,73.5c-0.6,0.1-5-2.5-6.5-6.3s-1.3-9-3.7-12s-5.7-5-6.8-7.5c-1.2-2.5-2-7.7-2-7.7"/>
		<path class="st3" d="M-392.6,77c-0.7-0.6-5.5-3.1-7.9-7.3c-2.3-4.2-3.3-9.8-5-11.7c-1.7-1.8-7.5-8-8.8-11.2"/>
		<path class="st3" d="M-307.7-42c0,0,3.8,2.4,1.6,9.8c-2.2,7.3-4.7,13.2-12.5,18.8s-15,10.2-18.8,13.2c-3.8,3-19,15.4-28,19.2
			c-6.8,2.8-28.3,15.5-38,18.5c-9.7,3-23.5,9.2-34,0"/>
		<path class="st3" d="M-317.7-40.5c0,0,2.4,1.4,2.3,6.3c-0.2,4.8-12.2,19.7-18.8,24.8s-38.9,24.7-42.7,26.3
			c-3.8,1.7-33.5,14.7-38.5,16c-5,1.3-12.7,1.5-14.7-0.7s-3.8-7-3.8-7"/>
		<polyline class="st3" points="-327,-54.8 -326.1,-40.5 -322.9,-40.5 -322.9,-34.8 -327,-34.8 -327,-30.6 -334.2,-30.6 
			-334.2,-36.6 -360.1,-40.5 -365.4,-12.3 -359.9,-10.6 -361.6,-4.8 -366.6,-5.6 -367.8,-1.9 -372.6,-3.3 -371.4,-7.1 -399.6,-17.3 
			-408.4,9.1 -404.8,11.3 -407.3,16.8 -410.9,15.2 -412.6,18.3 -417.9,15.2 -416.6,12.6 -439.9,-0.9 -442.5,6.2 		"/>
		<path class="st3" d="M-446.6-11.3c0.8,0.5,4,2.5,4,2.5l2.1-6l5.8,3l-2.8,5.3l23.1,13.3l9-25.9l-6-2.3l1.8-6l7,2.5l2.5-7.7l5.5,2.3
			l-3,7.3l27.2,10l4.2-29.1l-9.4-1.8l0.8-5l9.9,2l0.7-9.7h5.3v10.5l26,2.8v-19"/>
		<path class="st3" d="M-382.8-97.6c0,0-3.8,3.5-15.3-3.1c0,0,7.7,11.7,4.8,13.2c-2.8,1.5-13.8-3-14.7-4.3c0,0,1.2,20.5-3.3,19.3
			c-4.5-1.2-6.5-9.6-6.7-14.1c0,0-4.5,14.4-8,12.9s-1.7-11.3-1.7-11.3l-5.3,6.8"/>
		<path class="st3" d="M-396.4-127.1c0,0-9.5,6.7-9.3,6.2c0.2-0.5-1-17.2-4.7-16.2c-3.7,1-9.8,12-9.8,12l-0.8-8.4"/>
		<path class="st3" d="M-452.6-130.4c-0.5,0-6.8,3.3-5.3,5.9c1.5,2.7,8,7.5,8,7.5s-9.5,2.2-8.2,6.2s3.2,4.8,3.2,4.8s-9.1,0.5-9,4.2"
			/>
		<path class="st3" d="M-368.6-91.2c0,0-18.6,38.4-72.4,25.6"/>
		<path class="st3" d="M-361.8-87c0,0-28.2,47.6-81.6,27.3"/>
		<path class="st3" d="M-349.3-30.8c4.4,0,9.7,6,6.5,9.9c-4.5,5.4-11.9,0.7-11.5-5.5C-354-29.4-352.3-30.8-349.3-30.8"/>
		<path class="st3" d="M-392.4-5.1c4.4,0,9.7,6,6.5,9.9c-4.5,5.4-11.9,0.7-11.5-5.5C-397.2-3.7-395.4-5.1-392.4-5.1"/>
		<path class="st3" d="M-440.1,13.1c0.9-3.2,7.9-0.6,9.2,0.9c3.2,3.6-1.5,6.9-5.3,7.1"/>
	</g>
	<path class="st4" d="M-236.3-39.3c-0.8,14.6-0.6,29,0.9,43.4c0.6,5.5,1.1,11,1.6,16.5c0.2,1.8-0.5,6.1,0.8,7.5
		c4-3.9,10-5.5,15.2-7.7c7.2-3.1,14.4-6,21.6-9.1c5.5-2.3,10.7-5.1,16-7.7c3.5-1.8,5.7-5.2,9.2-6.9c-0.5-1.4-4.2-2.7-5.6-3.6
		c-2.2-1.4-4.5-2.3-6.8-3.4c-5-2.5-10-4.7-15-7.3c-5.2-2.7-11.3-4.6-16.2-7.7c-3.8-2.4-7.5-5.1-11.2-7.6c-1.8-1.2-3.5-2.5-5.1-3.9
		c-1.3-1.1-2.7-2.9-4.3-3.5"/>
	<path class="st5" d="M-227.8-30.8c-2.9,3.5-5.3,7.5-7.7,11.2"/>
	<path class="st5" d="M-218.3-22.1c-5.3,8.8-12.8,14.2-14.7,24.6"/>
	<path class="st5" d="M-205.6-12.4c-5.3,8.8-12.8,14.2-14.7,24.6"/>
	<path class="st5" d="M-210.5-16.5c-6.1,6.8-16.2,30-21.3,37.4"/>
	<path class="st5" d="M-197-14.8c-7.4,10.4-16.1,16.8-19.8,29.3"/>
	<path class="st5" d="M-189.5-7.5c-3.7,3.2-6.5,9.3-8.5,13.8"/>
	<path class="st5" d="M-224.5-24.6c-3.7,3.2-6.5,9.3-8.5,13.8"/>
</g>
<g id="Слой_6">
</g>
<g id="Слой_5">
	<g>
		<path class="st6" d="M-62.9,26.9c0,0,3.1-0.8,17.4,13.6s15.4,15.3,15,16.8s-10.9,17-19.3,22c-8.4,4.9-14.8,7.9-23.1,4.5
			c0,0-4.4-3.1-6.2-2.7c-1.8,0.4-3.4,1.1-5.4,3.1c-2,2-24.9,26.2-24.9,26.2s11.8,11.1,9.7,15.3s-10.8-2.3-18.8-10.6
			s-15.7-13-11.5-17.8c0,0,2.5-3.1,17,9.6c0,0,27.5-26.2,28-29.4c0.4-3.2-5.6-8.3-4.1-16s3.3-15.4,15.4-26.3S-62.9,26.9-62.9,26.9z"
			/>
		<path class="st6" d="M-62.9,26.9c0,0,10.8,21,32.1,30.9"/>
		<path class="st6" d="M-130.1,97.3c0,0,3.8,12.5,30,28.8"/>
		<path class="st6" d="M-109.5,110.3c-0.5,0.4-1.7,1.2-1.4,2.7"/>
		<path class="st6" d="M-113.1,106.9c0,0-1.3,1.7-2.7,1.5"/>
		<path class="st6" d="M-81.1,49.3c0,0-11.2,12.5,2.4,26.1s27.2,0.8,27.2,0.8S-58.2,65.1-65.3,60S-79.3,49.3-81.1,49.3z"/>
		<path class="st6" d="M-78.5,52.8c-1.3-0.1-2.7,0.8-4,1.2"/>
		<path class="st6" d="M-76.4,53.9c-2.6,0.3-5.1,1.5-7.7,1.8"/>
		<path class="st6" d="M-74.9,56.1c-2.9,0.7-6.2,0.8-9,2.2"/>
		<path class="st6" d="M-72.3,58.1c-2,0.2-4,0.8-6,1.2c-1.8,0.4-3.5,0.6-5.1,1.4"/>
		<path class="st6" d="M-69.6,60.5c-4.1,0.8-8.8,1-12.5,2.9"/>
		<path class="st6" d="M-67.3,62.6c-2.8,0.6-5.7,1.2-8.6,1.7c-2.2,0.4-5.3,0.5-7.2,1.7"/>
		<path class="st6" d="M-62.7,66c-2,0.5-4.3,0.8-6.4,1.2c-3,0.6-6.7,0.7-9.3,2.3c0.1,0,0.2,0.1,0.3,0.2"/>
		<path class="st6" d="M-57.6,68.7c-3.1-0.3-6.9,0.7-10,1c-2.4,0.3-4.9,0.6-7.2,1.3c-0.8,0.2-2.1,0.4-2.4,1.3"/>
		<path class="st6" d="M-56.6,72.3c-2.8-0.1-5.7,1-8.5,1.2c-3.4,0.3-7.9,0-11,1.5"/>
		<path class="st6" d="M-57.6,74.8c-2,0.1-4,1.2-5.9,1.6c-2,0.4-4.4,0.5-6.2,1.2"/>
		<path class="st6" d="M-54.6,76.7c-1.2,0.1-2.4,0.9-3.6,1.1c-2.1,0.4-4.2,0.6-6.2,1"/>
	</g>
	<g>
		<path class="st6" d="M-121.1,23.2c0,0,0.1,28.6,0,33.3c-0.1,5.6-6.9,10.7-9.5,14.7c-5.1,7.9-2,57.7-2,58.3c0,0.7,0,39.4,0,39.4
			s15.7,12,37,0c0,0,2-86.6,0-91.5s-2.4-6.6-6.1-10.5c-3.7-3.9-6.1-7.1-6.4-10.5c-0.3-3.4,0.3-22.5,0-25.4c-0.3-2.9,0.3-7.9,0.3-7.9
			S-115.2,19.3-121.1,23.2z"/>
		<path class="st6" d="M-119.4,22.3c0,0-0.8-5.2-0.8-5.3c0-0.1,1.9-1.1,3.4-1.2s4.5-1.5,6-0.9s2.3,2.2,2.3,2.2l-0.8,5.5L-119.4,22.3
			z"/>
		<path class="st6" d="M-121.1,51.9c0,0,2.8-1.8,6.7-1.1c3.9,0.7,6.2,0.3,6.2,0.3"/>
		<path class="st6" d="M-132.9,82.1c0,0,36.3,1.1,37.8-0.7"/>
		<path class="st6" d="M-129.7,83.7c0.1-0.1,0.1-0.1,0.1-0.1c-0.6,2-2.3,3.9-3.4,5.6"/>
		<path class="st6" d="M-122.8,84.4c-2.5,3.5-5.4,6.8-7.5,10.6"/>
		<path class="st6" d="M-119.6,85.8c-0.9,1-1.5,2.3-2.3,3.4c-1.8,2.7-3.8,5.5-5.2,8.5"/>
		<path class="st6" d="M-114.8,86.4c-0.8,0.6-1.5,1.5-2.2,2.3c-1.6,1.8-2.9,3.8-4.3,5.7c-3.2,4.5-6,9.1-8.6,13.9"/>
		<path class="st6" d="M-109.7,87.2c-1.4,0.9-2.6,2.4-3.7,3.6c-2.3,2.4-4.4,5.1-6.4,7.7c-2.4,3.2-4.8,6.5-7.1,9.8
			c-1.2,1.8-2.6,3.7-3.4,5.7"/>
		<path class="st6" d="M-101.8,87c-1.5,1.3-3.1,2.5-4.5,3.8c-2.2,2-4.3,4.2-6.3,6.5c-4.9,5.5-9.4,11.6-13.1,18"/>
		<path class="st6" d="M-99.7,94.9c-11.4,7.9-20.3,19.2-28,30.6"/>
		<path class="st6" d="M-99.1,100.5c-2.2,1.2-4.2,3.2-6,4.8c-3.5,3.2-6.9,6.5-10.1,10.2c-5.1,5.9-9.6,12.3-14.6,18.3"/>
		<path class="st6" d="M-101.9,110.2c-4.1,2.7-7.8,6.7-11.1,10.3c-5.1,5.6-9.8,11.7-14.1,18"/>
		<path class="st6" d="M-104.7,118.6c-3.4,3.6-7.1,7-10.6,10.6c-4.4,4.4-8.4,9.3-12.7,13.7"/>
		<path class="st6" d="M-101.5,122.6c-1.6,1.2-3,2.9-4.5,4.3c-3,3-6,6-9.1,9c-2.8,2.8-5.7,5.6-8.6,8.3c-1.2,1.1-2.4,2.6-3.8,3.3"/>
		<path class="st6" d="M-100.6,129.6c-8.7,8.8-17.8,17.2-26.4,26.1"/>
		<path class="st6" d="M-100.5,139.3c-0.8,0.5-1.5,1.2-2.3,1.8c-2.3,1.9-4.6,3.7-6.9,5.7c-5.9,5.2-11.7,10.4-17.2,16"/>
		<path class="st6" d="M-101.7,147.6c-5.2,4.3-10.4,8.6-15.5,12.9"/>
		<path class="st6" d="M-103.8,151.9c-4.2,3.3-8.2,6.7-12,10.4c-2.1,2-4.2,4.1-6.1,6.3c-0.8,0.8-1.5,2-2.5,2.5"/>
		<path class="st6" d="M-101.2,153.9c-3,2.3-5.7,4.9-8.3,7.7c-2.1,2.2-4.2,4.2-6.1,6.5c-0.7,0.9-1.5,2.2-2.4,2.9"/>
		<path class="st6" d="M-100.9,158.9c-0.9,1.6-2.8,2.9-4.1,4.2c-1.2,1.2-2.6,2.5-3.6,4c-0.3,0.4-0.6,0.8-0.6,1.4"/>
		<path class="st6" d="M-99.8,163.7c-2.2,2.1-4.6,4.6-6.2,7.2"/>
		<path class="st6" d="M-101.8,91.3c-2.3,3-5.5,5.5-7.9,8.4c-4.2,5-8.5,10-12.9,14.8"/>
		<path class="st6" d="M-106.7,87.9c-3,3-5.6,6.4-8.6,9.5"/>
		<path class="st6" d="M-98.9,102.7c-0.9,1.3-2.2,2.4-3.3,3.6c-3.2,3.5-6.7,6.8-9.7,10.5"/>
		<path class="st6" d="M-99.3,110.6c-1.1,1.1-2.1,2.3-3.2,3.5c-2.1,2.2-5.1,4.6-6.5,7.2"/>
		<path class="st6" d="M-129.8,154.7c0.5-2,3.1-4,4.3-5.6c2.8-3.5,5.7-6.5,9.1-9.4"/>
		<path class="st6" d="M-113.8,148c3.1-2.9,6.4-5.8,9.5-8.7"/>
		<path class="st6" d="M-124.5,165.4c3-4.4,6.8-8.1,10.5-11.8"/>
		<path class="st6" d="M-114.3,170.8c2-3,4.8-5.3,7.1-8.1"/>
		<path class="st6" d="M-118.6,18.2c0.4-0.5,0.9-0.9,1.3-1.3"/>
		<path class="st6" d="M-118.4,20.2c0.4-0.6,1-1.3,1.6-1.7"/>
		<path class="st6" d="M-115.7,18.1c0.4-0.6,1-0.8,1.5-1.3"/>
		<path class="st6" d="M-115.8,20.4c0.5-0.5,0.9-1,1.5-1.4"/>
		<path class="st6" d="M-112.9,18.4c0.2-0.2,0.4-0.4,0.6-0.5"/>
		<path class="st6" d="M-112.8,16.7c0.2-0.3,0.6-0.7,0.9-0.8"/>
		<path class="st6" d="M-111.1,18.8c0.3-0.5,0.8-1,1.3-1.3"/>
	</g>
	<g>
		<path class="st6" d="M17.2,56.4c0,0,3.4-6.1,5.7-23.5S29.2,1.2,49.6,1.2S73.2,14.7,74,17.3c0.8,2.6,2,7,2.7,11.4
			c0.8,4.4,1,12.1,2.7,17.6s2.2,7.7,5,13.7c2.7,6,11.6,23.5,13.2,35.1s2.6,17.5,0,31.3c-2.6,13.8-9.8,36.9-10.4,39.3
			c-0.7,2.3-4.1,19.1-3.8,22.2c0,0-18.8,7.5-33.9,6.6s-32.6-6.9-32.6-6.9s-1.3-13.4-3.5-21S3.6,133,3,130.3
			c-0.6-2.7-5.6-26,2.2-45.3c0,0,5-13.3,6.8-17S17.2,56.4,17.2,56.4z"/>
		<path class="st6" d="M61.1,8.4c6,1,8.3,8.4,9.3,13.5c0.3,1.5,0.7,3.2,0.7,4.7"/>
		<path class="st6" d="M50.2,10.7c0,0,16.4-0.3,16.4,19.2s-16.5,18-16.5,18s-15.8-1-16.5-18.6C32.8,11.7,49.1,10.6,50.2,10.7z"/>
		<path class="st6" d="M33.5,27.1c0,0,0.4-3.9,3.8-5.4c3.4-1.5,8.3-2.4,9.8-3.7s2.7-2.3,3.1-7.3c0,0-0.7,5.8,3.3,7.5
			s12.3,2.6,12.9,9"/>
		<path class="st6" d="M52.8,24c0,0,3.7-3.6,8.9,0.2"/>
		<path class="st6" d="M47.2,23.9c0,0-4-3.4-8.8,0.3"/>
		<path class="st6" d="M39.3,27.1c0,0,3.4-3.1,6.9,0"/>
		<path class="st6" d="M40.4,28.6c0,0,1.8,1.5,4.6,0"/>
		<path class="st6" d="M54,27.1c0,0,3.1-3.4,6.9,0"/>
		<path class="st6" d="M55.1,28.6c0,0,1.2,1.3,4.6,0"/>
		<circle class="st6" cx="42.7" cy="27.5" r="1.8"/>
		<circle class="st7" cx="42.7" cy="27.4" r="0.6"/>
		<circle class="st6" cx="57.4" cy="27.4" r="1.8"/>
		<circle class="st7" cx="57.5" cy="27.2" r="0.6"/>
		<path class="st6" d="M49.4,29c0,0.3-0.1,0.6-0.2,0.9c-0.1,0.3-0.2,0.5-0.3,0.8c-0.1,0.4-0.3,1-0.1,1.4c0.1,0.3,0.3,0.6,0.5,0.7"/>
		<path class="st6" d="M50.1,31.9c0.2,0,0.4-0.1,0.5,0.1c0.1,0.1,0.3,0.4,0.1,0.6"/>
		<path class="st6" d="M46,38.8c0.4,0.1,0.6,0.4,1,0.5c0.5,0.2,1,0.3,1.6,0.3c1.5,0.2,3,0.3,4.4-0.1c0.5-0.1,1.1-0.4,1.4-0.6"/>
		<path class="st6" d="M47.1,38.8c0.1-0.3,0.4-0.4,0.6-0.6c0.3-0.2,0.6-0.4,0.9-0.4c0.6,0,1.2,0.3,1.4,0.9c0-0.5,1.1-0.7,1.4-0.7
			c0.5,0,1.2,0.2,1.4,0.7c0,0,0,0-0.1,0"/>
		<path class="st6" d="M47.3,40.4c0.5,0.4,1.2,0.8,1.8,1c0.7,0.2,1.8,0.2,2.4-0.1c0.2-0.1,0.7-0.4,0.9-0.7"/>
		<path class="st6" d="M48.3,47.6c0,0-2,0.7-1.8,2.5s0.8,4.2,3.6,4.6c2.7,0.4,4-3.6,3.6-4.6c-0.4-1-0.4-1.8-1.6-2.2"/>
		<path class="st6" d="M49.6,47.8c0,0-1.3,1-0.9,3.8"/>
		<path class="st6" d="M50.8,47.9c0,0,1.1,2,0.5,3.7"/>
		<path class="st6" d="M46.5,50.7c0,0-3.4,0.3-7,5.8c-3.7,5.5-5.7,22.6-5.7,22.6s14.7-12.4,16.3-21.1c0,0,0,7,16.3,20.9
			c0,0-2.6-19.1-6.2-23.1c-3.6-4-4.7-4.2-6.5-5"/>
		<path class="st6" d="M47.1,52.5c0,0-6.3,4.8-9.3,15.3"/>
		<path class="st6" d="M37.8,71.4c0,0,8-8.6,10.9-17.3"/>
		<path class="st6" d="M51.7,54.3c0,0,2.1,7.9,10.4,16.8"/>
		<path class="st6" d="M53.2,52.6c0,0,5.9,3.9,9.3,15.5"/>
		<path class="st6" d="M72.3,35.5c0,0-1.2,11.9,8.2,26.9"/>
		<path class="st6" d="M8.4,76.6c0,0,19.2-6.9,29-15.3"/>
		<path class="st6" d="M62.7,61c0,0,10.7,8.9,29.2,15.5"/>
		<path class="st6" d="M6.3,82.1c0,0,1.2,7,5.5,14.2s5.3,10.5,4.8,14.8s0.3,5.7-3.9,12.1c-4.1,6.5-9.3,8.7-9.3,8.7"/>
		<path class="st6" d="M7.2,110c0,0,4.7,4.7,3.7,8"/>
		<path class="st6" d="M3.5,115.4c0,0,1.2,4.6,4.5,6.5"/>
		<path class="st6" d="M6.6,130c0,0,2.4,8.4,11.8,7.7c0,0,2.6,0,2.5-2.5c-0.1-2.5-1.9-8.1-1.9-8.4c0,0,3.4,2.7,3.6,1.6
			s-1.5-6-7.5-9.5"/>
		<path class="st6" d="M14.7,129.8c0,0,0.6,1.9,3.4,2.4"/>
		<path class="st6" d="M13.4,131.3c0,0,1.1,2.1,3.9,2.5"/>
		<path class="st6" d="M11.9,132.3c0,0.1,0.6,1.7,3.4,2.3"/>
		<path class="st6" d="M93.9,81.7c0,0-2.6,10.1-5.9,15.5s-6.3,11-3.5,20.2c2.9,9.3,12,14.2,12,14.2"/>
		<path class="st6" d="M93.2,109.9c0,0-3.2,1.6-3.9,8.2"/>
		<path class="st6" d="M92.2,121.9c0.2-0.1,2.3-0.3,4.4-6.3"/>
		<path class="st6" d="M85.1,118.9c0,0-6.7,4.2-7.4,8c-0.7,3.9,3.3,0,3.3,0s-1.6,5.5-1.8,6.9c-0.1,1.4-0.5,3.7,2.5,3.9
			c3,0.2,6.9-1.2,8.6-3.1s3.1-3.8,3.4-4.9"/>
		<path class="st6" d="M84.8,134.7c0.5-0.2,1.6,0,3.5-2.2"/>
		<path class="st6" d="M83,133.9c0,0,3.1-0.7,3.6-2.7"/>
		<path class="st6" d="M81.9,132c0.2,0,2.5-0.1,3.4-2"/>
		<path class="st6" d="M16.2,182.3c0,0,31.6,12.5,67.5,0"/>
		<path class="st6" d="M84.8,147.5c-0.4,0.4-6.7,15.1-7.1,31.5"/>
		<path class="st6" d="M17.7,76c-3.6,2.4-6.2,6.5-8.4,10.1"/>
		<path class="st6" d="M25.7,74.6c-2.6,3.1-5.3,6.2-7.8,9.5c-2.7,3.5-4.7,7.6-7.4,11.1"/>
		<path class="st6" d="M32.3,77.9c-2.7,2.3-4.5,6.1-6.5,8.9c-3.2,4.4-7.4,9.9-8.8,15.3"/>
		<path class="st6" d="M41.9,84c-3.4,2.7-6.1,6.4-8.8,9.7c-4.7,5.7-8.3,12.1-12.8,17.9"/>
		<path class="st6" d="M49,81.1c-9.6,11.1-18.4,23.6-25.6,36.4"/>
		<path class="st6" d="M64.2,81.8c-1.9,2-4.2,3.6-6.1,5.6c-3.9,4.1-7.5,8.4-11.3,12.6c-5.2,5.9-9.9,12.1-14.6,18.5
			c-2.4,3.3-5.1,7.1-6.6,10.9"/>
		<path class="st6" d="M76,82.1c-0.8,1.3-2.2,2.3-3.2,3.4c-3.1,3.2-6.2,6.5-9.3,9.7c-7.4,8.1-14.1,16.5-20.2,25.5"/>
		<path class="st6" d="M84.2,85.6c-5.4,5.4-10.3,11.2-15.7,16.6c-4.6,4.5-9.3,8.9-13.6,13.6c-2.6,2.9-6.6,6-8.3,9.6"/>
		<path class="st6" d="M35.6,124.6c-0.9,1.9-2.5,3.7-3.7,5.5c-1.8,2.8-3.6,5.7-5.3,8.6c-3,5.1-6.3,10-9.1,15.2"/>
		<path class="st6" d="M41.5,128.8c-3.9,5.9-8.5,11.4-12.4,17.4c-4.4,6.9-7.9,14.3-12.4,21.2"/>
		<path class="st6" d="M58.4,124.4c0.1-0.1,0.2-0.2,0.3-0.3"/>
		<path class="st6" d="M64.2,119c-1.2,1.8-3.1,3.4-4.6,5c-4.1,4.5-8.1,9.1-12,13.8c-5.4,6.4-10.5,13-15.5,19.7
			c-2.8,3.7-6.3,7.9-8.1,12.2"/>
		<path class="st6" d="M75.8,113.1c-5.9,7.1-12.1,14-17.7,21.3c-6.2,8-12,16.4-17.3,25c-3.1,4.9-5.8,10.2-9,15"/>
		<path class="st6" d="M73.2,130.3c-6.5,7.6-12.9,15.2-18.5,23.6c-4.5,6.7-8.7,13.8-12.5,20.9c-1.8,3.4-3.3,7.2-5.3,10.5"/>
		<path class="st6" d="M77.4,140.6c-4.3,4.3-7.7,9.9-11.2,14.8c-4.7,6.5-8.9,13.7-13.9,20"/>
		<path class="st6" d="M74.9,156.1c-2.8,3.2-4.8,7.4-7.3,10.9c-2.9,4-6.5,8.1-8.7,12.6"/>
		<path class="st6" d="M85,94.5c-4.6,3.8-8,9.4-11.8,13.9"/>
		<path class="st8" d="M48.3,70.4c-1.7,2.5-4.1,5.4-5.3,8.2"/>
		<path class="st8" d="M56.2,79.6c-5.5,7.9-11,16-16.8,23.7"/>
		<path class="st8" d="M20.8,139.4c-2.8,4.6-5.6,8.8-7.8,13.8"/>
		<path class="st8" d="M51.3,102.1c-4.2,5.6-9.8,10.2-13.8,16"/>
		<path class="st8" d="M69.3,127.1c-8.8,10.5-16.6,21.9-24.8,32.8"/>
		<path class="st8" d="M71.3,142.1c-3.2,5.1-7.5,9.5-10.7,14.7c-3.5,5.8-6.4,12-9.8,17.8"/>
		<path class="st8" d="M74.3,164.8c-2.8,5-5.8,10.7-7.5,16.2"/>
		<path class="st8" d="M68.2,108.1c-2.5,2.3-4.5,5.5-6.3,8.3"/>
		<path class="st8" d="M84.3,77.8c-1.1,0.7-1.9,1.6-2.6,2.7c-2.7,3.7-5.1,7.5-7.9,11.2"/>
	</g>
</g>
<g id="Слой_7">
	<g>
		<path class="st6" d="M-134.9,506.7c-0.3-0.7,0.5-7.6,1.3-9.9c0.8-2.3,3.3-6.1,6.3-8.1c0,0,2.5-3.8,5.8-15.5
			c3.3-11.7,8.9-25.4,7.1-40.1c-1.8-14.7-6.1-27.1-4.6-31.7c1.5-4.6,11.4-12.9,44.4-13.7c33-0.8,39.8,9.4,39.6,14.7
			c-0.3,5.3-6.1,30.4-3.3,44.7c2.8,14.3,8.4,35.7,13.2,41.7c0,0,5.6,1.5,6.6,7.6c1,6.1,0.5,11.4-2.3,14.7s-20.3,18.5-55.7,18.5
			S-129.8,520.4-134.9,506.7z"/>
		<path class="st8" d="M-118.9,401.4c0,0,28.1,30.4,83.9,1"/>
		<path class="st8" d="M-127.3,488.7c0,0-8.1,8.6-3,17c5.1,8.4,21.8,19.3,55.5,17.2c40.4-2.4,51-13.1,53.4-20
			c1.4-4-3.7-13.9-3.7-13.9"/>
		<path class="st8" d="M-134.3,499.8c0,0-2.4,28.2,59.4,27.2c42.1-0.6,56.6-21.2,56.7-21.8"/>
		<path class="st8" d="M-79.6,436.2c0,0,3.3-1.6,4.3,11.1c1,12.7-2.8,11.7-2.9,11.7s-4.5-1-4.1-11.4S-80.7,436.3-79.6,436.2z"/>
		<path class="st8" d="M-68.4,440c0,0,3.1,1.5-8.9,9.8c-12,8.3-12.7,4.9-12.8,4.8c-0.1-0.1-1.1-4,9.3-9.8S-69.1,439.4-68.4,440z"/>
		<path class="st8" d="M-67.7,451.5c0,0,0.6,3.4-13.2-1.2c-13.8-4.6-11.6-7.2-11.5-7.3s2.5-3.3,13.5,1.5S-67.5,450.6-67.7,451.5z"/>
		<circle class="st8" cx="-79.3" cy="447.5" r="0.8"/>
	</g>
	<g>
		<path class="st6" d="M-230.8,510.5c-0.3-0.9,0.6-9.2,1.5-11.9c0.9-2.8,4-7.3,7.6-9.8c0,0,3.1-4.6,7-18.6
			c4-14.1,10.7-30.6,8.6-48.3s-7.3-32.7-5.5-38.2c1.8-5.5,13.8-15.6,53.5-16.5s48,11.3,47.7,17.7s-7.3,36.6-4,53.9
			c3.4,17.3,10.1,43,15.9,50.3c0,0,6.7,1.8,7.9,9.2c1.2,7.3,0.6,13.8-2.8,17.7c-3.4,4-24.5,22.3-67.1,22.3S-224.7,527-230.8,510.5z"
			/>
		<path class="st8" d="M-211.6,383.6c0,0,33.9,36.7,101.2,1.2"/>
		<path class="st8" d="M-221.7,488.8c0,0-9.8,10.4-3.7,20.5c6.1,10.1,26.3,23.2,66.9,20.8c48.7-2.9,61.4-15.7,64.3-24.1
			c1.6-4.8-4.4-16.8-4.4-16.8"/>
		<path class="st8" d="M-230.1,502.1c0,0-2.9,33.9,71.5,32.8c50.7-0.8,68.2-25.6,68.3-26.2"/>
		<path class="st8" d="M-164.2,425.5c0,0,4-1.9,5.2,13.4s-3.3,14.1-3.5,14.1c-0.2,0-5.5-1.2-5-13.7
			C-166.9,426.7-165.5,425.7-164.2,425.5z"/>
		<path class="st8" d="M-150.7,430.1c0,0,3.7,1.8-10.8,11.8s-15.3,5.9-15.4,5.8c-0.1-0.1-1.3-4.8,11.2-11.9
			C-153.1,428.8-151.5,429.3-150.7,430.1z"/>
		<path class="st8" d="M-149.8,443.9c0,0,0.8,4.1-15.9-1.5c-16.7-5.5-13.9-8.7-13.9-8.8c0.1-0.1,3-3.9,16.2,1.8
			S-149.6,442.8-149.8,443.9z"/>
		<circle class="st8" cx="-163.8" cy="439.2" r="1"/>
	</g>
</g>
<g id="Слой_4">
	<path class="st9" d="M-246.2,229.4c0,0,26.5,8.9,33.5,92c0,0,3.5-2.5,4.4-15.3c0.8-12.8-0.8-38.8-11.8-59.3
		c-11-20.6-26.1-21.6-26.1-21.6V229.4z"/>
	<path class="st2" d="M2004.6-10l40.1,0.9c0,0,5.8-2,6.5-5.4s2-16.1-5.1-19.4c0,0-15.5-1.1-20.6-2.3s-13.1-1.5-17,0s-8.8,4-9.8,10.1
		S1998.1-16.5,2004.6-10z"/>
	<path class="st3" d="M1998.8-26c0,0,0.4,11.1,8.6,12.4s11.1-1.6,12.1-4.8s0.5-8.6-4.3-10.1s-9.1,1.7-9.5,5.4
		c-0.5,4.2,8.3,9.4,8.9,2c0,0-1.5-2.5-3.6-2"/>
	<path class="st3" d="M2019.1-9.7c0.3-0.6,8.9-6.8,7.9-15.1s-4.8-11.1-8.8-12.4"/>
	<path class="st3" d="M2032.8-9.1c-0.1-0.3,6.4-9.4,0-26"/>
	<path class="st3" d="M2037.6-9.1c-0.1-0.3,6.4-9.4,0-26"/>
	<g>
		<path class="st9" d="M-303.4,399.7c0,0-0.5-31.1-2.8-35.1l-15.3-134.3c0,0,0-4.8-0.1-6.1c0,0,2.8-48.8-4.3-69.5s-8.9-23-22.3-27.1
			c-13.4-4-35.1-4-42.7-3.3s-25.4,6.8-25.4,6.8s-13.8-0.3-26,37.1s-12.1,85.6-10.5,94.1c1.7,8.4,5.1,43.2,5.4,52.3
			s5.7,60.4,8.8,75.9c3,15.5,12.2,60.4,43.3,73.8c1.6,0.7,29.1,1.8,56.4-3.8c27.3-5.6,29.3-9.9,30.8-13.4s1-15.9,2.3-18
			S-303.4,399.7-303.4,399.7z M-307.7,351.3"/>
		<g>
			<path class="st9" d="M-438.1,186.6l116.5,7.7c0,0,3.2-6.9,8.4-14.5c11.2-16.3,5.4-43.4-13.8-52.1c0,0-41.7-3-55.5-6.1
				c-13.8-3-35.3-4-45.7,0c-10.4,4-27.5,10.2-30.2,26.7C-461,164.8-457.7,173.9-438.1,186.6z"/>
			<path class="st10" d="M-451.9,135.3c0,0-17,33.2,20.8,46.8c21.1,7.6,29.9-4.4,32.6-12.8c2.7-8.4,1.3-23.2-11.4-27.2
				c-12.8-4-24.4,4.5-25.6,14.5c-1.3,11.4,22.2,25.3,23.9,5.4c0,0-4-6.8-9.7-5.4"/>
			<path class="st10" d="M-396.6,189.9c0.7-1.5,20.9-15.4,18.3-37.7c-2.7-22.2-12.8-29.9-23.5-33.3"/>
			<path class="st10" d="M-362.9,194.2c-0.3-0.7,17.1-25.3,0-69.8"/>
			<path class="st10" d="M-349.8,194.2c-0.3-0.7,17.1-25.3,0-69.8"/>
		</g>
		<g>
			<path class="st9" d="M-422,299.2c0,0-0.8,72.2,7.9,83s22.1,13.3,33,15.3s30.4-5.4,30.4-5.4s4.3-2.5,6.1-9.5
				c1.8-7.1,0-121.5,0-121.5s1.4-3.3-4.4-6.2c-5.8-2.9-43.6-6.2-51.9-2.9c-8.3,3.3-29,39-28.2,43.6C-428.2,300-422,299.2-422,299.2z
				"/>
			<path class="st10" d="M-422,299.2c0,0,48.7,1.5,51-0.6c2.4-2.1,7-9.1,8.6-12.9c1.5-3.6,7.3-23.9,15.6-28.8"/>
			<path class="st10" d="M-395.6,250.8c-0.4,0.6-28.2,35.7-22.7,38.7c5.5,2.9,22.8,4.7,24.8,4.3c1.9-0.4,13.7-1.1,16.9-4.6
				c3.2-3.5,5.7-13.3,8.2-19.6c2.5-6.4,12.4-16.6,12.4-16.6"/>
			<path class="st9" d="M-393.8,268.2c0,0-7.6,1.7-9.8,7.9c-1.7,4.8-2.1,20.7-2.5,28.7c-0.1,2.3-0.2,4-0.4,4.6
				c-0.7,2.6-0.1,48.4,2.9,51.3s7.2,4.3,9.8,3.9c2.6-0.4,4.3-7.3,3.9-10c-0.4-2.6-1.4-42.2-1.4-44.5c0-2.4,0.8-19.4,1.4-26.7
				c0.6-7.3,2-12.6,0.6-14.1C-390.6,267.8-393.8,268.2-393.8,268.2z"/>
			<path class="st10" d="M-406.8,304.4c0.7,0.4,15.6,0.8,15.6,0.8"/>
			<path class="st9" d="M-368.5,295.8c0,0,4.6,84.5,2.9,88.7c-1.7,4.1-9,13.2-12.9,13.3"/>
		</g>
	</g>
	<path class="st9" d="M-321.6,230.3l2.4,20.6c0,0,51.9-1.4,61,48.9c0,0,3,25.6-10.8,34.4s-24.9,16.2-38.8,17.2l1.5,13.2
		c0,0,45.7-2.4,53.1-31.1c7.4-28.7,11.8-37.5-3-65.3C-256.2,268.1-270.2,234.3-321.6,230.3z"/>
</g>
</svg>
