<?xml version="1.0" encoding="utf-8"?>
<!-- Generator: Adobe Illustrator 21.0.2, SVG Export Plug-In . SVG Version: 6.00 Build 0)  -->
<svg version="1.1" xmlns="http://www.w3.org/2000/svg" xmlns:xlink="http://www.w3.org/1999/xlink" x="0px" y="0px"
	 viewBox="0 0 105.1 161.6" style="enable-background:new 0 0 105.1 161.6;" xml:space="preserve">
<style type="text/css">
	.st0{fill:#FFFFFF;stroke:#0D0E0F;stroke-linecap:round;stroke-linejoin:round;stroke-miterlimit:10;}
	.st1{fill:none;stroke:#0D0E0F;stroke-linecap:round;stroke-linejoin:round;stroke-miterlimit:10;}
	.st2{fill:#FFFFFF;stroke:#0D0E0F;stroke-miterlimit:10;}
	.st3{fill:none;stroke:#0D0E0F;stroke-miterlimit:10;}
	.st4{fill:#F4C944;stroke:#0D0E0F;stroke-width:2;stroke-linecap:round;stroke-linejoin:round;stroke-miterlimit:10;}
	.st5{fill:none;stroke:#0D0E0F;stroke-width:2;stroke-linecap:round;stroke-linejoin:round;stroke-miterlimit:10;}
	.st6{fill:#FFFFFF;stroke:#0D0E0F;stroke-width:2;stroke-miterlimit:10;}
	.st7{stroke:#0D0E0F;stroke-width:2;stroke-miterlimit:10;}
	.st8{fill:none;stroke:#0D0E0F;stroke-width:2;stroke-miterlimit:10;}
	.st9{fill:#FFFFFF;stroke:#0D0E0F;stroke-width:3;stroke-miterlimit:10;}
	.st10{fill:none;stroke:#0D0E0F;stroke-width:3;stroke-miterlimit:10;}
</style>
<g id="Слой_1">
</g>
<g id="Слой_2">
</g>
<g id="Слой_3">
	<g>
		<path class="st0" d="M826.5-609c0,0-11.2,1-11.2-8.2c0-7.2,10.2-6.8,10.2-6.8s1-9.7,12-8.5c0,0,4.5-17.6,23.7-9
			c0,0,7.4-10.5,25.9-2.9c5.8,2.4,6.9,11.6,6.9,11.6s6.9-2.1,8.9,5.1c0,0,7.9-1.2,9,9.3c0,0,0.1,2.9-3.7,6.8c0,0,1.8,8.6-6.6,11.3
			c-6.3,1.9-9.5-1.5-9.5-1.5s-13,15.3-26.8,0.4c0,0-14.4,9.3-22.9-4.4C842.4-606.1,832.3-600.6,826.5-609z"/>
		<path class="st1" d="M842.4-606.1"/>
		<path class="st1" d="M842.4-606.1c0,0,4.1-3.9,4.8-5.6"/>
		<path class="st1" d="M825.5-624c0,0,2.6,1.4,3.3,2"/>
		<path class="st1" d="M837.5-632.5c0,0,5.4,0.1,6.9,3"/>
		<path class="st1" d="M861.2-641.5c0,0,3,1.4,3.1,2.1"/>
		<path class="st1" d="M894-632.8c0,0,1.2,8.2-3.6,11.7"/>
		<path class="st1" d="M908.2-611.8c0,0-5.3,1.9-7.8,0.2"/>
	</g>
	<g>
		<path class="st0" d="M763.6-400.3c0,0,0-10.5,11.3-7.3c0,0,2.8-5.9,8.3-2c0,0,3.1-10,12.8-4.9c0,0,1.6-9.2,9.9-7.1
			c0,0,10.3-24.3,29.9-8.6c0,0,11.1-5.9,17,5.5c0,0,2.4,6.5,0.8,9.8c0,0,9-3.5,10.8,4.4c0,0,8.4-4,12.4,3.1c0,0,12.9-13.8,20,3.4
			c0,0,3.5-0.9,4.3,2.8c0,0,8.1-8.2,12.9,2.9c0,0,5.3-5.8,9.6,1c0,0,4.1-2.6,6.6,1.9c0,0,9.4-6.5,9.3,1.3s-7.1,3.6-7.1,3.6
			s-4.8,3.8-8.1,0.1c0,0-6.6,6.4-11.8-0.8c0,0-6.9,6.3-12.6-0.3c0,0-6,5.3-9.9,0.4c0,0-9.9,7-15.6-0.4c0,0-7.3,7-15.7-0.3
			c0,0-9,3.8-15.8-4c0,0-15.6,10.7-24.7-1c0,0-5.1,8.5-14.6,2.1c0,0-8.5,10.4-16.7-1.1c0,0-12.3,6.3-17,0.1c0,0-4.1,8.5-9.5,0.9
			C756-400.6,763.6-400.3,763.6-400.3z"/>
		<path class="st1" d="M864.1-410.5c0,0,0.4,2.7,0,3.1"/>
		<line class="st1" x1="876.5" y1="-407.4" x2="876" y2="-404.7"/>
		<path class="st1" d="M896.5-404c0,0,0.1,2.6-0.6,3.5"/>
		<path class="st1" d="M889.7-391.1c0,0,2.5-1,3-2.3"/>
		<path class="st1" d="M842.6-395.8c0,0,3.1-1.4,3.7-2.6"/>
		<path class="st1" d="M817.9-396.8c0,0-1.3-2.9-1.1-4.6"/>
		<path class="st1" d="M803.3-394.7c0,0-1.3-0.5-1.8-1.6"/>
		<path class="st1" d="M795.9-414.4c0,0,1.4,2.5,2.7,3.3"/>
		<path class="st1" d="M805.8-421.5c0,0-1.1,6.4,4.5,7.7"/>
		<path class="st0" d="M942.8-396.8"/>
		<path class="st0" d="M947.8-400.5c3.5-0.4,5,2.8,4.5,3.7c-0.5,0.9-3.8,2.6-6.7,1.3C942.8-396.8,941.5-399.8,947.8-400.5z"/>
	</g>
	<g>
		<path class="st0" d="M600.6-398.6c0,0-6.1-12.6,13-16c0,0,1-6.9,7.9-4.8c0,0,5.1-11,18.4-9.8s18.4,12.9,18.4,12.9
			s13.4-7.9,22.4,2.3c4.4,5,2.8,13.5,2.8,13.5s10.9,0.3,6.8,13.1c0,0,7.7,3.9,4.9,9.5s-7.9,4.8-10.9,2.2c0,0-17.7,11.4-27.9-0.2
			c0,0-19.3,9.7-27.3-1.3c0,0-15.7,9.6-22.8-0.5c0,0-14.6,5.2-15.3-9.5C590.6-396.6,600.6-398.6,600.6-398.6z"/>
		<path class="st1" d="M690.3-387.4c0,0-2.5,4.8-6.5,2.3"/>
		<path class="st1" d="M683.4-400.5c0,0-1.2,3-3,3.8"/>
		<path class="st1" d="M658.3-416.3c0,0-1.3,1.3-2,2.4"/>
		<path class="st1" d="M621.5-419.4c0,0-0.6,2-0.6,3.1"/>
		<path class="st1" d="M613.6-414.6c0,0,5.4-0.5,6.3,0.8"/>
		<path class="st1" d="M600.6-398.6c0,0,2.4-0.8,4,1"/>
		<path class="st1" d="M606.4-377.8c0,0,1.6-0.8,2.1-1.4"/>
		<path class="st1" d="M656.4-375.9c0,0,0.9-0.2,1.9-1.8"/>
		<path class="st1" d="M684.3-375.7c0,0,1.9-1.9,2.1-2.7"/>
	</g>
	<g>
		<path class="st0" d="M-178.8-207c0,0-11.2,1-11.2-8.2c0-7.2,10.2-6.8,10.2-6.8s1-9.7,12-8.5c0,0,4.5-17.6,23.7-9
			c0,0,7.4-10.5,25.9-2.9c5.8,2.4,6.9,11.6,6.9,11.6s6.9-2.1,8.9,5.1c0,0,7.9-1.2,9,9.3c0,0,0.1,2.9-3.7,6.8c0,0,1.8,8.6-6.6,11.3
			c-6.3,1.9-9.5-1.5-9.5-1.5s-13,15.3-26.8,0.4c0,0-14.4,9.3-22.9-4.4C-162.8-204-173-198.5-178.8-207z"/>
		<path class="st1" d="M-162.8-204"/>
		<path class="st1" d="M-162.8-204c0,0,4.1-3.9,4.8-5.6"/>
		<path class="st1" d="M-179.8-222c0,0,2.6,1.4,3.3,2"/>
		<path class="st1" d="M-167.8-230.5c0,0,5.4,0.1,6.9,3"/>
		<path class="st1" d="M-144.1-239.5c0,0,3,1.4,3.1,2.1"/>
		<path class="st1" d="M-111.3-230.8c0,0,1.2,8.2-3.6,11.7"/>
		<path class="st1" d="M-97.1-209.7c0,0-5.3,1.9-7.8,0.2"/>
	</g>
	<g>
		<path class="st0" d="M-44.3-204.1c0,0,0-10.5,11.3-7.3c0,0,2.7-5.9,8.2-2c0,0,3.1-10,12.8-4.9c0,0,1.6-9.2,9.9-7.1
			c0,0,10.3-24.3,29.9-8.6c0,0,11.1-5.9,17,5.5c0,0,2.4,6.5,0.8,9.8c0,0,9-3.5,10.8,4.4c0,0,8.4-4,12.4,3.1c0,0,12.9-13.8,20,3.4
			c0,0,3.5-0.9,4.3,2.8c0,0,8.1-8.2,12.9,2.9c0,0,5.3-5.8,9.6,1c0,0,4.1-2.6,6.6,1.9c0,0,9.4-6.5,9.2,1.3s-7.1,3.6-7.1,3.6
			s-4.8,3.8-8.1,0.1c0,0-6.6,6.4-11.8-0.8c0,0-6.9,6.3-12.6-0.3c0,0-6,5.3-9.9,0.4c0,0-9.9,7-15.6-0.4c0,0-7.3,7-15.7-0.3
			c0,0-9,3.8-15.8-4c0,0-15.6,10.7-24.7-1c0,0-5.1,8.5-14.6,2.1c0,0-8.5,10.4-16.7-1.1c0,0-12.3,6.3-17,0.1c0,0-4.1,8.5-9.5,0.9
			C-51.9-204.4-44.3-204.1-44.3-204.1z"/>
		<path class="st1" d="M56.2-214.3c0,0,0.4,2.7,0,3.1"/>
		<line class="st1" x1="68.6" y1="-211.2" x2="68.1" y2="-208.5"/>
		<path class="st1" d="M88.6-207.8c0,0,0.1,2.6-0.6,3.5"/>
		<path class="st1" d="M81.8-194.9c0,0,2.5-1,3-2.3"/>
		<path class="st1" d="M34.7-199.6c0,0,3.1-1.4,3.7-2.6"/>
		<path class="st1" d="M10-200.6c0,0-1.3-2.9-1.1-4.6"/>
		<path class="st1" d="M-4.6-198.5c0,0-1.3-0.5-1.8-1.6"/>
		<path class="st1" d="M-12-218.2c0,0,1.4,2.5,2.7,3.3"/>
		<path class="st1" d="M-2.2-225.3c0,0-1.1,6.4,4.5,7.7"/>
		<path class="st0" d="M134.9-200.6"/>
		<path class="st0" d="M139.9-204.3c3.5-0.4,5,2.8,4.5,3.7c-0.5,0.9-3.8,2.6-6.7,1.3C134.9-200.6,133.6-203.6,139.9-204.3z"/>
	</g>
	<g>
		<path class="st0" d="M-315.8-222.5c0,0-6.1-12.6,13-16c0,0,1-6.9,7.9-4.8c0,0,5.1-11,18.4-9.8s18.4,12.9,18.4,12.9
			s13.4-7.9,22.4,2.3c4.4,5,2.8,13.5,2.8,13.5s10.9,0.3,6.8,13.1c0,0,7.7,3.9,4.9,9.5s-7.9,4.8-10.9,2.2c0,0-17.7,11.4-27.9-0.2
			c0,0-19.3,9.7-27.3-1.3c0,0-15.7,9.6-22.8-0.5c0,0-14.6,5.2-15.3-9.5C-325.8-220.4-315.8-222.5-315.8-222.5z"/>
		<path class="st1" d="M-226.2-211.2c0,0-2.5,4.8-6.5,2.3"/>
		<path class="st1" d="M-233-224.3c0,0-1.2,3-3,3.8"/>
		<path class="st1" d="M-258.2-240.1c0,0-1.3,1.3-2,2.4"/>
		<path class="st1" d="M-295-243.2c0,0-0.6,2-0.6,3.1"/>
		<path class="st1" d="M-302.8-238.5c0,0,5.4-0.5,6.3,0.8"/>
		<path class="st1" d="M-315.8-222.5c0,0,2.4-0.8,4,1"/>
		<path class="st1" d="M-310.1-201.6c0,0,1.6-0.8,2.1-1.4"/>
		<path class="st1" d="M-260.1-199.8c0,0,0.9-0.2,1.9-1.8"/>
		<path class="st1" d="M-232.2-199.6c0,0,1.9-1.9,2.1-2.7"/>
	</g>
	<g>
		<path class="st2" d="M-114.9-109.8c0,0,14.2,12.8,34-3.5s25.9-32.6,46.3-31.3c13.5,0.8,16.8,14.5,16.8,14.5s2.3-14.6,20.2-14.6
			s28.7,22.2,39.3,29.1s19.8,16.3,37.7,6c0,0-8.5,17-26.2,18.5s-50,3.7-71-29.2c0,0-19.3,31.3-45.3,31.3S-96.7-89.6-114.9-109.8z"/>
		<path class="st3" d="M-17.7-130.1"/>
		<path class="st3" d="M-27.2-108.1c10.5-11.2,9.8-20.8,9.5-22c0,0,0,14.6,8.2,20.4"/>
		<path class="st3" d="M-114.9-109.8c0.6,0.5,1.1,1,1.7,1.4c10.5,7.8,22.7,3.7,33.6,1.8c11.5-2,32.8-27,45-31.5s16.8,8,16.8,8v9.8"
			/>
		<path class="st3" d="M-111.3-106.5c9.5,8.4,33.1,3.9,33.1,3.9c14.7-1.1,43.5-25.9,43.5-25.9c11.3-6.8,17-1.5,17-1.5s3.6,1.3-18,14
			s-57.4,27.6-74.6,11.2"/>
		<path class="st3" d="M-17.5-126.8c0,0-23.1,31.5-45.6,32.6s-32.8,1.2-41.1-5.1"/>
		<path class="st3" d="M78.6-108.1c-29.3,24.8-47.7,14.8-70.7,5.5s-25.7-27.4-25.7-27.4s3.3-10,11.8-9c8.5,1,11,0.8,19.3,7.8
			c0,0,33.8,43.3,66,21.7"/>
		<path class="st3" d="M77.2-106c-5.5,2.6-10.9,4.5-16,5.8c-47.7,11.8-78.9-30-78.9-30s9.2-6.8,22.3,4.9s45,37.2,73,18"/>
	</g>
	<g>
		<path class="st2" d="M-147.9,8.1c0,0,5.3-6.5-0.8-20s-4.5-19.5-5.3-21.5s-10.3-20.8-19.3-22.3s-10,1.5-10,1.5s-12.8-24.3-35-40.3
			s-30.1-16.9-30.1-16.9s-1-6-7.9-7.8c0,0,11.8-5.9,9-12.8c0,0-7.5,3.8-8.3,4.6c-0.8,0.9-6.5,3.9-6.5,3.9s5.9-14.5,3.3-16.6
			s-3.3-0.9-3.3-0.9s3.9-14.6,1.1-15.3s-8.8,8.5-8.8,8.5s-3.6-17.6-8.6-18.5s-8.4,18.9-8.4,18.9s-1.6-13.4-5.4-14.1
			s-6.5,11.8-6.5,11.8s-10.8-15.3-16.5-11.4s3,17.6,3,17.6s-18.5-3.5-19.4,3.9s6.9,10.9,6.9,10.9s-4.3-0.3-4.6,2.4s1.5,4.5,1.5,4.5
			s-5.6,1-4.5,3.4s5.9,6,11.6,7c0,0-9.6,6.1-8.3,9.1s11.6,2.4,13.9,0c0,0-7.3,7.8-2.5,10.8s17.4-9.3,17.4-9.3s-3.6,7.8-1.3,8.6
			s2.8,0.1,2.8,0.1s-9.5,11.8-11.3,21.6s-5,26.5-2.4,45.4s9.1,29.9,12.6,36.5c0,0-4.9,3.6-3.9,9.4s0,8,6,16.3s13.6,18.4,16.4,20.1
			s8.5,7.1,15.5,6.9s16.3-2.8,21.3-3.8s10.4-1.5,15.1-2.7c4.7-1.2,15.2-7.3,26.8-12.3C-190.6,40.5-155.8,21-147.9,8.1z"/>
		<path class="st3" d="M-169.8-27c0.8,2.5,3.3,5.4,4.8,7.6c1.9,2.8,3.1,4.6,3.8,8c1.2,5.6,0.7,11,3.2,16.5c1.6,3.5,3.7,5.5,6,8.5"/>
		<path class="st3" d="M-163,22.3c-1.8-2.4-3.1-5.4-4.5-8c-1.4-2.6-2.3-5.4-3.2-8.3c-0.9-2.9-1.7-5.7-2-8.7
			c-0.3-2.6-0.6-5.3-1.6-7.7c-1.4-3.3-3.3-6.3-5.9-8.8"/>
		<path class="st3" d="M-178.2,32.6c-0.4-0.6-5.7-7.6-6.1-10.3c-0.3-2.7,0-20-11.3-31"/>
		<path class="st3" d="M-189.7,39.2c-0.6-0.5-6.8-4-8.4-10.5s-3.3-18.8-11.7-27.1"/>
		<path class="st3" d="M-206.3,47.3c-0.2,0.1-7.7-6.6-9.7-12.1s-7-17.2-9.3-20.8c-2.3-3.7-1.5-3.7-1.5-3.7"/>
		<path class="st3" d="M-222.9,55.3c-0.7-0.7-5.4-2.2-7.6-8c-2.2-5.8,0.5-3.8-7.7-12.3s-7-13.8-7-13.8"/>
		<path class="st3" d="M-241,59.9c-0.6,0.1-5-2.5-6.5-6.3s-1.3-9-3.7-12s-5.7-5-6.8-7.5c-1.2-2.5-2-7.7-2-7.7"/>
		<path class="st3" d="M-258.1,63.4c-0.7-0.6-5.5-3.1-7.9-7.3c-2.3-4.2-3.3-9.8-5-11.7c-1.7-1.8-7.5-8-8.8-11.2"/>
		<path class="st3" d="M-173.2-55.6c0,0,3.8,2.4,1.6,9.8c-2.2,7.3-4.7,13.2-12.5,18.8s-15,10.2-18.8,13.2c-3.8,3-19,15.4-28,19.2
			c-6.8,2.8-28.3,15.5-38,18.5c-9.7,3-23.5,9.2-34,0"/>
		<path class="st3" d="M-183.2-54.1c0,0,2.4,1.4,2.3,6.3c-0.2,4.8-12.2,19.7-18.8,24.8c-6.6,5.2-38.9,24.7-42.7,26.3
			c-3.8,1.7-33.5,14.7-38.5,16c-5,1.3-12.7,1.5-14.7-0.7s-3.8-7-3.8-7"/>
		<polyline class="st3" points="-192.5,-68.5 -191.6,-54.1 -188.4,-54.1 -188.4,-48.4 -192.5,-48.4 -192.5,-44.2 -199.7,-44.2 
			-199.7,-50.2 -225.6,-54.1 -230.9,-25.9 -225.4,-24.2 -227.1,-18.4 -232.1,-19.2 -233.3,-15.5 -238.1,-16.9 -236.9,-20.7 
			-265.1,-30.9 -273.9,-4.5 -270.3,-2.4 -272.8,3.1 -276.4,1.6 -278.1,4.6 -283.4,1.6 -282.1,-1 -305.4,-14.5 -308,-7.4 		"/>
		<path class="st3" d="M-312.1-24.9c0.8,0.5,4,2.5,4,2.5l2.1-6l5.8,3l-2.8,5.3l23.1,13.3l9-25.9l-6-2.3l1.8-6l7,2.5l2.5-7.7l5.5,2.3
			l-3,7.3l27.2,10l4.2-29.1l-9.4-1.8l0.8-5l9.9,2l0.7-9.7h5.3v10.5l26,2.8v-19"/>
		<path class="st3" d="M-248.3-111.3c0,0-3.8,3.5-15.3-3.1c0,0,7.7,11.7,4.8,13.2c-2.8,1.5-13.8-3-14.7-4.3c0,0,1.2,20.5-3.3,19.3
			c-4.5-1.2-6.5-9.6-6.7-14.1c0,0-4.5,14.4-8,12.9s-1.7-11.3-1.7-11.3l-5.3,6.8"/>
		<path class="st3" d="M-261.9-140.8c0,0-9.5,6.7-9.3,6.2c0.2-0.5-1-17.2-4.7-16.2c-3.7,1-9.8,12-9.8,12l-0.8-8.4"/>
		<path class="st3" d="M-318.1-144c-0.5,0-6.8,3.3-5.3,5.9c1.5,2.7,8,7.5,8,7.5s-9.5,2.2-8.2,6.2s3.2,4.8,3.2,4.8s-9.1,0.5-9,4.2"/>
		<path class="st3" d="M-234.1-104.8c0,0-18.6,38.4-72.4,25.6"/>
		<path class="st3" d="M-227.3-100.7c0,0-28.2,47.6-81.6,27.3"/>
		<path class="st3" d="M-214.8-44.4c4.4,0,9.7,6,6.5,9.9c-4.5,5.4-11.9,0.7-11.5-5.5C-219.5-43-217.8-44.4-214.8-44.4"/>
		<path class="st3" d="M-257.9-18.7c4.4,0,9.7,6,6.5,9.9c-4.5,5.4-11.9,0.7-11.5-5.5C-262.7-17.3-260.9-18.7-257.9-18.7"/>
		<path class="st3" d="M-305.6-0.5c0.9-3.2,7.9-0.6,9.2,0.9c3.2,3.6-1.5,6.9-5.3,7.1"/>
	</g>
	<path class="st4" d="M-101.8-52.9c-0.8,14.6-0.6,29,0.9,43.4c0.6,5.5,1.1,11,1.6,16.5c0.2,1.8-0.5,6.1,0.8,7.5
		c4-3.9,10-5.5,15.2-7.7c7.2-3.1,14.4-6,21.6-9.1c5.5-2.3,10.7-5.1,16-7.7c3.5-1.8,5.7-5.2,9.2-6.9c-0.5-1.4-4.2-2.7-5.6-3.6
		c-2.2-1.4-4.5-2.3-6.8-3.4c-5-2.5-10-4.7-15-7.3c-5.2-2.7-11.3-4.6-16.2-7.7c-3.8-2.4-7.5-5.1-11.2-7.6c-1.8-1.2-3.5-2.5-5.1-3.9
		c-1.3-1.1-2.7-2.9-4.3-3.5"/>
	<path class="st5" d="M-93.3-44.4c-2.9,3.5-5.3,7.5-7.7,11.2"/>
	<path class="st5" d="M-83.8-35.8c-5.3,8.8-12.8,14.2-14.7,24.6"/>
	<path class="st5" d="M-71.1-26.1c-5.3,8.8-12.8,14.2-14.7,24.6"/>
	<path class="st5" d="M-76-30.1c-6.1,6.8-16.2,30-21.3,37.4"/>
	<path class="st5" d="M-62.5-28.4C-69.9-18-78.6-11.6-82.3,0.9"/>
	<path class="st5" d="M-55-21.1c-3.7,3.2-6.5,9.3-8.5,13.8"/>
	<path class="st5" d="M-90-38.3c-3.7,3.2-6.5,9.3-8.5,13.8"/>
</g>
<g id="Слой_6">
</g>
<g id="Слой_5">
	<g>
		<path class="st6" d="M71.6,13.3c0,0,3.1-0.8,17.4,13.6s15.4,15.3,15,16.8s-10.9,17-19.3,22c-8.4,4.9-14.8,7.9-23.1,4.5
			c0,0-4.4-3.1-6.2-2.7c-1.8,0.4-3.4,1.1-5.4,3.1c-2,2-24.9,26.2-24.9,26.2s11.8,11.1,9.7,15.3c-2.2,4.2-10.8-2.3-18.8-10.6
			S0.3,88.5,4.4,83.6c0,0,2.5-3.1,17,9.6c0,0,27.5-26.2,28-29.4c0.4-3.2-5.6-8.3-4.1-16c1.4-7.7,3.3-15.4,15.4-26.3
			S71.6,13.3,71.6,13.3z"/>
		<path class="st6" d="M71.6,13.3c0,0,10.8,21,32.1,30.9"/>
		<path class="st6" d="M4.4,83.6c0,0,3.8,12.5,30,28.8"/>
		<path class="st6" d="M25,96.7c-0.5,0.4-1.7,1.2-1.4,2.7"/>
		<path class="st6" d="M21.4,93.3c0,0-1.3,1.7-2.7,1.5"/>
		<path class="st6" d="M53.4,35.7c0,0-11.2,12.5,2.4,26.1S83,62.7,83,62.7s-6.7-11.2-13.8-16.3S55.2,35.7,53.4,35.7z"/>
		<path class="st6" d="M56,39.2c-1.3-0.1-2.7,0.8-4,1.2"/>
		<path class="st6" d="M58.1,40.3c-2.6,0.3-5.1,1.5-7.7,1.8"/>
		<path class="st6" d="M59.6,42.4c-2.9,0.7-6.2,0.8-9,2.2"/>
		<path class="st6" d="M62.2,44.5c-2,0.2-4,0.8-6,1.2c-1.8,0.4-3.5,0.6-5.1,1.4"/>
		<path class="st6" d="M64.9,46.9c-4.1,0.8-8.8,1-12.5,2.9"/>
		<path class="st6" d="M67.2,49c-2.8,0.6-5.7,1.2-8.6,1.7c-2.2,0.4-5.3,0.5-7.2,1.7"/>
		<path class="st6" d="M71.8,52.3c-2,0.5-4.3,0.8-6.4,1.2c-3,0.6-6.7,0.7-9.3,2.3c0.1,0,0.2,0.1,0.3,0.2"/>
		<path class="st6" d="M76.9,55c-3.1-0.3-6.9,0.7-10,1c-2.4,0.3-4.9,0.6-7.2,1.3c-0.8,0.2-2.1,0.4-2.4,1.3"/>
		<path class="st6" d="M77.9,58.7c-2.8-0.1-5.7,1-8.5,1.2c-3.4,0.3-7.9,0-11,1.5"/>
		<path class="st6" d="M76.9,61.2c-2,0.1-4,1.2-5.9,1.6c-2,0.4-4.4,0.5-6.2,1.2"/>
		<path class="st6" d="M79.9,63.1c-1.2,0.1-2.4,0.9-3.6,1.1c-2.1,0.4-4.2,0.6-6.2,1"/>
	</g>
	<g>
		<path class="st6" d="M13.4,9.6c0,0,0.1,28.6,0,33.3c-0.1,5.6-6.9,10.7-9.5,14.7c-5.1,7.9-2,57.7-2,58.3s0,39.4,0,39.4
			s15.7,12,37,0c0,0,2-86.6,0-91.5s-2.4-6.6-6.1-10.5s-6.1-7.1-6.4-10.5s0.3-22.5,0-25.4s0.3-7.9,0.3-7.9S19.3,5.7,13.4,9.6z"/>
		<path class="st6" d="M15.1,8.7c0,0-0.8-5.2-0.8-5.3s1.9-1.1,3.4-1.2c1.4-0.1,4.5-1.5,6-0.9s2.3,2.2,2.3,2.2L25,8.9L15.1,8.7z"/>
		<path class="st6" d="M13.4,38.2c0,0,2.8-1.8,6.7-1.1s6.2,0.3,6.2,0.3"/>
		<path class="st6" d="M1.6,68.5c0,0,36.3,1.1,37.8-0.7"/>
		<path class="st6" d="M4.8,70.1C4.9,70,4.9,70,5,69.9c-0.6,2-2.3,3.9-3.4,5.6"/>
		<path class="st6" d="M11.7,70.8c-2.5,3.5-5.4,6.8-7.5,10.6"/>
		<path class="st6" d="M14.9,72.2c-0.9,1-1.5,2.3-2.3,3.4c-1.8,2.7-3.8,5.5-5.2,8.5"/>
		<path class="st6" d="M19.7,72.8c-0.8,0.6-1.5,1.5-2.2,2.3c-1.6,1.8-2.9,3.8-4.3,5.7c-3.2,4.5-6,9.1-8.6,13.9"/>
		<path class="st6" d="M24.8,73.5c-1.4,0.9-2.6,2.4-3.7,3.6c-2.3,2.4-4.4,5.1-6.4,7.7c-2.4,3.2-4.8,6.5-7.1,9.8
			c-1.2,1.8-2.6,3.7-3.4,5.7"/>
		<path class="st6" d="M32.7,73.4c-1.5,1.3-3.1,2.5-4.5,3.8c-2.2,2-4.3,4.2-6.3,6.5c-4.9,5.5-9.4,11.6-13.1,18"/>
		<path class="st6" d="M34.8,81.3c-11.4,7.9-20.3,19.2-28,30.6"/>
		<path class="st6" d="M35.4,86.9c-2.2,1.2-4.2,3.2-6,4.8c-3.5,3.2-6.9,6.5-10.1,10.2c-5.1,5.9-9.6,12.3-14.6,18.3"/>
		<path class="st6" d="M32.6,96.5c-4.1,2.7-7.8,6.7-11.1,10.3c-5.1,5.6-9.8,11.7-14.1,18"/>
		<path class="st6" d="M29.8,105c-3.4,3.6-7.1,7-10.6,10.6c-4.4,4.4-8.4,9.3-12.7,13.7"/>
		<path class="st6" d="M33,108.9c-1.6,1.2-3,2.9-4.5,4.3c-3,3-6,6-9.1,9c-2.8,2.8-5.7,5.6-8.6,8.3c-1.2,1.1-2.4,2.6-3.8,3.3"/>
		<path class="st6" d="M33.9,116c-8.7,8.8-17.8,17.2-26.4,26.1"/>
		<path class="st6" d="M34,125.6c-0.8,0.5-1.5,1.2-2.3,1.8c-2.3,1.9-4.6,3.7-6.9,5.7c-5.9,5.2-11.7,10.4-17.2,16"/>
		<path class="st6" d="M32.8,134c-5.2,4.3-10.4,8.6-15.5,12.9"/>
		<path class="st6" d="M30.7,138.3c-4.2,3.3-8.2,6.7-12,10.4c-2.1,2-4.2,4.1-6.1,6.3c-0.8,0.8-1.5,2-2.5,2.5"/>
		<path class="st6" d="M33.3,140.3c-3,2.3-5.7,4.9-8.3,7.7c-2.1,2.2-4.2,4.2-6.1,6.5c-0.7,0.9-1.5,2.2-2.4,2.9"/>
		<path class="st6" d="M33.6,145.3c-0.9,1.6-2.8,2.9-4.1,4.2c-1.2,1.2-2.6,2.5-3.6,4c-0.3,0.4-0.6,0.8-0.6,1.4"/>
		<path class="st6" d="M34.7,150.1c-2.2,2.1-4.6,4.6-6.2,7.2"/>
		<path class="st6" d="M32.7,77.7c-2.3,3-5.5,5.5-7.9,8.4c-4.2,5-8.5,10-12.9,14.8"/>
		<path class="st6" d="M27.8,74.2c-3,3-5.6,6.4-8.6,9.5"/>
		<path class="st6" d="M35.6,89.1c-0.9,1.3-2.2,2.4-3.3,3.6c-3.2,3.5-6.7,6.8-9.7,10.5"/>
		<path class="st6" d="M35.2,97c-1.1,1.1-2.1,2.3-3.2,3.5c-2.1,2.2-5.1,4.6-6.5,7.2"/>
		<path class="st6" d="M4.7,141.1c0.5-2,3.1-4,4.3-5.6c2.8-3.5,5.7-6.5,9.1-9.4"/>
		<path class="st6" d="M20.7,134.3c3.1-2.9,6.4-5.8,9.5-8.7"/>
		<path class="st6" d="M10,151.8c3-4.4,6.8-8.1,10.5-11.8"/>
		<path class="st6" d="M20.2,157.2c2-3,4.8-5.3,7.1-8.1"/>
		<path class="st6" d="M15.9,4.6c0.4-0.5,0.9-0.9,1.3-1.3"/>
		<path class="st6" d="M16.1,6.6c0.4-0.6,1-1.3,1.6-1.7"/>
		<path class="st6" d="M18.8,4.4c0.4-0.6,1-0.8,1.5-1.3"/>
		<path class="st6" d="M18.7,6.8c0.5-0.5,0.9-1,1.5-1.4"/>
		<path class="st6" d="M21.6,4.7c0.2-0.2,0.4-0.4,0.6-0.5"/>
		<path class="st6" d="M21.7,3.1c0.2-0.3,0.6-0.7,0.9-0.8"/>
		<path class="st6" d="M23.4,5.1c0.3-0.5,0.8-1,1.3-1.3"/>
	</g>
	<g>
		<path class="st6" d="M151.7,42.7c0,0,3.4-6.1,5.7-23.5s6.3-31.7,26.6-31.7s23.6,13.6,24.4,16.2s2,7,2.7,11.4s1,12.1,2.7,17.6
			c1.7,5.5,2.2,7.7,5,13.7s11.6,23.5,13.2,35.1c1.6,11.6,2.6,17.5,0,31.3c-2.6,13.8-9.8,36.9-10.4,39.3c-0.7,2.3-4.1,19.1-3.8,22.2
			c0,0-18.8,7.5-33.9,6.6c-15.1-0.9-32.6-6.9-32.6-6.9s-1.3-13.4-3.5-21c-2.2-7.6-9.7-33.8-10.3-36.5s-5.6-26,2.2-45.3
			c0,0,5-13.3,6.8-17S151.7,42.7,151.7,42.7z"/>
		<path class="st6" d="M195.6-5.2c6,1,8.3,8.4,9.3,13.5c0.3,1.5,0.7,3.2,0.7,4.7"/>
		<path class="st6" d="M184.7-3c0,0,16.4-0.3,16.4,19.2s-16.5,18-16.5,18s-15.8-1-16.5-18.6S183.6-3,184.7-3z"/>
		<path class="st6" d="M168,13.5c0,0,0.4-3.9,3.8-5.4s8.3-2.4,9.8-3.7c1.5-1.3,2.7-2.3,3.1-7.3c0,0-0.7,5.8,3.3,7.5s12.3,2.6,12.9,9
			"/>
		<path class="st6" d="M187.3,10.4c0,0,3.7-3.6,8.9,0.2"/>
		<path class="st6" d="M181.7,10.3c0,0-4-3.4-8.8,0.3"/>
		<path class="st6" d="M173.8,13.5c0,0,3.4-3.1,6.9,0"/>
		<path class="st6" d="M174.9,15c0,0,1.8,1.5,4.6,0"/>
		<path class="st6" d="M188.5,13.5c0,0,3.1-3.4,6.9,0"/>
		<path class="st6" d="M189.6,15c0,0,1.2,1.3,4.6,0"/>
		<circle class="st6" cx="177.2" cy="13.9" r="1.8"/>
		<circle class="st7" cx="177.2" cy="13.7" r="0.6"/>
		<circle class="st6" cx="191.9" cy="13.7" r="1.8"/>
		<circle class="st7" cx="192" cy="13.6" r="0.6"/>
		<path class="st6" d="M183.9,15.4c0,0.3-0.1,0.6-0.2,0.9c-0.1,0.3-0.2,0.5-0.3,0.8c-0.1,0.4-0.3,1-0.1,1.4c0.1,0.3,0.3,0.6,0.5,0.7
			"/>
		<path class="st6" d="M184.6,18.3c0.2,0,0.4-0.1,0.5,0.1c0.1,0.1,0.3,0.4,0.1,0.6"/>
		<path class="st6" d="M180.5,25.2c0.4,0.1,0.6,0.4,1,0.5c0.5,0.2,1,0.3,1.6,0.3c1.5,0.2,3,0.3,4.4-0.1c0.5-0.1,1.1-0.4,1.4-0.6"/>
		<path class="st6" d="M181.6,25.2c0.1-0.3,0.4-0.4,0.6-0.6c0.3-0.2,0.6-0.4,0.9-0.4c0.6,0,1.2,0.3,1.4,0.9c0-0.5,1.1-0.7,1.4-0.7
			c0.5,0,1.2,0.2,1.4,0.7c0,0,0,0-0.1,0"/>
		<path class="st6" d="M181.8,26.8c0.5,0.4,1.2,0.8,1.8,1c0.7,0.2,1.8,0.2,2.4-0.1c0.2-0.1,0.7-0.4,0.9-0.7"/>
		<path class="st6" d="M182.8,34c0,0-2,0.7-1.8,2.5c0.2,1.8,0.8,4.2,3.6,4.6s4-3.6,3.6-4.6s-0.4-1.8-1.6-2.2"/>
		<path class="st6" d="M184.1,34.2c0,0-1.3,1-0.9,3.8"/>
		<path class="st6" d="M185.3,34.3c0,0,1.1,2,0.5,3.7"/>
		<path class="st6" d="M181,37.1c0,0-3.4,0.3-7,5.8s-5.7,22.6-5.7,22.6S183,53,184.6,44.3c0,0,0,7,16.3,20.9c0,0-2.6-19.1-6.2-23.1
			c-3.6-4-4.7-4.2-6.5-5"/>
		<path class="st6" d="M181.6,38.9c0,0-6.3,4.8-9.3,15.3"/>
		<path class="st6" d="M172.3,57.8c0,0,8-8.6,10.9-17.3"/>
		<path class="st6" d="M186.2,40.7c0,0,2.1,7.9,10.4,16.8"/>
		<path class="st6" d="M187.7,39c0,0,5.9,3.9,9.3,15.5"/>
		<path class="st6" d="M206.8,21.9c0,0-1.2,11.9,8.2,26.9"/>
		<path class="st6" d="M142.9,63c0,0,19.2-6.9,29-15.3"/>
		<path class="st6" d="M197.2,47.4c0,0,10.7,8.9,29.2,15.5"/>
		<path class="st6" d="M140.8,68.4c0,0,1.2,7,5.5,14.2c4.2,7.2,5.3,10.5,4.8,14.8c-0.5,4.3,0.3,5.7-3.9,12.1s-9.3,8.7-9.3,8.7"/>
		<path class="st6" d="M141.7,96.4c0,0,4.7,4.7,3.7,8"/>
		<path class="st6" d="M138,101.8c0,0,1.2,4.6,4.5,6.5"/>
		<path class="st6" d="M141.1,116.4c0,0,2.4,8.4,11.8,7.7c0,0,2.6,0,2.5-2.5s-1.9-8.1-1.9-8.4c0,0,3.4,2.7,3.6,1.6s-1.5-6-7.5-9.5"
			/>
		<path class="st6" d="M149.2,116.2c0,0,0.6,1.9,3.4,2.4"/>
		<path class="st6" d="M147.9,117.7c0,0,1.1,2.1,3.9,2.5"/>
		<path class="st6" d="M146.4,118.7c0,0.1,0.6,1.7,3.4,2.3"/>
		<path class="st6" d="M228.4,68c0,0-2.6,10.1-5.9,15.5c-3.3,5.4-6.3,11-3.5,20.2s12,14.2,12,14.2"/>
		<path class="st6" d="M227.7,96.3c0,0-3.2,1.6-3.9,8.2"/>
		<path class="st6" d="M226.7,108.2c0.2-0.1,2.3-0.3,4.4-6.3"/>
		<path class="st6" d="M219.6,105.3c0,0-6.7,4.2-7.4,8s3.3,0,3.3,0s-1.6,5.5-1.8,6.9c-0.1,1.4-0.5,3.7,2.5,3.9
			c3,0.2,6.9-1.2,8.6-3.1c1.7-1.9,3.1-3.8,3.4-4.9"/>
		<path class="st6" d="M219.3,121c0.5-0.2,1.6,0,3.5-2.2"/>
		<path class="st6" d="M217.5,120.2c0,0,3.1-0.7,3.6-2.7"/>
		<path class="st6" d="M216.4,118.4c0.2,0,2.5-0.1,3.4-2"/>
		<path class="st6" d="M150.7,168.7c0,0,31.6,12.5,67.5,0"/>
		<path class="st6" d="M219.3,133.9c-0.4,0.4-6.7,15.1-7.1,31.5"/>
		<path class="st6" d="M152.2,62.4c-3.6,2.4-6.2,6.5-8.4,10.1"/>
		<path class="st6" d="M160.2,61c-2.6,3.1-5.3,6.2-7.8,9.5c-2.7,3.5-4.7,7.6-7.4,11.1"/>
		<path class="st6" d="M166.8,64.3c-2.7,2.3-4.5,6.1-6.5,8.9c-3.2,4.4-7.4,9.9-8.8,15.3"/>
		<path class="st6" d="M176.4,70.4c-3.4,2.7-6.1,6.4-8.8,9.7c-4.7,5.7-8.3,12.1-12.8,17.9"/>
		<path class="st6" d="M183.5,67.4c-9.6,11.1-18.4,23.6-25.6,36.4"/>
		<path class="st6" d="M198.7,68.1c-1.9,2-4.2,3.6-6.1,5.6c-3.9,4.1-7.5,8.4-11.3,12.6c-5.2,5.9-9.9,12.1-14.6,18.5
			c-2.4,3.3-5.1,7.1-6.6,10.9"/>
		<path class="st6" d="M210.5,68.5c-0.8,1.3-2.2,2.3-3.2,3.4c-3.1,3.2-6.2,6.5-9.3,9.7c-7.4,8.1-14.1,16.5-20.2,25.5"/>
		<path class="st6" d="M218.7,72c-5.4,5.4-10.3,11.2-15.7,16.6c-4.6,4.5-9.3,8.9-13.6,13.6c-2.6,2.9-6.6,6-8.3,9.6"/>
		<path class="st6" d="M170.1,111c-0.9,1.9-2.5,3.7-3.7,5.5c-1.8,2.8-3.6,5.7-5.3,8.6c-3,5.1-6.3,10-9.1,15.2"/>
		<path class="st6" d="M176,115.1c-3.9,5.9-8.5,11.4-12.4,17.4c-4.4,6.9-7.9,14.3-12.4,21.2"/>
		<path class="st6" d="M192.9,110.8c0.1-0.1,0.2-0.2,0.3-0.3"/>
		<path class="st6" d="M198.7,105.4c-1.2,1.8-3.1,3.4-4.6,5c-4.1,4.5-8.1,9.1-12,13.8c-5.4,6.4-10.5,13-15.5,19.7
			c-2.8,3.7-6.3,7.9-8.1,12.2"/>
		<path class="st6" d="M210.3,99.5c-5.9,7.1-12.1,14-17.7,21.3c-6.2,8-12,16.4-17.3,25c-3.1,4.9-5.8,10.2-9,15"/>
		<path class="st6" d="M207.7,116.7c-6.5,7.6-12.9,15.2-18.5,23.6c-4.5,6.7-8.7,13.8-12.5,20.9c-1.8,3.4-3.3,7.2-5.3,10.5"/>
		<path class="st6" d="M211.9,127c-4.3,4.3-7.7,9.9-11.2,14.8c-4.7,6.5-8.9,13.7-13.9,20"/>
		<path class="st6" d="M209.4,142.5c-2.8,3.2-4.8,7.4-7.3,10.9c-2.9,4-6.5,8.1-8.7,12.6"/>
		<path class="st6" d="M219.5,80.8c-4.6,3.8-8,9.4-11.8,13.9"/>
		<path class="st8" d="M182.8,56.8c-1.7,2.5-4.1,5.4-5.3,8.2"/>
		<path class="st8" d="M190.7,66c-5.5,7.9-11,16-16.8,23.7"/>
		<path class="st8" d="M155.3,125.8c-2.8,4.6-5.6,8.8-7.8,13.8"/>
		<path class="st8" d="M185.8,88.5c-4.2,5.6-9.8,10.2-13.8,16"/>
		<path class="st8" d="M203.8,113.5c-8.8,10.5-16.6,21.9-24.8,32.8"/>
		<path class="st8" d="M205.8,128.5c-3.2,5.1-7.5,9.5-10.7,14.7c-3.5,5.8-6.4,12-9.8,17.8"/>
		<path class="st8" d="M208.8,151.1c-2.8,5-5.8,10.7-7.5,16.2"/>
		<path class="st8" d="M202.7,94.5c-2.5,2.3-4.5,5.5-6.3,8.3"/>
		<path class="st8" d="M218.8,64.1c-1.1,0.7-1.9,1.6-2.6,2.7c-2.7,3.7-5.1,7.5-7.9,11.2"/>
	</g>
</g>
<g id="Слой_7">
	<g>
		<path class="st6" d="M-0.4,493.1c-0.3-0.7,0.5-7.6,1.3-9.9s3.3-6.1,6.3-8.1c0,0,2.5-3.8,5.8-15.5c3.3-11.7,8.9-25.4,7.1-40.1
			c-1.8-14.7-6.1-27.1-4.6-31.7s11.4-12.9,44.4-13.7c33-0.8,39.8,9.4,39.6,14.7c-0.3,5.3-6.1,30.4-3.3,44.7s8.4,35.7,13.2,41.7
			c0,0,5.6,1.5,6.6,7.6c1,6.1,0.5,11.4-2.3,14.7S93.4,516.1,58,516.1S4.7,506.8-0.4,493.1z"/>
		<path class="st8" d="M15.6,387.8c0,0,28.1,30.4,83.9,1"/>
		<path class="st8" d="M7.2,475.1c0,0-8.1,8.6-3,17c5.1,8.4,21.8,19.3,55.5,17.2c40.4-2.4,51-13.1,53.4-20c1.4-4-3.7-13.9-3.7-13.9"
			/>
		<path class="st8" d="M0.2,486.1c0,0-2.4,28.2,59.4,27.2c42.1-0.6,56.6-21.2,56.7-21.8"/>
		<path class="st8" d="M54.9,422.5c0,0,3.3-1.6,4.3,11.1c1,12.7-2.8,11.7-2.9,11.7s-4.5-1-4.1-11.4S53.8,422.7,54.9,422.5z"/>
		<path class="st8" d="M66.1,426.4c0,0,3.1,1.5-8.9,9.8c-12,8.3-12.7,4.9-12.8,4.8c-0.1-0.1-1.1-4,9.3-9.8S65.4,425.7,66.1,426.4z"
			/>
		<path class="st8" d="M66.8,437.9c0,0,0.6,3.4-13.2-1.2c-13.8-4.6-11.6-7.2-11.5-7.3s2.5-3.3,13.5,1.5S67,436.9,66.8,437.9z"/>
		<circle class="st8" cx="55.2" cy="433.9" r="0.8"/>
	</g>
	<g>
		<path class="st6" d="M-96.3,496.8c-0.3-0.9,0.6-9.2,1.5-11.9c0.9-2.8,4-7.3,7.6-9.8c0,0,3.1-4.6,7-18.6c4-14.1,10.7-30.6,8.6-48.3
			s-7.3-32.7-5.5-38.2c1.8-5.5,13.8-15.6,53.5-16.5s48,11.3,47.7,17.7c-0.3,6.4-7.3,36.6-4,53.9c3.4,17.3,10.1,43,15.9,50.3
			c0,0,6.7,1.8,7.9,9.2s0.6,13.8-2.8,17.7c-3.4,4-24.5,22.3-67.1,22.3S-90.2,513.3-96.3,496.8z"/>
		<path class="st8" d="M-77.1,370c0,0,33.9,36.7,101.2,1.2"/>
		<path class="st8" d="M-87.2,475.1c0,0-9.8,10.4-3.7,20.5c6.1,10.1,26.3,23.2,66.9,20.8c48.7-2.9,61.4-15.7,64.3-24.1
			c1.6-4.8-4.4-16.8-4.4-16.8"/>
		<path class="st8" d="M-95.6,488.5c0,0-2.9,33.9,71.5,32.8c50.7-0.8,68.2-25.6,68.3-26.2"/>
		<path class="st8" d="M-29.7,411.8c0,0,4-1.9,5.2,13.4c1.2,15.3-3.3,14.1-3.5,14.1c-0.2,0-5.5-1.2-5-13.7
			C-32.4,413-31,412-29.7,411.8z"/>
		<path class="st8" d="M-16.2,416.5c0,0,3.7,1.8-10.8,11.8s-15.3,5.9-15.4,5.8c-0.1-0.1-1.3-4.8,11.2-11.9
			C-18.6,415.2-17,415.7-16.2,416.5z"/>
		<path class="st8" d="M-15.3,430.3c0,0,0.8,4.1-15.9-1.5c-16.7-5.5-13.9-8.7-13.9-8.8s3-3.9,16.2,1.8S-15.1,429.2-15.3,430.3z"/>
		<circle class="st8" cx="-29.3" cy="425.5" r="1"/>
	</g>
</g>
<g id="Слой_4">
	<path class="st9" d="M-111.7,215.8c0,0,26.5,8.9,33.5,92c0,0,3.5-2.5,4.4-15.3c0.8-12.8-0.8-38.8-11.8-59.3s-26.1-21.6-26.1-21.6
		V215.8z"/>
	<path class="st2" d="M2139.1-23.6l40.1,0.9c0,0,5.8-2,6.5-5.4s2-16.1-5.1-19.4c0,0-15.5-1.1-20.6-2.3s-13.1-1.5-17,0
		s-8.8,4-9.8,10.1S2132.6-30.1,2139.1-23.6z"/>
	<path class="st3" d="M2133.3-39.6c0,0,0.4,11.1,8.6,12.4s11.1-1.6,12.1-4.8s0.5-8.6-4.3-10.1s-9.1,1.7-9.5,5.4
		c-0.5,4.2,8.3,9.4,8.9,2c0,0-1.5-2.5-3.6-2"/>
	<path class="st3" d="M2153.6-23.3c0.3-0.6,8.9-6.8,7.9-15.1s-4.8-11.1-8.8-12.4"/>
	<path class="st3" d="M2167.3-22.8c-0.1-0.3,6.4-9.4,0-26"/>
	<path class="st3" d="M2172.1-22.8c-0.1-0.3,6.4-9.4,0-26"/>
	<g>
		<path class="st9" d="M-168.9,386.1c0,0-0.5-31.1-2.8-35.1l-15.3-134.3c0,0,0-4.8-0.1-6.1c0,0,2.8-48.8-4.3-69.5s-8.9-23-22.3-27.1
			c-13.4-4-35.1-4-42.7-3.3s-25.4,6.8-25.4,6.8s-13.8-0.3-26,37.1s-12.1,85.6-10.5,94.1c1.7,8.4,5.1,43.2,5.4,52.3
			s5.7,60.4,8.8,75.9c3,15.5,12.2,60.4,43.3,73.8c1.6,0.7,29.1,1.8,56.4-3.8s29.3-9.9,30.8-13.4s1-15.9,2.3-18
			C-170,413.4-168.9,386.1-168.9,386.1z M-173.2,337.7"/>
		<g>
			<path class="st9" d="M-303.6,173l116.5,7.7c0,0,3.2-6.9,8.4-14.5c11.2-16.3,5.4-43.4-13.8-52.1c0,0-41.7-3-55.5-6.1
				c-13.8-3-35.3-4-45.7,0c-10.4,4-27.5,10.2-30.2,26.7C-326.5,151.2-323.2,160.2-303.6,173z"/>
			<path class="st10" d="M-317.4,121.7c0,0-17,33.2,20.8,46.8c21.1,7.6,29.9-4.4,32.6-12.8c2.7-8.4,1.3-23.2-11.4-27.2
				c-12.8-4-24.4,4.5-25.6,14.5c-1.3,11.4,22.2,25.3,23.9,5.4c0,0-4-6.8-9.7-5.4"/>
			<path class="st10" d="M-262.1,176.2c0.7-1.5,20.9-15.4,18.3-37.7s-12.8-29.9-23.5-33.3"/>
			<path class="st10" d="M-228.4,180.6c-0.3-0.7,17.1-25.3,0-69.8"/>
			<path class="st10" d="M-215.3,180.6c-0.3-0.7,17.1-25.3,0-69.8"/>
		</g>
		<g>
			<path class="st9" d="M-287.5,285.5c0,0-0.8,72.2,7.9,83s22.1,13.3,33,15.3s30.4-5.4,30.4-5.4s4.3-2.5,6.1-9.5s0-121.5,0-121.5
				s1.4-3.3-4.4-6.2s-43.6-6.2-51.9-2.9c-8.3,3.3-29,39-28.2,43.6C-293.7,286.4-287.5,285.5-287.5,285.5z"/>
			<path class="st10" d="M-287.5,285.5c0,0,48.7,1.5,51-0.6c2.4-2.1,7-9.1,8.6-12.9c1.5-3.6,7.3-23.9,15.6-28.8"/>
			<path class="st10" d="M-261.1,237.2c-0.4,0.6-28.2,35.7-22.7,38.7c5.5,2.9,22.8,4.7,24.8,4.3c1.9-0.4,13.7-1.1,16.9-4.6
				c3.2-3.5,5.7-13.3,8.2-19.6s12.4-16.6,12.4-16.6"/>
			<path class="st9" d="M-259.3,254.6c0,0-7.6,1.7-9.8,7.9c-1.7,4.8-2.1,20.7-2.5,28.7c-0.1,2.3-0.2,4-0.4,4.6
				c-0.7,2.6-0.1,48.4,2.9,51.3s7.2,4.3,9.8,3.9c2.6-0.4,4.3-7.3,3.9-10c-0.4-2.6-1.4-42.2-1.4-44.5c0-2.4,0.8-19.4,1.4-26.7
				s2-12.6,0.6-14.1C-256.1,254.1-259.3,254.6-259.3,254.6z"/>
			<path class="st10" d="M-272.3,290.8c0.7,0.4,15.6,0.8,15.6,0.8"/>
			<path class="st9" d="M-234,282.2c0,0,4.6,84.5,2.9,88.7s-9,13.2-12.9,13.3"/>
		</g>
	</g>
	<path class="st9" d="M-187.1,216.6l2.4,20.6c0,0,51.9-1.4,61,48.9c0,0,3,25.6-10.8,34.4c-13.8,8.8-24.9,16.2-38.8,17.2l1.5,13.2
		c0,0,45.7-2.4,53.1-31.1c7.4-28.7,11.8-37.5-3-65.3C-121.7,254.5-135.7,220.7-187.1,216.6z"/>
</g>
</svg>
