<svg xmlns="http://www.w3.org/2000/svg" viewBox="0 0 195.9 56.74"><defs><style>.cls-1{fill:#fff;}.cls-1,.cls-2{stroke:#000105;stroke-miterlimit:10;}.cls-2{fill:none;}</style></defs><title>mustache</title><g id="Слой_2" data-name="Слой 2"><g id="Слой_3" data-name="Слой 3"><path class="cls-1" d="M.37,35.4s14.17,12.83,34-3.5S60.24-.69,80.7.57c13.5.83,16.83,14.5,16.83,14.5S99.87.5,117.7.5,146.37,22.74,157,29.57s19.83,16.33,37.67,6c0,0-8.5,17-26.17,18.5s-50,3.67-71-29.17c0,0-19.33,31.33-45.33,31.33S18.54,55.57.37,35.4Z"/><path class="cls-2" d="M97.54,15.07"/><path class="cls-2" d="M88,37.05c10.51-11.18,9.82-20.82,9.49-22,0,0,0,14.56,8.22,20.44"/><path class="cls-2" d="M.37,35.4q.84.75,1.7,1.39c10.48,7.82,22.73,3.67,33.63,1.78,11.5-2,32.83-27,45-31.5s16.83,8,16.83,8V24.9"/><path class="cls-2" d="M4,38.65C13.45,47.07,37,42.51,37,42.51c14.67-1.05,43.5-25.94,43.5-25.94,11.33-6.83,17-1.5,17-1.5s3.62,1.25-18,14S22.1,56.63,4.94,40.29"/><path class="cls-2" d="M97.77,18.43S74.7,49.9,52.12,51.07,19.3,52.27,11,46"/><path class="cls-2" d="M193.86,37.05C164.52,61.87,146.2,51.9,123.2,42.51S97.54,15.07,97.54,15.07s3.33-10,11.83-9,11,.81,19.33,7.81c0,0,33.83,43.33,66,21.67"/><path class="cls-2" d="M192.43,39.22a83.56,83.56,0,0,1-16,5.82c-47.75,11.82-78.87-30-78.87-30s9.25-6.75,22.25,4.88,45,37.23,73,18"/></g></g></svg>