<svg xmlns="http://www.w3.org/2000/svg" viewBox="0 0 550.6 100.96"><defs><style>.cls-1{fill:none;}.cls-1,.cls-2{stroke:#000105;stroke-miterlimit:10;}.cls-2,.cls-3{fill:#fff;}.cls-4{fill:#000105;}</style></defs><title>myfellows_ua</title><g id="Слой_2" data-name="Слой 2"><g id="Слой_4" data-name="Слой 4"><path class="cls-1" d="M436.13,44.6c2-1.9,5.13-2,7.92-2,1.42,0,3,.08,3.94,1.17a4.44,4.44,0,0,1,.79,1.79,23.79,23.79,0,0,1,.64,8"/><path class="cls-1" d="M441.16,70c1.28-.28,7.64-.47,8.36.62s-.29,22,1.68,23.18c1,.63,14.62.48,15,.3a26.57,26.57,0,0,0,4.12-7.14"/><path class="cls-1" d="M423.66,37c-9.4,16.29,1.67,23.94,1.85,25,.43,2.4-13.91,27.6-12.25,29.35,1.17,1.24,16,2.72,16.34,2.42a22.41,22.41,0,0,0,5.13-6.21"/><path class="cls-1" d="M419.93,51.91q1.16-1.91,2.41-3.76"/><path class="cls-1" d="M422.19,57.33q1.35-1.9,2.73-3.78s.08-.1.14-.09.07.12,0,.11"/><path class="cls-1" d="M425,61.52a28.28,28.28,0,0,1,2.71-3.75"/><path class="cls-1" d="M423.8,66.77a59.17,59.17,0,0,1,7.59-3.63.35.35,0,0,1-.33.21"/><path class="cls-1" d="M420.77,73.11c1.73-1.08,3.11-2,4.84-3.09a16.26,16.26,0,0,1,2.79-1.42"/><path class="cls-1" d="M417.95,79.1c1.05-.55,1.65-1,2.7-1.52A12.06,12.06,0,0,1,425,76"/><path class="cls-1" d="M414.86,85.65a23.58,23.58,0,0,1,6.78-2.87"/><path class="cls-1" d="M414.7,91.8a43.48,43.48,0,0,1,6.48-4.54l-.21.18"/><path class="cls-1" d="M420.62,92.74c0-.27.54-.72.75-.9L426.83,87"/><path class="cls-1" d="M426.85,93.51a2.69,2.69,0,0,1,.77-.93c1.74-1.54,3.86-3.26,5.6-4.79"/><path class="cls-1" d="M442.14,69.77A49.41,49.41,0,0,0,448.94,64a1.17,1.17,0,0,1,.87-.47"/><path class="cls-1" d="M449.33,70.42c2.06-1.87,4.77-4.44,6.83-6.3"/><path class="cls-1" d="M449.65,77.37a47.32,47.32,0,0,1,6.55-6"/><path class="cls-1" d="M449.91,83.4a42.08,42.08,0,0,1,6.3-5.72"/><path class="cls-1" d="M450.13,89.68l6-5.75"/><path class="cls-1" d="M452.45,94.24l6.75-6.73"/><path class="cls-1" d="M460.32,94.05a67.81,67.81,0,0,0,5.26-7.3l-.37.18"/><path class="cls-1" d="M439,43.35a1.81,1.81,0,0,1,.73-1.21q1.87-1.75,3.83-3.42"/><path class="cls-1" d="M445.79,42.51a23.77,23.77,0,0,1,4.78-4.21"/><path class="cls-1" d="M449.11,45.9q3.6-3.17,7.45-6"/><path class="cls-1" d="M449.33,50.64q3.25-2.6,6.64-5"/><path class="cls-1" d="M452.19,53.65a35,35,0,0,1,4.29-3.31.23.23,0,0,0-.25-.06"/><path class="cls-2" d="M469.69,27.55c-.3-.24-28.14.12-30.4.37a26.2,26.2,0,0,0-8.95,2.31,16.06,16.06,0,0,0-8.52,14.42c0,6,3.09,12.53,8.44,15.19.86.43,2.08.38,2,1.33a2.24,2.24,0,0,1-.33.85,219.8,219.8,0,0,0-11.74,24.62.64.64,0,0,0,.7.86c4.79-.75,13.39.54,13.68.36s5.2-15.84,8.85-22.74a1.82,1.82,0,0,1,.51-.68,1.84,1.84,0,0,1,1-.24l11.28-.72c-.1,4.87,0,24,.18,24.21s9.88-.1,13.74-.1C470.87,86,470,27.82,469.69,27.55ZM456.27,53.64a128.37,128.37,0,0,1-15-.62c-1-.13-3.83-1.73-4.48-3.85a9.6,9.6,0,0,1-.66-3.69,8.4,8.4,0,0,1,2.5-5.33c1.77-1.88,15.24-2.16,17-2C456.8,38.32,456.15,49.9,456.27,53.64Z"/></g><g id="Слой_15" data-name="Слой 15"><path class="cls-2" d="M132.76,19.36c.39.29,13.43-.2,13.58-.33s-.18-12.76-.45-13-13.47-1-13.44-.13C132.53,7.6,132.26,19,132.76,19.36Z"/><path class="cls-1" d="M132.45,5.91c-1.06.83-3.77,2.31-3.85,2.45s-.2,15.27.07,15.51,15,.23,15.27-.07S145.42,21,146.35,19"/><path class="cls-1" d="M128.62,12.89q1.73-1.45,3.57-2.77"/><path class="cls-1" d="M128.44,18.29a27.76,27.76,0,0,1,4.28-3.67l-.42.2"/><path class="cls-1" d="M128.57,23.84a22.07,22.07,0,0,1,4-4.6"/><path class="cls-1" d="M134.53,23.73a25.76,25.76,0,0,1,2.61-4.07"/><path class="cls-1" d="M139.24,23.59q1.37-2.19,2.9-4.26"/><path class="cls-2" d="M153.37,19.21c.39.29,13.43-.2,13.58-.33s-.18-12.76-.45-13-13.47-1-13.44-.13C153.14,7.46,152.87,18.85,153.37,19.21Z"/><path class="cls-1" d="M153.07,5.76c-1.06.83-3.77,2.31-3.85,2.45s-.2,15.27.07,15.51,15,.23,15.27-.07S166,20.83,167,18.89"/><path class="cls-1" d="M149.24,12.75Q151,11.29,152.81,10"/><path class="cls-1" d="M149.05,18.15a27.76,27.76,0,0,1,4.28-3.67l-.42.2"/><path class="cls-1" d="M149.18,23.69a22.07,22.07,0,0,1,4-4.6"/><path class="cls-1" d="M155.15,23.58a25.76,25.76,0,0,1,2.61-4.07"/><path class="cls-1" d="M159.86,23.44q1.37-2.19,2.9-4.26"/><path class="cls-2" d="M536.44,14.32c.39.29,13.43-.2,13.58-.33s-.18-12.76-.45-13S536.1,0,536.14.87C536.21,2.56,535.94,14,536.44,14.32Z"/><path class="cls-1" d="M536.14.87c-1.06.83-3.77,2.31-3.85,2.45s-.2,15.27.07,15.51,15,.23,15.27-.07S549.1,15.94,550,14"/><path class="cls-1" d="M532.31,7.85Q534,6.4,535.88,5.08"/><path class="cls-1" d="M532.12,13.25a27.76,27.76,0,0,1,4.28-3.67l-.42.2"/><path class="cls-1" d="M532.25,18.79a22.07,22.07,0,0,1,4-4.6"/><path class="cls-1" d="M538.22,18.69a25.76,25.76,0,0,1,2.61-4.07"/><path class="cls-1" d="M542.93,18.55q1.37-2.19,2.9-4.26"/></g><g id="Слой_5" data-name="Слой 5"><path class="cls-1" d="M143.73,30.37c-2.16,1.91-5.74,4.88-6.24,6.81s-.84,54.95.3,57.84c.17.44,10.07,1.25,13.23.81,1.77-.25,5.24-3.27,6.69-6.25"/><path class="cls-1" d="M137.07,43.37"/><path class="cls-1" d="M137.34,42.89a39.1,39.1,0,0,1,6.24-5.76"/><path class="cls-1" d="M136.87,49.92a58.08,58.08,0,0,1,6.79-6.46c.19-.15.51.15.37.35s-.53,0-.45-.23"/><path class="cls-1" d="M137.16,56q3.06-2.79,6.36-5.31"/><path class="cls-1" d="M137.25,63.55a70.88,70.88,0,0,1,6.19-5.81"/><path class="cls-1" d="M136.9,71.62a89,89,0,0,1,6.57-6.78s.1-.11.07-.16-.13,0-.07.05"/><path class="cls-1" d="M137,79.2a40.6,40.6,0,0,1,6.32-5.44l-.31.17"/><path class="cls-1" d="M137.4,85.53c2.07-2,3.76-3.57,5.93-5.48"/><path class="cls-1" d="M137.43,92q2.93-3.07,6-6"/><path class="cls-1" d="M140.91,95.47c1.87-1.67,3.87-4,5.95-5.4"/><path class="cls-1" d="M147.28,95.82a63.91,63.91,0,0,0,5.83-5.58"/><path class="cls-3" d="M143.73,30.37c0,15.2-.88,59.22.13,59.34,1.25.16,13.59,1,13.86-.13.45-1.93.43-59.39-.06-59.53s-10.23-.62-13.92.32"/><path class="cls-4" d="M143.23,30.37c0,13.76-.29,27.51-.35,41.27,0,5.26-.12,10.54.16,15.79,0,.65-.11,2.08.41,2.6.86.86,4.29.46,5.39.51,2.55.12,5.83.64,8.32-.13,1-.3,1-.66,1.11-1.57.33-3.58.17-7.27.2-10.87q.15-18.29,0-36.57c0-2.42-.05-4.84-.1-7.26a14.2,14.2,0,0,0-.15-3.84c-.42-1.22-1.84-.87-3-.92-3.79-.15-7.84-.36-11.56.51-.63.15-.36,1.11.27,1a40.25,40.25,0,0,1,10-.51,15.63,15.63,0,0,1,3.36.16c-.07,0,0-.48,0,.24-.2,3.1.17,6.35.21,9.46.12,11.07.12,22.13.06,33.2,0,4.24,0,8.49-.14,12.74,0,.63.26,2.56-.11,3.1-.61.88-4.43.44-5.59.41-1.35,0-2.69-.09-4-.16a13.53,13.53,0,0,1-3.38-.23c-.56-.2.1.34,0,.09a1.65,1.65,0,0,1-.08-.52c0-.63-.09-1.26-.12-1.9-.21-4.82-.16-9.65-.14-14.47,0-14,.34-28.05.35-42.08a.5.5,0,0,0-1,0Z"/><path class="cls-1" d="M535.6,25.3c-2.16,1.91-5.74,4.88-6.24,6.81s-.84,54.95.3,57.84c.17.44,10.07,1.25,13.23.81,1.77-.25,5.24-3.27,6.69-6.25"/><path class="cls-1" d="M528.94,38.29"/><path class="cls-1" d="M529.21,37.81a39.1,39.1,0,0,1,6.24-5.76"/><path class="cls-1" d="M528.74,44.84a58.08,58.08,0,0,1,6.79-6.46c.19-.15.51.15.37.35s-.53,0-.45-.23"/><path class="cls-1" d="M529,51q3.06-2.79,6.36-5.31"/><path class="cls-1" d="M529.12,58.47a70.88,70.88,0,0,1,6.19-5.81"/><path class="cls-1" d="M528.77,66.54a89,89,0,0,1,6.57-6.78s.1-.11.07-.16-.13,0-.07.05"/><path class="cls-1" d="M528.9,74.12a40.6,40.6,0,0,1,6.32-5.44l-.31.17"/><path class="cls-1" d="M529.27,80.45c2.07-2,3.76-3.57,5.93-5.48"/><path class="cls-1" d="M529.3,86.9q2.93-3.07,6-6"/><path class="cls-3" d="M535.6,25.3c0,15.2-.88,59.22.13,59.34,1.25.16,13.59,1,13.86-.13.45-1.93.43-59.39-.06-59.53s-10.23-.62-13.92.32"/><path class="cls-4" d="M535.1,25.3c0,13.76-.29,27.51-.35,41.27,0,5.26-.12,10.54.16,15.79,0,.65-.11,2.08.41,2.6.86.86,4.29.46,5.39.51,2.55.12,5.83.64,8.32-.13,1-.3,1-.66,1.11-1.57.33-3.58.17-7.27.2-10.87q.15-18.29,0-36.57c0-2.42-.05-4.84-.1-7.26a14.2,14.2,0,0,0-.15-3.84c-.42-1.22-1.84-.87-3-.92-3.79-.15-7.84-.36-11.56.51-.63.15-.36,1.11.27,1a40.25,40.25,0,0,1,10-.51,15.63,15.63,0,0,1,3.36.16c-.07,0,0-.48,0,.24-.2,3.1.17,6.35.21,9.46.12,11.07.12,22.13.06,33.2,0,4.24,0,8.49-.14,12.74,0,.63.26,2.56-.11,3.1-.61.88-4.43.44-5.59.41-1.35,0-2.69-.09-4-.16a13.53,13.53,0,0,1-3.38-.23c-.56-.2.1.34,0,.09a1.65,1.65,0,0,1-.08-.52c0-.63-.09-1.26-.12-1.9-.21-4.82-.16-9.65-.14-14.47,0-14,.34-28.05.35-42.08a.5.5,0,0,0-1,0Z"/><path class="cls-4" d="M100.37,46.27c3.87-3.11,7.91-.25,8.61,4.06a49.28,49.28,0,0,1,.24,10.1c-.32,6.75-1.36,13.47-1.37,20.23l1-.13a1.65,1.65,0,0,0-.47-.8c-.45-.47-1.15.24-.71.71l.21.36a.5.5,0,0,0,1-.13c0-9.6,2.1-19.14,1.3-28.76-.22-2.61-.74-5.19-2.94-6.85-2.49-1.88-5.24-1.35-7.55.51-.5.4.21,1.11.71.71Z"/><path class="cls-4" d="M93.92,33.16a24.58,24.58,0,0,0-6.52,4.42A29.8,29.8,0,0,0,81,44.73c-4.11,6.64-5.78,14.75-5.76,22.49,0,13.4,8.8,27,22.58,29.62,8.6,1.64,15.85-2.51,22.08-8.07.48-.43-.23-1.13-.71-.71-5.56,5-12,9-19.79,8a25.78,25.78,0,0,1-16-9c-9.14-10.54-9.06-26.7-3.2-38.86a27.6,27.6,0,0,1,6.51-8.74c2.2-2,4.69-4.29,7.48-5.36.59-.23.34-1.2-.27-1Z"/><path class="cls-1" d="M86.7,41.26l-5,3.27"/><path class="cls-1" d="M84.24,47.07c0,.08.14-.06.07-.1s-.16,0-.22.05l-4.95,3.66a3.54,3.54,0,0,0-1,.92"/><path class="cls-1" d="M82.31,53.84l-5.87,4.75"/><path class="cls-1" d="M81.77,59.94l-6.06,5.46"/><path class="cls-1" d="M82.14,66.67c-2.18,2-4,3.76-6,5.85"/><path class="cls-1" d="M83.19,73.72l-5.44,5"/><path class="cls-1" d="M85.69,78.6l-5.22,5.32"/><path class="cls-1" d="M90.07,84.22,85,89.13"/><path class="cls-1" d="M95.12,88.16Q92.55,90.68,90,93.24c-.12.12-.36,0-.29-.2a.19.19,0,0,1,.34.08"/><path class="cls-1" d="M100.24,90.65c-1.56,1.52-3.39,3.49-5,5"/><path class="cls-1" d="M106.66,91.77a40.92,40.92,0,0,0-4.19,5"/><path class="cls-1" d="M112.29,91.27a18.79,18.79,0,0,0-2.86,3.79"/><path class="cls-1" d="M109,41.71a1.69,1.69,0,0,0-1,.61l-2.4,2.38"/><path class="cls-1" d="M113.78,43.56q-2.36,2.33-4.54,4.84"/><path class="cls-1" d="M116.28,46.93a81.54,81.54,0,0,0-6.69,6.82"/><path class="cls-1" d="M117.76,52.43A33.43,33.43,0,0,1,114,56.62c-1.43,1.28-3.09,2.37-4.08,4l.08-.5"/><path class="cls-1" d="M118.48,59.39q-5.06,5.34-9.7,11.06"/><path class="cls-1" d="M118,66.4A114.87,114.87,0,0,1,108.69,76"/><path class="cls-1" d="M116.18,73.94a66.77,66.77,0,0,0-6.84,6.45"/><path class="cls-3" d="M132.68,60.88c-.42-20.15-10.5-30.3-25-30.88C73.6,28.92,72,90.61,106.88,91.75,123.09,92.28,133,77.64,132.68,60.88Zm-25.12,19.5c-17.4,1.1-13.21-40-.68-38.87,10.14-.83,11,12.68,11.14,14C118.76,65.17,118.12,79.71,107.56,80.38Z"/><path class="cls-4" d="M133.18,60.88c-.21-7.7-1.7-15.76-6.47-22a24,24,0,0,0-16.07-9.09A24.48,24.48,0,0,0,85.42,42.43c-9.48,17-4.13,46.07,18,49.5A24,24,0,0,0,124.73,85c6.11-6.41,8.55-15.46,8.45-24.14a.5.5,0,0,0-1,0c.18,15.12-8.88,31.19-25.79,30.35-10.26-.5-18.32-7.16-22-16.56C77.9,58,84.33,31.51,105.54,30.52c6.85-.32,13.85,1.94,18.66,6.94,6,6.2,7.75,15.11,8,23.42A.5.5,0,0,0,133.18,60.88Z"/><path class="cls-4" d="M107.56,79.88c-13.47.61-12-20.92-9.24-29.07,1.76-5.22,5-9.94,11.16-8.68s7.71,8.65,8.09,13.92c.56,7.92.77,22.88-10,23.83-.64.06-.64,1.06,0,1,9.91-.88,11.25-12.61,11.18-20.52-.05-5.93-.47-13.83-5.69-17.7a9.89,9.89,0,0,0-9-1.22c-2.37,1-4,3.21-5.18,5.4C95.68,53,94.84,60.73,95.78,67.53c.89,6.45,4.22,13.7,11.78,13.35C108.2,80.85,108.2,79.85,107.56,79.88Z"/><path class="cls-1" d="M6.29,31.41C3.81,34,.79,36.58.53,37.42s1.24,58.17,1.79,58.5c.34.21,12.4.25,13.23-.28s2.08-2.76,2.6-4.28"/><path class="cls-1" d="M18.5,64.91c.57,1.83,8.07,29.62,9.14,31,.11.15,10,1.35,11.39.48s2.2-2.78,3.55-5"/><path class="cls-1" d="M51.66,59.53c.07,10.57.11,35,.75,36,.78,1.22,15.3,1.21,15.55.81,1.52-2.45,2.23-3.1,3.76-5.55"/><path class="cls-1" d="M49.76,31.37a63.16,63.16,0,0,0-7.66,5.92c-.39.5-4.74,15.09-5.58,23"/><path class="cls-1" d="M.81,42.54a31,31,0,0,1,4.92-5.36"/><path class="cls-1" d="M.9,48.46a65.35,65.35,0,0,1,4.84-5.67"/><path class="cls-1" d="M.64,53.77l1.77-1.91a31.44,31.44,0,0,1,3.34-3.27s.1-.07.15,0,0,.13,0,.1"/><path class="cls-1" d="M1,60.9A40.09,40.09,0,0,1,6,55"/><path class="cls-1" d="M1.49,66.27a21.47,21.47,0,0,1,4.8-4.93"/><path class="cls-1" d="M1.45,74.08a15.61,15.61,0,0,1,2.67-3.5l1.89-2s.11-.1.16-.07,0,.13,0,.07"/><path class="cls-1" d="M1.7,80.16Q4,77.46,6.52,75"/><path class="cls-1" d="M2.46,87.25a23.68,23.68,0,0,1,4-4.53"/><path class="cls-1" d="M2.06,94.28a38.8,38.8,0,0,1,4-4.3"/><path class="cls-1" d="M6.34,95.89,9.8,92"/><path class="cls-1" d="M12.65,96.14a17.63,17.63,0,0,1,3-4.14l-.24.17"/><path class="cls-1" d="M18.58,59.06a25.59,25.59,0,0,1,2.59-3.92"/><path class="cls-1" d="M18.85,66.24a43.39,43.39,0,0,1,3.62-5.79"/><path class="cls-1" d="M20.52,71.61q1.73-2.51,3.58-4.92c.09-.12.35-.2.35,0"/><path class="cls-1" d="M22.15,77.38q1.95-2.71,4-5.32"/><path class="cls-1" d="M23.79,84.25a38.87,38.87,0,0,1,4.14-5.44"/><path class="cls-1" d="M25.48,90.45a7.29,7.29,0,0,0,1.06-1.34,25.17,25.17,0,0,1,3.86-4.4L30,84.9"/><path class="cls-1" d="M28.12,96.25a35,35,0,0,1,4.24-4.82s.07-.06.1,0,0,.09,0,.07"/><path class="cls-1" d="M35,97a36.56,36.56,0,0,0,3.62-5.36"/><path class="cls-1" d="M41.2,40.84a25.08,25.08,0,0,1,5.88-3.73"/><path class="cls-1" d="M39.14,47.2,45.77,43"/><path class="cls-1" d="M37.8,52.68q3.3-2.54,6.83-4.78s.11-.08.08-.14-.12,0-.06,0"/><path class="cls-1" d="M36.88,58.07q3.35-2.55,6.75-5l-.6.05"/><path class="cls-1" d="M37.34,62.89A36.7,36.7,0,0,1,42,59.3l-.42-.06"/><path class="cls-1" d="M54,53.54l2.8-1.92c.14-.1.37-.18.47,0"/><path class="cls-1" d="M51.94,60.91A19.3,19.3,0,0,1,57,56.76"/><path class="cls-1" d="M51.66,68.28q2.87-2.43,5.76-4.82"/><path class="cls-1" d="M51.82,74.28q2.73-3.09,5.73-5.94"/><path class="cls-1" d="M51.55,81.92c1.54-2.48,4.23-4,6-6.34l-.61.5"/><path class="cls-1" d="M52.38,88.6a46.25,46.25,0,0,1,5-4.5l-.36.31"/><path class="cls-1" d="M52.39,95.78A39.32,39.32,0,0,1,57,91.08"/><path class="cls-1" d="M58.31,96.62q2.32-2.71,4.81-5.28"/><path class="cls-1" d="M63.23,97a34.8,34.8,0,0,1,4.57-5.11"/><path class="cls-3" d="M6.29,31.41c-.36,12,.26,48,.16,60,0,.52,3.69,1,11.71-.08,1.1-.14-.08-49-.08-49S30.9,89.82,32.95,91.28c.84.61,9.54.51,9.63.13C44.94,80.85,57.5,41.7,57.5,41.7s-.43,43.29.07,49.52c.06.78,10.75.52,14.06-.12.75-.15.54-53,0-59.73a146.84,146.84,0,0,0-21.87,0c-1.15.07-10.5,38.16-10.5,38.16s-10.58-38-11-38.16c-.66-.21-18.41-.36-22,0"/><path class="cls-4" d="M5.79,31.41c-.3,10.66-.09,21.35,0,32q.07,8.91.14,17.82,0,3.47,0,6.94c0,1-.45,3,.31,3.82s2.91.5,3.76.5c1.54,0,3.08-.1,4.61-.24,1-.09,3.15.14,3.85-.51.87-.82.53-3.44.56-4.49.24-8.37,0-16.77-.08-25.14q-.15-9.86-.39-19.71l-1,.13c4,14.68,7.84,29.5,12.77,43.9.48,1.39,1,4.29,2.29,5.24s3.79.53,5.14.54c1.14,0,4,.44,5-.33.77-.6.89-2.86,1.13-3.78.56-2.12,1.16-4.24,1.77-6.35C47.2,76.48,48.79,71.23,50.4,66Q54.12,53.89,58,41.83l-1-.13q-.11,11.21-.15,22.42c0,5.65,0,11.31,0,17,0,2.1,0,4.2.07,6.3,0,1-.3,3,.15,3.9s2.22.84,3.2.88a68.86,68.86,0,0,0,8.92-.27c1-.09,2.48.09,3-.84a7,7,0,0,0,.19-2.44c.41-9.35.26-18.75.23-28.11,0-9.67.26-19.49-.47-29.14a.52.52,0,0,0-.5-.5,109.9,109.9,0,0,0-13-.35q-3.46.06-6.92.24c-.75,0-1.79-.2-2.39.33a6.13,6.13,0,0,0-1,2.44c-3,8.88-5.05,18.11-7.34,27.19q-1.09,4.34-2.16,8.68h1Q36.43,57.49,33.05,45.6c-1.2-4.23-2.38-8.47-3.69-12.67-.17-.53-.3-1.59-.77-2-.8-.62-3.22-.24-4.14-.26-6-.11-12.19-.42-18.17.19-.63.07-.64,1.07,0,1a137.11,137.11,0,0,1,15.32-.23,41.12,41.12,0,0,1,6.18.14c.65.11-.06-.42.21.14a10.13,10.13,0,0,1,.47,1.46c2.81,9.1,5.29,18.32,7.87,27.49q1.23,4.37,2.44,8.75a.5.5,0,0,0,1,0c2.71-11.05,5.4-22.14,8.63-33.05.31-1.06.63-2.12,1-3.17a4.24,4.24,0,0,1,.42-1.15c.59-.74-.32-.13,1-.48,1.6-.45,3.77-.19,5.44-.24q2-.06,4-.08c2.41,0,4.83,0,7.24.1a20.36,20.36,0,0,0,3.6.21,1.88,1.88,0,0,1,.61.05c-.79-.2-.28-.4-.39.46-.26,2.06.15,4.47.2,6.55q.44,21.93.14,43.88c0,2.2-.05,4.42-.18,6.62,0,.33.08,1.15-.12,1.43.1-.13-1.12,0-1.54.06-1,.11-2.1.17-3.15.23-2,.1-4,.16-6,.09-1.46-.05-2.37.24-2.49-.84a71.5,71.5,0,0,1-.15-7.29c-.13-13.78,0-27.57.14-41.35a.5.5,0,0,0-1-.13C52.08,57,47,72.38,42.9,88c-.2.76-.38,1.53-.58,2.3s0,.73-1.08.82a36.37,36.37,0,0,1-6.75,0c-1.23-.13-1.34-.22-1.81-1.27s-.9-2.32-1.3-3.49c-2.83-8.23-5.16-16.64-7.53-25q-2.7-9.51-5.29-19a.5.5,0,0,0-1,.13c.32,13.13.6,26.26.55,39.39,0,2.66,0,5.35-.19,8-.14,1.78-.53,1.17-2.48,1.37a32.85,32.85,0,0,1-7.54.23c-.93-.13-.77,0-1-.66A11.27,11.27,0,0,1,7,88q0-3.22,0-6.45,0-8.22-.13-16.43c-.09-11.22-.33-22.46,0-33.68a.5.5,0,0,0-1,0Z"/><path class="cls-2" d="M254.42,92.38c-.55-6.81.23-14.07-.32-20.89,0-.28-3.63,0-5.24,0a.61.61,0,0,1-.63-.41C245.57,59,237.51,27.9,236,23.16a.82.82,0,0,0-.84-.52c-5.07.25-20.51-.47-20.74.18-1.06,3.06-2.43,8.4-3.06,11.25-.91,4.07-6.69,28.83-9,37.7-1.78-.16-3.74-.27-5.6-.31a.64.64,0,0,0-.64.75c1.11,6.92-.13,13.85,0,22.17a.83.83,0,0,0,1,.81l7.7.14a.56.56,0,0,0,.58-.61c-.26-3,1.4-9,1.4-12,0-1.07,36.28-.15,36.56,0s1.2,7.81,1.71,12.17a.58.58,0,0,0,.63.51c2.33-.23,8.35.47,8.66,0A8.43,8.43,0,0,0,254.42,92.38ZM232.36,71.44c-6.21-.6-11.54.14-17.89.14,2.24-10.57,6.68-37.09,8.29-37.43.52-.11,2.39-.38,2.54.29.59,2.53,6.65,33.7,7.71,36A.66.66,0,0,1,232.36,71.44Z"/><path class="cls-1" d="M214.84,22.53a45.83,45.83,0,0,0-6.15,3.9c-.3.31-8.82,29.63-10.92,45"/><path class="cls-1" d="M205.15,95.17a34.57,34.57,0,0,1-3.46,4c-.26.13-10.75-.23-10.91-.44s.78-21.68,1.05-22.25c.72-1.52,3-3.68,4.26-4.68"/><path class="cls-1" d="M205.92,87.5c2.88-1.38,29.92-.46,31.15.59,1.62,1.38,1.75,9.71,1.88,11.53,0,.54,12,1.24,12.75.56,1.35-3,1.33-2,2.68-5"/><path class="cls-1" d="M220,42.34a146.78,146.78,0,0,1,6.7,29.16"/><path class="cls-1" d="M207.11,31.66a43.27,43.27,0,0,1,4.53-2.84,2.13,2.13,0,0,1,.87-.31l-.12.18"/><path class="cls-1" d="M205.72,37a17.4,17.4,0,0,1,3.52-2.44l1.75-1s.09,0,.13,0,0,.09,0,0"/><path class="cls-1" d="M204,42.82a18.31,18.31,0,0,0,2-1.45,13.91,13.91,0,0,1,3.86-2"/><path class="cls-1" d="M202.72,47.61l5.16-3.18a1.25,1.25,0,0,1,1.06-.27"/><path class="cls-1" d="M201.53,53.08a22.33,22.33,0,0,1,6.11-3.1.18.18,0,0,0,.11-.08s0-.11-.07-.09"/><path class="cls-1" d="M200,59.22q2.07-1.29,4.23-2.45a5,5,0,0,1,1.91-.7l-.31,0"/><path class="cls-1" d="M199.17,64.25l4.82-3.1.85-.54"/><path class="cls-1" d="M197.9,70l5.8-3.7"/><path class="cls-1" d="M220.63,40.58a51.31,51.31,0,0,1,5-4.13"/><path class="cls-1" d="M221.61,47.28a62.07,62.07,0,0,1,5.13-4.91l-.23.12"/><path class="cls-1" d="M223.23,52.92l5-5.09"/><path class="cls-1" d="M224.69,59.36a15.18,15.18,0,0,1,1.2-1.48L229.63,54"/><path class="cls-1" d="M225.55,64.25l5-4.77"/><path class="cls-1" d="M226.58,70.34a31.81,31.81,0,0,1,5.21-5.23l-.48.38"/><path class="cls-1" d="M191.47,81.16a15.17,15.17,0,0,1,5-4.13"/><path class="cls-1" d="M191.26,86.38a13.92,13.92,0,0,1,3.28-3.13,7.45,7.45,0,0,1,1.9-1l-.25.1"/><path class="cls-1" d="M190.83,91.38a19.6,19.6,0,0,1,5.4-4.31"/><path class="cls-1" d="M190.76,96.27a12.1,12.1,0,0,1,4.47-3.67,1.21,1.21,0,0,1,.71-.19"/><path class="cls-1" d="M194.21,99a22.1,22.1,0,0,0,4-3.89"/><path class="cls-1" d="M199.54,99.34a19.8,19.8,0,0,0,3.55-4"/><path class="cls-1" d="M206.62,87.38c0-.12.06-.23.14-.32L210,83.56c.52-.57.67-.75,1.22-1.3"/><path class="cls-1" d="M213.16,86.8a13,13,0,0,1,1.75-2.17c.77-.92,1-1.51,1.74-2.43"/><path class="cls-1" d="M218.49,86.79a36.89,36.89,0,0,0,4-4.53"/><path class="cls-1" d="M223,86.92a41.31,41.31,0,0,0,4.14-4.63"/><path class="cls-1" d="M227.94,87a39.14,39.14,0,0,0,4.36-4.76"/><path class="cls-1" d="M233.44,87.47c1.13-1.8,3.17-3.06,4.09-5"/><path class="cls-1" d="M237.16,88.59a34.82,34.82,0,0,0,5.53-5.72"/><path class="cls-1" d="M238.5,94.37q3.14-2.32,6-4.94"/><path class="cls-1" d="M238.94,99.62a49.69,49.69,0,0,0,5.8-5.57"/><path class="cls-1" d="M243.83,100.29a24.69,24.69,0,0,0,4.54-4.92"/><path class="cls-1" d="M249,100.3a12.65,12.65,0,0,1,1.91-2.41,6.5,6.5,0,0,0,1.6-2.59"/><path class="cls-1" d="M265,22.3c-2.32,1.87-7.39,5.74-7.53,6s-.51,58.07-.15,58.62c.55.85,14.89,1,16.19.51s4.15-3.37,5.41-5"/><path class="cls-1" d="M278.25,37.51c2.7.13,11.73.65,13.13,1.53s2,2.93,2,4.57a12.46,12.46,0,0,1-1,4.41"/><path class="cls-1" d="M264.92,25.38q-3.85,3.84-7.79,7.59"/><path class="cls-1" d="M257.38,39.1l7.94-6.82"/><path class="cls-1" d="M257.12,44.77c2.5-2.06,4.83-3.85,7.46-5.75"/><path class="cls-1" d="M257.32,51.65q3.66-3.11,7.53-6"/><path class="cls-1" d="M257.15,58.12l7.48-5.91"/><path class="cls-1" d="M257.11,65.58l7.45-5.82"/><path class="cls-1" d="M257.2,72.28a62.72,62.72,0,0,0,7.4-6.1"/><path class="cls-1" d="M257.15,79.09c2.7-2,4.75-3.63,7.27-5.85"/><path class="cls-1" d="M257.23,85.31l7.33-5.81"/><path class="cls-1" d="M263.47,87.44q3.33-2.52,6.46-5.3"/><path class="cls-1" d="M270.81,87.64a51.12,51.12,0,0,1,5.66-5.21"/><path class="cls-1" d="M278.35,36.43a20.56,20.56,0,0,1,3.72-3.29"/><path class="cls-1" d="M282.58,37.77a37.65,37.65,0,0,1,5-4.5"/><path class="cls-1" d="M288.55,38.37l4.63-4.23"/><path class="cls-1" d="M292.82,40.89a44.5,44.5,0,0,1,3.64-3.67l-.25.33"/><path class="cls-1" d="M293.18,44.58a37.82,37.82,0,0,1,4.29-3.64"/><path class="cls-2" d="M310.64,34.46c-1.33-5.18-6.37-8.55-11.3-10.64-6.83-2.9-33.68-2.21-34.38-1.52s-.56,56.35-.08,59.75c4,.68,13.93.15,14.17,0s-.28-15.15-.31-22c4.36-.65,8.08-.31,12-.31,7.31,0,15.2-3.21,18.46-9.75A25.41,25.41,0,0,0,310.64,34.46ZM297,43c-.34.94-.88,2.74-1.71,3.31-3,2.09-6,2.37-9.63,2.5-2.5.09-4.59-.25-7.08,0,0-1.95-.74-16,.1-15.9.64,0,10.56.38,12.51.73a6.88,6.88,0,0,1,6.09,7.1A9.09,9.09,0,0,1,297,43Z"/><path class="cls-2" d="M336.12,65.45c1.24,2.26-1.77,7.08-4.28,7.94a17,17,0,0,1-7.87.23,2.34,2.34,0,0,0-1.29.05c-.84.38-.92,1.53-.86,2.45l.54,8.82c0,.3,13,.52,17-2.89a21.93,21.93,0,0,0,5.54-6.29c2.7-5.44,18.31-44.63,21-49.88a.4.4,0,0,0-.34-.59c-3.63-.12-12,.15-12.6.76-.38.42-7.77,20.3-10.18,25.63C338.64,43.54,330.34,25.52,330,25.3s-14.11-.79-14.68,0c-.9,1.21,4.36,9.34,5.07,10.74C324.37,43.81,335.62,64.54,336.12,65.45Z"/><path class="cls-1" d="M315.35,25.28c-1.22,2.38-3.2,5-2.78,7.65.13.79,16,31,21.33,38.93"/><path class="cls-1" d="M322.33,74.07a52.14,52.14,0,0,0-5.15,3.74c-.22.41.76,9.89,1.46,10.3.4.23,12.84.5,17.17-2.21a20.34,20.34,0,0,0,5.59-5.64"/><path class="cls-1" d="M353,26c-1.64.84-3.7,1.55-5.33,2.39-.57.29-5.73,13.16-7.07,18.44"/><path class="cls-1" d="M317.15,29.86,314.31,36"/><path class="cls-1" d="M316.42,40.25a4,4,0,0,1,.69-1.49q1.32-2,2.79-4"/><path class="cls-1" d="M318.69,44.67a40.9,40.9,0,0,1,3.23-5.76"/><path class="cls-1" d="M320.95,49.51l3.69-5.71"/><path class="cls-1" d="M323.48,53.81A38.39,38.39,0,0,1,327,49.17"/><path class="cls-1" d="M325.66,57.73a60.84,60.84,0,0,1,3.63-5.14"/><path class="cls-1" d="M327.82,61.54,331.69,57"/><path class="cls-1" d="M329.81,65.46q1.84-2.36,3.82-4.61"/><path class="cls-1" d="M332.33,69.07a40.81,40.81,0,0,0,3.47-4.29"/><path class="cls-1" d="M345.76,33.13l4.92-2.55a.83.83,0,0,0,.4-.33"/><path class="cls-1" d="M343.52,38.91A46.77,46.77,0,0,1,349,35.73s.05,0,0-.06-.06,0,0,0"/><path class="cls-1" d="M341.5,43.87q2.61-1.28,5.3-2.4"/><path class="cls-1" d="M341.21,47.95q2.08-1.24,4.11-2.55s.08-.05.08-.1-.07-.08-.08,0"/><path class="cls-1" d="M317.57,81.8a25.84,25.84,0,0,1,4.26-3.18"/><path class="cls-1" d="M318.18,86.24a18.55,18.55,0,0,1,4.08-3.43"/><path class="cls-1" d="M321.59,88.48a36.32,36.32,0,0,1,3.36-3.15"/><path class="cls-1" d="M327.3,88.27q1.39-1.88,2.94-3.64"/><path class="cls-1" d="M332.79,87.06a10.29,10.29,0,0,1,1.89-2.9"/><path class="cls-2" d="M379.65,44.63a15.54,15.54,0,0,1,1.51-4.38c3-4.09,8.84-4.26,12.94-3.31s6.2,3.91,5.69,8.09a7.61,7.61,0,0,1-1.64,3.67,6.89,6.89,0,0,1-2.28,1.54,12.49,12.49,0,0,1-7.72.5.5.5,0,0,0-.59.47c-.1,3,0,5.2.11,8.1a.56.56,0,0,0,.63.54,19.39,19.39,0,0,1,8.61.73A6.58,6.58,0,0,1,401,66.35c.19,2.88-1.64,6.88-3.66,7.94a30.2,30.2,0,0,1-8,1.69c-.86-.09-7.91-.31-9.34-8.9a1.47,1.47,0,0,0-.51-1.07,117.22,117.22,0,0,0-13.34,2c.28,5.14,4.74,11.13,6.48,13.16C376,85,383.31,86.57,388.32,87a30.71,30.71,0,0,0,12.63-1.12,21.17,21.17,0,0,0,9-4.67,18.83,18.83,0,0,0,5.7-11.08,18.29,18.29,0,0,0-1.75-8.94c-1.62-3.37-6.78-5.27-11-6.92a32,32,0,0,0,6.46-3.53,11.18,11.18,0,0,0,4.22-5.88,14.4,14.4,0,0,0,.08-6.45A15.36,15.36,0,0,0,410.32,32c-5.85-6.94-15.23-7.06-23.53-6.52a23.9,23.9,0,0,0-7.4,1.64,16.69,16.69,0,0,0-8.62,8.12,36.21,36.21,0,0,0-1.87,6.61,1.07,1.07,0,0,0,.91,1.3S379.6,45,379.65,44.63Z"/><path class="cls-1" d="M387.73,59.54c.83.93,2.68,4,3,4.2s3.95-1.14,6.39,2.27c1.53,2.14.68,8.25.69,8"/><path class="cls-1" d="M366,68c-1.33,1.37-4.92,4.9-5.09,5.52a3.82,3.82,0,0,0,.07,1.78c1.51,7.61,8.93,14,13,16.09,1.85.94,8.66,2.65,12.54,2.25,5.71-.59,9.56-1.31,15.31-4.58,2.12-1.21,4.31-3.48,7.09-7"/><path class="cls-1" d="M376.76,28.49c-4.25,2.1-9.12,5.35-11.5,9.45-.94,1.62-2,8.46-1.37,9.63s12.77,1.05,13,1a37.47,37.47,0,0,0,2.76-3.9"/><path class="cls-1" d="M383.06,38.39c2.15-.52,6.3.27,8.33,1.17a5.83,5.83,0,0,1,3.51,4.71,25.56,25.56,0,0,1,0,6"/><path class="cls-1" d="M372.25,48.13q1.05-2,2.18-3.94"/><path class="cls-1" d="M368,48.3a32.63,32.63,0,0,1,2.68-4.91"/><path class="cls-1" d="M364,46.35A48.3,48.3,0,0,1,369.16,41"/><path class="cls-1" d="M364.44,40.13a72.5,72.5,0,0,1,6.11-5"/><path class="cls-1" d="M395,47.45a58.23,58.23,0,0,1,4.87-4.63"/><path class="cls-1" d="M393.46,40.89a13.72,13.72,0,0,1,3.13-3.2.07.07,0,0,1,0,.12"/><path class="cls-1" d="M398.25,69.75a39.73,39.73,0,0,1,2.81-2.94"/><path class="cls-1" d="M396.9,65.7A28,28,0,0,1,399,61.86"/><path class="cls-1" d="M394.82,59.82q-1,1.72-1.83,3.49"/><path class="cls-1" d="M362.71,79.39q2.6-2.69,5.16-5.4"/><path class="cls-1" d="M366.71,85.52q2.43-2.87,5.09-5.54"/><path class="cls-1" d="M372.35,90.23q2.33-3,4.59-6.05"/><path class="cls-1" d="M378.93,92.74q2.15-3.36,4.44-6.63"/><path class="cls-1" d="M386.8,93.49q2-3.25,4.25-6.32"/><path class="cls-1" d="M394.95,92a27,27,0,0,0,2.81-5.26s0-.08.07-.09.08,0,0,.07"/><path class="cls-1" d="M403,85.38a18.08,18.08,0,0,1-.54,3.38"/><path class="cls-1" d="M478.52,31.05c.06,0,0-.11,0-.06-.24.37-.52.72-.79,1.07-1.59,2.05-2.92,3.93-4.51,6"/><path class="cls-1" d="M478.2,38.47A41.08,41.08,0,0,0,473,44.22"/><path class="cls-1" d="M478.56,44c-1.82,2.63-3.58,5-5.56,7.53"/><path class="cls-1" d="M478.51,52.94l-5.45,6.8"/><path class="cls-1" d="M478.53,60.21,473,67.11"/><path class="cls-1" d="M478.28,69q-2.63,2.8-5,5.79"/><path class="cls-1" d="M477.92,75.19c-1.7,1.89-2.95,3.5-4.54,5.48"/><path class="cls-1" d="M478.35,82a61.63,61.63,0,0,0-5,6.15"/><path class="cls-1" d="M481.15,85.38c-1.37,2-3,4.46-4.3,6.49"/><path class="cls-1" d="M486.73,85.58a60.42,60.42,0,0,0-4,6.79"/><path class="cls-1" d="M499,33.42l8.63-2.64"/><path class="cls-1" d="M494.95,38.86a60.33,60.33,0,0,1,8.85-2.19"/><path class="cls-1" d="M492.56,45.21c2.34-.68,5-1.38,7.35-2.09"/><path class="cls-1" d="M492.57,49.75a26.3,26.3,0,0,0,3.66-.77"/><path class="cls-1" d="M498.2,71.32c1.28-1.36,3.84-4.24,5.15-5.56"/><path class="cls-1" d="M500.77,76.36a34,34,0,0,1,4.77-6.13"/><path class="cls-1" d="M503.5,82.3a30.35,30.35,0,0,1,5.32-6.45"/><path class="cls-1" d="M506.79,88.91a2.8,2.8,0,0,1,.54-.89q2.17-2.71,4.39-5.37"/><path class="cls-1" d="M512.64,91.71q2.09-2.79,4.22-5.56"/><path class="cls-1" d="M519,91.72c1-1.62,2.32-3.73,3.31-5.35l.25-.41"/><path class="cls-1" d="M478.88,25.63c-1.25,1.5-5.2,6-5.6,6.93s-.47,58.4.53,58.78c.62.23,11.37,2,14.13.25,1.11-.72,3.84-4.92,4.55-6"/><path class="cls-1" d="M510.68,26.08c-2.33.54-5.12.88-7.45,1.42-.48.11-7.88,10.89-10.55,14.88"/><path class="cls-1" d="M496.16,66.32c1.84,4.36,11.42,24.68,11.76,25s15.31.51,15.82.22,4-4.83,4-6.29"/><path class="cls-2" d="M478.4,84.83a.76.76,0,0,0,1.07.63c1.46-.6,12.68.48,12.89.17s-.2-12.79,0-13.37a149.78,149.78,0,0,1,8.54-12.58C503.75,68.48,510,77,513.14,85.73c4.59.73,9.27-.09,13.87,0a.66.66,0,0,0,.62-1c-5.06-10.36-16.58-35.28-17.38-36.94-.34-.7,9.19-14,13.28-21a.54.54,0,0,0-.39-.8,47.75,47.75,0,0,0-10.89-.27,4,4,0,0,0-1.59.38c-.7.38-11.69,19.56-18.3,27.86-.06-7.72,1.23-26.33,0-28-.62-.84-11.4-.38-13.65-.17C478.22,25.85,477.67,73.86,478.4,84.83Z"/></g></g></svg>