<svg xmlns="http://www.w3.org/2000/svg" viewBox="0 0 607.77 79.77"><defs><style>.cls-1{fill:none;}.cls-1,.cls-2{stroke:#000105;stroke-miterlimit:10;}.cls-2,.cls-4{fill:#fff;}.cls-3{fill:#000105;}</style></defs><title>myfellows_ru</title><g id="Слой_2" data-name="Слой 2"><g id="Слой_4" data-name="Слой 4"><path class="cls-1" d="M460.13,23.4c2-1.9,5.13-2,7.92-2,1.42,0,3,.08,3.94,1.17a4.44,4.44,0,0,1,.79,1.79,23.79,23.79,0,0,1,.64,8"/><path class="cls-1" d="M465.16,48.79c1.28-.28,7.64-.47,8.36.62s-.29,22,1.68,23.18c1,.63,14.62.48,15,.3a26.57,26.57,0,0,0,4.12-7.14"/><path class="cls-1" d="M447.66,15.77c-9.4,16.29,1.67,23.94,1.85,25,.43,2.4-13.91,27.6-12.25,29.35,1.17,1.24,16,2.72,16.34,2.42a22.41,22.41,0,0,0,5.13-6.21"/><path class="cls-1" d="M443.93,30.72q1.16-1.91,2.41-3.76"/><path class="cls-1" d="M446.19,36.13q1.35-1.9,2.73-3.78s.08-.1.14-.09.07.12,0,.11"/><path class="cls-1" d="M449,40.32a28.28,28.28,0,0,1,2.71-3.75"/><path class="cls-1" d="M447.8,45.57a59.17,59.17,0,0,1,7.59-3.63.35.35,0,0,1-.33.21"/><path class="cls-1" d="M444.77,51.91c1.73-1.08,3.11-2,4.84-3.09a16.26,16.26,0,0,1,2.79-1.42"/><path class="cls-1" d="M441.95,57.9c1.05-.55,1.65-1,2.7-1.52A12.06,12.06,0,0,1,449,54.79"/><path class="cls-1" d="M438.86,64.45a23.58,23.58,0,0,1,6.78-2.87"/><path class="cls-1" d="M438.7,70.6a43.48,43.48,0,0,1,6.48-4.54l-.21.18"/><path class="cls-1" d="M444.62,71.54c0-.27.54-.72.75-.9l5.46-4.79"/><path class="cls-1" d="M450.85,72.31a2.69,2.69,0,0,1,.77-.93c1.74-1.54,3.86-3.26,5.6-4.79"/><path class="cls-1" d="M466.14,48.57a49.41,49.41,0,0,0,6.81-5.79,1.17,1.17,0,0,1,.87-.47"/><path class="cls-1" d="M473.33,49.22c2.06-1.87,4.77-4.44,6.83-6.3"/><path class="cls-1" d="M473.65,56.17a47.32,47.32,0,0,1,6.55-6"/><path class="cls-1" d="M473.91,62.2a42.08,42.08,0,0,1,6.3-5.72"/><path class="cls-1" d="M474.13,68.48l6-5.75"/><path class="cls-1" d="M476.45,73l6.75-6.73"/><path class="cls-1" d="M484.32,72.85a67.81,67.81,0,0,0,5.26-7.3l-.37.18"/><path class="cls-1" d="M463,22.16a1.81,1.81,0,0,1,.73-1.21q1.87-1.75,3.83-3.42"/><path class="cls-1" d="M469.79,21.31a23.77,23.77,0,0,1,4.78-4.21"/><path class="cls-1" d="M473.11,24.71q3.6-3.17,7.45-6"/><path class="cls-1" d="M473.33,29.44q3.25-2.6,6.64-5"/><path class="cls-1" d="M476.19,32.45a35,35,0,0,1,4.29-3.31.23.23,0,0,0-.25-.06"/><path class="cls-2" d="M493.69,6.35c-.3-.24-28.14.12-30.4.37A26.2,26.2,0,0,0,454.34,9a16.06,16.06,0,0,0-8.52,14.42c0,6,3.09,12.53,8.44,15.19.86.43,2.08.38,2,1.33a2.24,2.24,0,0,1-.33.85,219.8,219.8,0,0,0-11.74,24.62.64.64,0,0,0,.7.86c4.79-.75,13.39.54,13.68.36s5.2-15.84,8.85-22.74a1.82,1.82,0,0,1,.51-.68,1.84,1.84,0,0,1,1-.24l11.28-.72c-.1,4.87,0,24,.18,24.21s9.88-.1,13.74-.1C494.87,64.79,494,6.63,493.69,6.35ZM480.27,32.44a128.37,128.37,0,0,1-15-.62c-1-.13-3.83-1.73-4.48-3.85a9.6,9.6,0,0,1-.66-3.69,8.4,8.4,0,0,1,2.5-5.33c1.77-1.88,15.24-2.16,17-2C480.8,17.13,480.15,28.7,480.27,32.44Z"/></g><g id="Слой_5" data-name="Слой 5"><path class="cls-2" d="M558.84,63.33c.33.23,13.18.47,13.38.08s-.29-3.27.11-4.42S593,29,593.38,25.48C592.29,37,594.66,50.13,593,61.71a1.22,1.22,0,0,0,1.14,1.41c3.33.17,9.15,1,12.78.51.13-18.66.88-58.36-.12-59.91-.37-.57-13-1-13.56.13s0,3.39-.16,5.17c-.15,1.22-14.62,23-20.16,31.74a.35.35,0,0,1-.64-.22c.85-11.38,1-36.07.4-36.69-.83-.9-12.51-.6-13.2,0C558.28,5,558.38,63,558.84,63.33Z"/><path class="cls-1" d="M559.44,3.87c-1,1-5.87,5.51-5.9,6.18-.88,19-1,37.25-1,56.51a1.1,1.1,0,0,0,.84,1.07c5.26,1.32,15.42,1.08,15.63.73,1.07-1.72,2.57-3,3.25-4.95"/><path class="cls-1" d="M587.14,36.55c0,8,.37,31.38.58,31.56s11.78,1.15,12.59,1a9,9,0,0,0,6.56-5.49"/><path class="cls-1" d="M593.2,3.83c-1.94.79-5.31,2.54-6.06,4.5-.33.87-.73,8.13-.73,11.51"/><path class="cls-1" d="M553.28,16a40,40,0,0,1,5.65-5"/><path class="cls-1" d="M553.28,21.58a27.79,27.79,0,0,1,5.26-4.84"/><path class="cls-1" d="M553.09,27.06c1.7-1.59,4.11-3.86,5.71-5.56"/><path class="cls-1" d="M552.75,35.06c1.83-2,3.94-4,5.77-6"/><path class="cls-1" d="M552.64,41.76a76.85,76.85,0,0,1,6-5.89"/><path class="cls-1" d="M552.51,49.3c1.79-1.79,4.25-3.68,6-5.47"/><path class="cls-1" d="M552.38,56.77c2-2.16,4.34-4.26,6.29-6.15"/><path class="cls-1" d="M552.55,65a69.19,69.19,0,0,1,6.18-6.57"/><path class="cls-1" d="M557,68.25a64.27,64.27,0,0,0,4.15-4.92"/><path class="cls-1" d="M564,68.61l3.45-3.89a9.81,9.81,0,0,1,1.18-1.11"/><path class="cls-1" d="M586.49,13.5a62.84,62.84,0,0,1,6.46-6.36"/><path class="cls-1" d="M598,68.85a64.86,64.86,0,0,1,4.11-5.29"/><path class="cls-1" d="M592,68.57l4.83-5.24"/><path class="cls-1" d="M587.57,65a30.3,30.3,0,0,1,5.89-7"/><path class="cls-1" d="M587.42,55.87l3.71-4.06a8.91,8.91,0,0,1,2.46-2.08"/><path class="cls-1" d="M587.26,47.44a5,5,0,0,1,.95-1.5,36.71,36.71,0,0,1,5.17-5.74"/><path class="cls-1" d="M587.14,39.72a44.44,44.44,0,0,1,6-7.85"/><path class="cls-2" d="M140.74,68.89c.33.23,13.18.47,13.38.08s-.29-3.27.11-4.42,20.66-30,21.06-33.51c-1.09,11.56,1.28,24.65-.41,36.23A1.22,1.22,0,0,0,176,68.67c3.33.17,9.15,1,12.78.51.13-18.66.88-58.36-.12-59.91-.37-.57-13-1-13.56.13s0,3.39-.16,5.17c-.15,1.22-14.62,23-20.16,31.74a.35.35,0,0,1-.64-.22c.85-11.38,1-36.07.4-36.69-.83-.9-12.51-.6-13.2,0C140.18,10.52,140.27,68.56,140.74,68.89Z"/><path class="cls-1" d="M141.33,9.43c-1,1-5.87,5.51-5.9,6.18-.88,19-1,37.25-1,56.51a1.1,1.1,0,0,0,.84,1.07c5.26,1.32,15.42,1.08,15.63.73,1.07-1.72,2.57-3,3.25-4.95"/><path class="cls-1" d="M169,42.11c0,8,.37,31.38.58,31.56s11.78,1.15,12.59,1a9,9,0,0,0,6.56-5.49"/><path class="cls-1" d="M175.1,9.39c-1.94.79-5.31,2.54-6.06,4.5-.33.87-.73,8.13-.73,11.51"/><path class="cls-1" d="M135.18,21.56a40,40,0,0,1,5.65-5"/><path class="cls-1" d="M135.18,27.14a27.79,27.79,0,0,1,5.26-4.84"/><path class="cls-1" d="M135,32.62c1.7-1.59,4.11-3.86,5.71-5.56"/><path class="cls-1" d="M134.64,40.62c1.83-2,3.94-4,5.77-6"/><path class="cls-1" d="M134.54,47.32a76.85,76.85,0,0,1,6-5.89"/><path class="cls-1" d="M134.4,54.85c1.79-1.79,4.25-3.68,6-5.47"/><path class="cls-1" d="M134.28,62.32c2-2.16,4.34-4.26,6.29-6.15"/><path class="cls-1" d="M134.45,70.56A69.19,69.19,0,0,1,140.63,64"/><path class="cls-1" d="M138.94,73.81a64.27,64.27,0,0,0,4.15-4.92"/><path class="cls-1" d="M145.94,74.16l3.45-3.89a9.81,9.81,0,0,1,1.18-1.11"/><path class="cls-1" d="M168.38,19.06a62.84,62.84,0,0,1,6.46-6.36"/><path class="cls-1" d="M179.9,74.41A64.86,64.86,0,0,1,184,69.12"/><path class="cls-1" d="M173.88,74.12l4.83-5.24"/><path class="cls-1" d="M169.47,70.56a30.3,30.3,0,0,1,5.89-7"/><path class="cls-1" d="M169.32,61.42,173,57.36a8.91,8.91,0,0,1,2.46-2.08"/><path class="cls-1" d="M169.15,53a5,5,0,0,1,.95-1.5,36.71,36.71,0,0,1,5.17-5.74"/><path class="cls-1" d="M169,45.28a44.44,44.44,0,0,1,6-7.85"/><path class="cls-1" d="M137.07,22.17"/><path class="cls-1" d="M552.94,17.09"/><path class="cls-3" d="M100.37,25.07c3.87-3.11,7.91-.25,8.61,4.06a49.28,49.28,0,0,1,.24,10.1c-.32,6.75-1.36,13.47-1.37,20.23l1-.13a1.65,1.65,0,0,0-.47-.8c-.45-.47-1.15.24-.71.71l.21.36a.5.5,0,0,0,1-.13c0-9.6,2.1-19.14,1.3-28.76-.22-2.61-.74-5.19-2.94-6.85-2.49-1.88-5.24-1.35-7.55.51-.5.4.21,1.11.71.71Z"/><path class="cls-3" d="M93.92,12a24.58,24.58,0,0,0-6.52,4.42A29.8,29.8,0,0,0,81,23.53C76.85,30.17,75.18,38.28,75.21,46c0,13.4,8.8,27,22.58,29.62,8.6,1.64,15.85-2.51,22.08-8.07.48-.43-.23-1.13-.71-.71-5.56,5-12,9-19.79,8a25.78,25.78,0,0,1-16-9C74.27,55.34,74.34,39.19,80.2,27a27.6,27.6,0,0,1,6.51-8.74c2.2-2,4.69-4.29,7.48-5.36.59-.23.34-1.2-.27-1Z"/><path class="cls-1" d="M86.7,20.06l-5,3.27"/><path class="cls-1" d="M84.24,25.88c0,.08.14-.06.07-.1s-.16,0-.22.05l-4.95,3.66a3.54,3.54,0,0,0-1,.92"/><path class="cls-1" d="M82.31,32.64l-5.87,4.75"/><path class="cls-1" d="M81.77,38.74l-6.06,5.46"/><path class="cls-1" d="M82.14,45.47c-2.18,2-4,3.76-6,5.85"/><path class="cls-1" d="M83.19,52.52l-5.44,5"/><path class="cls-1" d="M85.69,57.4l-5.22,5.32"/><path class="cls-1" d="M90.07,63,85,67.93"/><path class="cls-1" d="M95.12,67Q92.55,69.48,90,72c-.12.12-.36,0-.29-.2a.19.19,0,0,1,.34.08"/><path class="cls-1" d="M100.24,69.45c-1.56,1.52-3.39,3.49-5,5"/><path class="cls-1" d="M106.66,70.57a40.92,40.92,0,0,0-4.19,5"/><path class="cls-1" d="M112.29,70.07a18.79,18.79,0,0,0-2.86,3.79"/><path class="cls-1" d="M109,20.52a1.69,1.69,0,0,0-1,.61l-2.4,2.38"/><path class="cls-1" d="M113.78,22.36q-2.36,2.33-4.54,4.84"/><path class="cls-1" d="M116.28,25.73a81.54,81.54,0,0,0-6.69,6.82"/><path class="cls-1" d="M117.76,31.23A33.43,33.43,0,0,1,114,35.42c-1.43,1.28-3.09,2.37-4.08,4l.08-.5"/><path class="cls-1" d="M118.48,38.19q-5.06,5.34-9.7,11.06"/><path class="cls-1" d="M118,45.21a114.87,114.87,0,0,1-9.31,9.56"/><path class="cls-1" d="M116.18,52.74a66.77,66.77,0,0,0-6.84,6.45"/><path class="cls-4" d="M132.68,39.68c-.42-20.15-10.5-30.3-25-30.88C73.6,7.72,72,69.42,106.88,70.55,123.09,71.08,133,56.44,132.68,39.68Zm-25.12,19.5c-17.4,1.1-13.21-40-.68-38.87,10.14-.83,11,12.68,11.14,14C118.76,44,118.12,58.51,107.56,59.18Z"/><path class="cls-3" d="M133.18,39.68c-.21-7.7-1.7-15.76-6.47-22a24,24,0,0,0-16.07-9.09A24.48,24.48,0,0,0,85.42,21.23c-9.48,17-4.13,46.07,18,49.5a24,24,0,0,0,21.31-6.91c6.11-6.41,8.55-15.46,8.45-24.14a.5.5,0,0,0-1,0c.18,15.12-8.88,31.19-25.79,30.35-10.26-.5-18.32-7.16-22-16.56-6.51-16.71-.08-43.16,21.14-44.15,6.85-.32,13.85,1.94,18.66,6.94,6,6.2,7.75,15.11,8,23.42A.5.5,0,0,0,133.18,39.68Z"/><path class="cls-3" d="M107.56,58.68c-13.47.61-12-20.92-9.24-29.07,1.76-5.22,5-9.94,11.16-8.68s7.71,8.65,8.09,13.92c.56,7.92.77,22.88-10,23.83-.64.06-.64,1.06,0,1,9.91-.88,11.25-12.61,11.18-20.52-.05-5.93-.47-13.83-5.69-17.7a9.89,9.89,0,0,0-9-1.22c-2.37,1-4,3.21-5.18,5.4-3.22,6.14-4.06,13.89-3.12,20.69.89,6.45,4.22,13.7,11.78,13.35C108.2,59.65,108.2,58.65,107.56,58.68Z"/><path class="cls-1" d="M6.29,10.21c-2.47,2.58-5.5,5.17-5.76,6s1.24,58.17,1.79,58.5c.34.21,12.4.25,13.23-.28s2.08-2.76,2.6-4.28"/><path class="cls-1" d="M18.5,43.71c.57,1.83,8.07,29.62,9.14,31,.11.15,10,1.35,11.39.48s2.2-2.78,3.55-5"/><path class="cls-1" d="M51.66,38.34c.07,10.57.11,35,.75,36,.78,1.22,15.3,1.21,15.55.81,1.52-2.45,2.23-3.1,3.76-5.55"/><path class="cls-1" d="M49.76,10.17a63.16,63.16,0,0,0-7.66,5.92c-.39.5-4.74,15.09-5.58,23"/><path class="cls-1" d="M.81,21.34A31,31,0,0,1,5.73,16"/><path class="cls-1" d="M.9,27.26a65.35,65.35,0,0,1,4.84-5.67"/><path class="cls-1" d="M.64,32.57l1.77-1.91A31.44,31.44,0,0,1,5.75,27.4s.1-.07.15,0,0,.13,0,.1"/><path class="cls-1" d="M1,39.7a40.09,40.09,0,0,1,5-5.91"/><path class="cls-1" d="M1.49,45.07a21.47,21.47,0,0,1,4.8-4.93"/><path class="cls-1" d="M1.45,52.88a15.61,15.61,0,0,1,2.67-3.5l1.89-2s.11-.1.16-.07,0,.13,0,.07"/><path class="cls-1" d="M1.7,59Q4,56.26,6.52,53.79"/><path class="cls-1" d="M2.46,66.06a23.68,23.68,0,0,1,4-4.53"/><path class="cls-1" d="M2.06,73.09a38.8,38.8,0,0,1,4-4.3"/><path class="cls-1" d="M6.34,74.69,9.8,70.81"/><path class="cls-1" d="M12.65,74.94a17.63,17.63,0,0,1,3-4.14l-.24.17"/><path class="cls-1" d="M18.58,37.86a25.59,25.59,0,0,1,2.59-3.92"/><path class="cls-1" d="M18.85,45a43.39,43.39,0,0,1,3.62-5.79"/><path class="cls-1" d="M20.52,50.41q1.73-2.51,3.58-4.92c.09-.12.35-.2.35,0"/><path class="cls-1" d="M22.15,56.18q1.95-2.71,4-5.32"/><path class="cls-1" d="M23.79,63.06a38.87,38.87,0,0,1,4.14-5.44"/><path class="cls-1" d="M25.48,69.25a7.29,7.29,0,0,0,1.06-1.34,25.17,25.17,0,0,1,3.86-4.4L30,63.7"/><path class="cls-1" d="M28.12,75.05a35,35,0,0,1,4.24-4.82s.07-.06.1,0,0,.09,0,.07"/><path class="cls-1" d="M35,75.79a36.56,36.56,0,0,0,3.62-5.36"/><path class="cls-1" d="M41.2,19.64a25.08,25.08,0,0,1,5.88-3.73"/><path class="cls-1" d="M39.14,26l6.63-4.22"/><path class="cls-1" d="M37.8,31.48q3.3-2.54,6.83-4.78s.11-.08.08-.14-.12,0-.06,0"/><path class="cls-1" d="M36.88,36.87q3.35-2.55,6.75-5l-.6.05"/><path class="cls-1" d="M37.34,41.69A36.7,36.7,0,0,1,42,38.1L41.61,38"/><path class="cls-1" d="M54,32.34l2.8-1.92c.14-.1.37-.18.47,0"/><path class="cls-1" d="M51.94,39.71A19.3,19.3,0,0,1,57,35.56"/><path class="cls-1" d="M51.66,47.08q2.87-2.43,5.76-4.82"/><path class="cls-1" d="M51.82,53.08q2.73-3.09,5.73-5.94"/><path class="cls-1" d="M51.55,60.73c1.54-2.48,4.23-4,6-6.34l-.61.5"/><path class="cls-1" d="M52.38,67.4a46.25,46.25,0,0,1,5-4.5l-.36.31"/><path class="cls-1" d="M52.39,74.58A39.32,39.32,0,0,1,57,69.89"/><path class="cls-1" d="M58.31,75.42q2.32-2.71,4.81-5.28"/><path class="cls-1" d="M63.23,75.76a34.8,34.8,0,0,1,4.57-5.11"/><path class="cls-4" d="M6.29,10.21c-.36,12,.26,48,.16,60,0,.52,3.69,1,11.71-.08,1.1-.14-.08-49-.08-49S30.9,68.62,32.95,70.09c.84.61,9.54.51,9.63.13C44.94,59.65,57.5,20.5,57.5,20.5s-.43,43.29.07,49.52c.06.78,10.75.52,14.06-.12.75-.15.54-53,0-59.73a146.84,146.84,0,0,0-21.87,0c-1.15.07-10.5,38.16-10.5,38.16s-10.58-38-11-38.16c-.66-.21-18.41-.36-22,0"/><path class="cls-3" d="M5.79,10.21c-.3,10.66-.09,21.35,0,32q.07,8.91.14,17.82Q6,63.52,6,67c0,1-.45,3,.31,3.82s2.91.5,3.76.5c1.54,0,3.08-.1,4.61-.24,1-.09,3.15.14,3.85-.51.87-.82.53-3.44.56-4.49.24-8.37,0-16.77-.08-25.14q-.15-9.86-.39-19.71l-1,.13c4,14.68,7.84,29.5,12.77,43.9.48,1.39,1,4.29,2.29,5.24s3.79.53,5.14.54c1.14,0,4,.44,5-.33.77-.6.89-2.86,1.13-3.78.56-2.12,1.16-4.24,1.77-6.35C47.2,55.28,48.79,50,50.4,44.79Q54.12,32.69,58,20.64l-1-.13q-.11,11.21-.15,22.42c0,5.65,0,11.31,0,17,0,2.1,0,4.2.07,6.3,0,1-.3,3,.15,3.9s2.22.84,3.2.88a68.86,68.86,0,0,0,8.92-.27c1-.09,2.48.09,3-.84a7,7,0,0,0,.19-2.44c.41-9.35.26-18.75.23-28.11,0-9.67.26-19.49-.47-29.14a.52.52,0,0,0-.5-.5,109.9,109.9,0,0,0-13-.35q-3.46.06-6.92.24c-.75,0-1.79-.2-2.39.33a6.13,6.13,0,0,0-1,2.44c-3,8.88-5.05,18.11-7.34,27.19q-1.09,4.34-2.16,8.68h1Q36.43,36.29,33.05,24.4c-1.2-4.23-2.38-8.47-3.69-12.67-.17-.53-.3-1.59-.77-2-.8-.62-3.22-.24-4.14-.26-6-.11-12.19-.42-18.17.19-.63.07-.64,1.07,0,1a137.11,137.11,0,0,1,15.32-.23,41.12,41.12,0,0,1,6.18.14c.65.11-.06-.42.21.14a10.13,10.13,0,0,1,.47,1.46c2.81,9.1,5.29,18.32,7.87,27.49q1.23,4.37,2.44,8.75a.5.5,0,0,0,1,0c2.71-11.05,5.4-22.14,8.63-33.05.31-1.06.63-2.12,1-3.17a4.24,4.24,0,0,1,.42-1.15c.59-.74-.32-.13,1-.48,1.6-.45,3.77-.19,5.44-.24q2-.06,4-.08c2.41,0,4.83,0,7.24.1a20.36,20.36,0,0,0,3.6.21,1.88,1.88,0,0,1,.61.05c-.79-.2-.28-.4-.39.46-.26,2.06.15,4.47.2,6.55q.44,21.93.14,43.88c0,2.2-.05,4.42-.18,6.62,0,.33.08,1.15-.12,1.43.1-.13-1.12,0-1.54.06-1,.11-2.1.17-3.15.23-2,.1-4,.16-6,.09-1.46-.05-2.37.24-2.49-.84a71.5,71.5,0,0,1-.15-7.29c-.13-13.78,0-27.57.14-41.35a.5.5,0,0,0-1-.13C52.08,35.76,47,51.18,42.9,66.82c-.2.76-.38,1.53-.58,2.3s0,.73-1.08.82a36.37,36.37,0,0,1-6.75,0c-1.23-.13-1.34-.22-1.81-1.27s-.9-2.32-1.3-3.49c-2.83-8.23-5.16-16.64-7.53-25q-2.7-9.51-5.29-19a.5.5,0,0,0-1,.13c.32,13.13.6,26.26.55,39.39,0,2.66,0,5.35-.19,8-.14,1.78-.53,1.17-2.48,1.37a32.85,32.85,0,0,1-7.54.23c-.93-.13-.77,0-1-.66a11.27,11.27,0,0,1,0-2.79q0-3.22,0-6.45,0-8.22-.13-16.43c-.09-11.22-.33-22.46,0-33.68a.5.5,0,0,0-1,0Z"/><path class="cls-2" d="M278.42,71.19c-.55-6.81.23-14.07-.32-20.89,0-.28-3.63,0-5.24,0a.61.61,0,0,1-.63-.41C269.57,37.85,261.51,6.7,260,2a.82.82,0,0,0-.84-.52c-5.07.25-20.51-.47-20.74.18-1.06,3.06-2.43,8.4-3.06,11.25-.91,4.07-6.69,28.83-9,37.7-1.78-.16-3.74-.27-5.6-.31a.64.64,0,0,0-.64.75c1.11,6.92-.13,13.85,0,22.17a.83.83,0,0,0,1,.81l7.7.14a.56.56,0,0,0,.58-.61c-.26-3,1.4-9,1.4-12,0-1.07,36.28-.15,36.56,0s1.2,7.81,1.71,12.17a.58.58,0,0,0,.63.51c2.33-.23,8.35.47,8.66,0A8.43,8.43,0,0,0,278.42,71.19ZM256.36,50.24c-6.21-.6-11.54.14-17.89.14,2.24-10.57,6.68-37.09,8.29-37.43.52-.11,2.39-.38,2.54.29.59,2.53,6.65,33.7,7.71,36A.66.66,0,0,1,256.36,50.24Z"/><path class="cls-1" d="M238.84,1.33a45.83,45.83,0,0,0-6.15,3.9c-.3.31-8.82,29.63-10.92,45"/><path class="cls-1" d="M229.15,74a34.57,34.57,0,0,1-3.46,4c-.26.13-10.75-.23-10.91-.44s.78-21.68,1.05-22.25c.72-1.52,3-3.68,4.26-4.68"/><path class="cls-1" d="M229.92,66.3c2.88-1.38,29.92-.46,31.15.59,1.62,1.38,1.75,9.71,1.88,11.53,0,.54,12,1.24,12.75.56,1.35-3,1.33-2,2.68-5"/><path class="cls-1" d="M244,21.15a146.78,146.78,0,0,1,6.7,29.16"/><path class="cls-1" d="M231.11,10.46a43.27,43.27,0,0,1,4.53-2.84,2.13,2.13,0,0,1,.87-.31l-.12.18"/><path class="cls-1" d="M229.72,15.83a17.4,17.4,0,0,1,3.52-2.44l1.75-1s.09,0,.13,0,0,.09,0,0"/><path class="cls-1" d="M228,21.63a18.31,18.31,0,0,0,2-1.45,13.91,13.91,0,0,1,3.86-2"/><path class="cls-1" d="M226.72,26.42l5.16-3.18a1.25,1.25,0,0,1,1.06-.27"/><path class="cls-1" d="M225.53,31.88a22.33,22.33,0,0,1,6.11-3.1.18.18,0,0,0,.11-.08s0-.11-.07-.09"/><path class="cls-1" d="M224,38q2.07-1.29,4.23-2.45a5,5,0,0,1,1.91-.7l-.31,0"/><path class="cls-1" d="M223.17,43.06,228,40l.85-.54"/><path class="cls-1" d="M221.9,48.84l5.8-3.7"/><path class="cls-1" d="M244.63,19.38a51.31,51.31,0,0,1,5-4.13"/><path class="cls-1" d="M245.61,26.08a62.07,62.07,0,0,1,5.13-4.91l-.23.12"/><path class="cls-1" d="M247.23,31.72l5-5.09"/><path class="cls-1" d="M248.69,38.17a15.18,15.18,0,0,1,1.2-1.48l3.73-3.88"/><path class="cls-1" d="M249.55,43.06l5-4.77"/><path class="cls-1" d="M250.58,49.15a31.81,31.81,0,0,1,5.21-5.23l-.48.38"/><path class="cls-1" d="M215.47,60a15.17,15.17,0,0,1,5-4.13"/><path class="cls-1" d="M215.26,65.18a13.92,13.92,0,0,1,3.28-3.13,7.45,7.45,0,0,1,1.9-1l-.25.1"/><path class="cls-1" d="M214.83,70.19a19.6,19.6,0,0,1,5.4-4.31"/><path class="cls-1" d="M214.76,75.07a12.1,12.1,0,0,1,4.47-3.67,1.21,1.21,0,0,1,.71-.19"/><path class="cls-1" d="M218.21,77.81a22.1,22.1,0,0,0,4-3.89"/><path class="cls-1" d="M223.54,78.14a19.8,19.8,0,0,0,3.55-4"/><path class="cls-1" d="M230.62,66.18c0-.12.06-.23.14-.32L234,62.37c.52-.57.67-.75,1.22-1.3"/><path class="cls-1" d="M237.16,65.6a13,13,0,0,1,1.75-2.17c.77-.92,1-1.51,1.74-2.43"/><path class="cls-1" d="M242.49,65.6a36.89,36.89,0,0,0,4-4.53"/><path class="cls-1" d="M247,65.72a41.31,41.31,0,0,0,4.14-4.63"/><path class="cls-1" d="M251.94,65.81A39.14,39.14,0,0,0,256.31,61"/><path class="cls-1" d="M257.44,66.28c1.13-1.8,3.17-3.06,4.09-5"/><path class="cls-1" d="M261.16,67.39a34.82,34.82,0,0,0,5.53-5.72"/><path class="cls-1" d="M262.5,73.18q3.14-2.32,6-4.94"/><path class="cls-1" d="M262.94,78.42a49.69,49.69,0,0,0,5.8-5.57"/><path class="cls-1" d="M267.83,79.09a24.69,24.69,0,0,0,4.54-4.92"/><path class="cls-1" d="M273,79.1a12.65,12.65,0,0,1,1.91-2.41,6.5,6.5,0,0,0,1.6-2.59"/><path class="cls-1" d="M289,1.1c-2.32,1.87-7.39,5.74-7.53,6s-.51,58.07-.15,58.62c.55.85,14.89,1,16.19.51s4.15-3.37,5.41-5"/><path class="cls-1" d="M302.25,16.32c2.7.13,11.73.65,13.13,1.53s2,2.93,2,4.57a12.46,12.46,0,0,1-1,4.41"/><path class="cls-1" d="M288.92,4.18q-3.85,3.84-7.79,7.59"/><path class="cls-1" d="M281.38,17.9l7.94-6.82"/><path class="cls-1" d="M281.12,23.57c2.5-2.06,4.83-3.85,7.46-5.75"/><path class="cls-1" d="M281.32,30.45q3.66-3.11,7.53-6"/><path class="cls-1" d="M281.15,36.93,288.62,31"/><path class="cls-1" d="M281.11,44.38l7.45-5.82"/><path class="cls-1" d="M281.2,51.08a62.72,62.72,0,0,0,7.4-6.1"/><path class="cls-1" d="M281.15,57.89c2.7-2,4.75-3.63,7.27-5.85"/><path class="cls-1" d="M281.23,64.12l7.33-5.81"/><path class="cls-1" d="M287.47,66.24q3.33-2.52,6.46-5.3"/><path class="cls-1" d="M294.81,66.45a51.12,51.12,0,0,1,5.66-5.21"/><path class="cls-1" d="M302.35,15.23a20.56,20.56,0,0,1,3.72-3.29"/><path class="cls-1" d="M306.58,16.57a37.65,37.65,0,0,1,5-4.5"/><path class="cls-1" d="M312.55,17.17l4.63-4.23"/><path class="cls-1" d="M316.82,19.69A44.5,44.5,0,0,1,320.46,16l-.25.33"/><path class="cls-1" d="M317.18,23.38a37.82,37.82,0,0,1,4.29-3.64"/><path class="cls-2" d="M334.64,13.26c-1.33-5.18-6.37-8.55-11.3-10.64C316.51-.27,289.66.42,289,1.1s-.56,56.35-.08,59.75c4,.68,13.93.15,14.17,0s-.28-15.15-.31-22c4.36-.65,8.08-.31,12-.31,7.31,0,15.2-3.21,18.46-9.75A25.41,25.41,0,0,0,334.64,13.26ZM321,21.81c-.34.94-.88,2.74-1.71,3.31-3,2.09-6,2.37-9.63,2.5-2.5.09-4.59-.25-7.08,0,0-1.95-.74-16,.1-15.9.64,0,10.56.38,12.51.73a6.39,6.39,0,0,1,4.51,2.44,6.4,6.4,0,0,1,1.58,4.67A9.09,9.09,0,0,1,321,21.81Z"/><path class="cls-2" d="M360.12,44.25c1.24,2.26-1.77,7.08-4.28,7.94a17,17,0,0,1-7.87.23,2.34,2.34,0,0,0-1.29.05c-.84.38-.92,1.53-.86,2.45l.54,8.82c0,.3,13,.52,17-2.89a21.93,21.93,0,0,0,5.54-6.29c2.7-5.44,18.31-44.63,21-49.88a.4.4,0,0,0-.34-.59c-3.63-.12-12,.15-12.6.76-.38.42-7.77,20.3-10.18,25.63C362.64,22.34,354.34,4.32,354,4.1s-14.11-.79-14.68,0c-.9,1.21,4.36,9.34,5.07,10.74C348.37,22.61,359.62,43.35,360.12,44.25Z"/><path class="cls-1" d="M339.35,4.08c-1.22,2.38-3.2,5-2.78,7.65.13.79,16,31,21.33,38.93"/><path class="cls-1" d="M346.33,52.87a52.14,52.14,0,0,0-5.15,3.74c-.22.41.76,9.89,1.46,10.3.4.23,12.84.5,17.17-2.21a20.34,20.34,0,0,0,5.59-5.64"/><path class="cls-1" d="M377,4.84c-1.64.84-3.7,1.55-5.33,2.39-.57.29-5.73,13.16-7.07,18.44"/><path class="cls-1" d="M341.15,8.66l-2.84,6.13"/><path class="cls-1" d="M340.42,19.06a4,4,0,0,1,.69-1.49q1.32-2,2.79-4"/><path class="cls-1" d="M342.69,23.47a40.9,40.9,0,0,1,3.23-5.76"/><path class="cls-1" d="M344.95,28.31l3.69-5.71"/><path class="cls-1" d="M347.48,32.61A38.39,38.39,0,0,1,351,28"/><path class="cls-1" d="M349.66,36.53a60.84,60.84,0,0,1,3.63-5.14"/><path class="cls-1" d="M351.82,40.34l3.87-4.54"/><path class="cls-1" d="M353.81,44.27q1.84-2.36,3.82-4.61"/><path class="cls-1" d="M356.33,47.87a40.81,40.81,0,0,0,3.47-4.29"/><path class="cls-1" d="M369.76,11.94l4.92-2.55a.83.83,0,0,0,.4-.33"/><path class="cls-1" d="M367.52,17.72A46.77,46.77,0,0,1,373,14.53s.05,0,0-.06-.06,0,0,0"/><path class="cls-1" d="M365.5,22.67q2.61-1.28,5.3-2.4"/><path class="cls-1" d="M365.21,26.75q2.08-1.24,4.11-2.55s.08-.05.08-.1-.07-.08-.08,0"/><path class="cls-1" d="M341.57,60.6a25.84,25.84,0,0,1,4.26-3.18"/><path class="cls-1" d="M342.18,65a18.55,18.55,0,0,1,4.08-3.43"/><path class="cls-1" d="M345.59,67.29a36.32,36.32,0,0,1,3.36-3.15"/><path class="cls-1" d="M351.3,67.07q1.39-1.88,2.94-3.64"/><path class="cls-1" d="M356.79,65.86a10.29,10.29,0,0,1,1.89-2.9"/><path class="cls-2" d="M403.65,23.43a15.54,15.54,0,0,1,1.51-4.38c3-4.09,8.84-4.26,12.94-3.31s6.2,3.91,5.69,8.09a7.61,7.61,0,0,1-1.64,3.67A6.89,6.89,0,0,1,419.86,29a12.49,12.49,0,0,1-7.72.5.5.5,0,0,0-.59.47c-.1,3,0,5.2.11,8.1a.56.56,0,0,0,.63.54,19.39,19.39,0,0,1,8.61.73A6.58,6.58,0,0,1,425,45.15c.19,2.88-1.64,6.88-3.66,7.94a30.2,30.2,0,0,1-8,1.69c-.86-.09-7.91-.31-9.34-8.9a1.47,1.47,0,0,0-.51-1.07,117.22,117.22,0,0,0-13.34,2c.28,5.14,4.74,11.13,6.48,13.16,3.27,3.82,10.61,5.42,15.62,5.85a30.71,30.71,0,0,0,12.63-1.12,21.17,21.17,0,0,0,9-4.67,18.83,18.83,0,0,0,5.7-11.08A18.29,18.29,0,0,0,437.88,40c-1.62-3.37-6.78-5.27-11-6.92a32,32,0,0,0,6.46-3.53,11.18,11.18,0,0,0,4.22-5.88,14.4,14.4,0,0,0,.08-6.45,15.36,15.36,0,0,0-3.37-6.41c-5.85-6.94-15.23-7.06-23.53-6.52a23.9,23.9,0,0,0-7.4,1.64,16.69,16.69,0,0,0-8.62,8.12,36.21,36.21,0,0,0-1.87,6.61,1.07,1.07,0,0,0,.91,1.3S403.6,23.82,403.65,23.43Z"/><path class="cls-1" d="M411.73,38.34c.83.93,2.68,4,3,4.2s3.95-1.14,6.39,2.27c1.53,2.14.68,8.25.69,8"/><path class="cls-1" d="M390,46.79c-1.33,1.37-4.92,4.9-5.09,5.52a3.82,3.82,0,0,0,.07,1.78c1.51,7.61,8.93,14,13,16.09,1.85.94,8.66,2.65,12.54,2.25,5.71-.59,9.56-1.31,15.31-4.58,2.12-1.21,4.31-3.48,7.09-7"/><path class="cls-1" d="M400.76,7.29c-4.25,2.1-9.12,5.35-11.5,9.45-.94,1.62-2,8.46-1.37,9.63s12.77,1.05,13,1a37.47,37.47,0,0,0,2.76-3.9"/><path class="cls-1" d="M407.06,17.2c2.15-.52,6.3.27,8.33,1.17a5.83,5.83,0,0,1,3.51,4.71,25.56,25.56,0,0,1,0,6"/><path class="cls-1" d="M396.25,26.93q1.05-2,2.18-3.94"/><path class="cls-1" d="M392,27.1a32.63,32.63,0,0,1,2.68-4.91"/><path class="cls-1" d="M388,25.15a48.3,48.3,0,0,1,5.19-5.32"/><path class="cls-1" d="M388.44,18.93a72.5,72.5,0,0,1,6.11-5"/><path class="cls-1" d="M419,26.25a58.23,58.23,0,0,1,4.87-4.63"/><path class="cls-1" d="M417.46,19.69a13.72,13.72,0,0,1,3.13-3.2.07.07,0,0,1,0,.12"/><path class="cls-1" d="M422.25,48.55a39.73,39.73,0,0,1,2.81-2.94"/><path class="cls-1" d="M420.9,44.5A28,28,0,0,1,423,40.66"/><path class="cls-1" d="M418.82,38.62q-1,1.72-1.83,3.49"/><path class="cls-1" d="M386.71,58.19q2.6-2.69,5.16-5.4"/><path class="cls-1" d="M390.71,64.32q2.43-2.87,5.09-5.54"/><path class="cls-1" d="M396.35,69q2.33-3,4.59-6.05"/><path class="cls-1" d="M402.93,71.55q2.15-3.36,4.44-6.63"/><path class="cls-1" d="M410.8,72.3q2-3.25,4.25-6.32"/><path class="cls-1" d="M418.95,70.83a27,27,0,0,0,2.81-5.26s0-.08.07-.09.08,0,0,.07"/><path class="cls-1" d="M427,64.18a18.08,18.08,0,0,1-.54,3.38"/><path class="cls-1" d="M502.52,9.86c.06,0,0-.11,0-.06-.24.37-.52.72-.79,1.07-1.59,2.05-2.92,3.93-4.51,6"/><path class="cls-1" d="M502.2,17.27A41.08,41.08,0,0,0,497,23"/><path class="cls-1" d="M502.56,22.8c-1.82,2.63-3.58,5-5.56,7.53"/><path class="cls-1" d="M502.51,31.75l-5.45,6.8"/><path class="cls-1" d="M502.53,39,497,45.91"/><path class="cls-1" d="M502.28,47.84q-2.63,2.8-5,5.79"/><path class="cls-1" d="M501.92,54c-1.7,1.89-2.95,3.5-4.54,5.48"/><path class="cls-1" d="M502.35,60.84a61.63,61.63,0,0,0-5,6.15"/><path class="cls-1" d="M505.15,64.18c-1.37,2-3,4.46-4.3,6.49"/><path class="cls-1" d="M510.73,64.38a60.42,60.42,0,0,0-4,6.79"/><path class="cls-1" d="M523,12.23l8.63-2.64"/><path class="cls-1" d="M518.95,17.67a60.33,60.33,0,0,1,8.85-2.19"/><path class="cls-1" d="M516.56,24c2.34-.68,5-1.38,7.35-2.09"/><path class="cls-1" d="M516.57,28.56a26.3,26.3,0,0,0,3.66-.77"/><path class="cls-1" d="M522.2,50.12c1.28-1.36,3.84-4.24,5.15-5.56"/><path class="cls-1" d="M524.77,55.16A34,34,0,0,1,529.54,49"/><path class="cls-1" d="M527.5,61.1a30.35,30.35,0,0,1,5.32-6.45"/><path class="cls-1" d="M530.79,67.72a2.8,2.8,0,0,1,.54-.89q2.17-2.71,4.39-5.37"/><path class="cls-1" d="M536.64,70.51q2.09-2.79,4.22-5.56"/><path class="cls-1" d="M543,70.53c1-1.62,2.32-3.73,3.31-5.35l.25-.41"/><path class="cls-1" d="M502.88,4.43c-1.25,1.5-5.2,6-5.6,6.93s-.47,58.4.53,58.78c.62.23,11.37,2,14.13.25,1.11-.72,3.84-4.92,4.55-6"/><path class="cls-1" d="M534.68,4.89c-2.33.54-5.12.88-7.45,1.42-.48.11-7.88,10.89-10.55,14.88"/><path class="cls-1" d="M520.16,45.12c1.84,4.36,11.42,24.68,11.76,25s15.31.51,15.82.22,4-4.83,4-6.29"/><path class="cls-2" d="M502.4,63.63a.76.76,0,0,0,1.07.63c1.46-.6,12.68.48,12.89.17s-.2-12.79,0-13.37a149.78,149.78,0,0,1,8.54-12.58c2.85,8.81,9.09,17.35,12.24,26.06,4.59.73,9.27-.09,13.87,0a.66.66,0,0,0,.62-1c-5.06-10.36-16.58-35.28-17.38-36.94-.34-.7,9.19-14,13.28-21a.54.54,0,0,0-.39-.8,47.75,47.75,0,0,0-10.89-.27,4,4,0,0,0-1.59.38c-.7.38-11.69,19.56-18.3,27.86-.06-7.72,1.23-26.33,0-28-.62-.84-11.4-.38-13.65-.17C502.22,4.65,501.67,52.67,502.4,63.63Z"/></g></g></svg>