<?xml version="1.0" encoding="utf-8"?>
<!-- Generator: Adobe Illustrator 21.0.2, SVG Export Plug-In . SVG Version: 6.00 Build 0)  -->
<svg version="1.1" xmlns="http://www.w3.org/2000/svg" xmlns:xlink="http://www.w3.org/1999/xlink" x="0px" y="0px"
	 viewBox="0 0 522.2 69.8" style="enable-background:new 0 0 522.2 69.8;" xml:space="preserve">
<style type="text/css">
	.st0{display:none;}
	.st1{display:inline;fill:#EEB755;stroke:#586DB0;stroke-miterlimit:10;}
	.st2{display:inline;}
	.st3{fill:#0D0E0F;}
	.st4{fill:none;stroke:#0D0E0F;stroke-miterlimit:10;}
	.st5{fill:#FFFFFF;}
	.st6{fill:#FFFFFF;stroke:#0D0E0F;stroke-miterlimit:10;}
</style>
<g id="Слой_3" class="st0">
	<rect x="39.8" y="-1733" class="st1" width="1306" height="2822"/>
</g>
<g id="Слой_18">
</g>
<g id="Слой_2" class="st0">
	<g class="st2">
		<g>
			<g>
				<path class="st3" d="M25.5-1780c-2,1.7-4.9,4.9-4.7,7.7c0.1,1.7,0.7,3.5,1.1,5.2c1.6,6.6,3.3,13.2,5.1,19.8
					c2,7.3,4,14.5,6.1,21.8c0.7,2.4,1.4,4.7,2.1,7.1c0.3,0.8,0.5,2.3,1.2,2.9c0.9,0.7,3,0.5,4,0.5c2.3,0.1,4.7,0,7-0.1
					c1.4-0.1,3.1-0.1,4.4-0.6c1.9-0.7,2.8-2.9,3.6-4.6c0.3-0.6-0.6-1.1-0.9-0.5c-0.9,1.9-1.7,3.9-3.9,4.3c-1.4,0.3-2.8,0.3-4.2,0.4
					c-1.8,0.1-3.7,0.1-5.5,0.1c-0.9,0-3.3,0.3-4-0.3c-0.6-0.6-0.9-2.6-1.1-3.4c-0.7-2.3-1.4-4.5-2-6.8c-3.6-12.6-7.1-25.3-10.3-38
					c-0.5-2.2-1.1-4.4-1.5-6.7c-0.6-3.1,1.8-6,4.2-8C26.7-1779.7,26-1780.4,25.5-1780L25.5-1780z"/>
			</g>
		</g>
		<g>
			<g>
				<path class="st3" d="M59.2-1780.7c-2.3,0.1-4.6,0.5-6,2.5c-1.4,2-1.9,4.7-2.5,7c-1.8,6.5-3.2,13.2-4.6,19.8
					c-0.1,0.6,0.8,0.9,1,0.3c1.1-5.6,2.4-11.2,3.8-16.7c0.6-2.5,1.3-4.9,2.1-7.3c1.1-3.2,2.9-4.3,6.3-4.5
					C59.8-1779.7,59.9-1780.7,59.2-1780.7L59.2-1780.7z"/>
			</g>
		</g>
		<g>
			<g>
				<path class="st3" d="M91.5-1778.7c0.6,0,0.6-1,0-1C90.8-1779.7,90.8-1778.7,91.5-1778.7L91.5-1778.7z"/>
			</g>
		</g>
		<g>
			<g>
				<path class="st3" d="M91.5-1778.7c0.6,0,0.6-1,0-1C90.8-1779.7,90.8-1778.7,91.5-1778.7L91.5-1778.7z"/>
			</g>
		</g>
		<g>
			<g>
				<path class="st3" d="M92.1-1780.7c-2.4,1.2-5.2,2.5-6.2,5.2c-1.2,2.9-2,5.9-2.8,8.9c-1.6,5.7-3.4,11.4-4.3,17.2
					c0.2-0.1,0.5-0.2,0.7-0.3c-0.1,0-0.1-0.1-0.2-0.1c-0.6-0.3-1.1,0.6-0.5,0.9c0.1,0,0.1,0.1,0.2,0.1c0.3,0.1,0.7,0,0.7-0.3
					c0.8-5.3,2.4-10.5,3.8-15.7c0.8-3,1.7-5.9,2.7-8.9c0.3-0.8,0.5-1.9,1.1-2.6c1.1-1.5,3.6-2.6,5.3-3.5
					C93.2-1780.1,92.7-1781,92.1-1780.7L92.1-1780.7z"/>
			</g>
		</g>
		<g>
			<g>
				<path class="st3" d="M87.4-1720.3c-2.2,3.1-4.7,5.4-8.6,5.4c-2.5,0-5.3,0.1-7.7-0.6c-3-0.8-3.6-5.5-4.3-8.1
					c-1.3-4.6-2.3-9.2-3.2-13.8c-0.6-3.2-1.4-6.6-1.6-9.9c0-0.6-1-0.6-1,0c0.1,3.9,1.1,7.9,1.9,11.7c1.1,5.3,2.2,10.6,3.9,15.7
					c0.4,1.3,0.9,3.1,1.8,4.2c1,1.2,2.8,1.3,4.3,1.5c2.5,0.3,5.4,0.6,8,0.2c3.1-0.4,5.6-3.4,7.3-5.8
					C88.6-1720.3,87.7-1720.8,87.4-1720.3L87.4-1720.3z"/>
			</g>
		</g>
		<g>
			<g>
				<path class="st3" d="M109.3-1780.5c-2.8,3.1-5.9,5.9-6.2,10.3c-0.1,1.9,0,3.8,0,5.8c0.1,6.6,0.3,13.3,0.5,19.9
					c0.2,7,0.4,14,0.8,21c0.1,2,0.2,4.1,0.5,6.1c0.1,1,0.1,1.5,1,1.9c1.3,0.5,3.3,0.5,4.7,0.6c2.2,0.2,4.4,0.4,6.7,0.3
					c3.7-0.2,5.4-2.4,7-5.6c0.3-0.6-0.6-1.1-0.9-0.5c-0.7,1.4-1.7,3.1-2.9,4.2c-1.2,1.1-3.2,0.9-4.8,0.9c-1.7,0-3.4-0.1-5.1-0.3
					c-1.3-0.1-3.1-0.1-4.3-0.6c-0.4-0.2-0.2,0.3-0.4-0.5c-0.1-0.6-0.2-1.3-0.2-2c-0.2-2.2-0.3-4.4-0.4-6.5c-0.6-12.3-1-24.7-1.2-37
					c0-2.1-0.1-4.2-0.1-6.3c0.1-4.9,3-7.5,6-11C110.4-1780.3,109.7-1781,109.3-1780.5L109.3-1780.5z"/>
			</g>
		</g>
		<g>
			<g>
				<path class="st3" d="M143.1-1780.6c-2,0.7-5,2.1-6.2,3.8c-0.8,1.2-0.8,3.1-0.9,4.5c-0.4,5.3-0.2,10.7-0.2,16c0,0.6,1,0.6,1,0
					c0-4.5-0.1-8.9,0-13.4c0.1-1.8-0.1-4.2,0.5-5.9c0.8-2,4.1-3.4,6-4.2C143.9-1779.9,143.7-1780.8,143.1-1780.6L143.1-1780.6z"/>
			</g>
		</g>
		<g>
			<g>
				<path class="st3" d="M122.8-1740.3c0.6,1.5,6.4,0.5,7.7,0.4c1.3,0,4.7-0.6,5.1,0.8c0.4,1.1-0.1,3-0.1,4.1c0,1.6,0,3.2,0,4.8
					c0,2.8,0.1,5.7,0.3,8.5c0.1,1.6,0,3.7,0.6,5.3c0.4,1,0.9,1.1,2,1.3c2.3,0.3,4.6,0.2,6.9,0.2c2-0.1,4.2,0.1,6.1-0.3
					c2.5-0.5,3.8-2.8,5-4.9c0.3-0.6-0.5-1.1-0.9-0.5c-0.9,1.6-2,3.6-3.9,4.3c-1,0.3-2,0.2-3,0.2c-2.5,0.1-5.1,0.3-7.6,0.2
					c-0.8,0-3.1,0.2-3.6-0.5c-0.4-0.5-0.3-1.8-0.4-2.4c-0.3-3.1-0.4-6.1-0.5-9.2c-0.1-3.4-0.1-6.8,0.1-10.2c0.1-1.6,0.2-2.2-1.4-2.6
					c-1.9-0.4-4.1-0.2-6.1-0.1c-1.1,0-2.2,0.1-3.4,0.1c-0.5,0-0.9,0-1.3,0c-0.4,0-0.7-0.3-0.6,0.1
					C123.5-1741.2,122.6-1740.9,122.8-1740.3L122.8-1740.3z"/>
			</g>
		</g>
		<g>
			<g>
				<path class="st3" d="M184-1764.9c3.9-3.1,7.9-0.3,8.6,4.1c0.5,3.3,0.4,6.8,0.2,10.1c-0.3,6.8-1.4,13.5-1.4,20.2
					c0.3,0,0.7-0.1,1-0.1c-0.1-0.4-0.2-0.5-0.5-0.8c-0.4-0.5-1.2,0.2-0.7,0.7c0.1,0.1,0.1,0.2,0.2,0.4c0.2,0.5,1,0.5,1-0.1
					c0-9.6,2.1-19.1,1.3-28.8c-0.2-2.6-0.7-5.2-2.9-6.9c-2.5-1.9-5.2-1.3-7.5,0.5C182.8-1765.2,183.5-1764.5,184-1764.9L184-1764.9z
					"/>
			</g>
		</g>
		<g>
			<g>
				<path class="st3" d="M177.5-1778c-2.4,0.9-4.5,2.8-6.5,4.4c-2.5,2.1-4.7,4.4-6.4,7.2c-4.1,6.6-5.8,14.7-5.8,22.5
					c0,13.4,8.8,27,22.6,29.6c8.6,1.6,15.9-2.5,22.1-8.1c0.5-0.4-0.2-1.1-0.7-0.7c-5.6,5-12,9-19.8,8c-6.3-0.8-11.9-4.3-16-9
					c-9.1-10.5-9.1-26.7-3.2-38.9c1.6-3.3,3.7-6.3,6.5-8.7c2.2-2,4.7-4.3,7.5-5.4C178.4-1777.2,178.1-1778.2,177.5-1778L177.5-1778z
					"/>
			</g>
		</g>
		<path class="st4" d="M262-1780.2c-2.4,1.3-6,2.7-7.4,5.1c-0.5,0.8-19.2,56.3-18.6,57.3c0.7,1.3,13,3.1,14.4,2.3
			c1.3-0.7,2.5-2.3,4.1-4.9"/>
		<path class="st4" d="M296.3-1720.6c-0.5,1.7-1.9,3.2-3.1,4.4c-0.9,0.8-14.6,0.7-15.2,0c-1.2-1.2-3.9-10.2-4.4-10.6
			c-1.2-0.9-4.6-0.6-6.8-0.6c-3.5,0-6.7-0.2-10.1-0.3"/>
		<path class="st4" d="M264.7-1756.3c1.3,4.9,3.1,8.2,4.9,13"/>
		<path class="st4" d="M302.8-1780.1c-2.5,2.6-5.5,5.2-5.8,6c-0.3,0.9,1.2,58.2,1.8,58.5c0.3,0.2,12.4,0.3,13.2-0.3
			c0.9-0.6,2.1-2.8,2.6-4.3"/>
		<path class="st4" d="M315-1746.6c0.6,1.8,8.1,29.6,9.1,31c0.1,0.1,10,1.3,11.4,0.5c1.3-0.8,2.2-2.8,3.5-5"/>
		<path class="st4" d="M348.2-1752c0.1,10.6,0.1,35,0.8,36c0.8,1.2,15.3,1.2,15.5,0.8c1.5-2.4,2.2-3.1,3.8-5.5"/>
		<path class="st4" d="M346.3-1780.2c-1.9,1.1-7.1,5.2-7.7,5.9c-0.4,0.5-4.7,15.1-5.6,23"/>
		<path class="st4" d="M402.9-1779.6c-2.2,1.9-5.7,4.9-6.2,6.8c-0.5,1.9-0.8,54.9,0.3,57.8c0.2,0.4,10.1,1.2,13.2,0.8
			c1.8-0.2,5.2-3.3,6.7-6.3"/>
		<path class="st4" d="M434-1778.2c-7.5,2.6-13.4,8.9-13.7,16.8c-0.1,1.2,0,3.6,0.8,4.6c0.6,0.7,9.2,1.4,10.6,1.1
			c0.7-0.1,3-1.9,4-3.9"/>
		<path class="st4" d="M437.4-1765.9c2.1-0.9,4.9-1.5,7.1-0.7c1.4,0.5,2.4,1.9,2.8,3.3c0.3,0.8,0,1.8-0.1,2.7
			c-0.4,2.8-1.2,5.5-2.3,8"/>
		<path class="st4" d="M442.1-1751.6c-1.6,1.1-3.8,2.6-5.2,4.1c-0.8,0.8-1.5,1.7-2,2.7c-1.1,2.1-0.8,9.3-0.1,10.1
			c0.6,0.6,9.5,1.4,10,1.3c2.1-0.7,4.3-2.4,5-4.2"/>
		<path class="st4" d="M438.7-1733c-1.1,1-4.5,3.8-4.8,4.5c-0.3,0.8-0.1,12.3,1,13c0.6,0.4,12.8,0.2,13.8-0.5c0.6-0.5,3.2-3,4-4.5"
			/>
		<path class="st4" d="M396.2-1766.6"/>
		<path class="st4" d="M455.3-1720.9"/>
		<path class="st4" d="M26.7-1776.4c-1.6,3.3-2.9,6.2-4.3,9.6"/>
		<path class="st4" d="M28.7-1768.8c-1.6,3.6-2.8,6.9-4,10.7"/>
		<path class="st4" d="M31-1758.8c-1.7,3-3.1,5.7-4.3,8.8"/>
		<path class="st4" d="M33.2-1750.2c-1.6,2.6-3,5.2-4.3,7.9"/>
		<path class="st4" d="M36-1740c-1.3,2.8-2.9,6.3-4,9.2"/>
		<path class="st4" d="M37.8-1732c-1.3,2.8-2.5,5.7-3.6,8.6c0-0.1,0-0.2,0.1-0.3"/>
		<path class="st4" d="M40.2-1723.5c-1.2,2.3-2.5,4.6-3.8,6.8"/>
		<path class="st4" d="M43.5-1719.6c-1,1.4-1.9,2.8-2.7,4.3c0-0.1,0-0.1,0.1-0.2"/>
		<path class="st4" d="M47.9-1719.8c-0.9,1.3-1.8,2.8-2.5,4.2c0,0,0-0.1,0-0.1"/>
		<path class="st4" d="M51.9-1719.8c-0.8,1.2-1.6,2.4-2.3,3.7"/>
		<path class="st4" d="M59.2-1779.5c-2.3,1.4-4.6,2.9-6.9,4.4"/>
		<path class="st4" d="M57.4-1774.1c-2.5,1.6-4.4,3.1-6.7,4.9"/>
		<path class="st4" d="M55.9-1766.8c-2.3,1.2-4.4,2.4-6.8,3.6"/>
		<path class="st4" d="M54.3-1761.1c-2.2,1.4-3.9,2.1-6.3,3.3"/>
		<path class="st4" d="M52.9-1754.2c-1.6,1.7-3.9,2.6-5.8,4c0.1-0.1,0.2-0.1,0.3-0.2"/>
		<path class="st4" d="M51.4-1748c-0.3,0.2-0.6,0.5-0.9,0.7c-1.1,0.8-2.1,1.6-3.2,2.4c0,0,0.1,0,0.1-0.1"/>
		<path class="st4" d="M66.2-1752.7c-1.5,1.8-3.3,3.9-4.6,5.8"/>
		<path class="st4" d="M67.7-1746.9c0,0.2-0.2,0.4-0.4,0.6c-1.7,1.9-3.1,3.5-4.8,5.4"/>
		<path class="st4" d="M69.5-1739.6c-1.9,1.8-3.9,4-5.6,6.1"/>
		<path class="st4" d="M70.9-1732.9c-1.8,2.3-3.4,4.2-5.3,6.4"/>
		<path class="st4" d="M72.8-1726.3c-1.1,1.3-2.1,2.5-3.2,3.8c-0.8,0.9-1.6,1.9-2.2,2.9"/>
		<path class="st4" d="M73.9-1720.9c-1.6,1.8-3.2,3.6-4.8,5.4"/>
		<path class="st4" d="M80.4-1720c-1.5,1.4-3.3,3.7-4.3,5.5"/>
		<path class="st4" d="M85.2-1719.8c-1.4,1.6-2.7,3.4-3.9,5.1"/>
		<path class="st4" d="M91.1-1778c-2,1.5-3.9,3.1-5.6,4.9"/>
		<path class="st4" d="M89.5-1772.2c-1.8,1.5-3.9,3.2-5.6,4.7"/>
		<path class="st4" d="M87.8-1765.6c-2.1,1.6-3.9,3.2-5.9,5"/>
		<path class="st4" d="M86.5-1759.4c-2.2,1.5-3.9,2.7-6.1,4.3"/>
		<path class="st4" d="M85.4-1753.7c-1.9,1-3.8,2.1-5.7,3.3"/>
		<path class="st4" d="M84.4-1748.5c-1.2,0.9-2.4,1.7-3.5,2.6c0.1,0,0.2,0,0.2-0.1"/>
		<path class="st4" d="M109.4-1775c-2.1,2.1-4,4.3-6,6.6"/>
		<path class="st4" d="M109.7-1768.5c-2.1,2.1-4,4-6.1,6.2"/>
		<path class="st4" d="M109.9-1761.4c-2.3,2.1-4,3.9-6.1,6.2"/>
		<path class="st4" d="M109.7-1755.2c-2,2.1-4,4.2-5.9,6.4c0.1-0.1,0.2-0.3,0.3-0.4"/>
		<path class="st4" d="M109.7-1748.1c-1.9,2.3-3.6,4.2-5.7,6.3"/>
		<path class="st4" d="M109.7-1742.3c-1.8,2.1-3.6,4.3-5.4,6.4"/>
		<path class="st4" d="M109.8-1734c-1.6,2.3-3.4,4.4-5.3,6.4"/>
		<path class="st4" d="M109.6-1725.9c-1.5,1.7-3.4,4-4.8,5.8"/>
		<path class="st4" d="M110.5-1721.5c-1.4,1.9-2.8,3.8-4.1,5.7"/>
		<path class="st4" d="M115.3-1719.9c-1.1,1.1-3,3.3-3.9,4.6"/>
		<path class="st4" d="M120.4-1720.1c-1.2,1.5-2.3,3.1-3.2,4.8"/>
		<path class="st4" d="M142.2-1775.5c-2.1,1.7-3.8,3.3-5.8,5.1"/>
		<path class="st4" d="M142.5-1770.4c-2,1.5-4.3,3.4-6.1,5.1"/>
		<path class="st4" d="M142.7-1764c-2,1.5-4.3,3.2-6.3,4.8"/>
		<path class="st4" d="M142.7-1759.4c-1,1.1-2.4,2.3-3.4,3.3c0,0-0.1,0.1-0.1,0c0,0,0-0.1,0,0"/>
		<path class="st4" d="M128.7-1745.3c-1.7,1.3-3.9,3.3-5.3,4.9c0.1,0,0.1-0.1,0.2-0.2"/>
		<path class="st4" d="M134.5-1745.2c-0.5,0.2-1.4,0.8-1.9,1.2c-1.1,1-2.2,2-3.3,3c0.1,0,0.2-0.1,0.2-0.3"/>
		<path class="st4" d="M139.1-1745c-1.7,1.4-3.2,2.9-4.6,4.5"/>
		<path class="st4" d="M142.3-1742.9c-2.1,1.8-4.2,3.6-6.1,5.6"/>
		<path class="st4" d="M142.2-1737.2c-2.2,2-4.1,3.7-6.3,5.7"/>
		<path class="st4" d="M142.1-1730.3c-2.1,1.8-4.1,3.6-6.2,5.3"/>
		<path class="st4" d="M142.2-1724.4c-2,1.8-3.8,3.8-5.6,5.8"/>
		<path class="st4" d="M144.3-1719.8c-1,1.1-2.1,2.2-3.1,3.3c-0.2,0.3-0.5,0.5-0.6,0.9"/>
		<path class="st4" d="M149.2-1719.5c-0.8,1.3-2,2.9-3,4.2"/>
		<path class="st4" d="M170.3-1769.9c-1.6,1-3.4,2.2-5,3.3"/>
		<path class="st4" d="M167.9-1764.1c0,0.1,0.1-0.1,0.1-0.1c-0.1,0-0.2,0-0.2,0.1c-1.6,1.2-3.3,2.4-4.9,3.7c-0.4,0.3-0.7,0.5-1,0.9"
			/>
		<path class="st4" d="M165.9-1757.3c-2,1.6-3.9,3.2-5.9,4.8"/>
		<path class="st4" d="M165.4-1751.2c-2.1,1.9-4,3.6-6.1,5.5"/>
		<path class="st4" d="M165.7-1744.5c-2.2,2-4,3.8-6,5.8"/>
		<path class="st4" d="M166.8-1737.4c-1.8,1.7-3.6,3.4-5.4,5"/>
		<path class="st4" d="M169.3-1732.5c-1.9,1.9-3.3,3.4-5.2,5.3"/>
		<path class="st4" d="M173.7-1726.9c-1.7,1.6-3.4,3.3-5.1,4.9"/>
		<path class="st4" d="M178.7-1723c-1.7,1.7-3.4,3.4-5.1,5.1c-0.1,0.1-0.4,0-0.3-0.2c0.1-0.2,0.4-0.1,0.3,0.1"/>
		<path class="st4" d="M183.9-1720.5c-1.6,1.5-3.4,3.5-5,5"/>
		<path class="st4" d="M190.3-1719.4c-1.2,1.3-3.2,3.5-4.2,5"/>
		<path class="st4" d="M195.9-1719.9c-1.1,1.1-2.1,2.4-2.9,3.8"/>
		<path class="st4" d="M192.6-1769.4c-0.4,0-0.7,0.3-1,0.6c-0.8,0.8-1.6,1.6-2.4,2.4"/>
		<path class="st4" d="M197.4-1767.6c-1.6,1.6-3.1,3.2-4.5,4.8"/>
		<path class="st4" d="M199.9-1764.2c-2.4,2.1-4.6,4.4-6.7,6.8"/>
		<path class="st4" d="M201.4-1758.7c-1.2,1.5-2.4,2.9-3.8,4.2c-1.4,1.3-3.1,2.4-4.1,4c0-0.2,0.1-0.3,0.1-0.5"/>
		<path class="st4" d="M202.1-1751.7c-3.4,3.6-6.6,7.3-9.7,11.1"/>
		<path class="st4" d="M201.6-1744.7c-2.9,3.4-6,6.6-9.3,9.6"/>
		<path class="st4" d="M199.8-1737.2c-2.4,2-4.8,4.1-6.8,6.4"/>
		<path class="st4" d="M259.7-1774.8c-2.3,1.5-4.7,3.1-7,4.6"/>
		<path class="st4" d="M256.9-1766.9c-1.9,1.1-3.8,2.2-5.7,3.5c-0.2,0.2-0.5,0.3-0.6,0.5c0.1-0.1,0.1-0.2,0.2-0.2"/>
		<path class="st4" d="M255.3-1761c-2.2,1.3-4.6,2.4-7,3.3c0,0.1,0.2,0.1,0.2,0"/>
		<path class="st4" d="M253.3-1755c-2.2,1.3-4.4,2.6-6.6,3.9c0.1,0,0.3-0.1,0.4-0.1"/>
		<path class="st4" d="M250.7-1747.2c-2.4,1-4.6,2.2-6.8,3.5c0.1,0,0.2,0,0.2-0.1"/>
		<path class="st4" d="M248.8-1741.6c-2.3,2-5.3,3.1-7.5,5.2"/>
		<path class="st4" d="M246.5-1735.5c-1.8,1.1-3.6,2.2-5.5,3.1c-0.6,0.3-1.2,0.6-1.7,1.1c0.1,0,0.1-0.1,0.2-0.1"/>
		<path class="st4" d="M244.7-1728.8c-2.2,1.3-4.3,2.6-6.5,4"/>
		<path class="st4" d="M236.1-1718.3c1.9-1.5,4.1-2.8,6.3-3.7"/>
		<path class="st4" d="M241.5-1716.5c-0.1,0,0-0.2,0-0.2c1.3-1,2.5-2,3.9-2.9"/>
		<path class="st4" d="M247.5-1715.7c0.7-1.2,1.8-2.1,2.9-2.9c0.3-0.3,0.7-0.5,1-0.8"/>
		<path class="st4" d="M265-1755.4c1.1-1.6,2.6-3,4.2-4.2"/>
		<path class="st4" d="M266.5-1752c1.3-1.3,2.6-2.5,4.1-3.5"/>
		<path class="st4" d="M268.3-1746.6c-0.2-0.1,0-0.4,0.1-0.5c1-1.3,2.2-2.4,3.5-3.3"/>
		<path class="st4" d="M270.1-1743.2c1.2-1,2.5-1.9,3.8-2.7"/>
		<path class="st4" d="M257.8-1727.9c1.3-1.4,2.7-2.7,4.1-4"/>
		<path class="st4" d="M263.4-1727.1c0-0.4,0.3-0.7,0.6-1c1.2-1.3,2.5-2.6,3.7-3.9c0.2-0.3,0.5-0.5,0.7-0.7c0,0,0.1-0.1,0.1-0.1
			c0,0,0.1,0.1,0,0.1"/>
		<path class="st4" d="M269.1-1727.2c1.6-1.9,3.3-3.8,5.1-5.6"/>
		<path class="st4" d="M274-1726.4c0-0.3,0.2-0.6,0.4-0.8c1.2-1.2,2.5-2.5,3.8-3.7"/>
		<path class="st4" d="M275.2-1721.2c1.3-1.4,2.7-2.7,4.1-4"/>
		<path class="st4" d="M277.6-1716.7c0.9-1.4,2.1-2.7,3.5-3.7"/>
		<path class="st4" d="M282.7-1715.5c0.1-0.3,0.3-0.5,0.4-0.7c0.8-0.9,1.6-1.8,2.4-2.7c0.2-0.3,0.5-0.6,0.8-0.8"/>
		<path class="st4" d="M287.9-1715.6c-0.1,0-0.1-0.2,0-0.3c0.8-1.4,1.7-2.7,2.6-4"/>
		<path class="st4" d="M291-1715.5c-0.1,0-0.1-0.2,0-0.3c0.8-1.4,1.6-2.8,2.4-4.2"/>
		<path class="st4" d="M297.3-1769c1.4-2,3.1-3.8,4.9-5.4"/>
		<path class="st4" d="M297.4-1763.1c1.5-2,3.1-3.9,4.8-5.7"/>
		<path class="st4" d="M297.2-1757.8c0.6-0.6,1.2-1.3,1.8-1.9c1.1-1.1,2.1-2.3,3.3-3.3c0,0,0.1-0.1,0.2,0s0,0.1,0,0.1"/>
		<path class="st4" d="M297.5-1750.6c1.5-2.1,3.2-4.1,5-5.9"/>
		<path class="st4" d="M298-1745.3c1.3-1.9,3-3.6,4.8-4.9"/>
		<path class="st4" d="M298-1737.5c0.7-1.3,1.7-2.4,2.7-3.5c0.6-0.7,1.3-1.4,1.9-2c0,0,0.1-0.1,0.2-0.1c0.1,0,0,0.1,0,0.1"/>
		<path class="st4" d="M298.2-1731.4c1.5-1.8,3.1-3.5,4.8-5.2"/>
		<path class="st4" d="M299-1724.3c1.1-1.7,2.5-3.2,4-4.5"/>
		<path class="st4" d="M298.6-1717.3c1.2-1.5,2.6-3,4-4.3"/>
		<path class="st4" d="M302.9-1715.6c1.2-1.3,2.3-2.6,3.5-3.9"/>
		<path class="st4" d="M309.2-1715.4c0.8-1.5,1.8-2.9,3-4.1c-0.1,0.1-0.2,0.1-0.2,0.2"/>
		<path class="st4" d="M315.1-1752.5c0.7-1.4,1.6-2.7,2.6-3.9"/>
		<path class="st4" d="M315.4-1745.3c1.1-2,2.3-4,3.6-5.8"/>
		<path class="st4" d="M317-1739.9c1.2-1.7,2.3-3.3,3.6-4.9c0.1-0.1,0.3-0.2,0.3,0"/>
		<path class="st4" d="M318.7-1734.2c1.3-1.8,2.6-3.6,4-5.3"/>
		<path class="st4" d="M320.3-1727.3c1.2-1.9,2.6-3.8,4.1-5.4"/>
		<path class="st4" d="M322-1721.1c0.4-0.4,0.7-0.9,1.1-1.3c1.1-1.6,2.4-3.1,3.9-4.4c-0.1,0.1-0.3,0.1-0.4,0.2"/>
		<path class="st4" d="M324.6-1715.3c1.3-1.7,2.7-3.4,4.2-4.8c0,0,0.1-0.1,0.1,0c0,0,0,0.1,0,0.1"/>
		<path class="st4" d="M331.5-1714.5c1.4-1.7,2.6-3.5,3.6-5.4"/>
		<path class="st4" d="M337.7-1770.7c1.8-1.5,3.8-2.8,5.9-3.7"/>
		<path class="st4" d="M335.7-1764.3c2.2-1.4,4.4-2.8,6.6-4.2"/>
		<path class="st4" d="M334.3-1758.9c2.2-1.7,4.5-3.3,6.8-4.8c0,0,0.1-0.1,0.1-0.1c0-0.1-0.1,0-0.1,0"/>
		<path class="st4" d="M333.4-1753.5c2.2-1.7,4.5-3.4,6.8-5c-0.2,0-0.4,0-0.6,0.1"/>
		<path class="st4" d="M333.9-1748.6c1.5-1.3,3-2.5,4.7-3.6c-0.1,0-0.3,0-0.4-0.1"/>
		<path class="st4" d="M350.5-1758c0.9-0.6,1.9-1.3,2.8-1.9c0.1-0.1,0.4-0.2,0.5,0"/>
		<path class="st4" d="M348.5-1750.6c1.4-1.7,3.2-3.1,5.1-4.1"/>
		<path class="st4" d="M348.2-1743.3c1.9-1.6,3.8-3.2,5.8-4.8"/>
		<path class="st4" d="M348.3-1737.3c1.8-2.1,3.7-4,5.7-5.9"/>
		<path class="st4" d="M348.1-1729.6c1.5-2.5,4.2-4,6-6.3c-0.2,0.2-0.4,0.3-0.6,0.5"/>
		<path class="st4" d="M348.9-1722.9c1.6-1.6,3.2-3.1,5-4.5c-0.1,0.1-0.2,0.2-0.4,0.3"/>
		<path class="st4" d="M348.9-1715.8c1.4-1.7,3-3.3,4.6-4.7"/>
		<path class="st4" d="M354.8-1714.9c1.5-1.8,3.2-3.6,4.8-5.3"/>
		<path class="st4" d="M359.7-1714.6c1.3-1.8,2.9-3.6,4.6-5.1"/>
		<path class="st4" d="M396.5-1767.1c1.9-2.1,4-4.1,6.2-5.8"/>
		<path class="st4" d="M396-1760.1c2.1-2.3,4.4-4.5,6.8-6.5c0.2-0.2,0.5,0.1,0.4,0.3c-0.1,0.2-0.5,0-0.5-0.2"/>
		<path class="st4" d="M396.3-1753.9c2-1.9,4.2-3.6,6.4-5.3"/>
		<path class="st4" d="M396.4-1746.4c1.9-2.1,4-4,6.2-5.8"/>
		<path class="st4" d="M396.1-1738.3c2.1-2.4,4.3-4.6,6.6-6.8c0,0,0.1-0.1,0.1-0.2c0-0.1-0.1,0-0.1,0.1"/>
		<path class="st4" d="M396.2-1730.8c1.8-2,4.2-3.8,6.3-5.4c-0.1,0.1-0.2,0.1-0.3,0.2"/>
		<path class="st4" d="M396.6-1724.4c2.1-2,3.8-3.6,5.9-5.5"/>
		<path class="st4" d="M396.6-1718c2-2,4-4.1,6-6"/>
		<path class="st4" d="M400.1-1714.5c1.9-1.7,3.9-4,5.9-5.4"/>
		<path class="st4" d="M406.4-1714.1c2.1-1.7,4-3.6,5.8-5.6"/>
		<path class="st4" d="M423-1769.8c1.6-1.1,3.2-2,5-2.7c-0.1,0-0.2,0.1-0.3,0.1"/>
		<path class="st4" d="M420.4-1763.6c0.3-0.5,0.8-1,1.2-1.4c1.4-1.2,2.9-2.3,4.5-3.3"/>
		<path class="st4" d="M420.6-1757.5c1.3-1.4,2.8-2.8,4.2-4.1"/>
		<path class="st4" d="M426-1755.8c0-0.3,0.3-0.6,0.5-0.8c1.3-1.2,2.7-2.3,4.1-3.3"/>
		<path class="st4" d="M441.4-1766.8c1.5-1.3,3.1-2.4,4.8-3.3"/>
		<path class="st4" d="M446.9-1765c1.4-0.9,2.7-1.9,4.1-2.8c0,0,0.1-0.1,0.1-0.1s-0.1,0-0.1,0"/>
		<path class="st4" d="M447-1759.2c1.6-1.2,3.7-2.4,5.4-3.4c-0.1,0-0.2,0-0.3,0"/>
		<path class="st4" d="M434.4-1743.1c1.6-1.3,3.3-2.4,5.1-3.2c-0.1,0.1-0.2,0.1-0.4,0.2"/>
		<path class="st4" d="M434.3-1737.8c1.4-1.4,3-2.8,4.6-4"/>
		<path class="st4" d="M436-1734.3c1.1-1,2.8-2.3,3.9-3.3"/>
		<path class="st4" d="M441.6-1733.6c1.3-1.3,3.2-3.1,4.6-4.3"/>
		<path class="st4" d="M433.7-1724.4c1.7-1.6,3.8-3.4,5.6-4.8"/>
		<path class="st4" d="M434.2-1717.8c1.3-1.6,2.8-3.2,4.2-4.7"/>
		<path class="st4" d="M437.8-1715.5c1.3-1.7,2.7-3.2,4.3-4.7"/>
		<path class="st4" d="M444.1-1715.3c0.9-1.4,2.7-3.5,3.9-4.7"/>
		<g>
			<path class="st5" d="M40.1-1779.7c1,4.2,9.3,40,9.3,40s9.5-40.5,9.8-40.5c6.5,0.2,12.8-0.6,12.9,0c0.7,3.2,10.5,40.6,10.5,40.6
				s7.3-37.5,9.1-40.6c0.5-0.8,11.3-0.3,11.3,0.4c0,1.1-12.3,54.1-14.9,59.4c-0.7,1.4-5.4,0-13.9,0.1c-0.3,0-9.8-39.6-9.8-39.6
				s-8.7,38.5-9.4,39.6c-0.3,0.4-13.4,1-13.8,0.2c-3-7.8-15.1-59.2-15.1-59.4C26.1-1780,38.9-1780.1,40.1-1779.7"/>
			<g>
				<path class="st3" d="M39.6-1779.6c3.2,13.3,6.2,26.7,9.3,40c0.1,0.5,0.9,0.5,1,0c2.8-12.1,5.6-24.2,8.7-36.3c0.3-1,0.5-2,0.8-3
					c0.5-1.7,0.9-0.8,2.8-0.8c2.8,0,5.6-0.3,8.4-0.2c1.5,0,1.1-0.1,1.5,1.4c1.7,7,3.6,14,5.4,21c1.6,6,3.1,12.1,4.7,18.1
					c0.1,0.5,0.9,0.5,1,0c2.2-11.1,4.3-22.2,7-33.2c0.5-2,0.8-4.6,1.7-6.4c0.5-1,0.9-0.9,2.2-1c1.7-0.1,3.5,0,5.3,0.1
					c0.8,0.1,1.6,0.1,2.3,0.2c0.4,0.1,1.2,0.5,0.9-0.1c0,0.1-0.2,0.9-0.2,1.1c-0.4,1.9-0.8,3.7-1.2,5.6c-3.1,13.5-6.3,27-9.8,40.4
					c-0.7,2.7-1.4,5.4-2.2,8c-0.4,1.2-0.7,3.8-1.9,4.4c-1.2,0.5-3.6,0-4.8-0.1c-1.2-0.1-2.4-0.2-3.6-0.2c-0.9,0-1.7-0.1-2.6-0.1
					c0.6,0-1.7,0-1.5,0.2c-0.7-0.6-1-3.6-1.2-4.4c-3-11.7-5.8-23.4-8.6-35.1c-0.1-0.5-0.9-0.5-1,0c-1.7,7.7-3.5,15.4-5.3,23.1
					c-1.1,4.6-2.1,9.2-3.3,13.7c-0.1,0.5-0.5,2.4-0.7,2.6c-0.7,0.6-4.8,0.3-6,0.4c-1.3,0-2.6,0.1-3.9,0.1c-0.6,0-2.5,0.2-3.1-0.2
					c-0.6-0.4-0.9-2.9-1.2-3.7c-1.3-4.5-2.5-9.1-3.7-13.7c-2.8-10.9-5.4-21.9-8-32.9c-0.5-2-0.9-4-1.4-5.9c-0.2-0.8-0.7-2-0.7-2.9
					c0-0.4-0.4,0.4-0.1,0.4c0.5,0,1-0.1,1.5-0.1c1.4-0.1,2.9-0.1,4.3-0.1c2.4,0,5.2-0.3,7.6,0.2c0.6,0.1,0.9-0.8,0.3-1
					c-2.1-0.5-4.5-0.3-6.6-0.3c-2.1,0-5.3-0.5-7.3,0.3c-1.5,0.6-0.1,3.3,0.2,4.5c2.6,11.2,5.3,22.4,8.1,33.5
					c1.4,5.4,2.7,10.9,4.3,16.3c0.5,1.7,0.9,3.3,1.5,5c0.5,1.4,1,1.5,2.5,1.6c2.8,0.2,5.7,0,8.6-0.1c1-0.1,3.2,0.2,3.9-0.7
					c0.5-0.6,0.7-2.1,0.9-2.9c0.6-2.2,1.1-4.4,1.6-6.6c2.4-10,4.7-20.1,7-30.2c-0.3,0-0.6,0-1,0c2.8,11.5,5.5,23,8.4,34.4
					c0.4,1.4,0.5,3.8,1.3,5c0.5,0.7,0.6,0.5,1.5,0.6c3.2,0,6.3,0.3,9.4,0.4c2,0.1,3.5,0.3,4.3-1.7c0.8-2,1.4-4.2,2-6.3
					c4-14.4,7.4-29.1,10.8-43.7c0.5-2.2,1-4.5,1.5-6.7c0.2-0.8,0.7-1.9,0-2.6c-0.5-0.5-2.3-0.5-2.9-0.5c-2-0.2-4-0.3-6-0.2
					c-2.1,0.1-2.8,0.2-3.5,2.1c-2.4,7.2-3.7,15-5.2,22.4c-1.2,5.6-2.3,11.2-3.4,16.8c0.3,0,0.6,0,1,0c-3.4-13-6.8-25.9-10.1-38.9
					c-0.1-0.5-0.2-1.6-0.6-1.9c-1-0.9-4-0.2-5.1-0.2c-1.9,0.1-3.8,0.1-5.7,0.1c-0.7,0-2.2-0.4-2.8,0.2c-0.3,0.3-0.3,0.9-0.4,1.3
					c-1.9,6.8-3.4,13.7-5,20.6c-1.5,6.3-3,12.5-4.4,18.8c0.3,0,0.6,0,1,0c-3.1-13.3-6.1-26.7-9.3-40
					C40.4-1780.4,39.5-1780.2,39.6-1779.6L39.6-1779.6z"/>
			</g>
		</g>
		<g>
			<path class="st5" d="M109.6-1780.2c0,12.2,0.2,46.4,0.2,59.8c0,0.5,7.1,0.7,13.7,0.2c1-0.1-1-15.3,0-24.7c0,0,11.2-0.8,18.7,0.1
				c0.2,4.4-0.8,23.5,0,24.7c0.3,0.4,13.8,0.8,13.7-0.1c-0.4-3.3,0.8-51.3-0.2-59.9c-0.1-0.5-6.5-0.2-12.7,0c-0.6,0-1,0.5-1,1.1
				c0.2,4.4,1,21.8,0.2,22.3c-1.9,1-16.9,0.7-18.6,0.1c-1.3-0.5,0.1-22.8-0.2-23.4C123.1-1781.1,110.9-1780,109.6-1780.2"/>
			<g>
				<path class="st3" d="M109.1-1780.2c0,13.8,0.1,27.5,0.1,41.3c0,3.5,0,6.9,0,10.4c0,1.4,0,2.8,0,4.2c0,1-0.4,3.1,0,3.9
					c0.6,1.4,3.7,0.9,4.9,1c2.4,0,4.7,0,7.1-0.1c0.8,0,2.3,0.3,2.8-0.5c0.9-1.2,0.2-4.3,0.1-5.6c-0.2-3.8-0.4-7.6-0.5-11.4
					c0-2,0-3.9,0.1-5.9c0-0.4,0.1-1.7-0.2-1.4c0.1-0.1,1-0.1,1.2-0.1c3.4-0.2,6.8-0.3,10.2-0.2c1.9,0,3.9,0,5.9,0.3
					c1.2,0.1,0.6-0.3,0.9,0.4c0.2,0.4,0,1.3,0,1.8c0,2.9-0.1,5.8-0.2,8.7c-0.1,3.1-0.1,6.2-0.1,9.3c0,1-0.3,3.6,0.4,4.4
					c0.7,0.8,2.9,0.6,3.8,0.6c2.6,0.1,5.3,0.2,8,0c1-0.1,2.5,0.1,2.8-1c0.2-0.7-0.1-2.1-0.1-2.9c-0.1-10.9,0.2-21.7,0.3-32.6
					c0-5.6,0.1-11.3,0-16.9c0-1.9-0.1-3.9-0.2-5.8c-0.1-1.2,0.1-2.1-1.1-2.5c-1.4-0.4-3.3-0.1-4.7-0.1c-2.4,0.1-5.3-0.3-7.6,0.2
					c-2,0.5-1.4,3-1.3,4.6c0.2,5.8,0.7,11.6,0.3,17.4c0,0.7,0,1.2-0.5,1.6c-0.8,0.5-2.6,0.3-3.5,0.4c-3,0.2-6,0.1-9,0
					c-1.2,0-4.7,0.3-5.3-0.8c-0.3-0.6-0.2-1.9-0.2-2.5c0-1.3,0-2.6,0-3.9c0-5,0.4-10.1,0.4-15.1c0-1,0.1-1.4-0.9-1.8
					c-2-0.7-5-0.1-7.1,0c-2.1,0.1-4.4,0.4-6.5,0.3c-0.6,0-0.6,1,0,1c3.2,0.2,6.4-0.3,9.6-0.4c0.7,0,3.7-0.2,3.8,0c0.3,0.3,0,2,0,2.4
					c-0.2,6.4-1,13.2-0.2,19.6c0.2,1.8,0.9,1.9,2.6,2.1c3.7,0.4,7.5,0.4,11.2,0.3c1.4,0,5.2,0.4,6.1-1c0.4-0.5,0.3-1.7,0.3-2.3
					c0.1-1.8,0-3.7,0-5.5c-0.1-3.9-0.2-7.8-0.4-11.8c0-0.6-0.2-1.5-0.1-2.1c0.4-1.7,2.7-1.4,4.2-1.4c1.4,0,2.8-0.1,4.2-0.1
					c1.2,0,2.9-0.3,4,0.1c0.6,0.2,0.2-0.3,0.3,0.5c0.1,0.4,0.1,0.8,0.1,1.2c0.1,1.3,0.1,2.6,0.1,3.9c0.1,3.3,0.1,6.6,0.1,9.9
					c0,14.1-0.6,28.2-0.3,42.3c0,0.3,0.1,0.7,0,1.1c-0.1,0.7,0.1,0.2-0.1,0.4c-0.9,0.7-3.7,0.3-4.8,0.3c-2,0-4,0-6.1-0.2
					c-1.3-0.1-1.9,0.2-1.9-1c-0.1-7.8,0.4-15.7,0.2-23.5c0-0.3-0.2-0.5-0.5-0.5c-6.2-0.6-12.5-0.5-18.7-0.1c-0.3,0-0.5,0.2-0.5,0.5
					c-0.7,6.9,0,13.9,0.2,20.8c0,0.8,0.3,2.2,0,2.9c-0.3,0.8-0.7,0.6-1.6,0.6c-1.3,0.1-2.7,0.1-4,0.1c-1.8,0-3.7,0-5.5-0.1
					c-1.7-0.1-2,0.1-2-1.5c0-13-0.1-26.1-0.1-39.1c0-6.3,0-12.7,0-19C110.1-1780.8,109.1-1780.8,109.1-1780.2L109.1-1780.2z"/>
			</g>
		</g>
		<g>
			<path class="st5" d="M216.3-1750.2c-0.4-20.1-10.5-30.3-25-30.9c-34.1-1.1-35.7,60.6-0.8,61.8
				C206.7-1718.8,216.6-1733.5,216.3-1750.2z M191.2-1730.8c-17.4,1.1-13.2-40-0.7-38.9c10.1-0.8,11,12.7,11.1,14
				C202.4-1746,201.7-1731.4,191.2-1730.8z"/>
			<g>
				<path class="st3" d="M216.8-1750.2c-0.2-7.7-1.7-15.8-6.5-22c-3.9-5.1-9.7-8.2-16.1-9.1c-10.5-1.4-20.1,3.4-25.2,12.7
					c-9.5,17-4.1,46.1,18,49.5c7.9,1.2,15.8-1.1,21.3-6.9C214.5-1732.5,216.9-1741.6,216.8-1750.2c0-0.6-1-0.6-1,0
					c0.2,15.1-8.9,31.2-25.8,30.4c-10.3-0.5-18.3-7.2-22-16.6c-6.5-16.7-0.1-43.2,21.1-44.1c6.9-0.3,13.8,1.9,18.7,6.9
					c6,6.2,7.7,15.1,8,23.4C215.8-1749.6,216.8-1749.6,216.8-1750.2z"/>
				<path class="st3" d="M191.2-1731.3c-13.5,0.6-12-20.9-9.2-29.1c1.8-5.2,5-9.9,11.2-8.7c6.1,1.2,7.7,8.6,8.1,13.9
					C201.7-1747.2,201.9-1732.2,191.2-1731.3c-0.6,0.1-0.6,1.1,0,1c9.9-0.9,11.2-12.6,11.2-20.5c-0.1-5.9-0.5-13.8-5.7-17.7
					c-2.4-1.8-6.2-2.3-9-1.2c-2.4,1-4,3.2-5.2,5.4c-3.2,6.1-4.1,13.9-3.1,20.7c0.9,6.5,4.2,13.7,11.8,13.4
					C191.8-1730.3,191.8-1731.3,191.2-1731.3z"/>
			</g>
		</g>
		<g>
			<path class="st5" d="M277.5-1780.1c-0.4-0.3-13.2-0.5-16.4,0.4c-4.3,14.3-19.5,59.1-19,59.5c0.8,0.6,12.1,0.6,12.4,0
				c1.4-4.1,3.8-12.2,3.8-12.2s18.4-0.6,19.3,0c0.6,0.4,2.7,11.4,3.8,12.3c0.8,0.7,14.9,0.3,15,0
				C296.7-1721.1,278.6-1779.2,277.5-1780.1z M261.6-1743.5c-0.3-0.4,4.9-19,6.4-21.1c0.9,2.7,6.4,21.1,6.3,21.1
				C273-1743.1,261.8-1743.2,261.6-1743.5z"/>
			<g>
				<path class="st3" d="M277.7-1780.6c-1.1-0.5-2.6-0.3-3.7-0.3c-2.5-0.1-5.1,0-7.6,0.1c-1.3,0.1-4.5-0.3-5.6,0.6
					c-0.8,0.7-1.1,3.1-1.4,4.1c-3.1,9.9-6.4,19.7-9.6,29.5c-2.6,8-5.4,16.1-7.8,24.2c-0.4,1.4-1.1,2.5,0.8,2.8
					c2,0.3,4.1,0.3,6.1,0.2c1.4,0,4,0.3,5.3-0.3c1.3-0.7,1.5-3.2,1.9-4.5c0.7-2.3,2.1-5.1,2.3-7.6c0-0.2,0.1-0.5,0.2-0.6
					c0,0.1-0.7,0.4-0.3,0.3c0.5-0.1,1,0,1.6,0c2-0.1,4.1-0.1,6.1-0.2c2.3,0,4.6-0.1,6.8-0.1c0.9,0,3.6-0.4,4.4,0.2
					c0.3,0.3,0.5,1.7,0.6,2.1c0.3,1.2,0.6,2.4,0.9,3.6c0.5,1.9,0.8,4,1.7,5.7c1.2,2.2,6,1.3,8.1,1.3c2.1,0,4.3,0,6.4-0.2
					c0.6,0,1.5,0.1,1.8-0.5c0.4-0.9-0.8-3.5-1-4.3c-0.9-3.3-1.9-6.6-2.9-9.8c-2.7-8.9-5.4-17.8-8.3-26.6c-2-6.2-3.7-12.6-6.3-18.7
					c-0.2-0.4-0.3-0.8-0.6-1.1c-0.5-0.5-1.2,0.2-0.7,0.7c0.8,0.8,1.4,3.6,1.8,4.9c1.3,3.7,2.5,7.5,3.7,11.3c3,9.3,5.9,18.7,8.8,28
					c1.1,3.6,2.2,7.2,3.2,10.8c0.3,1.1,0.6,2.3,0.9,3.4c0.1,0.3,0.1,0.6,0.2,0.9c0.1,0.4,0.5-0.1,0-0.1c-4.2-0.3-8.5,0.5-12.8,0.1
					c-2.1-0.2-2.1-1.9-2.6-3.7c-0.7-2.3-1.2-4.7-1.8-7.1c-0.3-1.2-0.4-1.7-1.7-1.9c-2-0.4-4.3-0.2-6.4-0.2c-4.1,0-8.2,0.1-12.3,0.3
					c-0.2,0-0.4,0.2-0.5,0.4c-1.1,3.6-2.1,7.1-3.3,10.6c-0.3,0.8-0.2,1.1-0.9,1.5c-0.5,0.3-1.6,0.1-2.2,0.2c-1.9,0.1-3.8,0.1-5.7,0
					c-0.8,0-1.5,0-2.3-0.1c-0.6-0.1-1.1-0.4-0.9,0.2c-0.1-0.2,0.3-1.1,0.4-1.4c0.6-2.3,1.4-4.5,2.1-6.7c4.8-15.1,9.9-30.2,14.7-45.3
					c0.5-1.5,0.8-3.5,1.5-4.9c0.5-0.9,0.3-0.7,1.5-0.9c0.9-0.1,1.9-0.2,2.9-0.2c2.4-0.1,4.8-0.2,7.2-0.1c1.2,0,3.3-0.3,4.4,0.2
					C277.8-1779.4,278.3-1780.3,277.7-1780.6z"/>
				<path class="st3" d="M262.1-1743.7c-0.2-0.7,0.6-2.7,0.8-3.5c0.6-2.1,1.2-4.3,1.8-6.4c1-3.5,1.8-7.8,3.7-10.9
					c-0.3,0-0.6-0.1-0.9-0.1c2,6,3.7,12.1,5.5,18.2c0.3,0.9,0.4,1.8,0.7,2.7c0.2,0.5-0.3-0.2,0.3-0.3c-0.2,0-0.5,0.1-0.7,0.1
					c-0.6-0.1-1.5,0.1-2.2,0.1c-1.9,0-3.7,0-5.6,0c-0.9,0-2.8,0.3-3.6-0.2c-0.6-0.3-1.1,0.6-0.5,0.9c1.5,0.8,4.3,0.3,5.9,0.3
					c2.3,0,4.9,0.3,7.1-0.3c0.2-0.1,0.3-0.3,0.4-0.5c0.1-0.8-0.5-2.1-0.8-2.9c-0.6-2.2-1.3-4.4-1.9-6.6c-1.2-3.9-2.3-7.9-3.6-11.8
					c-0.1-0.4-0.7-0.5-0.9-0.1c-2.1,3.3-2.9,7.9-4,11.6c-0.7,2.3-1.3,4.6-1.9,6.9c-0.2,0.8-0.8,2.2-0.6,3.1
					C261.3-1742.8,262.2-1743,262.1-1743.7z"/>
			</g>
		</g>
		<g>
			<path class="st5" d="M302.8-1780.1c-0.4,12,0.3,48,0.2,60c0,0.5,3.7,1,11.7-0.1c1.1-0.1-0.1-49-0.1-49s12.8,47.4,14.9,48.9
				c0.8,0.6,9.5,0.5,9.6,0.1c2.4-10.6,14.9-49.7,14.9-49.7s-0.4,43.3,0.1,49.5c0.1,0.8,10.8,0.5,14.1-0.1c0.7-0.1,0.5-53,0-59.7
				c0,0-8.1-0.8-21.9,0c-1.2,0.1-10.5,38.2-10.5,38.2s-10.6-38-11-38.2C324.1-1780.4,306.4-1780.5,302.8-1780.1"/>
			<g>
				<path class="st3" d="M302.3-1780.1c-0.3,10.7-0.1,21.4,0,32c0,5.9,0.1,11.9,0.1,17.8c0,2.3,0,4.6,0,6.9c0,1-0.5,3,0.3,3.8
					c0.7,0.7,2.9,0.5,3.8,0.5c1.5,0,3.1-0.1,4.6-0.2c1-0.1,3.2,0.1,3.8-0.5c0.9-0.8,0.5-3.4,0.6-4.5c0.2-8.4,0-16.8-0.1-25.1
					c-0.1-6.6-0.2-13.1-0.4-19.7c-0.3,0-0.7,0.1-1,0.1c4,14.7,7.8,29.5,12.8,43.9c0.5,1.4,1,4.3,2.3,5.2c1.2,0.9,3.8,0.5,5.1,0.5
					c1.1,0,4,0.4,5-0.3c0.8-0.6,0.9-2.9,1.1-3.8c0.6-2.1,1.2-4.2,1.8-6.4c1.5-5.3,3.1-10.5,4.7-15.8c2.5-8.1,5-16.1,7.6-24.1
					c-0.3,0-0.7-0.1-1-0.1c-0.1,7.5-0.1,14.9-0.2,22.4c0,5.7,0,11.3,0,17c0,2.1,0,4.2,0.1,6.3c0,1-0.3,3,0.2,3.9
					c0.5,1,2.2,0.8,3.2,0.9c3,0.1,6,0,8.9-0.3c1-0.1,2.5,0.1,3-0.8c0.3-0.6,0.2-1.8,0.2-2.4c0.4-9.4,0.3-18.8,0.2-28.1
					c0-9.7,0.3-19.5-0.5-29.1c0-0.3-0.2-0.5-0.5-0.5c-4.3-0.4-8.7-0.4-13-0.3c-2.3,0-4.6,0.1-6.9,0.2c-0.7,0-1.8-0.2-2.4,0.3
					c-0.6,0.5-0.8,1.8-1,2.4c-3,8.9-5.1,18.1-7.3,27.2c-0.7,2.9-1.5,5.8-2.2,8.7c0.3,0,0.6,0,1,0c-2.2-7.9-4.4-15.9-6.7-23.8
					c-1.2-4.2-2.4-8.5-3.7-12.7c-0.2-0.5-0.3-1.6-0.8-2c-0.8-0.6-3.2-0.2-4.1-0.3c-6-0.1-12.2-0.4-18.2,0.2c-0.6,0.1-0.6,1.1,0,1
					c5-0.5,10.3-0.3,15.3-0.2c2,0,4.2-0.2,6.2,0.1c0.6,0.1-0.1-0.4,0.2,0.1c0.2,0.4,0.3,1,0.5,1.5c2.8,9.1,5.3,18.3,7.9,27.5
					c0.8,2.9,1.6,5.8,2.4,8.7c0.1,0.5,0.8,0.5,1,0c2.7-11.1,5.4-22.1,8.6-33.1c0.3-1.1,0.6-2.1,1-3.2c0.1-0.3,0.2-0.9,0.4-1.1
					c0.6-0.7-0.3-0.1,1-0.5c1.6-0.4,3.8-0.2,5.4-0.2c1.3,0,2.6-0.1,4-0.1c2.4,0,4.8,0,7.2,0.1c1.1,0,2.5,0.4,3.6,0.2
					c0.2,0,0.4,0,0.6,0.1c-0.8-0.2-0.3-0.4-0.4,0.5c-0.3,2.1,0.2,4.5,0.2,6.5c0.3,14.6,0.4,29.3,0.1,43.9c0,2.2-0.1,4.4-0.2,6.6
					c0,0.3,0.1,1.2-0.1,1.4c0.1-0.1-1.1,0-1.5,0.1c-1,0.1-2.1,0.2-3.2,0.2c-2,0.1-4,0.2-6,0.1c-1.5-0.1-2.4,0.2-2.5-0.8
					c-0.3-2.4-0.1-4.9-0.2-7.3c-0.1-13.8,0-27.6,0.1-41.3c0-0.6-0.8-0.7-1-0.1c-4.9,15.4-10,30.8-14.1,46.5
					c-0.2,0.8-0.4,1.5-0.6,2.3c-0.2,0.9,0,0.7-1.1,0.8c-2.2,0.2-4.5,0.2-6.7,0c-1.2-0.1-1.3-0.2-1.8-1.3c-0.5-1.1-0.9-2.3-1.3-3.5
					c-2.8-8.2-5.2-16.6-7.5-25c-1.8-6.3-3.6-12.7-5.3-19c-0.1-0.5-1-0.4-1,0.1c0.3,13.1,0.6,26.3,0.5,39.4c0,2.7,0,5.4-0.2,8
					c-0.1,1.8-0.5,1.2-2.5,1.4c-2.4,0.2-5.1,0.6-7.5,0.2c-0.9-0.1-0.8,0-1-0.7c-0.2-0.8,0-2,0-2.8c0-2.1,0-4.3,0-6.4
					c0-5.5-0.1-11-0.1-16.4c-0.1-11.2-0.3-22.5,0-33.7C303.3-1780.8,302.3-1780.8,302.3-1780.1L302.3-1780.1z"/>
			</g>
		</g>
		<g>
			<path class="st5" d="M402.9-1779.6c0,15.2-0.9,59.2,0.1,59.3c1.2,0.2,13.6,1,13.9-0.1c0.5-1.9,0.4-59.4-0.1-59.5
				C416.4-1780,406.6-1780.5,402.9-1779.6"/>
			<g>
				<path class="st3" d="M402.4-1779.6c0,13.8-0.3,27.5-0.3,41.3c0,5.3-0.1,10.5,0.2,15.8c0,0.6-0.1,2.1,0.4,2.6
					c0.9,0.9,4.3,0.5,5.4,0.5c2.6,0.1,5.8,0.6,8.3-0.1c1-0.3,1-0.7,1.1-1.6c0.3-3.6,0.2-7.3,0.2-10.9c0.1-12.2,0.1-24.4,0-36.6
					c0-2.4-0.1-4.8-0.1-7.3c0-1.1,0.2-2.8-0.1-3.8c-0.4-1.2-1.8-0.9-3-0.9c-3.8-0.2-7.8-0.4-11.6,0.5c-0.6,0.1-0.4,1.1,0.3,1
					c3.2-0.7,6.7-0.6,10-0.5c1,0,2.4-0.1,3.4,0.2c-0.1,0,0-0.5,0,0.2c-0.2,3.1,0.2,6.4,0.2,9.5c0.1,11.1,0.1,22.1,0.1,33.2
					c0,4.2,0,8.5-0.1,12.7c0,0.6,0.3,2.6-0.1,3.1c-0.6,0.9-4.4,0.4-5.6,0.4c-1.3,0-2.7-0.1-4-0.2c-1-0.1-2.4,0.1-3.4-0.2
					c-0.6-0.2,0.1,0.3,0,0.1c-0.1-0.1-0.1-0.4-0.1-0.5c0-0.6-0.1-1.3-0.1-1.9c-0.2-4.8-0.2-9.7-0.1-14.5c0-14,0.3-28.1,0.3-42.1
					C403.4-1780.2,402.4-1780.2,402.4-1779.6L402.4-1779.6z"/>
			</g>
		</g>
		<g>
			<path class="st5" d="M431-1776c-4.1,3.1-7.5,14.7-7.1,14.9c1.4,0.4,11.3,1.9,12,1.5c0.3-0.2-0.3-8.6,6.5-10.5
				c10.3-2.8,11.4,8.2,7.3,12.9c-1.4,1.5-6.7,3.4-9.4,8.1c-2.3,3.9-1.6,9.8-1.1,11.8c0,0,8.8-0.1,10.8,0c0.2,0,0.4-0.2,0.4-0.4
				c0.3-3-1-4,0.7-5.6c6.1-5.7,15.5-10.7,14.7-21.3C464.5-1781.7,440.9-1785.9,431-1776"/>
			<g>
				<path class="st3" d="M430.6-1776.3c-2.4,1.9-3.8,5-4.9,7.7c-0.6,1.5-1.2,2.9-1.6,4.4c-0.2,0.7-0.9,2-0.7,2.8
					c0.3,1.4,3.1,1.2,4.2,1.4c1.5,0.2,2.9,0.4,4.4,0.6c1,0.1,2.6,0.6,3.6,0.3c1.3-0.4,0.9-2,1.1-3.2c0.7-4,2.9-7,7.1-7.7
					c4-0.7,7.2,1.4,7.6,5.5c0.3,2.9-0.8,6.1-3.2,7.8c-3.3,2.3-7,4.2-8.8,8.1c-1.6,3.4-1.5,7.6-0.7,11.3c0,0.2,0.3,0.3,0.5,0.4
					c2.3,0.2,4.8,0,7.1,0c2.2,0,4.7,0.9,4.7-1.9c-0.1-2.2-0.5-3.2,1.4-4.9c1.5-1.3,3-2.5,4.5-3.8c2.7-2.3,5.4-4.7,7.3-7.8
					c3.4-5.7,2.8-13.2-1.1-18.4c-3.4-4.5-8.8-7.1-14.3-7.8C442.2-1782.4,435.3-1780.9,430.6-1776.3c-0.5,0.4,0.2,1.2,0.7,0.7
					c8.7-8.4,26.2-6.4,32.1,4.5c4,7.4,1.2,15-4.5,20.4c-2.5,2.4-5.5,4.4-8,6.9c-0.8,0.8-1.3,1.5-1.3,2.6c0,0.7,0.2,1.4,0.2,2.1
					c0,1.2-0.1,1.1-1,1.3c-2.6,0.4-5.7,0-8.4,0c-0.2,0-0.9,0.1-1.1,0c0,0,0.1,0.1,0.1-0.6c0-1.8-0.4-3.6-0.2-5.5
					c0.5-4.9,3.5-8.1,7.5-10.6c2-1.3,3.7-2.3,4.7-4.6c1.7-3.7,1.4-9.1-2.6-11.2c-4.7-2.5-10.7,0.6-12.5,5.3
					c-0.4,1.1-0.6,2.2-0.8,3.4c-0.1,0.4,0,1-0.1,1.4c-0.2,0.5,0.5,0.2-0.3,0.2c-3,0-6.2-0.6-9.2-1.1c-0.4-0.1-1.4-0.1-1.6-0.3
					c0.2,0.1,0,0,0.2-0.6c0.5-1.3,0.8-2.6,1.2-3.9c1.2-3.3,2.8-7.3,5.6-9.6C431.8-1776,431.1-1776.7,430.6-1776.3L430.6-1776.3z"/>
			</g>
		</g>
		<g>
			<path class="st5" d="M438.7-1733.3c0,5.9-0.6,12.5,0,13.2c0.3,0.3,14,0.1,13.9-0.3c-0.1-0.6,0.4-13.1-0.5-12.9
				C450.5-1733.1,440.5-1733.8,438.7-1733.3"/>
			<g>
				<path class="st3" d="M438.2-1733.3c0,3.8-0.4,7.6-0.3,11.4c0,1.1-0.1,2,1,2.3c1.5,0.5,3.8,0.1,5.4,0.1c2.2,0,4.4-0.1,6.5-0.2
					c0.7,0,1.8,0.1,2.2-0.6c0.5-0.8,0-3.3,0-4.2c0-2.3,0.1-4.6-0.1-6.8c-0.1-0.8,0-2.1-0.9-2.5c-0.5-0.2-1.8,0.1-2.3,0.1
					c-1.4,0-2.8-0.1-4.2-0.1c-2.3-0.1-4.9-0.4-7.2,0.2c-0.6,0.1-0.4,1.1,0.3,1c2.2-0.5,4.7-0.2,6.9-0.1c1.2,0,2.5,0.1,3.7,0.1
					c0.4,0,2.3-0.3,2.6-0.1c-0.2-0.2,0,1.6,0,1.9c0.1,1.1,0.1,2.2,0.1,3.2c0,2.1-0.3,4.4-0.1,6.5c0,0.2,0.1,0.5,0,0.7
					c-0.1,0.4,0.5-0.3,0.1-0.3c-0.9,0.1-1.7,0.2-2.6,0.2c-2.2,0.1-4.4,0.2-6.6,0.2c-0.9,0-2.2,0.2-3.1,0c-1-0.3-0.8,0.2-0.9-1.1
					c-0.2-3.9,0.2-7.8,0.3-11.6C439.2-1733.9,438.2-1733.9,438.2-1733.3L438.2-1733.3z"/>
			</g>
		</g>
	</g>
</g>
<g id="Слой_4" class="st0">
	<g class="st2">
		<path class="st4" d="M51.5-1644.3c3.8,5.8,10.4,20.7,11.3,21.5c1.3,1.1,14.9,0.7,16.6-0.7c1.7-1.6,2.3-3.1,3.9-5.5"/>
		<path class="st4" d="M68.2-1688.9c-1.6,0.7-6.6,1.3-7.1,1.5c-0.6,0.3-5.2,8.6-6.7,12.4"/>
		<path class="st4" d="M32.4-1688.4c-1.4,1.3-3.9,4.7-3.5,5.6c0.6,1,12.8,21.4,12.9,22.2c0.1,1.1-18.9,33.4-18.7,35.8
			c0.1,1.1,15.8,1.5,16.3,1.3c0.7-0.3,3.7-5.2,4.8-7.3"/>
		<path class="st4" d="M83.8-1688.9c-1.8,2-3.9,2.4-4.4,5.1c-0.2,1,0.4,12.3,0.9,12.8c0.6,0.6,8.7,0.6,12.4,0.5
			c0.3,3.8,0.3,45.1,0.6,45.6c0.6,0.8,9.8,0.9,13.8,0.5c0.8-0.1,4.9-3.2,5.6-4.7"/>
		<path class="st4" d="M127.5-1677.1c-0.8,1.1-1.3,2.4-1.9,3.7c-0.6,1.2-1.4,2.5-2.6,3.1c-0.7,0.3-1.4,0.5-2.2,0.6
			c-3.2,0.4-6.5-0.2-9.4,1.1c0.1,0.2,0.3,0.2,0.5,0.2"/>
		<path class="st4" d="M226.8-1671.8c2-1.9,5.1-2,7.9-2c1.4,0,3,0.1,3.9,1.2c0.4,0.5,0.6,1.2,0.8,1.8c0.7,2.6,0.9,5.3,0.6,8"/>
		<path class="st4" d="M231.8-1646.5c1.3-0.3,7.6-0.5,8.4,0.6c0.7,1.1-0.3,22,1.7,23.2c1,0.6,14.6,0.5,15,0.3
			c0.4-0.2,3.2-4.3,4.1-7.1"/>
		<path class="st4" d="M214.3-1679.5c-9.4,16.3,1.7,23.9,1.9,25c0.4,2.4-13.9,27.6-12.3,29.4c1.2,1.2,16,2.7,16.3,2.4
			c2.1-1.8,3.7-3.8,5.1-6.2"/>
		<path class="st4" d="M33.1-1686c-1.2,1.6-2.1,2.9-3.3,4.6"/>
		<path class="st4" d="M35.3-1683.2c0.1,0.2,0,0.4-0.1,0.5c-1.1,1.6-2.2,3.2-3.3,4.8"/>
		<path class="st4" d="M37.7-1678.9c-1.4,1.6-2.5,3-3.9,4.6"/>
		<path class="st4" d="M39.6-1675.3c-1.3,1.4-2.6,2.7-4,4"/>
		<path class="st4" d="M42.1-1671.8c-1.3,1.5-2.8,3-4.3,4.3"/>
		<path class="st4" d="M43.9-1668.3c-1.6,1.4-2.6,2.3-4,3.9"/>
		<path class="st4" d="M45.9-1665c-1.3,1.3-2.7,2.6-4,3.9c-0.1,0.1-0.2,0.1-0.3,0.1"/>
		<path class="st4" d="M40-1657.2c2.2-1.2,5.7-2.9,8-3.8"/>
		<path class="st4" d="M38-1653.1c2.9-1.1,4.6-1.8,7.5-2.9"/>
		<path class="st4" d="M34.5-1647c2.1-1,5.3-2.4,7.5-3.2"/>
		<path class="st4" d="M31.6-1641.7c2-1.1,4.6-1.9,6.8-2.2"/>
		<path class="st4" d="M28.5-1636.3c2.2-0.8,4.8-1.7,7-2.4"/>
		<path class="st4" d="M25-1629.5c2.1-1.3,4.2-2.2,6.6-2.8"/>
		<path class="st4" d="M24.1-1624.5c3.1-1.3,6-3,8.7-4.9"/>
		<path class="st4" d="M30.7-1623.9c1.7-1.3,4.3-3.3,5.9-4.7c0,0,0.1,0,0.1,0"/>
		<path class="st4" d="M37.3-1623.6c1.2-1.5,3.6-3.7,5.2-4.8"/>
		<path class="st4" d="M53-1641.8c1.1-1.4,3.3-3.3,4.6-4.5"/>
		<path class="st4" d="M55.6-1637.5c1.5-1.7,3.2-3.3,5-4.6c-0.1,0.2-0.3,0.4-0.4,0.6"/>
		<path class="st4" d="M58.9-1630.6c1.2-2,2.7-3.9,4.5-5.5"/>
		<path class="st4" d="M61.1-1625.8c1-2,2.4-3.9,3.9-5.6"/>
		<path class="st4" d="M64.4-1622.3c1.5-2,3.5-4.3,5.2-6.2"/>
		<path class="st4" d="M72.4-1622.5c1.3-2.2,2.9-4.3,4.6-6.1"/>
		<path class="st4" d="M77.2-1623c1.1-2.2,2.3-4.4,3.7-6.4"/>
		<path class="st4" d="M56.1-1673.3c1.6-1.4,4.1-3,6-3.9"/>
		<path class="st4" d="M55.4-1677.1c1.1-1.5,3.2-2.3,4.9-3.1c1.9-0.8,3.6-1.8,5.4-3"/>
		<path class="st4" d="M58.5-1683.3c1.8-1.1,4.6-2,6.6-2.8c0.6-0.2,1.7-0.7,2.2-1.1"/>
		<path class="st4" d="M79.4-1681.3c1.1-1.1,2.4-2,3.7-2.8"/>
		<path class="st4" d="M79.8-1675.9c1.2-1.1,2.5-2.1,3.8-3c-0.1,0.1-0.2,0.2-0.3,0.3"/>
		<path class="st4" d="M80.8-1670.7c2.3-2.1,5.2-4.4,7.7-6.1"/>
		<path class="st4" d="M88.6-1670.4c2.2-2,5.1-4.3,7.4-6.2"/>
		<path class="st4" d="M92.8-1666.3c1.8-1.9,3.7-3.8,5.7-5.4c-0.1,0-0.2,0.1-0.3,0.1"/>
		<path class="st4" d="M92.7-1659.7c1.9-1.7,3.7-3.3,5.6-5c-0.1,0.1-0.2,0.1-0.3,0.2"/>
		<path class="st4" d="M92.9-1653c1.8-1.8,3.7-3.6,5.6-5.3"/>
		<path class="st4" d="M93.1-1646c1.7-2,3.9-4.2,6-5.9c-0.2,0.2-0.4,0.3-0.7,0.5"/>
		<path class="st4" d="M93.1-1640.3c1.7-1.8,3.2-3.1,5.1-4.6"/>
		<path class="st4" d="M93.3-1634.4c1.6-1.7,3-2.9,4.8-4.3"/>
		<path class="st4" d="M93.1-1629.4c1.8-1.6,3.3-2.9,5.1-4.5"/>
		<path class="st4" d="M94.8-1624.4c1.7-1.5,3.3-3,5-4.4"/>
		<path class="st4" d="M101.3-1623.9c1.6-1.9,3.4-3.6,5.5-4.9"/>
		<path class="st4" d="M112.4-1673.6c1.4-1.4,3-2.6,4.8-3.5"/>
		<path class="st4" d="M116.8-1669.4c0.6-0.7,1.9-1.8,2.5-2.5c1.6-1.7,3.6-3.7,5.6-4.9"/>
		<path class="st4" d="M210.6-1664.5c0.8-1.3,1.6-2.5,2.4-3.8"/>
		<path class="st4" d="M212.8-1659.1c0.9-1.3,1.8-2.5,2.7-3.8c0,0,0.1-0.1,0.1-0.1c0.1,0,0.1,0.1,0,0.1"/>
		<path class="st4" d="M215.6-1654.9c0.8-1.4,1.7-2.5,2.7-3.8"/>
		<path class="st4" d="M214.4-1649.7c2.1-1.2,5.3-2.8,7.6-3.6c-0.1,0.1-0.2,0.2-0.3,0.2"/>
		<path class="st4" d="M211.4-1643.3c1.7-1.1,3.1-2,4.8-3.1c0.7-0.4,2.1-1.2,2.8-1.4"/>
		<path class="st4" d="M208.6-1637.3c1.1-0.5,1.6-1,2.7-1.5c1.4-0.7,2.8-1.4,4.3-1.6"/>
		<path class="st4" d="M205.5-1630.8c2.1-1.3,4.4-2.3,6.8-2.9"/>
		<path class="st4" d="M205.3-1624.6c1.9-1.6,4.3-3.3,6.5-4.5c-0.1,0.1-0.1,0.1-0.2,0.2"/>
		<path class="st4" d="M211.2-1623.7c0-0.3,0.5-0.7,0.8-0.9c1.8-1.6,3.6-3.2,5.5-4.8"/>
		<path class="st4" d="M217.5-1622.9c0.2-0.4,0.5-0.7,0.8-0.9c1.7-1.5,3.9-3.3,5.6-4.8"/>
		<path class="st4" d="M232.8-1646.7c2.3-1.5,4.9-3.8,6.8-5.8c0.2-0.2,0.5-0.5,0.9-0.5"/>
		<path class="st4" d="M240-1646c2.1-1.9,4.8-4.4,6.8-6.3"/>
		<path class="st4" d="M240.3-1639.1c2-2.2,4.2-4.2,6.5-6"/>
		<path class="st4" d="M240.5-1633c2-2.2,3.9-4,6.3-5.7"/>
		<path class="st4" d="M240.8-1626.8c2-1.9,4-3.8,6-5.8"/>
		<path class="st4" d="M243.1-1622.2c2.1-2.1,4.7-4.7,6.8-6.7"/>
		<path class="st4" d="M251-1622.4c1.8-2.1,3.8-4.9,5.3-7.3c-0.1,0.1-0.2,0.1-0.4,0.2"/>
		<path class="st4" d="M229.6-1673.1c0-0.5,0.4-0.9,0.7-1.2c1.2-1.2,2.5-2.3,3.8-3.4"/>
		<path class="st4" d="M236.4-1673.9c1.4-1.6,3-3,4.8-4.2"/>
		<path class="st4" d="M239.7-1670.5c2.4-2.1,4.9-4.1,7.4-6"/>
		<path class="st4" d="M240-1665.8c2.2-1.7,4.4-3.4,6.6-5"/>
		<path class="st4" d="M242.8-1662.8c1.3-1.2,2.8-2.3,4.3-3.3c-0.1-0.1-0.2-0.1-0.2-0.1"/>
		<path class="st6" d="M48-1688.9c0.5,0.3,2.5,4.1,3.7,6.4c1.8,3.8,3.6,7.6,5.5,11.4c0.2,0.4,0.4,0.8,0.8,0.8c0.3,0,0.6-0.3,0.7-0.6
			c3.1-5.3,9.1-17.7,9.5-17.9c0.4-0.3,12.6-0.2,13,0c0.9,0.4-16.2,27.1-16.4,27.8c-0.3,1.3,18.7,31.6,18.4,32
			c-0.5,0.5-15.1,1-16.1,0.4c-0.9-0.5-9.3-18.3-12.1-21.9c-3.1,5.5-11,20.7-12.1,21.5c-1.3,0.9-13.6,0.7-13-0.2
			c6.5-11,17.5-29.8,17.5-29.9c0.3-0.6,0.5-1.3,0.5-2c0-1.2-12.3-20.8-13.5-23.3c-0.5-1-1.5-2.3-2.1-3.6
			C31.6-1689.7,46.5-1689.7,48-1688.9z"/>
		<g>
			<g>
				<path class="st3" d="M149.2-1673.1c3.9-3.1,7.9-0.3,8.6,4.1c0.5,3.3,0.4,6.8,0.2,10.1c-0.3,6.8-1.4,13.5-1.4,20.2
					c0.3,0,0.7-0.1,1-0.1c-0.1-0.4-0.2-0.5-0.5-0.8c-0.4-0.5-1.2,0.2-0.7,0.7c0.1,0.1,0.1,0.2,0.2,0.4c0.2,0.5,1,0.5,1-0.1
					c0-9.6,2.1-19.1,1.3-28.8c-0.2-2.6-0.7-5.2-2.9-6.9c-2.5-1.9-5.2-1.3-7.5,0.5C148-1673.4,148.7-1672.7,149.2-1673.1
					L149.2-1673.1z"/>
			</g>
		</g>
		<g>
			<g>
				<path class="st3" d="M142.8-1686.2c-2.4,0.9-4.5,2.8-6.5,4.4c-2.5,2.1-4.7,4.4-6.4,7.2c-4.1,6.6-5.8,14.7-5.8,22.5
					c0,13.4,8.8,27,22.6,29.6c8.6,1.6,15.9-2.5,22.1-8.1c0.5-0.4-0.2-1.1-0.7-0.7c-5.6,5-12,9-19.8,8c-6.3-0.8-11.9-4.3-16-9
					c-9.1-10.5-9.1-26.7-3.2-38.9c1.6-3.3,3.7-6.3,6.5-8.7c2.2-2,4.7-4.3,7.5-5.4C143.6-1685.5,143.4-1686.5,142.8-1686.2
					L142.8-1686.2z"/>
			</g>
		</g>
		<path class="st4" d="M135.6-1678.1c-1.6,1-3.4,2.2-5,3.3"/>
		<path class="st4" d="M133.1-1672.3c0,0.1,0.1-0.1,0.1-0.1c-0.1,0-0.2,0-0.2,0.1c-1.6,1.2-3.3,2.4-4.9,3.7c-0.4,0.3-0.7,0.5-1,0.9"
			/>
		<path class="st4" d="M131.2-1665.6c-2,1.6-3.9,3.2-5.9,4.8"/>
		<path class="st4" d="M130.6-1659.5c-2.1,1.9-4,3.6-6.1,5.5"/>
		<path class="st4" d="M131-1652.7c-2.2,2-4,3.8-6,5.8"/>
		<path class="st4" d="M132.1-1645.7c-1.8,1.7-3.6,3.4-5.4,5"/>
		<path class="st4" d="M134.6-1640.8c-1.9,1.9-3.3,3.4-5.2,5.3"/>
		<path class="st4" d="M138.9-1635.2c-1.7,1.6-3.4,3.3-5.1,4.9"/>
		<path class="st4" d="M144-1631.2c-1.7,1.7-3.4,3.4-5.1,5.1c-0.1,0.1-0.4,0-0.3-0.2c0.1-0.2,0.4-0.1,0.3,0.1"/>
		<path class="st4" d="M149.1-1628.7c-1.6,1.5-3.4,3.5-5,5"/>
		<path class="st4" d="M155.5-1627.6c-1.2,1.3-3.2,3.5-4.2,5"/>
		<path class="st4" d="M161.2-1628.1c-1.1,1.1-2.1,2.4-2.9,3.8"/>
		<path class="st4" d="M157.8-1677.7c-0.4,0-0.7,0.3-1,0.6c-0.8,0.8-1.6,1.6-2.4,2.4"/>
		<path class="st4" d="M162.6-1675.8c-1.6,1.6-3.1,3.2-4.5,4.8"/>
		<path class="st4" d="M165.1-1672.5c-2.4,2.1-4.6,4.4-6.7,6.8"/>
		<path class="st4" d="M166.6-1667c-1.2,1.5-2.4,2.9-3.8,4.2c-1.4,1.3-3.1,2.4-4.1,4c0-0.2,0.1-0.3,0.1-0.5"/>
		<path class="st4" d="M167.4-1660c-3.4,3.6-6.6,7.3-9.7,11.1"/>
		<path class="st4" d="M166.9-1653c-2.9,3.4-6,6.6-9.3,9.6"/>
		<path class="st4" d="M165.1-1645.4c-2.4,2-4.8,4.1-6.8,6.4"/>
		<g>
			<path class="st5" d="M181.5-1658.5c-0.4-20.1-10.5-30.3-25-30.9c-34.1-1.1-35.7,60.6-0.8,61.8
				C172-1627.1,181.9-1641.7,181.5-1658.5z M156.4-1639c-17.4,1.1-13.2-40-0.7-38.9c10.1-0.8,11,12.7,11.1,14
				C167.6-1654.2,167-1639.7,156.4-1639z"/>
			<g>
				<path class="st3" d="M182-1658.5c-0.2-7.7-1.7-15.8-6.5-22c-3.9-5.1-9.7-8.2-16.1-9.1c-10.5-1.4-20.1,3.4-25.2,12.7
					c-9.5,17-4.1,46.1,18,49.5c7.9,1.2,15.8-1.1,21.3-6.9C179.7-1640.8,182.2-1649.8,182-1658.5c0-0.6-1-0.6-1,0
					c0.2,15.1-8.9,31.2-25.8,30.4c-10.3-0.5-18.3-7.2-22-16.6c-6.5-16.7-0.1-43.2,21.1-44.1c6.9-0.3,13.8,1.9,18.7,6.9
					c6,6.2,7.7,15.1,8,23.4C181.1-1657.9,182.1-1657.9,182-1658.5z"/>
				<path class="st3" d="M156.4-1639.5c-13.5,0.6-12-20.9-9.2-29.1c1.8-5.2,5-9.9,11.2-8.7c6.1,1.2,7.7,8.6,8.1,13.9
					C167-1655.4,167.2-1640.5,156.4-1639.5c-0.6,0.1-0.6,1.1,0,1c9.9-0.9,11.2-12.6,11.2-20.5c-0.1-5.9-0.5-13.8-5.7-17.7
					c-2.4-1.8-6.2-2.3-9-1.2c-2.4,1-4,3.2-5.2,5.4c-3.2,6.1-4.1,13.9-3.1,20.7c0.9,6.5,4.2,13.7,11.8,13.4
					C157.1-1638.5,157.1-1639.5,156.4-1639.5z"/>
			</g>
		</g>
		<path class="st4" d="M278.4-1687.2c-7.5,2.6-13.4,8.9-13.7,16.8c-0.1,1.2,0,3.6,0.8,4.6c0.6,0.7,9.2,1.4,10.6,1.1
			c0.7-0.1,3-1.9,4-3.9"/>
		<path class="st4" d="M281.9-1674.9c2.1-0.9,4.9-1.5,7.1-0.7c1.4,0.5,2.4,1.9,2.8,3.3c0.3,0.8,0,1.8-0.1,2.7
			c-0.4,2.8-1.2,5.5-2.3,8"/>
		<path class="st4" d="M286.6-1660.6c-1.6,1.1-3.8,2.6-5.2,4.1c-0.8,0.8-1.5,1.7-2,2.7c-1.1,2.1-0.8,9.3-0.1,10.1
			c0.6,0.6,9.5,1.4,10,1.3c2.1-0.7,4.3-2.4,5-4.2"/>
		<path class="st4" d="M283.1-1642c-1.1,1-4.5,3.8-4.8,4.5c-0.3,0.8-0.1,12.3,1,13c0.6,0.4,12.8,0.2,13.8-0.5c0.6-0.5,3.2-3,4-4.5"
			/>
		<path class="st4" d="M299.7-1629.9"/>
		<path class="st4" d="M267.5-1678.9c1.6-1.1,3.2-2,5-2.7c-0.1,0-0.2,0.1-0.3,0.1"/>
		<path class="st4" d="M264.9-1672.6c0.3-0.5,0.8-1,1.2-1.4c1.4-1.2,2.9-2.3,4.5-3.3"/>
		<path class="st4" d="M265.1-1666.5c1.3-1.4,2.8-2.8,4.2-4.1"/>
		<path class="st4" d="M270.4-1664.8c0-0.3,0.3-0.6,0.5-0.8c1.3-1.2,2.7-2.3,4.1-3.3"/>
		<path class="st4" d="M285.9-1675.9c1.5-1.3,3.1-2.4,4.8-3.3"/>
		<path class="st4" d="M291.4-1674c1.4-0.9,2.7-1.9,4.1-2.8c0,0,0.1-0.1,0.1-0.1s-0.1,0-0.1,0"/>
		<path class="st4" d="M291.5-1668.3c1.6-1.2,3.7-2.4,5.4-3.4c-0.1,0-0.2,0-0.3,0"/>
		<path class="st4" d="M278.8-1652.2c1.6-1.3,3.3-2.4,5.1-3.2c-0.1,0.1-0.2,0.1-0.4,0.2"/>
		<path class="st4" d="M278.8-1646.9c1.4-1.4,3-2.8,4.6-4"/>
		<path class="st4" d="M280.4-1643.4c1.1-1,2.8-2.3,3.9-3.3"/>
		<path class="st4" d="M286-1642.6c1.3-1.3,3.2-3.1,4.6-4.3"/>
		<path class="st4" d="M278.2-1633.5c1.7-1.6,3.8-3.4,5.6-4.8"/>
		<path class="st4" d="M278.6-1626.8c1.3-1.6,2.8-3.2,4.2-4.7"/>
		<path class="st4" d="M282.2-1624.5c1.3-1.7,2.7-3.2,4.3-4.7"/>
		<path class="st4" d="M288.6-1624.3c0.9-1.4,2.7-3.5,3.9-4.7"/>
		<g>
			<path class="st5" d="M275.4-1685c-4.1,3.1-7.5,14.7-7.1,14.9c1.4,0.4,11.3,1.9,12,1.5c0.3-0.2-0.3-8.6,6.5-10.5
				c10.3-2.8,11.4,8.2,7.3,12.9c-1.4,1.5-6.7,3.4-9.4,8.1c-2.3,3.9-1.6,9.8-1.1,11.8c0,0,8.8-0.1,10.8,0c0.2,0,0.4-0.2,0.4-0.4
				c0.3-3-1-4,0.7-5.6c6.1-5.7,15.5-10.7,14.7-21.3C308.9-1690.7,285.4-1694.9,275.4-1685"/>
			<g>
				<path class="st3" d="M275.1-1685.3c-2.4,1.9-3.8,5-4.9,7.7c-0.6,1.5-1.2,2.9-1.6,4.4c-0.2,0.7-0.9,2-0.7,2.8
					c0.3,1.4,3.1,1.2,4.2,1.4c1.5,0.2,2.9,0.4,4.4,0.6c1,0.1,2.6,0.6,3.6,0.3c1.3-0.4,0.9-2,1.1-3.2c0.7-4,2.9-7,7.1-7.7
					c4-0.7,7.2,1.4,7.6,5.5c0.3,2.9-0.8,6.1-3.2,7.8c-3.3,2.3-7,4.2-8.8,8.1c-1.6,3.4-1.5,7.6-0.7,11.3c0,0.2,0.3,0.3,0.5,0.4
					c2.3,0.2,4.8,0,7.1,0c2.2,0,4.7,0.9,4.7-1.9c-0.1-2.2-0.5-3.2,1.4-4.9c1.5-1.3,3-2.5,4.5-3.8c2.7-2.3,5.4-4.7,7.3-7.8
					c3.4-5.7,2.8-13.2-1.1-18.4c-3.4-4.5-8.8-7.1-14.3-7.8C286.7-1691.4,279.8-1689.9,275.1-1685.3c-0.5,0.4,0.2,1.2,0.7,0.7
					c8.7-8.4,26.2-6.4,32.1,4.5c4,7.4,1.2,15-4.5,20.4c-2.5,2.4-5.5,4.4-8,6.9c-0.8,0.8-1.3,1.5-1.3,2.6c0,0.7,0.2,1.4,0.2,2.1
					c0,1.2-0.1,1.1-1,1.3c-2.6,0.4-5.7,0-8.4,0c-0.2,0-0.9,0.1-1.1,0c0,0,0.1,0.1,0.1-0.6c0-1.8-0.4-3.6-0.2-5.5
					c0.5-4.9,3.5-8.1,7.5-10.6c2-1.3,3.7-2.3,4.7-4.6c1.7-3.7,1.4-9.1-2.6-11.2c-4.7-2.5-10.7,0.6-12.5,5.3
					c-0.4,1.1-0.6,2.2-0.8,3.4c-0.1,0.4,0,1-0.1,1.4c-0.2,0.5,0.5,0.2-0.3,0.2c-3,0-6.2-0.6-9.2-1.1c-0.4-0.1-1.4-0.1-1.6-0.3
					c0.2,0.1,0,0,0.2-0.6c0.5-1.3,0.8-2.6,1.2-3.9c1.2-3.3,2.8-7.3,5.6-9.6C276.3-1685,275.6-1685.7,275.1-1685.3L275.1-1685.3z"/>
			</g>
		</g>
		<g>
			<path class="st5" d="M283.1-1642.3c0,5.9-0.6,12.5,0,13.2c0.3,0.3,14,0.1,13.9-0.3c-0.1-0.6,0.4-13.1-0.5-12.9
				C294.9-1642.1,284.9-1642.8,283.1-1642.3"/>
			<g>
				<path class="st3" d="M282.6-1642.3c0,3.8-0.4,7.6-0.3,11.4c0,1.1-0.1,2,1,2.3c1.5,0.5,3.8,0.1,5.4,0.1c2.2,0,4.4-0.1,6.5-0.2
					c0.7,0,1.8,0.1,2.2-0.6c0.5-0.8,0-3.3,0-4.2c0-2.3,0.1-4.6-0.1-6.8c-0.1-0.8,0-2.1-0.9-2.5c-0.5-0.2-1.8,0.1-2.3,0.1
					c-1.4,0-2.8-0.1-4.2-0.1c-2.3-0.1-4.9-0.4-7.2,0.2c-0.6,0.1-0.4,1.1,0.3,1c2.2-0.5,4.7-0.2,6.9-0.1c1.2,0,2.5,0.1,3.7,0.1
					c0.4,0,2.3-0.3,2.6-0.1c-0.2-0.2,0,1.6,0,1.9c0.1,1.1,0.1,2.2,0.1,3.2c0,2.1-0.3,4.4-0.1,6.5c0,0.2,0.1,0.5,0,0.7
					c-0.1,0.4,0.5-0.3,0.1-0.3c-0.9,0.1-1.7,0.2-2.6,0.2c-2.2,0.1-4.4,0.2-6.6,0.2c-0.9,0-2.2,0.2-3.1,0c-1-0.3-0.8,0.2-0.9-1.1
					c-0.2-3.9,0.2-7.8,0.3-11.6C283.6-1642.9,282.6-1642.9,282.6-1642.3L282.6-1642.3z"/>
			</g>
		</g>
		<path class="st6" d="M83.6-1677.1c0.2,0.2,14.6,0.5,14.7,0.7c0.1,0.1-0.4,38.3,0.1,47.4c3.6,0.5,13.7,0.9,14.3,0
			c0.4-0.6-0.6-47.9-0.3-48.1c0.4-0.2,13.9,0.5,14.8,0.1c0.8-0.3,0.5-11.6-0.1-11.9c-0.3-0.2-42.5-1-43.4,0
			C83.1-1688,83.5-1677.3,83.6-1677.1z"/>
		<path class="st6" d="M260.3-1688.9c-0.3-0.2-28.1,0.1-30.4,0.4c-3,0.3-6.2,0.9-8.9,2.3c-5.3,2.7-8.5,8.4-8.5,14.4
			c0,6,3.1,12.5,8.4,15.2c0.9,0.4,2.1,0.4,2,1.3c0,0.3-0.2,0.6-0.3,0.9c-4.4,8-8.3,16.2-11.7,24.6c-0.2,0.5,0.2,0.9,0.7,0.9
			c4.8-0.8,13.4,0.5,13.7,0.4c0.4-0.3,5.2-15.8,8.8-22.7c0.1-0.3,0.3-0.5,0.5-0.7c0.3-0.2,0.6-0.2,1-0.2c3.8-0.2,7.5-0.5,11.3-0.7
			c-0.1,4.9,0,24,0.2,24.2c0.2,0.2,9.9-0.1,13.7-0.1C261.5-1630.4,260.7-1688.6,260.3-1688.9z M246.9-1662.8c-5-0.1-10.1,0-15-0.6
			c-1-0.1-3.8-1.7-4.5-3.9c-0.4-1.4-0.7-2.3-0.7-3.7c0.1-1.9,0.9-3.7,2.5-5.3c1.8-1.9,15.2-2.2,17-2
			C247.4-1678.1,246.8-1666.5,246.9-1662.8z"/>
	</g>
</g>
<g id="Слой_8" class="st0">
	<rect x="2.5" y="-823.4" style="display:inline;fill:none;" width="1304" height="306"/>
	<text transform="matrix(1 0 0 1 2.4583 -763.3457)" class="st2"><tspan x="0" y="0" style="font-family:'FranklinGothic-Demi'; font-size:90px;">YES, YOU CAN!</tspan><tspan x="0" y="108" style="font-family:'FranklinGothic-Demi'; font-size:90px;">ТИ МОЖЕШ ДОПОМОГТИ! </tspan><tspan x="0" y="216" style="font-family:'FranklinGothic-Demi'; font-size:90px;">ТЫ МОЖЕШЬ ПОМОЧЬ!</tspan></text>
	<rect x="10.6" y="-445.4" style="display:inline;fill:none;" width="1304" height="306"/>
	<text transform="matrix(1 0 0 1 10.5549 -385.3457)" class="st2"><tspan x="0" y="0" style="font-family:'FranklinGothic-Demi'; font-size:90px;">CONTACT ME</tspan><tspan x="0" y="108" style="font-family:'FranklinGothic-Demi'; font-size:90px;">ЗВ’ЯЗАТИСЯ ЗІ МНОЮ </tspan><tspan x="0" y="216" style="font-family:'FranklinGothic-Demi'; font-size:90px;">СВЯЗАТЬСЯ СО МНОЙ</tspan></text>
</g>
<g id="Слой_15">
</g>
<g id="Слой_16">
</g>
<g id="Слой_9">
</g>
<g id="Слой_24">
</g>
<g id="Слой_7">
</g>
<g id="Слой_6">
</g>
<g id="Слой_13">
</g>
<g id="Слой_14">
</g>
<g id="Слой_11">
</g>
<g id="Слой_12">
</g>
<g id="Слой_10">
</g>
<g id="Слой_5">
</g>
<g id="Слой_21">
</g>
<g id="Слой_20">
</g>
<g id="Слой_19">
</g>
<g id="Слой_22">
</g>
<g id="Слой_25">
	<g>
		<g>
			<g>
				<path class="st3" d="M395.8,1.3c-2,1.7-4.9,4.9-4.7,7.7c0.1,1.7,0.7,3.5,1.1,5.2c1.6,6.6,3.3,13.2,5.1,19.8
					c2,7.3,4,14.5,6.1,21.8c0.7,2.4,1.4,4.7,2.1,7.1c0.3,0.8,0.5,2.3,1.2,2.9c0.9,0.7,3,0.5,4,0.5c2.3,0.1,4.7,0,7-0.1
					c1.4-0.1,3.1-0.1,4.4-0.6c1.9-0.7,2.8-2.9,3.6-4.6c0.3-0.6-0.6-1.1-0.9-0.5c-0.9,1.9-1.7,3.9-3.9,4.3c-1.4,0.3-2.8,0.3-4.2,0.4
					c-1.8,0.1-3.7,0.1-5.5,0.1c-0.9,0-3.3,0.3-4-0.3c-0.6-0.6-0.9-2.6-1.1-3.4c-0.7-2.3-1.4-4.5-2-6.8c-3.6-12.6-7.1-25.3-10.3-38
					c-0.5-2.2-1.1-4.4-1.5-6.7c-0.6-3.1,1.8-6,4.2-8C397,1.6,396.3,0.9,395.8,1.3L395.8,1.3z"/>
			</g>
		</g>
		<g>
			<g>
				<path class="st3" d="M429.5,0.6c-2.3,0.1-4.6,0.5-6,2.5c-1.4,2-1.9,4.7-2.5,7c-1.8,6.5-3.2,13.2-4.6,19.8
					c-0.1,0.6,0.8,0.9,1,0.3c1.1-5.6,2.4-11.2,3.8-16.7c0.6-2.5,1.3-4.9,2.1-7.3c1.1-3.2,2.9-4.3,6.3-4.5
					C430.2,1.5,430.2,0.5,429.5,0.6L429.5,0.6z"/>
			</g>
		</g>
		<g>
			<g>
				<path class="st3" d="M461.8,2.5c0.6,0,0.6-1,0-1C461.1,1.5,461.1,2.5,461.8,2.5L461.8,2.5z"/>
			</g>
		</g>
		<g>
			<g>
				<path class="st3" d="M461.8,2.5c0.6,0,0.6-1,0-1C461.1,1.5,461.1,2.5,461.8,2.5L461.8,2.5z"/>
			</g>
		</g>
		<g>
			<g>
				<path class="st3" d="M462.4,0.6c-2.4,1.2-5.2,2.5-6.2,5.2c-1.2,2.9-2,5.9-2.8,8.9c-1.6,5.7-3.4,11.4-4.3,17.2
					c0.2-0.1,0.5-0.2,0.7-0.3c-0.1,0-0.1-0.1-0.2-0.1c-0.6-0.3-1.1,0.6-0.5,0.9c0.1,0,0.1,0.1,0.2,0.1c0.3,0.1,0.7,0,0.7-0.3
					c0.8-5.3,2.4-10.5,3.8-15.7c0.8-3,1.7-5.9,2.7-8.9c0.3-0.8,0.5-1.9,1.1-2.6c1.1-1.5,3.6-2.6,5.3-3.5
					C463.5,1.1,463,0.3,462.4,0.6L462.4,0.6z"/>
			</g>
		</g>
		<g>
			<g>
				<path class="st3" d="M457.7,60.9c-2.2,3.1-4.7,5.4-8.6,5.4c-2.5,0-5.3,0.1-7.7-0.6c-3-0.8-3.6-5.5-4.3-8.1
					c-1.3-4.6-2.3-9.2-3.2-13.8c-0.6-3.2-1.4-6.6-1.6-9.9c0-0.6-1-0.6-1,0c0.1,3.9,1.1,7.9,1.9,11.7c1.1,5.3,2.2,10.6,3.9,15.7
					c0.4,1.3,0.9,3.1,1.8,4.2c1,1.2,2.8,1.3,4.3,1.5c2.5,0.3,5.4,0.6,8,0.2c3.1-0.4,5.6-3.4,7.3-5.8C458.9,60.9,458,60.4,457.7,60.9
					L457.7,60.9z"/>
			</g>
		</g>
		<path class="st4" d="M397,4.8c-1.6,3.3-2.9,6.2-4.3,9.6"/>
		<path class="st4" d="M399,12.4c-1.6,3.6-2.8,6.9-4,10.7"/>
		<path class="st4" d="M401.3,22.4c-1.7,3-3.1,5.7-4.3,8.8"/>
		<path class="st4" d="M403.5,31.1c-1.6,2.6-3,5.2-4.3,7.9"/>
		<path class="st4" d="M406.3,41.2c-1.3,2.8-2.9,6.3-4,9.2"/>
		<path class="st4" d="M408.2,49.2c-1.3,2.8-2.5,5.7-3.6,8.6c0-0.1,0-0.2,0.1-0.3"/>
		<path class="st4" d="M410.5,57.7c-1.2,2.3-2.5,4.6-3.8,6.8"/>
		<path class="st4" d="M413.8,61.7c-1,1.4-1.9,2.8-2.7,4.3c0-0.1,0-0.1,0.1-0.2"/>
		<path class="st4" d="M418.2,61.4c-0.9,1.3-1.8,2.8-2.5,4.2c0,0,0-0.1,0-0.1"/>
		<path class="st4" d="M422.2,61.4c-0.8,1.2-1.6,2.4-2.3,3.7"/>
		<path class="st4" d="M429.5,1.8c-2.3,1.4-4.6,2.9-6.9,4.4"/>
		<path class="st4" d="M427.8,7.1c-2.5,1.6-4.4,3.1-6.7,4.9"/>
		<path class="st4" d="M426.2,14.4c-2.3,1.2-4.4,2.4-6.8,3.6"/>
		<path class="st4" d="M424.6,20.2c-2.2,1.4-3.9,2.1-6.3,3.3"/>
		<path class="st4" d="M423.2,27c-1.6,1.7-3.9,2.6-5.8,4c0.1-0.1,0.2-0.1,0.3-0.2"/>
		<path class="st4" d="M421.7,33.3c-0.3,0.2-0.6,0.5-0.9,0.7c-1.1,0.8-2.1,1.6-3.2,2.4c0,0,0.1,0,0.1-0.1"/>
		<path class="st4" d="M436.5,28.6c-1.5,1.8-3.3,3.9-4.6,5.8"/>
		<path class="st4" d="M438,34.4c0,0.2-0.2,0.4-0.4,0.6c-1.7,1.9-3.1,3.5-4.8,5.4"/>
		<path class="st4" d="M439.8,41.6c-1.9,1.8-3.9,4-5.6,6.1"/>
		<path class="st4" d="M441.2,48.4c-1.8,2.3-3.4,4.2-5.3,6.4"/>
		<path class="st4" d="M443.1,55c-1.1,1.3-2.1,2.5-3.2,3.8c-0.8,0.9-1.6,1.9-2.2,2.9"/>
		<path class="st4" d="M444.2,60.3c-1.6,1.8-3.2,3.6-4.8,5.4"/>
		<path class="st4" d="M450.7,61.3c-1.5,1.4-3.3,3.7-4.3,5.5"/>
		<path class="st4" d="M455.5,61.5c-1.4,1.6-2.7,3.4-3.9,5.1"/>
		<path class="st4" d="M461.4,3.2c-2,1.5-3.9,3.1-5.6,4.9"/>
		<path class="st4" d="M459.8,9c-1.8,1.5-3.9,3.2-5.6,4.7"/>
		<path class="st4" d="M458.1,15.6c-2.1,1.6-3.9,3.2-5.9,5"/>
		<path class="st4" d="M456.8,21.9c-2.2,1.5-3.9,2.7-6.1,4.3"/>
		<path class="st4" d="M455.7,27.5c-1.9,1-3.8,2.1-5.7,3.3"/>
		<path class="st4" d="M454.7,32.7c-1.2,0.9-2.4,1.7-3.5,2.6c0.1,0,0.2,0,0.2-0.1"/>
		<g>
			<path class="st5" d="M410.4,1.6c1,4.2,9.3,40,9.3,40s9.5-40.5,9.8-40.5c6.5,0.2,12.8-0.6,12.9,0c0.7,3.2,10.5,40.6,10.5,40.6
				s7.3-37.5,9.1-40.6c0.5-0.8,11.3-0.3,11.3,0.4c0,1.1-12.3,54.1-14.9,59.4c-0.7,1.4-5.4,0-13.9,0.1c-0.3,0-9.8-39.6-9.8-39.6
				s-8.7,38.5-9.4,39.6c-0.3,0.4-13.4,1-13.8,0.2c-3-7.8-15.1-59.2-15.1-59.4C396.4,1.2,409.2,1.2,410.4,1.6"/>
			<g>
				<path class="st3" d="M409.9,1.7c3.2,13.3,6.2,26.7,9.3,40c0.1,0.5,0.9,0.5,1,0c2.8-12.1,5.6-24.2,8.7-36.3c0.3-1,0.5-2,0.8-3
					c0.5-1.7,0.9-0.8,2.8-0.8c2.8,0,5.6-0.3,8.4-0.2c1.5,0,1.1-0.1,1.5,1.4c1.7,7,3.6,14,5.4,21c1.6,6,3.1,12.1,4.7,18.1
					c0.1,0.5,0.9,0.5,1,0c2.2-11.1,4.3-22.2,7-33.2c0.5-2,0.8-4.6,1.7-6.4c0.5-1,0.9-0.9,2.2-1c1.7-0.1,3.5,0,5.3,0.1
					c0.8,0.1,1.6,0.1,2.3,0.2c0.4,0.1,1.2,0.5,0.9-0.1c0,0.1-0.2,0.9-0.2,1.1c-0.4,1.9-0.8,3.7-1.2,5.6c-3.1,13.5-6.3,27-9.8,40.4
					c-0.7,2.7-1.4,5.4-2.2,8c-0.4,1.2-0.7,3.8-1.9,4.4c-1.2,0.5-3.6,0-4.8-0.1c-1.2-0.1-2.4-0.2-3.6-0.2c-0.9,0-1.7-0.1-2.6-0.1
					c0.6,0-1.7,0-1.5,0.2c-0.7-0.6-1-3.6-1.2-4.4c-3-11.7-5.8-23.4-8.6-35.1c-0.1-0.5-0.9-0.5-1,0c-1.7,7.7-3.5,15.4-5.3,23.1
					c-1.1,4.6-2.1,9.2-3.3,13.7c-0.1,0.5-0.5,2.4-0.7,2.6c-0.7,0.6-4.8,0.3-6,0.4c-1.3,0-2.6,0.1-3.9,0.1c-0.6,0-2.5,0.2-3.1-0.2
					c-0.6-0.4-0.9-2.9-1.2-3.7c-1.3-4.5-2.5-9.1-3.7-13.7c-2.8-10.9-5.4-21.9-8-32.9c-0.5-2-0.9-4-1.4-5.9c-0.2-0.8-0.7-2-0.7-2.9
					c0-0.4-0.4,0.4-0.1,0.4c0.5,0,1-0.1,1.5-0.1c1.4-0.1,2.9-0.1,4.3-0.1c2.4,0,5.2-0.3,7.6,0.2c0.6,0.1,0.9-0.8,0.3-1
					c-2.1-0.5-4.5-0.3-6.6-0.3c-2.1,0-5.3-0.5-7.3,0.3c-1.5,0.6-0.1,3.3,0.2,4.5c2.6,11.2,5.3,22.4,8.1,33.5
					c1.4,5.4,2.7,10.9,4.3,16.3c0.5,1.7,0.9,3.3,1.5,5c0.5,1.4,1,1.5,2.5,1.6c2.8,0.2,5.7,0,8.6-0.1c1-0.1,3.2,0.2,3.9-0.7
					c0.5-0.6,0.7-2.1,0.9-2.9c0.6-2.2,1.1-4.4,1.6-6.6c2.4-10,4.7-20.1,7-30.2c-0.3,0-0.6,0-1,0c2.8,11.5,5.5,23,8.4,34.4
					c0.4,1.4,0.5,3.8,1.3,5c0.5,0.7,0.6,0.5,1.5,0.6c3.2,0,6.3,0.3,9.4,0.4c2,0.1,3.5,0.3,4.3-1.7c0.8-2,1.4-4.2,2-6.3
					c4-14.4,7.4-29.1,10.8-43.7c0.5-2.2,1-4.5,1.5-6.7c0.2-0.8,0.7-1.9,0-2.6c-0.5-0.5-2.3-0.5-2.9-0.5c-2-0.2-4-0.3-6-0.2
					c-2.1,0.1-2.8,0.2-3.5,2.1c-2.4,7.2-3.7,15-5.2,22.4c-1.2,5.6-2.3,11.2-3.4,16.8c0.3,0,0.6,0,1,0c-3.4-13-6.8-25.9-10.1-38.9
					c-0.1-0.5-0.2-1.6-0.6-1.9c-1-0.9-4-0.2-5.1-0.2c-1.9,0.1-3.8,0.1-5.7,0.1c-0.7,0-2.2-0.4-2.8,0.2c-0.3,0.3-0.3,0.9-0.4,1.3
					c-1.9,6.8-3.4,13.7-5,20.6c-1.5,6.3-3,12.5-4.4,18.8c0.3,0,0.6,0,1,0c-3.1-13.3-6.1-26.7-9.3-40C410.8,0.8,409.8,1.1,409.9,1.7
					L409.9,1.7z"/>
			</g>
		</g>
		<path class="st4" d="M6.3,0.9C3.9,3.4,0.8,6,0.6,6.9C0.3,7.7,1.8,65,2.4,65.4c0.3,0.2,12.4,0.3,13.2-0.3c0.9-0.6,2.1-2.8,2.6-4.3"
			/>
		<path class="st4" d="M18.5,34.4c0.6,1.8,8.1,29.6,9.1,31c0.1,0.1,10,1.3,11.4,0.5c1.3-0.8,2.2-2.8,3.5-5"/>
		<path class="st4" d="M51.7,29c0.1,10.6,0.1,35,0.8,36c0.8,1.2,15.3,1.2,15.5,0.8c1.5-2.4,2.2-3.1,3.8-5.5"/>
		<path class="st4" d="M49.8,0.8c-1.9,1.1-7.1,5.2-7.7,5.9c-0.4,0.5-4.7,15.1-5.6,23"/>
		<path class="st4" d="M0.9,12c1.4-2,3.1-3.8,4.9-5.4"/>
		<path class="st4" d="M0.9,17.9c1.5-2,3.1-3.9,4.8-5.7"/>
		<path class="st4" d="M0.7,23.2c0.6-0.6,1.2-1.3,1.8-1.9C3.5,20.2,4.6,19,5.8,18c0,0,0.1-0.1,0.2,0c0.1,0,0,0.1,0,0.1"/>
		<path class="st4" d="M1.1,30.3c1.5-2.1,3.2-4.1,5-5.9"/>
		<path class="st4" d="M1.5,35.7c1.3-1.9,3-3.6,4.8-4.9"/>
		<path class="st4" d="M1.5,43.5c0.7-1.3,1.7-2.4,2.7-3.5c0.6-0.7,1.3-1.4,1.9-2c0,0,0.1-0.1,0.2-0.1s0,0.1,0,0.1"/>
		<path class="st4" d="M1.7,49.6c1.5-1.8,3.1-3.5,4.8-5.2"/>
		<path class="st4" d="M2.5,56.7c1.1-1.7,2.5-3.2,4-4.5"/>
		<path class="st4" d="M2.1,63.7c1.2-1.5,2.6-3,4-4.3"/>
		<path class="st4" d="M6.4,65.3c1.2-1.3,2.3-2.6,3.5-3.9"/>
		<path class="st4" d="M12.7,65.6c0.8-1.5,1.8-2.9,3-4.1c-0.1,0.1-0.2,0.1-0.2,0.2"/>
		<path class="st4" d="M18.6,28.5c0.7-1.4,1.6-2.7,2.6-3.9"/>
		<path class="st4" d="M18.9,35.7c1.1-2,2.3-4,3.6-5.8"/>
		<path class="st4" d="M20.6,41.1c1.2-1.7,2.3-3.3,3.6-4.9c0.1-0.1,0.3-0.2,0.3,0"/>
		<path class="st4" d="M22.2,46.8c1.3-1.8,2.6-3.6,4-5.3"/>
		<path class="st4" d="M23.8,53.7c1.2-1.9,2.6-3.8,4.1-5.4"/>
		<path class="st4" d="M25.5,59.9c0.4-0.4,0.7-0.9,1.1-1.3c1.1-1.6,2.4-3.1,3.9-4.4c-0.1,0.1-0.3,0.1-0.4,0.2"/>
		<path class="st4" d="M28.2,65.7c1.3-1.7,2.7-3.4,4.2-4.8c0,0,0.1-0.1,0.1,0s0,0.1,0,0.1"/>
		<path class="st4" d="M35.1,66.4c1.4-1.7,2.6-3.5,3.6-5.4"/>
		<path class="st4" d="M41.3,10.3C43,8.8,45,7.5,47.1,6.6"/>
		<path class="st4" d="M39.2,16.6c2.2-1.4,4.4-2.8,6.6-4.2"/>
		<path class="st4" d="M37.9,22.1c2.2-1.7,4.5-3.3,6.8-4.8c0,0,0.1-0.1,0.1-0.1c0-0.1-0.1,0-0.1,0"/>
		<path class="st4" d="M36.9,27.5c2.2-1.7,4.5-3.4,6.8-5c-0.2,0-0.4,0-0.6,0.1"/>
		<path class="st4" d="M37.4,32.3c1.5-1.3,3-2.5,4.7-3.6c-0.1,0-0.3,0-0.4-0.1"/>
		<path class="st4" d="M54.1,23c0.9-0.6,1.9-1.3,2.8-1.9c0.1-0.1,0.4-0.2,0.5,0"/>
		<path class="st4" d="M52,30.4c1.4-1.7,3.2-3.1,5.1-4.1"/>
		<path class="st4" d="M51.7,37.7c1.9-1.6,3.8-3.2,5.8-4.8"/>
		<path class="st4" d="M51.9,43.7c1.8-2.1,3.7-4,5.7-5.9"/>
		<path class="st4" d="M51.6,51.4c1.5-2.5,4.2-4,6-6.3c-0.2,0.2-0.4,0.3-0.6,0.5"/>
		<path class="st4" d="M52.4,58c1.6-1.6,3.2-3.1,5-4.5c-0.1,0.1-0.2,0.2-0.4,0.3"/>
		<path class="st4" d="M52.4,65.2c1.4-1.7,3-3.3,4.6-4.7"/>
		<path class="st4" d="M58.4,66.1c1.5-1.8,3.2-3.6,4.8-5.3"/>
		<path class="st4" d="M63.3,66.4c1.3-1.8,2.9-3.6,4.6-5.1"/>
		<g>
			<path class="st5" d="M6.3,0.9c-0.4,12,0.3,48,0.2,60c0,0.5,3.7,1,11.7-0.1c1.1-0.1-0.1-49-0.1-49S30.9,59.3,33,60.7
				c0.8,0.6,9.5,0.5,9.6,0.1C45,50.3,57.6,11.1,57.6,11.1s-0.4,43.3,0.1,49.5c0.1,0.8,10.8,0.5,14.1-0.1c0.7-0.1,0.5-53,0-59.7
				c0,0-8.1-0.8-21.9,0C48.7,0.9,39.3,39,39.3,39s-10.6-38-11-38.2C27.7,0.6,9.9,0.4,6.3,0.9"/>
			<g>
				<path class="st3" d="M5.8,0.9c-0.3,10.7-0.1,21.4,0,32c0,5.9,0.1,11.9,0.1,17.8c0,2.3,0,4.6,0,6.9c0,1-0.5,3,0.3,3.8
					c0.7,0.7,2.9,0.5,3.8,0.5c1.5,0,3.1-0.1,4.6-0.2c1-0.1,3.2,0.1,3.8-0.5c0.9-0.8,0.5-3.4,0.6-4.5c0.2-8.4,0-16.8-0.1-25.1
					c-0.1-6.6-0.2-13.1-0.4-19.7c-0.3,0-0.7,0.1-1,0.1c4,14.7,7.8,29.5,12.8,43.9c0.5,1.4,1,4.3,2.3,5.2c1.2,0.9,3.8,0.5,5.1,0.5
					c1.1,0,4,0.4,5-0.3c0.8-0.6,0.9-2.9,1.1-3.8c0.6-2.1,1.2-4.2,1.8-6.4c1.5-5.3,3.1-10.5,4.7-15.8c2.5-8.1,5-16.1,7.6-24.1
					c-0.3,0-0.7-0.1-1-0.1c-0.1,7.5-0.1,14.9-0.2,22.4c0,5.7,0,11.3,0,17c0,2.1,0,4.2,0.1,6.3c0,1-0.3,3,0.2,3.9
					c0.5,1,2.2,0.8,3.2,0.9c3,0.1,6,0,8.9-0.3c1-0.1,2.5,0.1,3-0.8c0.3-0.6,0.2-1.8,0.2-2.4c0.4-9.4,0.3-18.8,0.2-28.1
					c0-9.7,0.3-19.5-0.5-29.1c0-0.3-0.2-0.5-0.5-0.5C67.4-0.1,63-0.1,58.7,0c-2.3,0-4.6,0.1-6.9,0.2C51,0.2,50,0,49.4,0.5
					c-0.6,0.5-0.8,1.8-1,2.4c-3,8.9-5.1,18.1-7.3,27.2c-0.7,2.9-1.5,5.8-2.2,8.7c0.3,0,0.6,0,1,0C37.6,30.9,35.4,23,33.1,15
					c-1.2-4.2-2.4-8.5-3.7-12.7c-0.2-0.5-0.3-1.6-0.8-2c-0.8-0.6-3.2-0.2-4.1-0.3c-6-0.1-12.2-0.4-18.2,0.2c-0.6,0.1-0.6,1.1,0,1
					c5-0.5,10.3-0.3,15.3-0.2c2,0,4.2-0.2,6.2,0.1c0.6,0.1-0.1-0.4,0.2,0.1c0.2,0.4,0.3,1,0.5,1.5c2.8,9.1,5.3,18.3,7.9,27.5
					c0.8,2.9,1.6,5.8,2.4,8.7c0.1,0.5,0.8,0.5,1,0c2.7-11.1,5.4-22.1,8.6-33.1c0.3-1.1,0.6-2.1,1-3.2c0.1-0.3,0.2-0.9,0.4-1.1
					c0.6-0.7-0.3-0.1,1-0.5c1.6-0.4,3.8-0.2,5.4-0.2c1.3,0,2.6-0.1,4-0.1c2.4,0,4.8,0,7.2,0.1c1.1,0,2.5,0.4,3.6,0.2
					c0.2,0,0.4,0,0.6,0.1c-0.8-0.2-0.3-0.4-0.4,0.5c-0.3,2.1,0.2,4.5,0.2,6.5c0.3,14.6,0.4,29.3,0.1,43.9c0,2.2-0.1,4.4-0.2,6.6
					c0,0.3,0.1,1.2-0.1,1.4c0.1-0.1-1.1,0-1.5,0.1c-1,0.1-2.1,0.2-3.2,0.2c-2,0.1-4,0.2-6,0.1c-1.5-0.1-2.4,0.2-2.5-0.8
					c-0.3-2.4-0.1-4.9-0.2-7.3c-0.1-13.8,0-27.6,0.1-41.4c0-0.6-0.8-0.7-1-0.1c-4.9,15.4-10,30.8-14.1,46.5
					c-0.2,0.8-0.4,1.5-0.6,2.3c-0.2,0.9,0,0.7-1.1,0.8c-2.2,0.2-4.5,0.2-6.7,0c-1.2-0.1-1.3-0.2-1.8-1.3c-0.5-1.1-0.9-2.3-1.3-3.5
					c-2.8-8.2-5.2-16.6-7.5-25c-1.8-6.3-3.6-12.7-5.3-19c-0.1-0.5-1-0.4-1,0.1c0.3,13.1,0.6,26.3,0.5,39.4c0,2.7,0,5.4-0.2,8
					c-0.1,1.8-0.5,1.2-2.5,1.4c-2.4,0.2-5.1,0.6-7.5,0.2c-0.9-0.1-0.8,0-1-0.7c-0.2-0.8,0-2,0-2.8c0-2.1,0-4.3,0-6.4
					c0-5.5-0.1-11-0.1-16.4c-0.1-11.2-0.3-22.5,0-33.7C6.9,0.2,5.9,0.2,5.8,0.9L5.8,0.9z"/>
			</g>
		</g>
		<path class="st4" d="M88.6,63.2c1.9-1.2,3.8-2.4,5.7-3.5"/>
		<path class="st4" d="M104.5,60.8C104.5,60.8,104.6,60.7,104.5,60.8c-0.1,0-0.1,0-0.1,0.1c-1.5,1.8-2.7,3.6-3.9,5.6"/>
		<path class="st4" d="M97.9,60.8c-1.7,1.7-3.2,3.6-4.5,5.7"/>
		<path class="st6" d="M91.8,1.1c0.5,0.3,7.8,15.3,11.4,22.3c3.6-7.1,11.1-21.8,11.9-22.1c0.4-0.1,12-0.5,12.2-0.4
			c0.4,0.2-18.1,32.4-18.5,33.8c-0.4,1.7-0.5,17.6-0.3,25.5c0,0.3-0.2,0.5-0.5,0.5c-3,0.2-13.3,0.3-13.5,0.1
			c-0.2-0.2,0.4-20.3,0-25.2C94.4,34.9,75.7,1.4,75.7,0.9C75.7,0.7,91.4,0.9,91.8,1.1z"/>
		<path class="st4" d="M75.7,0.8c-0.7,1.6-3.3,6-3.2,6.5c0,0.8,15.8,28.2,15.8,29.2C88.6,45,88.5,65,89,65.7
			c0.7,1.1,11.3,1.3,16.1,0.5c0.1,0,0.2-0.1,0.3-0.2c1-1.1,3-4.2,3-5.6"/>
		<path class="st4" d="M115.1,1.3c-2.6,0.6-4.7,0.9-7.3,1.6c-0.4,0.1-0.8,0.2-1.1,0.5c-0.4,0.3-0.7,0.8-0.9,1.2
			c-2.1,4-4.1,8.5-5.8,12.7"/>
		<path class="st4" d="M77.5,4.1C76.2,6,75.1,8,73.9,9.9"/>
		<path class="st4" d="M75.6,13.4c1-2,2.3-4,3.7-5.8"/>
		<path class="st4" d="M77.5,17c1.1-2,2.3-3.9,3.6-5.7"/>
		<path class="st4" d="M79.7,20.7c0.4-0.7,0.9-1.4,1.4-2.1c0.8-1.1,1.6-2.3,2.4-3.4"/>
		<path class="st4" d="M82.3,25.2c1.3-1.7,2.6-3.4,4-5.1"/>
		<path class="st4" d="M84.5,29.1c1.1-1.6,2.3-3.2,3.6-4.7"/>
		<path class="st4" d="M86.4,32.6c1.3-1.6,2.6-3.2,4-4.8c-0.1,0.1-0.2,0.1-0.3,0.1"/>
		<path class="st4" d="M88.2,36.5c1.4-1.6,2.9-3.1,4.6-4.5"/>
		<path class="st4" d="M88.6,42c1.9-1.7,3.9-3.2,6-4.7"/>
		<path class="st4" d="M88.5,47.4c2.1-1.4,4.2-2.7,6.3-3.9"/>
		<path class="st4" d="M88.5,53.1c1.9-1.3,3.9-2.6,5.9-3.7"/>
		<path class="st4" d="M88.7,57.6C88.8,57.6,88.7,57.7,88.7,57.6C88.6,57.6,88.7,57.6,88.7,57.6c1.9-1.3,3.8-2.5,5.8-3.5
			c-0.1,0-0.1,0.1-0.2,0.1"/>
		<path class="st4" d="M103.8,8.8c2.7-0.7,5.3-1.4,8-2.1"/>
		<path class="st4" d="M100.6,15.8c2.5-1.1,5.1-2.2,7.8-2.8"/>
		<path class="st4" d="M101.7,19.9c0.2-0.3,0.6-0.4,1-0.5c1.1-0.2,2.1-0.5,3.2-0.9c-0.1,0-0.1,0-0.2,0.1"/>
		<g>
			<g>
				<path class="st3" d="M360.7,16.5c3.9-3.1,7.9-0.3,8.6,4.1c0.5,3.3,0.4,6.8,0.2,10.1c-0.3,6.8-1.4,13.5-1.4,20.2
					c0.3,0,0.7-0.1,1-0.1c-0.1-0.4-0.2-0.5-0.5-0.8c-0.4-0.5-1.2,0.2-0.7,0.7c0.1,0.1,0.1,0.2,0.2,0.4c0.2,0.5,1,0.5,1-0.1
					c0-9.6,2.1-19.1,1.3-28.8c-0.2-2.6-0.7-5.2-2.9-6.9c-2.5-1.9-5.2-1.3-7.5,0.5C359.5,16.2,360.2,16.9,360.7,16.5L360.7,16.5z"/>
			</g>
		</g>
		<g>
			<g>
				<path class="st3" d="M354.2,3.4c-2.4,0.9-4.5,2.8-6.5,4.4c-2.5,2.1-4.7,4.4-6.4,7.2c-4.1,6.6-5.8,14.7-5.8,22.5
					c0,13.4,8.8,27,22.6,29.6c8.6,1.6,15.9-2.5,22.1-8.1c0.5-0.4-0.2-1.1-0.7-0.7c-5.6,5-12,9-19.8,8c-6.3-0.8-11.9-4.3-16-9
					c-9.1-10.5-9.1-26.7-3.2-38.9c1.6-3.3,3.7-6.3,6.5-8.7c2.2-2,4.7-4.3,7.5-5.4C355.1,4.1,354.8,3.1,354.2,3.4L354.2,3.4z"/>
			</g>
		</g>
		<path class="st4" d="M347,11.5c-1.6,1-3.4,2.2-5,3.3"/>
		<path class="st4" d="M344.5,17.3c0,0.1,0.1-0.1,0.1-0.1s-0.2,0-0.2,0.1c-1.6,1.2-3.3,2.4-4.9,3.7c-0.4,0.3-0.7,0.5-1,0.9"/>
		<path class="st4" d="M342.6,24c-2,1.6-3.9,3.2-5.9,4.8"/>
		<path class="st4" d="M342.1,30.1c-2.1,1.9-4,3.6-6.1,5.5"/>
		<path class="st4" d="M342.4,36.9c-2.2,2-4,3.8-6,5.8"/>
		<path class="st4" d="M343.5,43.9c-1.8,1.7-3.6,3.4-5.4,5"/>
		<path class="st4" d="M346,48.8c-1.9,1.9-3.3,3.4-5.2,5.3"/>
		<path class="st4" d="M350.4,54.4c-1.7,1.6-3.4,3.3-5.1,4.9"/>
		<path class="st4" d="M355.4,58.3c-1.7,1.7-3.4,3.4-5.1,5.1c-0.1,0.1-0.4,0-0.3-0.2s0.4-0.1,0.3,0.1"/>
		<path class="st4" d="M360.5,60.8c-1.6,1.5-3.4,3.5-5,5"/>
		<path class="st4" d="M367,62c-1.2,1.3-3.2,3.5-4.2,5"/>
		<path class="st4" d="M372.6,61.5c-1.1,1.1-2.1,2.4-2.9,3.8"/>
		<path class="st4" d="M369.3,11.9c-0.4,0-0.7,0.3-1,0.6c-0.8,0.8-1.6,1.6-2.4,2.4"/>
		<path class="st4" d="M374.1,13.8c-1.6,1.6-3.1,3.2-4.5,4.8"/>
		<path class="st4" d="M376.6,17.1c-2.4,2.1-4.6,4.4-6.7,6.8"/>
		<path class="st4" d="M378.1,22.6c-1.2,1.5-2.4,2.9-3.8,4.2c-1.4,1.3-3.1,2.4-4.1,4c0-0.2,0.1-0.3,0.1-0.5"/>
		<path class="st4" d="M378.8,29.6c-3.4,3.6-6.6,7.3-9.7,11.1"/>
		<path class="st4" d="M378.3,36.6c-2.9,3.4-6,6.6-9.3,9.6"/>
		<path class="st4" d="M376.5,44.1c-2.4,2-4.8,4.1-6.8,6.4"/>
		<g>
			<path class="st5" d="M393,31.1c-0.4-20.1-10.5-30.3-25-30.9c-34.1-1.1-35.7,60.6-0.8,61.8C383.4,62.5,393.3,47.8,393,31.1z
				 M367.9,50.6c-17.4,1.1-13.2-40-0.7-38.9c10.1-0.8,11,12.7,11.1,14C379.1,35.4,378.4,49.9,367.9,50.6z"/>
			<g>
				<path class="st3" d="M393.5,31.1c-0.2-7.7-1.7-15.8-6.5-22c-3.9-5.1-9.7-8.2-16.1-9.1c-10.5-1.4-20.1,3.4-25.2,12.7
					c-9.5,17-4.1,46.1,18,49.5c7.9,1.2,15.8-1.1,21.3-6.9C391.1,48.8,393.6,39.8,393.5,31.1c0-0.6-1-0.6-1,0
					c0.2,15.1-8.9,31.2-25.8,30.4c-10.3-0.5-18.3-7.2-22-16.6c-6.5-16.7-0.1-43.2,21.1-44.1c6.9-0.3,13.8,1.9,18.7,6.9
					c6,6.2,7.7,15.1,8,23.4C392.5,31.7,393.5,31.7,393.5,31.1z"/>
				<path class="st3" d="M367.9,50.1c-13.5,0.6-12-20.9-9.2-29.1c1.8-5.2,5-9.9,11.2-8.7c6.1,1.2,7.7,8.6,8.1,13.9
					C378.4,34.2,378.6,49.1,367.9,50.1c-0.6,0.1-0.6,1.1,0,1c9.9-0.9,11.2-12.6,11.2-20.5c-0.1-5.9-0.5-13.8-5.7-17.7
					c-2.4-1.8-6.2-2.3-9-1.2c-2.4,1-4,3.2-5.2,5.4c-3.2,6.1-4.1,13.9-3.1,20.7c0.9,6.5,4.2,13.7,11.8,13.4
					C368.5,51,368.5,50,367.9,50.1z"/>
			</g>
		</g>
		<path class="st4" d="M480.7,57.3c-1.3,1.9-2.5,3.9-3.6,5.9c0.1-0.1,0.1-0.2,0.2-0.2"/>
		<path class="st4" d="M485.1,60.4c-0.6,1.5-1.3,2.9-2,4.3"/>
		<path class="st4" d="M490.9,61.9c-0.7,1.3-1.4,2.6-2.1,3.9c0.1-0.1,0.2-0.3,0.2-0.4"/>
		<path class="st4" d="M496.7,62.2c-0.6,1-1.5,2.6-1.9,3.7"/>
		<path class="st4" d="M502,62.1c-0.3,0.9-0.7,1.8-1.2,2.6"/>
		<path class="st4" d="M476.2,22c0.3,3.6,0.2,7.1,1.9,10.3c5,9.5,25.4,11.3,24.5,17.8"/>
		<path class="st4" d="M472.8,45.7c-1.7,1.8-3.4,5.6-3.7,6.1c-1.4,3.1,3.1,9.1,5.7,10.7c1.1,0.7,22.8,8.1,35.2-2.8"/>
		<path class="st4" d="M490,17.2c3-1.6,6.1-2.3,8.5-0.8c2.4,1.5,4.1,4.3,6.7,5.5c3.1,1.4,9.2-0.7,12.1-1c0.4-0.1,2.9-3.7,3.1-6.2"/>
		<path class="st6" d="M520.2,14.6c-1.3-2.9-2.8-5.7-4.6-7.9c-1.4-1.7-3.5-3.4-5.5-4.2c-5.8-2.2-14.2-2.2-18-1.4s-8.1,2.7-10.8,5.5
			c-4.1,4.2-5.5,9.6-5.1,15.5c0.1,1.4,1.1,3.9,1.7,5.1c1.5,3.3,6,6.9,9.4,8.1c3.8,1.4,15.4,3.9,17.5,5c2.3,1.1,3.3,4.1,2.5,6.3
			c-1,2.9-5.7,4.4-8.8,4.5c-2.8,0.1-5.6-0.2-8.1-1.6c-2.5-1.3-4.4-3.7-4.7-6.5c-0.1-0.8-9.2,1.5-12.9,2.5c0,8.6,10.2,13.9,13.5,15
			c3.9,1.3,9.2,1.9,13.3,1.7c4.2-0.2,8.7-1.6,12.5-3.4c3.8-1.8,6.9-6.3,8.6-10.2s1.1-11.6-1.4-15.1c-1.2-1.7-6.6-6.6-10.4-7.5
			c-4.8-1.2-10.7-2-15.2-4.1c-2-1-4.6-2-4.1-6.4c0.7-5.6,10.2-4.4,13.7-3c2.8,1.1,4.4,5.5,5.1,5.6C509.2,18.2,517.4,15.7,520.2,14.6
			z"/>
		<path class="st4" d="M479.1,29c-0.6,1-1,1.6-1.5,2.6"/>
		<path class="st4" d="M481.9,32.1c-0.6,0.8-1.2,1.5-1.7,2.3c0,0-0.1,0.1-0.1,0.1c0,0,0-0.1,0,0"/>
		<path class="st4" d="M484.7,34c-0.7,0.8-1.4,2.3-2,3.2"/>
		<path class="st4" d="M488.1,35.6c-0.9,1-1.7,2-2.5,3"/>
		<path class="st4" d="M491.8,36.5c-1.3,1.1-2.4,2.4-3.6,3.6"/>
		<path class="st4" d="M495.1,37.6c-1.2,1.3-2.3,2.6-3.5,3.8c0.1,0,0.2-0.1,0.2-0.2"/>
		<path class="st4" d="M500.6,38.8c-1.5,1.5-3,3.1-4.5,4.7c0.1-0.1,0.2-0.2,0.3-0.3"/>
		<path class="st4" d="M503.8,40c-1.6,1.7-3.1,3.5-4.6,5.4"/>
		<path class="st4" d="M506.7,42.2c-1.8,1.6-3.9,3.6-5.5,5.3"/>
		<path class="st4" d="M473.6,50.1c-1.2,1.9-2.7,4.2-3.9,6.2"/>
		<path class="st4" d="M476.3,54c-0.1,0.4-0.2,0.7-0.4,1.1c-1,2-2,4-3,6"/>
		<path class="st4" d="M495.3,11.5c-0.9,1-2.4,3.4-2.8,4.6"/>
		<path class="st4" d="M499.6,11.4c-0.9,1.6-1.6,2.8-2.6,4.4"/>
		<path class="st4" d="M504.5,13.4c-1.1,1.6-2.1,3.3-3.2,4.9"/>
		<path class="st4" d="M507.6,17.3c-0.7,1.6-1.6,3.1-2.6,4.6"/>
		<path class="st4" d="M514.5,16.5c-0.7,1.4-2,4-2.7,5.4"/>
		<path class="st4" d="M203.5,1.6c-1.7,1.7-5.7,5.9-5.9,6.4c-0.2,0.5-1,57.1-0.8,57.4c0.2,0.4,43.8,0.8,44.4,0.5c2-1,4.3-3.3,5-5.3"
			/>
		<path class="st4" d="M245.9,12.2c-1,1.5-5.1,5.3-5.9,5.8c-0.8,0.4-16.9-1-23.8-0.3"/>
		<path class="st4" d="M240,35.5c-2.1,2.2-6.7,7.1-7,7.2c-0.3,0.1-10.5,0.1-16.3-0.1c0.2,0-0.4,0.9-0.2,0.9"/>
		<path class="st4" d="M203,6.6c-1.9,2.2-3.7,4.4-5.5,6.6"/>
		<path class="st4" d="M202.8,13.3c-2,2-3.8,4.2-5.5,6.5"/>
		<path class="st4" d="M202.9,20.3c-2,2.3-3.7,4.5-5.7,6.8"/>
		<path class="st4" d="M203,26.9c-2,2.2-3.9,4.4-5.9,6.7"/>
		<path class="st4" d="M202.9,33.4c-2.2,2.1-4.2,4.4-6.1,6.9"/>
		<path class="st4" d="M202.8,41c-1.2,1.2-2.4,2.5-3.7,3.7c-0.8,0.8-1.6,1.6-2.2,2.6"/>
		<path class="st4" d="M202.9,46.9c-2.1,1.9-4.1,3.9-6,6"/>
		<path class="st4" d="M202.8,52.6c-0.5,0.4-0.9,0.8-1.4,1.1c-1.5,1.3-3.4,2.8-4.6,4.4"/>
		<path class="st4" d="M202.9,58.6c-0.2,0.3-0.6,0.6-0.9,0.9c-1.9,1.7-3.3,2.9-5.2,4.5"/>
		<path class="st4" d="M207.7,60.6c-1.6,1.5-3.2,3.2-4.5,4.9"/>
		<path class="st4" d="M215.8,60.3c-1.8,1.6-3.8,3.6-5.4,5.4"/>
		<path class="st4" d="M221.3,60.6c-1.7,1.5-3.6,3.4-5.1,5.1"/>
		<path class="st4" d="M242.2,60.4c-1.5,1.7-3.1,3.5-4.3,5.5"/>
		<path class="st4" d="M236.3,60.8c-1.7,1.3-2.9,3.5-4.3,5.1"/>
		<path class="st4" d="M230,60.8c-1.4,1.5-2.6,3.3-3.5,5.2"/>
		<path class="st4" d="M224.5,60.7c-1.3,1.5-2.6,3.4-3.5,5.2"/>
		<path class="st4" d="M221.6,35.7c-1.3,2.1-2.5,4.3-3.7,6.6"/>
		<path class="st4" d="M221.6,42.5c1.5-2.3,2.9-4.6,4.3-7"/>
		<path class="st4" d="M227.7,42.6c-0.1-0.1,0-0.2,0-0.3c1.4-2.2,2.9-4.4,4.3-6.5"/>
		<path class="st4" d="M236.3,18.1c1.4-2,2.8-4,4.2-6c-0.1,0-0.3,0.1-0.4,0.1"/>
		<path class="st4" d="M231.9,17.6c0.4-0.4,0.9-0.9,1.3-1.4c1.1-1.4,2-3.1,3.4-4.3"/>
		<path class="st4" d="M227.3,17.6c1.5-2,3-4.1,4.6-6.1"/>
		<path class="st4" d="M223.4,17.3c1.1-1.9,2.2-3.8,3.3-5.6"/>
		<path class="st4" d="M218.1,17.2c0.6-1,1.2-2,1.7-3c0.4-0.8,0.9-1.5,1.3-2.3c0.1-0.1,0.1-0.3,0.2-0.4"/>
		<path class="st6" d="M203,60.1c-0.1,0.5,43.1,0.7,43.3,0.5c0.2-0.3,0.2-11.5,0-11.8c-0.2-0.2-28,0.3-28.6-0.1
			c-1-0.5-0.5-12.7-0.1-13.2c0.5-0.6,22.1,0.4,22.4,0c0.3-0.3,0.8-10.9,0.1-11.2c-0.8-0.3-21.9,0.3-22.3,0c-0.4-0.3-0.5-12-0.1-12.4
			c0.4-0.4,19,0,28.3,0.2c-0.1-3.2,0.5-11.1,0.2-11.7c0,0-42.2-0.2-42.8,0.9C202.2,3.8,203.1,58.9,203,60.1z"/>
		<path class="st6" d="M153.1,60.9c4.4-0.1,10.2,0.1,14.6,0c0.6-7.8-0.1-15.2,0-23.5c6-0.5,16.3,0.5,22.3,0.1c0.5,0,0.1-9.3,0-11.1
			c-6.6,0.1-21.9,0.3-22.2,0c-0.2-0.2,0-5.8,0-8.8c0-1.1-0.5-3.7,0.1-4.7c0.9-1.6,27.3,1.3,27.9-0.1c0.4-0.9,0.4-11.4,0-11.8
			c-0.4-0.4-42.3-0.4-42.5,0.1c-0.3,0.8,0,6.7,0.1,8.2c0.1,3.2-0.3,6.4-0.2,9.7c0.2,6.5-0.2,13.5,0,20.1
			C153.2,40.9,153.1,60.9,153.1,60.9z"/>
		<path class="st6" d="M254.4,30.2c0.4,9.3-0.7,30.8,0.2,30.8c10.3-0.3,37,1.2,37.8,0c0.5-0.7-0.1-9.9,0-11.8
			c0.1-1.5-21.9,1.4-23.6,0.2c-0.7-0.5-0.2-42.8-0.1-48.2c-3.8,0-10.2,0.1-14.2-0.2c-0.8-0.1-0.3,2.2-0.2,5.6
			C254.3,15.1,254.1,22.4,254.4,30.2z"/>
		<path class="st4" d="M153.4,0.9c-1.7,1.8-3.5,3.6-5.3,5.4c-0.5,0.5-1.1,1.1-1.3,1.8c-0.3,0.8,0.3,38.6-0.5,54.1
			c0,0.7-0.1,1.5,0.4,2.1c0.5,0.6,1.3,0.8,2.1,0.9c2.9,0.4,11.9,0.4,12.5,0.1c2.6-1.2,4.6-2.8,6.5-4.3"/>
		<path class="st4" d="M190,37.5c-1.9,1.5-3.4,2.9-5.3,4.3c-0.3,0.2-11.8,1-16.9,1"/>
		<path class="st4" d="M195.8,12.8c-1.8,2.3-4,3.2-5.6,5c-0.9,0.9-19.5-0.1-22.4-0.2"/>
		<path class="st4" d="M292.4,61c-3.6,4.7-4.9,7.1-9.8,6.7c-4.6-0.4-20.7,1-23.6,1.1c-2.9,0.1-9.3-1-9.5-2c-2.1-9.5-2.1-55-1-58.3
			c1.3-3.9,1.2-3.3,5.7-7.5"/>
		<path class="st4" d="M146.7,12.6c1.8-2.3,4-4.2,6.4-5.8"/>
		<path class="st4" d="M146.8,18c2.2-1.7,4.3-3.5,6.4-5.3"/>
		<path class="st4" d="M146.7,23.7c1.9-2.2,4.1-4.1,6.6-5.5"/>
		<path class="st4" d="M146.7,29c1.9-1.7,4.6-4,6.6-5.7"/>
		<path class="st4" d="M146.7,34.6c2.1-1.8,4.4-3.9,6.5-5.7"/>
		<path class="st4" d="M146.9,40.9c2.2-1.5,4.2-3.2,6.1-5"/>
		<path class="st4" d="M146.9,47.7c2.3-1.5,4.3-3.2,6.2-5.1"/>
		<path class="st4" d="M146.8,53.6c2.2-1.6,4.4-3.1,6.6-4.7"/>
		<path class="st4" d="M146.4,59.3c1.7-1.9,4.5-4.2,6.7-5.5"/>
		<path class="st4" d="M146.6,64.1c2.2-1.8,4.3-3.7,6.5-5.5"/>
		<path class="st4" d="M152.2,65.5c2.1-1.7,4.1-2.4,5.4-4.6"/>
		<path class="st4" d="M157.4,65.4c1.5-1.5,3.3-3.2,5-4.5"/>
		<path class="st4" d="M180.4,42.3c1.6-1.5,3.8-2.9,5-4.8c-0.2,0.2-1.1,0.2-1.3,0.5"/>
		<path class="st4" d="M175.9,42.5c1.7-1.4,3.5-3.2,4.9-4.9"/>
		<path class="st4" d="M171.7,42.7c1.2-1.5,2.9-3.7,4-5.2c-0.1,0.1-0.5,0.5-0.6,0.6"/>
		<path class="st4" d="M167.8,41.8c0.9-1.8,1.9-3.2,3.5-4.6"/>
		<path class="st4" d="M185.1,18.1c1.8-1.7,3.5-3.3,5.4-4.9c-0.1,0.1-0.2,0.2-0.4,0.3"/>
		<path class="st4" d="M180.3,18.4c1-1.9,2.7-4.1,4.3-5.6"/>
		<path class="st4" d="M175.8,17.9c0.9-1.8,2.5-3.7,3.9-5.2"/>
		<path class="st4" d="M171.1,17.6c0.6-1.8,2.3-3.7,3.6-5"/>
		<path class="st4" d="M167.6,16c1-1,2.3-2.6,3.3-3.6"/>
		<path class="st4" d="M248,12.3c1.9-2.2,4-4.3,6.3-6.1"/>
		<path class="st4" d="M247.9,18.8c2.1-2,4.3-3.9,6.5-5.8"/>
		<path class="st4" d="M247.7,24.4c0.4-0.5,0.9-0.9,1.4-1.3c1.8-1.5,3.5-2.9,5.3-4.4"/>
		<path class="st4" d="M247.9,30.6c2.2-1.8,4.4-3.5,6.5-5.3c-0.1,0.1-0.3,0.1-0.4,0.2"/>
		<path class="st4" d="M247.8,36.6c2.3-1.7,4.4-3.2,6.7-4.9"/>
		<path class="st4" d="M247.9,42.9c0.2-0.5,0.9-1.1,1.3-1.4c1.8-1.5,3.6-2.9,5.3-4.4"/>
		<path class="st4" d="M247.9,48.6c2.4-1.8,4.4-3.5,6.5-5.5"/>
		<path class="st4" d="M248.3,54.1c1.9-1.8,4-3.4,6.1-4.8"/>
		<path class="st4" d="M248.7,60.5c1.7-1.8,3.8-3.9,5.7-5.5"/>
		<path class="st4" d="M249.5,66.9c1.5-2.2,3.3-4.3,5.2-6"/>
		<path class="st4" d="M254.7,68.4c2.1-2.5,4.2-5,6.2-7.4"/>
		<path class="st4" d="M260.8,68.7c1.8-2.4,4.2-5.4,6-7.6"/>
		<path class="st4" d="M268.2,68.1c1.8-2.4,3.7-4.7,5.8-6.9"/>
		<path class="st4" d="M280.9,61.4"/>
		<path class="st4" d="M275.8,67.7c-0.1,0-0.1-0.2,0-0.2c0.4-0.5,0.9-1.1,1.3-1.6c0.6-0.7,1.2-1.5,1.8-2.2c0.7-0.7,1.5-1.3,2-2.1"/>
		<path class="st4" d="M282.4,67.7c1.3-2,2.6-4,3.9-6"/>
		<path class="st6" d="M299.7,30.3c0.4,9.3-0.7,30.8,0.2,30.8c10.3-0.3,37,1.2,37.8,0c0.5-0.7-0.1-9.9,0-11.8
			c0.1-1.5-21.9,1.4-23.6,0.2C313.5,49,314,6.7,314,1.3c-3.8,0-10.2,0.1-14.3-0.2c-0.8-0.1-0.3,2.2-0.2,5.6
			C299.7,15.2,299.4,22.4,299.7,30.3z"/>
		<path class="st4" d="M337.8,61.1c-3.6,4.7-4.9,7.1-9.8,6.7c-4.6-0.4-20.7,1-23.6,1.1c-2.9,0.1-9.3-1-9.5-2c-2.1-9.5-2.1-55-1-58.3
			c1.3-3.9,1.2-3.3,5.7-7.5"/>
		<path class="st4" d="M293.4,12.4c1.9-2.2,4-4.3,6.3-6.1"/>
		<path class="st4" d="M293.3,18.9c2.1-2,4.3-3.9,6.5-5.8"/>
		<path class="st4" d="M293.1,24.5c0.4-0.5,0.9-0.9,1.4-1.3c1.8-1.5,3.5-2.9,5.3-4.4"/>
		<path class="st4" d="M293.3,30.6c2.2-1.8,4.4-3.5,6.5-5.3c-0.1,0.1-0.3,0.1-0.4,0.2"/>
		<path class="st4" d="M293.1,36.7c2.3-1.7,4.4-3.2,6.7-4.9"/>
		<path class="st4" d="M293.3,42.9c0.2-0.5,0.9-1.1,1.3-1.4c1.8-1.5,3.6-2.9,5.3-4.4"/>
		<path class="st4" d="M293.3,48.7c2.4-1.8,4.4-3.5,6.5-5.5"/>
		<path class="st4" d="M293.7,54.1c1.9-1.8,4-3.4,6.1-4.8"/>
		<path class="st4" d="M294,60.6c1.7-1.8,3.8-3.9,5.7-5.5"/>
		<path class="st4" d="M294.8,66.9c1.5-2.2,3.3-4.3,5.2-6"/>
		<path class="st4" d="M300.1,68.4c2.1-2.5,4.2-5,6.2-7.4"/>
		<path class="st4" d="M306.2,68.8c1.8-2.4,4.2-5.4,6-7.6"/>
		<path class="st4" d="M313.6,68.1c1.8-2.4,3.7-4.7,5.8-6.9"/>
		<path class="st4" d="M326.3,61.5"/>
		<path class="st4" d="M321.2,67.7c-0.1,0-0.1-0.2,0-0.2c0.4-0.5,0.9-1.1,1.3-1.6c0.6-0.7,1.2-1.5,1.8-2.2c0.7-0.7,1.5-1.3,2-2.1"/>
		<path class="st4" d="M327.8,67.8c1.3-2,2.6-4,3.9-6"/>
	</g>
</g>
</svg>
