<?xml version="1.0" encoding="utf-8"?>
<!-- Generator: Adobe Illustrator 21.0.2, SVG Export Plug-In . SVG Version: 6.00 Build 0)  -->
<svg version="1.1" xmlns="http://www.w3.org/2000/svg" xmlns:xlink="http://www.w3.org/1999/xlink" x="0px" y="0px"
	 viewBox="0 0 214.9 173.6" style="enable-background:new 0 0 214.9 173.6;" xml:space="preserve">
<style type="text/css">
	.st0{fill:#FFFFFF;stroke:#0D0E0F;stroke-linecap:round;stroke-linejoin:round;stroke-miterlimit:10;}
	.st1{fill:none;stroke:#0D0E0F;stroke-linecap:round;stroke-linejoin:round;stroke-miterlimit:10;}
	.st2{fill:#FFFFFF;stroke:#0D0E0F;stroke-miterlimit:10;}
	.st3{fill:none;stroke:#0D0E0F;stroke-miterlimit:10;}
	.st4{fill:#F4C944;stroke:#0D0E0F;stroke-width:2;stroke-linecap:round;stroke-linejoin:round;stroke-miterlimit:10;}
	.st5{fill:none;stroke:#0D0E0F;stroke-width:2;stroke-linecap:round;stroke-linejoin:round;stroke-miterlimit:10;}
	.st6{fill:#FFFFFF;stroke:#0D0E0F;stroke-width:2;stroke-miterlimit:10;}
	.st7{stroke:#0D0E0F;stroke-width:2;stroke-miterlimit:10;}
	.st8{fill:none;stroke:#0D0E0F;stroke-width:2;stroke-miterlimit:10;}
	.st9{fill:#FFFFFF;stroke:#0D0E0F;stroke-width:3;stroke-miterlimit:10;}
	.st10{fill:none;stroke:#0D0E0F;stroke-width:3;stroke-miterlimit:10;}
</style>
<g id="Слой_1">
</g>
<g id="Слой_2">
</g>
<g id="Слой_3">
	<g>
		<path class="st0" d="M923.8-961.3c0,0-11.2,1-11.2-8.2c0-7.2,10.2-6.8,10.2-6.8s1-9.7,12-8.5c0,0,4.5-17.6,23.7-9
			c0,0,7.4-10.5,25.9-2.9c5.8,2.4,6.9,11.6,6.9,11.6s6.9-2.1,8.9,5.1c0,0,7.9-1.2,9,9.3c0,0,0.1,2.9-3.7,6.8c0,0,1.8,8.6-6.6,11.3
			c-6.3,1.9-9.5-1.5-9.5-1.5s-13,15.3-26.8,0.4c0,0-14.4,9.3-22.9-4.4C939.7-958.3,929.5-952.8,923.8-961.3z"/>
		<path class="st1" d="M939.7-958.3"/>
		<path class="st1" d="M939.7-958.3c0,0,4.1-3.9,4.8-5.6"/>
		<path class="st1" d="M922.8-976.3c0,0,2.6,1.4,3.3,2"/>
		<path class="st1" d="M934.8-984.8c0,0,5.4,0.1,6.9,3"/>
		<path class="st1" d="M958.4-993.7c0,0,3,1.4,3.1,2.1"/>
		<path class="st1" d="M991.3-985c0,0,1.2,8.2-3.6,11.7"/>
		<path class="st1" d="M1005.5-964c0,0-5.3,1.9-7.8,0.2"/>
	</g>
	<g>
		<path class="st0" d="M860.9-752.5c0,0,0-10.5,11.3-7.3c0,0,2.8-5.9,8.3-2c0,0,3.1-10,12.8-4.9c0,0,1.6-9.2,9.9-7.1
			c0,0,10.3-24.3,29.9-8.6c0,0,11.1-5.9,17,5.5c0,0,2.4,6.5,0.8,9.8c0,0,9-3.5,10.8,4.4c0,0,8.4-4,12.4,3.1c0,0,12.9-13.8,20,3.4
			c0,0,3.5-0.9,4.3,2.8c0,0,8.1-8.2,12.9,2.9c0,0,5.3-5.8,9.6,1c0,0,4.1-2.6,6.6,1.9c0,0,9.4-6.5,9.3,1.3s-7.1,3.6-7.1,3.6
			s-4.8,3.8-8.1,0.1c0,0-6.6,6.4-11.8-0.8c0,0-6.9,6.3-12.6-0.3c0,0-6,5.3-9.9,0.4c0,0-9.9,7-15.6-0.4c0,0-7.3,7-15.7-0.3
			c0,0-9,3.8-15.8-4c0,0-15.6,10.7-24.7-1c0,0-5.1,8.5-14.6,2.1c0,0-8.5,10.4-16.7-1.1c0,0-12.3,6.3-17,0.1c0,0-4.1,8.5-9.5,0.9
			C853.3-752.8,860.9-752.5,860.9-752.5z"/>
		<path class="st1" d="M961.4-762.7c0,0,0.4,2.7,0,3.1"/>
		<line class="st1" x1="973.8" y1="-759.6" x2="973.3" y2="-756.9"/>
		<path class="st1" d="M993.8-756.2c0,0,0.1,2.6-0.6,3.5"/>
		<path class="st1" d="M987-743.3c0,0,2.5-1,3-2.3"/>
		<path class="st1" d="M939.9-748c0,0,3.1-1.4,3.7-2.6"/>
		<path class="st1" d="M915.2-749c0,0-1.3-2.9-1.1-4.6"/>
		<path class="st1" d="M900.6-746.9c0,0-1.3-0.5-1.8-1.6"/>
		<path class="st1" d="M893.1-766.6c0,0,1.4,2.5,2.7,3.3"/>
		<path class="st1" d="M903-773.7c0,0-1.1,6.4,4.5,7.7"/>
		<path class="st0" d="M1040.1-749"/>
		<path class="st0" d="M1045.1-752.7c3.5-0.4,5,2.8,4.5,3.7s-3.8,2.6-6.7,1.3C1040.1-749,1038.8-752,1045.1-752.7z"/>
	</g>
	<g>
		<path class="st0" d="M697.9-750.8c0,0-6.1-12.6,13-16c0,0,1-6.9,7.9-4.8c0,0,5.1-11,18.4-9.8s18.4,12.9,18.4,12.9
			s13.4-7.9,22.4,2.3c4.4,5,2.8,13.5,2.8,13.5s10.9,0.3,6.8,13.1c0,0,7.7,3.9,4.9,9.5c-2.8,5.6-7.9,4.8-10.9,2.2
			c0,0-17.7,11.4-27.9-0.2c0,0-19.3,9.7-27.3-1.3c0,0-15.7,9.6-22.8-0.5c0,0-14.6,5.2-15.3-9.5C687.9-748.8,697.9-750.8,697.9-750.8
			z"/>
		<path class="st1" d="M787.5-739.6c0,0-2.5,4.8-6.5,2.3"/>
		<path class="st1" d="M780.7-752.7c0,0-1.2,3-3,3.8"/>
		<path class="st1" d="M755.5-768.5c0,0-1.3,1.3-2,2.4"/>
		<path class="st1" d="M718.8-771.6c0,0-0.6,2-0.6,3.1"/>
		<path class="st1" d="M710.9-766.8c0,0,5.4-0.5,6.3,0.8"/>
		<path class="st1" d="M697.9-750.8c0,0,2.4-0.8,4,1"/>
		<path class="st1" d="M703.6-730c0,0,1.6-0.8,2.1-1.4"/>
		<path class="st1" d="M753.6-728.1c0,0,0.9-0.2,1.9-1.8"/>
		<path class="st1" d="M781.5-727.9c0,0,1.9-1.9,2.1-2.7"/>
	</g>
	<g>
		<path class="st0" d="M-81.5-559.2c0,0-11.2,1-11.2-8.2c0-7.2,10.2-6.8,10.2-6.8s1-9.7,12-8.5c0,0,4.5-17.6,23.7-9
			c0,0,7.4-10.5,25.9-2.9c5.8,2.4,6.9,11.6,6.9,11.6s6.9-2.1,8.9,5.1c0,0,7.9-1.2,9,9.3c0,0,0.1,2.9-3.7,6.8c0,0,1.8,8.6-6.6,11.3
			c-6.3,1.9-9.5-1.5-9.5-1.5s-13,15.3-26.8,0.4c0,0-14.4,9.3-22.9-4.4C-65.5-556.2-75.7-550.7-81.5-559.2z"/>
		<path class="st1" d="M-65.5-556.2"/>
		<path class="st1" d="M-65.5-556.2c0,0,4.1-3.9,4.8-5.6"/>
		<path class="st1" d="M-82.5-574.2c0,0,2.6,1.4,3.3,2"/>
		<path class="st1" d="M-70.5-582.7c0,0,5.4,0.1,6.9,3"/>
		<path class="st1" d="M-46.8-591.7c0,0,3,1.4,3.1,2.1"/>
		<path class="st1" d="M-14-583c0,0,1.2,8.2-3.6,11.7"/>
		<path class="st1" d="M0.2-561.9c0,0-5.3,1.9-7.8,0.2"/>
	</g>
	<g>
		<path class="st0" d="M53-556.3c0,0,0-10.5,11.3-7.3c0,0,2.8-5.9,8.3-2c0,0,3.1-10,12.8-4.9c0,0,1.6-9.2,9.9-7.1
			c0,0,10.3-24.3,29.9-8.6c0,0,11.1-5.9,17,5.5c0,0,2.4,6.5,0.8,9.8c0,0,9-3.5,10.8,4.4c0,0,8.4-4,12.4,3.1c0,0,12.9-13.8,20,3.4
			c0,0,3.5-0.9,4.3,2.8c0,0,8.1-8.2,12.9,2.9c0,0,5.3-5.8,9.6,1c0,0,4.1-2.6,6.6,1.9c0,0,9.4-6.5,9.3,1.3s-7.1,3.6-7.1,3.6
			s-4.8,3.8-8.1,0.1c0,0-6.6,6.4-11.8-0.8c0,0-6.9,6.3-12.6-0.3c0,0-6,5.3-9.9,0.4c0,0-9.9,7-15.6-0.4c0,0-7.3,7-15.7-0.3
			c0,0-9,3.8-15.8-4c0,0-15.6,10.7-24.7-1c0,0-5.1,8.5-14.6,2.1c0,0-8.5,10.4-16.7-1.1c0,0-12.2,6.3-17,0.1c0,0-4.1,8.5-9.5,0.9
			C45.4-556.6,53-556.3,53-556.3z"/>
		<path class="st1" d="M153.5-566.5c0,0,0.4,2.7,0,3.1"/>
		<line class="st1" x1="165.9" y1="-563.4" x2="165.4" y2="-560.7"/>
		<path class="st1" d="M185.9-560c0,0,0.1,2.6-0.6,3.5"/>
		<path class="st1" d="M179.1-547.1c0,0,2.5-1,3-2.3"/>
		<path class="st1" d="M132-551.8c0,0,3.1-1.4,3.7-2.6"/>
		<path class="st1" d="M107.3-552.8c0,0-1.3-2.9-1.1-4.6"/>
		<path class="st1" d="M92.7-550.7c0,0-1.3-0.5-1.8-1.6"/>
		<path class="st1" d="M85.2-570.4c0,0,1.4,2.5,2.7,3.3"/>
		<path class="st1" d="M95.1-577.5c0,0-1.1,6.4,4.5,7.7"/>
		<path class="st0" d="M232.2-552.8"/>
		<path class="st0" d="M237.2-556.5c3.5-0.4,5,2.8,4.5,3.7c-0.5,0.9-3.8,2.6-6.7,1.3C232.2-552.8,230.9-555.8,237.2-556.5z"/>
	</g>
	<g>
		<path class="st0" d="M-218.6-574.7c0,0-6.1-12.6,13-16c0,0,1-6.9,7.9-4.8c0,0,5.1-11,18.4-9.8s18.4,12.9,18.4,12.9
			s13.4-7.9,22.4,2.3c4.4,5,2.8,13.5,2.8,13.5s10.9,0.3,6.8,13.1c0,0,7.7,3.9,4.9,9.5s-7.9,4.8-10.9,2.2c0,0-17.7,11.4-27.9-0.2
			c0,0-19.3,9.7-27.3-1.3c0,0-15.7,9.6-22.8-0.5c0,0-14.6,5.2-15.3-9.5C-228.6-572.6-218.6-574.7-218.6-574.7z"/>
		<path class="st1" d="M-128.9-563.4c0,0-2.5,4.8-6.5,2.3"/>
		<path class="st1" d="M-135.8-576.5c0,0-1.2,3-3,3.8"/>
		<path class="st1" d="M-160.9-592.3c0,0-1.3,1.3-2,2.4"/>
		<path class="st1" d="M-197.7-595.4c0,0-0.6,2-0.6,3.1"/>
		<path class="st1" d="M-205.6-590.7c0,0,5.4-0.5,6.3,0.8"/>
		<path class="st1" d="M-218.6-574.7c0,0,2.4-0.8,4,1"/>
		<path class="st1" d="M-212.8-553.8c0,0,1.6-0.8,2.1-1.4"/>
		<path class="st1" d="M-162.8-552c0,0,0.9-0.2,1.9-1.8"/>
		<path class="st1" d="M-134.9-551.8c0,0,1.9-1.9,2.1-2.7"/>
	</g>
	<g>
		<path class="st2" d="M-17.6-462c0,0,14.2,12.8,34-3.5c19.8-16.3,25.9-32.6,46.3-31.3c13.5,0.8,16.8,14.5,16.8,14.5
			s2.3-14.6,20.2-14.6s28.7,22.2,39.3,29.1s19.8,16.3,37.7,6c0,0-8.5,17-26.2,18.5s-50,3.7-71-29.2c0,0-19.3,31.3-45.3,31.3
			S0.6-441.8-17.6-462z"/>
		<path class="st3" d="M79.6-482.3"/>
		<path class="st3" d="M70.1-460.4c10.5-11.2,9.8-20.8,9.5-22c0,0,0,14.6,8.2,20.4"/>
		<path class="st3" d="M-17.6-462c0.6,0.5,1.1,1,1.7,1.4c10.5,7.8,22.7,3.7,33.6,1.8c11.5-2,32.8-27,45-31.5s16.8,8,16.8,8v9.8"/>
		<path class="st3" d="M-14-458.8c9.5,8.4,33.1,3.9,33.1,3.9c14.7-1.1,43.5-25.9,43.5-25.9c11.3-6.8,17-1.5,17-1.5s3.6,1.3-18,14
			S4.1-440.8-13-457.1"/>
		<path class="st3" d="M79.8-479c0,0-23.1,31.5-45.6,32.6S1.3-445.1-7-451.4"/>
		<path class="st3" d="M175.9-460.4c-29.3,24.8-47.7,14.8-70.7,5.5s-25.7-27.4-25.7-27.4s3.3-10,11.8-9c8.5,1,11,0.8,19.3,7.8
			c0,0,33.8,43.3,66,21.7"/>
		<path class="st3" d="M174.5-458.2c-5.5,2.6-10.9,4.5-16,5.8c-47.7,11.8-78.9-30-78.9-30s9.3-6.8,22.3,4.9s45,37.2,73,18"/>
	</g>
	<g>
		<path class="st2" d="M-50.7-344.1c0,0,5.3-6.5-0.8-20s-4.5-19.5-5.3-21.5s-10.2-20.8-19.2-22.3s-10,1.5-10,1.5s-12.8-24.3-35-40.3
			s-30.1-16.9-30.1-16.9s-1-6-7.9-7.8c0,0,11.8-5.9,9-12.8c0,0-7.5,3.8-8.3,4.6s-6.5,3.9-6.5,3.9s5.9-14.5,3.3-16.6
			s-3.3-0.9-3.3-0.9s3.9-14.6,1.1-15.3s-8.8,8.5-8.8,8.5s-3.6-17.6-8.6-18.5s-8.4,18.9-8.4,18.9s-1.6-13.4-5.4-14.1
			s-6.5,11.7-6.5,11.7s-10.8-15.2-16.5-11.4c-5.8,3.9,3,17.6,3,17.6s-18.5-3.5-19.4,3.9s6.9,10.9,6.9,10.9s-4.3-0.3-4.6,2.4
			s1.5,4.5,1.5,4.5s-5.6,1-4.5,3.4s5.9,6,11.6,7c0,0-9.6,6.1-8.3,9.1s11.6,2.4,13.9,0c0,0-7.3,7.8-2.5,10.8s17.4-9.3,17.4-9.3
			s-3.6,7.8-1.3,8.6s2.8,0.1,2.8,0.1s-9.5,11.8-11.3,21.6s-5,26.5-2.4,45.4s9.1,29.9,12.6,36.5c0,0-4.9,3.6-3.9,9.4s0,8,6,16.3
			s13.6,18.4,16.4,20.1s8.5,7.1,15.5,6.9s16.3-2.8,21.3-3.8s10.4-1.5,15.1-2.7c4.7-1.2,15.2-7.3,26.8-12.3S-58.5-331.3-50.7-344.1z"
			/>
		<path class="st3" d="M-72.5-379.3c0.8,2.5,3.3,5.4,4.8,7.6c1.9,2.8,3.1,4.6,3.8,8c1.2,5.6,0.7,11,3.2,16.5c1.6,3.5,3.7,5.5,6,8.5"
			/>
		<path class="st3" d="M-65.7-329.9c-1.8-2.4-3.1-5.4-4.5-8c-1.4-2.6-2.3-5.4-3.2-8.3c-0.9-2.9-1.7-5.7-2-8.7
			c-0.3-2.6-0.6-5.3-1.6-7.7c-1.4-3.3-3.3-6.3-5.9-8.8"/>
		<path class="st3" d="M-80.9-319.7c-0.4-0.6-5.7-7.6-6.1-10.3s0-20-11.3-31"/>
		<path class="st3" d="M-92.4-313.1c-0.6-0.5-6.8-4-8.4-10.5c-1.7-6.5-3.3-18.8-11.7-27.1"/>
		<path class="st3" d="M-109.1-304.9c-0.2,0.1-7.7-6.6-9.7-12.1s-7-17.2-9.3-20.8c-2.3-3.7-1.5-3.7-1.5-3.7"/>
		<path class="st3" d="M-125.6-296.9c-0.7-0.7-5.4-2.2-7.6-8c-2.2-5.8,0.5-3.8-7.7-12.3s-7-13.8-7-13.8"/>
		<path class="st3" d="M-143.7-292.3c-0.6,0.1-5-2.5-6.5-6.3c-1.5-3.8-1.3-9-3.7-12s-5.7-5-6.8-7.5c-1.2-2.5-2-7.7-2-7.7"/>
		<path class="st3" d="M-160.8-288.8c-0.7-0.6-5.5-3.1-7.9-7.3c-2.3-4.2-3.3-9.8-5-11.7c-1.7-1.8-7.5-8-8.8-11.2"/>
		<path class="st3" d="M-75.9-407.8c0,0,3.8,2.4,1.6,9.8c-2.2,7.3-4.7,13.2-12.5,18.8s-15,10.2-18.8,13.2c-3.8,3-19,15.4-28,19.2
			c-6.8,2.8-28.3,15.5-38,18.5c-9.7,3-23.5,9.2-34,0"/>
		<path class="st3" d="M-85.9-406.3c0,0,2.4,1.4,2.3,6.3c-0.2,4.8-12.2,19.7-18.8,24.8s-38.9,24.7-42.7,26.3
			c-3.8,1.7-33.5,14.7-38.5,16c-5,1.3-12.7,1.5-14.7-0.7c-2-2.2-3.8-7-3.8-7"/>
		<polyline class="st3" points="-95.2,-420.7 -94.3,-406.3 -91.2,-406.3 -91.2,-400.6 -95.2,-400.6 -95.2,-396.4 -102.4,-396.4 
			-102.4,-402.4 -128.3,-406.3 -133.7,-378.1 -128.2,-376.4 -129.8,-370.6 -134.8,-371.4 -136,-367.8 -140.8,-369.1 -139.6,-372.9 
			-167.8,-383.1 -176.7,-356.8 -173,-354.6 -175.5,-349.1 -179.2,-350.7 -180.8,-347.6 -186.2,-350.7 -184.8,-353.3 -208.2,-366.8 
			-210.8,-359.7 		"/>
		<path class="st3" d="M-214.8-377.1c0.8,0.5,4,2.5,4,2.5l2.1-6l5.8,3l-2.8,5.3l23.1,13.3l9-25.9l-6-2.3l1.8-6l7,2.5l2.5-7.7
			l5.5,2.3l-3,7.3l27.2,10l4.2-29.1l-9.4-1.8l0.8-5l9.9,2l0.7-9.7h5.3v10.5l26,2.8v-19"/>
		<path class="st3" d="M-151-463.5c0,0-3.8,3.5-15.3-3.1c0,0,7.7,11.7,4.8,13.2c-2.8,1.5-13.8-3-14.7-4.3c0,0,1.2,20.5-3.3,19.3
			c-4.5-1.2-6.5-9.6-6.7-14.1c0,0-4.5,14.4-8,12.9s-1.7-11.3-1.7-11.3l-5.3,6.8"/>
		<path class="st3" d="M-164.7-493c0,0-9.5,6.7-9.3,6.2c0.2-0.5-1-17.2-4.7-16.2c-3.7,1-9.8,12-9.8,12l-0.8-8.4"/>
		<path class="st3" d="M-220.8-496.2c-0.5,0-6.8,3.3-5.3,5.9s8,7.5,8,7.5s-9.5,2.2-8.2,6.2s3.2,4.8,3.2,4.8s-9.1,0.5-9,4.2"/>
		<path class="st3" d="M-136.8-457c0,0-18.6,38.4-72.4,25.6"/>
		<path class="st3" d="M-130.1-452.9c0,0-28.2,47.6-81.6,27.3"/>
		<path class="st3" d="M-117.5-396.6c4.4,0,9.7,6,6.5,9.9c-4.5,5.4-11.9,0.7-11.5-5.5C-122.2-395.2-120.5-396.6-117.5-396.6"/>
		<path class="st3" d="M-160.6-370.9c4.4,0,9.7,6,6.5,9.9c-4.5,5.4-11.9,0.7-11.5-5.5C-165.4-369.5-163.6-370.9-160.6-370.9"/>
		<path class="st3" d="M-208.3-352.8c0.9-3.2,7.9-0.6,9.2,0.9c3.2,3.6-1.5,6.9-5.3,7.1"/>
	</g>
	<path class="st4" d="M-4.5-405.1c-0.8,14.6-0.6,29,0.9,43.4c0.6,5.5,1.1,11,1.6,16.5c0.2,1.8-0.5,6.1,0.8,7.5
		c4-3.9,10-5.5,15.2-7.7c7.2-3.1,14.4-6,21.6-9.1c5.5-2.3,10.7-5.1,16-7.7c3.5-1.8,5.7-5.2,9.2-6.9c-0.5-1.4-4.2-2.7-5.6-3.6
		c-2.2-1.4-4.5-2.3-6.8-3.4c-5-2.5-10-4.7-15-7.3c-5.2-2.7-11.3-4.6-16.2-7.7c-3.8-2.4-7.5-5.1-11.2-7.6c-1.8-1.2-3.5-2.5-5.1-3.9
		c-1.3-1.1-2.7-2.9-4.3-3.5"/>
	<path class="st5" d="M4-396.6c-2.9,3.5-5.3,7.5-7.7,11.2"/>
	<path class="st5" d="M13.4-388c-5.3,8.8-12.8,14.2-14.7,24.6"/>
	<path class="st5" d="M26.2-378.3c-5.3,8.8-12.8,14.2-14.7,24.6"/>
	<path class="st5" d="M21.3-382.3c-6.1,6.8-16.2,30-21.3,37.4"/>
	<path class="st5" d="M34.8-380.6c-7.4,10.4-16.1,16.8-19.8,29.3"/>
	<path class="st5" d="M42.3-373.3c-3.7,3.2-6.5,9.3-8.5,13.8"/>
	<path class="st5" d="M7.3-390.5c-3.7,3.2-6.5,9.3-8.5,13.8"/>
</g>
<g id="Слой_6">
</g>
<g id="Слой_5">
	<g>
		<path class="st6" d="M168.9-338.9c0,0,3.1-0.8,17.4,13.6c14.3,14.4,15.4,15.3,15,16.8c-0.5,1.4-10.9,17-19.3,22
			c-8.4,4.9-14.8,7.9-23.1,4.5c0,0-4.4-3.1-6.2-2.7c-1.8,0.4-3.4,1.1-5.4,3.1c-2,2-24.9,26.2-24.9,26.2s11.8,11.1,9.7,15.3
			c-2.2,4.2-10.8-2.3-18.8-10.6c-8-8.3-15.7-13-11.5-17.8c0,0,2.5-3.1,17,9.6c0,0,27.5-26.2,28-29.4c0.4-3.2-5.6-8.3-4.1-16
			c1.4-7.7,3.3-15.4,15.4-26.3C170.2-341.4,168.9-338.9,168.9-338.9z"/>
		<path class="st6" d="M168.9-338.9c0,0,10.8,21,32.1,30.9"/>
		<path class="st6" d="M101.7-268.6c0,0,3.8,12.5,30,28.8"/>
		<path class="st6" d="M122.3-255.5c-0.5,0.4-1.7,1.2-1.4,2.7"/>
		<path class="st6" d="M118.7-258.9c0,0-1.3,1.7-2.7,1.5"/>
		<path class="st6" d="M150.7-316.5c0,0-11.2,12.5,2.4,26.1c13.5,13.6,27.2,0.8,27.2,0.8s-6.7-11.2-13.8-16.3
			S152.5-316.5,150.7-316.5z"/>
		<path class="st6" d="M153.3-313.1c-1.3-0.1-2.7,0.8-4,1.2"/>
		<path class="st6" d="M155.3-311.9c-2.6,0.3-5.1,1.5-7.7,1.8"/>
		<path class="st6" d="M156.9-309.8c-2.9,0.7-6.2,0.8-9,2.2"/>
		<path class="st6" d="M159.5-307.7c-2,0.2-4,0.8-6,1.2c-1.8,0.4-3.5,0.6-5.1,1.4"/>
		<path class="st6" d="M162.1-305.3c-4.1,0.8-8.8,1-12.5,2.9"/>
		<path class="st6" d="M164.5-303.2c-2.8,0.6-5.7,1.2-8.6,1.7c-2.2,0.4-5.3,0.5-7.2,1.7"/>
		<path class="st6" d="M169.1-299.9c-2,0.5-4.3,0.8-6.4,1.2c-3,0.6-6.7,0.7-9.3,2.3c0.1,0,0.2,0.1,0.3,0.2"/>
		<path class="st6" d="M174.2-297.2c-3.1-0.3-6.9,0.7-10,1c-2.4,0.3-4.9,0.6-7.2,1.3c-0.8,0.2-2.1,0.4-2.4,1.3"/>
		<path class="st6" d="M175.2-293.5c-2.8-0.1-5.7,1-8.5,1.2c-3.4,0.3-7.9,0-11,1.5"/>
		<path class="st6" d="M174.2-291c-2,0.1-4,1.2-5.9,1.6c-2,0.4-4.4,0.5-6.2,1.2"/>
		<path class="st6" d="M177.2-289.1c-1.2,0.1-2.4,0.9-3.6,1.1c-2.1,0.4-4.2,0.6-6.2,1"/>
	</g>
	<g>
		<path class="st6" d="M110.6-342.6c0,0,0.1,28.6,0,33.3c-0.1,5.6-6.9,10.7-9.5,14.7c-5.1,7.9-2,57.7-2,58.3c0,0.7,0,39.4,0,39.4
			s15.7,12,37,0c0,0,2-86.6,0-91.5c-2-4.9-2.4-6.6-6.1-10.5c-3.7-3.9-6.1-7.1-6.4-10.5c-0.3-3.4,0.3-22.5,0-25.4
			c-0.3-2.9,0.3-7.9,0.3-7.9S116.6-346.5,110.6-342.6z"/>
		<path class="st6" d="M112.3-343.5c0,0-0.8-5.2-0.8-5.3c0-0.1,1.9-1.1,3.4-1.2s4.5-1.5,6-0.9s2.3,2.2,2.3,2.2l-0.8,5.5L112.3-343.5
			z"/>
		<path class="st6" d="M110.7-314c0,0,2.8-1.8,6.7-1.1c3.9,0.7,6.2,0.3,6.2,0.3"/>
		<path class="st6" d="M98.8-283.7c0,0,36.3,1.1,37.8-0.7"/>
		<path class="st6" d="M102.1-282.1c0.1-0.1,0.1-0.1,0.1-0.1c-0.6,2-2.3,3.9-3.4,5.6"/>
		<path class="st6" d="M109-281.4c-2.5,3.5-5.4,6.8-7.5,10.6"/>
		<path class="st6" d="M112.2-280c-0.9,1-1.5,2.3-2.3,3.4c-1.8,2.7-3.8,5.5-5.2,8.5"/>
		<path class="st6" d="M117-279.4c-0.8,0.6-1.5,1.5-2.2,2.3c-1.6,1.8-2.9,3.8-4.3,5.7c-3.2,4.5-6,9.1-8.6,13.9"/>
		<path class="st6" d="M122.1-278.7c-1.4,0.9-2.6,2.4-3.7,3.6c-2.3,2.4-4.4,5.1-6.4,7.7c-2.4,3.2-4.8,6.5-7.1,9.8
			c-1.2,1.8-2.6,3.7-3.4,5.7"/>
		<path class="st6" d="M129.9-278.8c-1.5,1.3-3.1,2.5-4.5,3.8c-2.2,2-4.3,4.2-6.3,6.5c-4.9,5.5-9.4,11.6-13.1,18"/>
		<path class="st6" d="M132.1-270.9c-11.4,7.9-20.3,19.2-28,30.6"/>
		<path class="st6" d="M132.7-265.4c-2.2,1.2-4.2,3.2-6,4.8c-3.5,3.2-6.9,6.5-10.1,10.2c-5.1,5.9-9.6,12.3-14.6,18.3"/>
		<path class="st6" d="M129.9-255.7c-4.1,2.7-7.8,6.7-11.1,10.3c-5.1,5.6-9.8,11.7-14.1,18"/>
		<path class="st6" d="M127.1-247.2c-3.4,3.6-7.1,7-10.6,10.6c-4.4,4.4-8.4,9.3-12.7,13.7"/>
		<path class="st6" d="M130.2-243.3c-1.6,1.2-3,2.9-4.5,4.3c-3,3-6,6-9.1,9c-2.8,2.8-5.7,5.6-8.6,8.3c-1.2,1.1-2.4,2.6-3.8,3.3"/>
		<path class="st6" d="M131.1-236.2c-8.7,8.8-17.8,17.2-26.4,26.1"/>
		<path class="st6" d="M131.3-226.6c-0.8,0.5-1.5,1.2-2.3,1.8c-2.3,1.9-4.6,3.7-6.9,5.7c-5.9,5.2-11.7,10.4-17.2,16"/>
		<path class="st6" d="M130.1-218.2c-5.2,4.3-10.4,8.6-15.5,12.9"/>
		<path class="st6" d="M128-214c-4.2,3.3-8.2,6.7-12,10.4c-2.1,2-4.2,4.1-6.1,6.3c-0.8,0.8-1.5,2-2.5,2.5"/>
		<path class="st6" d="M130.6-211.9c-3,2.3-5.7,4.9-8.3,7.7c-2.1,2.2-4.2,4.2-6.1,6.5c-0.7,0.9-1.5,2.2-2.4,2.9"/>
		<path class="st6" d="M130.9-206.9c-0.9,1.6-2.8,2.9-4.1,4.2c-1.2,1.2-2.6,2.5-3.6,4c-0.3,0.4-0.6,0.8-0.6,1.4"/>
		<path class="st6" d="M132-202.2c-2.2,2.1-4.6,4.6-6.2,7.2"/>
		<path class="st6" d="M129.9-274.5c-2.3,3-5.5,5.5-7.9,8.4c-4.2,5-8.5,10-12.9,14.8"/>
		<path class="st6" d="M125.1-278c-3,3-5.6,6.4-8.6,9.5"/>
		<path class="st6" d="M132.9-263.1c-0.9,1.3-2.2,2.4-3.3,3.6c-3.2,3.5-6.7,6.8-9.7,10.5"/>
		<path class="st6" d="M132.5-255.2c-1.1,1.1-2.1,2.3-3.2,3.5c-2.1,2.2-5.1,4.6-6.5,7.2"/>
		<path class="st6" d="M102-211.1c0.5-2,3.1-4,4.3-5.6c2.8-3.5,5.7-6.5,9.1-9.4"/>
		<path class="st6" d="M118-217.9c3.1-2.9,6.4-5.8,9.5-8.7"/>
		<path class="st6" d="M107.3-200.4c3-4.4,6.8-8.1,10.5-11.8"/>
		<path class="st6" d="M117.5-195c2-3,4.8-5.3,7.1-8.1"/>
		<path class="st6" d="M113.2-347.6c0.4-0.5,0.9-0.9,1.3-1.3"/>
		<path class="st6" d="M113.4-345.6c0.4-0.6,1-1.3,1.6-1.7"/>
		<path class="st6" d="M116.1-347.8c0.4-0.6,1-0.8,1.5-1.3"/>
		<path class="st6" d="M116-345.4c0.5-0.5,0.9-1,1.5-1.4"/>
		<path class="st6" d="M118.8-347.5c0.2-0.2,0.4-0.4,0.6-0.5"/>
		<path class="st6" d="M119-349.1c0.2-0.3,0.6-0.7,0.9-0.8"/>
		<path class="st6" d="M120.6-347.1c0.3-0.5,0.8-1,1.3-1.3"/>
	</g>
	<g>
		<path class="st6" d="M249-309.5c0,0,3.4-6.1,5.7-23.5s6.3-31.7,26.6-31.7s23.6,13.6,24.4,16.2c0.8,2.6,2,7,2.7,11.4
			c0.8,4.4,1,12.1,2.7,17.6c1.7,5.5,2.2,7.7,5,13.7c2.7,6,11.6,23.5,13.2,35.1s2.6,17.5,0,31.3c-2.6,13.8-9.8,36.9-10.4,39.3
			c-0.7,2.3-4.1,19.1-3.8,22.2c0,0-18.8,7.5-33.9,6.6s-32.6-6.9-32.6-6.9s-1.3-13.4-3.5-21c-2.2-7.6-9.7-33.8-10.3-36.5
			c-0.6-2.7-5.6-26,2.2-45.3c0,0,5-13.3,6.8-17C245.5-301.5,249-309.5,249-309.5z"/>
		<path class="st6" d="M292.9-357.4c6,1,8.3,8.4,9.3,13.5c0.3,1.5,0.7,3.2,0.7,4.7"/>
		<path class="st6" d="M282-355.2c0,0,16.4-0.3,16.4,19.2c0,19.5-16.5,18-16.5,18s-15.8-1-16.5-18.6
			C264.6-354.1,280.8-355.2,282-355.2z"/>
		<path class="st6" d="M265.3-338.7c0,0,0.4-3.9,3.8-5.4c3.4-1.5,8.3-2.4,9.8-3.7s2.7-2.3,3.1-7.3c0,0-0.7,5.8,3.3,7.5
			c4,1.7,12.3,2.6,12.9,9"/>
		<path class="st6" d="M284.6-341.9c0,0,3.7-3.6,8.9,0.2"/>
		<path class="st6" d="M279-341.9c0,0-4-3.4-8.8,0.3"/>
		<path class="st6" d="M271.1-338.7c0,0,3.4-3.1,6.9,0"/>
		<path class="st6" d="M272.2-337.2c0,0,1.8,1.5,4.6,0"/>
		<path class="st6" d="M285.8-338.7c0,0,3.1-3.4,6.9,0"/>
		<path class="st6" d="M286.9-337.2c0,0,1.2,1.3,4.6,0"/>
		<circle class="st6" cx="274.5" cy="-338.3" r="1.8"/>
		<circle class="st7" cx="274.5" cy="-338.5" r="0.6"/>
		<circle class="st6" cx="289.2" cy="-338.5" r="1.8"/>
		<circle class="st7" cx="289.2" cy="-338.6" r="0.6"/>
		<path class="st6" d="M281.2-336.8c0,0.3-0.1,0.6-0.2,0.9c-0.1,0.3-0.2,0.5-0.3,0.8c-0.1,0.4-0.3,1-0.1,1.4
			c0.1,0.3,0.3,0.6,0.5,0.7"/>
		<path class="st6" d="M281.9-333.9c0.2,0,0.4-0.1,0.5,0.1c0.1,0.1,0.3,0.4,0.1,0.6"/>
		<path class="st6" d="M277.8-327c0.4,0.1,0.6,0.4,1,0.5c0.5,0.2,1,0.3,1.6,0.3c1.5,0.2,3,0.3,4.4-0.1c0.5-0.1,1.1-0.4,1.4-0.6"/>
		<path class="st6" d="M278.9-327c0.1-0.3,0.4-0.4,0.6-0.6c0.3-0.2,0.6-0.4,0.9-0.4c0.6,0,1.2,0.3,1.4,0.9c0-0.5,1.1-0.7,1.4-0.7
			c0.5,0,1.2,0.2,1.4,0.7c0,0,0,0-0.1,0"/>
		<path class="st6" d="M279.1-325.4c0.5,0.4,1.2,0.8,1.8,1c0.7,0.2,1.8,0.2,2.4-0.1c0.2-0.1,0.7-0.4,0.9-0.7"/>
		<path class="st6" d="M280.1-318.2c0,0-2,0.7-1.8,2.5s0.8,4.2,3.6,4.6c2.7,0.4,4-3.6,3.6-4.6c-0.4-1-0.4-1.8-1.6-2.2"/>
		<path class="st6" d="M281.4-318c0,0-1.3,1-0.9,3.8"/>
		<path class="st6" d="M282.6-317.9c0,0,1.1,2,0.5,3.7"/>
		<path class="st6" d="M278.3-315.1c0,0-3.4,0.3-7,5.8c-3.7,5.5-5.7,22.6-5.7,22.6s14.7-12.4,16.3-21.1c0,0,0,7,16.3,20.9
			c0,0-2.6-19.1-6.2-23.1s-4.7-4.2-6.5-5"/>
		<path class="st6" d="M278.9-313.4c0,0-6.3,4.8-9.3,15.3"/>
		<path class="st6" d="M269.6-294.4c0,0,8-8.6,10.9-17.3"/>
		<path class="st6" d="M283.5-311.5c0,0,2.1,7.9,10.4,16.8"/>
		<path class="st6" d="M285-313.2c0,0,5.9,3.9,9.3,15.5"/>
		<path class="st6" d="M304-330.3c0,0-1.2,11.9,8.2,26.9"/>
		<path class="st6" d="M240.2-289.2c0,0,19.2-6.9,29-15.3"/>
		<path class="st6" d="M294.5-304.8c0,0,10.7,8.9,29.2,15.5"/>
		<path class="st6" d="M238.1-283.8c0,0,1.2,7,5.5,14.2c4.2,7.2,5.3,10.5,4.8,14.8c-0.5,4.3,0.3,5.7-3.9,12.1
			c-4.1,6.5-9.3,8.7-9.3,8.7"/>
		<path class="st6" d="M239-255.8c0,0,4.7,4.7,3.7,8"/>
		<path class="st6" d="M235.2-250.4c0,0,1.2,4.6,4.5,6.5"/>
		<path class="st6" d="M238.4-235.8c0,0,2.4,8.4,11.8,7.7c0,0,2.6,0,2.5-2.5s-1.9-8.1-1.9-8.4c0,0,3.4,2.7,3.6,1.6s-1.5-6-7.5-9.5"
			/>
		<path class="st6" d="M246.5-236.1c0,0,0.6,1.9,3.4,2.4"/>
		<path class="st6" d="M245.2-234.5c0,0,1.1,2.1,3.9,2.5"/>
		<path class="st6" d="M243.6-233.5c0,0.1,0.6,1.7,3.4,2.3"/>
		<path class="st6" d="M325.7-284.2c0,0-2.6,10.1-5.9,15.5s-6.3,11-3.5,20.2c2.9,9.3,12,14.2,12,14.2"/>
		<path class="st6" d="M325-255.9c0,0-3.2,1.6-3.9,8.2"/>
		<path class="st6" d="M323.9-244c0.2-0.1,2.3-0.3,4.4-6.3"/>
		<path class="st6" d="M316.9-246.9c0,0-6.7,4.2-7.4,8c-0.7,3.9,3.3,0,3.3,0s-1.6,5.5-1.8,6.9c-0.1,1.4-0.5,3.7,2.5,3.9
			c3,0.2,6.9-1.2,8.6-3.1c1.7-1.9,3.1-3.8,3.4-4.9"/>
		<path class="st6" d="M316.6-231.2c0.5-0.2,1.6,0,3.5-2.2"/>
		<path class="st6" d="M314.7-232c0,0,3.1-0.7,3.6-2.7"/>
		<path class="st6" d="M313.7-233.9c0.2,0,2.5-0.1,3.4-2"/>
		<path class="st6" d="M247.9-183.5c0,0,31.6,12.5,67.5,0"/>
		<path class="st6" d="M316.5-218.3c-0.4,0.4-6.7,15.1-7.1,31.5"/>
		<path class="st6" d="M249.5-289.8c-3.6,2.4-6.2,6.5-8.4,10.1"/>
		<path class="st6" d="M257.5-291.2c-2.6,3.1-5.3,6.2-7.8,9.5c-2.7,3.5-4.7,7.6-7.4,11.1"/>
		<path class="st6" d="M264.1-287.9c-2.7,2.3-4.5,6.1-6.5,8.9c-3.2,4.4-7.4,9.9-8.8,15.3"/>
		<path class="st6" d="M273.7-281.8c-3.4,2.7-6.1,6.4-8.8,9.7c-4.7,5.7-8.3,12.1-12.8,17.9"/>
		<path class="st6" d="M280.8-284.8c-9.6,11.1-18.4,23.6-25.6,36.4"/>
		<path class="st6" d="M295.9-284.1c-1.9,2-4.2,3.6-6.1,5.6c-3.9,4.1-7.5,8.4-11.3,12.6c-5.2,5.9-9.9,12.1-14.6,18.5
			c-2.4,3.3-5.1,7.1-6.6,10.9"/>
		<path class="st6" d="M307.8-283.7c-0.8,1.3-2.2,2.3-3.2,3.4c-3.1,3.2-6.2,6.5-9.3,9.7c-7.4,8.1-14.1,16.5-20.2,25.5"/>
		<path class="st6" d="M315.9-280.2c-5.4,5.4-10.3,11.2-15.7,16.6c-4.6,4.5-9.3,8.9-13.6,13.6c-2.6,2.9-6.6,6-8.3,9.6"/>
		<path class="st6" d="M267.4-241.3c-0.9,1.9-2.5,3.7-3.7,5.5c-1.8,2.8-3.6,5.7-5.3,8.6c-3,5.1-6.3,10-9.1,15.2"/>
		<path class="st6" d="M273.3-237.1c-3.9,5.9-8.5,11.4-12.4,17.4c-4.4,6.9-7.9,14.3-12.4,21.2"/>
		<path class="st6" d="M290.2-241.4c0.1-0.1,0.2-0.2,0.3-0.3"/>
		<path class="st6" d="M295.9-246.8c-1.2,1.8-3.1,3.4-4.6,5c-4.1,4.5-8.1,9.1-12,13.8c-5.4,6.4-10.5,13-15.5,19.7
			c-2.8,3.7-6.3,7.9-8.1,12.2"/>
		<path class="st6" d="M307.6-252.7c-5.9,7.1-12.1,14-17.7,21.3c-6.2,8-12,16.4-17.3,25c-3.1,4.9-5.8,10.2-9,15"/>
		<path class="st6" d="M305-235.5c-6.5,7.6-12.9,15.2-18.5,23.6c-4.5,6.7-8.7,13.8-12.5,20.9c-1.8,3.4-3.3,7.2-5.3,10.5"/>
		<path class="st6" d="M309.2-225.2c-4.3,4.3-7.7,9.9-11.2,14.8c-4.7,6.5-8.9,13.7-13.9,20"/>
		<path class="st6" d="M306.7-209.8c-2.8,3.2-4.8,7.4-7.3,10.9c-2.9,4-6.5,8.1-8.7,12.6"/>
		<path class="st6" d="M316.8-271.4c-4.6,3.8-8,9.4-11.8,13.9"/>
		<path class="st8" d="M280.1-295.4c-1.7,2.5-4.1,5.4-5.3,8.2"/>
		<path class="st8" d="M287.9-286.3c-5.5,7.9-11,16-16.8,23.7"/>
		<path class="st8" d="M252.6-226.4c-2.8,4.6-5.6,8.8-7.8,13.8"/>
		<path class="st8" d="M283.1-263.8c-4.2,5.6-9.8,10.2-13.8,16"/>
		<path class="st8" d="M301.1-238.8c-8.8,10.5-16.6,21.9-24.8,32.8"/>
		<path class="st8" d="M303.1-223.8c-3.2,5.1-7.5,9.5-10.7,14.7c-3.5,5.8-6.4,12-9.8,17.8"/>
		<path class="st8" d="M306.1-201.1c-2.8,5-5.8,10.7-7.5,16.2"/>
		<path class="st8" d="M299.9-257.8c-2.5,2.3-4.5,5.5-6.3,8.3"/>
		<path class="st8" d="M316.1-288.1c-1.1,0.7-1.9,1.6-2.6,2.7c-2.7,3.7-5.1,7.5-7.9,11.2"/>
	</g>
</g>
<g id="Слой_7">
	<g>
		<path class="st6" d="M96.9,140.9c-0.3-0.7,0.5-7.6,1.3-9.9s3.3-6.1,6.3-8.1c0,0,2.5-3.8,5.8-15.5c3.3-11.7,8.9-25.4,7.1-40.1
			c-1.8-14.7-6.1-27.1-4.6-31.7c1.5-4.6,11.4-12.9,44.4-13.7s39.8,9.4,39.6,14.7c-0.3,5.3-6.1,30.4-3.3,44.7s8.4,35.7,13.2,41.7
			c0,0,5.6,1.5,6.6,7.6c1,6.1,0.5,11.4-2.3,14.7s-20.3,18.5-55.7,18.5S101.9,154.6,96.9,140.9z"/>
		<path class="st8" d="M112.8,35.6c0,0,28.1,30.4,83.9,1"/>
		<path class="st8" d="M104.5,122.9c0,0-8.1,8.6-3,17s21.8,19.3,55.5,17.2c40.4-2.4,51-13.1,53.4-20c1.4-4-3.7-13.9-3.7-13.9"/>
		<path class="st8" d="M97.5,133.9c0,0-2.4,28.2,59.4,27.2c42.1-0.6,56.6-21.2,56.7-21.8"/>
		<path class="st8" d="M152.1,70.3c0,0,3.3-1.6,4.3,11.1c1,12.7-2.8,11.7-2.9,11.7c-0.1,0-4.5-1-4.1-11.4
			C149.9,71.3,151.1,70.5,152.1,70.3z"/>
		<path class="st8" d="M163.3,74.2c0,0,3.1,1.5-8.9,9.8s-12.7,4.9-12.8,4.8s-1.1-4,9.3-9.8S162.7,73.5,163.3,74.2z"/>
		<path class="st8" d="M164.1,85.6c0,0,0.6,3.4-13.2-1.2s-11.6-7.2-11.5-7.3c0-0.1,2.5-3.3,13.5,1.5S164.3,84.7,164.1,85.6z"/>
		<circle class="st8" cx="152.5" cy="81.7" r="0.8"/>
	</g>
	<g>
		<path class="st6" d="M0.9,144.6c-0.3-0.9,0.6-9.2,1.5-11.9s4-7.3,7.6-9.8c0,0,3.1-4.6,7-18.6S27.8,73.7,25.7,56
			s-7.3-32.7-5.5-38.2C22,12.3,34,2.2,73.7,1.3s48,11.3,47.7,17.7s-7.3,36.6-4,53.9c3.4,17.3,10.1,43,15.9,50.3c0,0,6.7,1.8,7.9,9.2
			c1.2,7.3,0.6,13.8-2.8,17.7s-24.5,22.3-67.1,22.3S7.1,161.1,0.9,144.6z"/>
		<path class="st8" d="M20.2,17.8c0,0,33.9,36.7,101.2,1.2"/>
		<path class="st8" d="M10.1,122.9c0,0-9.8,10.4-3.7,20.5c6.1,10.1,26.3,23.2,66.9,20.8c48.7-2.9,61.4-15.7,64.3-24.1
			c1.6-4.8-4.4-16.8-4.4-16.8"/>
		<path class="st8" d="M1.7,136.3c0,0-2.9,33.9,71.5,32.8c50.7-0.8,68.2-25.6,68.3-26.2"/>
		<path class="st8" d="M67.6,59.6c0,0,4-1.9,5.2,13.4c1.2,15.3-3.3,14.1-3.5,14.1c-0.2,0-5.5-1.2-5-13.7
			C64.8,60.8,66.3,59.8,67.6,59.6z"/>
		<path class="st8" d="M81.1,64.3c0,0,3.7,1.8-10.8,11.8S55,82,54.9,81.9s-1.3-4.8,11.2-11.9S80.3,63.5,81.1,64.3z"/>
		<path class="st8" d="M82,78.1c0,0,0.8,4.1-15.9-1.5s-13.9-8.7-13.9-8.8c0.1-0.1,3-3.9,16.2,1.8S82.2,77,82,78.1z"/>
		<circle class="st8" cx="68" cy="73.3" r="1"/>
	</g>
</g>
<g id="Слой_4">
	<path class="st9" d="M-14.4-136.4c0,0,26.5,8.9,33.5,92c0,0,3.5-2.5,4.4-15.3s-0.8-38.8-11.8-59.3s-26.1-21.6-26.1-21.6V-136.4z"/>
	<path class="st2" d="M2236.4-375.8l40.1,0.9c0,0,5.8-2,6.5-5.4s2-16.1-5.1-19.4c0,0-15.5-1.1-20.6-2.3s-13.1-1.5-17,0
		s-8.8,4-9.8,10.1S2229.9-382.3,2236.4-375.8z"/>
	<path class="st3" d="M2230.5-391.8c0,0,0.4,11.1,8.6,12.4s11.1-1.6,12.1-4.8s0.5-8.6-4.3-10.1s-9.1,1.7-9.5,5.4
		c-0.5,4.2,8.3,9.4,8.9,2c0,0-1.5-2.5-3.6-2"/>
	<path class="st3" d="M2250.9-375.5c0.3-0.6,8.9-6.8,7.9-15.1c-1-8.3-4.8-11.1-8.8-12.4"/>
	<path class="st3" d="M2264.5-375c-0.1-0.3,6.4-9.4,0-26"/>
	<path class="st3" d="M2269.4-375c-0.1-0.3,6.4-9.4,0-26"/>
	<g>
		<path class="st9" d="M-71.7,33.8c0,0-0.5-31.1-2.8-35.1l-15.3-134.3c0,0,0-4.8-0.1-6.1c0,0,2.8-48.8-4.3-69.5
			c-7.1-20.7-8.9-23-22.3-27.1s-35.1-4-42.7-3.3c-7.6,0.8-25.4,6.8-25.4,6.8s-13.8-0.3-26,37.1s-12.1,85.6-10.5,94.1
			c1.7,8.4,5.1,43.2,5.4,52.3s5.7,60.4,8.8,75.9c3,15.5,12.2,60.4,43.3,73.8c1.6,0.7,29.1,1.8,56.4-3.8c27.3-5.6,29.3-9.9,30.8-13.4
			s1-15.9,2.3-18C-72.7,61.2-71.7,33.8-71.7,33.8z M-76-14.5"/>
		<g>
			<path class="st9" d="M-206.3-179.2l116.5,7.7c0,0,3.2-6.9,8.4-14.5c11.2-16.3,5.4-43.4-13.8-52.1c0,0-41.7-3-55.5-6.1
				c-13.8-3-35.3-4-45.7,0c-10.4,4-27.5,10.2-30.2,26.7C-229.2-201-225.9-192-206.3-179.2z"/>
			<path class="st10" d="M-220.2-230.5c0,0-17,33.2,20.8,46.8c21.1,7.6,29.9-4.4,32.6-12.8c2.7-8.4,1.3-23.2-11.4-27.2
				c-12.8-4-24.4,4.5-25.6,14.5c-1.3,11.4,22.2,25.3,23.9,5.4c0,0-4-6.8-9.7-5.4"/>
			<path class="st10" d="M-164.9-176c0.7-1.5,20.9-15.4,18.3-37.7s-12.8-29.9-23.5-33.3"/>
			<path class="st10" d="M-131.1-171.6c-0.3-0.7,17.1-25.3,0-69.8"/>
			<path class="st10" d="M-118-171.6c-0.3-0.7,17.1-25.3,0-69.8"/>
		</g>
		<g>
			<path class="st9" d="M-190.2-66.7c0,0-0.8,72.2,7.9,83c8.7,10.8,22.1,13.3,33,15.3c10.9,2.1,30.4-5.4,30.4-5.4s4.3-2.5,6.1-9.5
				c1.8-7.1,0-121.5,0-121.5s1.4-3.3-4.4-6.2c-5.8-2.9-43.6-6.2-51.9-2.9s-29,39-28.2,43.6S-190.2-66.7-190.2-66.7z"/>
			<path class="st10" d="M-190.2-66.7c0,0,48.7,1.5,51-0.6c2.4-2.1,7-9.1,8.6-12.9c1.5-3.6,7.3-23.9,15.6-28.8"/>
			<path class="st10" d="M-163.8-115c-0.4,0.6-28.2,35.7-22.7,38.7c5.5,2.9,22.8,4.7,24.8,4.3s13.7-1.1,16.9-4.6
				c3.2-3.5,5.7-13.3,8.2-19.6c2.5-6.4,12.4-16.6,12.4-16.6"/>
			<path class="st9" d="M-162-97.6c0,0-7.6,1.7-9.8,7.9c-1.7,4.8-2.1,20.7-2.5,28.7c-0.1,2.3-0.2,4-0.4,4.6
				c-0.7,2.6-0.1,48.4,2.9,51.3s7.2,4.3,9.8,3.9c2.6-0.4,4.3-7.3,3.9-10c-0.4-2.6-1.4-42.2-1.4-44.5s0.8-19.4,1.4-26.7
				c0.6-7.3,2-12.6,0.6-14.1C-158.8-98.1-162-97.6-162-97.6z"/>
			<path class="st10" d="M-175-61.4c0.7,0.4,15.6,0.8,15.6,0.8"/>
			<path class="st9" d="M-136.7-70c0,0,4.6,84.5,2.9,88.7s-9,13.2-12.9,13.3"/>
		</g>
	</g>
	<path class="st9" d="M-89.8-135.6l2.4,20.6c0,0,51.9-1.4,61,48.9c0,0,3,25.6-10.8,34.4S-62.1-15.6-76-14.5l1.5,13.2
		c0,0,45.7-2.4,53.1-31.1s11.8-37.5-3-65.3C-24.4-97.7-38.4-131.5-89.8-135.6z"/>
</g>
</svg>
