<?xml version="1.0" encoding="utf-8"?>
<!-- Generator: Adobe Illustrator 21.0.2, SVG Export Plug-In . SVG Version: 6.00 Build 0)  -->
<svg version="1.1" xmlns="http://www.w3.org/2000/svg" xmlns:xlink="http://www.w3.org/1999/xlink" x="0px" y="0px"
	 viewBox="0 0 184.3 116.7" style="enable-background:new 0 0 184.3 116.7;" xml:space="preserve">
<style type="text/css">
	.st0{fill:#FFFFFF;stroke:#000000;stroke-miterlimit:10;}
	.st1{fill:none;stroke:#000000;stroke-miterlimit:10;}
	.st2{fill:none;stroke:#000000;stroke-width:2;stroke-miterlimit:10;}
	.st3{fill:#FFFFFF;stroke:#000000;stroke-width:2;stroke-miterlimit:10;}
</style>
<g id="Слой_1">
</g>
<g id="Слой_2">
	<g>
		<path class="st0" d="M25.6-383.3C23.8-395.9,7-403.4,2.4-405.6c-4.6-2.2-12.7-2.8-18-2.4c-5.3,0.4-8.1,1.3-19.7,6
			c-11.6,4.7-13.1,10.4-13.1,10.4c-15.4,23.9-4.2,45.7-4.2,45.7c12.9,22,32.1,16.8,48.9,12.9s25.1-18,29.5-26.9
			C30-368.8,27.5-370.8,25.6-383.3z M-11-362.3c-1.9,2.6-5.8,2.5-9.8,2c-4.1-0.4-4-3.2-5.3-6.9s3.3-8.2,3.3-8.2s6.7-1.8,11.1-1.7
			c4.3,0.1,4.1,3,4.7,6.1S-9.1-364.8-11-362.3z"/>
		<path class="st1" d="M-37.6-380.3c0,0,1.5,0.3,3.6-2.1s1.4-4.3,4.6-5.7c3.3-1.4,4.1,0.3,5.6-0.5c1.6-0.8,1.3-2.1,4.1-3.1
			s3.9-0.4,6.2,1.3s3.1,2.1,5.6,1.7s5,0.7,5.3,3.9c0.3,3.2,1.9,5.7,2.1,7.4c0.2,1.7-0.4,3.3-1,4.4c-0.6,1.2,0.9,4.3,0,6.4
			s-3.1,4.8-5.2,6.1c-2.2,1.3-5.2,4.4-6.9,4.3s-7.6-2.3-10.3-2.3c-2.7,0.1-6.3-1-9.4-3.3s-4.6-3.1-4.5-5.6c0.1-2.5,1.3-3.9,1-5.2
			c-0.3-1.4-2.1-3.7-2.1-5.1C-38.8-378.9-38.7-379.6-37.6-380.3z"/>
		<path class="st1" d="M-32.7-368.1c0.8,0.4,1.5,0.9,2,1.6"/>
		<path class="st1" d="M-32.6-371c0.7,0.5,1.4,1.2,1.8,2"/>
		<path class="st1" d="M-32.6-374.3c0.8,0.6,1.5,1.4,1.9,2.3"/>
		<path class="st1" d="M-32.2-377.3c0.8,0.6,1.5,1.3,2,2.1"/>
		<path class="st1" d="M-30.3-378.3c0.6,0.8,1.1,1.6,1.7,2.4"/>
		<path class="st1" d="M-28.9-379.6c0.5,0.2,0.7,0.7,1,1.1c0.1,0.3,0.2,0.5,0.4,0.8"/>
		<path class="st1" d="M-27.8-381.3c0.7,0.7,1.2,1.6,1.5,2.5"/>
		<path class="st1" d="M-25.5-382.4c0.4,0.8,0.9,1.6,1.3,2.4c0-0.1,0-0.1,0.1-0.2"/>
		<path class="st1" d="M-23.6-384c0-0.1,0.2,0,0.2,0c0.7,0.9,1.3,1.8,1.8,2.8"/>
		<path class="st1" d="M-20.4-385.5c0.3,0,0.5,0.3,0.7,0.5c0.8,0.9,1.3,2,1.6,3.1"/>
		<path class="st1" d="M-17.3-385.3c0.2,0.1,0.3,0.4,0.4,0.7c0.2,0.9,0.6,1.8,1,2.6"/>
		<path class="st1" d="M-15-385.3c0.4,0.9,0.7,1.8,1.1,2.7"/>
		<path class="st1" d="M-12.3-384.9c0.1,0.6,0.3,1.2,0.4,1.8c0.1,0.4,0.2,0.8,0.5,0.9"/>
		<path class="st1" d="M-10.4-384c0.2,0,0.3,0.3,0.4,0.5c0.2,0.6,0.4,1.2,0.6,1.8"/>
		<path class="st1" d="M-8.1-382.6c0.3,0.5,0.6,0.9,1,1.3"/>
		<path class="st1" d="M-6.4-380.5c0,0.4,0,0.7,0.1,1.1"/>
		<path class="st1" d="M-50.3-375.4c0.4-0.2,1.7-0.7,1.9-1.1c0.2-0.6-0.6-0.9-1.1-0.9c-1.1-0.1-2.2,1.3-2.7,2.1
			C-51.7-375.1-50.9-375.2-50.3-375.4z"/>
		<path class="st1" d="M-51.4-372c-0.2,0.8-0.3,1.7-0.3,2.6c0,0.1,0,0.3,0.2,0.3c0.1,0,0.1,0,0.1-0.1c0.4-0.3,0.8-0.7,1.1-1.1
			c0.2-0.3,0.4-0.6,0.5-1s0-0.8-0.3-1c-0.1,0-0.1,0.1-0.1,0.2"/>
		<path class="st1" d="M-53.2-364.8c-0.5,0.8-0.9,1.7-1,2.6c0,0.1,0,0.1,0,0.2c0,0,0.1,0.1,0.1,0.1c0.2,0.1,0.5-0.1,0.6-0.2
			c0.2-0.2,0.3-0.4,0.4-0.6c0.5-1,0.6-2.2,0.2-3.3"/>
		<path class="st1" d="M-45.7-370.5c-0.3,0.8-0.4,1.6-0.5,2.5c0,0.2,0,0.3,0.1,0.4c0.1,0.2,0.4,0.2,0.6,0.2c0.2-0.1,0.4-0.2,0.5-0.4
			c0.5-0.6,0.7-1.5,0.6-2.2c0-0.1-0.1-0.2-0.2-0.2"/>
		<path class="st1" d="M-41.4-371.8c0,0.6,0,1.1,0.1,1.7c0,0.2,0.1,0.3,0.2,0.5c0.1,0.1,0.3,0.2,0.4,0.1c0.1,0,0.2-0.1,0.2-0.2
			c0.3-0.5,0.3-1.2,0.1-1.7c-0.2-0.6-0.5-1.1-0.9-1.5"/>
		<path class="st1" d="M-42.5-375.5c0.7,0,4.3-1.5,2.8-2.5c-0.5-0.3-1.1,0-1.5,0.4C-41.4-377.4-42.7-375.5-42.5-375.5z"/>
		<path class="st1" d="M-51-384.6c0.3,0.2,0.7,0.5,1,0.7c0.2,0.1,0.3,0.3,0.4,0.4c0.1,0.4-0.3,0.6-0.7,0.7c-0.4,0-0.7,0-1.1,0.1"/>
		<path class="st1" d="M-43.5-383.1c-0.1,0.4,0.1,0.8,0.5,0.9c0,0,0.1,0,0.1,0c0.2,0,0.3-0.1,0.4-0.2c0.4-0.3,0.8-0.6,1.2-0.9
			C-40.4-384.3-43.1-384.5-43.5-383.1z"/>
		<path class="st1" d="M-48.5-387.1c0,0.1,0,0.1,0,0.2c0,0.1,0.2,0.1,0.3,0.1c0.8,0.1,1.6-0.3,2.3-0.7c1-0.6-0.1-1.3-0.8-1.2
			C-47.5-388.6-48.4-388-48.5-387.1z"/>
		<path class="st1" d="M-43.4-390.6c0.5,0,0.9-0.2,1.4-0.4c0.9-0.4,1.9-0.7,2.8-1.1c0.4-0.2,0.8-0.4,0.7-0.8c-0.2-1.2-2-0.3-2.5,0
			C-42.2-392.3-42.9-392-43.4-390.6z"/>
		<path class="st1" d="M-35.7-388c1,0,2.7-2.9,1.5-3C-35.5-391.2-36.6-388-35.7-388z"/>
		<path class="st1" d="M-41.1-398.2c-0.1,0.7-0.2,1.5-0.1,2.2c0,0.2,0,0.4,0.1,0.6c0.1,0.2,0.3,0.3,0.4,0.3c0.3,0,0.5-0.3,0.7-0.6
			c0.4-0.7,0.7-1.5,1-2.3"/>
		<path class="st1" d="M-35.3-398c-0.1,0.2-0.2,0.4-0.2,0.6c0.7-0.1,1.4-0.2,2.1-0.4c0.7-0.3,1.3-0.7,1.5-1.4c0.1-0.1,0.1-0.3,0-0.4
			c-0.1-0.1-0.2-0.2-0.4-0.2C-33.5-400.1-34.6-399.1-35.3-398z"/>
		<path class="st1" d="M-29.1-392.8c0.1,0.1,0.2,0.2,0.3,0.2c0.1,0,0.1,0,0.1-0.1c0.3-0.2,0.3-0.6,0.2-1c-0.2-0.5-1.2-1.7-1.7-1.1
			C-30.8-394.2-29.5-393.2-29.1-392.8z"/>
		<path class="st1" d="M-21.5-392.5c0.1,0,0.1,0,0.2,0c0,0,0.1-0.1,0.1-0.1c0.2-0.5-0.2-0.9-0.6-1.3c-0.5-0.4-2.1-1.7-2.1-0.2
			C-23.9-393-22.3-392.6-21.5-392.5z"/>
		<path class="st1" d="M-25.6-400c0-0.1-0.2-0.2-0.3-0.1c-0.1,0-0.2,0.1-0.3,0.2c-0.3,0.3-0.4,0.7-0.6,1.2c0,0.1,0,0.1,0,0.2
			c0,0.1,0.1,0.1,0.2,0.2c0.3,0.1,0.6-0.1,0.8-0.2c0.5-0.3,0.8-0.7,1.1-1.2c0-0.1,0.1-0.1,0-0.2c0-0.1-0.1-0.1-0.1-0.1
			c-0.2-0.1-0.4-0.1-0.5-0.1C-25.4-400.3-25.6-400.1-25.6-400"/>
		<path class="st1" d="M-26.1-404.5c0-0.1-0.1,0-0.1,0c-0.2,0.2-0.1,0.5,0.1,0.6c0.2,0.1,0.4,0.1,0.6,0c0.2-0.1,0.3-0.3,0.5-0.5"/>
		<path class="st1" d="M-21.7-403.7c0,0.2,0,0.5,0.1,0.6c0.1,0.1,0.2,0.1,0.3,0.1c0.6,0,1.2-0.3,1.6-0.8s0.4-1.2,0.2-1.8
			c-0.2-0.7-0.9-0.6-1.4-0.2C-21.4-405.4-21.6-404.4-21.7-403.7z"/>
		<path class="st1" d="M-19.3-400.7c-0.3,0.6-0.5,1.1-0.6,1.7c-0.1,0.4-0.1,1,0.3,1.2c0.3,0.2,0.7,0,0.9-0.2c0.2-0.3,0.3-0.6,0.3-1
			c0-0.4,0-0.8-0.2-1.2c-0.1-0.2-0.2-0.3-0.3-0.4c-0.2-0.1-0.5,0-0.6,0.2c-0.2,0.2-0.3,0.4-0.3,0.6"/>
		<path class="st1" d="M-12.6-394.5c0.2,0.3,0.6,0.7,1,0.5c0,0,0,0,0,0c0.2-0.1,0.3-0.3,0.3-0.6c0-0.2-0.1-0.5-0.2-0.7
			C-11.9-396-13.2-395.4-12.6-394.5z"/>
		<path class="st1" d="M-11.6-401.4c0.1,0.1,0.3,0.2,0.4,0.2c0.3,0,0.5-0.4,0.5-0.7c0-1.1-0.5-2.1-1.3-2.8c0,0-0.1-0.1-0.1-0.1
			c-0.3,0-0.4,1.4-0.4,1.7C-12.5-402.5-12.1-401.8-11.6-401.4z"/>
		<path class="st1" d="M-9.9-407.8c-0.3,0.6-0.4,1.3-0.3,1.9c0,0.2,0.1,0.4,0.3,0.4c0.2,0,0.3-0.2,0.4-0.3c0.4-0.7,0.5-1.5,0.4-2.2"
			/>
		<path class="st1" d="M-4.7-405.1c0.1,0.2,0.1,0.3,0.3,0.4c0.2,0.1,0.4,0.1,0.6,0.1c0.2,0,0.4,0,0.6,0c0.2,0,0.3-0.1,0.4-0.3
			c0.1-0.1,0.1-0.2,0.1-0.4C-2.4-407.3-5.3-406.7-4.7-405.1z"/>
		<path class="st1" d="M-7.5-396.9c0.9,0.2,3.5-1.4,2-2C-6.8-399.5-8.7-397.2-7.5-396.9z"/>
		<path class="st1" d="M1.3-401.2c0.1,0.1,0.2,0.1,0.3,0.2c0.9,0.1,2-1.6,1-2.2C1.6-403.8,0.7-401.9,1.3-401.2z"/>
		<path class="st1" d="M3.2-396.7c-0.9-0.1-1.8,0.6-2,1.4c0,0.1,0,0.2,0,0.3c0,0.1,0.1,0.1,0.2,0.1c0.5,0.2,1-0.1,1.4-0.4
			c0.3-0.2,0.6-0.4,0.8-0.6c0.2-0.1,0.5-0.3,0.5-0.6c0-0.2-0.1-0.4-0.3-0.6c-0.2-0.1-0.4-0.2-0.6-0.2"/>
		<path class="st1" d="M-1.8-393.6C-1.8-393.5-1.7-393.6-1.8-393.6c0-0.1,0-0.1-0.1-0.1c-0.5,0-1.1,0.3-1.3,0.7
			c-0.1,0.1-0.1,0.3,0,0.4c0,0.1,0.1,0.1,0.2,0.1c0.5,0.2,1.1-0.1,1.6-0.2c0.3-0.1,0.6-0.1,0.9-0.1c0.1,0,0.2,0,0.2,0
			c0,0,0-0.1,0.1-0.1c0.1-0.3-0.1-0.7-0.4-0.8s-0.7,0-0.9,0.3"/>
		<path class="st1" d="M10-400.4c-0.3,0.1-0.5,0.5-0.5,0.8c0,0.1,0,0.2,0,0.3c0.1,0.1,0.2,0.1,0.3,0.2c0.5,0.1,1.1,0,1.5-0.4"/>
		<path class="st1" d="M10.4-395.9c-1,0.2-1.8,0.8-2.2,1.6c-0.1,0.2-0.1,0.4,0,0.5c0.1,0.1,0.2,0.1,0.3,0.1c0.3,0,0.7-0.1,1-0.3
			c0.3-0.1,0.5-0.3,0.7-0.4c0.2-0.2,0.4-0.5,0.3-0.8c0-0.2-0.1-0.3-0.2-0.4c-0.2-0.1-0.4-0.1-0.6,0c-0.2,0.1-0.3,0.3-0.4,0.5"/>
		<path class="st1" d="M1.7-386.3c0,0.1,0,0.2,0.1,0.3c0.1,0.1,0.3,0.1,0.4,0.1c0.7-0.1,1.3-0.6,1.7-1.2c0.6-0.7,1.4-2.7-0.3-2
			C2.5-388.6,1.8-387.4,1.7-386.3z"/>
		<path class="st1" d="M14-387.2c0.1,0.1,0.1,0.1,0.2,0.1c0.2,0,0.3-0.1,0.4-0.2c0.3-0.5,0.9-2.8-0.3-2.6
			C13.1-389.7,13.4-387.7,14-387.2z"/>
		<path class="st1" d="M5.7-385c0,0.1-0.1,0.2,0,0.3c0.1,0.2,0.4,0.1,0.6,0c0.5-0.3,2.5-1.3,1.4-1.9C6.7-387.1,5.9-385.7,5.7-385z"
			/>
		<path class="st1" d="M3.4-380.2c-0.1,0.1-0.1,0.1-0.1,0.2c0,0.1,0.1,0.1,0.2,0.2c1.2,0.4,2.6,0,3.8-0.5c0,0,0.1,0,0.1-0.1
			c0.1-0.1,0-0.2-0.1-0.3C6.5-381.7,4.3-381.1,3.4-380.2z"/>
		<path class="st1" d="M13-381.5c-0.5,0.4-0.9,1-1.1,1.7c0,0.1-0.1,0.3,0,0.4c0.1,0.2,0.3,0.3,0.6,0.2c0.2-0.1,0.4-0.2,0.5-0.4
			c0.4-0.5,0.7-1.2,0.7-1.8c0-0.1,0-0.2-0.1-0.3c-0.1-0.1-0.3,0-0.4,0.2s-0.1,0.3-0.2,0.4"/>
		<path class="st1" d="M1.1-373.8c0,0.1-0.1,0.3,0,0.4c0.1,0.2,0.4,0.2,0.6,0c0.5-0.3,1.2-1.6,0.6-2.1
			C1.5-376.1,1.2-374.3,1.1-373.8z"/>
		<path class="st1" d="M6.5-373.8c0.1,0.1,0.2,0.1,0.3,0.2c0.7,0.2,1.4-0.1,2-0.3c0.5-0.2,1.2-0.3,1-1.1c-0.2-0.5-0.6-0.6-1-0.6
			C8.3-375.5,5.8-374.6,6.5-373.8z"/>
		<path class="st1" d="M13-367.9c0,0.1,0,0.2,0,0.2c0.1,0.2,0.4,0.1,0.6,0c0.3-0.3,1.5-1.7,0.9-2.1C13.7-370.2,13-368.4,13-367.9z"
			/>
		<path class="st1" d="M6.1-367.3c0.2,0.1,0.4,0.2,0.6,0.2c0.2,0,0.3-0.2,0.3-0.3c0.4-0.7-0.4-2-1.3-1.8
			C4.7-369,5.6-367.6,6.1-367.3z"/>
		<path class="st1" d="M1.1-360.4c0,0.1,0,0.1,0,0.1c0.1,0.1,0.2,0.1,0.3,0.1c0.7-0.2,1.2-0.9,1.6-1.5c0.2-0.4,0.3-0.8,0.3-1.2
			c0-0.4-0.2-0.8-0.5-1.1C1.4-365.3,1.1-361.1,1.1-360.4z"/>
		<path class="st1" d="M4.1-355.6c-0.5,0.9-0.9,1.9-1,2.9c0,0.1,0,0.2,0,0.2c0,0.1,0.1,0.1,0.2,0.2c0.4,0.2,0.8,0,1.2-0.2
			c0.5-0.3,0.9-0.7,1.2-1.2c0.2-0.3,0.3-0.7,0.2-1c-0.2-0.4-0.8-0.4-1.1-0.2c-0.4,0.2-0.5,0.7-0.7,1.1"/>
		<path class="st1" d="M-7.3-355.8c0.1,0.4,0.6,0.4,0.9,0.3c0.2-0.1,0.4-0.2,0.6-0.3c0.3-0.1,0.6-0.3,0.9-0.4
			c0.3-0.1,0.5-0.1,0.8-0.2c1.2-0.5-0.5-0.9-0.9-0.9C-5.6-357.2-7.5-356.9-7.3-355.8z"/>
		<path class="st1" d="M-8-348.1c0,0.1,0,0.2,0,0.3c0.1,0.2,0.3,0.2,0.5,0.1c0.9-0.2,2.9-2.2,1.7-3.2C-7.2-351.9-7.9-348.8-8-348.1z
			"/>
		<path class="st1" d="M-12.2-350.7c0,0.3,0,0.6,0.1,0.8c0.1,0.2,0.4,0.4,0.7,0.3c0.1-0.1,0.2-0.2,0.3-0.3c0.3-0.5,1.3-3.1,0.4-3.3
			C-11.6-353.4-12.2-351.1-12.2-350.7z"/>
		<path class="st1" d="M-20.9-355.9c0.2,0.3,0.4,0.5,0.6,0.8c0.3,0.3,0.7,0.6,1.1,0.7c0.4,0.1,0.8,0,1.2-0.2
			c0.4-0.2,0.9-0.5,0.9-0.9c0-0.3-0.3-0.6-0.6-0.7c-0.4-0.3-0.8-0.4-1.3-0.5c-0.2,0-0.5-0.1-0.7,0c-0.2,0.1-0.4,0.3-0.4,0.5"/>
		<path class="st1" d="M-21.3-350.7c-0.3,0-0.6,0.1-0.8,0.1c-0.4,0.1-0.7,0.1-1.1,0.3c-0.6,0.2-1,0.7-1.3,1.2
			c-0.1,0.1-0.1,0.3-0.1,0.4c0,0.1,0.1,0.2,0.2,0.2c0.4,0.2,0.8,0,1.1-0.2c0.8-0.4,1.5-0.9,2.2-1.5c0.1-0.1,0.2-0.2,0.2-0.3
			c0-0.1,0-0.1-0.1-0.2c-0.2-0.2-0.5-0.4-0.8-0.4s-0.6,0.3-0.6,0.6"/>
		<path class="st1" d="M-18.7-346.6c-0.5,0.2-1,0.5-1.4,0.8c-0.2,0.2-0.5,0.5-0.4,0.7c0.1,0.3,0.4,0.4,0.7,0.5
			c0.7,0.1,1.4-0.3,2.1-0.6c0.2-0.1,0.4-0.2,0.6-0.4c0.2-0.2,0.2-0.4,0.2-0.6c-0.1-0.2-0.3-0.3-0.5-0.4c-0.6-0.2-1.3-0.1-1.8,0.3"/>
		<path class="st1" d="M-29-351.1c0,0.4,0,0.9,0.4,1.2c0.3,0.2,0.7,0.1,0.9-0.2c0.1-0.1,0.2-0.2,0.2-0.3c0.1-0.2,0.2-0.4,0.2-0.6
			c0.1-0.5,0.3-2.6-0.6-2.4C-28.6-353.2-29-351.6-29-351.1z"/>
		<path class="st1" d="M-37-348.9c0,0.1,0,0.1,0,0.2c0.1,0.1,0.2,0.1,0.2,0.1c0.2,0,0.4-0.1,0.6-0.2c0.5-0.2,1-0.6,1.4-0.9
			c0.1-0.1,0.3-0.2,0.4-0.4c0.5-0.8-0.4-1.1-1-1C-36.4-350.8-36.9-349.9-37-348.9z"/>
		<path class="st1" d="M-35.9-357.9c-0.4,0.2-0.8,0.5-1,0.9c0,0.1-0.1,0.2-0.1,0.3c0,0.1,0.1,0.2,0.2,0.2c0.3,0.1,0.6,0.1,0.8,0.1
			c0.2,0,0.5,0,0.7-0.1c0.2-0.1,0.4-0.3,0.4-0.6c0-0.4-0.3-0.7-0.7-0.7c-0.4,0-0.7,0.2-1,0.4"/>
		<path class="st1" d="M-42.8-355.9c-0.9,0.1-1.6,1-1.4,1.9c0,0.1,0,0.1,0.1,0.2c0.1,0.1,0.2,0.1,0.4,0c0.5-0.2,0.8-0.5,1.1-0.9
			c0.2-0.3,0.4-0.6,0.3-0.9c-0.1-0.3-0.4-0.6-0.7-0.4"/>
		<path class="st1" d="M-49.2-355.3c0.1,0,0.3,0,0.4-0.1c0.1-0.1,0.1-0.2,0.1-0.3c0.1-0.5-0.3-1-0.8-1.3c-0.6-0.4-2-0.9-1.5,0.3
			C-50.7-355.9-50-355.4-49.2-355.3z"/>
		<path class="st1" d="M-50-361.7c0.1,0.6,0.7,1.1,1.3,1.3c1,0.3,2.1,0.2,3-0.4c0.1-0.1,0.2-0.1,0.2-0.2c0-0.1-0.1-0.2-0.1-0.2
			c-0.6-0.5-1.4-0.6-2.2-0.6C-48.3-362-50.1-362.5-50-361.7z"/>
		<path class="st1" d="M-54.5-362c0.3,0.2,0.8,0.2,1.2-0.1c0.5-0.4,1.6-2.6,0.6-2.8C-53.7-364.9-54.5-362.6-54.5-362z"/>
		<path class="st1" d="M-46-368.4c0,0.4,0.2,0.8,0.5,0.9c0.2,0,0.4-0.1,0.6-0.2c0.1-0.1,0.2-0.2,0.2-0.3c0.2-0.3,0.4-0.6,0.4-0.9
			C-43.9-370.7-46.1-369.8-46-368.4z"/>
		<path class="st1" d="M-41.6-372.3c-0.2,0.5-0.2,1-0.1,1.5c0.1,0.4,0.3,0.9,0.7,1c0.1,0,0.1,0,0.2,0c0.1,0,0.1-0.1,0.1-0.2
			c0.3-0.5,0.3-1.2,0.1-1.7c-0.1-0.2-0.2-0.5-0.5-0.6c-0.2-0.1-0.6,0.1-0.6,0.3"/>
		<path class="st1" d="M-41.5-361.4c0.1,0,0.3,0,0.4,0c1.1-0.5,0.2-2.9-1-2.6C-43.5-363.6-42.6-361.5-41.5-361.4z"/>
		<path class="st1" d="M-49.6-348.4c0.2,1,0.4,2,0.5,3"/>
		<path class="st1" d="M-47.4-347.6c0.1,1.3,0.3,2.6,0.5,3.9"/>
		<path class="st1" d="M-44.8-345.3c0.4,1.6,0.7,3.1,0.9,4.7"/>
		<path class="st1" d="M-41.3-342.2c0.2,1,0.4,1.9,0.7,2.8"/>
		<path class="st1" d="M-37.7-341.1c0,0.9,0.2,1.7,0.4,2.6"/>
		<path class="st1" d="M-36.1-341.3c0.4,1,0.7,2.1,0.9,3.2"/>
		<path class="st1" d="M-33.3-341.5c0,1.8,0.2,3.5,0.5,5.3"/>
		<path class="st1" d="M-30-341.4c0.5,1.8,1,3.5,1.5,5.3"/>
		<path class="st1" d="M-26.3-339.8c0.3,1.4,0.6,2.9,1,4.3"/>
		<path class="st1" d="M-22.7-338.4c0.3,1.2,0.7,2.4,1.1,3.6"/>
		<path class="st1" d="M-19.8-338.4c0.7,1.2,1.5,2.3,2.3,3.3"/>
		<path class="st1" d="M-15.9-340.4c0.3,0.9,0.7,1.9,1.1,2.8c0.1,0.2,0.2,0.3,0.3,0.4"/>
		<path class="st1" d="M-12.4-341.4c0.3,1.6,0.8,3.1,1.5,4.6"/>
		<path class="st1" d="M-8.7-341c0.3,1,0.8,2,1.3,3"/>
		<path class="st1" d="M-5.8-342c-0.1,0,0-0.1,0-0.1c0.1,0,0.1,0,0.1,0.1c0.8,1,1.4,2.3,1.6,3.6c0,0.1-0.1,0.2-0.1,0.1"/>
		<path class="st1" d="M-1.7-344.4c0.4,1.2,0.8,2.4,0.9,3.7"/>
		<path class="st1" d="M2.1-345.5c1,0.6,1.6,1.8,1.7,2.9"/>
		<path class="st1" d="M5.3-348c0.2,0.1,0.3,0.3,0.4,0.5c0.2,0.6,0.4,1.2,0.6,1.8"/>
		<path class="st1" d="M8.4-349.7c0.1,0.9,0.4,1.8,0.8,2.7"/>
		<path class="st1" d="M11.2-353.1c0.8,0.9,1.2,2.1,1.1,3.2"/>
		<path class="st1" d="M12.9-356.6c0.5,1.1,0.8,2.3,1,3.5"/>
		<path class="st1" d="M14.5-359.4c0.1,0.5,0.4,1,0.6,1.6c0.3,0.8,0.4,1.6,0.4,2.3"/>
		<path class="st1" d="M16.4-362c0.7,1,1.1,2.3,1.1,3.5"/>
		<path class="st1" d="M17.9-364c0.5,0.8,0.9,1.7,1.2,2.7"/>
		<path class="st1" d="M20-366.9c0.4,0.9,0.7,1.8,0.8,2.7"/>
		<path class="st1" d="M21.3-371c0.2,0.7,0.4,1.4,0.6,2.2"/>
		<path class="st1" d="M21.8-374.3c0.1,0.6,0.2,1.1,0.3,1.7"/>
		<path class="st1" d="M-55.8-354.3c2.8,4.9,11.5,3.3,14.3,8.2c0.6,1.1,0.9,2.6,2,3.3c1.1,0.8,2.7,0.5,3.9-0.1
			c1.2-0.6,2.4-1.3,3.8-1.5c2.1-0.2,4,1.3,5.7,2.6c1.7,1.3,3.8,2.6,5.8,2c2-0.6,3.3-2.8,5.4-3c1.7-0.2,3.2,1,4.8,1.1
			c1.7,0,3.2-1.1,4.3-2.4s2.1-2.8,3.5-3.7c3.3-2.1,8.4-0.9,10.9-3.9c0.7-0.8,1.1-1.8,1.4-2.8c1.2-3.5,2.4-7.3,5.2-9.7
			c1.5-1.3,3.6-2.3,3.9-4.3c0.1-0.8-0.1-1.6-0.4-2.3c-1.2-2.8-3.4-5.7-2.4-8.6c0.4-1,1.1-1.9,1.5-2.9c1.9-4.4-2.6-9.9-0.4-14.2"/>
	</g>
</g>
<g id="Слой_3">
	<g>
		<path class="st2" d="M210.1-163.3c0,0,10.1-17.2,4.7-22.1s-70-45.4-70-45.4"/>
		<path class="st3" d="M231.1-142.7l33.7-73.3l-69.5-34.1l-13,28.4l-171.3-42c0,0-2.6-0.9-3.9,1.9c-1.3,2.8-5.5,12-6.1,13.3
			s-4.4,4.3-4.5,6.4c-0.1,2.1-0.8,5.1-0.8,5.1l-14.9,32.4l53.7,99.5L231.1-142.7z"/>
		<polyline class="st2" points="-4,-238.6 58.9,-155 241.3,-165.1 		"/>
		<polygon class="st2" points="55.5,-155 34.4,-112.5 -16.3,-205.1 -3.8,-232.2 		"/>
		<path class="st2" d="M173-157.3c-0.6-0.6-64.3,5.1-64.3,5.1l-11.4,28.8l64.8-10L173-157.3z"/>
		<polygon class="st2" points="146.4,-141.8 145.2,-139.1 128.1,-137.8 129.5,-140.8 		"/>
		<polygon class="st2" points="234.5,-161.5 176.6,-157.1 165.5,-133 227,-145.2 		"/>
		<polygon class="st2" points="216,-150.9 214.8,-148.4 195.6,-146.9 196.5,-148.9 		"/>
		<path class="st2" d="M242.7-180.6c-0.4-0.2-21.8-1.1-21.8-1.1"/>
		<path class="st3" d="M241-185.7c0,0,1.1-8.1-20.4-22.6c-21.4-14.5-36.2-12.6-36.2-12.6s-11.5,0.6-16.1,3.7c0,0,36.8,30,46.5,31.9
			C224.5-183.6,237.5-183.6,241-185.7z"/>
		<path class="st2" d="M246.1-175.3c0,0,2-5.8-2.4-8.7c-4.4-2.9-13.3-8.8-31.5-6.9c0,0-1.2,0.3-2.2,2.2"/>
		<path class="st2" d="M191.1-162.3c0,0,9.1-15,3.4-21.7c-5.7-6.7-66.4-51-66.4-51"/>
		<line class="st2" x1="202.5" y1="-168.6" x2="199.8" y2="-162.8"/>
		<line class="st2" x1="186.8" y1="-166.4" x2="184.7" y2="-161.9"/>
		<path class="st2" d="M189.7-185.7c0,0-29.9,0.9-45.2-2.5"/>
		<path class="st2" d="M125.2-175.4c0,0-3.6,14.4-9,17.2"/>
		<path class="st2" d="M107.4-189.9c0,0,3.6,3.9,2.1,7.9c-1.5,4-10.2,13.1-10.2,13.1S110.5-183.4,107.4-189.9z"/>
		<path class="st2" d="M89.3-190.9c-0.3-0.3-7.5,2.8-14.2-2.3c-6.7-5-15.8-13.9-15.8-13.9"/>
		<line class="st2" x1="55" y1="-211.5" x2="53.6" y2="-213.7"/>
		<line class="st2" x1="51.4" y1="-215.6" x2="14" y2="-256.5"/>
		<path class="st2" d="M15.3-230.5c0,0-1,2-2.7,4.2c-1.7,2.3-2.8,6.1-2.8,6.1"/>
		<path class="st2" d="M7.3-241.8c0,0-6.4,9.7-5.9,10.3"/>
		<path class="st2" d="M48.2-219.1c0,0-4.7,5.2-7.1,13.3"/>
		<path class="st2" d="M69.4-168.1c0,0.4-0.6,3.2-3.8,5.9c-3.2,2.6-3.4,4.2-4.6,5c-1.1,0.8-2.2,2.2-2.2,2.2l-24.5,49.9"/>
		<path class="st2" d="M57.9-156.3c0,0-7.5-7.9-7.2-15.1"/>
		<path class="st2" d="M58.9-155c0,0,1.7-7,0.3-12.5s0.4-7.6,0.4-7.6s-3.8,5.8-3.2,9.5C56.9-162,58.9-155,58.9-155z"/>
	</g>
</g>
<g id="Слой_4">
	<g>
		<path class="st3" d="M128.3,32.9c0,0-34.9-36.1-47.9-31.5s-9.6,20-9.6,20L74.9,37"/>
		<path class="st3" d="M38.1,43.2c0,0,44.6-9.1,74.8-9.6C143,33,170,27,180.5,41.7C191,56.4,165.3,66.9,157,68.4
			c-8.3,1.5-18,5.9-18,5.9l-1.7,1.1c0,0-3,37.2-25.4,40.1c0,0-10.4,4.9-31.1-38.5c0,0-21.7,5-34.7,3.9s-33.7-1.6-33.7-1.6
			s-7.2-5.3-7-12.3s1.6-11,1.6-11S1.9,43.4,1.9,40.1S-0.5,28.7,3,26.2s11.4-4.2,14.6-1.8S38.1,43.2,38.1,43.2z"/>
		<path class="st2" d="M77.7,29.6c0,0-6.9-9.1-4.7-22.5"/>
		<path class="st2" d="M20.7,27c0,0-11.4-1.1-13.6,1.1s0.6,12.3,0.6,12.3l1,4.4"/>
		<path class="st2" d="M129.7,61.4c0,0-32.2,6.9-50.1,4.6"/>
		<path class="st2" d="M137.3,75.4c0,0-1-10.8-1.9-12.4"/>
		<path class="st2" d="M169.4,34.6c1.1,2.4,0.4,5.2-0.8,7.6c-0.2,0.5-0.5,0.9-0.9,1.1c-0.3,0.2-0.7,0.2-1.1,0.2c-1.2,0-2.3,0-3.5,0
			c-0.6,0-1.4-0.1-1.5-0.7c-0.1-0.3,0.1-0.6,0.2-0.8c0.2-0.5,0.5-1,0.7-1.6c0.4-1.3,0.1-2.7-0.5-3.9c-0.6-1.2-1.4-2.3-2.2-3.4"/>
		<path class="st2" d="M156.4,48.9c-2.1,0.8-4.3,1.3-6.5,1.4"/>
		<path class="st2" d="M142.4,51.5c-2.6,0.5-5.3,0.6-7.9,0.3c0,0.2,0.1,0.4,0.2,0.5"/>
		<path class="st2" d="M126.8,52.1c-2.1,0.6-4.3,0.8-6.5,0.6"/>
		<path class="st2" d="M114.9,52.8c-1.9,0.2-3.8,0.7-5.7,1.2"/>
		<path class="st2" d="M102.3,54.8c-1.8,0.7-3.7,1.3-5.5,2"/>
		<path class="st2" d="M89.2,56.3c-1.8,0.5-3.6,0.8-5.4,1"/>
		<path class="st2" d="M74,57.4c-1.8,0-3.7,0.2-5.4,0.7"/>
		<path class="st2" d="M169.7,37.8c-2.6-0.5-5.1-0.8-7.7-1.1"/>
	</g>
</g>
</svg>
