<?xml version="1.0" encoding="utf-8"?>
<!-- Generator: Adobe Illustrator 21.0.2, SVG Export Plug-In . SVG Version: 6.00 Build 0)  -->
<svg version="1.1" xmlns="http://www.w3.org/2000/svg" xmlns:xlink="http://www.w3.org/1999/xlink" x="0px" y="0px"
	 viewBox="0 0 266.1 144.5" style="enable-background:new 0 0 266.1 144.5;" xml:space="preserve">
<style type="text/css">
	.st0{fill:#FFFFFF;stroke:#0D0E0F;stroke-width:2;stroke-linecap:round;stroke-linejoin:round;stroke-miterlimit:10;}
	.st1{fill:none;stroke:#0D0E0F;stroke-width:2;stroke-linecap:round;stroke-linejoin:round;stroke-miterlimit:10;}
	.st2{fill:#F4C944;stroke:#0D0E0F;stroke-width:2;stroke-linecap:round;stroke-linejoin:round;stroke-miterlimit:10;}
	.st3{fill:#FFFFFF;stroke:#0D0E0F;stroke-miterlimit:10;}
	.st4{fill:none;stroke:#0D0E0F;stroke-miterlimit:10;}
</style>
<g id="Слой_1">
</g>
<g id="Слой_2">
</g>
<g id="Слой_3">
	<g>
		<path class="st0" d="M31.6,105.3c0,0-30.5,2.8-30.5-22.3c0-19.6,27.8-18.7,27.8-18.7s2.7-26.4,32.8-23.2c0,0,12.3-48.1,64.7-24.5
			c0,0,20.3-28.6,70.8-8c15.9,6.5,19,31.8,19,31.8s18.8-5.8,24.3,13.8c0,0,21.5-3.2,24.6,25.3c0,0,0.3,7.9-10.1,18.4
			c0,0,5,23.6-18.1,30.7c-17.1,5.3-26-4.1-26-4.1s-35.5,41.7-73.1,1c0,0-39.5,25.3-62.5-12.1C75.1,113.4,47.3,128.4,31.6,105.3z"/>
		<path class="st1" d="M75.1,113.4"/>
		<path class="st1" d="M75.1,113.4c0,0,11.1-10.8,13-15.2"/>
		<path class="st1" d="M28.8,64.3c0,0,7,3.7,8.9,5.4"/>
		<path class="st1" d="M61.6,41.1c0,0,14.9,0.3,18.8,8.1"/>
		<path class="st1" d="M126.3,16.6c0,0,8.1,3.9,8.6,5.8"/>
		<path class="st1" d="M216,40.3c0,0,3.2,22.3-9.9,31.9"/>
		<path class="st1" d="M254.8,97.9c0,0-14.6,5.2-21.3,0.6"/>
	</g>
	<g>
		<path class="st2" d="M117.8,40.3c-0.7,12.1-0.5,24.1,0.8,36.1c0.5,4.6,0.9,9.1,1.3,13.7c0.1,1.5-0.4,5.1,0.6,6.2
			c3.3-3.2,8.3-4.5,12.6-6.4c6-2.6,12-5,18-7.5c4.5-1.9,8.9-4.3,13.3-6.4c2.9-1.5,4.7-4.3,7.7-5.8c-0.4-1.1-3.5-2.3-4.7-3
			c-1.8-1.1-3.8-1.9-5.7-2.9c-4.1-2.1-8.3-3.9-12.4-6c-4.3-2.3-9.4-3.8-13.5-6.4c-3.2-2-6.2-4.2-9.3-6.3c-1.5-1-2.9-2.1-4.2-3.2
			c-1.1-0.9-2.3-2.4-3.6-2.9"/>
		<path class="st1" d="M124.8,47.4c-2.4,2.9-4.4,6.2-6.4,9.3"/>
		<path class="st1" d="M132.7,54.5c-4.4,7.3-10.6,11.8-12.2,20.5"/>
		<path class="st1" d="M143.3,62.6c-4.4,7.3-10.6,11.8-12.2,20.5"/>
		<path class="st1" d="M139.2,59.2c-5,5.7-13.5,24.9-17.7,31.1"/>
		<path class="st1" d="M150.4,60.7c-6.2,8.6-13.4,14-16.5,24.3"/>
		<path class="st1" d="M156.6,66.7c-3.1,2.7-5.4,7.8-7.1,11.4"/>
		<path class="st1" d="M127.5,52.5c-3.1,2.7-5.4,7.8-7.1,11.4"/>
	</g>
</g>
<g id="Слой_6">
</g>
<g id="Слой_5">
</g>
<g id="Слой_7">
</g>
<g id="Слой_4">
	<path class="st3" d="M2185.3-209.6l40.1,0.9c0,0,5.8-2,6.5-5.4s2-16.1-5.1-19.4c0,0-15.5-1.1-20.6-2.3s-13.1-1.5-17,0
		s-8.8,4-9.8,10.1S2178.8-216.1,2185.3-209.6z"/>
	<path class="st4" d="M2179.4-225.6c0,0,0.4,11.1,8.6,12.4s11.1-1.6,12.1-4.8s0.5-8.6-4.3-10.1s-9.1,1.7-9.5,5.4
		c-0.5,4.2,8.3,9.4,8.9,2c0,0-1.5-2.5-3.6-2"/>
	<path class="st4" d="M2199.8-209.3c0.3-0.6,8.9-6.8,7.9-15.1s-4.8-11.1-8.8-12.4"/>
	<path class="st4" d="M2213.4-208.8c-0.1-0.3,6.4-9.4,0-26"/>
	<path class="st4" d="M2218.3-208.8c-0.1-0.3,6.4-9.4,0-26"/>
</g>
</svg>
