<svg xmlns="http://www.w3.org/2000/svg" viewBox="0 0 846 80.56"><defs><style>.cls-1{fill:none;}.cls-1,.cls-2{stroke:#000105;stroke-miterlimit:10;}.cls-2,.cls-4{fill:#fff;}.cls-3{fill:#000105;}</style></defs><title>previousadventures_ua</title><g id="Слой_2" data-name="Слой 2"><g id="Слой_5" data-name="Слой 5"><path class="cls-1" d="M230.26,2c-2.32,1.87-7.39,5.74-7.53,6s-.51,58.07-.15,58.62c.55.85,14.89,1,16.19.51s4.15-3.37,5.41-5"/><path class="cls-1" d="M243.55,17.25c2.7.13,11.73.65,13.13,1.53s2,2.93,2,4.57a12.46,12.46,0,0,1-1,4.41"/><path class="cls-1" d="M743.62,1.2c-2.32,1.87-7.39,5.74-7.53,6s-.51,58.07-.15,58.62c.55.85,14.89,1,16.19.51s4.15-3.37,5.41-5"/><path class="cls-1" d="M756.91,16.41c2.7.13,11.73.65,13.13,1.53s2,2.93,2,4.57a12.46,12.46,0,0,1-1,4.41"/><path class="cls-1" d="M230.22,5.11Q226.37,9,222.43,12.7"/><path class="cls-1" d="M222.68,18.83,230.62,12"/><path class="cls-1" d="M222.42,24.51c2.5-2.06,4.83-3.85,7.46-5.75"/><path class="cls-1" d="M222.62,31.39q3.66-3.11,7.53-6"/><path class="cls-1" d="M222.45,37.86,229.92,32"/><path class="cls-1" d="M222.41,45.32l7.45-5.82"/><path class="cls-1" d="M222.5,52a62.72,62.72,0,0,0,7.4-6.1"/><path class="cls-1" d="M222.45,58.82c2.7-2,4.75-3.63,7.27-5.85"/><path class="cls-1" d="M222.53,65.05l7.33-5.81"/><path class="cls-1" d="M228.77,67.17q3.33-2.52,6.46-5.3"/><path class="cls-1" d="M236.11,67.38a51.12,51.12,0,0,1,5.66-5.21"/><path class="cls-1" d="M243.65,16.17a20.56,20.56,0,0,1,3.72-3.29"/><path class="cls-1" d="M247.88,17.51a37.65,37.65,0,0,1,5-4.5"/><path class="cls-1" d="M253.85,18.1l4.63-4.23"/><path class="cls-1" d="M258.12,20.63A44.5,44.5,0,0,1,261.76,17l-.25.33"/><path class="cls-1" d="M258.48,24.32a37.82,37.82,0,0,1,4.29-3.64"/><path class="cls-1" d="M743.58,4.27q-3.85,3.84-7.79,7.59"/><path class="cls-1" d="M736,18,744,11.18"/><path class="cls-1" d="M735.78,23.67c2.5-2.06,4.83-3.85,7.46-5.75"/><path class="cls-1" d="M736,30.55q3.66-3.11,7.53-6"/><path class="cls-1" d="M735.81,37l7.48-5.91"/><path class="cls-1" d="M735.78,44.48l7.45-5.82"/><path class="cls-1" d="M735.87,51.18a62.72,62.72,0,0,0,7.4-6.1"/><path class="cls-1" d="M735.81,58c2.7-2,4.75-3.63,7.27-5.85"/><path class="cls-1" d="M735.89,64.21l7.33-5.81"/><path class="cls-1" d="M742.14,66.33q3.33-2.52,6.46-5.3"/><path class="cls-1" d="M749.47,66.54a51.12,51.12,0,0,1,5.66-5.21"/><path class="cls-1" d="M757,15.33A20.56,20.56,0,0,1,760.73,12"/><path class="cls-1" d="M761.24,16.67a37.65,37.65,0,0,1,5-4.5"/><path class="cls-1" d="M767.21,17.27,771.84,13"/><path class="cls-1" d="M771.48,19.79a44.5,44.5,0,0,1,3.64-3.67l-.25.33"/><path class="cls-1" d="M771.84,23.48a37.82,37.82,0,0,1,4.29-3.64"/><path class="cls-2" d="M275.94,14.2C274.6,9,269.56,5.65,264.64,3.56,257.81.66,231,1.35,230.26,2s-.56,56.35-.08,59.75c4,.68,13.93.15,14.17,0s-.28-15.15-.31-22c4.36-.65,8.08-.31,12-.31,7.31,0,15.2-3.21,18.46-9.75A25.41,25.41,0,0,0,275.94,14.2Zm-13.67,8.55c-.34.94-.88,2.74-1.71,3.31-3,2.09-6,2.37-9.63,2.5-2.5.09-4.59-.25-7.08,0,0-1.95-.74-16,.1-15.9.64,0,10.56.38,12.51.73A6.39,6.39,0,0,1,261,15.85a6.4,6.4,0,0,1,1.58,4.67A9.09,9.09,0,0,1,262.27,22.74Z"/><path class="cls-2" d="M789.3,13.36C788,8.18,782.92,4.81,778,2.72,771.17-.18,744.32.51,743.62,1.2s-.56,56.35-.08,59.75c4,.68,13.93.15,14.17,0s-.28-15.15-.31-22c4.36-.65,8.08-.31,12-.31,7.31,0,15.2-3.21,18.46-9.75A25.41,25.41,0,0,0,789.3,13.36Zm-13.67,8.55c-.34.94-.88,2.74-1.71,3.31-3,2.09-6,2.37-9.63,2.5-2.5.09-4.59-.25-7.08,0,0-1.95-.74-16,.1-15.9.64,0,10.56.38,12.51.73A6.39,6.39,0,0,1,774.34,15a6.4,6.4,0,0,1,1.58,4.67A9.09,9.09,0,0,1,775.63,21.91Z"/><path class="cls-2" d="M797.07,61.33c.33.23,13.18.47,13.38.08s-.29-3.27.11-4.42,20.66-30,21.06-33.51c-1.09,11.56,1.28,24.65-.41,36.23a1.22,1.22,0,0,0,1.14,1.41c3.33.17,9.15,1,12.78.51C845.24,43,846,3.26,845,1.7c-.37-.57-13-1-13.56.13s0,3.39-.16,5.17c-.15,1.22-14.62,23-20.16,31.74a.35.35,0,0,1-.64-.22c.85-11.38,1-36.07.4-36.69-.83-.9-12.51-.6-13.2,0C796.51,3,796.61,61,797.07,61.33Z"/><path class="cls-1" d="M179,2.67c-1.67,1.73-5.72,5.94-5.92,6.41s-1,57.05-.83,57.4,43.84.8,44.42.51a12,12,0,0,0,5-5.29"/><path class="cls-1" d="M221.39,13.29A36,36,0,0,1,215.48,19c-.84.45-16.89-1-23.83-.3"/><path class="cls-1" d="M215.48,36.57c-2.07,2.18-6.7,7.06-7,7.19s-10.52.15-16.33-.1c.15,0-.39.87-.24.9"/><path class="cls-1" d="M178.46,7.7Q175.67,11,173,14.33"/><path class="cls-1" d="M178.31,14.41a64,64,0,0,0-5.49,6.51"/><path class="cls-1" d="M178.33,21.38l-5.68,6.82"/><path class="cls-1" d="M178.49,28l-5.87,6.66"/><path class="cls-1" d="M178.4,34.51a55.13,55.13,0,0,0-6.06,6.89"/><path class="cls-1" d="M178.28,42.07l-3.65,3.73a15.14,15.14,0,0,0-2.19,2.6"/><path class="cls-1" d="M178.37,48a84.63,84.63,0,0,0-6,6"/><path class="cls-1" d="M178.23,53.66l-1.37,1.14a32,32,0,0,0-4.61,4.38"/><path class="cls-1" d="M178.34,59.74a4.54,4.54,0,0,1-.87.89c-1.95,1.66-3.29,2.85-5.24,4.51"/><path class="cls-1" d="M183.13,61.67a39.6,39.6,0,0,0-4.51,4.95"/><path class="cls-1" d="M191.3,61.4a63.8,63.8,0,0,0-5.41,5.43"/><path class="cls-1" d="M196.77,61.69a58.62,58.62,0,0,0-5.07,5.14"/><path class="cls-1" d="M217.64,61.5A42.75,42.75,0,0,0,213.31,67"/><path class="cls-1" d="M211.74,61.85c-1.68,1.28-2.91,3.53-4.3,5.12"/><path class="cls-1" d="M205.5,61.85A19.61,19.61,0,0,0,202,67"/><path class="cls-1" d="M200,61.76a27.3,27.3,0,0,0-3.47,5.19"/><path class="cls-1" d="M197,36.78q-2,3.2-3.67,6.57"/><path class="cls-1" d="M197,43.59q2.24-3.43,4.26-7"/><path class="cls-1" d="M203.12,43.67c-.1-.05,0-.2,0-.3l4.32-6.53"/><path class="cls-1" d="M211.74,19.16l4.2-6-.39.12"/><path class="cls-1" d="M207.38,18.68a15.15,15.15,0,0,0,1.25-1.37A40.73,40.73,0,0,1,212,13"/><path class="cls-1" d="M202.75,18.75l4.55-6.08"/><path class="cls-1" d="M198.83,18.39l3.3-5.63"/><path class="cls-1" d="M193.53,18.31l1.74-3,1.33-2.27.23-.37"/><path class="cls-2" d="M178.45,61.19c-.07.52,43.05.74,43.26.52s.24-11.49,0-11.75-28,.25-28.63-.08c-1-.53-.48-12.74-.07-13.17s22.1.43,22.42,0,.8-10.86.08-11.17-21.85.3-22.26,0-.48-12-.08-12.39,19,0,28.25.17c-.06-3.23.54-11.14.17-11.65,0,0-42.19-.23-42.75.9C177.63,4.92,178.59,60,178.45,61.19Z"/><path class="cls-1" d="M283.85,2.83c-1.67,1.73-5.72,5.94-5.92,6.41s-1,57.05-.83,57.4,43.84.8,44.42.51a12,12,0,0,0,5-5.29"/><path class="cls-1" d="M326.23,13.44a36,36,0,0,1-5.91,5.75c-.84.45-16.89-1-23.83-.3"/><path class="cls-1" d="M320.32,36.72c-2.07,2.18-6.7,7.06-7,7.19s-10.52.15-16.33-.1c.15,0-.39.87-.24.9"/><path class="cls-1" d="M283.3,7.85q-2.79,3.27-5.48,6.63"/><path class="cls-1" d="M283.15,14.57a64,64,0,0,0-5.49,6.51"/><path class="cls-1" d="M283.17,21.54l-5.68,6.82"/><path class="cls-1" d="M283.33,28.18l-5.87,6.66"/><path class="cls-1" d="M283.24,34.66a55.13,55.13,0,0,0-6.06,6.89"/><path class="cls-1" d="M283.12,42.23,279.47,46a15.14,15.14,0,0,0-2.19,2.6"/><path class="cls-1" d="M283.21,48.2a84.63,84.63,0,0,0-6,6"/><path class="cls-1" d="M283.08,53.82,281.71,55a32,32,0,0,0-4.61,4.38"/><path class="cls-1" d="M283.18,59.9a4.54,4.54,0,0,1-.87.89c-1.95,1.66-3.29,2.85-5.24,4.51"/><path class="cls-1" d="M288,61.83a39.6,39.6,0,0,0-4.51,4.95"/><path class="cls-1" d="M296.14,61.55A63.8,63.8,0,0,0,290.73,67"/><path class="cls-1" d="M301.62,61.85A58.62,58.62,0,0,0,296.55,67"/><path class="cls-1" d="M322.48,61.65a42.75,42.75,0,0,0-4.33,5.48"/><path class="cls-1" d="M316.58,62c-1.68,1.28-2.91,3.53-4.3,5.12"/><path class="cls-1" d="M310.34,62a19.61,19.61,0,0,0-3.46,5.16"/><path class="cls-1" d="M304.8,61.91a27.3,27.3,0,0,0-3.47,5.19"/><path class="cls-1" d="M301.89,36.94q-2,3.2-3.67,6.57"/><path class="cls-1" d="M301.87,43.74q2.24-3.43,4.26-7"/><path class="cls-1" d="M308,43.82c-.1-.05,0-.2,0-.3L312.3,37"/><path class="cls-1" d="M316.58,19.32l4.2-6-.39.12"/><path class="cls-1" d="M312.22,18.83a15.15,15.15,0,0,0,1.25-1.37,40.73,40.73,0,0,1,3.37-4.32"/><path class="cls-1" d="M307.59,18.9l4.55-6.08"/><path class="cls-1" d="M303.67,18.54l3.3-5.63"/><path class="cls-1" d="M298.37,18.46l1.74-3,1.33-2.27.23-.37"/><path class="cls-2" d="M283.29,61.34c-.07.52,43.05.74,43.26.52s.24-11.49,0-11.75-28,.25-28.63-.08c-1-.53-.48-12.74-.07-13.17s22.1.43,22.42,0,.8-10.86.08-11.17-21.85.3-22.26,0-.48-12-.08-12.39,19,0,28.25.17c-.06-3.23.54-11.14.17-11.65,0,0-42.19-.23-42.75.9C282.47,5.07,283.43,60.2,283.29,61.34Z"/><path class="cls-3" d="M80.33,17.39c3.87-3.11,7.91-.25,8.61,4.06a49.28,49.28,0,0,1,.24,10.1c-.32,6.75-1.36,13.47-1.37,20.23l1-.13a1.65,1.65,0,0,0-.47-.8c-.45-.47-1.15.24-.71.71l.21.36a.5.5,0,0,0,1-.13c0-9.6,2.1-19.14,1.3-28.76-.22-2.61-.74-5.19-2.94-6.85-2.49-1.88-5.24-1.35-7.55.51-.5.4.21,1.11.71.71Z"/><path class="cls-3" d="M73.88,4.28A24.58,24.58,0,0,0,67.36,8.7a29.8,29.8,0,0,0-6.43,7.15c-4.11,6.64-5.78,14.75-5.76,22.49,0,13.4,8.8,27,22.58,29.62,8.6,1.64,15.85-2.51,22.08-8.07.48-.43-.23-1.13-.71-.71-5.56,5-12,9-19.79,8a25.78,25.78,0,0,1-16-9c-9.14-10.54-9.06-26.7-3.2-38.86a27.6,27.6,0,0,1,6.51-8.74c2.2-2,4.69-4.29,7.48-5.36.59-.23.34-1.2-.27-1Z"/><path class="cls-1" d="M66.66,12.38l-5,3.27"/><path class="cls-1" d="M64.2,18.19c0,.08.14-.06.07-.1s-.16,0-.22.05L59.1,21.8a3.54,3.54,0,0,0-1,.92"/><path class="cls-1" d="M62.28,25,56.4,29.71"/><path class="cls-1" d="M61.73,31.06l-6.06,5.46"/><path class="cls-1" d="M62.1,37.79c-2.18,2-4,3.76-6,5.85"/><path class="cls-1" d="M63.15,44.84l-5.44,5"/><path class="cls-1" d="M65.65,49.72,60.43,55"/><path class="cls-1" d="M70,55.35l-5.09,4.91"/><path class="cls-1" d="M75.08,59.28Q72.51,61.8,70,64.36c-.12.12-.36,0-.29-.2a.19.19,0,0,1,.34.08"/><path class="cls-1" d="M80.2,61.77c-1.56,1.52-3.39,3.49-5,5"/><path class="cls-1" d="M86.62,62.89a40.92,40.92,0,0,0-4.19,5"/><path class="cls-1" d="M92.25,62.39a18.79,18.79,0,0,0-2.86,3.79"/><path class="cls-1" d="M88.94,12.84a1.69,1.69,0,0,0-1,.61l-2.4,2.38"/><path class="cls-1" d="M93.74,14.68Q91.38,17,89.21,19.52"/><path class="cls-1" d="M96.24,18.05a81.54,81.54,0,0,0-6.69,6.82"/><path class="cls-1" d="M97.72,23.55a33.43,33.43,0,0,1-3.78,4.19c-1.43,1.28-3.09,2.37-4.08,4l.08-.5"/><path class="cls-1" d="M98.45,30.51q-5.06,5.34-9.7,11.06"/><path class="cls-1" d="M98,37.53a114.87,114.87,0,0,1-9.31,9.56"/><path class="cls-1" d="M96.15,45.06a66.77,66.77,0,0,0-6.84,6.45"/><path class="cls-4" d="M112.64,32c-.42-20.15-10.5-30.3-25-30.88C53.56,0,51.95,61.74,86.84,62.87,103.05,63.4,113,48.76,112.64,32ZM87.52,51.5c-17.4,1.1-13.21-40-.68-38.87,10.14-.83,11,12.68,11.14,14C98.73,36.29,98.08,50.83,87.52,51.5Z"/><path class="cls-3" d="M113.14,32c-.21-7.7-1.7-15.76-6.47-22A24,24,0,0,0,90.6.88,24.48,24.48,0,0,0,65.38,13.55c-9.48,17-4.13,46.07,18,49.5a24,24,0,0,0,21.31-6.91c6.11-6.41,8.55-15.46,8.45-24.14a.5.5,0,0,0-1,0c.18,15.12-8.88,31.19-25.79,30.35-10.26-.5-18.32-7.16-22-16.56C57.86,29.08,64.29,2.63,85.51,1.64c6.85-.32,13.85,1.94,18.66,6.94,6,6.2,7.75,15.11,8,23.42A.5.5,0,0,0,113.14,32Z"/><path class="cls-3" d="M87.52,51c-13.47.61-12-20.92-9.24-29.07,1.76-5.22,5-9.94,11.16-8.68s7.71,8.65,8.09,13.92c.56,7.92.77,22.88-10,23.83-.64.06-.64,1.06,0,1,9.91-.88,11.25-12.61,11.18-20.52-.05-5.93-.47-13.83-5.69-17.7a9.89,9.89,0,0,0-9-1.22c-2.37,1-4,3.21-5.18,5.4-3.22,6.14-4.06,13.89-3.12,20.69C76.63,45.1,80,52.34,87.52,52,88.16,52,88.16,51,87.52,51Z"/><path class="cls-1" d="M449.32,2.15C447.16,4.07,443.58,7,443.08,9s-.84,54.95.3,57.84c.17.44,10.07,1.25,13.23.81,1.77-.25,5.24-3.27,6.69-6.25"/><path class="cls-1" d="M442.66,15.15"/><path class="cls-1" d="M442.93,14.67a39.1,39.1,0,0,1,6.24-5.76"/><path class="cls-1" d="M442.46,21.69a58.08,58.08,0,0,1,6.79-6.46c.19-.15.51.15.37.35s-.53,0-.45-.23"/><path class="cls-1" d="M442.75,27.82q3.06-2.79,6.36-5.31"/><path class="cls-1" d="M442.84,35.33A70.88,70.88,0,0,1,449,29.51"/><path class="cls-1" d="M442.49,43.4a89,89,0,0,1,6.57-6.78s.1-.11.07-.16-.13,0-.07.05"/><path class="cls-1" d="M442.62,51a40.6,40.6,0,0,1,6.32-5.44l-.31.17"/><path class="cls-1" d="M443,57.31c2.07-2,3.76-3.57,5.93-5.48"/><path class="cls-1" d="M443,63.75q2.93-3.07,6-6"/><path class="cls-1" d="M446.5,67.25c1.87-1.67,3.87-4,5.95-5.4"/><path class="cls-1" d="M452.87,67.6A63.91,63.91,0,0,0,458.7,62"/><path class="cls-4" d="M449.32,2.15c0,15.2-.88,59.22.13,59.34,1.25.16,13.59,1,13.86-.13.45-1.93.43-59.39-.06-59.53S453,1.2,449.32,2.15"/><path class="cls-3" d="M448.82,2.15c0,13.76-.29,27.51-.35,41.27,0,5.26-.12,10.54.16,15.79,0,.65-.11,2.08.41,2.6.86.86,4.29.46,5.39.51,2.55.12,5.83.64,8.32-.13,1-.3,1-.66,1.11-1.57.33-3.58.17-7.27.2-10.87q.15-18.29,0-36.57c0-2.42-.05-4.84-.1-7.26a14.2,14.2,0,0,0-.15-3.84c-.42-1.22-1.84-.87-3-.92C457,1,452.91.81,449.19,1.67c-.63.15-.36,1.11.27,1a40.25,40.25,0,0,1,10-.51,15.63,15.63,0,0,1,3.36.16c-.07,0,0-.48,0,.24-.2,3.1.17,6.35.21,9.46.12,11.07.12,22.13.06,33.2,0,4.24,0,8.49-.14,12.74,0,.63.26,2.56-.11,3.1-.61.88-4.43.44-5.59.41-1.35,0-2.69-.09-4-.16a13.53,13.53,0,0,1-3.38-.23c-.56-.2.1.34,0,.09a1.65,1.65,0,0,1-.08-.52c0-.63-.09-1.26-.12-1.9-.21-4.82-.16-9.65-.14-14.47,0-14,.34-28.05.35-42.08a.5.5,0,0,0-1,0Z"/><path class="cls-2" d="M386.78,71.61c-.55-6.81.23-14.07-.32-20.89,0-.28-3.63,0-5.24,0a.61.61,0,0,1-.63-.41c-2.67-12.06-10.72-43.21-12.22-48a.82.82,0,0,0-.84-.52C362.47,2.1,347,1.39,346.8,2c-1.06,3.06-2.43,8.4-3.06,11.25-.91,4.07-6.69,28.83-9,37.7-1.78-.16-3.74-.27-5.6-.31a.64.64,0,0,0-.64.75c1.11,6.92-.13,13.85,0,22.17a.83.83,0,0,0,1,.81l7.7.14a.56.56,0,0,0,.58-.61c-.26-3,1.4-9,1.4-12,0-1.07,36.28-.15,36.56,0s1.2,7.81,1.71,12.17a.58.58,0,0,0,.63.51c2.33-.23,8.35.47,8.66,0A8.43,8.43,0,0,0,386.78,71.61ZM364.71,50.66c-6.21-.6-11.54.14-17.89.14,2.24-10.57,6.68-37.09,8.29-37.43.52-.11,2.39-.38,2.54.29.59,2.53,6.65,33.7,7.71,36A.66.66,0,0,1,364.71,50.66Z"/><path class="cls-1" d="M347.2,1.76A45.83,45.83,0,0,0,341,5.66c-.3.31-8.82,29.63-10.92,45"/><path class="cls-1" d="M337.51,74.4a34.57,34.57,0,0,1-3.46,4c-.26.13-10.75-.23-10.91-.44s.78-21.68,1.05-22.25c.72-1.52,3-3.68,4.26-4.68"/><path class="cls-1" d="M338.28,66.72c2.88-1.38,29.92-.46,31.15.59C371,68.7,371.17,77,371.3,78.85c0,.54,12,1.24,12.75.56,1.35-3,1.33-2,2.68-5"/><path class="cls-1" d="M352.38,21.57a146.78,146.78,0,0,1,6.7,29.16"/><path class="cls-1" d="M339.47,10.88A43.27,43.27,0,0,1,344,8a2.13,2.13,0,0,1,.87-.31l-.12.18"/><path class="cls-1" d="M338.08,16.25a17.4,17.4,0,0,1,3.52-2.44l1.75-1s.09,0,.13,0,0,.09,0,0"/><path class="cls-1" d="M336.37,22a18.31,18.31,0,0,0,2-1.45,13.91,13.91,0,0,1,3.86-2"/><path class="cls-1" d="M335.07,26.84l5.16-3.18a1.25,1.25,0,0,1,1.06-.27"/><path class="cls-1" d="M333.89,32.31A22.33,22.33,0,0,1,340,29.2a.18.18,0,0,0,.11-.08s0-.11-.07-.09"/><path class="cls-1" d="M332.4,38.44q2.07-1.29,4.23-2.45a5,5,0,0,1,1.91-.7l-.31,0"/><path class="cls-1" d="M331.53,43.48l4.82-3.1.85-.54"/><path class="cls-1" d="M330.26,49.26l5.8-3.7"/><path class="cls-1" d="M353,19.8a51.31,51.31,0,0,1,5-4.13"/><path class="cls-1" d="M354,26.5a62.07,62.07,0,0,1,5.13-4.91l-.23.12"/><path class="cls-1" d="M355.59,32.14l5-5.09"/><path class="cls-1" d="M357.05,38.59a15.18,15.18,0,0,1,1.2-1.48L362,33.22"/><path class="cls-1" d="M357.91,43.48l5-4.77"/><path class="cls-1" d="M358.94,49.57a31.81,31.81,0,0,1,5.21-5.23l-.48.38"/><path class="cls-1" d="M323.83,60.39a15.17,15.17,0,0,1,5-4.13"/><path class="cls-1" d="M323.62,65.6a13.92,13.92,0,0,1,3.28-3.13,7.45,7.45,0,0,1,1.9-1l-.25.1"/><path class="cls-1" d="M323.19,70.61a19.6,19.6,0,0,1,5.4-4.31"/><path class="cls-1" d="M323.12,75.49a12.1,12.1,0,0,1,4.47-3.67,1.21,1.21,0,0,1,.71-.19"/><path class="cls-1" d="M326.57,78.23a22.1,22.1,0,0,0,4-3.89"/><path class="cls-1" d="M331.9,78.57a19.8,19.8,0,0,0,3.55-4"/><path class="cls-1" d="M339,66.6c0-.12.06-.23.14-.32l3.22-3.49c.52-.57.67-.75,1.22-1.3"/><path class="cls-1" d="M345.51,66a13,13,0,0,1,1.75-2.17c.77-.92,1-1.51,1.74-2.43"/><path class="cls-1" d="M350.85,66a36.89,36.89,0,0,0,4-4.53"/><path class="cls-1" d="M355.4,66.14a41.31,41.31,0,0,0,4.14-4.63"/><path class="cls-1" d="M360.3,66.23a39.14,39.14,0,0,0,4.36-4.76"/><path class="cls-1" d="M365.8,66.7c1.13-1.8,3.17-3.06,4.09-5"/><path class="cls-1" d="M369.52,67.81A34.82,34.82,0,0,0,375,62.1"/><path class="cls-1" d="M370.86,73.6q3.14-2.32,6-4.94"/><path class="cls-1" d="M371.3,78.85a49.69,49.69,0,0,0,5.8-5.57"/><path class="cls-1" d="M376.19,79.51a24.69,24.69,0,0,0,4.54-4.92"/><path class="cls-1" d="M381.39,79.52a12.65,12.65,0,0,1,1.91-2.41,6.5,6.5,0,0,0,1.6-2.59"/><path class="cls-2" d="M738.06,72c-.55-6.81.23-14.07-.32-20.89,0-.28-3.63,0-5.24,0a.61.61,0,0,1-.63-.41c-2.67-12.06-10.72-43.21-12.22-48a.82.82,0,0,0-.84-.52c-5.07.25-20.51-.47-20.74.18C697,5.47,695.65,10.8,695,13.66c-.91,4.07-6.69,28.83-9,37.7-1.78-.16-3.74-.27-5.6-.31a.64.64,0,0,0-.64.75c1.11,6.92-.13,13.85,0,22.17a.83.83,0,0,0,1,.81l7.7.14a.56.56,0,0,0,.58-.61c-.26-3,1.4-9,1.4-12,0-1.07,36.28-.15,36.56,0s1.2,7.81,1.71,12.17a.58.58,0,0,0,.63.51c2.33-.23,8.35.47,8.66,0A8.43,8.43,0,0,0,738.06,72ZM716,51c-6.21-.6-11.54.14-17.89.14,2.24-10.57,6.68-37.09,8.29-37.43.52-.11,2.39-.38,2.54.29.59,2.53,6.65,33.7,7.71,36A.66.66,0,0,1,716,51Z"/><path class="cls-1" d="M698.48,2.13A45.83,45.83,0,0,0,692.33,6c-.3.31-8.82,29.63-10.92,45"/><path class="cls-1" d="M688.78,74.77a34.57,34.57,0,0,1-3.46,4c-.26.13-10.75-.23-10.91-.44s.78-21.68,1.05-22.25c.72-1.52,3-3.68,4.26-4.68"/><path class="cls-1" d="M689.55,67.09c2.88-1.38,29.92-.46,31.15.59,1.62,1.38,1.75,9.71,1.88,11.53,0,.54,12,1.24,12.75.56,1.35-3,1.33-2,2.68-5"/><path class="cls-1" d="M703.66,21.94a146.78,146.78,0,0,1,6.7,29.16"/><path class="cls-1" d="M690.74,11.25a43.27,43.27,0,0,1,4.53-2.84,2.13,2.13,0,0,1,.87-.31l-.12.18"/><path class="cls-1" d="M689.36,16.62a17.4,17.4,0,0,1,3.52-2.44l1.75-1s.09,0,.13,0,0,.09,0,0"/><path class="cls-1" d="M687.64,22.42a18.31,18.31,0,0,0,2-1.45,13.91,13.91,0,0,1,3.86-2"/><path class="cls-1" d="M686.35,27.21,691.51,24a1.25,1.25,0,0,1,1.06-.27"/><path class="cls-1" d="M685.17,32.68a22.33,22.33,0,0,1,6.11-3.1.18.18,0,0,0,.11-.08s0-.11-.07-.09"/><path class="cls-1" d="M683.68,38.81q2.07-1.29,4.23-2.45a5,5,0,0,1,1.91-.7l-.31,0"/><path class="cls-1" d="M682.81,43.85l4.82-3.1.85-.54"/><path class="cls-1" d="M681.54,49.64l5.8-3.7"/><path class="cls-1" d="M704.27,20.18a51.31,51.31,0,0,1,5-4.13"/><path class="cls-1" d="M705.24,26.88A62.07,62.07,0,0,1,710.37,22l-.23.12"/><path class="cls-1" d="M706.87,32.51l5-5.09"/><path class="cls-1" d="M708.33,39a15.18,15.18,0,0,1,1.2-1.48l3.73-3.88"/><path class="cls-1" d="M709.19,43.85l5-4.77"/><path class="cls-1" d="M710.21,49.94a31.81,31.81,0,0,1,5.21-5.23l-.48.38"/><path class="cls-1" d="M675.11,60.76a15.17,15.17,0,0,1,5-4.13"/><path class="cls-1" d="M674.89,66a13.92,13.92,0,0,1,3.28-3.13,7.45,7.45,0,0,1,1.9-1l-.25.1"/><path class="cls-1" d="M674.46,71a19.6,19.6,0,0,1,5.4-4.31"/><path class="cls-1" d="M674.39,75.86a12.1,12.1,0,0,1,4.47-3.67,1.21,1.21,0,0,1,.71-.19"/><path class="cls-1" d="M677.84,78.61a22.1,22.1,0,0,0,4-3.89"/><path class="cls-1" d="M683.17,78.94a19.8,19.8,0,0,0,3.55-4"/><path class="cls-1" d="M690.26,67c0-.12.06-.23.14-.32l3.22-3.49c.52-.57.67-.75,1.22-1.3"/><path class="cls-1" d="M696.79,66.4a13,13,0,0,1,1.75-2.17c.77-.92,1-1.51,1.74-2.43"/><path class="cls-1" d="M702.12,66.39a36.89,36.89,0,0,0,4-4.53"/><path class="cls-1" d="M706.68,66.51a41.31,41.31,0,0,0,4.14-4.63"/><path class="cls-1" d="M711.58,66.6a39.14,39.14,0,0,0,4.36-4.76"/><path class="cls-1" d="M717.07,67.07c1.13-1.8,3.17-3.06,4.09-5"/><path class="cls-1" d="M720.8,68.19a34.82,34.82,0,0,0,5.53-5.72"/><path class="cls-1" d="M722.14,74q3.14-2.32,6-4.94"/><path class="cls-1" d="M722.58,79.22a49.69,49.69,0,0,0,5.8-5.57"/><path class="cls-1" d="M727.47,79.89A24.69,24.69,0,0,0,732,75"/><path class="cls-1" d="M732.66,79.89a12.65,12.65,0,0,1,1.91-2.41,6.5,6.5,0,0,0,1.6-2.59"/><path class="cls-3" d="M390.36,1.09c-2.75,3.13-5.91,5.89-6.23,10.33-.14,1.9,0,3.84,0,5.75.08,6.63.26,13.27.46,19.9.21,7,.45,14,.85,21,.12,2,.21,4.07.46,6.09.13,1,.1,1.51,1,1.9,1.31.54,3.32.47,4.72.62a43,43,0,0,0,6.66.3c3.67-.2,5.35-2.36,7-5.56.29-.57-.57-1.08-.86-.5a14.06,14.06,0,0,1-2.92,4.17c-1.25,1.06-3.22.93-4.78.92s-3.4-.15-5.09-.32a18.27,18.27,0,0,1-4.32-.56c-.41-.15-.19.28-.37-.52a14.56,14.56,0,0,1-.21-2c-.19-2.18-.31-4.36-.42-6.54-.64-12.33-1-24.69-1.18-37,0-2.09-.09-4.19-.05-6.29.09-4.86,3-7.54,6-11,.42-.48-.28-1.19-.71-.71Z"/><path class="cls-3" d="M424.16,1c-2,.74-5,2.05-6.22,3.82-.83,1.16-.76,3.15-.85,4.5-.36,5.34-.18,10.7-.17,16a.5.5,0,0,0,1,0c0-4.46-.11-8.92,0-13.38.06-1.79-.14-4.17.52-5.87.76-2,4.07-3.44,6-4.15.6-.22.34-1.19-.27-1Z"/><path class="cls-3" d="M403.9,41.29c.63,1.54,6.44.47,7.68.44s4.68-.56,5.15.8c.37,1.06-.12,3-.15,4.13q0,2.42,0,4.85c0,2.84.1,5.68.28,8.51.1,1.6,0,3.73.6,5.26.4,1,.93,1.11,2,1.26a41,41,0,0,0,6.9.16,37.58,37.58,0,0,0,6.1-.32c2.47-.51,3.84-2.83,5-4.85a.5.5,0,0,0-.86-.5c-.93,1.61-2,3.62-3.88,4.27a10.17,10.17,0,0,1-3,.23c-2.55.07-5.06.27-7.62.19-.82,0-3.08.21-3.64-.5-.39-.5-.34-1.81-.4-2.4-.33-3.05-.42-6.14-.48-9.21-.07-3.39-.06-6.78.09-10.17.08-1.62.21-2.21-1.44-2.56a25.8,25.8,0,0,0-6.11-.09c-1.12,0-2.23.1-3.35.12h-1.35c-.39,0-.73-.26-.57.14-.24-.59-1.21-.33-1,.27Z"/><path class="cls-1" d="M390.53,6.64q-3.09,3.21-6,6.62"/><path class="cls-1" d="M390.74,13.1c-2.15,2.07-4,4-6.11,6.16"/><path class="cls-1" d="M391,20.22A84.31,84.31,0,0,0,385,26.44"/><path class="cls-1" d="M390.84,26.44q-3,3.12-5.88,6.43l.34-.39"/><path class="cls-1" d="M390.81,33.51a70.79,70.79,0,0,1-5.65,6.27"/><path class="cls-1" d="M390.76,39.27l-5.38,6.41"/><path class="cls-1" d="M390.87,47.64a65.78,65.78,0,0,1-5.3,6.43"/><path class="cls-1" d="M390.74,55.76c-1.49,1.69-3.45,4-4.84,5.79"/><path class="cls-1" d="M391.57,60.15l-4.15,5.71"/><path class="cls-1" d="M396.42,61.68a38.46,38.46,0,0,0-3.87,4.64"/><path class="cls-1" d="M401.52,61.55a25.93,25.93,0,0,0-3.22,4.77"/><path class="cls-1" d="M423.25,6.13c-2.07,1.72-3.82,3.26-5.76,5.13"/><path class="cls-1" d="M423.57,11.2c-2,1.48-4.3,3.39-6.13,5.06"/><path class="cls-1" d="M423.79,17.59c-2,1.52-4.3,3.21-6.3,4.77"/><path class="cls-1" d="M423.79,22.17c-1,1.06-2.36,2.28-3.4,3.34,0,0-.06,0-.09,0s0-.07,0,0"/><path class="cls-1" d="M409.75,36.28a52,52,0,0,0-5.32,4.89.37.37,0,0,0,.18-.18"/><path class="cls-1" d="M415.59,36.38a9.63,9.63,0,0,0-1.87,1.16l-3.27,3a.34.34,0,0,0,.23-.27"/><path class="cls-1" d="M420.2,36.57a41.16,41.16,0,0,0-4.61,4.52"/><path class="cls-1" d="M423.36,38.74q-3.2,2.66-6.14,5.61"/><path class="cls-1" d="M423.29,44.42c-2.25,2-4.12,3.66-6.28,5.72"/><path class="cls-1" d="M423.17,51.3,417,56.63"/><path class="cls-1" d="M423.25,57.19q-2.93,2.76-5.62,5.76"/><path class="cls-1" d="M425.43,61.8l-3.13,3.25a1.78,1.78,0,0,0-.55.86"/><path class="cls-1" d="M430.32,62.07c-.83,1.28-2,2.95-3,4.15"/><path class="cls-4" d="M390.71,1.44c0,12.2.18,46.43.18,59.76,0,.5,7.13.67,13.74.2,1-.08-1-15.26,0-24.7,0,0,11.15-.78,18.72.06.15,4.35-.77,23.47,0,24.72.25.39,13.82.83,13.69-.12-.44-3.25.84-51.25-.19-59.92-.06-.52-6.48-.24-12.72,0a1,1,0,0,0-1,1.06c.21,4.45,1,21.83.16,22.26-1.86,1-16.93.74-18.58.08-1.25-.5.11-22.76-.17-23.37-.42-.94-12.66.15-13.92,0"/><path class="cls-3" d="M390.21,1.44c0,13.76.08,27.51.13,41.27q0,5.19,0,10.37,0,2.09,0,4.17c0,1-.4,3.07,0,3.95.62,1.36,3.68.94,4.89,1,2.36,0,4.73,0,7.09-.13.84,0,2.27.25,2.84-.53.86-1.17.17-4.31.11-5.61-.18-3.79-.41-7.57-.45-11.37,0-2,0-3.95.14-5.92,0-.37.08-1.71-.22-1.42.14-.13,1-.06,1.18-.07,3.39-.19,6.8-.28,10.2-.24a57.42,57.42,0,0,1,5.86.25c1.21.14.58-.32.88.42a6,6,0,0,1,0,1.77c0,2.9-.12,5.79-.19,8.69-.07,3.09-.15,6.18-.12,9.26,0,1-.35,3.55.37,4.42s2.89.58,3.84.63a72.51,72.51,0,0,0,8,0c1-.06,2.45.06,2.83-1a11,11,0,0,0-.09-2.85c-.09-10.87.21-21.74.28-32.61,0-5.63.07-11.26,0-16.89,0-1.93-.07-3.86-.2-5.78-.07-1.17.14-2.11-1.08-2.46-1.4-.41-3.3-.12-4.74-.09-2.38.05-5.3-.3-7.61.25-2,.49-1.35,3-1.28,4.57.24,5.76.67,11.63.33,17.39,0,.69,0,1.22-.46,1.55-.75.5-2.61.32-3.48.37-3,.15-6,.13-9,0-1.24,0-4.67.27-5.27-.77a6.94,6.94,0,0,1-.21-2.55c0-1.28,0-2.57,0-3.85,0-5,.42-10.1.4-15.15,0-1,.06-1.43-.92-1.79-2-.73-5-.13-7.05,0a54.64,54.64,0,0,1-6.48.26c-.64,0-.64,1,0,1,3.15.24,6.44-.31,9.6-.37a29.45,29.45,0,0,1,3.84,0c.28.31,0,2,0,2.37-.17,6.43-1,13.21-.21,19.62.23,1.81.88,1.88,2.64,2.06a86.6,86.6,0,0,0,11.2.25c1.42,0,5.16.36,6.13-1a5.21,5.21,0,0,0,.3-2.33c.08-1.83,0-3.67,0-5.5-.06-3.92-.21-7.85-.37-11.77a8.59,8.59,0,0,1-.09-2.08c.42-1.72,2.71-1.36,4.16-1.41s2.81-.09,4.22-.12c1.17,0,2.91-.32,4,.05.57.19.22-.27.33.53.06.41.06.83.09,1.24.08,1.31.12,2.62.15,3.94.08,3.3.1,6.61.1,9.91,0,14.11-.59,28.24-.3,42.34a7.57,7.57,0,0,1,0,1.05c-.08.65.15.25-.1.44-.92.68-3.69.26-4.82.27-2,0-4,0-6.06-.17-1.31-.09-1.87.25-1.89-1-.1-7.84.41-15.71.19-23.54a.51.51,0,0,0-.5-.5,109.47,109.47,0,0,0-18.72-.06.52.52,0,0,0-.5.5c-.72,6.91,0,13.86.22,20.77a8.7,8.7,0,0,1,0,2.91c-.31.76-.66.57-1.6.62q-2,.11-4,.15c-1.83,0-3.66,0-5.48-.06s-2,.12-2-1.55c0-13-.08-26.06-.13-39.08q0-9.52,0-19a.5.5,0,0,0-1,0Z"/><path class="cls-3" d="M629.38,2.14c-2.75,3.13-5.91,5.89-6.23,10.33-.14,1.9,0,3.84,0,5.75.08,6.63.26,13.27.46,19.9.21,7,.45,14,.85,21,.12,2,.21,4.07.46,6.09.13,1,.1,1.51,1,1.9,1.31.54,3.32.47,4.72.62a43,43,0,0,0,6.66.3c3.67-.2,5.35-2.36,7-5.56.29-.57-.57-1.08-.86-.5a14.06,14.06,0,0,1-2.92,4.17c-1.25,1.06-3.22.93-4.78.92s-3.4-.15-5.09-.32a18.27,18.27,0,0,1-4.32-.56c-.41-.15-.19.28-.37-.52a14.56,14.56,0,0,1-.21-2c-.19-2.18-.31-4.36-.42-6.54-.64-12.33-1-24.69-1.18-37,0-2.09-.09-4.19-.05-6.29.09-4.86,3-7.54,6-11,.42-.48-.28-1.19-.71-.71Z"/><path class="cls-3" d="M663.18,2.05c-2,.74-5,2.05-6.22,3.82-.83,1.16-.76,3.15-.85,4.5-.36,5.34-.18,10.7-.17,16a.5.5,0,0,0,1,0c0-4.46-.11-8.92,0-13.38.06-1.79-.14-4.17.52-5.87.76-2,4.07-3.44,6-4.15.6-.22.34-1.19-.27-1Z"/><path class="cls-3" d="M642.92,42.34c.63,1.54,6.44.47,7.68.44s4.68-.56,5.15.8c.37,1.06-.12,3-.15,4.13q0,2.42,0,4.85c0,2.84.1,5.68.28,8.51.1,1.6,0,3.73.6,5.26.4,1,.93,1.11,2,1.26a41,41,0,0,0,6.9.16,37.58,37.58,0,0,0,6.1-.32c2.47-.51,3.84-2.83,5-4.85a.5.5,0,0,0-.86-.5c-.93,1.61-2,3.62-3.88,4.27a10.17,10.17,0,0,1-3,.23c-2.55.07-5.06.27-7.62.19-.82,0-3.08.21-3.64-.5-.39-.5-.34-1.81-.4-2.4-.33-3.05-.42-6.14-.48-9.21-.07-3.39-.06-6.78.09-10.17.08-1.62.21-2.21-1.44-2.56a25.8,25.8,0,0,0-6.11-.09c-1.12,0-2.23.1-3.35.12h-1.35c-.39,0-.73-.26-.57.14-.24-.59-1.21-.33-1,.27Z"/><path class="cls-1" d="M629.55,7.69q-3.09,3.21-6,6.62"/><path class="cls-1" d="M629.77,14.15c-2.15,2.07-4,4-6.11,6.16"/><path class="cls-1" d="M630.06,21.27A84.31,84.31,0,0,0,624,27.49"/><path class="cls-1" d="M629.86,27.49q-3,3.12-5.88,6.43l.34-.39"/><path class="cls-1" d="M629.83,34.57a70.79,70.79,0,0,1-5.65,6.27"/><path class="cls-1" d="M629.78,40.33l-5.38,6.41"/><path class="cls-1" d="M629.89,48.69a65.78,65.78,0,0,1-5.3,6.43"/><path class="cls-1" d="M629.76,56.81c-1.49,1.69-3.45,4-4.84,5.79"/><path class="cls-1" d="M630.59,61.2l-4.15,5.71"/><path class="cls-1" d="M635.45,62.73a38.46,38.46,0,0,0-3.87,4.64"/><path class="cls-1" d="M640.55,62.6a25.93,25.93,0,0,0-3.22,4.77"/><path class="cls-1" d="M662.27,7.18c-2.07,1.72-3.82,3.26-5.76,5.13"/><path class="cls-1" d="M662.59,12.25c-2,1.48-4.3,3.39-6.13,5.06"/><path class="cls-1" d="M662.81,18.64c-2,1.52-4.3,3.21-6.3,4.77"/><path class="cls-1" d="M662.81,23.22c-1,1.06-2.36,2.28-3.4,3.34,0,0-.06,0-.09,0s0-.07,0,0"/><path class="cls-1" d="M648.77,37.33a52,52,0,0,0-5.32,4.89.37.37,0,0,0,.18-.18"/><path class="cls-1" d="M654.62,37.43a9.63,9.63,0,0,0-1.87,1.16l-3.27,3a.34.34,0,0,0,.23-.27"/><path class="cls-1" d="M659.22,37.62a41.16,41.16,0,0,0-4.61,4.52"/><path class="cls-1" d="M662.39,39.79q-3.2,2.66-6.14,5.61"/><path class="cls-1" d="M662.31,45.48c-2.25,2-4.12,3.66-6.28,5.72"/><path class="cls-1" d="M662.19,52.35,656,57.69"/><path class="cls-1" d="M662.27,58.24Q659.34,61,656.65,64"/><path class="cls-1" d="M664.45,62.85l-3.13,3.25a1.78,1.78,0,0,0-.55.86"/><path class="cls-1" d="M669.35,63.12c-.83,1.28-2,2.95-3,4.15"/><path class="cls-4" d="M629.73,2.49c0,12.2.18,46.43.18,59.76,0,.5,7.13.67,13.74.2,1-.08-1-15.26,0-24.7,0,0,11.15-.78,18.72.06.15,4.35-.77,23.47,0,24.72.25.39,13.82.83,13.69-.12-.44-3.25.84-51.25-.19-59.92-.06-.52-6.48-.24-12.72,0a1,1,0,0,0-1,1.06c.21,4.45,1,21.83.16,22.26-1.86,1-16.93.74-18.58.08-1.25-.5.11-22.76-.17-23.38-.42-.94-12.66.15-13.92,0"/><path class="cls-3" d="M629.23,2.49c0,13.76.08,27.51.13,41.27q0,5.19,0,10.37,0,2.09,0,4.17c0,1-.4,3.07,0,3.95.62,1.36,3.68.94,4.89,1,2.36,0,4.73,0,7.09-.13.84,0,2.27.25,2.84-.53.86-1.17.17-4.31.11-5.61-.18-3.79-.41-7.57-.45-11.37,0-2,0-3.95.14-5.92,0-.37.08-1.71-.22-1.42.14-.13,1-.06,1.18-.07,3.39-.19,6.8-.28,10.2-.24a57.42,57.42,0,0,1,5.86.25c1.21.14.58-.32.88.42a6,6,0,0,1,0,1.77c0,2.9-.12,5.79-.19,8.69-.07,3.09-.15,6.18-.12,9.26,0,1-.35,3.55.37,4.42s2.89.58,3.84.63a72.51,72.51,0,0,0,8,0c1-.06,2.45.06,2.83-1a11,11,0,0,0-.09-2.85c-.09-10.87.21-21.74.28-32.61,0-5.63.07-11.26,0-16.89,0-1.93-.07-3.86-.2-5.78-.07-1.17.14-2.11-1.08-2.46-1.4-.41-3.3-.12-4.74-.09-2.38.05-5.3-.3-7.61.25-2,.49-1.35,3-1.28,4.57.24,5.76.67,11.63.33,17.39,0,.69,0,1.22-.46,1.55-.75.5-2.61.32-3.48.37-3,.15-6,.13-9,0-1.24,0-4.67.27-5.27-.77a6.94,6.94,0,0,1-.21-2.55c0-1.28,0-2.57,0-3.85,0-5,.42-10.1.4-15.15,0-1,.06-1.43-.92-1.79-2-.73-5-.13-7.05,0a54.64,54.64,0,0,1-6.48.26c-.64,0-.64,1,0,1,3.15.24,6.44-.31,9.6-.37a29.45,29.45,0,0,1,3.84,0c.28.31,0,2,0,2.37-.17,6.43-1,13.21-.21,19.62.23,1.81.88,1.88,2.64,2.06a86.6,86.6,0,0,0,11.2.25c1.42,0,5.16.36,6.13-1a5.21,5.21,0,0,0,.3-2.33c.08-1.83,0-3.67,0-5.5-.06-3.92-.21-7.85-.37-11.77a8.59,8.59,0,0,1-.09-2.08c.42-1.72,2.71-1.36,4.16-1.41s2.81-.09,4.22-.12c1.17,0,2.91-.32,4,.05.57.19.22-.27.33.53.06.41.06.83.09,1.24.08,1.31.12,2.62.15,3.94.08,3.3.1,6.61.1,9.91,0,14.11-.59,28.24-.3,42.34a7.57,7.57,0,0,1,0,1.05c-.08.65.15.25-.1.44-.92.68-3.69.26-4.82.27-2,0-4,0-6.06-.17-1.31-.09-1.87.25-1.89-1-.1-7.84.41-15.71.19-23.54a.51.51,0,0,0-.5-.5,109.47,109.47,0,0,0-18.72-.06.52.52,0,0,0-.5.5c-.72,6.91,0,13.86.22,20.77a8.7,8.7,0,0,1,0,2.91c-.31.76-.66.57-1.6.62q-2,.11-4,.15c-1.83,0-3.66,0-5.48-.06s-2,.12-2-1.55c0-13-.08-26.06-.13-39.08q0-9.52,0-19a.5.5,0,0,0-1,0Z"/><path class="cls-1" d="M496.83.93c-2.47,2.58-5.5,5.17-5.76,6s1.24,58.17,1.79,58.5c.34.21,12.4.25,13.23-.28s2.08-2.76,2.6-4.28"/><path class="cls-1" d="M509,34.43c.57,1.83,8.07,29.62,9.14,31,.11.15,10,1.35,11.39.48s2.2-2.78,3.55-5"/><path class="cls-1" d="M542.2,29.06c.07,10.57.11,35,.75,36,.78,1.22,15.3,1.21,15.55.81,1.52-2.45,2.23-3.1,3.76-5.55"/><path class="cls-1" d="M540.3.89a63.16,63.16,0,0,0-7.66,5.92c-.39.5-4.74,15.09-5.58,23"/><path class="cls-1" d="M491.35,12.06a31,31,0,0,1,4.92-5.36"/><path class="cls-1" d="M491.44,18a65.35,65.35,0,0,1,4.84-5.67"/><path class="cls-1" d="M491.19,23.29,493,21.38a31.44,31.44,0,0,1,3.34-3.27s.1-.07.15,0,0,.13,0,.1"/><path class="cls-1" d="M491.55,30.42a40.09,40.09,0,0,1,5-5.91"/><path class="cls-1" d="M492,35.79a21.47,21.47,0,0,1,4.8-4.93"/><path class="cls-1" d="M492,43.6a15.61,15.61,0,0,1,2.67-3.5l1.89-2s.11-.1.16-.07,0,.13,0,.07"/><path class="cls-1" d="M492.24,49.68q2.29-2.7,4.83-5.17"/><path class="cls-1" d="M493,56.78a23.68,23.68,0,0,1,4-4.53"/><path class="cls-1" d="M492.6,63.81a38.8,38.8,0,0,1,4-4.3"/><path class="cls-1" d="M496.88,65.41l3.46-3.88"/><path class="cls-1" d="M503.19,65.66a17.63,17.63,0,0,1,3-4.14l-.24.17"/><path class="cls-1" d="M509.12,28.58a25.59,25.59,0,0,1,2.59-3.92"/><path class="cls-1" d="M509.39,35.76A43.39,43.39,0,0,1,513,30"/><path class="cls-1" d="M511.07,41.13q1.73-2.51,3.58-4.92c.09-.12.35-.2.35,0"/><path class="cls-1" d="M512.69,46.9q1.95-2.71,4-5.32"/><path class="cls-1" d="M514.34,53.77a38.87,38.87,0,0,1,4.14-5.44"/><path class="cls-1" d="M516,60a7.29,7.29,0,0,0,1.06-1.34,25.17,25.17,0,0,1,3.86-4.4l-.38.19"/><path class="cls-1" d="M518.67,65.77A35,35,0,0,1,522.91,61s.07-.06.1,0,0,.09,0,.07"/><path class="cls-1" d="M525.57,66.51a36.56,36.56,0,0,0,3.62-5.36"/><path class="cls-1" d="M531.75,10.36a25.08,25.08,0,0,1,5.88-3.73"/><path class="cls-1" d="M529.68,16.73l6.63-4.22"/><path class="cls-1" d="M528.35,22.2q3.3-2.54,6.83-4.78s.11-.08.08-.14-.12,0-.06,0"/><path class="cls-1" d="M527.42,27.59q3.35-2.55,6.75-5l-.6.05"/><path class="cls-1" d="M527.88,32.41a36.7,36.7,0,0,1,4.69-3.59l-.42-.06"/><path class="cls-1" d="M544.55,23.06l2.8-1.92c.14-.1.37-.18.47,0"/><path class="cls-1" d="M542.48,30.43a19.3,19.3,0,0,1,5.1-4.15"/><path class="cls-1" d="M542.2,37.8Q545.07,35.38,548,33"/><path class="cls-1" d="M542.36,43.8q2.73-3.09,5.73-5.94"/><path class="cls-1" d="M542.09,51.45c1.54-2.48,4.23-4,6-6.34l-.61.5"/><path class="cls-1" d="M542.92,58.12a46.25,46.25,0,0,1,5-4.5l-.36.31"/><path class="cls-1" d="M542.93,65.3a39.32,39.32,0,0,1,4.65-4.69"/><path class="cls-1" d="M548.85,66.14q2.32-2.71,4.81-5.28"/><path class="cls-1" d="M553.78,66.48a34.8,34.8,0,0,1,4.57-5.11"/><path class="cls-4" d="M496.83.93c-.36,12,.26,48,.16,60,0,.52,3.69,1,11.71-.08,1.1-.14-.08-49-.08-49s12.83,47.41,14.88,48.88c.84.61,9.54.51,9.63.13C535.48,50.37,548,11.22,548,11.22s-.43,43.29.07,49.52c.06.78,10.75.52,14.06-.12.75-.15.54-53,0-59.73a146.84,146.84,0,0,0-21.87,0c-1.15.07-10.5,38.16-10.5,38.16S519.22,1,518.83.89c-.66-.21-18.41-.36-22,0"/><path class="cls-3" d="M496.33.93c-.3,10.66-.09,21.35,0,32q.07,8.91.14,17.82,0,3.47,0,6.94c0,1-.45,3,.31,3.82s2.91.5,3.76.5c1.54,0,3.08-.1,4.61-.24,1-.09,3.15.14,3.85-.51.87-.82.53-3.44.56-4.49.24-8.37,0-16.77-.08-25.14q-.15-9.86-.39-19.71l-1,.13c4,14.68,7.84,29.5,12.77,43.9.48,1.39,1,4.29,2.29,5.24s3.79.53,5.14.54c1.14,0,4,.44,5-.33.77-.6.89-2.86,1.13-3.78.56-2.12,1.16-4.24,1.77-6.35,1.52-5.27,3.11-10.53,4.73-15.77q3.72-12.1,7.58-24.15l-1-.13q-.11,11.21-.15,22.42c0,5.65,0,11.31,0,17,0,2.1,0,4.2.07,6.3,0,1-.3,3,.15,3.9s2.22.84,3.2.88a68.86,68.86,0,0,0,8.92-.27c1-.09,2.48.09,3-.84a7,7,0,0,0,.19-2.44c.41-9.35.26-18.75.23-28.11,0-9.67.26-19.49-.47-29.14a.52.52,0,0,0-.5-.5,109.9,109.9,0,0,0-13-.35q-3.46.06-6.92.24c-.75,0-1.79-.2-2.39.33a6.13,6.13,0,0,0-1,2.44c-3,8.88-5.05,18.11-7.34,27.19q-1.09,4.34-2.16,8.68h1Q527,27,523.59,15.12c-1.2-4.23-2.38-8.47-3.69-12.67-.17-.53-.3-1.59-.77-2-.8-.62-3.22-.24-4.14-.26-6-.11-12.19-.42-18.17.19-.63.07-.64,1.07,0,1a137.11,137.11,0,0,1,15.32-.23,41.12,41.12,0,0,1,6.18.14c.65.11-.06-.42.21.14A10.13,10.13,0,0,1,519,2.94c2.81,9.1,5.29,18.32,7.87,27.49q1.23,4.37,2.44,8.75a.5.5,0,0,0,1,0C533,28.13,535.69,17,538.91,6.13c.31-1.06.63-2.12,1-3.17a4.24,4.24,0,0,1,.42-1.15c.59-.74-.32-.13,1-.48,1.6-.45,3.77-.19,5.44-.24q2-.06,4-.08c2.41,0,4.83,0,7.24.1a20.36,20.36,0,0,0,3.6.21,1.88,1.88,0,0,1,.61.05c-.79-.2-.28-.4-.39.46-.26,2.06.15,4.47.2,6.55q.44,21.93.14,43.88c0,2.2-.05,4.42-.18,6.62,0,.33.08,1.15-.12,1.43.1-.13-1.12,0-1.54.06-1,.11-2.1.17-3.15.23-2,.1-4,.16-6,.09-1.46-.05-2.37.24-2.49-.84a71.5,71.5,0,0,1-.15-7.29c-.13-13.78,0-27.57.14-41.35a.5.5,0,0,0-1-.13c-4.94,15.39-10,30.81-14.13,46.45-.2.76-.38,1.53-.58,2.3s0,.73-1.08.82a36.37,36.37,0,0,1-6.75,0c-1.23-.13-1.34-.22-1.81-1.27s-.9-2.32-1.3-3.49c-2.83-8.23-5.16-16.64-7.53-25q-2.7-9.51-5.29-19a.5.5,0,0,0-1,.13c.32,13.13.6,26.26.55,39.39,0,2.66,0,5.35-.19,8-.14,1.78-.53,1.17-2.48,1.37a32.85,32.85,0,0,1-7.54.23c-.93-.13-.77,0-1-.66a11.27,11.27,0,0,1,0-2.79q0-3.22,0-6.45,0-8.22-.13-16.43c-.09-11.22-.33-22.46,0-33.68a.5.5,0,0,0-1,0Z"/><path class="cls-1" d="M588.5,1.65c-2.43,1.3-6,2.74-7.44,5.1C580.58,7.58,561.9,63,562.42,64c.68,1.29,13,3.06,14.45,2.33s2.51-2.33,4.07-4.91"/><path class="cls-1" d="M622.84,61.26a10.61,10.61,0,0,1-3.08,4.39c-.85.81-14.59.66-15.19,0-1.17-1.19-3.86-10.2-4.44-10.62-1.19-.87-4.57-.61-6.75-.62-3.45,0-6.69-.25-10.14-.27"/><path class="cls-1" d="M591.26,25.57c1.31,4.92,3.13,8.24,4.93,13"/><path class="cls-1" d="M586.24,7l-7,4.59"/><path class="cls-1" d="M583.41,14.93q-2.9,1.61-5.66,3.46a1.64,1.64,0,0,0-.58.55l.17-.25"/><path class="cls-1" d="M581.84,20.78a51.42,51.42,0,0,1-7,3.34.13.13,0,0,0,.21,0"/><path class="cls-1" d="M579.82,26.83l-6.61,3.93.38-.15"/><path class="cls-1" d="M577.23,34.63a47.89,47.89,0,0,0-6.8,3.55.22.22,0,0,0,.24-.07"/><path class="cls-1" d="M575.31,40.23c-2.31,2-5.27,3.14-7.5,5.23"/><path class="cls-1" d="M573.07,46.34q-2.67,1.69-5.48,3.15a6.43,6.43,0,0,0-1.68,1.1l.18-.14"/><path class="cls-1" d="M571.22,53l-6.47,4"/><path class="cls-1" d="M562.63,63.47a30.4,30.4,0,0,1,6.31-3.74"/><path class="cls-1" d="M568,65.28c-.09,0,0-.16,0-.22q1.89-1.52,3.87-2.91"/><path class="cls-1" d="M574,66.11a10.3,10.3,0,0,1,2.88-2.92l1-.77"/><path class="cls-1" d="M591.5,26.44a17.78,17.78,0,0,1,4.16-4.18"/><path class="cls-1" d="M593.09,29.78a32.94,32.94,0,0,1,4.07-3.52"/><path class="cls-1" d="M594.82,35.19c-.16-.12,0-.38.08-.54a16.93,16.93,0,0,1,3.5-3.34"/><path class="cls-1" d="M596.65,38.59a32.79,32.79,0,0,1,3.77-2.73"/><path class="cls-1" d="M584.36,53.89q2-2.07,4.15-4"/><path class="cls-1" d="M589.91,54.69a1.81,1.81,0,0,1,.59-1l3.74-3.91c.24-.25.48-.5.74-.73a.16.16,0,0,1,.13-.05s.05.11,0,.1"/><path class="cls-1" d="M595.61,54.64q2.43-2.89,5.13-5.55"/><path class="cls-1" d="M600.51,55.43a1,1,0,0,1,.4-.78q1.87-1.87,3.82-3.65"/><path class="cls-1" d="M601.76,60.62a54.61,54.61,0,0,1,4.08-4"/><path class="cls-1" d="M604.17,65.11a15.79,15.79,0,0,1,3.46-3.72"/><path class="cls-1" d="M609.28,66.27a2,2,0,0,1,.45-.69l2.38-2.74a4.63,4.63,0,0,1,.78-.77"/><path class="cls-1" d="M614.41,66.18c-.1,0-.09-.17,0-.26a44.59,44.59,0,0,1,2.61-4"/><path class="cls-4" d="M604,1.7c-.36-.29-13.22-.5-16.44.4-4.28,14.25-19.47,59.13-19,59.46.77.56,12.15.61,12.36,0,1.38-4.12,3.79-12.21,3.79-12.21s18.39-.63,19.33,0c.56.4,2.72,11.44,3.79,12.29.83.66,14.9.29,15,0C623.24,60.74,605.14,2.63,604,1.7ZM588.13,38.3c-.29-.37,4.91-19,6.36-21.14.89,2.66,6.43,21.09,6.29,21.14C599.55,38.72,588.36,38.59,588.13,38.3Z"/><path class="cls-3" d="M604.26,1.26A10.76,10.76,0,0,0,600.53,1c-2.54-.06-5.09,0-7.63.06-1.27.05-4.51-.25-5.59.63-.82.67-1.09,3.1-1.4,4.1-3.09,9.87-6.35,19.68-9.57,29.5-2.64,8-5.41,16.05-7.78,24.17-.42,1.44-1.06,2.5.78,2.81a35.62,35.62,0,0,0,6.11.24c1.44,0,4,.35,5.31-.33s1.5-3.16,1.91-4.46c.73-2.34,2.1-5.13,2.32-7.58a2.13,2.13,0,0,1,.19-.64c0,.08-.69.37-.32.33s1,0,1.55,0q3.05-.09,6.1-.15c2.28,0,4.56-.08,6.85-.06.92,0,3.65-.37,4.38.25.32.28.5,1.68.6,2.06.32,1.2.61,2.4.92,3.6A26.31,26.31,0,0,0,607,61.22c1.19,2.24,6,1.32,8.12,1.3s4.27,0,6.4-.18c.59,0,1.52.09,1.82-.53.43-.89-.76-3.45-1-4.29-.92-3.29-1.9-6.55-2.89-9.82q-4-13.33-8.27-26.59c-2-6.21-3.74-12.63-6.26-18.65a3.41,3.41,0,0,0-.56-1.11c-.45-.46-1.16.25-.71.71.84.85,1.4,3.63,1.83,4.9,1.29,3.75,2.51,7.52,3.72,11.29q4.5,14,8.76,28c1.09,3.61,2.18,7.22,3.21,10.85.32,1.13.65,2.25.92,3.39.07.29.14.59.2.88s.47-.06,0-.1c-4.21-.33-8.53.46-12.78.14-2.08-.16-2.09-1.85-2.61-3.69-.65-2.35-1.16-4.74-1.84-7.08-.35-1.18-.43-1.71-1.65-1.93a35.3,35.3,0,0,0-6.37-.16c-4.11,0-8.21.12-12.32.26a.51.51,0,0,0-.48.37c-1.06,3.56-2.14,7.11-3.28,10.64-.27.83-.22,1.13-.88,1.45a6.81,6.81,0,0,1-2.21.16c-1.88.08-3.77.07-5.65,0-.75,0-1.51,0-2.26-.13-.58-.07-1.08-.35-.9.16-.09-.25.28-1.08.36-1.37.64-2.25,1.37-4.48,2.08-6.71,4.84-15.14,9.95-30.19,14.75-45.34a30.88,30.88,0,0,1,1.53-4.89c.45-.86.31-.71,1.47-.87.95-.12,1.91-.18,2.86-.23,2.4-.13,4.81-.15,7.21-.12,1.21,0,3.33-.31,4.45.17C604.34,2.38,604.85,1.52,604.26,1.26Z"/><path class="cls-3" d="M588.61,38.17c-.21-.73.61-2.68.82-3.48.56-2.15,1.16-4.29,1.78-6.42,1-3.46,1.77-7.76,3.71-10.85L594,17.3c2,6,3.74,12.11,5.49,18.18.25.88.43,1.83.75,2.69.17.47-.3-.21.26-.32a2,2,0,0,1-.7.08,10.76,10.76,0,0,0-2.17.1c-1.87,0-3.74,0-5.61,0-.92,0-2.81.27-3.65-.17-.57-.3-1.08.56-.5.86,1.49.78,4.33.32,5.94.33,2.25,0,4.89.3,7.09-.28a.52.52,0,0,0,.37-.48,9.16,9.16,0,0,0-.76-2.9c-.63-2.19-1.28-4.38-1.94-6.57-1.18-3.94-2.31-7.9-3.61-11.8a.51.51,0,0,0-.91-.12c-2.07,3.32-2.89,7.91-4,11.61-.66,2.28-1.3,4.56-1.88,6.86-.2.8-.82,2.21-.57,3.06A.5.5,0,0,0,588.61,38.17Z"/><path class="cls-2" d="M7.24,62.14c.25.18,13.23-.23,13.56-.62S21.27,24,21,13.1c5.53.12,11.34-.64,16.87-.51.94,3.19.49,7.47.35,10.79-.55,12.73-.3,38.24-.18,38.39a83,83,0,0,0,13.79-.16,53.21,53.21,0,0,0-.08-9.46c-.16-3,.51-47.12-.06-50.31-.17-1-44-.35-44.49,0C6.36,2.48,6.55,61.64,7.24,62.14Z"/><path class="cls-1" d="M7.19,1.86C5.38,3.94.88,9.14.65,9.8s-.19,56.73,0,57,15,.44,15.54,0a53.18,53.18,0,0,0,4.14-5.25"/><path class="cls-1" d="M20.68,19.34c2,.13,10.37-.23,11,.18,1.42.93-.87,46.15,1.21,48,.31.27,13.75.58,13.93.43,2.61-2.14,3.28-3.55,5-6.3"/><path class="cls-1" d="M797.67,1.87c-1,1-5.87,5.51-5.9,6.18-.88,19-1,37.25-1,56.51a1.1,1.1,0,0,0,.84,1.07c5.26,1.32,15.42,1.08,15.63.73,1.07-1.72,2.57-3,3.25-4.95"/><path class="cls-1" d="M825.37,34.55c0,8,.37,31.38.58,31.56s11.78,1.15,12.59,1a9,9,0,0,0,6.56-5.49"/><path class="cls-1" d="M831.43,1.83c-1.94.79-5.31,2.54-6.06,4.5-.33.87-.73,8.13-.73,11.51"/><path class="cls-1" d="M6.74,8.7A80,80,0,0,1,.5,14.81"/><path class="cls-1" d="M.5,21c2.22-1.75,4.11-3.16,6.43-4.78"/><path class="cls-1" d="M.5,27.32C2.8,25.59,4.73,24,6.89,22.1"/><path class="cls-1" d="M.5,33.55a76.1,76.1,0,0,1,6.13-5.1"/><path class="cls-1" d="M.57,40.41l6-4.93"/><path class="cls-1" d="M.49,46.51,7,41.79"/><path class="cls-1" d="M.42,52.76l4.12-3.25A20.29,20.29,0,0,1,6.9,47.83"/><path class="cls-1" d="M.64,58.05c2.44-1.53,4.2-2.66,6.61-4.24"/><path class="cls-1" d="M.64,65.73a50.14,50.14,0,0,1,6.43-5.44"/><path class="cls-1" d="M5.43,67c1.53-1.59,3.52-3.26,5-4.85"/><path class="cls-1" d="M11.64,66.86l5-4.91"/><path class="cls-1" d="M20.83,19.57a41.66,41.66,0,0,1,5.88-6.65"/><path class="cls-1" d="M26.43,19.27,34,12.52"/><path class="cls-1" d="M32,20.7C34.25,18.56,36,17,38.45,15"/><path class="cls-1" d="M32.17,29.56l6.14-5.29"/><path class="cls-1" d="M32.19,36.53a41.83,41.83,0,0,1,5.84-5"/><path class="cls-1" d="M32,44.39c2-1.51,4.11-3,6.06-4.6"/><path class="cls-1" d="M32,52.05A35.1,35.1,0,0,1,38,47.3"/><path class="cls-1" d="M31.95,60.83a24.31,24.31,0,0,1,6-5.34"/><path class="cls-1" d="M33.88,67.6l5.77-5.73"/><path class="cls-1" d="M41.2,67.88c1.74-2.16,3.77-4,5.72-5.94"/><path class="cls-2" d="M121.71,62.42c.25.18,13.23-.23,13.56-.62s.47-37.48.19-48.41c5.53.12,11.34-.64,16.87-.51.94,3.19.49,7.47.35,10.79-.55,12.73-.3,38.24-.18,38.39a83,83,0,0,0,13.79-.16,53.21,53.21,0,0,0-.08-9.46c-.16-3,.51-47.12-.06-50.31-.17-1-44-.35-44.49,0C120.83,2.75,121,61.92,121.71,62.42Z"/><path class="cls-1" d="M121.66,2.13c-1.8,2.09-6.31,7.28-6.54,7.94s-.19,56.73,0,57,15,.44,15.54,0a53.18,53.18,0,0,0,4.14-5.25"/><path class="cls-1" d="M135.15,19.61c2,.13,10.37-.23,11,.18,1.42.93-.87,46.15,1.21,48,.31.27,13.75.58,13.93.43,2.61-2.14,3.28-3.55,5-6.3"/><path class="cls-1" d="M121.21,9A80,80,0,0,1,115,15.08"/><path class="cls-1" d="M115,21.32c2.22-1.75,4.11-3.16,6.43-4.78"/><path class="cls-1" d="M115,27.6c2.3-1.73,4.23-3.32,6.39-5.22"/><path class="cls-1" d="M115,33.83a76.1,76.1,0,0,1,6.13-5.1"/><path class="cls-1" d="M115,40.69l6-4.93"/><path class="cls-1" d="M115,46.78l6.48-4.72"/><path class="cls-1" d="M114.89,53,119,49.79a20.29,20.29,0,0,1,2.36-1.68"/><path class="cls-1" d="M115.11,58.33c2.44-1.53,4.2-2.66,6.61-4.24"/><path class="cls-1" d="M115.11,66a50.14,50.14,0,0,1,6.43-5.44"/><path class="cls-1" d="M119.9,67.28c1.53-1.59,3.52-3.26,5-4.85"/><path class="cls-1" d="M126.11,67.13l5-4.91"/><path class="cls-1" d="M135.29,19.84a41.66,41.66,0,0,1,5.88-6.65"/><path class="cls-1" d="M140.9,19.55l7.54-6.75"/><path class="cls-1" d="M146.43,21c2.28-2.14,4.05-3.68,6.48-5.66"/><path class="cls-1" d="M146.64,29.84l6.14-5.29"/><path class="cls-1" d="M146.66,36.8a41.83,41.83,0,0,1,5.84-5"/><path class="cls-1" d="M146.43,44.67c2-1.51,4.11-3,6.06-4.6"/><path class="cls-1" d="M146.43,52.33a35.1,35.1,0,0,1,6.06-4.75"/><path class="cls-1" d="M146.42,61.1a24.31,24.31,0,0,1,6-5.34"/><path class="cls-1" d="M148.35,67.88l5.77-5.73"/><path class="cls-1" d="M155.67,68.15c1.74-2.16,3.77-4,5.72-5.94"/><path class="cls-1" d="M791.52,14a40,40,0,0,1,5.65-5"/><path class="cls-1" d="M791.52,19.58a27.79,27.79,0,0,1,5.26-4.84"/><path class="cls-1" d="M791.32,25.06c1.7-1.59,4.11-3.86,5.71-5.56"/><path class="cls-1" d="M791,33.06c1.83-2,3.94-4,5.77-6"/><path class="cls-1" d="M790.87,39.76a76.85,76.85,0,0,1,6-5.89"/><path class="cls-1" d="M790.74,47.3c1.79-1.79,4.25-3.68,6-5.47"/><path class="cls-1" d="M790.61,54.77c2-2.16,4.34-4.26,6.29-6.15"/><path class="cls-1" d="M790.78,63A69.19,69.19,0,0,1,797,56.43"/><path class="cls-1" d="M795.27,66.25a64.27,64.27,0,0,0,4.15-4.92"/><path class="cls-1" d="M802.27,66.61l3.45-3.89a9.81,9.81,0,0,1,1.18-1.11"/><path class="cls-1" d="M824.72,11.5a62.84,62.84,0,0,1,6.46-6.36"/><path class="cls-1" d="M836.24,66.85a64.86,64.86,0,0,1,4.11-5.29"/><path class="cls-1" d="M830.22,66.57l4.83-5.24"/><path class="cls-1" d="M825.8,63a30.3,30.3,0,0,1,5.89-7"/><path class="cls-1" d="M825.65,53.87l3.71-4.06a8.91,8.91,0,0,1,2.46-2.08"/><path class="cls-1" d="M825.49,45.44a5,5,0,0,1,.95-1.5,36.71,36.71,0,0,1,5.17-5.74"/><path class="cls-1" d="M825.37,37.72a44.44,44.44,0,0,1,6-7.85"/></g></g></svg>