<svg xmlns="http://www.w3.org/2000/svg" viewBox="0 0 1074.98 69.2"><defs><style>.cls-1{fill:none;}.cls-1,.cls-2{stroke:#000105;stroke-miterlimit:10;}.cls-2,.cls-4{fill:#fff;}.cls-3{fill:#000105;}</style></defs><title>previousadventures_ru</title><g id="Слой_2" data-name="Слой 2"><g id="Слой_5" data-name="Слой 5"><path class="cls-1" d="M64.09,2.12c-2.32,1.87-7.39,5.74-7.53,6s-.51,58.07-.15,58.62c.55.85,14.89,1,16.19.51s4.15-3.37,5.41-5" transform="translate(0 -0.03)"/><path class="cls-1" d="M77.38,17.33c2.7.13,11.73.65,13.13,1.53s2,2.93,2,4.57a12.46,12.46,0,0,1-1,4.41" transform="translate(0 -0.03)"/><path class="cls-1" d="M64.05,5.19Q60.21,9,56.26,12.78" transform="translate(0 -0.03)"/><path class="cls-1" d="M56.52,18.91l7.94-6.82" transform="translate(0 -0.03)"/><path class="cls-1" d="M56.25,24.59c2.5-2.06,4.83-3.85,7.46-5.75" transform="translate(0 -0.03)"/><path class="cls-1" d="M56.46,31.47q3.66-3.11,7.53-6" transform="translate(0 -0.03)"/><path class="cls-1" d="M56.28,37.94,63.76,32" transform="translate(0 -0.03)"/><path class="cls-1" d="M56.25,45.4l7.45-5.82" transform="translate(0 -0.03)"/><path class="cls-1" d="M56.34,52.1a62.72,62.72,0,0,0,7.4-6.1" transform="translate(0 -0.03)"/><path class="cls-1" d="M56.28,58.9c2.7-2,4.75-3.63,7.27-5.85" transform="translate(0 -0.03)"/><path class="cls-1" d="M56.36,65.13l7.33-5.81" transform="translate(0 -0.03)"/><path class="cls-1" d="M62.61,67.25q3.33-2.52,6.46-5.3" transform="translate(0 -0.03)"/><path class="cls-1" d="M69.94,67.46a51.12,51.12,0,0,1,5.66-5.21" transform="translate(0 -0.03)"/><path class="cls-1" d="M77.48,16.25A20.56,20.56,0,0,1,81.2,13" transform="translate(0 -0.03)"/><path class="cls-1" d="M81.71,17.59a37.65,37.65,0,0,1,5-4.5" transform="translate(0 -0.03)"/><path class="cls-1" d="M87.69,18.18,92.31,14" transform="translate(0 -0.03)"/><path class="cls-1" d="M92,20.71A44.5,44.5,0,0,1,95.6,17l-.25.33" transform="translate(0 -0.03)"/><path class="cls-1" d="M92.31,24.4a37.82,37.82,0,0,1,4.29-3.64" transform="translate(0 -0.03)"/><path class="cls-2" d="M109.77,14.28c-1.33-5.18-6.37-8.55-11.3-10.64C91.64.74,64.79,1.43,64.09,2.12S63.53,58.47,64,61.87c4,.68,13.93.15,14.17,0s-.28-15.15-.31-22c4.36-.65,8.08-.31,12-.31,7.31,0,15.2-3.21,18.46-9.75A25.41,25.41,0,0,0,109.77,14.28ZM96.1,22.82c-.34.94-.88,2.74-1.71,3.31-3,2.09-6,2.37-9.63,2.5-2.5.09-4.59-.25-7.08,0,0-1.95-.74-16,.1-15.9.64,0,10.56.38,12.51.73a6.39,6.39,0,0,1,4.51,2.44,6.4,6.4,0,0,1,1.58,4.67A9.09,9.09,0,0,1,96.1,22.82Z" transform="translate(0 -0.03)"/><path class="cls-2" d="M967.86,62c.33.23,13.18.47,13.38.08s-.29-3.27.11-4.42,20.66-30,21.06-33.51c-1.09,11.56,1.28,24.65-.41,36.23a1.22,1.22,0,0,0,1.14,1.41c3.33.17,9.15,1,12.78.51.13-18.66.88-58.36-.12-59.91-.37-.57-13-1-13.56.13s0,3.39-.16,5.17c-.15,1.22-14.62,23-20.16,31.74a.35.35,0,0,1-.64-.22c.85-11.38,1-36.07.4-36.69-.83-.9-12.51-.6-13.2,0C967.3,3.61,967.39,61.66,967.86,62Z" transform="translate(0 -0.03)"/><path class="cls-2" d="M176,61.78c.26.25,71.67.71,73.47.11,1.26-.42.28-60,0-60-.57,0-13.33-.23-13.78.39-.28.38.23,47.31-.15,47.65s-15.16.15-15.81-.22c-1.33-.76.86-47.15-.22-47.88-.8-.54-13.62-.2-13.78.09a13.71,13.71,0,0,0-.06,2.66c.37,14.61.79,45.45-.12,45.75-.31.1-15.74.07-16-.28-.11-.17.35-47.8.11-48.18S177,1.34,176,2.37C175.12,3.21,175.7,61.54,176,61.78Z" transform="translate(0 -0.03)"/><path class="cls-2" d="M255.06,60.64a.82.82,0,0,0,.9,1c3.72-.49,10.41,0,11-.37.91-.54,8.46-33.47,12.38-46,2,5.86,11.6,40.81,12.55,45.76a1.18,1.18,0,0,0,1.27,1c3.22-.33,11.34.49,12.65.1a1.12,1.12,0,0,0,.78-1.35c-2.08-8-15.39-58.79-16.38-59.15-.61-.22-13.94-.87-18.44.05C270.34,1.93,256.4,54.77,255.06,60.64Z" transform="translate(0 -0.03)"/><path class="cls-2" d="M359.48,41.67a25.28,25.28,0,0,0-1.24-6A16.72,16.72,0,0,0,354.67,29c-3.49-3.62-9-4.22-14-4.6-4.22-.32-13.5-.2-13.87-.78-.2-.31.36-21.38-.55-21.8-.18-.08-12.44.11-13,.33-1.69.73-.15,54-.34,59.63,11.29.45,19.19.75,30.44-.25,1.78-.16,10.11-3.34,12-6A20.17,20.17,0,0,0,359.48,41.67Zm-17.39,7.76c-1.14.79-14.88,1.09-14.89.72-.06-2.45-1.29-13.53-.45-15.16.65-1.25,8.34-.28,10.76.09s8.08,1.56,8.08,7.78A7.57,7.57,0,0,1,342.09,49.43Z" transform="translate(0 -0.03)"/><path class="cls-2" d="M536.18,42.1c1.24,2.26-1.77,7.08-4.28,7.94a17,17,0,0,1-7.87.23,2.34,2.34,0,0,0-1.29.05c-.84.38-.92,1.53-.86,2.45l.54,8.82c0,.3,13,.52,17-2.89A21.93,21.93,0,0,0,545,52.41C547.7,47,563.31,7.78,566,2.52a.4.4,0,0,0-.34-.59c-3.63-.12-12,.15-12.6.76-.38.42-7.77,20.3-10.18,25.63C538.7,20.19,530.4,2.17,530.09,1.95s-14.11-.79-14.68,0c-.9,1.21,4.36,9.34,5.07,10.74C524.43,20.46,535.68,41.2,536.18,42.1Z" transform="translate(0 -0.03)"/><path class="cls-2" d="M855.17,24.42a1,1,0,0,0,.9-1.05,39,39,0,0,0-2.18-8.59c-1.76-4.61-4.44-8.38-8.77-10.75a25.77,25.77,0,0,0-5.48-2.14A31.08,31.08,0,0,0,824.59,2c-6.78,1.64-12.2,6.41-15.94,12.3-4.85,7.65-5.66,20.61-2.81,29.21S814,57.81,822.46,61.06a40.71,40.71,0,0,0,8.5,1.56c5.84.62,11.8-2.16,16.56-5.6s7.25-9.2,8.5-14.93a1.19,1.19,0,0,0,0-.72c-.13-.31-13.1-1.8-13.45-1.54-.83.62-.8,6.28-3.47,8.57a12.43,12.43,0,0,1-10.22,3,11.27,11.27,0,0,1-4.49-2.57c-3.85-4.15-4.11-9.3-4.24-15s.35-11.08,2.61-16.27a11.21,11.21,0,0,1,4.38-5.06c1.9-.95,6.73-.63,8.63.2,2.88,1.26,4.67,4.85,4.92,7.92.34,4,.18,4.29,3.92,3.87C845.35,24.5,852.69,24.53,855.17,24.42Z" transform="translate(0 -0.03)"/><path class="cls-2" d="M958.34,42.48a13.28,13.28,0,0,0-3.69-7.57c-1.83-2-5.75-3.8-8.45-4.64,3-1.32,6.71-2.72,8.45-5.47.35-.55,2.5-5.08,2.25-7.75A16.32,16.32,0,0,0,945.15,2.54c-1.7-.45-36.31-1.17-36.19-.48.28,1.55-.45,59.4-.17,59.68s21.22.35,31.48-.25a60.07,60.07,0,0,0,6.12-1.12,17.86,17.86,0,0,0,10.94-8.69C958.59,49,958.68,45.41,958.34,42.48Zm-35.41-29.4c1.14-1.72,10.31-.84,12.54-.71s5.11,1.25,6,3.25a10.88,10.88,0,0,1,.05,5.75,6.73,6.73,0,0,1-1.38,3c-1,1.08-2.65,1.34-4.14,1.52-4.29.52-12.83-.21-12.91-.25S922.14,14.27,922.92,13.08ZM943.4,45.89a6.94,6.94,0,0,1-1.52,3.1c-1.15,1.14-2.92,1.4-4.56,1.59-4.71.55-14.1-.22-14.19-.26s-1-11.88-.17-13.13c1.25-1.81,11.33-.88,13.78-.75s5.62,1.31,6.6,3.42A10.93,10.93,0,0,1,943.4,45.89Z" transform="translate(0 -0.03)"/><path class="cls-1" d="M176,2.49c-2,1.67-4.77,4.16-5.73,7.06-.39,1.17,0,57.3.32,58,.81,1.52,73.8,1.35,74.5.92a33.52,33.52,0,0,0,4.51-6.81" transform="translate(0 -0.03)"/><path class="cls-1" d="M235.68,2.31c-1.45,1.29-5.16,4.47-5.44,5.07S229.14,36.33,229,50" transform="translate(0 -0.03)"/><path class="cls-1" d="M205.71,2c-2.89,2-6.43,4.42-6.42,8,.06,13.65.74,26.85.79,40.5" transform="translate(0 -0.03)"/><path class="cls-1" d="M175.62,8.61a49.66,49.66,0,0,1-5.84,6.71" transform="translate(0 -0.03)"/><path class="cls-1" d="M175.67,14.21A47.71,47.71,0,0,0,170,20l.31-.3" transform="translate(0 -0.03)"/><path class="cls-1" d="M175.54,20.85c-2.08,1.92-3.65,3.45-5.64,5.46" transform="translate(0 -0.03)"/><path class="cls-1" d="M175.57,28.31,170,33.63" transform="translate(0 -0.03)"/><path class="cls-1" d="M170.11,40.9c1.9-1.54,3.43-2.7,5.43-4.1" transform="translate(0 -0.03)"/><path class="cls-1" d="M170.1,48.38a39.62,39.62,0,0,1,5.47-4.28" transform="translate(0 -0.03)"/><path class="cls-1" d="M170.31,55.58q2.75-2.1,5.39-4.35" transform="translate(0 -0.03)"/><path class="cls-1" d="M170.45,63.61A50.25,50.25,0,0,1,175.7,59" transform="translate(0 -0.03)"/><path class="cls-1" d="M173.41,68c2.52-2.23,4.08-3.69,6.48-6" transform="translate(0 -0.03)"/><path class="cls-1" d="M183.7,68.35l6.23-6.27" transform="translate(0 -0.03)"/><path class="cls-1" d="M192.24,68.65q3.12-3.32,6-6.83" transform="translate(0 -0.03)"/><path class="cls-1" d="M201.4,68.67,207,62.14" transform="translate(0 -0.03)"/><path class="cls-1" d="M212.56,68.85q2.62-3.59,5.59-6.91" transform="translate(0 -0.03)"/><path class="cls-1" d="M207.07,68.75a60.1,60.1,0,0,1,6.34-6.82" transform="translate(0 -0.03)"/><path class="cls-1" d="M219.9,68.69a45,45,0,0,1,6.17-6.41" transform="translate(0 -0.03)"/><path class="cls-1" d="M226.72,68.75c1.88-2.39,3.47-4.25,5.55-6.47" transform="translate(0 -0.03)"/><path class="cls-1" d="M233.53,68.2l5.75-6.25" transform="translate(0 -0.03)"/><path class="cls-1" d="M239.81,68.47l3.28-4.31A9,9,0,0,1,245.2,62" transform="translate(0 -0.03)"/><path class="cls-1" d="M199.36,13.93a72.93,72.93,0,0,1,6.21-6.08" transform="translate(0 -0.03)"/><path class="cls-1" d="M199.29,21a39.49,39.49,0,0,1,6.55-6" transform="translate(0 -0.03)"/><path class="cls-1" d="M199.36,27.64,206,21" transform="translate(0 -0.03)"/><path class="cls-1" d="M199.77,34,206,28.3" transform="translate(0 -0.03)"/><path class="cls-1" d="M199.83,40.9c2-1.86,4.12-4,6.25-5.65" transform="translate(0 -0.03)"/><path class="cls-1" d="M199.89,48,206,43.34" transform="translate(0 -0.03)"/><path class="cls-1" d="M229.93,13a59.7,59.7,0,0,1,5.53-4.8" transform="translate(0 -0.03)"/><path class="cls-1" d="M229.68,20.09a59,59,0,0,1,6-6.26" transform="translate(0 -0.03)"/><path class="cls-1" d="M229.69,25.64c1.73-1.66,4.11-3.7,6-5.17" transform="translate(0 -0.03)"/><path class="cls-1" d="M229.23,33.11a46.5,46.5,0,0,1,6.23-5.37" transform="translate(0 -0.03)"/><path class="cls-1" d="M229.23,39.49a65,65,0,0,1,6.49-5l-.89.67" transform="translate(0 -0.03)"/><path class="cls-1" d="M229.23,46.15a36.64,36.64,0,0,0,5.3-4.07,3.47,3.47,0,0,1,1.18-.83" transform="translate(0 -0.03)"/><path class="cls-1" d="M232,50.14a45.72,45.72,0,0,1,3.46-3.47" transform="translate(0 -0.03)"/><path class="cls-2" d="M670.52,61.53c.26.25,71.67.71,73.47.11,1.26-.42.28-60,0-60-.57,0-13.33-.23-13.78.39-.28.38.23,47.31-.15,47.65s-15.16.15-15.81-.22c-1.33-.76.86-47.15-.22-47.87-.8-.54-13.62-.2-13.78.09a13.71,13.71,0,0,0-.06,2.66c.37,14.61.79,45.45-.12,45.75-.31.1-15.74.07-16-.28-.11-.17.35-47.8.11-48.18s-12.68-.57-13.71.46C669.68,2.95,670.27,61.28,670.52,61.53Z" transform="translate(0 -0.03)"/><path class="cls-1" d="M670.56,2.23c-2,1.67-4.77,4.16-5.73,7.06-.39,1.17,0,57.3.32,58,.81,1.52,73.8,1.35,74.5.92a33.52,33.52,0,0,0,4.51-6.81" transform="translate(0 -0.03)"/><path class="cls-1" d="M730.24,2.06c-1.45,1.29-5.16,4.47-5.44,5.07s-1.1,28.95-1.28,42.61" transform="translate(0 -0.03)"/><path class="cls-1" d="M700.27,1.7c-2.89,2-6.43,4.42-6.42,8,.06,13.65.74,26.85.79,40.5" transform="translate(0 -0.03)"/><path class="cls-1" d="M670.18,8.35a49.66,49.66,0,0,1-5.84,6.71" transform="translate(0 -0.03)"/><path class="cls-1" d="M670.23,14a47.71,47.71,0,0,0-5.65,5.82l.31-.3" transform="translate(0 -0.03)"/><path class="cls-1" d="M670.1,20.59c-2.08,1.92-3.65,3.45-5.64,5.46" transform="translate(0 -0.03)"/><path class="cls-1" d="M670.13,28.05l-5.56,5.32" transform="translate(0 -0.03)"/><path class="cls-1" d="M664.67,40.64c1.9-1.54,3.43-2.7,5.43-4.1" transform="translate(0 -0.03)"/><path class="cls-1" d="M664.66,48.12a39.62,39.62,0,0,1,5.47-4.28" transform="translate(0 -0.03)"/><path class="cls-1" d="M664.87,55.33q2.75-2.1,5.39-4.35" transform="translate(0 -0.03)"/><path class="cls-1" d="M665,63.35a50.25,50.25,0,0,1,5.25-4.58" transform="translate(0 -0.03)"/><path class="cls-1" d="M668,67.71c2.52-2.23,4.08-3.69,6.48-6" transform="translate(0 -0.03)"/><path class="cls-1" d="M678.26,68.1l6.23-6.27" transform="translate(0 -0.03)"/><path class="cls-1" d="M686.8,68.39q3.12-3.32,6-6.83" transform="translate(0 -0.03)"/><path class="cls-1" d="M696,68.41l5.61-6.54" transform="translate(0 -0.03)"/><path class="cls-1" d="M707.12,68.59q2.62-3.59,5.59-6.91" transform="translate(0 -0.03)"/><path class="cls-1" d="M701.63,68.49A60.1,60.1,0,0,1,708,61.67" transform="translate(0 -0.03)"/><path class="cls-1" d="M714.46,68.44A45,45,0,0,1,720.63,62" transform="translate(0 -0.03)"/><path class="cls-1" d="M721.28,68.49c1.88-2.39,3.47-4.25,5.55-6.47" transform="translate(0 -0.03)"/><path class="cls-1" d="M728.1,67.94l5.75-6.25" transform="translate(0 -0.03)"/><path class="cls-1" d="M734.38,68.22l3.28-4.31a9,9,0,0,1,2.1-2.19" transform="translate(0 -0.03)"/><path class="cls-1" d="M693.93,13.68a72.93,72.93,0,0,1,6.21-6.08" transform="translate(0 -0.03)"/><path class="cls-1" d="M693.85,20.79a39.49,39.49,0,0,1,6.55-6" transform="translate(0 -0.03)"/><path class="cls-1" d="M693.93,27.39l6.6-6.61" transform="translate(0 -0.03)"/><path class="cls-1" d="M694.33,33.79,700.57,28" transform="translate(0 -0.03)"/><path class="cls-1" d="M694.39,40.64c2-1.86,4.12-4,6.25-5.65" transform="translate(0 -0.03)"/><path class="cls-1" d="M694.45,47.75l6.13-4.66" transform="translate(0 -0.03)"/><path class="cls-1" d="M724.49,12.72A59.7,59.7,0,0,1,730,7.92" transform="translate(0 -0.03)"/><path class="cls-1" d="M724.24,19.83a59,59,0,0,1,6-6.26" transform="translate(0 -0.03)"/><path class="cls-1" d="M724.25,25.38c1.73-1.66,4.11-3.7,6-5.17" transform="translate(0 -0.03)"/><path class="cls-1" d="M723.8,32.86A46.5,46.5,0,0,1,730,27.49" transform="translate(0 -0.03)"/><path class="cls-1" d="M723.8,39.23a65,65,0,0,1,6.49-5l-.89.67" transform="translate(0 -0.03)"/><path class="cls-1" d="M723.8,45.89a36.64,36.64,0,0,0,5.3-4.07,3.47,3.47,0,0,1,1.18-.83" transform="translate(0 -0.03)"/><path class="cls-1" d="M726.56,49.89A45.72,45.72,0,0,1,730,46.42" transform="translate(0 -0.03)"/><path class="cls-1" d="M271.77,1.63a41.61,41.61,0,0,0-5.58,3.54c-.74.6-16.87,57.39-15.8,59.16,1,1.6,12.12.42,12.44.22,2.06-1.31,3.28-1.69,4.34-3.64" transform="translate(0 -0.03)"/><path class="cls-1" d="M276.53,25.18c1.41,5.13,8.19,31.24,11.55,40.37.26.7,13.37,1.14,16.34-.31,2.21-2.08,2.21-1.74,2.58-3.66" transform="translate(0 -0.03)"/><path class="cls-1" d="M269.9,6.53l-.63.41-4.7,3" transform="translate(0 -0.03)"/><path class="cls-1" d="M263.25,14.65a55.31,55.31,0,0,1,5.25-3.09" transform="translate(0 -0.03)"/><path class="cls-1" d="M261.71,20a8.05,8.05,0,0,1,2.66-1.65l2.13-1" transform="translate(0 -0.03)"/><path class="cls-1" d="M260.34,25.08a15.26,15.26,0,0,1,5.09-3.65" transform="translate(0 -0.03)"/><path class="cls-1" d="M258.8,30a36.18,36.18,0,0,1,5-3.24" transform="translate(0 -0.03)"/><path class="cls-1" d="M257.34,35.5a30.19,30.19,0,0,1,5.26-3.31" transform="translate(0 -0.03)"/><path class="cls-1" d="M256.2,39.71a11.91,11.91,0,0,1,4.95-2.06l-.32.09" transform="translate(0 -0.03)"/><path class="cls-1" d="M254.66,44.81a42.44,42.44,0,0,1,5.6-3.8" transform="translate(0 -0.03)"/><path class="cls-1" d="M253.39,50a20.94,20.94,0,0,1,5.09-3.1" transform="translate(0 -0.03)"/><path class="cls-1" d="M252.21,54.52a29,29,0,0,1,5-3.21" transform="translate(0 -0.03)"/><path class="cls-1" d="M251.08,59.32a4.25,4.25,0,0,1,1.36-1.27c1.22-.84,2.74-1.95,4-2.79" transform="translate(0 -0.03)"/><path class="cls-1" d="M250.37,64.39a6,6,0,0,1,2.4-2.19L255,60.82" transform="translate(0 -0.03)"/><path class="cls-1" d="M254.37,65.27c1.16-1.2,2.8-2.71,4-3.91" transform="translate(0 -0.03)"/><path class="cls-1" d="M260,65l2-2.21a8.2,8.2,0,0,1,1.31-1.28" transform="translate(0 -0.03)"/><path class="cls-1" d="M277.71,28.79a32.44,32.44,0,0,1,4.38-4.54" transform="translate(0 -0.03)"/><path class="cls-1" d="M279.18,34.18q2.27-1.74,4.61-3.38" transform="translate(0 -0.03)"/><path class="cls-1" d="M276.94,23.86a32.45,32.45,0,0,1,4-4.34" transform="translate(0 -0.03)"/><path class="cls-1" d="M280.56,39.3a28.8,28.8,0,0,1,4.36-3.88" transform="translate(0 -0.03)"/><path class="cls-1" d="M281.64,43.28l5-3.76" transform="translate(0 -0.03)"/><path class="cls-1" d="M283.16,48.82c-.17-.13,0-.4.16-.55a49.85,49.85,0,0,1,4.44-3.45" transform="translate(0 -0.03)"/><path class="cls-1" d="M284.21,53q2.4-1.7,4.91-3.22" transform="translate(0 -0.03)"/><path class="cls-1" d="M285.58,57.39l4.86-3.3" transform="translate(0 -0.03)"/><path class="cls-1" d="M287,61.69a40.09,40.09,0,0,1,4.57-3.23" transform="translate(0 -0.03)"/><path class="cls-1" d="M289.26,65.75a39.75,39.75,0,0,1,4.55-3.87" transform="translate(0 -0.03)"/><path class="cls-1" d="M294.33,66.07a32.65,32.65,0,0,1,3.73-3.94" transform="translate(0 -0.03)"/><path class="cls-1" d="M300.11,65.86A36.62,36.62,0,0,1,303.54,62" transform="translate(0 -0.03)"/><path class="cls-1" d="M313.06,2.22a75.12,75.12,0,0,0-5.72,5.06c-.26.53-.41,57.68.31,58.22.34.25,35.12,3.19,42-6.14" transform="translate(0 -0.03)"/><path class="cls-1" d="M326.44,37.45c3.56-.1,8.89-.31,11.27,1.17a7.29,7.29,0,0,1,3.75,6.21,34.48,34.48,0,0,1-.64,4.92" transform="translate(0 -0.03)"/><path class="cls-1" d="M307.21,12.61c1.51-1.48,3.58-2.24,5.26-3.52,0,0,.06-.06.05-.09s-.09,0-.06,0" transform="translate(0 -0.03)"/><path class="cls-1" d="M307.15,17.9a1.47,1.47,0,0,1,.51-.56,52.22,52.22,0,0,1,4.66-3.17c.06,0,.14-.11.11-.18s-.15,0-.07.05" transform="translate(0 -0.03)"/><path class="cls-1" d="M307.23,22.8q2.52-2,5.2-3.7" transform="translate(0 -0.03)"/><path class="cls-1" d="M307.27,28.1l5.08-3.51" transform="translate(0 -0.03)"/><path class="cls-1" d="M307,32.85l1.44-.9,4.22-2.66" transform="translate(0 -0.03)"/><path class="cls-1" d="M307.15,38.23c1.58-1.35,3.78-1.87,5.23-3.36" transform="translate(0 -0.03)"/><path class="cls-1" d="M307,43.54A43.67,43.67,0,0,1,312.39,40" transform="translate(0 -0.03)"/><path class="cls-1" d="M307,48.29q2.7-1.9,5.52-3.6" transform="translate(0 -0.03)"/><path class="cls-1" d="M307.06,53.13a53.57,53.57,0,0,1,5.7-3.52" transform="translate(0 -0.03)"/><path class="cls-1" d="M307.41,58.06q2.72-1.72,5.51-3.32" transform="translate(0 -0.03)"/><path class="cls-1" d="M307.58,63.57q2.48-1.71,5.09-3.23" transform="translate(0 -0.03)"/><path class="cls-1" d="M312.22,65.79q2.43-2,4.73-4.09" transform="translate(0 -0.03)"/><path class="cls-1" d="M317.73,66.13,322.45,62" transform="translate(0 -0.03)"/><path class="cls-1" d="M324.57,66q2.32-2,4.54-4" transform="translate(0 -0.03)"/><path class="cls-1" d="M331,65.65a33,33,0,0,0,4.24-3.59" transform="translate(0 -0.03)"/><path class="cls-1" d="M338.45,64.37a33.32,33.32,0,0,0,2.87-2.56" transform="translate(0 -0.03)"/><path class="cls-1" d="M328.69,37.51a25.07,25.07,0,0,1,3.11-3.14" transform="translate(0 -0.03)"/><path class="cls-1" d="M334.24,37.48a12.85,12.85,0,0,1,2.3-2.61" transform="translate(0 -0.03)"/><path class="cls-1" d="M337.65,38.39l3-2.65" transform="translate(0 -0.03)"/><path class="cls-1" d="M340.74,41l3.15-2.85" transform="translate(0 -0.03)"/><path class="cls-1" d="M341.77,44.52q1.86-1.5,3.78-2.9" transform="translate(0 -0.03)"/><path class="cls-1" d="M341.42,48.16l3.1-1.54" transform="translate(0 -0.03)"/><path class="cls-1" d="M515.4,1.93c-1.22,2.38-3.2,5-2.78,7.65.13.79,16,31,21.33,38.93" transform="translate(0 -0.03)"/><path class="cls-1" d="M522.38,50.72a52.14,52.14,0,0,0-5.15,3.74c-.22.41.76,9.89,1.46,10.3.4.23,12.84.5,17.17-2.21a20.34,20.34,0,0,0,5.59-5.64" transform="translate(0 -0.03)"/><path class="cls-1" d="M553.1,2.69c-1.64.84-3.7,1.55-5.33,2.39-.57.29-5.73,13.16-7.07,18.44" transform="translate(0 -0.03)"/><path class="cls-1" d="M517.21,6.51l-2.84,6.13" transform="translate(0 -0.03)"/><path class="cls-1" d="M516.48,16.91a4,4,0,0,1,.69-1.49q1.32-2,2.79-4" transform="translate(0 -0.03)"/><path class="cls-1" d="M518.75,21.32A40.9,40.9,0,0,1,522,15.56" transform="translate(0 -0.03)"/><path class="cls-1" d="M521,26.16l3.69-5.71" transform="translate(0 -0.03)"/><path class="cls-1" d="M523.54,30.46a38.39,38.39,0,0,1,3.55-4.64" transform="translate(0 -0.03)"/><path class="cls-1" d="M525.72,34.39a60.84,60.84,0,0,1,3.63-5.14" transform="translate(0 -0.03)"/><path class="cls-1" d="M527.88,38.19l3.87-4.54" transform="translate(0 -0.03)"/><path class="cls-1" d="M529.87,42.12q1.84-2.36,3.82-4.61" transform="translate(0 -0.03)"/><path class="cls-1" d="M532.39,45.72a40.81,40.81,0,0,0,3.47-4.29" transform="translate(0 -0.03)"/><path class="cls-1" d="M545.82,9.79l4.92-2.55a.83.83,0,0,0,.4-.33" transform="translate(0 -0.03)"/><path class="cls-1" d="M543.58,15.57A46.77,46.77,0,0,1,549,12.38s.05,0,0-.06-.06,0,0,0" transform="translate(0 -0.03)"/><path class="cls-1" d="M541.56,20.52q2.61-1.28,5.3-2.4" transform="translate(0 -0.03)"/><path class="cls-1" d="M541.27,24.6q2.08-1.24,4.11-2.55s.08-.05.08-.1-.07-.08-.08,0" transform="translate(0 -0.03)"/><path class="cls-1" d="M517.63,58.45a25.84,25.84,0,0,1,4.26-3.18" transform="translate(0 -0.03)"/><path class="cls-1" d="M518.24,62.89a18.55,18.55,0,0,1,4.08-3.43" transform="translate(0 -0.03)"/><path class="cls-1" d="M521.65,65.14A36.32,36.32,0,0,1,525,62" transform="translate(0 -0.03)"/><path class="cls-1" d="M527.36,64.92q1.39-1.88,2.94-3.64" transform="translate(0 -0.03)"/><path class="cls-1" d="M532.85,63.71a10.29,10.29,0,0,1,1.89-2.9" transform="translate(0 -0.03)"/><path class="cls-1" d="M808.65,14.28c-2.63,2.42-5.56,7.93-7,11.21-2.46,5.67-2.25,21.5,5.83,32.12,2.56,3.37,7.26,5.13,11.43,5.84s16.2-.25,17.88-1.21" transform="translate(0 -0.03)"/><path class="cls-1" d="M825,14.21c1.48-1.16,5.12-.81,6.25.7a23.38,23.38,0,0,1,2.39,6.71c.26,2.14.72,6.27,2.36,7.67,1.35,1.15,7.08,1,9.21.88,2-.12,3.85-.16,5.42-1.33s3.47-3.24,5.08-4.58" transform="translate(0 -0.03)"/><path class="cls-1" d="M842.88,39.81c-.69.27-6.84,2.92-7.29,3.89a52.27,52.27,0,0,0-2,7.37" transform="translate(0 -0.03)"/><path class="cls-1" d="M800.6,28.5q2.23-2.09,4.52-4.12l-.19.21" transform="translate(0 -0.03)"/><path class="cls-1" d="M800.1,35.58a31.56,31.56,0,0,1,4.08-4.17" transform="translate(0 -0.03)"/><path class="cls-1" d="M800.83,41.85a23.26,23.26,0,0,1,3.06-3.71,1.9,1.9,0,0,1,.6-.45" transform="translate(0 -0.03)"/><path class="cls-1" d="M802.72,47.63a21.86,21.86,0,0,1,3.16-3.52" transform="translate(0 -0.03)"/><path class="cls-1" d="M805.07,53.4a23.24,23.24,0,0,1,3.4-3.6" transform="translate(0 -0.03)"/><path class="cls-1" d="M807.7,57.52l3.8-4.12" transform="translate(0 -0.03)"/><path class="cls-1" d="M811,60.7q1.71-2,3.55-3.88" transform="translate(0 -0.03)"/><path class="cls-1" d="M815.13,62.38q1.48-1.64,3.07-3.18" transform="translate(0 -0.03)"/><path class="cls-1" d="M819.81,63.55A19.13,19.13,0,0,1,822.38,61" transform="translate(0 -0.03)"/><path class="cls-1" d="M825.05,63.23a4.41,4.41,0,0,1,1.22-1.54" transform="translate(0 -0.03)"/><path class="cls-1" d="M834.44,48.09,841,44.33a.68.68,0,0,0,.26-.22.23.23,0,0,0,0-.31" transform="translate(0 -0.03)"/><path class="cls-1" d="M830.42,14.24A19.45,19.45,0,0,1,833,12.09" transform="translate(0 -0.03)"/><path class="cls-1" d="M832.92,19.15a69.74,69.74,0,0,1,5.39-4.62" transform="translate(0 -0.03)"/><path class="cls-1" d="M833.74,23.14Q837,20.48,840.41,18" transform="translate(0 -0.03)"/><path class="cls-1" d="M835.23,28.38q3-2.21,5.83-4.66" transform="translate(0 -0.03)"/><path class="cls-1" d="M842,29.86q2.7-2.77,5.61-5.31" transform="translate(0 -0.03)"/><path class="cls-1" d="M909.11,2.25a67.28,67.28,0,0,0-4.41,7.17,13.63,13.63,0,0,0-1.17,2.69,15.17,15.17,0,0,0-.38,4l-.25,43.24c0,2.49-.3,6,1.66,7.54C906,68,921.33,68,926.42,67.5c9.65-.87,19.08-3.65,26.18-10.24" transform="translate(0 -0.03)"/><path class="cls-1" d="M922.59,15.77c3-.52,12.46,0,13.37.72,1.16.9,1.67,3.07,1.84,4.53s-.71,3.62-.93,5.07" transform="translate(0 -0.03)"/><path class="cls-1" d="M922.59,40.18c1.32-.59,8.22-1,10.22-.78,2.69.34,5,1.88,5.47,3.31a28.87,28.87,0,0,1,.48,7.67" transform="translate(0 -0.03)"/><path class="cls-1" d="M903.31,17.06a6.33,6.33,0,0,1,1-1.42,35.67,35.67,0,0,1,5.13-4.89" transform="translate(0 -0.03)"/><path class="cls-1" d="M903.16,24.81a41.58,41.58,0,0,1,4.06-4.29,8.57,8.57,0,0,1,1.86-1.39" transform="translate(0 -0.03)"/><path class="cls-1" d="M903.22,32.79a28.25,28.25,0,0,1,5.73-5" transform="translate(0 -0.03)"/><path class="cls-1" d="M903.07,40.73a26.52,26.52,0,0,1,5.88-5.28" transform="translate(0 -0.03)"/><path class="cls-1" d="M902.84,47.91a12.52,12.52,0,0,1,3.19-2.7l2.81-1.88" transform="translate(0 -0.03)"/><path class="cls-1" d="M903,55.63a9.36,9.36,0,0,1,1.84-1.88,22,22,0,0,1,2.55-2A11,11,0,0,1,908.9,51" transform="translate(0 -0.03)"/><path class="cls-1" d="M902.81,62.21l5.21-4a7.21,7.21,0,0,1,1-.66" transform="translate(0 -0.03)"/><path class="cls-1" d="M906.13,67q3-2.59,6.18-5" transform="translate(0 -0.03)"/><path class="cls-1" d="M913.33,67.4q2.74-3,5.67-5.74" transform="translate(0 -0.03)"/><path class="cls-1" d="M921.22,67.88q3.15-3.06,6.19-6.23" transform="translate(0 -0.03)"/><path class="cls-1" d="M930.13,66.87l5-5.11" transform="translate(0 -0.03)"/><path class="cls-1" d="M938.4,65.4l3.75-4.33" transform="translate(0 -0.03)"/><path class="cls-1" d="M939.21,48.3a8.51,8.51,0,0,1,1.73-1.6l3-2.28" transform="translate(0 -0.03)"/><path class="cls-1" d="M938.64,44.8q2.2-2.42,4.59-4.66" transform="translate(0 -0.03)"/><path class="cls-1" d="M936.56,40.56a20.46,20.46,0,0,1,2.84-3.75" transform="translate(0 -0.03)"/><path class="cls-1" d="M931.35,38.92a16.4,16.4,0,0,1,2.12-2.55" transform="translate(0 -0.03)"/><path class="cls-1" d="M925.23,39.4a22.25,22.25,0,0,1,2.4-3.27" transform="translate(0 -0.03)"/><path class="cls-1" d="M924.84,15.32c-.06-.28.17-.54.38-.74l2.43-2.28" transform="translate(0 -0.03)"/><path class="cls-1" d="M929.08,15.5c1.53-.92,2.52-2.61,4.16-3.32" transform="translate(0 -0.03)"/><path class="cls-1" d="M933.89,15.88a37.41,37.41,0,0,1,3.86-3.05" transform="translate(0 -0.03)"/><path class="cls-1" d="M937.12,17.86a18.2,18.2,0,0,1,3.64-3.11" transform="translate(0 -0.03)"/><path class="cls-1" d="M937.68,21.59q2.06-1.3,4.09-2.66" transform="translate(0 -0.03)"/><path class="cls-1" d="M1040.21,18.53c2-1.9,5.13-2,7.92-2,1.42,0,3,.08,3.94,1.17a4.44,4.44,0,0,1,.79,1.79,23.79,23.79,0,0,1,.64,8" transform="translate(0 -0.03)"/><path class="cls-1" d="M1045.23,43.91c1.28-.28,7.64-.47,8.36.62s-.29,22,1.68,23.18c1,.63,14.62.48,15,.3a26.57,26.57,0,0,0,4.12-7.14" transform="translate(0 -0.03)"/><path class="cls-1" d="M1027.73,10.9c-9.4,16.29,1.67,23.94,1.85,25,.43,2.4-13.91,27.6-12.25,29.35,1.17,1.24,16,2.72,16.34,2.42a22.41,22.41,0,0,0,5.13-6.21" transform="translate(0 -0.03)"/><path class="cls-1" d="M1024,25.84q1.16-1.91,2.41-3.76" transform="translate(0 -0.03)"/><path class="cls-1" d="M1026.26,31.26q1.35-1.9,2.73-3.78s.08-.1.14-.09.07.12,0,.11" transform="translate(0 -0.03)"/><path class="cls-1" d="M1029.05,35.45a28.28,28.28,0,0,1,2.71-3.75" transform="translate(0 -0.03)"/><path class="cls-1" d="M1027.87,40.7a59.17,59.17,0,0,1,7.59-3.63.35.35,0,0,1-.33.21" transform="translate(0 -0.03)"/><path class="cls-1" d="M1024.85,47c1.73-1.08,3.11-2,4.84-3.09a16.26,16.26,0,0,1,2.79-1.42" transform="translate(0 -0.03)"/><path class="cls-1" d="M1022,53c1.05-.55,1.65-1,2.7-1.52a12.06,12.06,0,0,1,4.31-1.59" transform="translate(0 -0.03)"/><path class="cls-1" d="M1018.94,59.58a23.58,23.58,0,0,1,6.78-2.87" transform="translate(0 -0.03)"/><path class="cls-1" d="M1018.78,65.73a43.48,43.48,0,0,1,6.48-4.54l-.21.18" transform="translate(0 -0.03)"/><path class="cls-1" d="M1024.7,66.67c0-.27.54-.72.75-.9l5.46-4.79" transform="translate(0 -0.03)"/><path class="cls-1" d="M1030.93,67.44a2.69,2.69,0,0,1,.77-.93c1.74-1.54,3.86-3.26,5.6-4.79" transform="translate(0 -0.03)"/><path class="cls-1" d="M1046.21,43.7a49.41,49.41,0,0,0,6.81-5.79,1.17,1.17,0,0,1,.87-.47" transform="translate(0 -0.03)"/><path class="cls-1" d="M1053.41,44.35c2.06-1.87,4.77-4.44,6.83-6.3" transform="translate(0 -0.03)"/><path class="cls-1" d="M1053.73,51.3a47.32,47.32,0,0,1,6.55-6" transform="translate(0 -0.03)"/><path class="cls-1" d="M1054,57.33a42.08,42.08,0,0,1,6.3-5.72" transform="translate(0 -0.03)"/><path class="cls-1" d="M1054.21,63.61l6-5.75" transform="translate(0 -0.03)"/><path class="cls-1" d="M1056.53,68.17l6.75-6.73" transform="translate(0 -0.03)"/><path class="cls-1" d="M1064.4,68a67.81,67.81,0,0,0,5.26-7.3l-.37.18" transform="translate(0 -0.03)"/><path class="cls-1" d="M1043,17.28a1.81,1.81,0,0,1,.73-1.21q1.87-1.75,3.83-3.42" transform="translate(0 -0.03)"/><path class="cls-1" d="M1049.86,16.43a23.77,23.77,0,0,1,4.78-4.21" transform="translate(0 -0.03)"/><path class="cls-1" d="M1053.19,19.83q3.6-3.17,7.45-6" transform="translate(0 -0.03)"/><path class="cls-1" d="M1053.41,24.56q3.25-2.6,6.64-5" transform="translate(0 -0.03)"/><path class="cls-1" d="M1056.26,27.58a35,35,0,0,1,4.29-3.31.23.23,0,0,0-.25-.06" transform="translate(0 -0.03)"/><path class="cls-2" d="M1073.77,1.48c-.3-.24-28.14.12-30.4.37a26.2,26.2,0,0,0-8.95,2.31,16.06,16.06,0,0,0-8.52,14.42c0,6,3.09,12.53,8.44,15.19.86.43,2.08.38,2,1.33a2.24,2.24,0,0,1-.33.85,219.8,219.8,0,0,0-11.74,24.62.64.64,0,0,0,.7.86c4.79-.75,13.39.54,13.68.36s5.2-15.84,8.85-22.74a1.82,1.82,0,0,1,.51-.68,1.84,1.84,0,0,1,1-.24l11.28-.72c-.1,4.87,0,24,.18,24.21s9.88-.1,13.74-.1C1074.94,59.92,1074.12,1.75,1073.77,1.48Zm-13.42,26.09a128.37,128.37,0,0,1-15-.62c-1-.13-3.83-1.73-4.48-3.85a9.6,9.6,0,0,1-.66-3.69,8.4,8.4,0,0,1,2.5-5.33c1.77-1.88,15.24-2.16,17-2C1060.87,12.25,1060.23,23.83,1060.35,27.57Z" transform="translate(0 -0.03)"/><path class="cls-1" d="M392.45,2.79c-1.67,1.73-5.72,5.94-5.92,6.41s-1,57.05-.83,57.4,43.84.8,44.42.51a12,12,0,0,0,5-5.29" transform="translate(0 -0.03)"/><path class="cls-1" d="M434.83,13.41a36,36,0,0,1-5.91,5.75c-.84.45-16.89-1-23.83-.3" transform="translate(0 -0.03)"/><path class="cls-1" d="M428.92,36.69c-2.07,2.18-6.7,7.06-7,7.19s-10.52.15-16.33-.1c.15,0-.39.87-.24.9" transform="translate(0 -0.03)"/><path class="cls-1" d="M391.9,7.82q-2.79,3.27-5.48,6.63" transform="translate(0 -0.03)"/><path class="cls-1" d="M391.75,14.53A64,64,0,0,0,386.26,21" transform="translate(0 -0.03)"/><path class="cls-1" d="M391.77,21.5l-5.68,6.82" transform="translate(0 -0.03)"/><path class="cls-1" d="M391.93,28.15l-5.87,6.66" transform="translate(0 -0.03)"/><path class="cls-1" d="M391.84,34.63a55.13,55.13,0,0,0-6.06,6.89" transform="translate(0 -0.03)"/><path class="cls-1" d="M391.72,42.19l-3.65,3.73a15.14,15.14,0,0,0-2.19,2.6" transform="translate(0 -0.03)"/><path class="cls-1" d="M391.81,48.16a84.63,84.63,0,0,0-6,6" transform="translate(0 -0.03)"/><path class="cls-1" d="M391.68,53.78l-1.37,1.14a32,32,0,0,0-4.61,4.38" transform="translate(0 -0.03)"/><path class="cls-1" d="M391.78,59.86a4.54,4.54,0,0,1-.87.89c-1.95,1.66-3.29,2.85-5.24,4.51" transform="translate(0 -0.03)"/><path class="cls-1" d="M396.58,61.79a39.6,39.6,0,0,0-4.51,4.95" transform="translate(0 -0.03)"/><path class="cls-1" d="M404.74,61.52a63.8,63.8,0,0,0-5.41,5.43" transform="translate(0 -0.03)"/><path class="cls-1" d="M410.22,61.81a58.62,58.62,0,0,0-5.07,5.14" transform="translate(0 -0.03)"/><path class="cls-1" d="M431.08,61.62a42.75,42.75,0,0,0-4.33,5.48" transform="translate(0 -0.03)"/><path class="cls-1" d="M425.18,62c-1.68,1.28-2.91,3.53-4.3,5.12" transform="translate(0 -0.03)"/><path class="cls-1" d="M418.94,62a19.61,19.61,0,0,0-3.46,5.16" transform="translate(0 -0.03)"/><path class="cls-1" d="M413.4,61.88a27.3,27.3,0,0,0-3.47,5.19" transform="translate(0 -0.03)"/><path class="cls-1" d="M410.49,36.9q-2,3.2-3.67,6.57" transform="translate(0 -0.03)"/><path class="cls-1" d="M410.48,43.71q2.24-3.43,4.26-7" transform="translate(0 -0.03)"/><path class="cls-1" d="M416.56,43.79c-.1-.05,0-.2,0-.3L420.9,37" transform="translate(0 -0.03)"/><path class="cls-1" d="M425.18,19.28l4.2-6-.39.12" transform="translate(0 -0.03)"/><path class="cls-1" d="M420.82,18.8a15.15,15.15,0,0,0,1.25-1.37,40.73,40.73,0,0,1,3.37-4.32" transform="translate(0 -0.03)"/><path class="cls-1" d="M416.19,18.87l4.55-6.08" transform="translate(0 -0.03)"/><path class="cls-1" d="M412.27,18.51l3.3-5.63" transform="translate(0 -0.03)"/><path class="cls-1" d="M407,18.43l1.74-3L410,13.17l.23-.37" transform="translate(0 -0.03)"/><path class="cls-2" d="M391.89,61.31c-.07.52,43.05.74,43.26.52s.24-11.49,0-11.75-28,.25-28.63-.08c-1-.53-.48-12.74-.07-13.17s22.1.43,22.42,0,.8-10.86.08-11.17-21.85.3-22.26,0-.48-12-.08-12.39,19,0,28.25.17c-.06-3.23.54-11.14.17-11.65,0,0-42.19-.23-42.75.9C391.07,5,392,60.17,391.89,61.31Z" transform="translate(0 -0.03)"/><path class="cls-1" d="M619.45,2.95c-1.67,1.73-5.72,5.94-5.92,6.41s-1,57.05-.83,57.4,43.84.8,44.42.51a12,12,0,0,0,5-5.29" transform="translate(0 -0.03)"/><path class="cls-1" d="M661.83,13.56a36,36,0,0,1-5.91,5.75c-.84.45-16.89-1-23.83-.3" transform="translate(0 -0.03)"/><path class="cls-1" d="M655.92,36.84c-2.07,2.18-6.7,7.06-7,7.19s-10.52.15-16.33-.1c.15,0-.39.87-.24.9" transform="translate(0 -0.03)"/><path class="cls-1" d="M618.9,8q-2.79,3.27-5.48,6.63" transform="translate(0 -0.03)"/><path class="cls-1" d="M618.75,14.69a64,64,0,0,0-5.49,6.51" transform="translate(0 -0.03)"/><path class="cls-1" d="M618.77,21.65l-5.68,6.82" transform="translate(0 -0.03)"/><path class="cls-1" d="M618.93,28.3,613.06,35" transform="translate(0 -0.03)"/><path class="cls-1" d="M618.84,34.78a55.13,55.13,0,0,0-6.06,6.89" transform="translate(0 -0.03)"/><path class="cls-1" d="M618.72,42.35l-3.65,3.73a15.14,15.14,0,0,0-2.19,2.6" transform="translate(0 -0.03)"/><path class="cls-1" d="M618.81,48.32a84.63,84.63,0,0,0-6,6" transform="translate(0 -0.03)"/><path class="cls-1" d="M618.68,53.94l-1.37,1.14a32,32,0,0,0-4.61,4.38" transform="translate(0 -0.03)"/><path class="cls-1" d="M618.78,60a4.54,4.54,0,0,1-.87.89c-1.95,1.66-3.29,2.85-5.24,4.51" transform="translate(0 -0.03)"/><path class="cls-1" d="M623.58,61.95a39.6,39.6,0,0,0-4.51,4.95" transform="translate(0 -0.03)"/><path class="cls-1" d="M631.74,61.67a63.8,63.8,0,0,0-5.41,5.43" transform="translate(0 -0.03)"/><path class="cls-1" d="M637.22,62a58.62,58.62,0,0,0-5.07,5.14" transform="translate(0 -0.03)"/><path class="cls-1" d="M658.08,61.77a42.75,42.75,0,0,0-4.33,5.48" transform="translate(0 -0.03)"/><path class="cls-1" d="M652.18,62.13c-1.68,1.28-2.91,3.53-4.3,5.12" transform="translate(0 -0.03)"/><path class="cls-1" d="M645.94,62.13a19.61,19.61,0,0,0-3.46,5.16" transform="translate(0 -0.03)"/><path class="cls-1" d="M640.4,62a27.3,27.3,0,0,0-3.47,5.19" transform="translate(0 -0.03)"/><path class="cls-1" d="M637.49,37.06q-2,3.2-3.67,6.57" transform="translate(0 -0.03)"/><path class="cls-1" d="M637.48,43.86q2.24-3.43,4.26-7" transform="translate(0 -0.03)"/><path class="cls-1" d="M643.56,43.94c-.1-.05,0-.2,0-.3l4.32-6.53" transform="translate(0 -0.03)"/><path class="cls-1" d="M652.18,19.44l4.2-6-.39.12" transform="translate(0 -0.03)"/><path class="cls-1" d="M647.82,19a15.15,15.15,0,0,0,1.25-1.37,40.73,40.73,0,0,1,3.37-4.32" transform="translate(0 -0.03)"/><path class="cls-1" d="M643.19,19l4.55-6.08" transform="translate(0 -0.03)"/><path class="cls-1" d="M639.27,18.66l3.3-5.63" transform="translate(0 -0.03)"/><path class="cls-1" d="M634,18.58l1.74-3L637,13.33l.23-.37" transform="translate(0 -0.03)"/><path class="cls-2" d="M618.89,61.46c-.07.52,43.05.74,43.26.52s.24-11.49,0-11.75-28,.25-28.63-.08c-1-.53-.48-12.74-.07-13.17s22.1.43,22.42,0,.8-10.86.08-11.17-21.85.3-22.26,0-.48-12-.08-12.39,19,0,28.25.17c-.06-3.23.54-11.14.17-11.65,0,0-42.19-.23-42.75.9C618.07,5.19,619,60.32,618.89,61.46Z" transform="translate(0 -0.03)"/><path class="cls-1" d="M757.45,2.95c-1.67,1.73-5.72,5.94-5.92,6.41s-1,57.05-.83,57.4,43.84.8,44.42.51a12,12,0,0,0,5-5.29" transform="translate(0 -0.03)"/><path class="cls-1" d="M799.83,13.56a36,36,0,0,1-5.91,5.75c-.84.45-16.89-1-23.83-.3" transform="translate(0 -0.03)"/><path class="cls-1" d="M793.92,36.84c-2.07,2.18-6.7,7.06-7,7.19s-10.52.15-16.33-.1c.15,0-.39.87-.24.9" transform="translate(0 -0.03)"/><path class="cls-1" d="M756.9,8q-2.79,3.27-5.48,6.63" transform="translate(0 -0.03)"/><path class="cls-1" d="M756.75,14.69a64,64,0,0,0-5.49,6.51" transform="translate(0 -0.03)"/><path class="cls-1" d="M756.77,21.65l-5.68,6.82" transform="translate(0 -0.03)"/><path class="cls-1" d="M756.93,28.3,751.06,35" transform="translate(0 -0.03)"/><path class="cls-1" d="M756.84,34.78a55.13,55.13,0,0,0-6.06,6.89" transform="translate(0 -0.03)"/><path class="cls-1" d="M756.72,42.35l-3.65,3.73a15.14,15.14,0,0,0-2.19,2.6" transform="translate(0 -0.03)"/><path class="cls-1" d="M756.81,48.32a84.63,84.63,0,0,0-6,6" transform="translate(0 -0.03)"/><path class="cls-1" d="M756.68,53.94l-1.37,1.14a32,32,0,0,0-4.61,4.38" transform="translate(0 -0.03)"/><path class="cls-1" d="M756.78,60a4.54,4.54,0,0,1-.87.89c-1.95,1.66-3.29,2.85-5.24,4.51" transform="translate(0 -0.03)"/><path class="cls-1" d="M761.58,61.95a39.6,39.6,0,0,0-4.51,4.95" transform="translate(0 -0.03)"/><path class="cls-1" d="M769.74,61.67a63.8,63.8,0,0,0-5.41,5.43" transform="translate(0 -0.03)"/><path class="cls-1" d="M775.22,62a58.62,58.62,0,0,0-5.07,5.14" transform="translate(0 -0.03)"/><path class="cls-1" d="M796.08,61.77a42.75,42.75,0,0,0-4.33,5.48" transform="translate(0 -0.03)"/><path class="cls-1" d="M790.18,62.13c-1.68,1.28-2.91,3.53-4.3,5.12" transform="translate(0 -0.03)"/><path class="cls-1" d="M783.94,62.13a19.61,19.61,0,0,0-3.46,5.16" transform="translate(0 -0.03)"/><path class="cls-1" d="M778.4,62a27.3,27.3,0,0,0-3.47,5.19" transform="translate(0 -0.03)"/><path class="cls-1" d="M775.49,37.06q-2,3.2-3.67,6.57" transform="translate(0 -0.03)"/><path class="cls-1" d="M775.48,43.86q2.24-3.43,4.26-7" transform="translate(0 -0.03)"/><path class="cls-1" d="M781.56,43.94c-.1-.05,0-.2,0-.3l4.32-6.53" transform="translate(0 -0.03)"/><path class="cls-1" d="M790.18,19.44l4.2-6-.39.12" transform="translate(0 -0.03)"/><path class="cls-1" d="M785.82,19a15.15,15.15,0,0,0,1.25-1.37,40.73,40.73,0,0,1,3.37-4.32" transform="translate(0 -0.03)"/><path class="cls-1" d="M781.19,19l4.55-6.08" transform="translate(0 -0.03)"/><path class="cls-1" d="M777.27,18.66l3.3-5.63" transform="translate(0 -0.03)"/><path class="cls-1" d="M772,18.58l1.74-3L775,13.33l.23-.37" transform="translate(0 -0.03)"/><path class="cls-2" d="M756.89,61.46c-.07.52,43.05.74,43.26.52s.24-11.49,0-11.75-28,.25-28.63-.08c-1-.53-.48-12.74-.07-13.17s22.1.43,22.42,0,.8-10.86.08-11.17-21.85.3-22.26,0-.48-12-.08-12.39,19,0,28.25.17c-.06-3.23.54-11.14.17-11.65,0,0-42.19-.23-42.75.9C756.07,5.19,757,60.32,756.89,61.46Z" transform="translate(0 -0.03)"/><path class="cls-3" d="M134.18,16.78c3.87-3.11,7.91-.25,8.61,4.06a49.28,49.28,0,0,1,.24,10.1c-.32,6.75-1.36,13.47-1.37,20.23l1-.13a1.65,1.65,0,0,0-.47-.8c-.45-.47-1.15.24-.71.71l.21.36a.5.5,0,0,0,1-.13c0-9.6,2.1-19.14,1.3-28.76-.22-2.61-.74-5.19-2.94-6.85-2.49-1.88-5.24-1.35-7.55.51-.5.4.21,1.11.71.71Z" transform="translate(0 -0.03)"/><path class="cls-3" d="M127.73,3.67a24.58,24.58,0,0,0-6.52,4.42,29.8,29.8,0,0,0-6.43,7.15C110.66,21.88,109,30,109,37.73c0,13.4,8.8,27,22.58,29.62,8.6,1.64,15.85-2.51,22.08-8.07.48-.43-.23-1.13-.71-.71-5.56,5-12,9-19.79,8a25.78,25.78,0,0,1-16-9c-9.14-10.54-9.06-26.7-3.2-38.86A27.6,27.6,0,0,1,120.52,10c2.2-2,4.69-4.29,7.48-5.36.59-.23.34-1.2-.27-1Z" transform="translate(0 -0.03)"/><path class="cls-1" d="M120.51,11.77l-5,3.27" transform="translate(0 -0.03)"/><path class="cls-1" d="M118,17.58c0,.08.14-.06.07-.1s-.16,0-.22.05l-4.95,3.66a3.54,3.54,0,0,0-1,.92" transform="translate(0 -0.03)"/><path class="cls-1" d="M116.12,24.35l-5.87,4.75" transform="translate(0 -0.03)"/><path class="cls-1" d="M115.58,30.45l-6.06,5.46" transform="translate(0 -0.03)"/><path class="cls-1" d="M115.94,37.18c-2.18,2-4,3.76-6,5.85" transform="translate(0 -0.03)"/><path class="cls-1" d="M117,44.23l-5.44,5" transform="translate(0 -0.03)"/><path class="cls-1" d="M119.5,49.11l-5.22,5.32" transform="translate(0 -0.03)"/><path class="cls-1" d="M123.88,54.74l-5.09,4.91" transform="translate(0 -0.03)"/><path class="cls-1" d="M128.93,58.67q-2.57,2.52-5.09,5.09c-.12.12-.36,0-.29-.2a.19.19,0,0,1,.34.08" transform="translate(0 -0.03)"/><path class="cls-1" d="M134,61.16c-1.56,1.52-3.39,3.49-5,5" transform="translate(0 -0.03)"/><path class="cls-1" d="M140.47,62.28a40.92,40.92,0,0,0-4.19,5" transform="translate(0 -0.03)"/><path class="cls-1" d="M146.1,61.78a18.79,18.79,0,0,0-2.86,3.79" transform="translate(0 -0.03)"/><path class="cls-1" d="M142.79,12.23a1.69,1.69,0,0,0-1,.61l-2.4,2.38" transform="translate(0 -0.03)"/><path class="cls-1" d="M147.59,14.07q-2.36,2.33-4.54,4.84" transform="translate(0 -0.03)"/><path class="cls-1" d="M150.09,17.44a81.54,81.54,0,0,0-6.69,6.82" transform="translate(0 -0.03)"/><path class="cls-1" d="M151.57,22.94a33.43,33.43,0,0,1-3.78,4.19c-1.43,1.28-3.09,2.37-4.08,4l.08-.5" transform="translate(0 -0.03)"/><path class="cls-1" d="M152.29,29.9q-5.06,5.34-9.7,11.06" transform="translate(0 -0.03)"/><path class="cls-1" d="M151.81,36.92a114.87,114.87,0,0,1-9.31,9.56" transform="translate(0 -0.03)"/><path class="cls-1" d="M150,44.45a66.77,66.77,0,0,0-6.84,6.45" transform="translate(0 -0.03)"/><path class="cls-4" d="M166.49,31.39c-.42-20.15-10.5-30.3-25-30.88-34.06-1.08-35.68,60.61-.78,61.75C156.9,62.79,166.84,48.15,166.49,31.39Zm-25.12,19.5c-17.4,1.1-13.21-40-.68-38.87,10.14-.83,11,12.68,11.14,14C152.57,35.68,151.93,50.22,141.36,50.89Z" transform="translate(0 -0.03)"/><path class="cls-3" d="M167,31.39c-.21-7.7-1.7-15.76-6.47-22A24,24,0,0,0,144.44.27a24.48,24.48,0,0,0-25.21,12.67c-9.48,17-4.13,46.07,18,49.5a24,24,0,0,0,21.31-6.91c6.11-6.41,8.55-15.46,8.45-24.14a.5.5,0,0,0-1,0c.18,15.12-8.88,31.19-25.79,30.35-10.26-.5-18.32-7.16-22-16.56C111.7,28.47,118.13,2,139.35,1,146.2.71,153.2,3,158,8c6,6.2,7.75,15.11,8,23.42A.5.5,0,0,0,167,31.39Z" transform="translate(0 -0.03)"/><path class="cls-3" d="M141.36,50.39c-13.47.61-12-20.92-9.24-29.07,1.76-5.22,5-9.94,11.16-8.68s7.71,8.65,8.09,13.92c.56,7.92.77,22.88-10,23.83-.64.06-.64,1.06,0,1,9.91-.88,11.25-12.61,11.18-20.52-.05-5.93-.47-13.83-5.69-17.7a9.89,9.89,0,0,0-9-1.22c-2.37,1-4,3.21-5.18,5.4-3.22,6.14-4.06,13.89-3.12,20.69.89,6.45,4.22,13.7,11.78,13.35C142,51.36,142,50.36,141.36,50.39Z" transform="translate(0 -0.03)"/><path class="cls-1" d="M365.41,2.58c-2.16,1.91-5.74,4.88-6.24,6.81s-.84,54.95.3,57.84c.17.44,10.07,1.25,13.23.81,1.77-.25,5.24-3.27,6.69-6.25" transform="translate(0 -0.03)"/><path class="cls-1" d="M358.75,15.57" transform="translate(0 -0.03)"/><path class="cls-1" d="M359,15.09a39.1,39.1,0,0,1,6.24-5.76" transform="translate(0 -0.03)"/><path class="cls-1" d="M358.54,22.12a58.08,58.08,0,0,1,6.79-6.46c.19-.15.51.15.37.35s-.53,0-.45-.23" transform="translate(0 -0.03)"/><path class="cls-1" d="M358.84,28.25q3.06-2.79,6.36-5.31" transform="translate(0 -0.03)"/><path class="cls-1" d="M358.93,35.75a70.88,70.88,0,0,1,6.19-5.81" transform="translate(0 -0.03)"/><path class="cls-1" d="M358.58,43.83A89,89,0,0,1,365.15,37s.1-.11.07-.16-.13,0-.07.05" transform="translate(0 -0.03)"/><path class="cls-1" d="M358.71,51.4A40.6,40.6,0,0,1,365,46l-.31.17" transform="translate(0 -0.03)"/><path class="cls-1" d="M359.08,57.73c2.07-2,3.76-3.57,5.93-5.48" transform="translate(0 -0.03)"/><path class="cls-1" d="M359.1,64.18q2.93-3.07,6-6" transform="translate(0 -0.03)"/><path class="cls-1" d="M362.59,67.68c1.87-1.67,3.87-4,5.95-5.4" transform="translate(0 -0.03)"/><path class="cls-1" d="M369,68a63.91,63.91,0,0,0,5.83-5.58" transform="translate(0 -0.03)"/><path class="cls-4" d="M365.41,2.58c0,15.2-.88,59.22.13,59.34,1.25.16,13.59,1,13.86-.13.45-1.93.43-59.39-.06-59.53s-10.23-.63-13.92.32" transform="translate(0 -0.03)"/><path class="cls-3" d="M364.91,2.58c0,13.76-.29,27.51-.35,41.27,0,5.26-.12,10.54.16,15.79,0,.65-.11,2.08.41,2.6.86.86,4.29.46,5.39.51,2.55.12,5.83.64,8.32-.13,1-.3,1-.66,1.11-1.57.33-3.58.17-7.27.2-10.87q.15-18.29,0-36.57c0-2.42-.05-4.84-.1-7.26a14.2,14.2,0,0,0-.15-3.84c-.42-1.22-1.84-.87-3-.92-3.79-.15-7.84-.36-11.56.51-.63.15-.36,1.11.27,1a40.25,40.25,0,0,1,10-.51,15.63,15.63,0,0,1,3.36.16c-.07,0,0-.48,0,.24-.2,3.1.17,6.35.21,9.46.12,11.07.12,22.13.06,33.2,0,4.24,0,8.49-.14,12.74,0,.63.26,2.56-.11,3.1-.61.88-4.43.44-5.59.41-1.35,0-2.69-.09-4-.16a13.53,13.53,0,0,1-3.38-.23c-.56-.2.1.34,0,.09a1.65,1.65,0,0,1-.08-.52c0-.63-.09-1.26-.12-1.9-.21-4.82-.16-9.65-.14-14.47,0-14,.34-28.05.35-42.08a.5.5,0,0,0-1,0Z" transform="translate(0 -0.03)"/><path class="cls-1" d="M570,1.36c-1.82,2-3.87,2.43-4.44,5.08-.21,1,.45,12.32.94,12.78s8.73.57,12.37.55c.31,3.78.27,45.08.65,45.59.63.84,9.79.9,13.83.5.82-.08,4.92-3.25,5.58-4.67" transform="translate(0 -0.03)"/><path class="cls-1" d="M613.67,13.1a20.2,20.2,0,0,0-1.91,3.67,6.47,6.47,0,0,1-2.63,3.11,6.3,6.3,0,0,1-2.2.57c-3.15.35-6.48-.16-9.4,1.06a.41.41,0,0,0,.48.16" transform="translate(0 -0.03)"/><path class="cls-1" d="M565.55,9a21.85,21.85,0,0,1,3.7-2.81" transform="translate(0 -0.03)"/><path class="cls-1" d="M565.93,14.35a43.05,43.05,0,0,1,3.79-3l-.33.31" transform="translate(0 -0.03)"/><path class="cls-1" d="M567,19.52a75.69,75.69,0,0,1,7.7-6.13" transform="translate(0 -0.03)"/><path class="cls-1" d="M574.77,19.83c2.23-2,5.09-4.33,7.41-6.23" transform="translate(0 -0.03)"/><path class="cls-1" d="M578.91,24a51.85,51.85,0,0,1,5.69-5.42l-.34.15" transform="translate(0 -0.03)"/><path class="cls-1" d="M578.87,30.55l5.59-5-.33.16" transform="translate(0 -0.03)"/><path class="cls-1" d="M579,37.28q2.71-2.74,5.62-5.26" transform="translate(0 -0.03)"/><path class="cls-1" d="M579.22,44.21a52.7,52.7,0,0,1,6-5.85l-.66.46" transform="translate(0 -0.03)"/><path class="cls-1" d="M579.22,50a45,45,0,0,1,5.12-4.59" transform="translate(0 -0.03)"/><path class="cls-1" d="M579.4,55.85a37.4,37.4,0,0,1,4.84-4.31" transform="translate(0 -0.03)"/><path class="cls-1" d="M579.22,60.8c1.82-1.64,3.32-2.88,5.14-4.52" transform="translate(0 -0.03)"/><path class="cls-1" d="M580.88,65.79l5-4.44" transform="translate(0 -0.03)"/><path class="cls-1" d="M587.39,66.32a22.9,22.9,0,0,1,5.5-4.88" transform="translate(0 -0.03)"/><path class="cls-1" d="M598.57,16.63a18.76,18.76,0,0,1,4.8-3.52" transform="translate(0 -0.03)"/><path class="cls-1" d="M602.89,20.8c.63-.68,1.91-1.81,2.55-2.5A29.06,29.06,0,0,1,611,13.38" transform="translate(0 -0.03)"/><path class="cls-2" d="M569.73,13.13c.2.2,14.56.49,14.73.66s-.38,38.34.12,47.4c3.65.52,13.67.92,14.31,0,.42-.61-.64-47.89-.25-48.06s13.93.52,14.81.13.5-11.57-.06-11.9c-.29-.17-42.52-1-43.44,0C569.18,2.19,569.58,13,569.73,13.13Z" transform="translate(0 -0.03)"/><path class="cls-1" d="M860.59,2.54c-1.82,2-3.87,2.43-4.44,5.08-.21,1,.45,12.32.94,12.78s8.73.57,12.37.55c.31,3.78.27,45.08.65,45.59.63.84,9.79.9,13.83.5.82-.08,4.92-3.25,5.58-4.67" transform="translate(0 -0.03)"/><path class="cls-1" d="M904.31,14.28a20.2,20.2,0,0,0-1.91,3.67,6.47,6.47,0,0,1-2.63,3.11,6.3,6.3,0,0,1-2.2.57c-3.15.35-6.48-.16-9.4,1.06a.41.41,0,0,0,.48.16" transform="translate(0 -0.03)"/><path class="cls-1" d="M856.19,10.16a21.85,21.85,0,0,1,3.7-2.81" transform="translate(0 -0.03)"/><path class="cls-1" d="M856.57,15.54a43.05,43.05,0,0,1,3.79-3l-.33.31" transform="translate(0 -0.03)"/><path class="cls-1" d="M857.61,20.71a75.69,75.69,0,0,1,7.7-6.13" transform="translate(0 -0.03)"/><path class="cls-1" d="M865.41,21c2.23-2,5.09-4.33,7.41-6.23" transform="translate(0 -0.03)"/><path class="cls-1" d="M869.55,25.15a51.85,51.85,0,0,1,5.69-5.42l-.34.15" transform="translate(0 -0.03)"/><path class="cls-1" d="M869.51,31.73l5.59-5-.33.16" transform="translate(0 -0.03)"/><path class="cls-1" d="M869.61,38.47q2.71-2.74,5.62-5.26" transform="translate(0 -0.03)"/><path class="cls-1" d="M869.85,45.39a52.7,52.7,0,0,1,6-5.85l-.66.46" transform="translate(0 -0.03)"/><path class="cls-1" d="M869.85,51.16A45,45,0,0,1,875,46.57" transform="translate(0 -0.03)"/><path class="cls-1" d="M870,57a37.4,37.4,0,0,1,4.84-4.31" transform="translate(0 -0.03)"/><path class="cls-1" d="M869.85,62c1.82-1.64,3.32-2.88,5.14-4.52" transform="translate(0 -0.03)"/><path class="cls-1" d="M871.51,67l5-4.44" transform="translate(0 -0.03)"/><path class="cls-1" d="M878,67.5a22.9,22.9,0,0,1,5.5-4.88" transform="translate(0 -0.03)"/><path class="cls-1" d="M889.21,17.81a18.76,18.76,0,0,1,4.8-3.52" transform="translate(0 -0.03)"/><path class="cls-1" d="M893.53,22c.63-.68,1.91-1.81,2.55-2.5a29.06,29.06,0,0,1,5.56-4.92" transform="translate(0 -0.03)"/><path class="cls-2" d="M860.36,14.32c.2.2,14.56.49,14.73.66s-.38,38.34.12,47.4c3.65.52,13.67.92,14.31,0,.42-.61-.64-47.89-.25-48.06s13.93.52,14.81.13.5-11.57-.06-11.9c-.29-.17-42.52-1-43.44,0C859.82,3.38,860.21,14.16,860.36,14.32Z" transform="translate(0 -0.03)"/><path class="cls-2" d="M7.24,62.5c.25.18,13.23-.23,13.56-.62s.47-37.48.19-48.41c5.53.12,11.34-.64,16.87-.51.94,3.19.49,7.47.35,10.79C37.66,36.46,37.91,62,38,62.12A83,83,0,0,0,51.82,62a53.21,53.21,0,0,0-.08-9.46c-.16-3,.51-47.12-.06-50.31-.17-1-44-.35-44.49,0C6.36,2.83,6.55,62,7.24,62.5Z" transform="translate(0 -0.03)"/><path class="cls-1" d="M7.19,2.21C5.38,4.3.88,9.5.65,10.16s-.19,56.73,0,57,15,.44,15.54,0a53.18,53.18,0,0,0,4.14-5.25" transform="translate(0 -0.03)"/><path class="cls-1" d="M20.68,19.69c2,.13,10.37-.23,11,.18,1.42.93-.87,46.15,1.21,48,.31.27,13.75.58,13.93.43,2.61-2.14,3.28-3.55,5-6.3" transform="translate(0 -0.03)"/><path class="cls-1" d="M6.74,9.06A80,80,0,0,1,.5,15.16" transform="translate(0 -0.03)"/><path class="cls-1" d="M.5,21.4c2.22-1.75,4.11-3.16,6.43-4.78" transform="translate(0 -0.03)"/><path class="cls-1" d="M.5,27.68c2.3-1.73,4.23-3.32,6.39-5.22" transform="translate(0 -0.03)"/><path class="cls-1" d="M.5,33.91a76.1,76.1,0,0,1,6.13-5.1" transform="translate(0 -0.03)"/><path class="cls-1" d="M.57,40.77l6-4.93" transform="translate(0 -0.03)"/><path class="cls-1" d="M.49,46.86,7,42.14" transform="translate(0 -0.03)"/><path class="cls-1" d="M.42,53.12l4.12-3.25A20.29,20.29,0,0,1,6.9,48.19" transform="translate(0 -0.03)"/><path class="cls-1" d="M.64,58.41c2.44-1.53,4.2-2.66,6.61-4.24" transform="translate(0 -0.03)"/><path class="cls-1" d="M.64,66.09a50.14,50.14,0,0,1,6.43-5.44" transform="translate(0 -0.03)"/><path class="cls-1" d="M5.43,67.36c1.53-1.59,3.52-3.26,5-4.85" transform="translate(0 -0.03)"/><path class="cls-1" d="M11.64,67.21l5-4.91" transform="translate(0 -0.03)"/><path class="cls-1" d="M20.83,19.92a41.66,41.66,0,0,1,5.88-6.65" transform="translate(0 -0.03)"/><path class="cls-1" d="M26.43,19.63,34,12.88" transform="translate(0 -0.03)"/><path class="cls-1" d="M32,21.05c2.28-2.14,4.05-3.68,6.48-5.66" transform="translate(0 -0.03)"/><path class="cls-1" d="M32.17,29.92l6.14-5.29" transform="translate(0 -0.03)"/><path class="cls-1" d="M32.19,36.88a41.83,41.83,0,0,1,5.84-5" transform="translate(0 -0.03)"/><path class="cls-1" d="M32,44.75c2-1.51,4.11-3,6.06-4.6" transform="translate(0 -0.03)"/><path class="cls-1" d="M32,52.41A35.1,35.1,0,0,1,38,47.65" transform="translate(0 -0.03)"/><path class="cls-1" d="M31.95,61.18a24.31,24.31,0,0,1,6-5.34" transform="translate(0 -0.03)"/><path class="cls-1" d="M33.88,68l5.77-5.73" transform="translate(0 -0.03)"/><path class="cls-1" d="M41.2,68.23c1.74-2.16,3.77-4,5.72-5.94" transform="translate(0 -0.03)"/><path class="cls-2" d="M466.64,62.5c.25.18,13.23-.23,13.56-.62s.47-37.48.19-48.41c5.53.12,11.34-.64,16.87-.51.94,3.19.49,7.47.35,10.79-.55,12.73-.3,38.24-.18,38.39A83,83,0,0,0,511.22,62a53.21,53.21,0,0,0-.08-9.46c-.16-3,.51-47.12-.06-50.31-.17-1-44-.35-44.49,0C465.77,2.83,466,62,466.64,62.5Z" transform="translate(0 -0.03)"/><path class="cls-1" d="M466.59,2.21c-1.8,2.09-6.31,7.28-6.54,7.94s-.19,56.73,0,57,15,.44,15.54,0a53.18,53.18,0,0,0,4.14-5.25" transform="translate(0 -0.03)"/><path class="cls-1" d="M480.09,19.69c2,.13,10.37-.23,11,.18,1.42.93-.87,46.15,1.21,48,.31.27,13.75.58,13.93.43,2.61-2.14,3.28-3.55,5-6.3" transform="translate(0 -0.03)"/><path class="cls-1" d="M466.15,9.06a80,80,0,0,1-6.24,6.11" transform="translate(0 -0.03)"/><path class="cls-1" d="M459.91,21.4c2.22-1.75,4.11-3.16,6.43-4.78" transform="translate(0 -0.03)"/><path class="cls-1" d="M459.91,27.68c2.3-1.73,4.23-3.32,6.39-5.22" transform="translate(0 -0.03)"/><path class="cls-1" d="M459.91,33.91a76.1,76.1,0,0,1,6.13-5.1" transform="translate(0 -0.03)"/><path class="cls-1" d="M460,40.77l6-4.93" transform="translate(0 -0.03)"/><path class="cls-1" d="M459.9,46.86l6.48-4.72" transform="translate(0 -0.03)"/><path class="cls-1" d="M459.83,53.12l4.12-3.25a20.29,20.29,0,0,1,2.36-1.68" transform="translate(0 -0.03)"/><path class="cls-1" d="M460,58.41c2.44-1.53,4.2-2.66,6.61-4.24" transform="translate(0 -0.03)"/><path class="cls-1" d="M460,66.09a50.14,50.14,0,0,1,6.43-5.44" transform="translate(0 -0.03)"/><path class="cls-1" d="M464.84,67.36c1.53-1.59,3.52-3.26,5-4.85" transform="translate(0 -0.03)"/><path class="cls-1" d="M471,67.21l5-4.91" transform="translate(0 -0.03)"/><path class="cls-1" d="M480.23,19.92a41.66,41.66,0,0,1,5.88-6.65" transform="translate(0 -0.03)"/><path class="cls-1" d="M485.84,19.63l7.54-6.75" transform="translate(0 -0.03)"/><path class="cls-1" d="M491.37,21.05c2.28-2.14,4.05-3.68,6.48-5.66" transform="translate(0 -0.03)"/><path class="cls-1" d="M491.58,29.92l6.14-5.29" transform="translate(0 -0.03)"/><path class="cls-1" d="M491.6,36.88a41.83,41.83,0,0,1,5.84-5" transform="translate(0 -0.03)"/><path class="cls-1" d="M491.37,44.75c2-1.51,4.11-3,6.06-4.6" transform="translate(0 -0.03)"/><path class="cls-1" d="M491.37,52.41a35.1,35.1,0,0,1,6.06-4.75" transform="translate(0 -0.03)"/><path class="cls-1" d="M491.35,61.18a24.31,24.31,0,0,1,6-5.34" transform="translate(0 -0.03)"/><path class="cls-1" d="M493.29,68l5.77-5.73" transform="translate(0 -0.03)"/><path class="cls-1" d="M500.61,68.23c1.74-2.16,3.77-4,5.72-5.94" transform="translate(0 -0.03)"/><path class="cls-1" d="M968.45,2.52c-1,1-5.87,5.51-5.9,6.18-.88,19-1,37.25-1,56.51a1.1,1.1,0,0,0,.84,1.07c5.26,1.32,15.42,1.08,15.63.73,1.07-1.72,2.57-3,3.25-4.95" transform="translate(0 -0.03)"/><path class="cls-1" d="M996.16,35.2c0,8,.37,31.38.58,31.56s11.78,1.15,12.59,1a9,9,0,0,0,6.56-5.49" transform="translate(0 -0.03)"/><path class="cls-1" d="M1002.22,2.48c-1.94.79-5.31,2.54-6.06,4.5-.33.87-.73,8.13-.73,11.51" transform="translate(0 -0.03)"/><path class="cls-1" d="M962.3,14.66a40,40,0,0,1,5.65-5" transform="translate(0 -0.03)"/><path class="cls-1" d="M962.3,20.23a27.79,27.79,0,0,1,5.26-4.84" transform="translate(0 -0.03)"/><path class="cls-1" d="M962.11,25.71c1.7-1.59,4.11-3.86,5.71-5.56" transform="translate(0 -0.03)"/><path class="cls-1" d="M961.76,33.71c1.83-2,3.94-4,5.77-6" transform="translate(0 -0.03)"/><path class="cls-1" d="M961.66,40.41a76.85,76.85,0,0,1,6-5.89" transform="translate(0 -0.03)"/><path class="cls-1" d="M961.52,47.95c1.79-1.79,4.25-3.68,6-5.47" transform="translate(0 -0.03)"/><path class="cls-1" d="M961.4,55.42c2-2.16,4.34-4.26,6.29-6.15" transform="translate(0 -0.03)"/><path class="cls-1" d="M961.57,63.65a69.19,69.19,0,0,1,6.18-6.57" transform="translate(0 -0.03)"/><path class="cls-1" d="M966.06,66.9A64.27,64.27,0,0,0,970.21,62" transform="translate(0 -0.03)"/><path class="cls-1" d="M973.06,67.26l3.45-3.89a9.81,9.81,0,0,1,1.18-1.11" transform="translate(0 -0.03)"/><path class="cls-1" d="M995.5,12.15A62.84,62.84,0,0,1,1002,5.79" transform="translate(0 -0.03)"/><path class="cls-1" d="M1007,67.5a64.86,64.86,0,0,1,4.11-5.29" transform="translate(0 -0.03)"/><path class="cls-1" d="M1001,67.22l4.83-5.24" transform="translate(0 -0.03)"/><path class="cls-1" d="M996.59,63.65a30.3,30.3,0,0,1,5.89-7" transform="translate(0 -0.03)"/><path class="cls-1" d="M996.44,54.52l3.71-4.06a8.91,8.91,0,0,1,2.46-2.08" transform="translate(0 -0.03)"/><path class="cls-1" d="M996.27,46.09a5,5,0,0,1,.95-1.5,36.71,36.71,0,0,1,5.17-5.74" transform="translate(0 -0.03)"/><path class="cls-1" d="M996.16,38.38a44.44,44.44,0,0,1,6-7.85" transform="translate(0 -0.03)"/></g></g></svg>