<?xml version="1.0" encoding="utf-8"?>
<!-- Generator: Adobe Illustrator 21.0.2, SVG Export Plug-In . SVG Version: 6.00 Build 0)  -->
<svg version="1.1" xmlns="http://www.w3.org/2000/svg" xmlns:xlink="http://www.w3.org/1999/xlink" x="0px" y="0px"
	 viewBox="0 0 46.7 67.1" style="enable-background:new 0 0 46.7 67.1;" xml:space="preserve">
<style type="text/css">
	.st0{display:none;}
	.st1{display:inline;fill:#EEB755;stroke:#586DB0;stroke-miterlimit:10;}
	.st2{display:inline;}
	.st3{fill:#0D0E0F;}
	.st4{fill:none;stroke:#0D0E0F;stroke-miterlimit:10;}
	.st5{fill:#FFFFFF;}
	.st6{fill:#FFFFFF;stroke:#0D0E0F;stroke-miterlimit:10;}
</style>
<g id="Слой_3" class="st0">
	<rect x="-609.2" y="-4.8" class="st1" width="1306" height="2822"/>
</g>
<g id="Слой_18">
</g>
<g id="Слой_2" class="st0">
	<g class="st2">
		<g>
			<g>
				<path class="st3" d="M-623.5-51.7c-2,1.7-4.9,4.9-4.7,7.7c0.1,1.7,0.7,3.5,1.1,5.2c1.6,6.6,3.3,13.2,5.1,19.8
					c2,7.3,4,14.5,6.1,21.8c0.7,2.4,1.4,4.7,2.1,7.1c0.3,0.8,0.5,2.3,1.2,2.9c0.9,0.7,3,0.5,4,0.5c2.3,0.1,4.7,0,7-0.1
					c1.4-0.1,3.1-0.1,4.4-0.6c1.9-0.7,2.8-2.9,3.6-4.6c0.3-0.6-0.6-1.1-0.9-0.5c-0.9,1.9-1.7,3.9-3.9,4.3c-1.4,0.3-2.8,0.3-4.2,0.4
					c-1.8,0.1-3.7,0.1-5.5,0.1c-0.9,0-3.3,0.3-4-0.3c-0.6-0.6-0.9-2.6-1.1-3.4c-0.7-2.3-1.4-4.5-2-6.8c-3.6-12.6-7.1-25.3-10.3-38
					c-0.5-2.2-1.1-4.4-1.5-6.7c-0.6-3.1,1.8-6,4.2-8C-622.3-51.4-623-52.1-623.5-51.7L-623.5-51.7z"/>
			</g>
		</g>
		<g>
			<g>
				<path class="st3" d="M-589.8-52.4c-2.3,0.1-4.6,0.5-6,2.5c-1.4,2-1.9,4.7-2.5,7c-1.8,6.5-3.2,13.2-4.6,19.8
					c-0.1,0.6,0.8,0.9,1,0.3c1.1-5.6,2.4-11.2,3.8-16.7c0.6-2.5,1.3-4.9,2.1-7.3c1.1-3.2,2.9-4.3,6.3-4.5
					C-589.2-51.5-589.2-52.5-589.8-52.4L-589.8-52.4z"/>
			</g>
		</g>
		<g>
			<g>
				<path class="st3" d="M-557.6-50.5c0.6,0,0.6-1,0-1C-558.2-51.5-558.2-50.5-557.6-50.5L-557.6-50.5z"/>
			</g>
		</g>
		<g>
			<g>
				<path class="st3" d="M-557.6-50.5c0.6,0,0.6-1,0-1C-558.2-51.5-558.2-50.5-557.6-50.5L-557.6-50.5z"/>
			</g>
		</g>
		<g>
			<g>
				<path class="st3" d="M-556.9-52.5c-2.4,1.2-5.2,2.5-6.2,5.2c-1.2,2.9-2,5.9-2.8,8.9c-1.6,5.7-3.4,11.4-4.3,17.2
					c0.2-0.1,0.5-0.2,0.7-0.3c-0.1,0-0.1-0.1-0.2-0.1c-0.6-0.3-1.1,0.6-0.5,0.9c0.1,0,0.1,0.1,0.2,0.1c0.3,0.1,0.7,0,0.7-0.3
					c0.8-5.3,2.4-10.5,3.8-15.7c0.8-3,1.7-5.9,2.7-8.9c0.3-0.8,0.5-1.9,1.1-2.6c1.1-1.5,3.6-2.6,5.3-3.5
					C-555.9-51.9-556.4-52.8-556.9-52.5L-556.9-52.5z"/>
			</g>
		</g>
		<g>
			<g>
				<path class="st3" d="M-561.7,7.9c-2.2,3.1-4.7,5.4-8.6,5.4c-2.5,0-5.3,0.1-7.7-0.6c-3-0.8-3.6-5.5-4.3-8.1
					c-1.3-4.6-2.3-9.2-3.2-13.8c-0.6-3.2-1.4-6.6-1.6-9.9c0-0.6-1-0.6-1,0c0.1,3.9,1.1,7.9,1.9,11.7c1.1,5.3,2.2,10.6,3.9,15.7
					c0.4,1.3,0.9,3.1,1.8,4.2c1,1.2,2.8,1.3,4.3,1.5c2.5,0.3,5.4,0.6,8,0.2c3.1-0.4,5.6-3.4,7.3-5.8C-560.4,7.9-561.3,7.4-561.7,7.9
					L-561.7,7.9z"/>
			</g>
		</g>
		<g>
			<g>
				<path class="st3" d="M-539.8-52.3c-2.8,3.1-5.9,5.9-6.2,10.3c-0.1,1.9,0,3.8,0,5.8c0.1,6.6,0.3,13.3,0.5,19.9
					c0.2,7,0.4,14,0.8,21c0.1,2,0.2,4.1,0.5,6.1c0.1,1,0.1,1.5,1,1.9c1.3,0.5,3.3,0.5,4.7,0.6c2.2,0.2,4.4,0.4,6.7,0.3
					c3.7-0.2,5.4-2.4,7-5.6c0.3-0.6-0.6-1.1-0.9-0.5c-0.7,1.4-1.7,3.1-2.9,4.2c-1.2,1.1-3.2,0.9-4.8,0.9c-1.7,0-3.4-0.1-5.1-0.3
					c-1.3-0.1-3.1-0.1-4.3-0.6c-0.4-0.2-0.2,0.3-0.4-0.5c-0.1-0.6-0.2-1.3-0.2-2c-0.2-2.2-0.3-4.4-0.4-6.5c-0.6-12.3-1-24.7-1.2-37
					c0-2.1-0.1-4.2-0.1-6.3c0.1-4.9,3-7.5,6-11C-538.6-52.1-539.3-52.8-539.8-52.3L-539.8-52.3z"/>
			</g>
		</g>
		<g>
			<g>
				<path class="st3" d="M-505.9-52.4c-2,0.7-5,2.1-6.2,3.8c-0.8,1.2-0.8,3.1-0.9,4.5c-0.4,5.3-0.2,10.7-0.2,16c0,0.6,1,0.6,1,0
					c0-4.5-0.1-8.9,0-13.4c0.1-1.8-0.1-4.2,0.5-5.9c0.8-2,4.1-3.4,6-4.2C-505.1-51.6-505.3-52.6-505.9-52.4L-505.9-52.4z"/>
			</g>
		</g>
		<g>
			<g>
				<path class="st3" d="M-526.2-12.1c0.6,1.5,6.4,0.5,7.7,0.4c1.3,0,4.7-0.6,5.1,0.8c0.4,1.1-0.1,3-0.1,4.1c0,1.6,0,3.2,0,4.8
					c0,2.8,0.1,5.7,0.3,8.5c0.1,1.6,0,3.7,0.6,5.3c0.4,1,0.9,1.1,2,1.3c2.3,0.3,4.6,0.2,6.9,0.2c2-0.1,4.2,0.1,6.1-0.3
					c2.5-0.5,3.8-2.8,5-4.9c0.3-0.6-0.5-1.1-0.9-0.5c-0.9,1.6-2,3.6-3.9,4.3c-1,0.3-2,0.2-3,0.2c-2.5,0.1-5.1,0.3-7.6,0.2
					c-0.8,0-3.1,0.2-3.6-0.5c-0.4-0.5-0.3-1.8-0.4-2.4c-0.3-3.1-0.4-6.1-0.5-9.2c-0.1-3.4-0.1-6.8,0.1-10.2c0.1-1.6,0.2-2.2-1.4-2.6
					c-1.9-0.4-4.1-0.2-6.1-0.1c-1.1,0-2.2,0.1-3.4,0.1c-0.5,0-0.9,0-1.3,0c-0.4,0-0.7-0.3-0.6,0.1C-525.5-13-526.4-12.7-526.2-12.1
					L-526.2-12.1z"/>
			</g>
		</g>
		<g>
			<g>
				<path class="st3" d="M-465-36.6c3.9-3.1,7.9-0.3,8.6,4.1c0.5,3.3,0.4,6.8,0.2,10.1c-0.3,6.8-1.4,13.5-1.4,20.2
					c0.3,0,0.7-0.1,1-0.1c-0.1-0.4-0.2-0.5-0.5-0.8c-0.4-0.5-1.2,0.2-0.7,0.7c0.1,0.1,0.1,0.2,0.2,0.4c0.2,0.5,1,0.5,1-0.1
					c0-9.6,2.1-19.1,1.3-28.8c-0.2-2.6-0.7-5.2-2.9-6.9c-2.5-1.9-5.2-1.3-7.5,0.5C-466.3-36.9-465.5-36.2-465-36.6L-465-36.6z"/>
			</g>
		</g>
		<g>
			<g>
				<path class="st3" d="M-471.5-49.7c-2.4,0.9-4.5,2.8-6.5,4.4c-2.5,2.1-4.7,4.4-6.4,7.2c-4.1,6.6-5.8,14.7-5.8,22.5
					c0,13.4,8.8,27,22.6,29.6c8.6,1.6,15.9-2.5,22.1-8.1c0.5-0.4-0.2-1.1-0.7-0.7c-5.6,5-12,9-19.8,8c-6.3-0.8-11.9-4.3-16-9
					c-9.1-10.5-9.1-26.7-3.2-38.9c1.6-3.3,3.7-6.3,6.5-8.7c2.2-2,4.7-4.3,7.5-5.4C-470.6-49-470.9-50-471.5-49.7L-471.5-49.7z"/>
			</g>
		</g>
		<path class="st4" d="M-387.1-51.9c-2.4,1.3-6,2.7-7.4,5.1c-0.5,0.8-19.2,56.3-18.6,57.3c0.7,1.3,13,3.1,14.4,2.3
			c1.3-0.7,2.5-2.3,4.1-4.9"/>
		<path class="st4" d="M-352.7,7.7c-0.5,1.7-1.9,3.2-3.1,4.4c-0.9,0.8-14.6,0.7-15.2,0c-1.2-1.2-3.9-10.2-4.4-10.6
			c-1.2-0.9-4.6-0.6-6.8-0.6c-3.5,0-6.7-0.2-10.1-0.3"/>
		<path class="st4" d="M-384.3-28c1.3,4.9,3.1,8.2,4.9,13"/>
		<path class="st4" d="M-346.2-51.9c-2.5,2.6-5.5,5.2-5.8,6c-0.3,0.9,1.2,58.2,1.8,58.5c0.3,0.2,12.4,0.3,13.2-0.3
			c0.9-0.6,2.1-2.8,2.6-4.3"/>
		<path class="st4" d="M-334-18.4c0.6,1.8,8.1,29.6,9.1,31c0.1,0.1,10,1.3,11.4,0.5c1.3-0.8,2.2-2.8,3.5-5"/>
		<path class="st4" d="M-300.8-23.8c0.1,10.6,0.1,35,0.8,36c0.8,1.2,15.3,1.2,15.5,0.8c1.5-2.4,2.2-3.1,3.8-5.5"/>
		<path class="st4" d="M-302.8-51.9c-1.9,1.1-7.1,5.2-7.7,5.9c-0.4,0.5-4.7,15.1-5.6,23"/>
		<path class="st4" d="M-246.1-51.4c-2.2,1.9-5.7,4.9-6.2,6.8c-0.5,1.9-0.8,54.9,0.3,57.8c0.2,0.4,10.1,1.2,13.2,0.8
			c1.8-0.2,5.2-3.3,6.7-6.3"/>
		<path class="st4" d="M-215.1-49.9c-7.5,2.6-13.4,8.9-13.7,16.8c-0.1,1.2,0,3.6,0.8,4.6c0.6,0.7,9.2,1.4,10.6,1.1
			c0.7-0.1,3-1.9,4-3.9"/>
		<path class="st4" d="M-211.6-37.7c2.1-0.9,4.9-1.5,7.1-0.7c1.4,0.5,2.4,1.9,2.8,3.3c0.3,0.8,0,1.8-0.1,2.7c-0.4,2.8-1.2,5.5-2.3,8
			"/>
		<path class="st4" d="M-206.9-23.4c-1.6,1.1-3.8,2.6-5.2,4.1c-0.8,0.8-1.5,1.7-2,2.7c-1.1,2.1-0.8,9.3-0.1,10.1
			c0.6,0.6,9.5,1.4,10,1.3c2.1-0.7,4.3-2.4,5-4.2"/>
		<path class="st4" d="M-210.3-4.8c-1.1,1-4.5,3.8-4.8,4.5c-0.3,0.8-0.1,12.3,1,13c0.6,0.4,12.8,0.2,13.8-0.5c0.6-0.5,3.2-3,4-4.5"
			/>
		<path class="st4" d="M-252.8-38.4"/>
		<path class="st4" d="M-193.8,7.3"/>
		<path class="st4" d="M-622.3-48.2c-1.6,3.3-2.9,6.2-4.3,9.6"/>
		<path class="st4" d="M-620.3-40.6c-1.6,3.6-2.8,6.9-4,10.7"/>
		<path class="st4" d="M-618-30.6c-1.7,3-3.1,5.7-4.3,8.8"/>
		<path class="st4" d="M-615.8-22c-1.6,2.6-3,5.2-4.3,7.9"/>
		<path class="st4" d="M-613-11.8c-1.3,2.8-2.9,6.3-4,9.2"/>
		<path class="st4" d="M-611.2-3.8c-1.3,2.8-2.5,5.7-3.6,8.6c0-0.1,0-0.2,0.1-0.3"/>
		<path class="st4" d="M-608.8,4.7c-1.2,2.3-2.5,4.6-3.8,6.8"/>
		<path class="st4" d="M-605.6,8.6c-1,1.4-1.9,2.8-2.7,4.3c0-0.1,0-0.1,0.1-0.2"/>
		<path class="st4" d="M-601.2,8.4c-0.9,1.3-1.8,2.8-2.5,4.2c0,0,0-0.1,0-0.1"/>
		<path class="st4" d="M-597.1,8.4c-0.8,1.2-1.6,2.4-2.3,3.7"/>
		<path class="st4" d="M-589.8-51.3c-2.3,1.4-4.6,2.9-6.9,4.4"/>
		<path class="st4" d="M-591.6-45.9c-2.5,1.6-4.4,3.1-6.7,4.9"/>
		<path class="st4" d="M-593.1-38.6c-2.3,1.2-4.4,2.4-6.8,3.6"/>
		<path class="st4" d="M-594.7-32.8c-2.2,1.4-3.9,2.1-6.3,3.3"/>
		<path class="st4" d="M-596.2-26c-1.6,1.7-3.9,2.6-5.8,4c0.1-0.1,0.2-0.1,0.3-0.2"/>
		<path class="st4" d="M-597.7-19.8c-0.3,0.2-0.6,0.5-0.9,0.7c-1.1,0.8-2.1,1.6-3.2,2.4c0,0,0.1,0,0.1-0.1"/>
		<path class="st4" d="M-582.8-24.4c-1.5,1.8-3.3,3.9-4.6,5.8"/>
		<path class="st4" d="M-581.4-18.7c0,0.2-0.2,0.4-0.4,0.6c-1.7,1.9-3.1,3.5-4.8,5.4"/>
		<path class="st4" d="M-579.6-11.4c-1.9,1.8-3.9,4-5.6,6.1"/>
		<path class="st4" d="M-578.2-4.7c-1.8,2.3-3.4,4.2-5.3,6.4"/>
		<path class="st4" d="M-576.2,2c-1.1,1.3-2.1,2.5-3.2,3.8c-0.8,0.9-1.6,1.9-2.2,2.9"/>
		<path class="st4" d="M-575.1,7.3c-1.6,1.8-3.2,3.6-4.8,5.4"/>
		<path class="st4" d="M-568.6,8.2c-1.5,1.4-3.3,3.7-4.3,5.5"/>
		<path class="st4" d="M-563.8,8.5c-1.4,1.6-2.7,3.4-3.9,5.1"/>
		<path class="st4" d="M-557.9-49.8c-2,1.5-3.9,3.1-5.6,4.9"/>
		<path class="st4" d="M-559.5-44c-1.8,1.5-3.9,3.2-5.6,4.7"/>
		<path class="st4" d="M-561.2-37.4c-2.1,1.6-3.9,3.2-5.9,5"/>
		<path class="st4" d="M-562.5-31.2c-2.2,1.5-3.9,2.7-6.1,4.3"/>
		<path class="st4" d="M-563.7-25.5c-1.9,1-3.8,2.1-5.7,3.3"/>
		<path class="st4" d="M-564.6-20.3c-1.2,0.9-2.4,1.7-3.5,2.6c0.1,0,0.2,0,0.2-0.1"/>
		<path class="st4" d="M-539.6-46.8c-2.1,2.1-4,4.3-6,6.6"/>
		<path class="st4" d="M-539.4-40.3c-2.1,2.1-4,4-6.1,6.2"/>
		<path class="st4" d="M-539.1-33.2c-2.3,2.1-4,3.9-6.1,6.2"/>
		<path class="st4" d="M-539.3-26.9c-2,2.1-4,4.2-5.9,6.4c0.1-0.1,0.2-0.3,0.3-0.4"/>
		<path class="st4" d="M-539.3-19.9c-1.9,2.3-3.6,4.2-5.7,6.3"/>
		<path class="st4" d="M-539.3-14.1c-1.8,2.1-3.6,4.3-5.4,6.4"/>
		<path class="st4" d="M-539.2-5.7c-1.6,2.3-3.4,4.4-5.3,6.4"/>
		<path class="st4" d="M-539.4,2.4c-1.5,1.7-3.4,4-4.8,5.8"/>
		<path class="st4" d="M-538.5,6.8c-1.4,1.9-2.8,3.8-4.1,5.7"/>
		<path class="st4" d="M-533.7,8.3c-1.1,1.1-3,3.3-3.9,4.6"/>
		<path class="st4" d="M-528.6,8.2c-1.2,1.5-2.3,3.1-3.2,4.8"/>
		<path class="st4" d="M-506.9-47.3c-2.1,1.7-3.8,3.3-5.8,5.1"/>
		<path class="st4" d="M-506.5-42.2c-2,1.5-4.3,3.4-6.1,5.1"/>
		<path class="st4" d="M-506.3-35.8c-2,1.5-4.3,3.2-6.3,4.8"/>
		<path class="st4" d="M-506.3-31.2c-1,1.1-2.4,2.3-3.4,3.3c0,0-0.1,0-0.1,0s0-0.1,0,0"/>
		<path class="st4" d="M-520.4-17.1c-1.7,1.3-3.9,3.3-5.3,4.9c0.1,0,0.1-0.1,0.2-0.2"/>
		<path class="st4" d="M-514.5-17c-0.5,0.2-1.4,0.8-1.9,1.2c-1.1,1-2.2,2-3.3,3c0.1,0,0.2-0.1,0.2-0.3"/>
		<path class="st4" d="M-509.9-16.8c-1.7,1.4-3.2,2.9-4.6,4.5"/>
		<path class="st4" d="M-506.7-14.6c-2.1,1.8-4.2,3.6-6.1,5.6"/>
		<path class="st4" d="M-506.8-9c-2.2,2-4.1,3.7-6.3,5.7"/>
		<path class="st4" d="M-506.9-2.1c-2.1,1.8-4.1,3.6-6.2,5.3"/>
		<path class="st4" d="M-506.9,3.8c-2,1.8-3.8,3.8-5.6,5.8"/>
		<path class="st4" d="M-504.7,8.4c-1,1.1-2.1,2.2-3.1,3.3c-0.2,0.3-0.5,0.5-0.6,0.9"/>
		<path class="st4" d="M-499.8,8.7c-0.8,1.3-2,2.9-3,4.2"/>
		<path class="st4" d="M-478.7-41.6c-1.6,1-3.4,2.2-5,3.3"/>
		<path class="st4" d="M-481.2-35.8c0,0.1,0.1-0.1,0.1-0.1c-0.1,0-0.2,0-0.2,0.1c-1.6,1.2-3.3,2.4-4.9,3.7c-0.4,0.3-0.7,0.5-1,0.9"
			/>
		<path class="st4" d="M-483.1-29.1c-2,1.6-3.9,3.2-5.9,4.8"/>
		<path class="st4" d="M-483.6-23c-2.1,1.9-4,3.6-6.1,5.5"/>
		<path class="st4" d="M-483.3-16.2c-2.2,2-4,3.8-6,5.8"/>
		<path class="st4" d="M-482.2-9.2c-1.8,1.7-3.6,3.4-5.4,5"/>
		<path class="st4" d="M-479.7-4.3c-1.9,1.9-3.3,3.4-5.2,5.3"/>
		<path class="st4" d="M-475.3,1.3c-1.7,1.6-3.4,3.3-5.1,4.9"/>
		<path class="st4" d="M-470.3,5.2c-1.7,1.7-3.4,3.4-5.1,5.1c-0.1,0.1-0.4,0-0.3-0.2c0.1-0.2,0.4-0.1,0.3,0.1"/>
		<path class="st4" d="M-465.2,7.7c-1.6,1.5-3.4,3.5-5,5"/>
		<path class="st4" d="M-458.7,8.9c-1.2,1.3-3.2,3.5-4.2,5"/>
		<path class="st4" d="M-453.1,8.4c-1.1,1.1-2.1,2.4-2.9,3.8"/>
		<path class="st4" d="M-456.4-41.2c-0.4,0-0.7,0.3-1,0.6c-0.8,0.8-1.6,1.6-2.4,2.4"/>
		<path class="st4" d="M-451.6-39.3c-1.6,1.6-3.1,3.2-4.5,4.8"/>
		<path class="st4" d="M-449.1-36c-2.4,2.1-4.6,4.4-6.7,6.8"/>
		<path class="st4" d="M-447.7-30.5c-1.2,1.5-2.4,2.9-3.8,4.2c-1.4,1.3-3.1,2.4-4.1,4c0-0.2,0.1-0.3,0.1-0.5"/>
		<path class="st4" d="M-446.9-23.5c-3.4,3.6-6.6,7.3-9.7,11.1"/>
		<path class="st4" d="M-447.4-16.5c-2.9,3.4-6,6.6-9.3,9.6"/>
		<path class="st4" d="M-449.2-9c-2.4,2-4.8,4.1-6.8,6.4"/>
		<path class="st4" d="M-389.3-46.6c-2.3,1.5-4.7,3.1-7,4.6"/>
		<path class="st4" d="M-392.2-38.7c-1.9,1.1-3.8,2.2-5.7,3.5c-0.2,0.2-0.5,0.3-0.6,0.5c0.1-0.1,0.1-0.2,0.2-0.2"/>
		<path class="st4" d="M-393.7-32.8c-2.2,1.3-4.6,2.4-7,3.3c0,0.1,0.2,0.1,0.2,0"/>
		<path class="st4" d="M-395.7-26.8c-2.2,1.3-4.4,2.6-6.6,3.9c0.1,0,0.3-0.1,0.4-0.1"/>
		<path class="st4" d="M-398.3-19c-2.4,1-4.6,2.2-6.8,3.5c0.1,0,0.2,0,0.2-0.1"/>
		<path class="st4" d="M-400.3-13.4c-2.3,2-5.3,3.1-7.5,5.2"/>
		<path class="st4" d="M-402.5-7.3c-1.8,1.1-3.6,2.2-5.5,3.1c-0.6,0.3-1.2,0.6-1.7,1.1c0.1,0,0.1-0.1,0.2-0.1"/>
		<path class="st4" d="M-404.3-0.6c-2.2,1.3-4.3,2.6-6.5,4"/>
		<path class="st4" d="M-412.9,9.9c1.9-1.5,4.1-2.8,6.3-3.7"/>
		<path class="st4" d="M-407.6,11.7c-0.1,0,0-0.2,0-0.2c1.3-1,2.5-2,3.9-2.9"/>
		<path class="st4" d="M-401.6,12.5c0.7-1.2,1.8-2.1,2.9-2.9c0.3-0.3,0.7-0.5,1-0.8"/>
		<path class="st4" d="M-384.1-27.2c1.1-1.6,2.6-3,4.2-4.2"/>
		<path class="st4" d="M-382.5-23.8c1.3-1.3,2.6-2.5,4.1-3.5"/>
		<path class="st4" d="M-380.7-18.4c-0.2-0.1,0-0.4,0.1-0.5c1-1.3,2.2-2.4,3.5-3.3"/>
		<path class="st4" d="M-378.9-15c1.2-1,2.5-1.9,3.8-2.7"/>
		<path class="st4" d="M-391.2,0.3c1.3-1.4,2.7-2.7,4.1-4"/>
		<path class="st4" d="M-385.7,1.1c0-0.4,0.3-0.7,0.6-1c1.2-1.3,2.5-2.6,3.7-3.9c0.2-0.3,0.5-0.5,0.7-0.7c0,0,0.1-0.1,0.1-0.1
			c0,0,0.1,0.1,0,0.1"/>
		<path class="st4" d="M-380,1c1.6-1.9,3.3-3.8,5.1-5.6"/>
		<path class="st4" d="M-375.1,1.8c0-0.3,0.2-0.6,0.4-0.8c1.2-1.2,2.5-2.5,3.8-3.7"/>
		<path class="st4" d="M-373.8,7c1.3-1.4,2.7-2.7,4.1-4"/>
		<path class="st4" d="M-371.4,11.5c0.9-1.4,2.1-2.7,3.5-3.7"/>
		<path class="st4" d="M-366.3,12.7c0.1-0.3,0.3-0.5,0.4-0.7c0.8-0.9,1.6-1.8,2.4-2.7c0.2-0.3,0.5-0.6,0.8-0.8"/>
		<path class="st4" d="M-361.2,12.6c-0.1,0-0.1-0.2,0-0.3c0.8-1.4,1.7-2.7,2.6-4"/>
		<path class="st4" d="M-358,12.7c-0.1,0-0.1-0.2,0-0.3c0.8-1.4,1.6-2.8,2.4-4.2"/>
		<path class="st4" d="M-351.7-40.8c1.4-2,3.1-3.8,4.9-5.4"/>
		<path class="st4" d="M-351.6-34.9c1.5-2,3.1-3.9,4.8-5.7"/>
		<path class="st4" d="M-351.9-29.5c0.6-0.6,1.2-1.3,1.8-1.9c1.1-1.1,2.1-2.3,3.3-3.3c0,0,0.1-0.1,0.2,0c0.1,0,0,0.1,0,0.1"/>
		<path class="st4" d="M-351.5-22.4c1.5-2.1,3.2-4.1,5-5.9"/>
		<path class="st4" d="M-351-17c1.3-1.9,3-3.6,4.8-4.9"/>
		<path class="st4" d="M-351.1-9.2c0.7-1.3,1.7-2.4,2.7-3.5c0.6-0.7,1.3-1.4,1.9-2c0,0,0.1-0.1,0.2-0.1c0.1,0,0,0.1,0,0.1"/>
		<path class="st4" d="M-350.8-3.2c1.5-1.8,3.1-3.5,4.8-5.2"/>
		<path class="st4" d="M-350,3.9c1.1-1.7,2.5-3.2,4-4.5"/>
		<path class="st4" d="M-350.4,11c1.2-1.5,2.6-3,4-4.3"/>
		<path class="st4" d="M-346.2,12.6c1.2-1.3,2.3-2.6,3.5-3.9"/>
		<path class="st4" d="M-339.9,12.8c0.8-1.5,1.8-2.9,3-4.1c-0.1,0.1-0.2,0.1-0.2,0.2"/>
		<path class="st4" d="M-333.9-24.3c0.7-1.4,1.6-2.7,2.6-3.9"/>
		<path class="st4" d="M-333.7-17.1c1.1-2,2.3-4,3.6-5.8"/>
		<path class="st4" d="M-332-11.7c1.2-1.7,2.3-3.3,3.6-4.9c0.1-0.1,0.3-0.2,0.3,0"/>
		<path class="st4" d="M-330.4-5.9c1.3-1.8,2.6-3.6,4-5.3"/>
		<path class="st4" d="M-328.7,0.9c1.2-1.9,2.6-3.8,4.1-5.4"/>
		<path class="st4" d="M-327,7.1c0.4-0.4,0.7-0.9,1.1-1.3c1.1-1.6,2.4-3.1,3.9-4.4c-0.1,0.1-0.3,0.1-0.4,0.2"/>
		<path class="st4" d="M-324.4,12.9c1.3-1.7,2.7-3.4,4.2-4.8c0,0,0.1-0.1,0.1,0c0,0,0,0.1,0,0.1"/>
		<path class="st4" d="M-317.5,13.7c1.4-1.7,2.6-3.5,3.6-5.4"/>
		<path class="st4" d="M-311.3-42.5c1.8-1.5,3.8-2.8,5.9-3.7"/>
		<path class="st4" d="M-313.4-36.1c2.2-1.4,4.4-2.8,6.6-4.2"/>
		<path class="st4" d="M-314.7-30.6c2.2-1.7,4.5-3.3,6.8-4.8c0,0,0.1-0.1,0.1-0.1c0-0.1-0.1,0-0.1,0"/>
		<path class="st4" d="M-315.6-25.2c2.2-1.7,4.5-3.4,6.8-5c-0.2,0-0.4,0-0.6,0.1"/>
		<path class="st4" d="M-315.2-20.4c1.5-1.3,3-2.5,4.7-3.6c-0.1,0-0.3,0-0.4-0.1"/>
		<path class="st4" d="M-298.5-29.8c0.9-0.6,1.9-1.3,2.8-1.9c0.1-0.1,0.4-0.2,0.5,0"/>
		<path class="st4" d="M-300.6-22.4c1.4-1.7,3.2-3.1,5.1-4.1"/>
		<path class="st4" d="M-300.9-15c1.9-1.6,3.8-3.2,5.8-4.8"/>
		<path class="st4" d="M-300.7-9c1.8-2.1,3.7-4,5.7-5.9"/>
		<path class="st4" d="M-301-1.4c1.5-2.5,4.2-4,6-6.3c-0.2,0.2-0.4,0.3-0.6,0.5"/>
		<path class="st4" d="M-300.1,5.3c1.6-1.6,3.2-3.1,5-4.5c-0.1,0.1-0.2,0.2-0.4,0.3"/>
		<path class="st4" d="M-300.1,12.5c1.4-1.7,3-3.3,4.6-4.7"/>
		<path class="st4" d="M-294.2,13.3c1.5-1.8,3.2-3.6,4.8-5.3"/>
		<path class="st4" d="M-289.3,13.6c1.3-1.8,2.9-3.6,4.6-5.1"/>
		<path class="st4" d="M-252.5-38.9c1.9-2.1,4-4.1,6.2-5.8"/>
		<path class="st4" d="M-253-31.8c2.1-2.3,4.4-4.5,6.8-6.5c0.2-0.2,0.5,0.1,0.4,0.3c-0.1,0.2-0.5,0-0.5-0.2"/>
		<path class="st4" d="M-252.7-25.7c2-1.9,4.2-3.6,6.4-5.3"/>
		<path class="st4" d="M-252.6-18.2c1.9-2.1,4-4,6.2-5.8"/>
		<path class="st4" d="M-253-10.1c2.1-2.4,4.3-4.6,6.6-6.8c0,0,0.1-0.1,0.1-0.2c0-0.1-0.1,0-0.1,0.1"/>
		<path class="st4" d="M-252.8-2.6c1.8-2,4.2-3.8,6.3-5.4c-0.1,0.1-0.2,0.1-0.3,0.2"/>
		<path class="st4" d="M-252.5,3.8c2.1-2,3.8-3.6,5.9-5.5"/>
		<path class="st4" d="M-252.4,10.2c2-2,4-4.1,6-6"/>
		<path class="st4" d="M-248.9,13.7c1.9-1.7,3.9-4,5.9-5.4"/>
		<path class="st4" d="M-242.6,14.1c2.1-1.7,4-3.6,5.8-5.6"/>
		<path class="st4" d="M-226-41.6c1.6-1.1,3.2-2,5-2.7c-0.1,0-0.2,0.1-0.3,0.1"/>
		<path class="st4" d="M-228.6-35.3c0.3-0.5,0.8-1,1.2-1.4c1.4-1.2,2.9-2.3,4.5-3.3"/>
		<path class="st4" d="M-228.4-29.2c1.3-1.4,2.8-2.8,4.2-4.1"/>
		<path class="st4" d="M-223-27.6c0-0.3,0.3-0.6,0.5-0.8c1.3-1.2,2.7-2.3,4.1-3.3"/>
		<path class="st4" d="M-207.6-38.6c1.5-1.3,3.1-2.4,4.8-3.3"/>
		<path class="st4" d="M-202.1-36.8c1.4-0.9,2.7-1.9,4.1-2.8c0,0,0.1-0.1,0.1-0.1c0,0-0.1,0-0.1,0"/>
		<path class="st4" d="M-202-31c1.6-1.2,3.7-2.4,5.4-3.4c-0.1,0-0.2,0-0.3,0"/>
		<path class="st4" d="M-214.7-14.9c1.6-1.3,3.3-2.4,5.1-3.2c-0.1,0.1-0.2,0.1-0.4,0.2"/>
		<path class="st4" d="M-214.7-9.6c1.4-1.4,3-2.8,4.6-4"/>
		<path class="st4" d="M-213.1-6.1c1.1-1,2.8-2.3,3.9-3.3"/>
		<path class="st4" d="M-207.4-5.4c1.3-1.3,3.2-3.1,4.6-4.3"/>
		<path class="st4" d="M-215.3,3.8c1.7-1.6,3.8-3.4,5.6-4.8"/>
		<path class="st4" d="M-214.8,10.4c1.3-1.6,2.8-3.2,4.2-4.7"/>
		<path class="st4" d="M-211.2,12.8c1.3-1.7,2.7-3.2,4.3-4.7"/>
		<path class="st4" d="M-204.9,12.9c0.9-1.4,2.7-3.5,3.9-4.7"/>
		<g>
			<path class="st5" d="M-608.9-51.5c1,4.2,9.3,40,9.3,40s9.5-40.5,9.8-40.5c6.5,0.2,12.8-0.6,12.9,0c0.7,3.2,10.5,40.6,10.5,40.6
				s7.3-37.5,9.1-40.6c0.5-0.8,11.3-0.3,11.3,0.4c0,1.1-12.3,54.1-14.9,59.4c-0.7,1.4-5.4,0-13.9,0.1c-0.3,0-9.8-39.6-9.8-39.6
				s-8.7,38.5-9.4,39.6c-0.3,0.4-13.4,1-13.8,0.2c-3-7.8-15.1-59.2-15.1-59.4C-622.9-51.8-610.1-51.8-608.9-51.5"/>
			<g>
				<path class="st3" d="M-609.4-51.3c3.2,13.3,6.2,26.7,9.3,40c0.1,0.5,0.9,0.5,1,0c2.8-12.1,5.6-24.2,8.7-36.3c0.3-1,0.5-2,0.8-3
					c0.5-1.7,0.9-0.8,2.8-0.8c2.8,0,5.6-0.3,8.4-0.2c1.5,0,1.1-0.1,1.5,1.4c1.7,7,3.6,14,5.4,21c1.6,6,3.1,12.1,4.7,18.1
					c0.1,0.5,0.9,0.5,1,0c2.2-11.1,4.3-22.2,7-33.2c0.5-2,0.8-4.6,1.7-6.4c0.5-1,0.9-0.9,2.2-1c1.7-0.1,3.5,0,5.3,0.1
					c0.8,0.1,1.6,0.1,2.3,0.2c0.4,0.1,1.2,0.5,0.9-0.1c0,0.1-0.2,0.9-0.2,1.1c-0.4,1.9-0.8,3.7-1.2,5.6c-3.1,13.5-6.3,27-9.8,40.4
					c-0.7,2.7-1.4,5.4-2.2,8c-0.4,1.2-0.7,3.8-1.9,4.4c-1.2,0.5-3.6,0-4.8-0.1c-1.2-0.1-2.4-0.2-3.6-0.2c-0.9,0-1.7-0.1-2.6-0.1
					c0.6,0-1.7,0-1.5,0.2c-0.7-0.6-1-3.6-1.2-4.4c-3-11.7-5.8-23.4-8.6-35.1c-0.1-0.5-0.9-0.5-1,0c-1.7,7.7-3.5,15.4-5.3,23.1
					c-1.1,4.6-2.1,9.2-3.3,13.7c-0.1,0.5-0.5,2.4-0.7,2.6c-0.7,0.6-4.8,0.3-6,0.4c-1.3,0-2.6,0.1-3.9,0.1c-0.6,0-2.5,0.2-3.1-0.2
					c-0.6-0.4-0.9-2.9-1.2-3.7c-1.3-4.5-2.5-9.1-3.7-13.7c-2.8-10.9-5.4-21.9-8-32.9c-0.5-2-0.9-4-1.4-5.9c-0.2-0.8-0.7-2-0.7-2.9
					c0-0.4-0.4,0.4-0.1,0.4c0.5,0,1-0.1,1.5-0.1c1.4-0.1,2.9-0.1,4.3-0.1c2.4,0,5.2-0.3,7.6,0.2c0.6,0.1,0.9-0.8,0.3-1
					c-2.1-0.5-4.5-0.3-6.6-0.3c-2.1,0-5.3-0.5-7.3,0.3c-1.5,0.6-0.1,3.3,0.2,4.5c2.6,11.2,5.3,22.4,8.1,33.5
					c1.4,5.4,2.7,10.9,4.3,16.3c0.5,1.7,0.9,3.3,1.5,5c0.5,1.4,1,1.5,2.5,1.6c2.8,0.2,5.7,0,8.6-0.1c1-0.1,3.2,0.2,3.9-0.7
					c0.5-0.6,0.7-2.1,0.9-2.9c0.6-2.2,1.1-4.4,1.6-6.6c2.4-10,4.7-20.1,7-30.2c-0.3,0-0.6,0-1,0c2.8,11.5,5.5,23,8.4,34.4
					c0.4,1.4,0.5,3.8,1.3,5c0.5,0.7,0.6,0.5,1.5,0.6c3.2,0,6.3,0.3,9.4,0.4c2,0.1,3.5,0.3,4.3-1.7c0.8-2,1.4-4.2,2-6.3
					c4-14.4,7.4-29.1,10.8-43.7c0.5-2.2,1-4.5,1.5-6.7c0.2-0.8,0.7-1.9,0-2.6c-0.5-0.5-2.3-0.5-2.9-0.5c-2-0.2-4-0.3-6-0.2
					c-2.1,0.1-2.8,0.2-3.5,2.1c-2.4,7.2-3.7,15-5.2,22.4c-1.2,5.6-2.3,11.2-3.4,16.8c0.3,0,0.6,0,1,0c-3.4-13-6.8-25.9-10.1-38.9
					c-0.1-0.5-0.2-1.6-0.6-1.9c-1-0.9-4-0.2-5.1-0.2c-1.9,0.1-3.8,0.1-5.7,0.1c-0.7,0-2.2-0.4-2.8,0.2c-0.3,0.3-0.3,0.9-0.4,1.3
					c-1.9,6.8-3.4,13.7-5,20.6c-1.5,6.3-3,12.5-4.4,18.8c0.3,0,0.6,0,1,0c-3.1-13.3-6.1-26.7-9.3-40
					C-608.6-52.2-609.5-52-609.4-51.3L-609.4-51.3z"/>
			</g>
		</g>
		<g>
			<path class="st5" d="M-539.4-51.9c0,12.2,0.2,46.4,0.2,59.8c0,0.5,7.1,0.7,13.7,0.2c1-0.1-1-15.3,0-24.7c0,0,11.2-0.8,18.7,0.1
				c0.2,4.4-0.8,23.5,0,24.7c0.3,0.4,13.8,0.8,13.7-0.1c-0.4-3.3,0.8-51.3-0.2-59.9c-0.1-0.5-6.5-0.2-12.7,0c-0.6,0-1,0.5-1,1.1
				c0.2,4.4,1,21.8,0.2,22.3c-1.9,1-16.9,0.7-18.6,0.1c-1.3-0.5,0.1-22.8-0.2-23.4C-525.9-52.9-538.1-51.8-539.4-51.9"/>
			<g>
				<path class="st3" d="M-539.9-51.9c0,13.8,0.1,27.5,0.1,41.3c0,3.5,0,6.9,0,10.4c0,1.4,0,2.8,0,4.2c0,1-0.4,3.1,0,3.9
					c0.6,1.4,3.7,0.9,4.9,1c2.4,0,4.7,0,7.1-0.1c0.8,0,2.3,0.3,2.8-0.5c0.9-1.2,0.2-4.3,0.1-5.6c-0.2-3.8-0.4-7.6-0.5-11.4
					c0-2,0-3.9,0.1-5.9c0-0.4,0.1-1.7-0.2-1.4c0.1-0.1,1-0.1,1.2-0.1c3.4-0.2,6.8-0.3,10.2-0.2c1.9,0,3.9,0,5.9,0.3
					c1.2,0.1,0.6-0.3,0.9,0.4c0.2,0.4,0,1.3,0,1.8c0,2.9-0.1,5.8-0.2,8.7c-0.1,3.1-0.1,6.2-0.1,9.3c0,1-0.3,3.6,0.4,4.4
					c0.7,0.8,2.9,0.6,3.8,0.6c2.6,0.1,5.3,0.2,8,0c1-0.1,2.5,0.1,2.8-1c0.2-0.7-0.1-2.1-0.1-2.9c-0.1-10.9,0.2-21.7,0.3-32.6
					c0-5.6,0.1-11.3,0-16.9c0-1.9-0.1-3.9-0.2-5.8c-0.1-1.2,0.1-2.1-1.1-2.5c-1.4-0.4-3.3-0.1-4.7-0.1c-2.4,0.1-5.3-0.3-7.6,0.2
					c-2,0.5-1.4,3-1.3,4.6c0.2,5.8,0.7,11.6,0.3,17.4c0,0.7,0,1.2-0.5,1.6c-0.8,0.5-2.6,0.3-3.5,0.4c-3,0.2-6,0.1-9,0
					c-1.2,0-4.7,0.3-5.3-0.8c-0.3-0.6-0.2-1.9-0.2-2.5c0-1.3,0-2.6,0-3.9c0-5,0.4-10.1,0.4-15.1c0-1,0.1-1.4-0.9-1.8
					c-2-0.7-5-0.1-7.1,0c-2.1,0.1-4.4,0.4-6.5,0.3c-0.6,0-0.6,1,0,1c3.2,0.2,6.4-0.3,9.6-0.4c0.7,0,3.7-0.2,3.8,0c0.3,0.3,0,2,0,2.4
					c-0.2,6.4-1,13.2-0.2,19.6c0.2,1.8,0.9,1.9,2.6,2.1c3.7,0.4,7.5,0.4,11.2,0.3c1.4,0,5.2,0.4,6.1-1c0.4-0.5,0.3-1.7,0.3-2.3
					c0.1-1.8,0-3.7,0-5.5c-0.1-3.9-0.2-7.8-0.4-11.8c0-0.6-0.2-1.5-0.1-2.1c0.4-1.7,2.7-1.4,4.2-1.4c1.4,0,2.8-0.1,4.2-0.1
					c1.2,0,2.9-0.3,4,0.1c0.6,0.2,0.2-0.3,0.3,0.5c0.1,0.4,0.1,0.8,0.1,1.2c0.1,1.3,0.1,2.6,0.1,3.9c0.1,3.3,0.1,6.6,0.1,9.9
					c0,14.1-0.6,28.2-0.3,42.3c0,0.3,0.1,0.7,0,1.1c-0.1,0.7,0.1,0.2-0.1,0.4c-0.9,0.7-3.7,0.3-4.8,0.3c-2,0-4,0-6.1-0.2
					c-1.3-0.1-1.9,0.2-1.9-1c-0.1-7.8,0.4-15.7,0.2-23.5c0-0.3-0.2-0.5-0.5-0.5c-6.2-0.6-12.5-0.5-18.7-0.1c-0.3,0-0.5,0.2-0.5,0.5
					c-0.7,6.9,0,13.9,0.2,20.8c0,0.8,0.3,2.2,0,2.9c-0.3,0.8-0.7,0.6-1.6,0.6c-1.3,0.1-2.7,0.1-4,0.1c-1.8,0-3.7,0-5.5-0.1
					c-1.7-0.1-2,0.1-2-1.5c0-13-0.1-26.1-0.1-39.1c0-6.3,0-12.7,0-19C-538.9-52.6-539.9-52.6-539.9-51.9L-539.9-51.9z"/>
			</g>
		</g>
		<g>
			<path class="st5" d="M-432.7-22c-0.4-20.1-10.5-30.3-25-30.9c-34.1-1.1-35.7,60.6-0.8,61.8C-442.3,9.4-432.4-5.3-432.7-22z
				 M-457.9-2.5c-17.4,1.1-13.2-40-0.7-38.9c10.1-0.8,11,12.7,11.1,14C-446.6-17.7-447.3-3.2-457.9-2.5z"/>
			<g>
				<path class="st3" d="M-432.2-22c-0.2-7.7-1.7-15.8-6.5-22c-3.9-5.1-9.7-8.2-16.1-9.1c-10.5-1.4-20.1,3.4-25.2,12.7
					c-9.5,17-4.1,46.1,18,49.5c7.9,1.2,15.8-1.1,21.3-6.9C-434.6-4.3-432.1-13.4-432.2-22c0-0.6-1-0.6-1,0
					C-433-6.9-442.1,9.2-459,8.3c-10.3-0.5-18.3-7.2-22-16.6c-6.5-16.7-0.1-43.2,21.1-44.1c6.9-0.3,13.8,1.9,18.7,6.9
					c6,6.2,7.7,15.1,8,23.4C-433.2-21.4-432.2-21.4-432.2-22z"/>
				<path class="st3" d="M-457.9-3c-13.5,0.6-12-20.9-9.2-29.1c1.8-5.2,5-9.9,11.2-8.7c6.1,1.2,7.7,8.6,8.1,13.9
					C-447.3-18.9-447.1-4-457.9-3c-0.6,0.1-0.6,1.1,0,1c9.9-0.9,11.2-12.6,11.2-20.5c-0.1-5.9-0.5-13.8-5.7-17.7
					c-2.4-1.8-6.2-2.3-9-1.2c-2.4,1-4,3.2-5.2,5.4c-3.2,6.1-4.1,13.9-3.1,20.7c0.9,6.5,4.2,13.7,11.8,13.4
					C-457.2-2.1-457.2-3.1-457.9-3z"/>
			</g>
		</g>
		<g>
			<path class="st5" d="M-371.6-51.9c-0.4-0.3-13.2-0.5-16.4,0.4c-4.3,14.3-19.5,59.1-19,59.5c0.8,0.6,12.1,0.6,12.4,0
				c1.4-4.1,3.8-12.2,3.8-12.2s18.4-0.6,19.3,0c0.6,0.4,2.7,11.4,3.8,12.3c0.8,0.7,14.9,0.3,15,0C-352.3,7.1-370.4-51-371.6-51.9z
				 M-387.4-15.3c-0.3-0.4,4.9-19,6.4-21.1c0.9,2.7,6.4,21.1,6.3,21.1C-376-14.9-387.2-15-387.4-15.3z"/>
			<g>
				<path class="st3" d="M-371.3-52.3c-1.1-0.5-2.6-0.3-3.7-0.3c-2.5-0.1-5.1,0-7.6,0.1c-1.3,0.1-4.5-0.3-5.6,0.6
					c-0.8,0.7-1.1,3.1-1.4,4.1c-3.1,9.9-6.4,19.7-9.6,29.5c-2.6,8-5.4,16.1-7.8,24.2c-0.4,1.4-1.1,2.5,0.8,2.8
					c2,0.3,4.1,0.3,6.1,0.2c1.4,0,4,0.4,5.3-0.3c1.3-0.7,1.5-3.2,1.9-4.5c0.7-2.3,2.1-5.1,2.3-7.6c0-0.2,0.1-0.5,0.2-0.6
					c0,0.1-0.7,0.4-0.3,0.3c0.5-0.1,1,0,1.6,0c2-0.1,4.1-0.1,6.1-0.2c2.3,0,4.6-0.1,6.8-0.1c0.9,0,3.6-0.4,4.4,0.2
					c0.3,0.3,0.5,1.7,0.6,2.1c0.3,1.2,0.6,2.4,0.9,3.6c0.5,1.9,0.8,4,1.7,5.7c1.2,2.2,6,1.3,8.1,1.3c2.1,0,4.3,0,6.4-0.2
					c0.6,0,1.5,0.1,1.8-0.5c0.4-0.9-0.8-3.5-1-4.3c-0.9-3.3-1.9-6.6-2.9-9.8c-2.7-8.9-5.4-17.7-8.3-26.6c-2-6.2-3.7-12.6-6.3-18.7
					c-0.2-0.4-0.3-0.8-0.6-1.1c-0.5-0.5-1.2,0.2-0.7,0.7c0.8,0.8,1.4,3.6,1.8,4.9c1.3,3.7,2.5,7.5,3.7,11.3c3,9.3,5.9,18.7,8.8,28
					c1.1,3.6,2.2,7.2,3.2,10.8c0.3,1.1,0.6,2.3,0.9,3.4c0.1,0.3,0.1,0.6,0.2,0.9c0.1,0.4,0.5-0.1,0-0.1c-4.2-0.3-8.5,0.5-12.8,0.1
					c-2.1-0.2-2.1-1.9-2.6-3.7c-0.7-2.3-1.2-4.7-1.8-7.1c-0.3-1.2-0.4-1.7-1.7-1.9c-2-0.4-4.3-0.2-6.4-0.2c-4.1,0-8.2,0.1-12.3,0.3
					c-0.2,0-0.4,0.2-0.5,0.4c-1.1,3.6-2.1,7.1-3.3,10.6c-0.3,0.8-0.2,1.1-0.9,1.5c-0.5,0.3-1.6,0.1-2.2,0.2c-1.9,0.1-3.8,0.1-5.7,0
					c-0.8,0-1.5,0-2.3-0.1c-0.6-0.1-1.1-0.4-0.9,0.2c-0.1-0.2,0.3-1.1,0.4-1.4c0.6-2.3,1.4-4.5,2.1-6.7c4.8-15.1,9.9-30.2,14.7-45.3
					c0.5-1.5,0.8-3.5,1.5-4.9c0.5-0.9,0.3-0.7,1.5-0.9c0.9-0.1,1.9-0.2,2.9-0.2c2.4-0.1,4.8-0.2,7.2-0.1c1.2,0,3.3-0.3,4.4,0.2
					C-371.2-51.2-370.7-52.1-371.3-52.3z"/>
				<path class="st3" d="M-387-15.4c-0.2-0.7,0.6-2.7,0.8-3.5c0.6-2.1,1.2-4.3,1.8-6.4c1-3.5,1.8-7.8,3.7-10.9
					c-0.3,0-0.6-0.1-0.9-0.1c2,6,3.7,12.1,5.5,18.2c0.3,0.9,0.4,1.8,0.7,2.7c0.2,0.5-0.3-0.2,0.3-0.3c-0.2,0-0.5,0.1-0.7,0.1
					c-0.6-0.1-1.5,0.1-2.2,0.1c-1.9,0-3.7,0-5.6,0c-0.9,0-2.8,0.3-3.6-0.2c-0.6-0.3-1.1,0.6-0.5,0.9c1.5,0.8,4.3,0.3,5.9,0.3
					c2.3,0,4.9,0.3,7.1-0.3c0.2-0.1,0.3-0.3,0.4-0.5c0.1-0.8-0.5-2.1-0.8-2.9c-0.6-2.2-1.3-4.4-1.9-6.6c-1.2-3.9-2.3-7.9-3.6-11.8
					c-0.1-0.4-0.7-0.5-0.9-0.1c-2.1,3.3-2.9,7.9-4,11.6c-0.7,2.3-1.3,4.6-1.9,6.9c-0.2,0.8-0.8,2.2-0.6,3.1
					C-387.7-14.6-386.8-14.8-387-15.4z"/>
			</g>
		</g>
		<g>
			<path class="st5" d="M-346.2-51.9c-0.4,12,0.3,48,0.2,60c0,0.5,3.7,1,11.7-0.1c1.1-0.1-0.1-49-0.1-49S-321.6,6.5-319.6,8
				c0.8,0.6,9.5,0.5,9.6,0.1c2.4-10.6,14.9-49.7,14.9-49.7s-0.4,43.3,0.1,49.5c0.1,0.8,10.8,0.5,14.1-0.1c0.7-0.1,0.5-53,0-59.7
				c0,0-8.1-0.8-21.9,0c-1.2,0.1-10.5,38.2-10.5,38.2s-10.6-38-11-38.2C-324.9-52.2-342.6-52.3-346.2-51.9"/>
			<g>
				<path class="st3" d="M-346.7-51.9c-0.3,10.7-0.1,21.4,0,32c0,5.9,0.1,11.9,0.1,17.8c0,2.3,0,4.6,0,6.9c0,1-0.5,3,0.3,3.8
					c0.7,0.7,2.9,0.5,3.8,0.5c1.5,0,3.1-0.1,4.6-0.2c1-0.1,3.2,0.1,3.8-0.5c0.9-0.8,0.5-3.4,0.6-4.5c0.2-8.4,0-16.8-0.1-25.1
					c-0.1-6.6-0.2-13.1-0.4-19.7c-0.3,0-0.7,0.1-1,0.1c4,14.7,7.8,29.5,12.8,43.9c0.5,1.4,1,4.3,2.3,5.2c1.2,0.9,3.8,0.5,5.1,0.5
					c1.1,0,4,0.4,5-0.3c0.8-0.6,0.9-2.9,1.1-3.8c0.6-2.1,1.2-4.2,1.8-6.4c1.5-5.3,3.1-10.5,4.7-15.8c2.5-8.1,5-16.1,7.6-24.1
					c-0.3,0-0.7-0.1-1-0.1c-0.1,7.5-0.1,14.9-0.2,22.4c0,5.7,0,11.3,0,17c0,2.1,0,4.2,0.1,6.3c0,1-0.3,3,0.2,3.9
					c0.5,1,2.2,0.8,3.2,0.9c3,0.1,6,0,8.9-0.3c1-0.1,2.5,0.1,3-0.8c0.3-0.6,0.2-1.8,0.2-2.4c0.4-9.4,0.3-18.8,0.2-28.1
					c0-9.7,0.3-19.5-0.5-29.1c0-0.3-0.2-0.5-0.5-0.5c-4.3-0.4-8.7-0.4-13-0.3c-2.3,0-4.6,0.1-6.9,0.2c-0.7,0-1.8-0.2-2.4,0.3
					c-0.6,0.5-0.8,1.8-1,2.4c-3,8.9-5.1,18.1-7.3,27.2c-0.7,2.9-1.5,5.8-2.2,8.7c0.3,0,0.6,0,1,0c-2.2-7.9-4.4-15.9-6.7-23.8
					c-1.2-4.2-2.4-8.5-3.7-12.7c-0.2-0.5-0.3-1.6-0.8-2c-0.8-0.6-3.2-0.2-4.1-0.3c-6-0.1-12.2-0.4-18.2,0.2c-0.6,0.1-0.6,1.1,0,1
					c5-0.5,10.3-0.3,15.3-0.2c2,0,4.2-0.2,6.2,0.1c0.6,0.1-0.1-0.4,0.2,0.1c0.2,0.4,0.3,1,0.5,1.5c2.8,9.1,5.3,18.3,7.9,27.5
					c0.8,2.9,1.6,5.8,2.4,8.7c0.1,0.5,0.8,0.5,1,0c2.7-11.1,5.4-22.1,8.6-33.1c0.3-1.1,0.6-2.1,1-3.2c0.1-0.3,0.2-0.9,0.4-1.1
					c0.6-0.7-0.3-0.1,1-0.5c1.6-0.4,3.8-0.2,5.4-0.2c1.3,0,2.6-0.1,4-0.1c2.4,0,4.8,0,7.2,0.1c1.1,0,2.5,0.4,3.6,0.2
					c0.2,0,0.4,0,0.6,0.1c-0.8-0.2-0.3-0.4-0.4,0.5c-0.3,2.1,0.2,4.5,0.2,6.5c0.3,14.6,0.4,29.3,0.1,43.9c0,2.2-0.1,4.4-0.2,6.6
					c0,0.3,0.1,1.2-0.1,1.4c0.1-0.1-1.1,0-1.5,0.1c-1,0.1-2.1,0.2-3.2,0.2c-2,0.1-4,0.2-6,0.1c-1.5-0.1-2.4,0.2-2.5-0.8
					c-0.3-2.4-0.1-4.9-0.2-7.3c-0.1-13.8,0-27.6,0.1-41.4c0-0.6-0.8-0.7-1-0.1c-4.9,15.4-10,30.8-14.1,46.5
					c-0.2,0.8-0.4,1.5-0.6,2.3c-0.2,0.9,0,0.7-1.1,0.8c-2.2,0.2-4.5,0.2-6.7,0c-1.2-0.1-1.3-0.2-1.8-1.3c-0.5-1.1-0.9-2.3-1.3-3.5
					c-2.8-8.2-5.2-16.6-7.5-25c-1.8-6.3-3.6-12.7-5.3-19c-0.1-0.5-1-0.4-1,0.1c0.3,13.1,0.6,26.3,0.5,39.4c0,2.7,0,5.4-0.2,8
					c-0.1,1.8-0.5,1.2-2.5,1.4c-2.4,0.2-5.1,0.6-7.5,0.2c-0.9-0.1-0.8,0-1-0.7c-0.2-0.8,0-2,0-2.8c0-2.1,0-4.3,0-6.4
					c0-5.5-0.1-11-0.1-16.4c-0.1-11.2-0.3-22.5,0-33.7C-345.7-52.5-346.7-52.5-346.7-51.9L-346.7-51.9z"/>
			</g>
		</g>
		<g>
			<path class="st5" d="M-246.1-51.4c0,15.2-0.9,59.2,0.1,59.3c1.2,0.2,13.6,1,13.9-0.1c0.5-1.9,0.4-59.4-0.1-59.5
				C-232.6-51.8-242.4-52.3-246.1-51.4"/>
			<g>
				<path class="st3" d="M-246.6-51.4c0,13.8-0.3,27.5-0.3,41.3c0,5.3-0.1,10.5,0.2,15.8c0,0.6-0.1,2.1,0.4,2.6
					c0.9,0.9,4.3,0.5,5.4,0.5c2.6,0.1,5.8,0.6,8.3-0.1c1-0.3,1-0.7,1.1-1.6c0.3-3.6,0.2-7.3,0.2-10.9c0.1-12.2,0.1-24.4,0-36.6
					c0-2.4-0.1-4.8-0.1-7.3c0-1.1,0.2-2.8-0.1-3.8c-0.4-1.2-1.8-0.9-3-0.9c-3.8-0.2-7.8-0.4-11.6,0.5c-0.6,0.1-0.4,1.1,0.3,1
					c3.2-0.7,6.7-0.6,10-0.5c1,0,2.4-0.1,3.4,0.2c-0.1,0,0-0.5,0,0.2c-0.2,3.1,0.2,6.4,0.2,9.5c0.1,11.1,0.1,22.1,0.1,33.2
					c0,4.2,0,8.5-0.1,12.7c0,0.6,0.3,2.6-0.1,3.1c-0.6,0.9-4.4,0.4-5.6,0.4c-1.3,0-2.7-0.1-4-0.2c-1-0.1-2.4,0.1-3.4-0.2
					c-0.6-0.2,0.1,0.3,0,0.1c-0.1-0.1-0.1-0.4-0.1-0.5c0-0.6-0.1-1.3-0.1-1.9C-246,0.4-246-4.5-246-9.3c0-14,0.3-28.1,0.3-42.1
					C-245.6-52-246.6-52-246.6-51.4L-246.6-51.4z"/>
			</g>
		</g>
		<g>
			<path class="st5" d="M-218-47.8c-4.1,3.1-7.5,14.7-7.1,14.9c1.4,0.4,11.3,1.9,12,1.5c0.3-0.2-0.3-8.6,6.5-10.5
				c10.3-2.8,11.4,8.2,7.3,12.9c-1.4,1.5-6.7,3.4-9.4,8.1c-2.3,3.9-1.6,9.8-1.1,11.8c0,0,8.8-0.1,10.8,0c0.2,0,0.4-0.2,0.4-0.4
				c0.3-3-1-4,0.7-5.6c6.1-5.7,15.5-10.7,14.7-21.3C-184.6-53.5-208.1-57.7-218-47.8"/>
			<g>
				<path class="st3" d="M-218.4-48.1c-2.4,1.9-3.8,5-4.9,7.7c-0.6,1.5-1.2,2.9-1.6,4.4c-0.2,0.7-0.9,2-0.7,2.8
					c0.3,1.4,3.1,1.2,4.2,1.4c1.5,0.2,2.9,0.4,4.4,0.6c1,0.1,2.6,0.6,3.6,0.3c1.3-0.4,0.9-2,1.1-3.2c0.7-4,2.9-7,7.1-7.7
					c4-0.7,7.2,1.4,7.6,5.5c0.3,2.9-0.8,6.1-3.2,7.8c-3.3,2.3-7,4.2-8.8,8.1c-1.6,3.4-1.5,7.6-0.7,11.3c0,0.2,0.3,0.3,0.5,0.4
					c2.3,0.2,4.8,0,7.1,0c2.2,0,4.7,0.9,4.7-1.9c-0.1-2.2-0.5-3.2,1.4-4.9c1.5-1.3,3-2.5,4.5-3.8c2.7-2.3,5.4-4.7,7.3-7.8
					c3.4-5.7,2.8-13.2-1.1-18.4c-3.4-4.5-8.8-7.1-14.3-7.8C-206.8-54.2-213.7-52.7-218.4-48.1c-0.5,0.4,0.2,1.2,0.7,0.7
					c8.7-8.4,26.2-6.4,32.1,4.5c4,7.4,1.2,15-4.5,20.4c-2.5,2.4-5.5,4.4-8,6.9c-0.8,0.8-1.3,1.5-1.3,2.6c0,0.7,0.2,1.4,0.2,2.1
					c0,1.2-0.1,1.1-1,1.3c-2.6,0.4-5.7,0-8.4,0c-0.2,0-0.9,0.1-1.1,0c0,0,0.1,0.1,0.1-0.6c0-1.8-0.4-3.6-0.2-5.5
					c0.5-4.9,3.5-8.1,7.5-10.6c2-1.3,3.7-2.3,4.7-4.6c1.7-3.7,1.4-9.1-2.6-11.2c-4.7-2.5-10.7,0.6-12.5,5.3
					c-0.4,1.1-0.6,2.2-0.8,3.4c-0.1,0.4,0,1-0.1,1.4c-0.2,0.5,0.5,0.2-0.3,0.2c-3,0-6.2-0.6-9.2-1.1c-0.4-0.1-1.4-0.1-1.6-0.3
					c0.2,0.1,0,0,0.2-0.6c0.5-1.3,0.8-2.6,1.2-3.9c1.2-3.3,2.8-7.3,5.6-9.6C-217.2-47.8-217.9-48.5-218.4-48.1L-218.4-48.1z"/>
			</g>
		</g>
		<g>
			<path class="st5" d="M-210.3-5.1c0,5.9-0.6,12.5,0,13.2c0.3,0.3,14,0.1,13.9-0.3c-0.1-0.6,0.4-13.1-0.5-12.9
				C-198.5-4.9-208.6-5.6-210.3-5.1"/>
			<g>
				<path class="st3" d="M-210.8-5.1c0,3.8-0.4,7.6-0.3,11.4c0,1.1-0.1,2,1,2.3c1.5,0.5,3.8,0.1,5.4,0.1c2.2,0,4.4-0.1,6.5-0.2
					c0.7,0,1.8,0.1,2.2-0.6c0.5-0.8,0-3.3,0-4.2c0-2.3,0.1-4.6-0.1-6.8c-0.1-0.8,0-2.1-0.9-2.5c-0.5-0.2-1.8,0.1-2.3,0.1
					c-1.4,0-2.8-0.1-4.2-0.1c-2.3-0.1-4.9-0.4-7.2,0.2c-0.6,0.1-0.4,1.1,0.3,1c2.2-0.5,4.7-0.2,6.9-0.1c1.2,0,2.5,0.1,3.7,0.1
					c0.4,0,2.3-0.3,2.6-0.1c-0.2-0.2,0,1.6,0,1.9c0.1,1.1,0.1,2.2,0.1,3.2c0,2.1-0.3,4.4-0.1,6.5c0,0.2,0.1,0.5,0,0.7
					c-0.1,0.4,0.5-0.3,0.1-0.3c-0.9,0.1-1.7,0.2-2.6,0.2c-2.2,0.1-4.4,0.2-6.6,0.2c-0.9,0-2.2,0.2-3.1,0c-1-0.3-0.8,0.2-0.9-1.1
					c-0.2-3.9,0.2-7.8,0.3-11.6C-209.8-5.7-210.8-5.7-210.8-5.1L-210.8-5.1z"/>
			</g>
		</g>
	</g>
</g>
<g id="Слой_4" class="st0">
	<g class="st2">
		<path class="st4" d="M-597.5,84c3.8,5.8,10.4,20.7,11.3,21.5c1.3,1.1,14.9,0.7,16.6-0.7c1.7-1.6,2.3-3.1,3.9-5.5"/>
		<path class="st4" d="M-580.8,39.3c-1.6,0.7-6.6,1.3-7.1,1.5c-0.6,0.3-5.2,8.6-6.7,12.4"/>
		<path class="st4" d="M-616.6,39.8c-1.4,1.3-3.9,4.7-3.5,5.6c0.6,1,12.8,21.4,12.9,22.2c0.1,1.1-18.9,33.4-18.7,35.8
			c0.1,1.1,15.8,1.5,16.3,1.3c0.7-0.3,3.7-5.2,4.8-7.3"/>
		<path class="st4" d="M-565.2,39.3c-1.8,2-3.9,2.4-4.4,5.1c-0.2,1,0.4,12.3,0.9,12.8c0.6,0.6,8.7,0.6,12.4,0.5
			c0.3,3.8,0.3,45.1,0.6,45.6c0.6,0.8,9.8,0.9,13.8,0.5c0.8-0.1,4.9-3.2,5.6-4.7"/>
		<path class="st4" d="M-521.5,51.1c-0.8,1.1-1.3,2.4-1.9,3.7c-0.6,1.2-1.4,2.5-2.6,3.1c-0.7,0.3-1.4,0.5-2.2,0.6
			c-3.2,0.4-6.5-0.2-9.4,1.1c0.1,0.2,0.3,0.2,0.5,0.2"/>
		<path class="st4" d="M-422.3,56.4c2-1.9,5.1-2,7.9-2c1.4,0,3,0.1,3.9,1.2c0.4,0.5,0.6,1.2,0.8,1.8c0.7,2.6,0.9,5.3,0.6,8"/>
		<path class="st4" d="M-417.2,81.8c1.3-0.3,7.6-0.5,8.4,0.6c0.7,1.1-0.3,22,1.7,23.2c1,0.6,14.6,0.5,15,0.3
			c0.4-0.2,3.2-4.3,4.1-7.1"/>
		<path class="st4" d="M-434.7,48.7c-9.4,16.3,1.7,23.9,1.9,25c0.4,2.4-13.9,27.6-12.3,29.4c1.2,1.2,16,2.7,16.3,2.4
			c2.1-1.8,3.7-3.8,5.1-6.2"/>
		<path class="st4" d="M-615.9,42.2c-1.2,1.6-2.1,2.9-3.3,4.6"/>
		<path class="st4" d="M-613.7,45c0.1,0.2,0,0.4-0.1,0.5c-1.1,1.6-2.2,3.2-3.3,4.8"/>
		<path class="st4" d="M-611.3,49.3c-1.4,1.6-2.5,3-3.9,4.6"/>
		<path class="st4" d="M-609.4,52.9c-1.3,1.4-2.6,2.7-4,4"/>
		<path class="st4" d="M-607,56.5c-1.3,1.5-2.8,3-4.3,4.3"/>
		<path class="st4" d="M-605.1,59.9c-1.6,1.4-2.6,2.3-4,3.9"/>
		<path class="st4" d="M-603.1,63.2c-1.3,1.3-2.7,2.6-4,3.9c-0.1,0.1-0.2,0.1-0.3,0.1"/>
		<path class="st4" d="M-609,71c2.2-1.2,5.7-2.9,8-3.8"/>
		<path class="st4" d="M-611,75.1c2.9-1.1,4.6-1.8,7.5-2.9"/>
		<path class="st4" d="M-614.5,81.2c2.1-1,5.3-2.4,7.5-3.2"/>
		<path class="st4" d="M-617.4,86.5c2-1.1,4.6-1.9,6.8-2.2"/>
		<path class="st4" d="M-620.5,91.9c2.2-0.8,4.8-1.7,7-2.4"/>
		<path class="st4" d="M-624.1,98.7c2.1-1.3,4.2-2.2,6.6-2.8"/>
		<path class="st4" d="M-624.9,103.7c3.1-1.3,6-3,8.7-4.9"/>
		<path class="st4" d="M-618.3,104.4c1.7-1.3,4.3-3.3,5.9-4.7c0,0,0.1,0,0.1,0"/>
		<path class="st4" d="M-611.8,104.7c1.2-1.5,3.6-3.7,5.2-4.8"/>
		<path class="st4" d="M-596,86.4c1.1-1.4,3.3-3.3,4.6-4.5"/>
		<path class="st4" d="M-593.5,90.7c1.5-1.7,3.2-3.3,5-4.6c-0.1,0.2-0.3,0.4-0.4,0.6"/>
		<path class="st4" d="M-590.1,97.6c1.2-2,2.7-3.9,4.5-5.5"/>
		<path class="st4" d="M-587.9,102.4c1-2,2.4-3.9,3.9-5.6"/>
		<path class="st4" d="M-584.6,105.9c1.5-2,3.5-4.3,5.2-6.2"/>
		<path class="st4" d="M-576.6,105.8c1.3-2.2,2.9-4.3,4.6-6.1"/>
		<path class="st4" d="M-571.8,105.2c1.1-2.2,2.3-4.4,3.7-6.4"/>
		<path class="st4" d="M-592.9,54.9c1.6-1.4,4.1-3,6-3.9"/>
		<path class="st4" d="M-593.7,51.1c1.1-1.5,3.2-2.3,4.9-3.1c1.9-0.8,3.6-1.8,5.4-3"/>
		<path class="st4" d="M-590.5,44.9c1.8-1.1,4.6-2,6.6-2.8c0.6-0.2,1.7-0.7,2.2-1.1"/>
		<path class="st4" d="M-569.6,47c1.1-1.1,2.4-2,3.7-2.8"/>
		<path class="st4" d="M-569.2,52.3c1.2-1.1,2.5-2.1,3.8-3c-0.1,0.1-0.2,0.2-0.3,0.3"/>
		<path class="st4" d="M-568.2,57.5c2.3-2.1,5.2-4.4,7.7-6.1"/>
		<path class="st4" d="M-560.4,57.8c2.2-2,5.1-4.3,7.4-6.2"/>
		<path class="st4" d="M-556.2,61.9c1.8-1.9,3.7-3.8,5.7-5.4c-0.1,0-0.2,0.1-0.3,0.1"/>
		<path class="st4" d="M-556.3,68.5c1.9-1.7,3.7-3.3,5.6-5c-0.1,0.1-0.2,0.1-0.3,0.2"/>
		<path class="st4" d="M-556.2,75.3c1.8-1.8,3.7-3.6,5.6-5.3"/>
		<path class="st4" d="M-555.9,82.2c1.7-2,3.9-4.2,6-5.9c-0.2,0.2-0.4,0.3-0.7,0.5"/>
		<path class="st4" d="M-555.9,88c1.7-1.8,3.2-3.1,5.1-4.6"/>
		<path class="st4" d="M-555.7,93.8c1.6-1.7,3-2.9,4.8-4.3"/>
		<path class="st4" d="M-555.9,98.8c1.8-1.6,3.3-2.9,5.1-4.5"/>
		<path class="st4" d="M-554.3,103.8c1.7-1.5,3.3-3,5-4.4"/>
		<path class="st4" d="M-547.8,104.3c1.6-1.9,3.4-3.6,5.5-4.9"/>
		<path class="st4" d="M-536.6,54.6c1.4-1.4,3-2.6,4.8-3.5"/>
		<path class="st4" d="M-532.3,58.8c0.6-0.7,1.9-1.8,2.5-2.5c1.6-1.7,3.6-3.7,5.6-4.9"/>
		<path class="st4" d="M-438.5,63.7c0.8-1.3,1.6-2.5,2.4-3.8"/>
		<path class="st4" d="M-436.2,69.1c0.9-1.3,1.8-2.5,2.7-3.8c0,0,0.1-0.1,0.1-0.1c0.1,0,0.1,0.1,0,0.1"/>
		<path class="st4" d="M-433.4,73.3c0.8-1.4,1.7-2.5,2.7-3.8"/>
		<path class="st4" d="M-434.6,78.6c2.1-1.2,5.3-2.8,7.6-3.6c-0.1,0.1-0.2,0.2-0.3,0.2"/>
		<path class="st4" d="M-437.6,84.9c1.7-1.1,3.1-2,4.8-3.1c0.7-0.4,2.1-1.2,2.8-1.4"/>
		<path class="st4" d="M-440.4,90.9c1-0.5,1.6-1,2.7-1.5c1.4-0.7,2.8-1.4,4.3-1.6"/>
		<path class="st4" d="M-443.5,97.4c2.1-1.3,4.4-2.3,6.8-2.9"/>
		<path class="st4" d="M-443.7,103.6c1.9-1.6,4.3-3.3,6.5-4.5c-0.1,0.1-0.1,0.1-0.2,0.2"/>
		<path class="st4" d="M-437.8,104.5c0-0.3,0.5-0.7,0.8-0.9c1.8-1.6,3.6-3.2,5.5-4.8"/>
		<path class="st4" d="M-431.5,105.3c0.2-0.4,0.5-0.7,0.8-0.9c1.7-1.5,3.9-3.3,5.6-4.8"/>
		<path class="st4" d="M-416.3,81.5c2.3-1.5,4.9-3.8,6.8-5.8c0.2-0.2,0.5-0.5,0.9-0.5"/>
		<path class="st4" d="M-409.1,82.2c2.1-1.9,4.8-4.4,6.8-6.3"/>
		<path class="st4" d="M-408.7,89.1c2-2.2,4.2-4.2,6.5-6"/>
		<path class="st4" d="M-408.5,95.2c2-2.2,3.9-4,6.3-5.7"/>
		<path class="st4" d="M-408.3,101.5c2-1.9,4-3.8,6-5.8"/>
		<path class="st4" d="M-405.9,106c2.1-2.1,4.7-4.7,6.8-6.7"/>
		<path class="st4" d="M-398.1,105.8c1.8-2.1,3.8-4.9,5.3-7.3c-0.1,0.1-0.2,0.1-0.4,0.2"/>
		<path class="st4" d="M-419.4,55.1c0-0.5,0.4-0.9,0.7-1.2c1.2-1.2,2.5-2.3,3.8-3.4"/>
		<path class="st4" d="M-412.6,54.3c1.4-1.6,3-3,4.8-4.2"/>
		<path class="st4" d="M-409.3,57.7c2.4-2.1,4.9-4.1,7.4-6"/>
		<path class="st4" d="M-409.1,62.4c2.2-1.7,4.4-3.4,6.6-5"/>
		<path class="st4" d="M-406.2,65.4c1.3-1.2,2.8-2.3,4.3-3.3c-0.1-0.1-0.2-0.1-0.2-0.1"/>
		<path class="st6" d="M-601,39.3c0.5,0.3,2.5,4.1,3.7,6.4c1.8,3.8,3.6,7.6,5.5,11.4c0.2,0.4,0.4,0.8,0.8,0.8c0.3,0,0.6-0.3,0.7-0.6
			c3.1-5.3,9.1-17.7,9.5-17.9c0.4-0.3,12.6-0.2,13,0c0.9,0.4-16.2,27.1-16.4,27.8c-0.3,1.3,18.7,31.6,18.4,32
			c-0.5,0.5-15.1,1-16.1,0.4c-0.9-0.5-9.3-18.3-12.1-21.9c-3.1,5.5-11,20.7-12.1,21.5c-1.3,0.9-13.6,0.7-13-0.2
			c6.5-11,17.5-29.8,17.5-29.9c0.3-0.6,0.5-1.3,0.5-2c0-1.2-12.3-20.8-13.5-23.3c-0.5-1-1.5-2.3-2.1-3.6
			C-617.4,38.5-602.6,38.6-601,39.3z"/>
		<g>
			<g>
				<path class="st3" d="M-499.8,55.1c3.9-3.1,7.9-0.3,8.6,4.1c0.5,3.3,0.4,6.8,0.2,10.1c-0.3,6.8-1.4,13.5-1.4,20.2
					c0.3,0,0.7-0.1,1-0.1c-0.1-0.4-0.2-0.5-0.5-0.8c-0.4-0.5-1.2,0.2-0.7,0.7c0.1,0.1,0.1,0.2,0.2,0.4c0.2,0.5,1,0.5,1-0.1
					c0-9.6,2.1-19.1,1.3-28.8c-0.2-2.6-0.7-5.2-2.9-6.9c-2.5-1.9-5.2-1.3-7.5,0.5C-501,54.8-500.3,55.5-499.8,55.1L-499.8,55.1z"/>
			</g>
		</g>
		<g>
			<g>
				<path class="st3" d="M-506.2,42c-2.4,0.9-4.5,2.8-6.5,4.4c-2.5,2.1-4.7,4.4-6.4,7.2c-4.1,6.6-5.8,14.7-5.8,22.5
					c0,13.4,8.8,27,22.6,29.6c8.6,1.6,15.9-2.5,22.1-8.1c0.5-0.4-0.2-1.1-0.7-0.7c-5.6,5-12,9-19.8,8c-6.3-0.8-11.9-4.3-16-9
					c-9.1-10.5-9.1-26.7-3.2-38.9c1.6-3.3,3.7-6.3,6.5-8.7c2.2-2,4.7-4.3,7.5-5.4C-505.4,42.7-505.6,41.8-506.2,42L-506.2,42z"/>
			</g>
		</g>
		<path class="st4" d="M-513.5,50.1c-1.6,1-3.4,2.2-5,3.3"/>
		<path class="st4" d="M-515.9,55.9c0,0.1,0.1-0.1,0.1-0.1c-0.1,0-0.2,0-0.2,0.1c-1.6,1.2-3.3,2.4-4.9,3.7c-0.4,0.3-0.7,0.5-1,0.9"
			/>
		<path class="st4" d="M-517.8,62.7c-2,1.6-3.9,3.2-5.9,4.8"/>
		<path class="st4" d="M-518.4,68.8c-2.1,1.9-4,3.6-6.1,5.5"/>
		<path class="st4" d="M-518,75.5c-2.2,2-4,3.8-6,5.8"/>
		<path class="st4" d="M-517,82.5c-1.8,1.7-3.6,3.4-5.4,5"/>
		<path class="st4" d="M-514.5,87.4c-1.9,1.9-3.3,3.4-5.2,5.3"/>
		<path class="st4" d="M-510.1,93.1c-1.7,1.6-3.4,3.3-5.1,4.9"/>
		<path class="st4" d="M-505,97c-1.7,1.7-3.4,3.4-5.1,5.1c-0.1,0.1-0.4,0-0.3-0.2s0.4-0.1,0.3,0.1"/>
		<path class="st4" d="M-499.9,99.5c-1.6,1.5-3.4,3.5-5,5"/>
		<path class="st4" d="M-493.5,100.6c-1.2,1.3-3.2,3.5-4.2,5"/>
		<path class="st4" d="M-487.9,100.1c-1.1,1.1-2.1,2.4-2.9,3.8"/>
		<path class="st4" d="M-491.2,50.5c-0.4,0-0.7,0.3-1,0.6c-0.8,0.8-1.6,1.6-2.4,2.4"/>
		<path class="st4" d="M-486.4,52.4c-1.6,1.6-3.1,3.2-4.5,4.8"/>
		<path class="st4" d="M-483.9,55.8c-2.4,2.1-4.6,4.4-6.7,6.8"/>
		<path class="st4" d="M-482.4,61.3c-1.2,1.5-2.4,2.9-3.8,4.2c-1.4,1.3-3.1,2.4-4.1,4c0-0.2,0.1-0.3,0.1-0.5"/>
		<path class="st4" d="M-481.7,68.2c-3.4,3.6-6.6,7.3-9.7,11.1"/>
		<path class="st4" d="M-482.1,75.2c-2.9,3.4-6,6.6-9.3,9.6"/>
		<path class="st4" d="M-484,82.8c-2.4,2-4.8,4.1-6.8,6.4"/>
		<g>
			<path class="st5" d="M-467.5,69.7c-0.4-20.1-10.5-30.3-25-30.9c-34.1-1.1-35.7,60.6-0.8,61.8C-477.1,101.1-467.1,86.5-467.5,69.7
				z M-492.6,89.2c-17.4,1.1-13.2-40-0.7-38.9c10.1-0.8,11,12.7,11.1,14C-481.4,74-482,88.5-492.6,89.2z"/>
			<g>
				<path class="st3" d="M-467,69.7c-0.2-7.7-1.7-15.8-6.5-22c-3.9-5.1-9.7-8.2-16.1-9.1c-10.5-1.4-20.1,3.4-25.2,12.7
					c-9.5,17-4.1,46.1,18,49.5c7.9,1.2,15.8-1.1,21.3-6.9C-469.3,87.4-466.9,78.4-467,69.7c0-0.6-1-0.6-1,0
					c0.2,15.1-8.9,31.2-25.8,30.4c-10.3-0.5-18.3-7.2-22-16.6c-6.5-16.7-0.1-43.2,21.1-44.1c6.9-0.3,13.8,1.9,18.7,6.9
					c6,6.2,7.7,15.1,8,23.4C-468,70.3-467,70.4-467,69.7z"/>
				<path class="st3" d="M-492.6,88.7c-13.5,0.6-12-20.9-9.2-29.1c1.8-5.2,5-9.9,11.2-8.7c6.1,1.2,7.7,8.6,8.1,13.9
					C-482,72.8-481.8,87.8-492.6,88.7c-0.6,0.1-0.6,1.1,0,1c9.9-0.9,11.2-12.6,11.2-20.5c-0.1-5.9-0.5-13.8-5.7-17.7
					c-2.4-1.8-6.2-2.3-9-1.2c-2.4,1-4,3.2-5.2,5.4c-3.2,6.1-4.1,13.9-3.1,20.7c0.9,6.5,4.2,13.7,11.8,13.4
					C-492,89.7-492,88.7-492.6,88.7z"/>
			</g>
		</g>
		<path class="st4" d="M-370.6,41c-7.5,2.6-13.4,8.9-13.7,16.8c-0.1,1.2,0,3.6,0.8,4.6c0.6,0.7,9.2,1.4,10.6,1.1
			c0.7-0.1,3-1.9,4-3.9"/>
		<path class="st4" d="M-367.1,53.3c2.1-0.9,4.9-1.5,7.1-0.7c1.4,0.5,2.4,1.9,2.8,3.3c0.3,0.8,0,1.8-0.1,2.7c-0.4,2.8-1.2,5.5-2.3,8
			"/>
		<path class="st4" d="M-362.4,67.6c-1.6,1.1-3.8,2.6-5.2,4.1c-0.8,0.8-1.5,1.7-2,2.7c-1.1,2.1-0.8,9.3-0.1,10.1
			c0.6,0.6,9.5,1.4,10,1.3c2.1-0.7,4.3-2.4,5-4.2"/>
		<path class="st4" d="M-365.9,86.2c-1.1,1-4.5,3.8-4.8,4.5c-0.3,0.8-0.1,12.3,1,13c0.6,0.4,12.8,0.2,13.8-0.5c0.6-0.5,3.2-3,4-4.5"
			/>
		<path class="st4" d="M-349.3,98.3"/>
		<path class="st4" d="M-381.6,49.4c1.6-1.1,3.2-2,5-2.7c-0.1,0-0.2,0.1-0.3,0.1"/>
		<path class="st4" d="M-384.1,55.6c0.3-0.5,0.8-1,1.2-1.4c1.4-1.2,2.9-2.3,4.5-3.3"/>
		<path class="st4" d="M-383.9,61.7c1.3-1.4,2.8-2.8,4.2-4.1"/>
		<path class="st4" d="M-378.6,63.4c0-0.3,0.3-0.6,0.5-0.8c1.3-1.2,2.7-2.3,4.1-3.3"/>
		<path class="st4" d="M-363.2,52.4c1.5-1.3,3.1-2.4,4.8-3.3"/>
		<path class="st4" d="M-357.7,54.2c1.4-0.9,2.7-1.9,4.1-2.8c0,0,0.1-0.1,0.1-0.1c0,0-0.1,0-0.1,0"/>
		<path class="st4" d="M-357.6,60c1.6-1.2,3.7-2.4,5.4-3.4c-0.1,0-0.2,0-0.3,0"/>
		<path class="st4" d="M-370.2,76.1c1.6-1.3,3.3-2.4,5.1-3.2c-0.1,0.1-0.2,0.1-0.4,0.2"/>
		<path class="st4" d="M-370.2,81.4c1.4-1.4,3-2.8,4.6-4"/>
		<path class="st4" d="M-368.6,84.9c1.1-1,2.8-2.3,3.9-3.3"/>
		<path class="st4" d="M-363,85.6c1.3-1.3,3.2-3.1,4.6-4.3"/>
		<path class="st4" d="M-370.9,94.8c1.7-1.6,3.8-3.4,5.6-4.8"/>
		<path class="st4" d="M-370.4,101.4c1.3-1.6,2.8-3.2,4.2-4.7"/>
		<path class="st4" d="M-366.8,103.7c1.3-1.7,2.7-3.2,4.3-4.7"/>
		<path class="st4" d="M-360.5,103.9c0.9-1.4,2.7-3.5,3.9-4.7"/>
		<g>
			<path class="st5" d="M-373.6,43.2c-4.1,3.1-7.5,14.7-7.1,14.9c1.4,0.4,11.3,1.9,12,1.5c0.3-0.2-0.3-8.6,6.5-10.5
				c10.3-2.8,11.4,8.2,7.3,12.9c-1.4,1.5-6.7,3.4-9.4,8.1c-2.3,3.9-1.6,9.8-1.1,11.8c0,0,8.8-0.1,10.8,0c0.2,0,0.4-0.2,0.4-0.4
				c0.3-3-1-4,0.7-5.6c6.1-5.7,15.5-10.7,14.7-21.3C-340.1,37.5-363.7,33.3-373.6,43.2"/>
			<g>
				<path class="st3" d="M-373.9,42.9c-2.4,1.9-3.8,5-4.9,7.7c-0.6,1.5-1.2,2.9-1.6,4.4c-0.2,0.7-0.9,2-0.7,2.8
					c0.3,1.4,3.1,1.2,4.2,1.4c1.5,0.2,2.9,0.4,4.4,0.6c1,0.1,2.6,0.6,3.6,0.3c1.3-0.4,0.9-2,1.1-3.2c0.7-4,2.9-7,7.1-7.7
					c4-0.7,7.2,1.4,7.6,5.5c0.3,2.9-0.8,6.1-3.2,7.8c-3.3,2.3-7,4.2-8.8,8.1c-1.6,3.4-1.5,7.6-0.7,11.3c0,0.2,0.3,0.3,0.5,0.4
					c2.3,0.2,4.8,0,7.1,0c2.2,0,4.7,0.9,4.7-1.9c-0.1-2.2-0.5-3.2,1.4-4.9c1.5-1.3,3-2.5,4.5-3.8c2.7-2.3,5.4-4.7,7.3-7.8
					c3.4-5.7,2.8-13.2-1.1-18.4c-3.4-4.5-8.8-7.1-14.3-7.8C-362.3,36.8-369.2,38.3-373.9,42.9c-0.5,0.4,0.2,1.2,0.7,0.7
					c8.7-8.4,26.2-6.4,32.1,4.5c4,7.4,1.2,15-4.5,20.4c-2.5,2.4-5.5,4.4-8,6.9c-0.8,0.8-1.3,1.5-1.3,2.6c0,0.7,0.2,1.4,0.2,2.1
					c0,1.2-0.1,1.1-1,1.3c-2.6,0.4-5.7,0-8.4,0c-0.2,0-0.9,0.1-1.1,0c0,0,0.1,0.1,0.1-0.6c0-1.8-0.4-3.6-0.2-5.5
					c0.5-4.9,3.5-8.1,7.5-10.6c2-1.3,3.7-2.3,4.7-4.6c1.7-3.7,1.4-9.1-2.6-11.2c-4.7-2.5-10.7,0.6-12.5,5.3
					c-0.4,1.1-0.6,2.2-0.8,3.4c-0.1,0.4,0,1-0.1,1.4c-0.2,0.5,0.5,0.2-0.3,0.2c-3,0-6.2-0.6-9.2-1.1c-0.4-0.1-1.4-0.1-1.6-0.3
					c0.2,0.1,0,0,0.2-0.6c0.5-1.3,0.8-2.6,1.2-3.9c1.2-3.3,2.8-7.3,5.6-9.6C-372.7,43.2-373.4,42.5-373.9,42.9L-373.9,42.9z"/>
			</g>
		</g>
		<g>
			<path class="st5" d="M-365.9,85.9c0,5.9-0.6,12.5,0,13.2c0.3,0.3,14,0.1,13.9-0.3c-0.1-0.6,0.4-13.1-0.5-12.9
				C-354.1,86.1-364.1,85.4-365.9,85.9"/>
			<g>
				<path class="st3" d="M-366.4,85.9c0,3.8-0.4,7.6-0.3,11.4c0,1.1-0.1,2,1,2.3c1.5,0.5,3.8,0.1,5.4,0.1c2.2,0,4.4-0.1,6.5-0.2
					c0.7,0,1.8,0.1,2.2-0.6c0.5-0.8,0-3.3,0-4.2c0-2.3,0.1-4.6-0.1-6.8c-0.1-0.8,0-2.1-0.9-2.5c-0.5-0.2-1.8,0.1-2.3,0.1
					c-1.4,0-2.8-0.1-4.2-0.1c-2.3-0.1-4.9-0.4-7.2,0.2c-0.6,0.1-0.4,1.1,0.3,1c2.2-0.5,4.7-0.2,6.9-0.1c1.2,0,2.5,0.1,3.7,0.1
					c0.4,0,2.3-0.3,2.6-0.1c-0.2-0.2,0,1.6,0,1.9c0.1,1.1,0.1,2.2,0.1,3.2c0,2.1-0.3,4.4-0.1,6.5c0,0.2,0.1,0.5,0,0.7
					c-0.1,0.4,0.5-0.3,0.1-0.3c-0.9,0.1-1.7,0.2-2.6,0.2c-2.2,0.1-4.4,0.2-6.6,0.2c-0.9,0-2.2,0.2-3.1,0c-1-0.3-0.8,0.2-0.9-1.1
					c-0.2-3.9,0.2-7.8,0.3-11.6C-365.4,85.3-366.4,85.3-366.4,85.9L-366.4,85.9z"/>
			</g>
		</g>
		<path class="st6" d="M-565.4,51.1c0.2,0.2,14.6,0.5,14.7,0.7c0.1,0.1-0.4,38.3,0.1,47.4c3.6,0.5,13.7,0.9,14.3,0
			c0.4-0.6-0.6-47.9-0.3-48.1c0.4-0.2,13.9,0.5,14.8,0.1c0.8-0.3,0.5-11.6-0.1-11.9c-0.3-0.2-42.5-1-43.4,0
			C-566,40.2-565.6,51-565.4,51.1z"/>
		<path class="st6" d="M-388.7,39.3c-0.3-0.2-28.1,0.1-30.4,0.4c-3,0.3-6.2,0.9-8.9,2.3c-5.3,2.7-8.5,8.4-8.5,14.4
			s3.1,12.5,8.4,15.2c0.9,0.4,2.1,0.4,2,1.3c0,0.3-0.2,0.6-0.3,0.9c-4.4,8-8.3,16.2-11.7,24.6c-0.2,0.5,0.2,0.9,0.7,0.9
			c4.8-0.8,13.4,0.5,13.7,0.4c0.4-0.3,5.2-15.8,8.8-22.7c0.1-0.3,0.3-0.5,0.5-0.7c0.3-0.2,0.6-0.2,1-0.2c3.8-0.2,7.5-0.5,11.3-0.7
			c-0.1,4.9,0,24,0.2,24.2c0.2,0.2,9.9-0.1,13.7-0.1C-387.5,97.8-388.4,39.6-388.7,39.3z M-402.1,65.4c-5-0.1-10.1,0-15-0.6
			c-1-0.1-3.8-1.7-4.5-3.9c-0.4-1.4-0.7-2.3-0.7-3.7c0.1-1.9,0.9-3.7,2.5-5.3c1.8-1.9,15.2-2.2,17-2
			C-401.6,50.1-402.2,61.7-402.1,65.4z"/>
	</g>
</g>
<g id="Слой_8" class="st0">
	<rect x="-646.6" y="904.8" style="display:inline;fill:none;" width="1304" height="306"/>
	<text transform="matrix(1 0 0 1 -646.5625 964.873)" class="st2"><tspan x="0" y="0" style="font-family:'FranklinGothic-Demi'; font-size:90px;">YES, YOU CAN!</tspan><tspan x="0" y="108" style="font-family:'FranklinGothic-Demi'; font-size:90px;">ТИ МОЖЕШ ДОПОМОГТИ! </tspan><tspan x="0" y="216" style="font-family:'FranklinGothic-Demi'; font-size:90px;">ТЫ МОЖЕШЬ ПОМОЧЬ!</tspan></text>
	<rect x="-638.5" y="1282.8" style="display:inline;fill:none;" width="1304" height="306"/>
	<text transform="matrix(1 0 0 1 -638.4659 1342.873)" class="st2"><tspan x="0" y="0" style="font-family:'FranklinGothic-Demi'; font-size:90px;">CONTACT ME</tspan><tspan x="0" y="108" style="font-family:'FranklinGothic-Demi'; font-size:90px;">ЗВ’ЯЗАТИСЯ ЗІ МНОЮ </tspan><tspan x="0" y="216" style="font-family:'FranklinGothic-Demi'; font-size:90px;">СВЯЗАТЬСЯ СО МНОЙ</tspan></text>
</g>
<g id="Слой_15">
</g>
<g id="Слой_16">
</g>
<g id="Слой_9">
</g>
<g id="Слой_24">
</g>
<g id="Слой_7">
</g>
<g id="Слой_6">
</g>
<g id="Слой_13">
</g>
<g id="Слой_14">
</g>
<g id="Слой_11">
</g>
<g id="Слой_12">
</g>
<g id="Слой_10">
	<path class="st4" d="M14.4,3.7C6.9,6.3,1,12.6,0.6,20.5c-0.1,1.2,0,3.6,0.8,4.6c0.6,0.7,9.2,1.4,10.6,1.1c0.7-0.1,3-1.9,4-3.9"/>
	<path class="st4" d="M17.8,15.9c2.1-0.9,4.9-1.5,7.1-0.7c1.4,0.5,2.4,1.9,2.8,3.3c0.3,0.8,0,1.8-0.1,2.7c-0.4,2.8-1.2,5.5-2.3,8"/>
	<path class="st4" d="M22.5,30.2c-1.6,1.1-3.8,2.6-5.2,4.1c-0.8,0.8-1.5,1.7-2,2.7c-1.1,2.1-0.8,9.3-0.1,10.1
		c0.6,0.6,9.5,1.4,10,1.3c2.1-0.7,4.3-2.4,5-4.2"/>
	<path class="st4" d="M19.1,48.8c-1.1,1-4.5,3.8-4.8,4.5c-0.3,0.8-0.1,12.3,1,13c0.6,0.4,12.8,0.2,13.8-0.5c0.6-0.5,3.2-3,4-4.5"/>
	<path class="st4" d="M35.7,61"/>
	<path class="st4" d="M3.4,12c1.6-1.1,3.2-2,5-2.7c-0.1,0-0.2,0.1-0.3,0.1"/>
	<path class="st4" d="M0.8,18.3c0.3-0.5,0.8-1,1.2-1.4c1.4-1.2,2.9-2.3,4.5-3.3"/>
	<path class="st4" d="M1,24.4c1.3-1.4,2.8-2.8,4.2-4.1"/>
	<path class="st4" d="M6.4,26c0-0.3,0.3-0.6,0.5-0.8c1.3-1.2,2.7-2.3,4.1-3.3"/>
	<path class="st4" d="M21.8,15c1.5-1.3,3.1-2.4,4.8-3.3"/>
	<path class="st4" d="M27.3,16.8c1.4-0.9,2.7-1.9,4.1-2.8c0,0,0.1-0.1,0.1-0.1c0,0-0.1,0-0.1,0"/>
	<path class="st4" d="M27.4,22.6c1.6-1.2,3.7-2.4,5.4-3.4c-0.1,0-0.2,0-0.3,0"/>
	<path class="st4" d="M14.8,38.7c1.6-1.3,3.3-2.4,5.1-3.2c-0.1,0.1-0.2,0.1-0.4,0.2"/>
	<path class="st4" d="M14.7,44c1.4-1.4,3-2.8,4.6-4"/>
	<path class="st4" d="M16.4,47.5c1.1-1,2.8-2.3,3.9-3.3"/>
	<path class="st4" d="M22,48.2c1.3-1.3,3.2-3.1,4.6-4.3"/>
	<path class="st4" d="M14.1,57.4c1.7-1.6,3.8-3.4,5.6-4.8"/>
	<path class="st4" d="M14.6,64c1.3-1.6,2.8-3.2,4.2-4.7"/>
	<path class="st4" d="M18.2,66.4c1.3-1.7,2.7-3.2,4.3-4.7"/>
	<path class="st4" d="M24.5,66.5c0.9-1.4,2.7-3.5,3.9-4.7"/>
	<g>
		<path class="st5" d="M11.4,5.9C7.3,9,3.8,20.6,4.3,20.7c1.4,0.4,11.3,1.9,12,1.5c0.3-0.2-0.3-8.6,6.5-10.5
			C33,8.9,34.2,19.9,30,24.6c-1.4,1.5-6.7,3.4-9.4,8.1c-2.3,3.9-1.6,9.8-1.1,11.8c0,0,8.8-0.1,10.8,0c0.2,0,0.4-0.2,0.4-0.4
			c0.3-3-1-4,0.7-5.6c6.1-5.7,15.5-10.7,14.7-21.3C44.9,0.1,21.3-4.1,11.4,5.9"/>
		<g>
			<path class="st3" d="M11,5.5c-2.4,1.9-3.8,5-4.9,7.7c-0.6,1.5-1.2,2.9-1.6,4.4c-0.2,0.7-0.9,2-0.7,2.8C4,21.9,6.9,21.7,8,21.9
				c1.5,0.2,2.9,0.4,4.4,0.6c1,0.1,2.6,0.6,3.6,0.3c1.3-0.4,0.9-2,1.1-3.2c0.7-4,2.9-7,7.1-7.7c4-0.7,7.2,1.4,7.6,5.5
				c0.3,2.9-0.8,6.1-3.2,7.8c-3.3,2.3-7,4.2-8.8,8.1c-1.6,3.4-1.5,7.6-0.7,11.3c0,0.2,0.3,0.3,0.5,0.4c2.3,0.2,4.8,0,7.1,0
				c2.2,0,4.7,0.9,4.7-1.9c-0.1-2.2-0.5-3.2,1.4-4.9c1.5-1.3,3-2.5,4.5-3.8c2.7-2.3,5.4-4.7,7.3-7.8c3.4-5.7,2.8-13.2-1.1-18.4
				C39.9,3.6,34.5,1,29,0.3C22.6-0.5,15.7,1,11,5.5c-0.5,0.4,0.2,1.2,0.7,0.7c8.7-8.4,26.2-6.4,32.1,4.5c4,7.4,1.2,15-4.5,20.4
				c-2.5,2.4-5.5,4.4-8,6.9c-0.8,0.8-1.3,1.5-1.3,2.6c0,0.7,0.2,1.4,0.2,2.1c0,1.2-0.1,1.1-1,1.3c-2.6,0.4-5.7,0-8.4,0
				c-0.2,0-0.9,0.1-1.1,0c0,0,0.1,0.1,0.1-0.6c0-1.8-0.4-3.6-0.2-5.5c0.5-4.9,3.5-8.1,7.5-10.6c2-1.3,3.7-2.3,4.7-4.6
				c1.7-3.7,1.4-9.1-2.6-11.2c-4.7-2.5-10.7,0.6-12.5,5.3c-0.4,1.1-0.6,2.2-0.8,3.4c-0.1,0.4,0,1-0.1,1.4c-0.2,0.5,0.5,0.2-0.3,0.2
				c-3,0-6.2-0.6-9.2-1.1C6,20.6,5,20.6,4.7,20.3c0.2,0.1,0,0,0.2-0.6c0.5-1.3,0.8-2.6,1.2-3.9c1.2-3.3,2.8-7.3,5.6-9.6
				C12.2,5.8,11.5,5.1,11,5.5L11,5.5z"/>
		</g>
	</g>
	<g>
		<path class="st5" d="M19.1,48.6c0,5.9-0.6,12.5,0,13.2c0.3,0.3,14,0.1,13.9-0.3c-0.1-0.6,0.4-13.1-0.5-12.9
			C30.9,48.7,20.9,48,19.1,48.6"/>
		<g>
			<path class="st3" d="M18.6,48.6c0,3.8-0.4,7.6-0.3,11.4c0,1.1-0.1,2,1,2.3c1.5,0.5,3.8,0.1,5.4,0.1c2.2,0,4.4-0.1,6.5-0.2
				c0.7,0,1.8,0.1,2.2-0.6c0.5-0.8,0-3.3,0-4.2c0-2.3,0.1-4.6-0.1-6.8c-0.1-0.8,0-2.1-0.9-2.5c-0.5-0.2-1.8,0.1-2.3,0.1
				c-1.4,0-2.8-0.1-4.2-0.1c-2.3-0.1-4.9-0.4-7.2,0.2c-0.6,0.1-0.4,1.1,0.3,1c2.2-0.5,4.7-0.2,6.9-0.1c1.2,0,2.5,0.1,3.7,0.1
				c0.4,0,2.3-0.3,2.6-0.1c-0.2-0.2,0,1.6,0,1.9c0.1,1.1,0.1,2.2,0.1,3.2c0,2.1-0.3,4.4-0.1,6.5c0,0.2,0.1,0.5,0,0.7
				C32.4,61.7,33,61,32.5,61c-0.9,0.1-1.7,0.2-2.6,0.2c-2.2,0.1-4.4,0.2-6.6,0.2c-0.9,0-2.2,0.2-3.1,0c-1-0.3-0.8,0.2-0.9-1.1
				c-0.2-3.9,0.2-7.8,0.3-11.6C19.6,47.9,18.6,47.9,18.6,48.6L18.6,48.6z"/>
		</g>
	</g>
</g>
<g id="Слой_5">
</g>
<g id="Слой_21">
</g>
<g id="Слой_20">
</g>
<g id="Слой_19">
</g>
<g id="Слой_22">
</g>
<g id="Слой_25">
</g>
</svg>
