<svg xmlns="http://www.w3.org/2000/svg" viewBox="0 0 95.21 101"><defs><style>.cls-1{fill:#fff;}.cls-1,.cls-2{stroke:#000105;stroke-linecap:round;stroke-linejoin:round;}.cls-2{fill:none;}</style></defs><title>Ресурс 5</title><g id="Слой_2" data-name="Слой 2"><g id="Layer_7" data-name="Layer 7"><path class="cls-1" d="M43.74,95.44a1.36,1.36,0,0,0-.19-.16c-13.25-9-36.08-8-40-27.63v-.06c-1.4-7,1.08-14.17,3.82-20.55,3.09-7.19,7.83-14.85,0-20.82l-.14-.11L.5,21,19.82,3.63l4.51,3C28.22,9.22,36.66,13.24,40.05,8L45,.5,51,7.08c4,4.1,8.67,4.52,12.21-.13l3.3-4.34L94,14.35l-8.22,7.29c-5.23,5-2.22,11.28.66,16.69,4.44,8.33,9.84,15.06,7.75,25-1.88,8.94-5.79,18.81-14.31,23.33-7,3.72-19.07,2.21-24.46,4.81a4.77,4.77,0,0,0-1.93,1.72l-4.74,7.34Z"/><path class="cls-2" d="M46.54,91A49.51,49.51,0,0,0,28.76,83c-8.66-1.78-17.37-6.85-20.22-16C3.75,51.55,27.12,34.69,10.38,22l-.13-.1L8,20.15,20.5,8.88l1.55,1c6.26,4.19,17.09,7.79,22.13.06L45.86,7.4l2.09,2.27c5.77,6.2,14,6.42,19.22-.5l1.13-1.48,17.55,7.48L83,17.68c-6.51,5.86-4.58,13.63-1.23,20.55,4.07,8.42,10.28,14.51,8,24.41-2,8.77-6,18-15.35,20.7-5.14,1.47-22.59,3.19-24.62,6.88,0,.06-1.6,2.07-1.6,2.07Z"/><path class="cls-2" d="M11.71,20c2.25-2,4.42-4.25,6.8-6.11,2.86-2.23,1.3-1.64,4.23-.78,8.13,2.4,17.25,7.69,23.44-1.83,5.08,5.19,12.7,7.78,19,3.19,4.56-3.3,3.09-4.18,8.31-2l7.89,3.36c-16,15.18,9.07,29.24,6.41,44.73-1.29,7.46-4.69,16.92-12.32,19.9C68.72,83.16,52,81.73,47.91,89a67.17,67.17,0,0,0-8.37-4.81c-5.29-2.55-11-2.8-16.26-4.94-5.51-2.22-11.82-8.58-12.78-14.69-1.35-8.68,5.17-16.76,7.62-24.54A17.67,17.67,0,0,0,11.71,20Z"/><line class="cls-2" x1="18.99" y1="32.83" x2="76.82" y2="31.66"/><line class="cls-2" x1="18.99" y1="35.62" x2="77.81" y2="34.36"/><path class="cls-2" d="M33.3,30.82l-3.15-5s3.12.27,3.12-3.37c0-4.8-7.59-2.06-7.59-2.06V30.82h1.77L27.32,26l3.35,4.86Zm-6-6.58L27.38,22s2.9-.7,2.9,1.21S27.3,24.24,27.3,24.24Z"/><path class="cls-2" d="M38.47,20c-1.24,0-3.93.72-3.93,5.24S37,30.58,37.9,30.58s3.78-.34,4.07-5.34S38.47,20,38.47,20Zm-.21,8.57s-1.95-.11-1.95-3.33,1.95-3.3,1.95-3.3,1.55.35,1.55,3.3S38.27,28.57,38.27,28.57Z"/><path class="cls-2" d="M43.93,19.82h1.77v7s.31,1.46,1.65,1.46,2.6-1.45,2.67-8.45h1.86S53.44,31,47.35,31c-2.05,0-3.15-1-3.42-2.64S43.93,19.82,43.93,19.82Z"/><polygon class="cls-2" points="53.69 19.62 53.69 21.34 56.69 21.69 56.69 29.82 58.69 29.82 58.69 21.82 61.26 21.94 61.14 19.57 53.69 19.62"/><polygon class="cls-2" points="63.18 19.41 63.42 29.73 69.69 29.55 69.69 27.18 65.9 27.15 65.92 25.25 69.69 25.24 69.69 23.26 65.61 23.45 65.67 21.53 69.69 21.41 69.69 19.05 63.18 19.41"/><path class="cls-2" d="M35,53.76s3.78-7.42,9.1-10.15L40,39.16S25.74,50.32,25.74,61.9,35.89,73.44,35.89,73.44s11,0,11-11.44S35,53.76,35,53.76ZM32.2,62.53c.53-3.4,4.6-3.4,4.6-3.4s3.59,0,3.59,4.74S31.19,69,32.2,62.53Z"/><path class="cls-2" d="M61.45,54.85s3.78-7.42,9.1-10.15l-4.17-4.45S52.16,51.41,52.16,63,62.31,74.53,62.31,74.53s11,0,11-11.44S61.45,54.85,61.45,54.85Zm-2.82,8.76c.53-3.4,4.6-3.4,4.6-3.4s3.59,0,3.59,4.74S57.61,70.13,58.62,63.61Z"/><path class="cls-2" d="M12,19.78q-.56,1.07-1.07,2.16v-.11"/><path class="cls-2" d="M15.4,23.81a10,10,0,0,0-1.06,1.81"/><path class="cls-2" d="M17.7,27.88l-1.35,2.77v-.15"/><path class="cls-2" d="M18.67,33.73a35.06,35.06,0,0,0-2.39,3.21"/><path class="cls-2" d="M17.26,41.29q-1.58,1-3.22,2"/><path class="cls-2" d="M14.08,49.32l-2.93,1.6a2.68,2.68,0,0,0-.46.29l.11.08"/><path class="cls-2" d="M11.66,54.84c-.84,1-2.06,1.63-2.84,2.67"/><path class="cls-2" d="M10,61.85a22.56,22.56,0,0,0-2,1.92"/><path class="cls-2" d="M11.28,67.66q-.73,1.17-1.51,2.3"/><path class="cls-2" d="M14.41,72.73s0,0-.06,0l-.87,1.58a2.34,2.34,0,0,0-.18.37"/><path class="cls-2" d="M18.27,76.37A16.91,16.91,0,0,0,17.39,78"/><path class="cls-2" d="M21.7,78.79,21,80.26"/><path class="cls-2" d="M26.41,80.48,25.83,82"/><path class="cls-2" d="M30.37,81.54,29.71,83"/><path class="cls-2" d="M36,82.9a9.23,9.23,0,0,0-1,1.46"/><path class="cls-2" d="M41.23,85.08q-.53.69-1,1.42"/><path class="cls-2" d="M45,87.24,43.9,89.11"/><path class="cls-2" d="M48.08,88.77q-.78,1-1.48,2.07"/><path class="cls-2" d="M50.68,86.4q-.29,1.57-.45,3.16"/><path class="cls-2" d="M55.6,84.2a7.87,7.87,0,0,1-.39,1.15,11.75,11.75,0,0,0-.54,1.94"/><path class="cls-2" d="M61.36,83q-.51,1.31-1.07,2.6"/><path class="cls-2" d="M66.07,82.37l-.87,1.47a8.14,8.14,0,0,0-.72,1.43"/><path class="cls-2" d="M71.8,81.63A15.73,15.73,0,0,0,70.59,84"/><path class="cls-2" d="M77.6,79.44l-.66,1.4a9.06,9.06,0,0,0-.73,1.89"/><path class="cls-2" d="M83.56,14.63l0-.08c-.82.74-1.9,1.14-2.74,1.86l0-.19"/><path class="cls-2" d="M81.38,18.84a1.29,1.29,0,0,0-.6.28l-3.38,2.36.21-.19"/><path class="cls-2" d="M78.71,25.23a5.28,5.28,0,0,0-.43.36l-2.19,2a.33.33,0,0,0,.12-.21"/><path class="cls-2" d="M79.35,32.27q-.49,1.24-.86,2.52"/><path class="cls-2" d="M82.54,39.66q-.2,1.31-.52,2.6L81.94,42"/><path class="cls-2" d="M86.4,46.54l-.85,2.34"/><path class="cls-2" d="M89.25,52.53Q88.67,54,88,55.45"/><path class="cls-2" d="M89.92,60.42q-.67.78-1.41,1.49A3.33,3.33,0,0,0,87.62,63"/><path class="cls-2" d="M88.37,67.09l-2.75,2.29a.16.16,0,0,0,.16-.13"/><path class="cls-2" d="M86.92,71.17q-2.29,2-4.43,4.09a.37.37,0,0,0,.2-.22"/><path class="cls-2" d="M80.78,77a.94.94,0,0,0-.21.44q-.41,1.47-.89,2.92"/><path class="cls-2" d="M76.16,11.05s0,0,.05,0,0,.06,0,.08L74.8,12.64"/><path class="cls-2" d="M70.72,8.93a13.57,13.57,0,0,0-2,2.8"/><path class="cls-2" d="M64.65,11.94q-.85,1.9-1.78,3.75"/><path class="cls-2" d="M58.05,14.43a20.39,20.39,0,0,0-1.56,2.29"/><path class="cls-2" d="M51.42,12.51l-1.18,1.76a.06.06,0,0,0,.07-.07"/><path class="cls-2" d="M46.66,8.89q-.39,1.52-.86,3a.1.1,0,0,1-.06-.12"/><path class="cls-2" d="M43,11.82q-1.05,2-2,4.12"/><path class="cls-2" d="M35.24,14.45l-1.06,1.61"/><path class="cls-2" d="M29.59,13.54q-.69.62-1.35,1.28"/><path class="cls-2" d="M24,11.26s0,0,0,0,0,0-.05,0l-1.14,1.56"/><path class="cls-2" d="M19,10.7a17.47,17.47,0,0,1-1.4,3.45"/><path class="cls-2" d="M14.7,14.48a21.73,21.73,0,0,1-.93,3.15"/><path class="cls-2" d="M22.63,32.79a26.31,26.31,0,0,1-1.42,2.52"/><path class="cls-2" d="M30.27,32.9q-.9,1.18-1.7,2.42"/><path class="cls-2" d="M40,32.59a19,19,0,0,0-2,2.49"/><path class="cls-2" d="M50.87,32.32a21.75,21.75,0,0,0-2.22,2.56v-.11"/><path class="cls-2" d="M59.11,32a27.36,27.36,0,0,0-2.46,2.91"/><path class="cls-2" d="M67.49,31.82a27,27,0,0,0-1.32,2.64l0-.1"/><path class="cls-2" d="M73.45,31.7Q72.7,33,72,34.27"/><path class="cls-2" d="M46.73,63.27q-4.49,5.2-9.32,10.1"/><path class="cls-2" d="M45.32,55.86a68,68,0,0,1-5.42,5l.14-.15"/><path class="cls-2" d="M35.1,53.81a126.23,126.23,0,0,0-9,8.94"/><path class="cls-2" d="M33.14,67.11q-2,2.13-3.81,4.35l.11-.3"/><path class="cls-2" d="M30.14,49.45l12.33-6.78c.06,0,.12-.08.11-.15s-.14,0-.09,0"/><path class="cls-2" d="M57.52,49.06q5.94-2.55,12-4.84"/><path class="cls-2" d="M52.86,59.23l8.68-4.79-.34,0"/><path class="cls-2" d="M53.71,69.26q2.28-1.78,4.72-3.34a.57.57,0,0,1-.41.14"/><path class="cls-2" d="M61.09,74.13q5.75-4.86,11.74-9.43"/><path class="cls-2" d="M66,61.73a33.68,33.68,0,0,1,6.39-3.64"/></g></g></svg>