<svg xmlns="http://www.w3.org/2000/svg" viewBox="0 0 110.39 67.56"><defs><style>.cls-1{fill:none;}.cls-1,.cls-2{stroke:#000105;stroke-miterlimit:10;}.cls-2{fill:#fff;}</style></defs><title>Ресурс 6</title><g id="Слой_2" data-name="Слой 2"><g id="Слой_5" data-name="Слой 5"><path class="cls-1" d="M61.87,4.37C60,5.45,55.24,9.09,55,9.74s1.64,39.15,2.4,42.14C60.58,64.35,74.94,66.69,79.68,67c2.33.17,14.89-1.74,16.65-3.82"/><path class="cls-1" d="M97.66,4c-1.9,1.78-4.14,3.56-6,5.34-.84.79-1.11,37.23-.55,43.92"/><path class="cls-2" d="M61.72,43c0,5.63,1.52,11.6,5.39,15.69,3.28,3.47,8.25,4.67,13,5.45a93.52,93.52,0,0,0,15.44-.45c5.11-1.43,8.73-3.74,11.62-8.19,2.56-3.94,3.34-44.3,2.29-51.72-3.61.26-8-.09-11.76,0-.74,13.66,2.1,42.59-2.33,46.93-1.35,1.33-5.88,2.46-8.25,2.46-3.65,0-6.07-.88-8.56-3.55-2.12-2.28-1-35.74-1.78-45.67a.28.28,0,0,0-.29-.26c-2,.08-14.64-.06-14.72.77S61.73,39,61.72,43Z"/><path class="cls-1" d="M61.7,9.35a4.77,4.77,0,0,1-.91,1.09c-1.9,1.64-4,3.08-5.59,5"/><path class="cls-1" d="M55.38,21.48a26.11,26.11,0,0,1,6.33-3.82"/><path class="cls-1" d="M55.57,27.69a70.94,70.94,0,0,1,6-4.6"/><path class="cls-1" d="M55.75,33a68.93,68.93,0,0,1,6.19-4.29"/><path class="cls-1" d="M56.49,38.45q2.61-1.85,5.2-3.74"/><path class="cls-1" d="M56.56,44l5.19-3.67"/><path class="cls-1" d="M57,49.46q2.49-1.79,4.9-3.69l-.2.13"/><path class="cls-1" d="M58.52,54.87a32.77,32.77,0,0,1,4.26-3.41"/><path class="cls-1" d="M60.77,59.2q2.2-1.39,4.27-3"/><path class="cls-1" d="M65.12,62.31l3.16-2.1"/><path class="cls-1" d="M69.2,64.65,72.51,62"/><path class="cls-1" d="M73.54,65.81a23.48,23.48,0,0,1,2.69-2.14"/><path class="cls-1" d="M79.1,66.88l2.41-2.51"/><path class="cls-1" d="M85.19,66.3a20.33,20.33,0,0,1,1.81-2"/><path class="cls-1" d="M91.26,14.36a31.32,31.32,0,0,1,6.29-4.28"/><path class="cls-1" d="M91,20.31c2.3-1.9,4.36-3.6,6.49-5.69"/><path class="cls-1" d="M91,26.87q3.35-3,6.55-6.19"/><path class="cls-1" d="M90.73,32.75C93.18,30.67,95.31,29,97.89,27"/><path class="cls-1" d="M90.78,39.27c2-1.64,5.07-3.92,7.11-5.56,0,0-.32.2-.33.16"/><path class="cls-1" d="M90.78,44.31l7.11-5.22"/><path class="cls-1" d="M90.85,50.28q3.07-2.52,6.2-5"/><path class="cls-1" d="M18.92,17A18.42,18.42,0,0,1,30,17.45a10,10,0,0,1,3.46,2c1.65,1.6,1.88,4.66,1.83,7l-.42-.82"/><path class="cls-1" d="M19.46,61a20.75,20.75,0,0,1-3.61,4.14C14.36,66.37.49,65.47.5,64.7.57,59.58.38,5.46.88,4.7,2,3,4.09,1.92,5.65.71"/><path class="cls-1" d="M20.23,43.94a17.79,17.79,0,0,1,7.16.5c.2.22,6.28,20.33,8.07,21.32,1.33.73,13,.16,13.33,0,2.65-1.44,3.88-2,4.82-4.88"/><path class="cls-1" d="M5.11,5.47Q2.93,8,.64,10.46"/><path class="cls-1" d="M5,11.84C3.5,13.53,2.11,15,.51,16.58"/><path class="cls-1" d="M4.65,18.51A28.8,28.8,0,0,0,.56,22.09"/><path class="cls-1" d="M4.91,23.91q-2.3,2.2-4.4,4.59"/><path class="cls-1" d="M4.81,29.81.5,34.28"/><path class="cls-1" d="M4.9,35.4C3.25,37,2.09,38.14.56,39.82"/><path class="cls-1" d="M4.82,41.69A41.43,41.43,0,0,1,.5,46.21"/><path class="cls-1" d="M4.72,46.6A50.18,50.18,0,0,0,.5,50.71"/><path class="cls-1" d="M4.81,53.3.54,57.41"/><path class="cls-1" d="M5.13,57.81.67,62"/><path class="cls-1" d="M3.8,65.55a46.72,46.72,0,0,1,4-4.93l-.19.3"/><path class="cls-1" d="M9.12,65.62q2-2.39,4.16-4.59"/><path class="cls-1" d="M20.77,16.62A47.19,47.19,0,0,1,27.1,11"/><path class="cls-1" d="M27,16.7a30.49,30.49,0,0,1,5.74-5.08"/><path class="cls-1" d="M32.72,19.11a35,35,0,0,1,5.19-5"/><path class="cls-1" d="M35,22.91l4.62-4"/><path class="cls-1" d="M19.89,43.9q2.56-3.59,5.43-7"/><path class="cls-1" d="M23.79,43.82c1.55-2,3.92-4.81,5.47-6.79"/><path class="cls-1" d="M27.89,45.3l3.63-4.53"/><path class="cls-1" d="M30.24,53.09a68.12,68.12,0,0,1,4-5.74"/><path class="cls-1" d="M32.54,60.1a38.38,38.38,0,0,1,4-5.92"/><path class="cls-1" d="M28.88,49a11.93,11.93,0,0,1,3.66-3.8"/><path class="cls-1" d="M35,64.91a19,19,0,0,1,3.72-5"/><path class="cls-1" d="M39.78,66.47a2,2,0,0,1,.56-1.05l3-4.1"/><path class="cls-1" d="M45,66.28a26.9,26.9,0,0,1,4.32-5.94"/><path class="cls-2" d="M53.83,59.74C50.39,52,43.21,34.2,43.21,34.2,51.87,31,53.66,23.61,53.54,19.7a23.89,23.89,0,0,0-1.33-8.07c-1-3.47-4.63-7.55-10-9.21-3.33-1-19-1.33-24.7-1.54C14.41.77,5.77.08,5.37.88,4.41,2.83,4.87,60.69,5,60.7c3.92.41,14.08.78,14.49.34s.49-16.24.27-24.22l9.53.2c3.6,7.69,9,23.74,9.36,24S47.85,61,53,61A.91.91,0,0,0,53.83,59.74ZM38.29,23.27c-1.67,2.93-7.93,4.46-19.08,4.1-.28-2.65-.43-14.27-.11-15.74.27-1.24,11.34-.52,14,.07a8.84,8.84,0,0,1,3.83,2C39.51,15.61,39.87,20.5,38.29,23.27Z"/></g></g></svg>