<svg xmlns="http://www.w3.org/2000/svg" viewBox="0 0 261.28 67.43"><defs><style>.cls-1{fill:#fff;}.cls-1,.cls-2{stroke:#201600;stroke-miterlimit:10;}.cls-2{fill:none;}.cls-3{fill:#201600;}</style></defs><title>seconddonut_ua_1</title><g id="Слой_2" data-name="Слой 2"><g id="Слой_5" data-name="Слой 5"><path class="cls-1" d="M8.48,39.66c0,2.78.44,11.24,1.72,14,1.75,3.75,14.91,3.82,25.15,5.07,16.81,2.05,209.56-2.91,219.09-5.59,2.93-.82,9.55-32.17,4.51-42.74a11.66,11.66,0,0,0-4.71-5.57c-2.24-1.26-5.17-1.73-8-2.06-10.78-1.23-21.78-.9-32.7-.55-14.86.47-100.22.69-108.35-.08C79.59-.34,53.62.51,27.83,1.37c-4.24.14-11.35.06-14.05,2.79C11.46,6.48,8.59,31.34,8.48,39.66Z"/><path class="cls-2" d="M13.77,4.16C5.1,6.9,2.7,12.55,2.28,14.46,1.15,19.59,1.06,24.89.73,30.13c-.34,5.49-.5,28.23,1,30.5,3.5,5.15,91.35,5.65,108.67,5.81,58.64.53,115.29.67,125.86.22,4.88-.21,12.91-6.38,18.31-13.19"/><path class="cls-2" d="M11.39,12.61C7.77,15.86,5,18.25,1.24,21.33"/><path class="cls-2" d="M.92,29.77A85.86,85.86,0,0,1,10.25,23"/><path class="cls-2" d="M.38,38.82q4.18-3.46,8.69-6.5"/><path class="cls-2" d="M.55,47.24q3.86-2.9,7.94-5.5"/><path class="cls-2" d="M1.15,56.83A36.43,36.43,0,0,1,9.4,50.21"/><path class="cls-2" d="M7.23,62.4a60.55,60.55,0,0,1,8-6.07"/><path class="cls-2" d="M19.06,63.76a53.56,53.56,0,0,1,6.07-6"/><path class="cls-2" d="M31.05,64.58A46.42,46.42,0,0,1,37,59.06"/><path class="cls-2" d="M42.8,65.24A52,52,0,0,1,50.45,59"/><path class="cls-2" d="M54,65.6A63.13,63.13,0,0,1,61.29,59"/><path class="cls-2" d="M64.71,65.85a83.24,83.24,0,0,1,6.87-6.79"/><path class="cls-2" d="M74.89,66.12a4.44,4.44,0,0,1,.91-1.29l5.38-5.93"/><path class="cls-2" d="M84,66,90.36,59"/><path class="cls-2" d="M93.67,66.36q3.58-3.93,7.45-7.6"/><path class="cls-2" d="M103.16,66.43c-.22-.15,0-.49.14-.69q3.29-3.47,6.61-6.91"/><path class="cls-2" d="M113.24,66.81a17.85,17.85,0,0,1,2.53-2.66,42.64,42.64,0,0,0,5.07-5.73"/><path class="cls-2" d="M124.62,66.55a79.72,79.72,0,0,0,6.76-8.24"/><path class="cls-2" d="M136.07,66.51a88.36,88.36,0,0,0,7.21-8.72"/><path class="cls-2" d="M146.7,66.64c2.73-2.81,4.39-6.34,7.16-9.12"/><path class="cls-2" d="M156.87,66.69c1.86-2.81,4.83-6.51,6.49-9.44"/><path class="cls-2" d="M165.72,66.54c2.23-2.85,4.51-6.78,6.83-9.55"/><path class="cls-2" d="M175.53,66.86a25,25,0,0,1,1.73-2.39c1.65-2.23,4.36-5.59,6-7.82"/><path class="cls-2" d="M183.78,66.93c2.3-3.09,6.46-8.05,9.11-10.85"/><path class="cls-2" d="M192.53,66.93c.55-.86,1.56-2.08,2.17-2.89l6.08-8-1.09,1.4"/><path class="cls-2" d="M200.78,66.93c1.92-3,6.06-8.28,8.22-11.15"/><path class="cls-2" d="M210.19,66.54c2.32-3.19,5.7-7.62,8.16-10.7"/><path class="cls-2" d="M218.35,66.93l7.82-11.85"/><path class="cls-2" d="M228.49,66.77c1.95-3.2,5.22-8.86,7-12.15"/><path class="cls-2" d="M238.64,66.42l8.66-12.51"/><path class="cls-3" d="M25.27,27.08A3,3,0,0,1,25,28.31a3.6,3.6,0,0,1-1,1.11,30.16,30.16,0,0,1-2.46,1.86A11,11,0,0,1,19,32.68a3.91,3.91,0,0,1-.54.15q.06.48.33,1.77a1,1,0,0,1,0,.3,1,1,0,0,1-.19.6,1.09,1.09,0,0,1-.56.39,1,1,0,0,1-.27.06,1.07,1.07,0,0,1-.66-.23.88.88,0,0,1-.36-.55q-.3-1.56-.42-2.34l-.45-.09a7.11,7.11,0,0,1-2.4-1.12A23.45,23.45,0,0,1,11,29.5a.88.88,0,0,1-.33-.72A1,1,0,0,1,11,28a.92.92,0,0,1,.72-.3,1,1,0,0,1,.75.3l.45.42,1.38,1.17a1,1,0,0,1-.24-.15,9.84,9.84,0,0,0,1.71,1l-.09-.06.39.15L16,30q-.18-2.25-.24-5.4-.3,0-1-.06a9.77,9.77,0,0,1-2.55-.69,4,4,0,0,1-1-.69A2.94,2.94,0,0,1,10.42,22a3,3,0,0,1-.18-1,3.47,3.47,0,0,1,.27-1.38A7.18,7.18,0,0,1,11.8,17.5a9.07,9.07,0,0,1,4.05-2.61Q15.79,13,15.73,12a.88.88,0,0,1,.3-.75,1.08,1.08,0,0,1,.75-.3.86.86,0,0,1,.74.28,1.23,1.23,0,0,1,.31.77q.09,1.2.09,2.43a6.32,6.32,0,0,1,.72,0,5.94,5.94,0,0,1,.69,0,1.13,1.13,0,0,1,.72.31,1.07,1.07,0,0,1,.33.73,1.16,1.16,0,0,1-.3.75,1.57,1.57,0,0,1-.36.21,1,1,0,0,1-.39.09,3.93,3.93,0,0,0-.57,0c-.36,0-.63,0-.81,0q0,1.32-.06,4l0,2q1.17,0,1.93,0a7.17,7.17,0,0,1,1.52.25A6.3,6.3,0,0,1,23.71,24a4.09,4.09,0,0,1,1.47,2.28A3.1,3.1,0,0,1,25.27,27.08Zm-9.93-4.62.45,0V21q.06-2.58.06-3.87h0l0,0a9.79,9.79,0,0,0-1.44.84A9.37,9.37,0,0,0,13,19.37a8,8,0,0,0-.51.87l-.12.42a2.43,2.43,0,0,0,0,.45l0,.15.15.21.12.15a3.93,3.93,0,0,0,.87.48L13.24,22a7.31,7.31,0,0,0,1.68.42l-.27,0A6.2,6.2,0,0,0,15.34,22.45Zm.24,8,.09,0A.12.12,0,0,1,15.58,30.43Zm7.14-2.58.33-.39s-.06.07-.06.09l.09-.12.06-.09-.06.06.06-.12.06-.15V27a2,2,0,0,0-.18-.63l.09.27a2.53,2.53,0,0,0-.42-.75s0,.05.06.09a2.66,2.66,0,0,0-.63-.57h0a6,6,0,0,0-.93-.48l.27.09a8,8,0,0,0-1.65-.42h0a17.85,17.85,0,0,0-2-.06q.06,3.78.3,6.15a1.81,1.81,0,0,0,.51-.15l-.18.06a11,11,0,0,0,1.74-1q.33-.21,1.59-1.11v0s0,0,.09-.06h0Zm-.9.66.06-.06Zm1.26-1.08a0,0,0,0,0,0,0l0-.06ZM23.2,27l0-.18A.41.41,0,0,0,23.2,27Zm0,.24v0a.12.12,0,0,0,0-.09Zm0,.06v0Z"/><path class="cls-3" d="M37.45,13.79a.93.93,0,0,1,0,.27q-.09.57-.33,1.71-.51,2.49-1,5.82v-.06l-.27,2.4q-.48,4.23-.63,8.55a.94.94,0,0,1-.32.73,1.1,1.1,0,0,1-.76.29,1,1,0,0,1-1-1q0-1.41.18-4.23.27-3.81.81-7.53l.45-3a87.64,87.64,0,0,1-6.12,6.9.92.92,0,0,1-.72.3,1,1,0,0,1-.75-.3.93.93,0,0,1-.27-.69A1.08,1.08,0,0,1,27,23.2l1.77-1.86q3-3.21,5.85-6.9l-.18.21,1.08-1.38a1,1,0,0,1,.6-.48.64.64,0,0,1,.24,0,1.29,1.29,0,0,1,.45.09A1,1,0,0,1,37.45,13.79Zm-1.35,8,0-.21A.52.52,0,0,1,36.11,21.79Z"/><path class="cls-3" d="M48,21.62s0,0,0,0a6.25,6.25,0,0,1,.3,2,9.39,9.39,0,0,1-.24,2.1q-.24,1.05-.69,2.43a11,11,0,0,1-1.83,3.36,6.12,6.12,0,0,1-1.4,1.19,5.08,5.08,0,0,1-1.66.67,6.09,6.09,0,0,1-1,.12,6.14,6.14,0,0,1-1-.12,1.83,1.83,0,0,1-1.2-.78A2,2,0,0,1,39,31.43V25.87q0-1.5.06-2.25A7.3,7.3,0,0,1,40.09,20a4.91,4.91,0,0,1,1.47-1.37,3.49,3.49,0,0,1,1.83-.52,1.49,1.49,0,0,1,.54.12,4.44,4.44,0,0,1,.87.15A4.6,4.6,0,0,1,47,19.87a.79.79,0,0,1,.24,0,1,1,0,0,1,.72.3.88.88,0,0,1,.33.72.92.92,0,0,1-.33.75Zm-1.78,1.74a53.86,53.86,0,0,0-3.75,4.26l.18-.21Q41.32,29.11,41,29.6v1.35a2.43,2.43,0,0,0,0,.45l.3.06L41,31.39a2.47,2.47,0,0,0,.45,0,2.27,2.27,0,0,0,.42,0l-.27.06q.39-.09.87-.24l.78-.42,0,0,.18-.12a0,0,0,0,0,0,0,7.44,7.44,0,0,0,.75-.84l0,.06a8.83,8.83,0,0,0,.93-1.74l-.06.18q.3-.75.63-1.8a13.57,13.57,0,0,0,.48-2.13l0,.27A7.62,7.62,0,0,0,46.19,23.35ZM41,24.7v1.41A51.09,51.09,0,0,1,45.4,21.2a4.57,4.57,0,0,0-.36-.39,2.1,2.1,0,0,0-.36-.23l-.3-.17a4,4,0,0,0-.54-.12l.27,0-.24,0a1.37,1.37,0,0,1-.48-.12h-.21l-.42.12a2.46,2.46,0,0,1-.36.21l0,0-.09.06-.12.09.06,0-.36.36q-.12.18-.45.75s.06-.07.06-.09a4.73,4.73,0,0,0-.42,1.59v-.06A14,14,0,0,0,41,24.7Zm.75-3.57s.06-.07.06-.09S41.81,21.1,41.77,21.14Zm.63-.63-.12.09.06-.06Zm.81-.33a.33.33,0,0,0,.15,0h0Zm.06,10.62a.48.48,0,0,1,.18-.12l-.15.09Zm2.13-9.6v0a0,0,0,0,0,0,0Z"/><path class="cls-3" d="M60.24,20.76a28.47,28.47,0,0,0-.74,3.67v-.06A18.21,18.21,0,0,0,59.32,27a18.94,18.94,0,0,0,.15,2.22v0a15.71,15.71,0,0,0,1,3.66l-.06-.06a12,12,0,0,0,1.5,2.58.77.77,0,0,1,.12.48,1.07,1.07,0,0,1,0,.3,1,1,0,0,1-.48.63.81.81,0,0,1-.48.15,1,1,0,0,1-.3-.06,1.21,1.21,0,0,1-.63-.45A13.17,13.17,0,0,1,58,32.06a16.94,16.94,0,0,1-.69-5,27.13,27.13,0,0,1,.3-3.81,29.71,29.71,0,0,1,1-4.19q.64-2.08,1.69-5a1.12,1.12,0,0,1,.38-.56.94.94,0,0,1,.58-.19,1.08,1.08,0,0,1,.3,0,.84.84,0,0,1,.36.17,1,1,0,0,1,.27.29,1.09,1.09,0,0,1,.12.54.92.92,0,0,1,0,.27l-.75,2.13Q60.73,18.91,60.24,20.76ZM60.49,33a.46.46,0,0,1-.06-.18Z"/><path class="cls-3" d="M76.63,30.83a1,1,0,0,1-.51.87l-.18.12A10.62,10.62,0,0,1,76.18,34a14.41,14.41,0,0,1-.12,1.56A11.15,11.15,0,0,1,74.62,40a11,11,0,0,1-2.76,3.27A12.9,12.9,0,0,1,68,45.31a12.1,12.1,0,0,1-2.19.48,3.78,3.78,0,0,1-.6.06,1.28,1.28,0,0,1-1-.39A1.89,1.89,0,0,1,63.76,44a9,9,0,0,1,1.5-4.56,25.12,25.12,0,0,1,2.82-3.63A38.52,38.52,0,0,1,73.51,31l-.27-.42.18.21a2.9,2.9,0,0,0-.33-.36L73,30.37l-.12-.06-.15,0a1.08,1.08,0,0,0-.3,0l-.15.06-.15.09a.77.77,0,0,1-.48.12,1.06,1.06,0,0,1-.3,0,.7.7,0,0,1-.54-.36,1.4,1.4,0,0,1-.24-.63,1,1,0,0,1,.09-.39,1,1,0,0,1,.21-.33,9.07,9.07,0,0,0,1.29-1.32l-.18.21A7.48,7.48,0,0,0,73,25.85l-.09.24a7.38,7.38,0,0,0,.48-1.59v-.06l0-.12v.06a3.63,3.63,0,0,0,0-.54s0-.15-.09-.39a.73.73,0,0,0-.12-.18.36.36,0,0,0-.18-.21l-.18-.12h-.06a.88.88,0,0,1-.36.56,1,1,0,0,1-.63.23.88.88,0,0,1-.75-.3,1.12,1.12,0,0,1-.3-.78,1.53,1.53,0,0,1,.29-.87,2.11,2.11,0,0,1,.71-.66,2.58,2.58,0,0,1,1-.24,2.09,2.09,0,0,1,.72.12,3,3,0,0,1,1.23.85,2.85,2.85,0,0,1,.66,1.33,4.69,4.69,0,0,1,.09.93,5.59,5.59,0,0,1-.36,2,10.2,10.2,0,0,1-1.26,2.46,2.4,2.4,0,0,1,.75.51,3.15,3.15,0,0,1,.6.81.8.8,0,0,1,.36-.09,1.1,1.1,0,0,1,.93.51A1.08,1.08,0,0,1,76.63,30.83Zm-11.28,13h0ZM74.11,34q0-.57,0-.84l-.27.21.21-.18q-.78.6-1.47,1.2A29.8,29.8,0,0,0,68,39.16v0A14.07,14.07,0,0,0,66.25,42l.12-.24a6,6,0,0,0-.51,1.68v.09a.12.12,0,0,0,0,.09v.09A9.84,9.84,0,0,0,68.29,43l-.24.09a9.54,9.54,0,0,0,2.34-1.35l-.09.09a13,13,0,0,0,1.89-1.92v0a12.41,12.41,0,0,0,1.14-2l-.06.12A11.66,11.66,0,0,0,74,35.47v.09A12.71,12.71,0,0,0,74.11,34Zm-8.25,9.42a.34.34,0,0,1,0,.15s0-.06,0-.06Zm6.63-13.23a.33.33,0,0,0,.15,0,.17.17,0,0,1-.12,0h0s0,0-.06,0S72.49,30.25,72.49,30.22Zm.72.33s-.07-.06-.09-.06S73.17,30.52,73.21,30.56Zm0-7.26s0,0,0,0a0,0,0,0,0,0,0Zm.17,1.14v.06a.17.17,0,0,1,0-.12Zm.6,8.34a.41.41,0,0,0,0,.18Zm0,2.52,0,.18A.41.41,0,0,1,74.05,35.29Z"/><path class="cls-3" d="M89.41,32.33a1,1,0,0,1-.12.51.93.93,0,0,1-.63.48,1,1,0,0,1-.3,0,.77.77,0,0,1-.48-.12,3.15,3.15,0,0,1-.84-.87,5.35,5.35,0,0,1-.39-.9,11.33,11.33,0,0,1-.27-1.68q-.06-.39-.12-1.17A15.88,15.88,0,0,1,85.15,30a16.69,16.69,0,0,1-1.83,1.8q-.78.66-1.2,1l-.54.36a2.77,2.77,0,0,1-1.23.33,2,2,0,0,1-1.5-.69A2.85,2.85,0,0,1,78.16,31a5,5,0,0,1,.18-1.56,11.91,11.91,0,0,1,.45-1.29,7.3,7.3,0,0,1,1.35-2.06,9.09,9.09,0,0,1,2-1.6,7.93,7.93,0,0,1,4.2-1.23,4.6,4.6,0,0,1,.6,0,1.05,1.05,0,0,1,.33.06h.27a1.07,1.07,0,0,1,.6.3,1,1,0,0,1,.21.33,1,1,0,0,1,.09.39,22.15,22.15,0,0,0-.12,2.43,25.63,25.63,0,0,0,.18,3.06v0a7.18,7.18,0,0,0,.3,1.32l.12.18.06.06a1.62,1.62,0,0,1,.45.63A.92.92,0,0,1,89.41,32.33Zm-4.32-5.55.69-1.38-.33,0,.27-.06a6.53,6.53,0,0,0-1.62.45l.06-.06a7.88,7.88,0,0,0-1.53.9,0,0,0,0,1,0,0A7.2,7.2,0,0,0,81.31,28l0,0a6.06,6.06,0,0,0-.78,1.38l0-.09a8.34,8.34,0,0,0-.36,1.29v-.12a.42.42,0,0,1,0,.18V31l.09.33.12.12,0,0a8.11,8.11,0,0,0,1-.66l-.21.15a17.2,17.2,0,0,0,3-3l-.06.09Zm-4.86,3.75,0,.12v-.06S80.23,30.57,80.23,30.52Zm0,.6,0,.06.06.12-.06-.12v0Zm.12.21v0Zm3.6-5.46a.47.47,0,0,1,.18-.06Zm4.56,4.26a.43.43,0,0,0,0-.18A.43.43,0,0,1,88.48,30.14Z"/><path class="cls-3" d="M97.48,20.77l.31.32a1,1,0,0,1,.32.73V32.47a1,1,0,0,1-.32.73,1.1,1.1,0,0,1-.76.29.93.93,0,0,1-.69-.31,1,1,0,0,1-.3-.71V27.35A4.75,4.75,0,0,1,93,28.75v2.76a1,1,0,0,1-.32.73,1.1,1.1,0,0,1-.76.29.93.93,0,0,1-.69-.31,1,1,0,0,1-.3-.71V22.39a1,1,0,0,1,.3-.73,1.17,1.17,0,0,1,.75-.31,1,1,0,0,1,.71.31,1,1,0,0,1,.32.73v4.26h0a2.9,2.9,0,0,0,.75-.21l-.15.09.21-.09a0,0,0,0,1,0,0h0l.51-.3-.06.06.06-.06.15-.09-.15.09a1.89,1.89,0,0,0,.45-.42l.15-.18a1,1,0,0,1,.48-.42A1.13,1.13,0,0,1,96,25V21.83a1,1,0,0,1,.3-.73,1.17,1.17,0,0,1,.75-.32Zm-3.66,5.67h-.06l.06,0Z"/><path class="cls-3" d="M106.61,25.75a7.92,7.92,0,0,1-.15,1.41,17.25,17.25,0,0,1-.48,2.16q-.3,1-.72,2.1c-.06.12-.13.28-.21.48a6.92,6.92,0,0,1-.33.69,1.8,1.8,0,0,1-.58.65,1.39,1.39,0,0,1-.79.25,3.83,3.83,0,0,1-1.14-.24,6.62,6.62,0,0,1-1-.39,2.79,2.79,0,0,1-.9-.68,2.74,2.74,0,0,1-.57-1,2.55,2.55,0,0,1-.12-.81V26.29a1,1,0,0,1,.32-.72,1,1,0,0,1,.73-.3.88.88,0,0,1,.71.29,1,1,0,0,1,.32.73v3.27c0,.1,0,.22,0,.36a2.65,2.65,0,0,0,0,.48s0,0,0-.06a.12.12,0,0,0,0,.09v0l0,.18,0-.09a.51.51,0,0,0,.06.15l0,0,0,0,0,.09,0-.09v0l.12.15-.09-.15.18.18.48.27.6.18a5.22,5.22,0,0,0,.27-.66l-.09.27a17.8,17.8,0,0,0,1.29-4.65v0q0-.33,0-.93a4,4,0,0,0-.15-.54.31.31,0,0,0-.12-.21l-.18-.24-.27-.15h-.06a.52.52,0,0,0-.21,0l-.06,0,0,0a1,1,0,0,1-.51.12,1,1,0,0,1-.9-.51.78.78,0,0,1-.15-.51,1.11,1.11,0,0,1,.13-.52.85.85,0,0,1,.38-.37,2.36,2.36,0,0,1,1.2-.33,2.79,2.79,0,0,1,1.38.39,3,3,0,0,1,1,.88,3.43,3.43,0,0,1,.54,1.22A4.51,4.51,0,0,1,106.61,25.75Zm-4.92,4.68v0Zm.06.3v0a0,0,0,0,0,0,0Zm1.77-6.51h.06l0,0h0l.06,0h-.12Zm.06,0v0Zm.48.21-.09-.09-.15-.06.15.06Zm.12.09s-.07-.06-.09-.06S104.13,24.49,104.17,24.52Zm.36.84a.33.33,0,0,1,0-.15A.33.33,0,0,0,104.53,25.37Z"/><path class="cls-3" d="M117.55,32.87l-.32.3a1.15,1.15,0,0,1-.73.33q-1.56,0-2.34,0a3.67,3.67,0,0,1-1.2-.24,1.42,1.42,0,0,1-.56-.45,1.49,1.49,0,0,1-.29-.63,8.67,8.67,0,0,1-.06-1.2v-1l0-1.32-.36.27a3.55,3.55,0,0,1-.78.36,1.82,1.82,0,0,1-.54.06,2.73,2.73,0,0,1-.48,0,2,2,0,0,1-1.44-1,1.11,1.11,0,0,1-.3-.66l0-.36,0-.36a1.17,1.17,0,0,1,.18-.48.77.77,0,0,1,.6-.45.93.93,0,0,1,.27,0,1.09,1.09,0,0,1,.54.12,1.23,1.23,0,0,1,.48.63,1.87,1.87,0,0,1,0,.48s0,0,.06,0l0,0,.15-.06a.69.69,0,0,0,.18-.12,4.22,4.22,0,0,0,.48-.51v0l0-.06.15-.15-.09.09q.33-.42.93-1.26a1.34,1.34,0,0,1,.63-.48.9.9,0,0,1,.27,0,.91.91,0,0,1,.27,0,1,1,0,0,1,.54.38,1.2,1.2,0,0,1,.24.61q0,2,0,3.06t0,1.53c0,.12,0,.27,0,.45a4.58,4.58,0,0,0,0,.63q.33,0,1,0h1.38a.87.87,0,0,1,.72.28,1,1,0,0,1,.3.74Zm-7.47-5.34,0-.09,0-.06-.06.12Zm.09-.21v0h0v0a0,0,0,0,1,0,0Zm0,0,0,0v0Zm.18-.09v0h0A0,0,0,0,0,110.35,27.22Zm0,0h0a0,0,0,0,0,0,0Zm.18-.06.09-.06S110.57,27.13,110.53,27.16Zm.6-.63a0,0,0,0,1,0,0l.09-.09Z"/><path class="cls-3" d="M126.13,31.87s.06-.07.06-.09l-.57.78L126,36.2q0,.69.15,1.86l.12,1.8a3.34,3.34,0,0,1-.42,1.8,2.54,2.54,0,0,1-.75.78,3.51,3.51,0,0,1-1,.3,2.87,2.87,0,0,1-2.85-2,4,4,0,0,1-.24-1.47,9.7,9.7,0,0,1,.24-2,12.62,12.62,0,0,1,1.14-3.15A18.83,18.83,0,0,1,123.49,32c0-.34-.07-.85-.15-1.53l-.18-1.92-.51.84q-.24.36-.39.54l-.2.25-.25.31a1.73,1.73,0,0,1-1.17.48,1.29,1.29,0,0,1-.78-.24,1.63,1.63,0,0,1-.72-1,10,10,0,0,1-.12-1.78V25a1,1,0,0,1,.32-.73,1.1,1.1,0,0,1,.76-.28.93.93,0,0,1,.69.31,1,1,0,0,1,.3.7v3a14.79,14.79,0,0,0,.75-1.41,0,0,0,0,0,0,0,11,11,0,0,0,.84-2.91,1,1,0,0,1,.48-.63,1,1,0,0,1,.48-.12,1.27,1.27,0,0,1,.78.27.9.9,0,0,1,.24.43,2.18,2.18,0,0,1,.06.32l.09.93q.12.93.48,3.87l.09.81q.24-.3.78-.9a.85.85,0,0,1,.66-.3,1.2,1.2,0,0,1,.78.3.55.55,0,0,1,.23.3,1.27,1.27,0,0,1,.07.42,1.13,1.13,0,0,1-.3.72ZM120.34,29h0Zm.06,0s0,0,0,0l.06,0h0ZM123,39.25l0,.36.12.48.18.27a.54.54,0,0,0,.15.15s.07.06.09.06l.18.09h.21l0,0,.09,0v0l.09-.33a4.4,4.4,0,0,0,0-.79q0-.44,0-.62l-.15-1.8q-.06-.84-.12-1.32a11.16,11.16,0,0,0-.78,2.82Zm.06-.81a.33.33,0,0,0,0-.15A.33.33,0,0,1,123,38.45Zm.84,2.25h0a0,0,0,0,0,0,0l0,0a0,0,0,0,1,0,0h0l0,0h0Zm.12,0s-.05,0-.09.06S124,40.66,124,40.66Zm-.06.06s.06-.07.06-.09Zm.09-.09h0Zm0,0v0l0,0Zm.06-.21v0l-.06.12A.17.17,0,0,0,124.12,40.43Z"/><path class="cls-3" d="M141.7,24.89l-.06.72a6.24,6.24,0,0,1-.15,1.32,7.87,7.87,0,0,1-.79,2.28,9.89,9.89,0,0,1-1.4,2,6.54,6.54,0,0,1-1.63,1.29,3.7,3.7,0,0,1-1.81.51,2.79,2.79,0,0,1-1.26-.3,2.24,2.24,0,0,1-.93-.83,3.29,3.29,0,0,1-.48-1.21,5.73,5.73,0,0,1-.06-1.14h-1.68l0,3.54a.85.85,0,0,1-.33.69,1.15,1.15,0,0,1-.75.27.88.88,0,0,1-.67-.31,1.16,1.16,0,0,1-.31-.71l0-2q0-3.75.21-7a1.1,1.1,0,0,1,.32-.74,1,1,0,0,1,.76-.28.93.93,0,0,1,.69.31.9.9,0,0,1,.27.71l-.09,2-.06,1.47q1.86,0,2.76,0a1,1,0,0,1,.81.39,1,1,0,0,1,.21.6,1.23,1.23,0,0,1,0,.3l0,.33q0,.33,0,1a1.77,1.77,0,0,0,.15.51l.06.09.12.15.12.06.24.06H136l.21,0h-.12a1.32,1.32,0,0,0,.28-.09l.23-.09.54-.3a9.7,9.7,0,0,0,1.17-1.2l-.09.12a9.9,9.9,0,0,0,.9-1.56s-.06.07-.06.09a9,9,0,0,0,.54-1.92l-.06.27a6.46,6.46,0,0,0,.06-.75,2.76,2.76,0,0,0,0-.48l.06.27a2,2,0,0,0-.12-.42l0-.09a0,0,0,0,1,0,0h0l-.06,0-.18-.06h-.24l-.24.06-.27.15-.24.24-.36.6s.06-.07.06-.09a8,8,0,0,0-.36,1.26.82.82,0,0,1-.36.54,1.13,1.13,0,0,1-.66.21.78.78,0,0,1-.24,0,1.1,1.1,0,0,1-.63-.48,1,1,0,0,1-.12-.51,1.08,1.08,0,0,1,0-.3,5.21,5.21,0,0,1,1.17-2.64,2.89,2.89,0,0,1,1-.78,3,3,0,0,1,1.29-.3,2.78,2.78,0,0,1,1.44.39,2.53,2.53,0,0,1,1,1.26Zm-6.48,4a.34.34,0,0,1,0,.15A.34.34,0,0,0,135.22,28.85Zm.09,1.8v0h0Zm.21.21,0,.06h0Zm.09.09h0Zm.06,0h0l.06,0A.12.12,0,0,0,135.67,30.95Zm.3,0h0a.17.17,0,0,1,.12,0Zm3.09-6.33a.12.12,0,0,0,.09,0l-.09,0h0l-.12,0A.18.18,0,0,0,139.06,24.64Zm.28.06s0,0,0,0l-.06-.06,0,0Zm.11.09.06,0-.09-.06Zm0,0h0v0A0,0,0,0,0,139.48,24.83Zm0,.06,0-.06v0Z"/><path class="cls-3" d="M161.44,33.77a1.12,1.12,0,0,1-.12.51,1,1,0,0,1-.9.48,1,1,0,0,1-.51-.12l-.6-.36a9.56,9.56,0,0,1-2.94-3.51,5.58,5.58,0,0,1-1.86,1,4.16,4.16,0,0,1-1.26.18,3.45,3.45,0,0,1-2.13-.63,1.2,1.2,0,0,1-.45-.63.89.89,0,0,1,0-.27,1,1,0,0,1,.12-.51.93.93,0,0,1,.63-.48,1.07,1.07,0,0,1,.3,0,.78.78,0,0,1,.48.12,1.32,1.32,0,0,0,.33.21l-.09,0,.09,0,.15.09-.12-.09.39.12.33,0,.33,0,.54-.12a5.5,5.5,0,0,0,1-.54l-.06,0a2.68,2.68,0,0,0,.57-.48,13.77,13.77,0,0,1-.42-3.06q0-1.14.06-1.68c0-.08,0-.29.06-.65a4.16,4.16,0,0,1,.21-.95,2.56,2.56,0,0,1,1.11-1.47,1.71,1.71,0,0,1,1-.3,2.51,2.51,0,0,1,1,.24,2.37,2.37,0,0,1,1.25,1.25,3.64,3.64,0,0,1,.32,1.88,9.22,9.22,0,0,1-1,3.3,8.58,8.58,0,0,1-1.26,2A9.52,9.52,0,0,0,159,31.18l-.12-.12a11.11,11.11,0,0,0,1.26,1.29l-.06,0,.15.09.06.06,0,0,.63.42A.94.94,0,0,1,161.44,33.77Zm-8.94-4h0Zm.63.18-.09,0A.12.12,0,0,0,153.13,29.89Zm4.11-4.59q0,.39.06,1.17l.36-.78-.09.27a11,11,0,0,0,.6-2.13l-.06.27a2.54,2.54,0,0,0,.06-.42l0-.33a.68.68,0,0,0,0-.21,1.2,1.2,0,0,0-.06-.15l-.09-.15s-.07-.06-.09-.06l-.06-.06-.15,0a0,0,0,0,0,0,0l-.06,0-.12.27.06-.18.06-.09-.06.09,0-.09a3.75,3.75,0,0,0-.21,1v0A14.53,14.53,0,0,0,157.24,25.31Zm.45-2.64a0,0,0,0,1,0,0v0Zm.09,0-.09,0h0Zm-.09.06h0a0,0,0,0,0,0,0Zm0,0,.06,0,0,0Zm.12.06-.06-.06Zm.06.06a0,0,0,0,0,0,0l.06,0Zm.09,6.57-.06-.15A.51.51,0,0,0,158,29.39Zm0-6.47h0a0,0,0,0,1,0,0Zm.12.26-.09-.18.09.18v0Zm1,8.1s-.06-.07-.06-.09S159.06,31.24,159.1,31.27Zm1.18,1.17s0,0,0,0,0,0-.09-.06l.12.09Z"/><path class="cls-3" d="M170.53,31.27a1,1,0,0,1,0,.3.89.89,0,0,1-.48.6,1.2,1.2,0,0,1-.78.12,5.43,5.43,0,0,1-2.58-1.2,4.54,4.54,0,0,1-1.17-1.29l-.15.09-.12.06q-.12,2.82-.21,4.23a1.29,1.29,0,0,1-.33.73,1.05,1.05,0,0,1-.72.32,1,1,0,0,1-.72-.3.82.82,0,0,1-.3-.75l.12-2.13q.12-3.06.12-4.59,0-1,0-1.53l0-1.5a.87.87,0,0,1,.33-.67,1.16,1.16,0,0,1,.78-.29.84.84,0,0,1,.66.31,1.21,1.21,0,0,1,.3.71l.06,2.16v.66a8.17,8.17,0,0,0,.66-.75l-.15.21a8.56,8.56,0,0,0,1-1.65l-.09.15a6.81,6.81,0,0,0,.51-1.8,1,1,0,0,1,.48-.63,1,1,0,0,1,.48-.12,1.08,1.08,0,0,1,.3,0,.83.83,0,0,1,.63.48,1,1,0,0,1,.12.48,1.07,1.07,0,0,1,0,.3,8.3,8.3,0,0,1-.33,1.41,8.5,8.5,0,0,1-1.77,3,5.21,5.21,0,0,0,.42.66l-.15-.21a5.17,5.17,0,0,0,.81.81L168,29.6a3.21,3.21,0,0,0,.66.39h0l.06,0,.09,0-.06,0a2.75,2.75,0,0,0,1,.27,1,1,0,0,1,.6.48A.78.78,0,0,1,170.53,31.27Zm-5.79-3.48-.12.09.06,0Zm4,2.22a0,0,0,0,1,0,0l.06,0Z"/><path class="cls-3" d="M188.77,32.45a1.23,1.23,0,0,1-.15.54,1.08,1.08,0,0,1-.6.48.92.92,0,0,1-.27,0,1,1,0,0,1-.54-.15.89.89,0,0,1-.48-.6q-.12-.87-.3-2.31a37.4,37.4,0,0,1-.3-3.84l-.06.12q-1.14,2.13-1.79,3.22a13.84,13.84,0,0,1-1.58,2.15,2.4,2.4,0,0,1-1.74,1,1.2,1.2,0,0,1-.74-.18,1.42,1.42,0,0,1-.53-.54,2.18,2.18,0,0,1-.18-1.2V27.31a.92.92,0,0,1,.33-.73,1.15,1.15,0,0,1,.78-.29.88.88,0,0,1,.67.32,1,1,0,0,1,.29.7V30.2l.18-.24-.15.21q.45-.6,1.08-1.62l1.08-1.92.63-1.17a20.11,20.11,0,0,1,2-3.12,1,1,0,0,1,.6-.3h.15a1.69,1.69,0,0,1,.39.06,1.34,1.34,0,0,1,.45.4.94.94,0,0,1,.18.56q-.06,1.2-.06,1.83a50.79,50.79,0,0,0,.42,6.42l0-.3.18,1.17ZM181,31h0Zm6.84-7.11-.06.09S187.81,23.95,187.81,23.93Z"/><path class="cls-3" d="M202.6,24.89l-.06.72a6.24,6.24,0,0,1-.15,1.32,7.87,7.87,0,0,1-.79,2.28,9.89,9.89,0,0,1-1.4,2,6.54,6.54,0,0,1-1.63,1.29,3.7,3.7,0,0,1-1.81.51,2.79,2.79,0,0,1-1.26-.3,2.24,2.24,0,0,1-.93-.83,3.29,3.29,0,0,1-.48-1.21,5.73,5.73,0,0,1-.06-1.14h-1.68l0,3.54a.85.85,0,0,1-.33.69,1.15,1.15,0,0,1-.75.27.88.88,0,0,1-.67-.31,1.16,1.16,0,0,1-.31-.71l0-2q0-3.75.21-7a1.1,1.1,0,0,1,.32-.74,1,1,0,0,1,.76-.28.93.93,0,0,1,.69.31.9.9,0,0,1,.27.71l-.09,2-.06,1.47q1.86,0,2.76,0a1,1,0,0,1,.81.39,1,1,0,0,1,.21.6,1.23,1.23,0,0,1,0,.3l0,.33q0,.33,0,1a1.77,1.77,0,0,0,.15.51l.06.09.12.15.12.06.24.06h.12l.21,0H197a1.32,1.32,0,0,0,.28-.09l.23-.09.54-.3a9.7,9.7,0,0,0,1.17-1.2l-.09.12a9.9,9.9,0,0,0,.9-1.56s-.06.07-.06.09a9,9,0,0,0,.54-1.92l-.06.27a6.46,6.46,0,0,0,.06-.75,2.76,2.76,0,0,0,0-.48l.06.27a2,2,0,0,0-.12-.42l0-.09a0,0,0,0,1,0,0h0l-.06,0-.18-.06h-.24l-.24.06-.27.15-.24.24-.36.6s.06-.07.06-.09a8,8,0,0,0-.36,1.26.82.82,0,0,1-.36.54,1.13,1.13,0,0,1-.66.21.78.78,0,0,1-.24,0,1.1,1.1,0,0,1-.63-.48,1,1,0,0,1-.12-.51,1.08,1.08,0,0,1,0-.3,5.21,5.21,0,0,1,1.17-2.64,2.89,2.89,0,0,1,1-.78,3,3,0,0,1,1.29-.3,2.78,2.78,0,0,1,1.44.39,2.53,2.53,0,0,1,1,1.26Zm-6.48,4a.34.34,0,0,1,0,.15A.34.34,0,0,0,196.12,28.85Zm.09,1.8v0h0Zm.21.21,0,.06h0Zm.09.09h0Zm.06,0h0l.06,0A.12.12,0,0,0,196.57,30.95Zm.3,0h0a.17.17,0,0,1,.12,0ZM200,24.64a.12.12,0,0,0,.09,0l-.09,0h0l-.12,0A.18.18,0,0,0,200,24.64Zm.28.06s0,0,0,0l-.06-.06,0,0Zm.11.09.06,0-.09-.06Zm0,0h0v0A0,0,0,0,0,200.38,24.83Zm0,.06,0-.06v0Z"/><path class="cls-3" d="M216.79,27.64a1,1,0,0,1-.33.75l-2.1,2L212.65,32l-.27,1.38A16.94,16.94,0,0,1,211.17,37a8.18,8.18,0,0,1-2.05,2.72,6,6,0,0,1-1.44,1,3.86,3.86,0,0,1-1.71.54,2.52,2.52,0,0,1-.45-.06,1.58,1.58,0,0,1-.92-.67,2.11,2.11,0,0,1-.31-1.16,4.09,4.09,0,0,1,.42-1.5,11.67,11.67,0,0,1,1.75-2.59q1-1.16,2.87-3l1.41-1.38.12-.87,0,.27q.12-.81.24-2.43a18,18,0,0,1-1.23,1.53q-.69.81-1.62,1.74l-.87.84a6.17,6.17,0,0,1-.83.63,1.44,1.44,0,0,1-.76.21,1.61,1.61,0,0,1-1.44-.81A1.91,1.91,0,0,1,204,31a3,3,0,0,1,.09-.72,6.86,6.86,0,0,1,.39-1.14q.24-.72.39-1.08a14.71,14.71,0,0,1,1.2-2.31A6.76,6.76,0,0,1,207.67,24a6.46,6.46,0,0,1,2.25-1.23,4.56,4.56,0,0,1,1.44-.21,4.49,4.49,0,0,1,1.08.12.83.83,0,0,1,.54.36,1.13,1.13,0,0,1,.21.66.8.8,0,0,1,0,.24.53.53,0,0,1-.06.15,1,1,0,0,1,.06.33c0,.2,0,.52,0,1q0,1.83-.12,3.3l2-1.8a1,1,0,0,1,1.44,0A.88.88,0,0,1,216.79,27.64Zm-11,11.58a.13.13,0,0,0,.09,0Zm5-14.49A3.84,3.84,0,0,0,210,25l.24-.12a4.67,4.67,0,0,0-1.05.6l0,0-.06.06-.15.09.06,0a6.24,6.24,0,0,0-1,1l0-.06a12.1,12.1,0,0,0-1.2,2.19l0-.06a8.32,8.32,0,0,0-.42,1l-.15.42.18-.18,1-1q.87-.93,1.8-2.13l-.15.21Q210,25.94,210.76,24.74Zm-.87,9.9q-1.62,1.68-2.37,2.61l.09-.09a10.48,10.48,0,0,0-1.14,1.8l0-.06-.06.15a9.13,9.13,0,0,0,1-.57h0a6.25,6.25,0,0,0,1.23-1.2l-.18.18a7.83,7.83,0,0,0,1.14-2l-.09.27Q209.68,35.3,209.89,34.64Zm-.78-9.15h0l-.12.09s.07-.06.09-.06Z"/><path class="cls-3" d="M230.41,23.18a.93.93,0,0,1,0,.27,28.75,28.75,0,0,0-1.29,5.34l0-.27q-.18,1.41-.24,3.3a1,1,0,0,1-1,1,.91.91,0,0,1-.73-.28,1,1,0,0,1-.32-.74l.09-1.95c0-.18,0-.43.08-.75s.06-.59.11-.81l-1.56,2.25-1.14,1.62a4.15,4.15,0,0,1-.83.92,1.94,1.94,0,0,1-1,.4,1.36,1.36,0,0,1-1.23-.6,1.86,1.86,0,0,1-.36-1.2,16,16,0,0,1,.27-2q.09-.57.33-1.65l.3-1.65a16.79,16.79,0,0,0-1.65,2.85,1,1,0,0,1-.6.48.92.92,0,0,1-.27,0,1.08,1.08,0,0,1-.54-.12,1.23,1.23,0,0,1-.3-.27.76.76,0,0,1-.18-.36.5.5,0,0,1,0-.21,1.27,1.27,0,0,1,.15-.57,19.63,19.63,0,0,1,3.69-5.43.92.92,0,0,1,.72-.3,1.12,1.12,0,0,1,.65.19.92.92,0,0,1,.38.56,8.81,8.81,0,0,1,.15,1.53,11.75,11.75,0,0,1-.14,1.8q-.13.87-.43,2.52a10.51,10.51,0,0,0-.24,1.2c.06-.1.14-.22.24-.36l.33-.48,4.74-6.84a1.07,1.07,0,0,1,.9-.51,1,1,0,0,1,.39.09,1.18,1.18,0,0,1,.48.42A1,1,0,0,1,230.41,23.18Zm-8.16,8.34.06,0h0Z"/><path class="cls-3" d="M238.48,20.77l.31.32a1,1,0,0,1,.32.73V32.47a1,1,0,0,1-.32.73,1.1,1.1,0,0,1-.76.29.93.93,0,0,1-.69-.31,1,1,0,0,1-.3-.71V27.35A4.75,4.75,0,0,1,234,28.75v2.76a1,1,0,0,1-.32.73,1.1,1.1,0,0,1-.76.29.93.93,0,0,1-.69-.31,1,1,0,0,1-.3-.71V22.39a1,1,0,0,1,.3-.73,1.17,1.17,0,0,1,.75-.31,1,1,0,0,1,.71.31,1,1,0,0,1,.32.73v4.26h0a2.9,2.9,0,0,0,.75-.21l-.15.09.21-.09a0,0,0,0,1,0,0h0l.51-.3-.06.06.06-.06.15-.09-.15.09a1.89,1.89,0,0,0,.45-.42l.15-.18a1,1,0,0,1,.48-.42A1.13,1.13,0,0,1,237,25V21.83a1,1,0,0,1,.3-.73,1.17,1.17,0,0,1,.75-.32Zm-3.66,5.67h-.06l.06,0Z"/><path class="cls-3" d="M251.89,32.33a1,1,0,0,1-.12.51.93.93,0,0,1-.63.48,1,1,0,0,1-.3,0,.77.77,0,0,1-.48-.12,3.15,3.15,0,0,1-.84-.87,5.35,5.35,0,0,1-.39-.9,11.33,11.33,0,0,1-.27-1.68q-.06-.39-.12-1.17A15.88,15.88,0,0,1,247.63,30a16.69,16.69,0,0,1-1.83,1.8q-.78.66-1.2,1l-.54.36a2.77,2.77,0,0,1-1.23.33,2,2,0,0,1-1.5-.69,2.85,2.85,0,0,1-.69-1.77,5,5,0,0,1,.18-1.56,11.91,11.91,0,0,1,.45-1.29,7.3,7.3,0,0,1,1.35-2.06,9.09,9.09,0,0,1,2-1.6,7.93,7.93,0,0,1,4.2-1.23,4.6,4.6,0,0,1,.6,0,1.05,1.05,0,0,1,.33.06H250a1.07,1.07,0,0,1,.6.3,1,1,0,0,1,.21.33,1,1,0,0,1,.09.39,22.15,22.15,0,0,0-.12,2.43,25.63,25.63,0,0,0,.18,3.06v0a7.18,7.18,0,0,0,.3,1.32l.12.18.06.06a1.62,1.62,0,0,1,.45.63A.92.92,0,0,1,251.89,32.33Zm-4.32-5.55.69-1.38-.33,0,.27-.06a6.53,6.53,0,0,0-1.62.45l.06-.06a7.88,7.88,0,0,0-1.53.9,0,0,0,0,1,0,0A7.2,7.2,0,0,0,243.79,28l0,0a6.06,6.06,0,0,0-.78,1.38l0-.09a8.34,8.34,0,0,0-.36,1.29v-.12a.42.42,0,0,1,0,.18V31l.09.33.12.12,0,0a8.11,8.11,0,0,0,1-.66l-.21.15a17.2,17.2,0,0,0,3-3l-.06.09Zm-4.86,3.75,0,.12v-.06S242.71,30.57,242.71,30.52Zm0,.6,0,.06.06.12-.06-.12v0Zm.12.21v0Zm3.6-5.46a.47.47,0,0,1,.18-.06ZM251,30.14a.43.43,0,0,0,0-.18A.43.43,0,0,1,251,30.14Z"/><path class="cls-3" d="M257.83,26.6a72.31,72.31,0,0,1-.63,8.67,1,1,0,0,1-.15.51l-.15.21a1,1,0,0,1-.75.3,1,1,0,0,1-.72-.3,1.2,1.2,0,0,1-.24-.35.63.63,0,0,1-.06-.37q.12-1.05.3-2.85.33-3.51.33-5.79a30.83,30.83,0,0,0-.24-4v0a17.93,17.93,0,0,0-.33-1.92,24.35,24.35,0,0,0-1-3.27q-.39-1.08-.6-1.9a7.8,7.8,0,0,1-.24-1.67.92.92,0,0,1,.33-.73,1.15,1.15,0,0,1,.78-.29.88.88,0,0,1,.67.31,1,1,0,0,1,.29.71,6.32,6.32,0,0,0,.06.72l0-.3a8.85,8.85,0,0,0,.6,2.22q.54,1.44.75,2.19A29.39,29.39,0,0,1,257.83,26.6Z"/></g></g></svg>