<?xml version="1.0" encoding="utf-8"?>
<!-- Generator: Adobe Illustrator 21.0.2, SVG Export Plug-In . SVG Version: 6.00 Build 0)  -->
<svg version="1.1" id="Слой_1" xmlns="http://www.w3.org/2000/svg" xmlns:xlink="http://www.w3.org/1999/xlink" x="0px" y="0px"
	 viewBox="0 0 261.3 67.4" style="enable-background:new 0 0 261.3 67.4;" xml:space="preserve">
<style type="text/css">
	.st0{fill:#FFFFFF;stroke:#201600;stroke-miterlimit:10;}
	.st1{fill:none;stroke:#201600;stroke-miterlimit:10;}
	.st2{enable-background:new    ;}
	.st3{fill:#201600;}
</style>
<title>Ресурс 3</title>
<g id="Слой_2">
	<g id="Слой_5">
		<path class="st0" d="M8.5,39.7c0,2.8,0.4,11.2,1.7,14c1.8,3.8,14.9,3.8,25.1,5.1c16.8,2,209.6-2.9,219.1-5.6
			c2.9-0.8,9.5-32.2,4.5-42.7c-0.9-2.3-2.6-4.3-4.7-5.6c-2.2-1.3-5.2-1.7-8-2.1c-10.8-1.2-21.8-0.9-32.7-0.5
			c-14.9,0.5-100.2,0.7-108.3-0.1C79.6-0.3,53.6,0.5,27.8,1.4c-4.2,0.1-11.4,0.1-14.1,2.8C11.5,6.5,8.6,31.3,8.5,39.7z"/>
		<path class="st1" d="M13.8,4.2C5.1,6.9,2.7,12.5,2.3,14.5c-1.1,5.1-1.2,10.4-1.5,15.7c-0.3,5.5-0.5,28.2,1,30.5
			c3.5,5.2,91.3,5.7,108.7,5.8c58.6,0.5,115.3,0.7,125.9,0.2c4.9-0.2,12.9-6.4,18.3-13.2"/>
		<path class="st1" d="M11.4,12.6C7.8,15.9,5,18.2,1.2,21.3"/>
		<path class="st1" d="M0.9,29.8c3-2.5,6.1-4.7,9.3-6.8"/>
		<path class="st1" d="M0.4,38.8c2.8-2.3,5.7-4.5,8.7-6.5"/>
		<path class="st1" d="M0.6,47.2c2.6-1.9,5.2-3.8,7.9-5.5"/>
		<path class="st1" d="M1.1,56.8c2.4-2.6,5.2-4.8,8.3-6.6"/>
		<path class="st1" d="M7.2,62.4c2.5-2.2,5.2-4.3,8-6.1"/>
		<path class="st1" d="M19.1,63.8c1.9-2.2,3.9-4.2,6.1-6"/>
		<path class="st1" d="M31,64.6c1.8-2,3.8-3.9,6-5.5"/>
		<path class="st1" d="M42.8,65.2c2.3-2.3,4.9-4.4,7.7-6.2"/>
		<path class="st1" d="M54,65.6c2.3-2.4,4.7-4.6,7.3-6.6"/>
		<path class="st1" d="M64.7,65.8c2.2-2.4,4.5-4.7,6.9-6.8"/>
		<path class="st1" d="M74.9,66.1c0.2-0.5,0.5-0.9,0.9-1.3l5.4-5.9"/>
		<path class="st1" d="M84,66l6.4-7"/>
		<path class="st1" d="M93.7,66.4c2.4-2.6,4.9-5.2,7.4-7.6"/>
		<path class="st1" d="M103.2,66.4c-0.2-0.2,0-0.5,0.1-0.7c2.2-2.3,4.4-4.6,6.6-6.9"/>
		<path class="st1" d="M113.2,66.8c0.7-1,1.6-1.9,2.5-2.7c1.9-1.8,3.6-3.7,5.1-5.7"/>
		<path class="st1" d="M124.6,66.5c2.4-2.6,4.7-5.3,6.8-8.2"/>
		<path class="st1" d="M136.1,66.5c2.6-2.7,5-5.7,7.2-8.7"/>
		<path class="st1" d="M146.7,66.6c2.7-2.8,4.4-6.3,7.2-9.1"/>
		<path class="st1" d="M156.9,66.7c1.9-2.8,4.8-6.5,6.5-9.4"/>
		<path class="st1" d="M165.7,66.5c2.2-2.8,4.5-6.8,6.8-9.5"/>
		<path class="st1" d="M175.5,66.9c0.5-0.8,1.1-1.6,1.7-2.4c1.6-2.2,4.4-5.6,6-7.8"/>
		<path class="st1" d="M183.8,66.9c2.3-3.1,6.5-8,9.1-10.8"/>
		<path class="st1" d="M192.5,66.9c0.6-0.9,1.6-2.1,2.2-2.9l6.1-8l-1.1,1.4"/>
		<path class="st1" d="M200.8,66.9c1.9-3,6.1-8.3,8.2-11.2"/>
		<path class="st1" d="M210.2,66.5c2.3-3.2,5.7-7.6,8.2-10.7"/>
		<path class="st1" d="M218.4,66.9l7.8-11.8"/>
		<path class="st1" d="M228.5,66.8c1.9-3.2,5.2-8.9,7-12.2"/>
		<path class="st1" d="M238.6,66.4l8.7-12.5"/>
		<g class="st2">
			<path class="st3" d="M42.2,29.1c0,0.4-0.1,0.8-0.3,1.2c-0.2,0.4-0.5,0.7-1,1.1c-0.8,0.6-1.6,1.3-2.5,1.9
				c-0.9,0.7-1.8,1.1-2.6,1.4c-0.2,0.1-0.4,0.1-0.5,0.1c0,0.3,0.1,0.9,0.3,1.8c0,0.1,0,0.2,0,0.3c0,0.2-0.1,0.4-0.2,0.6
				c-0.1,0.2-0.3,0.3-0.6,0.4c-0.1,0-0.2,0.1-0.3,0.1c-0.2,0-0.5-0.1-0.7-0.2c-0.2-0.2-0.3-0.3-0.4-0.6c-0.2-1-0.3-1.8-0.4-2.3
				l-0.4-0.1c-0.9-0.2-1.7-0.6-2.4-1.1c-0.7-0.5-1.6-1.2-2.5-2.1c-0.2-0.2-0.3-0.4-0.3-0.7c0-0.3,0.1-0.5,0.3-0.8
				c0.2-0.2,0.4-0.3,0.7-0.3c0.3,0,0.5,0.1,0.8,0.3l0.4,0.4c0.8,0.7,1.2,1,1.4,1.2c0,0-0.1,0-0.2-0.1c0.7,0.5,1.3,0.9,1.7,1
				l-0.1-0.1c0.2,0.1,0.4,0.2,0.4,0.2L32.9,32c-0.1-1.5-0.2-3.3-0.2-5.4c-0.2,0-0.5,0-1-0.1c-0.9-0.1-1.8-0.3-2.6-0.7
				c-0.4-0.2-0.7-0.4-1-0.7c-0.3-0.3-0.6-0.7-0.8-1.2c-0.1-0.3-0.2-0.7-0.2-1c0-0.5,0.1-1,0.3-1.4c0.3-0.7,0.7-1.4,1.3-2.1
				c1.1-1.2,2.4-2.1,4-2.6c0-1.3-0.1-2.2-0.1-2.9c0-0.3,0.1-0.5,0.3-0.8c0.2-0.2,0.5-0.3,0.8-0.3c0.3,0,0.5,0.1,0.7,0.3
				c0.2,0.2,0.3,0.5,0.3,0.8c0.1,0.8,0.1,1.6,0.1,2.4c0.2,0,0.4,0,0.7,0c0.3,0,0.5,0,0.7,0c0.3,0,0.5,0.1,0.7,0.3
				c0.2,0.2,0.3,0.4,0.3,0.7c0,0.3-0.1,0.5-0.3,0.8c-0.1,0.1-0.2,0.2-0.4,0.2c-0.1,0.1-0.3,0.1-0.4,0.1c-0.1,0-0.3,0-0.6,0
				c-0.4,0-0.6,0-0.8,0c0,0.9,0,2.2-0.1,4l0,2c0.8,0,1.4,0,1.9,0c0.5,0,1,0.1,1.5,0.3c0.9,0.2,1.7,0.7,2.4,1.3
				c0.8,0.6,1.3,1.4,1.5,2.3C42.1,28.6,42.2,28.8,42.2,29.1z M32.3,24.5l0.4,0V23c0-1.7,0.1-3,0.1-3.9h0l0,0c-0.5,0.3-1,0.5-1.4,0.8
				c-0.5,0.4-1,0.9-1.4,1.4c-0.2,0.3-0.4,0.6-0.5,0.9l-0.1,0.4c0,0.1,0,0.3,0,0.5l0,0.1l0.1,0.2l0.1,0.2c0.2,0.2,0.5,0.3,0.9,0.5
				L30.1,24c0.4,0.2,1,0.3,1.7,0.4l-0.3,0C31.9,24.4,32.1,24.5,32.3,24.5z M32.5,32.4L32.5,32.4C32.5,32.5,32.5,32.5,32.5,32.4z
				 M39.6,29.9c0,0,0.1-0.1,0.3-0.4c0,0-0.1,0.1-0.1,0.1l0.1-0.1l0.1-0.1L40,29.4l0.1-0.1l0.1-0.2V29c0-0.2-0.1-0.4-0.2-0.6l0.1,0.3
				c-0.1-0.3-0.2-0.5-0.4-0.8c0,0,0,0,0.1,0.1c-0.2-0.3-0.4-0.5-0.6-0.6h0c-0.4-0.2-0.7-0.4-0.9-0.5l0.3,0.1c-0.5-0.2-1-0.3-1.6-0.4
				h0c-0.7-0.1-1.4-0.1-2-0.1c0,2.5,0.1,4.6,0.3,6.2c0.2,0,0.3-0.1,0.5-0.2l-0.2,0.1c0.6-0.3,1.2-0.6,1.7-1c0.2-0.1,0.8-0.5,1.6-1.1
				v0c0,0,0,0,0.1-0.1h0C39.3,30.1,39.6,29.9,39.6,29.9z M38.7,30.5L38.7,30.5C38.7,30.5,38.7,30.5,38.7,30.5z M40,29.4
				C40,29.4,40,29.5,40,29.4L40,29.4L40,29.4z M40.1,29l0-0.2C40.1,28.9,40.1,29,40.1,29z M40.1,29.3L40.1,29.3c0,0,0-0.1,0-0.1
				L40.1,29.3z M40.1,29.3L40.1,29.3L40.1,29.3L40.1,29.3z"/>
			<path class="st3" d="M54.4,15.8c0,0.1,0,0.2,0,0.3c-0.1,0.4-0.2,1-0.3,1.7c-0.3,1.7-0.7,3.6-1,5.8v-0.1l-0.3,2.4
				c-0.3,2.8-0.5,5.7-0.6,8.6c0,0.3-0.1,0.5-0.3,0.7c-0.2,0.2-0.5,0.3-0.8,0.3c-0.2,0-0.5-0.1-0.7-0.3c-0.2-0.2-0.3-0.4-0.3-0.7
				c0-0.9,0.1-2.3,0.2-4.2c0.2-2.5,0.4-5,0.8-7.5l0.4-3c-1.7,2.2-3.7,4.5-6.1,6.9C45.2,26.9,45,27,44.7,27s-0.6-0.1-0.8-0.3
				c-0.2-0.2-0.3-0.4-0.3-0.7c0-0.3,0.1-0.5,0.3-0.8l1.8-1.9c2-2.1,3.9-4.4,5.9-6.9l-0.2,0.2l1.1-1.4c0.1-0.2,0.3-0.4,0.6-0.5
				c0,0,0.1,0,0.2,0c0.1,0,0.3,0,0.5,0.1C54.2,15,54.4,15.4,54.4,15.8z M53,23.8l0-0.2C53,23.7,53,23.8,53,23.8z"/>
			<path class="st3" d="M64.9,23.6C64.9,23.6,64.9,23.6,64.9,23.6c0.2,0.6,0.3,1.3,0.3,2c0,0.7-0.1,1.4-0.2,2.1
				c-0.2,0.7-0.4,1.5-0.7,2.4c-0.5,1.4-1.1,2.5-1.8,3.4C62,34,61.5,34.4,61,34.7c-0.5,0.3-1.1,0.6-1.7,0.7c-0.4,0.1-0.8,0.1-1,0.1
				c-0.2,0-0.6,0-1-0.1c-0.5-0.1-0.9-0.4-1.2-0.8c-0.2-0.2-0.3-0.6-0.3-1.2v-4v-1.5c0-1,0-1.8,0.1-2.3c0.1-1.6,0.5-2.8,1.1-3.6
				c0.4-0.6,0.9-1,1.5-1.4c0.6-0.3,1.2-0.5,1.8-0.5c0.2,0,0.3,0,0.5,0.1c0.4,0,0.7,0.1,0.9,0.1c0.8,0.2,1.5,0.7,2.2,1.5
				c0.1,0,0.1,0,0.2,0c0.3,0,0.5,0.1,0.7,0.3c0.2,0.2,0.3,0.4,0.3,0.7C65.2,23.2,65.1,23.4,64.9,23.6C64.9,23.6,64.9,23.6,64.9,23.6
				z M63.1,25.4c-1.4,1.4-2.7,2.9-3.8,4.3l0.2-0.2c-0.9,1.1-1.4,1.9-1.6,2.2V32V33c0,0.1,0,0.3,0,0.5c0.2,0,0.3,0.1,0.3,0.1
				l-0.3-0.1c0.1,0,0.3,0,0.5,0c0.2,0,0.3,0,0.4,0l-0.3,0.1c0.3-0.1,0.5-0.1,0.9-0.2c0.2-0.1,0.5-0.3,0.8-0.4l0,0l0.2-0.1
				c0,0,0,0,0,0c0.2-0.2,0.4-0.4,0.8-0.8l0,0.1c0.3-0.5,0.6-1.1,0.9-1.7l-0.1,0.2c0.2-0.5,0.4-1.1,0.6-1.8c0.2-0.8,0.4-1.5,0.5-2.1
				l0,0.3C63.1,26.2,63.1,25.8,63.1,25.4z M57.9,26.7v1.4c1.4-1.7,2.8-3.4,4.4-4.9c-0.1-0.1-0.2-0.2-0.4-0.4
				c-0.1-0.1-0.2-0.2-0.4-0.2c-0.1-0.1-0.2-0.1-0.3-0.2c-0.1,0-0.3-0.1-0.5-0.1l0.3,0l-0.2,0c-0.1,0-0.3,0-0.5-0.1h-0.2l-0.4,0.1
				c-0.1,0.1-0.2,0.1-0.4,0.2l0,0l-0.1,0.1l-0.1,0.1l0.1,0L58.8,23c-0.1,0.1-0.2,0.4-0.5,0.8c0,0,0.1-0.1,0.1-0.1
				c-0.2,0.5-0.4,1-0.4,1.6v-0.1C58,25.7,57.9,26.2,57.9,26.7z M58.7,23.1C58.7,23.1,58.7,23.1,58.7,23.1
				C58.7,23.1,58.7,23.1,58.7,23.1z M59.3,22.5l-0.1,0.1L59.3,22.5L59.3,22.5z M60.1,22.2c0.1,0,0.1,0,0.2,0h0L60.1,22.2z
				 M60.2,32.8c0.1-0.1,0.1-0.1,0.2-0.1L60.2,32.8L60.2,32.8z M62.3,23.2C62.3,23.2,62.3,23.2,62.3,23.2
				C62.3,23.2,62.3,23.2,62.3,23.2C62.3,23.2,62.3,23.2,62.3,23.2z"/>
			<path class="st3" d="M77.1,22.8c-0.3,1.2-0.6,2.5-0.7,3.7v-0.1c-0.1,0.8-0.2,1.7-0.2,2.6c0,0.6,0,1.4,0.1,2.2v0
				c0.2,1.4,0.5,2.6,1,3.7l-0.1-0.1c0.4,0.9,0.9,1.8,1.5,2.6c0.1,0.1,0.1,0.3,0.1,0.5c0,0.1,0,0.2,0,0.3c-0.1,0.3-0.2,0.5-0.5,0.6
				c-0.1,0.1-0.3,0.1-0.5,0.1c-0.1,0-0.2,0-0.3-0.1c-0.2,0-0.4-0.2-0.6-0.5c-0.9-1.2-1.6-2.7-2.1-4.3c-0.5-1.5-0.7-3.2-0.7-5
				c0-1.1,0.1-2.4,0.3-3.8c0.2-1.4,0.5-2.8,1-4.2c0.4-1.4,1-3,1.7-5c0.1-0.2,0.2-0.4,0.4-0.6c0.2-0.1,0.4-0.2,0.6-0.2
				c0.1,0,0.2,0,0.3,0c0.1,0,0.2,0.1,0.4,0.2c0.1,0.1,0.2,0.2,0.3,0.3c0.1,0.1,0.1,0.3,0.1,0.5c0,0.1,0,0.2,0,0.3l-0.8,2.1
				C77.9,20.2,77.5,21.5,77.1,22.8z M77.4,35c0-0.1-0.1-0.1-0.1-0.2L77.4,35z"/>
			<path class="st3" d="M89.4,35c-0.2,0.2-0.4,0.3-0.7,0.3c-1.5,0.1-3,0.1-4.4,0.1l-2.5,0c-0.3,0-0.5-0.1-0.7-0.3
				c-0.2-0.2-0.3-0.5-0.3-0.8c0-0.3,0.1-0.5,0.3-0.7c0.2-0.2,0.4-0.3,0.7-0.3l2.7,0v-2.5v-9.6L84,21.3c-0.2,0.1-0.3,0.2-0.5,0.2
				c-0.1,0-0.2,0-0.3,0c-0.2-0.1-0.4-0.2-0.6-0.5c-0.1-0.2-0.1-0.4-0.1-0.6c0-0.1,0-0.2,0-0.2c0-0.1,0.1-0.2,0.2-0.4
				c0.1-0.1,0.2-0.2,0.3-0.2c0.9-0.4,2.1-0.9,3.9-1.7c0.2-0.1,0.3-0.2,0.5-0.2c0.1,0,0.1,0,0.3,0c0.2,0.1,0.4,0.2,0.6,0.5
				c0.1,0.1,0.1,0.3,0.1,0.5c0,0.1,0,0.2,0,0.3c0,0.1-0.1,0.2-0.2,0.4c-0.1,0.1-0.2,0.2-0.3,0.2l-1.4,0.6v2.5v10.5
				c0.5,0,1.2,0,2.2-0.1c0.3,0,0.5,0.1,0.7,0.3c0.2,0.2,0.3,0.5,0.3,0.8C89.7,34.6,89.6,34.8,89.4,35z"/>
			<path class="st3" d="M106,33.4c0,0,0,0.1-0.1,0.4c-0.2,0.4-0.4,0.7-0.6,1c-0.3,0.2-0.6,0.4-0.9,0.5s-0.7,0.2-1,0.2
				c-0.6,0-1.2-0.2-1.7-0.5c-0.5-0.4-1.1-0.9-1.7-1.5c-0.5-0.5-0.9-1.1-1.1-1.7c-0.1-0.5-0.2-1.1-0.2-1.9c0-0.8,0-1.5,0.1-2
				c0-0.5,0.1-1.1,0.3-1.6c0.2-0.6,0.5-1.1,0.8-1.5c0.4-0.5,0.9-0.8,1.4-0.9c0.1,0,0.2,0,0.3,0c0.2,0,0.3,0,0.5,0.1
				c0.2,0.1,0.4,0.3,0.5,0.6c0,0.1,0,0.1,0,0.2c0,0.2-0.1,0.4-0.1,0.5c-0.1,0.1-0.1,0.2-0.3,0.3c-0.1,0.1-0.2,0.1-0.3,0.2l-0.2,0.1
				l-0.1,0.1c0,0,0,0,0,0l-0.1,0l-0.1,0.1l0.1,0l-0.1,0.1c0,0,0,0,0,0l0,0.1l-0.1,0.1l0.1-0.1l-0.2,0.3v0c0,0-0.1,0.1-0.1,0.2
				l0.1-0.1c-0.1,0.2-0.2,0.5-0.2,1v0c-0.1,0.4-0.1,0.9-0.1,1.6c0,0.1,0,0.4,0,0.6c0,0.3,0,0.5,0,0.7v0v0.1c0,0,0,0.1,0,0.2v-0.1
				c0,0.2,0.1,0.4,0.2,0.5c0,0.1,0.1,0.2,0.2,0.2l-0.1-0.1c0.2,0.3,0.5,0.6,0.8,0.8l0.6,0.6l0,0c0.2,0.2,0.4,0.3,0.7,0.5l0.2,0.1
				c0.2,0,0.3,0,0.4,0l0.2-0.1l0.1-0.1l0,0c0.1-0.2,0.2-0.4,0.4-0.6c0.1-0.1,0.3-0.1,0.5-0.1c0.2,0,0.3,0,0.3,0
				c0.3,0.1,0.5,0.2,0.6,0.5C106,33.3,106,33.4,106,33.4z M100.7,30.8L100.7,30.8C100.8,30.7,100.8,30.8,100.7,30.8
				C100.8,30.8,100.8,30.8,100.7,30.8z M101.1,26.7L101.1,26.7L101.1,26.7L101.1,26.7z M101.4,26.2L101.4,26.2
				C101.4,26.2,101.4,26.2,101.4,26.2C101.3,26.3,101.4,26.3,101.4,26.2z M101.5,26.1L101.5,26.1C101.5,26.1,101.5,26.1,101.5,26.1
				L101.5,26.1z M101.6,26L101.6,26L101.6,26L101.6,26z M103.5,33.5l0.2,0C103.6,33.4,103.5,33.4,103.5,33.5l-0.1,0
				C103.4,33.5,103.4,33.5,103.5,33.5z M103.9,33.3L103.9,33.3L103.9,33.3z M103.9,33.3L103.9,33.3
				C103.9,33.3,103.9,33.3,103.9,33.3z M104,33.2L104,33.2L104,33.2L104,33.2z"/>
			<path class="st3" d="M114.5,27.8c0,0.4-0.1,0.9-0.2,1.4c-0.1,0.8-0.3,1.5-0.5,2.2c-0.2,0.7-0.4,1.4-0.7,2.1
				c-0.1,0.1-0.1,0.3-0.2,0.5c-0.1,0.2-0.2,0.4-0.3,0.7c-0.1,0.3-0.3,0.5-0.6,0.6c-0.3,0.2-0.5,0.3-0.8,0.3c-0.3,0-0.7-0.1-1.1-0.2
				c-0.3-0.1-0.6-0.2-1-0.4c-0.3-0.2-0.6-0.4-0.9-0.7c-0.3-0.3-0.4-0.6-0.6-1c-0.1-0.2-0.1-0.5-0.1-0.8s0-0.5,0-0.5v-1.2v-2.4
				c0-0.3,0.1-0.5,0.3-0.7s0.5-0.3,0.7-0.3c0.3,0,0.5,0.1,0.7,0.3s0.3,0.5,0.3,0.7v2.2v1.1c0,0.1,0,0.2,0,0.4c0,0.1,0,0.3,0,0.5
				c0,0,0,0,0-0.1c0,0,0,0.1,0,0.1v0.2v-0.2l0,0.2l0-0.1c0,0,0,0.1,0.1,0.2l0,0l0,0l0,0.1l0-0.1v0l0.1,0.1l-0.1-0.1l0.2,0.2l0.5,0.3
				l0.6,0.2c0.1-0.2,0.2-0.4,0.3-0.7l-0.1,0.3c0.7-1.6,1.1-3.1,1.3-4.7v0c0-0.2,0-0.5,0-0.9c0-0.1-0.1-0.3-0.1-0.5
				c0-0.1-0.1-0.2-0.1-0.2l-0.2-0.2l-0.3-0.2h-0.1c0,0-0.1,0-0.2,0l-0.1,0l0,0c-0.1,0.1-0.3,0.1-0.5,0.1c-0.4,0-0.7-0.2-0.9-0.5
				c-0.1-0.1-0.2-0.3-0.2-0.5c0-0.2,0-0.4,0.1-0.5c0.1-0.2,0.2-0.3,0.4-0.4c0.4-0.2,0.8-0.3,1.2-0.3c0.5,0,0.9,0.1,1.4,0.4
				c0.4,0.2,0.7,0.5,1,0.9c0.3,0.4,0.4,0.8,0.5,1.2C114.4,27,114.5,27.4,114.5,27.8z M109.6,32.4L109.6,32.4L109.6,32.4L109.6,32.4z
				 M109.6,32.7L109.6,32.7C109.6,32.7,109.6,32.7,109.6,32.7L109.6,32.7z M111.4,26.2L111.4,26.2L111.4,26.2L111.4,26.2L111.4,26.2
				L111.4,26.2h0.1H111.4L111.4,26.2z M111.4,26.2L111.4,26.2L111.4,26.2z M111.9,26.4L111.9,26.4l-0.2-0.2L111.9,26.4L111.9,26.4z
				 M112,26.5C112,26.5,112,26.5,112,26.5C112,26.5,112,26.5,112,26.5z M112.4,27.4c0,0,0-0.1,0-0.2
				C112.4,27.3,112.4,27.3,112.4,27.4z"/>
			<path class="st3" d="M121.5,36.3c-0.2,0.2-0.5,0.3-0.8,0.3c-0.3,0-0.5-0.1-0.7-0.3c-0.2-0.2-0.3-0.4-0.3-0.8l-0.1-1.9v-0.1
				c-0.4,0.6-0.8,1-1,1.3c-0.3,0.4-0.7,0.6-1.2,0.6c-0.3,0-0.5-0.1-0.7-0.2c-0.2-0.1-0.4-0.3-0.5-0.6c-0.1-0.2-0.2-0.4-0.2-0.7
				s0-0.5,0-0.7c0-0.3,0-0.4,0-0.6V31v-3.6c0-0.3,0.1-0.5,0.3-0.7c0.2-0.2,0.4-0.3,0.7-0.3c0.3,0,0.5,0.1,0.7,0.3
				c0.2,0.2,0.3,0.5,0.3,0.7c0,1.5,0,2.7,0,3.4v1.6c0.3-0.6,0.6-1.1,0.9-1.7l-0.1,0.2c0.3-0.7,0.5-1.6,0.7-2.6l0,0.3
				c0-0.3,0.1-0.5,0.1-0.6l0-0.7c0-0.3,0.1-0.5,0.3-0.7c0.2-0.2,0.4-0.3,0.7-0.3c0.3,0,0.5,0.1,0.7,0.3s0.3,0.5,0.3,0.7
				c0,0.4,0,0.7,0,0.9c0,0.2,0,0.5,0,0.9c0,1.9,0,4.1,0.2,6.6C121.8,35.9,121.7,36.1,121.5,36.3z M117.7,32.8
				c-0.1,0.1-0.1,0.1-0.1,0.2L117.7,32.8z M117.9,33.7C117.9,33.7,117.9,33.7,117.9,33.7C117.9,33.7,117.9,33.7,117.9,33.7z"/>
			<path class="st3" d="M128,33c0,0.2-0.1,0.4-0.1,0.5l-1.1,1.5c-0.2,0.2-0.4,0.4-0.5,0.4c-0.1,0.1-0.3,0.1-0.4,0.1l-0.3,0
				c-0.6-0.2-1-0.5-1.4-1c-0.4-0.5-0.6-1-0.8-1.5c-0.2-0.7-0.2-1.5-0.2-2.5c0-0.4,0.1-0.9,0.1-1.6c0.1-1.1,0.3-2.4,0.5-3.9v0
				l0.3-2.4c0.1-0.8,0.1-1.4,0.1-1.8c0-0.3,0.1-0.5,0.3-0.8c0.2-0.2,0.5-0.3,0.8-0.3c0.3,0,0.5,0.1,0.7,0.3c0.2,0.2,0.3,0.5,0.3,0.7
				c0,0.2,0,0.6-0.1,1c-0.1,1-0.3,2.7-0.6,4.9v-0.1c-0.1,0.6-0.1,1.1-0.2,1.3c-0.2,1.3-0.3,2.3-0.3,3.2c0,0.4,0,0.7,0,0.9
				c0,0.3,0.1,0.6,0.2,0.9l-0.1-0.1l0.1,0.2l0.4-0.5c0.2-0.2,0.4-0.4,0.6-0.5c0,0,0.1,0,0.2,0c0.2,0,0.4,0,0.6,0.2
				c0.2,0.1,0.4,0.3,0.5,0.6C128,32.8,128,32.9,128,33z M124,24.7l0,0.2C124,24.9,124,24.8,124,24.7z M125.4,32.1c0,0,0,0.1,0,0.2
				C125.4,32.2,125.4,32.1,125.4,32.1z M125.8,26.9l0-0.2C125.8,26.7,125.8,26.8,125.8,26.9z M126.1,33.4L126.1,33.4L126.1,33.4
				L126.1,33.4z M126.1,33.5L126.1,33.5L126.1,33.5z"/>
			<path class="st3" d="M137.5,34.1c0,0.2-0.1,0.5-0.2,0.6c-0.1,0.2-0.3,0.3-0.6,0.4c0,0-0.1,0-0.2,0c-0.2,0-0.4,0-0.6-0.2
				c-0.3-0.1-0.4-0.3-0.5-0.6c-0.2-1-0.3-1.8-0.4-2.4l-0.1-0.7l-0.4,1.1c-0.8,2.1-1.6,3.9-2.5,5.4c-0.1,0.2-0.2,0.3-0.4,0.4
				c-0.2,0.1-0.3,0.1-0.5,0.1c-0.1,0-0.2,0-0.3,0c-0.6-0.1-1-0.5-1.3-1.2c-0.1-0.3-0.2-0.7-0.2-1.3c0-0.3,0-0.8,0-1.5
				c0-1.4,0.2-2.5,0.5-3.4c0.2-0.5,0.4-0.9,0.6-1.2c0.3-0.4,0.6-0.7,1-1c0.5-0.3,1-0.5,1.5-0.5c0.3,0,0.4,0,0.6,0.1
				c0.3-1,0.6-2.7,1.1-5c0-0.2,0.2-0.4,0.4-0.5c0.2-0.1,0.4-0.2,0.7-0.2c0.3,0,0.5,0.1,0.7,0.3c0.1,0.1,0.2,0.2,0.2,0.4
				c0.1,0.1,0.1,0.3,0.1,0.4c-0.1,0.6-0.1,1.2-0.1,1.8c0,0.1,0,0.3,0,0.4c0,0.2,0,0.4,0,0.6c0,1.8,0.1,3.5,0.4,5.3l-0.1-0.3
				c0.1,0.6,0.2,1.4,0.4,2.5C137.5,33.8,137.5,33.9,137.5,34.1z M132.8,31.4l0.4-1.3h-0.1l-0.2,0c-0.1,0.1-0.2,0.1-0.2,0.1l0,0
				l-0.1,0l-0.2,0.1l0.1-0.1c-0.1,0.1-0.2,0.2-0.2,0.3c-0.1,0.1-0.2,0.3-0.4,0.6c-0.2,0.5-0.4,1.1-0.5,1.7l0.1-0.3
				c-0.1,0.6-0.1,1.2-0.1,1.8v0.1l0.5-1l-0.1,0.2C132.3,32.7,132.6,31.9,132.8,31.4z M131.9,31.5l0.1-0.2
				C132,31.3,132,31.3,131.9,31.5z M132.8,30.3L132.8,30.3L132.8,30.3L132.8,30.3z M133.1,30.1L133.1,30.1h0.1H133.1z M133.3,30.1
				C133.3,30.1,133.3,30.1,133.3,30.1C133.3,30.1,133.3,30.1,133.3,30.1C133.3,30.1,133.3,30.1,133.3,30.1z"/>
			<path class="st3" d="M153.2,28.7c0,0.9-0.3,1.8-0.8,2.5c-0.3,0.4-0.7,0.9-1.2,1.3c-0.2,0.2-0.7,0.5-1.5,1
				c-0.1,0.1-0.3,0.2-0.5,0.2c-0.2,0-0.4-0.1-0.6-0.2v0.2c0,0.3-0.1,0.5-0.3,0.7c-0.2,0.2-0.4,0.3-0.6,0.3c0,0-0.1,0-0.2,0
				c-0.2,0-0.3,0-0.5-0.2c-0.1,0-0.2-0.1-0.3-0.2c-0.1-0.1-0.2-0.2-0.2-0.4c0-0.2-0.1-0.4-0.1-0.8c0-0.3,0-0.5,0-0.7v-1.4v-9
				c0-0.3,0.1-0.5,0.3-0.7c0.2-0.2,0.4-0.3,0.7-0.3c0.3,0,0.5,0.1,0.7,0.3s0.3,0.5,0.3,0.7v2.6V28c0.4-0.6,0.7-1.1,1-1.4
				c0.3-0.3,0.6-0.5,1-0.6c0.2,0,0.3-0.1,0.4-0.1c0.3,0,0.6,0.1,0.9,0.2c0.3,0.1,0.6,0.4,0.8,0.6s0.4,0.6,0.5,0.9
				C153.2,28,153.2,28.3,153.2,28.7z M148.9,31.9C148.9,31.9,148.9,31.8,148.9,31.9C148.9,31.8,148.9,31.9,148.9,31.9
				C148.9,31.9,148.9,31.9,148.9,31.9C148.9,31.9,148.9,31.9,148.9,31.9z M150.3,30.5c0,0,0.1-0.2,0.4-0.5l-0.1,0.1l0.4-0.5
				c0.1-0.2,0.1-0.4,0.2-0.7v-0.3l-0.1-0.4l-0.1-0.1c-0.5,0.7-0.8,1.3-1.1,1.8l-0.8,1.5l0.7-0.5l-0.2,0.2
				C150.1,30.7,150.3,30.5,150.3,30.5z M150.5,30.2C150.6,30.2,150.6,30.2,150.5,30.2C150.6,30.2,150.6,30.2,150.5,30.2z"/>
			<path class="st3" d="M160.2,36.3c-0.2,0.2-0.5,0.3-0.8,0.3c-0.3,0-0.5-0.1-0.7-0.3c-0.2-0.2-0.3-0.4-0.3-0.8l-0.1-1.9v-0.1
				c-0.4,0.6-0.8,1-1,1.3c-0.3,0.4-0.7,0.6-1.2,0.6c-0.3,0-0.5-0.1-0.7-0.2c-0.2-0.1-0.4-0.3-0.5-0.6c-0.1-0.2-0.2-0.4-0.2-0.7
				s0-0.5,0-0.7c0-0.3,0-0.4,0-0.6V31v-3.6c0-0.3,0.1-0.5,0.3-0.7c0.2-0.2,0.4-0.3,0.7-0.3c0.3,0,0.5,0.1,0.7,0.3
				c0.2,0.2,0.3,0.5,0.3,0.7c0,1.5,0,2.7,0,3.4v1.6c0.3-0.6,0.6-1.1,0.9-1.7l-0.1,0.2c0.3-0.7,0.5-1.6,0.7-2.6l0,0.3
				c0-0.3,0.1-0.5,0.1-0.6l0-0.7c0-0.3,0.1-0.5,0.3-0.7c0.2-0.2,0.4-0.3,0.7-0.3c0.3,0,0.5,0.1,0.7,0.3s0.3,0.5,0.3,0.7
				c0,0.4,0,0.7,0,0.9c0,0.2,0,0.5,0,0.9c0,1.9,0,4.1,0.2,6.6C160.5,35.9,160.4,36.1,160.2,36.3z M156.4,32.8
				c-0.1,0.1-0.1,0.1-0.1,0.2L156.4,32.8z M156.6,33.7C156.6,33.7,156.6,33.7,156.6,33.7C156.6,33.7,156.6,33.7,156.6,33.7z"/>
			<path class="st3" d="M169.1,33.9C169.2,33.8,169.2,33.8,169.1,33.9l-0.5,0.7l0.3,3.6c0,0.5,0.1,1.1,0.1,1.9l0.1,1.8
				c0,0.8-0.1,1.4-0.4,1.8c-0.2,0.3-0.4,0.6-0.8,0.8c-0.2,0.1-0.6,0.2-1,0.3c-0.5,0-1.1-0.1-1.6-0.4c-0.5-0.3-1-0.9-1.2-1.6
				c-0.2-0.4-0.2-0.9-0.2-1.5c0-0.6,0.1-1.3,0.2-2c0.2-1.1,0.6-2.2,1.1-3.2c0.3-0.6,0.7-1.2,1.2-2.1c0-0.3-0.1-0.9-0.2-1.5l-0.2-1.9
				l-0.5,0.8c-0.2,0.2-0.3,0.4-0.4,0.5c-0.1,0.1-0.1,0.2-0.2,0.3s-0.2,0.2-0.3,0.3c-0.4,0.3-0.8,0.5-1.2,0.5c-0.3,0-0.6-0.1-0.8-0.2
				c-0.4-0.3-0.6-0.6-0.7-1s-0.1-1-0.1-1.8V27c0-0.3,0.1-0.5,0.3-0.7c0.2-0.2,0.5-0.3,0.8-0.3c0.3,0,0.5,0.1,0.7,0.3
				c0.2,0.2,0.3,0.4,0.3,0.7v2.2V30c0.3-0.5,0.6-1,0.8-1.4c0,0,0,0,0,0c0.4-0.9,0.7-1.8,0.8-2.9c0-0.2,0.2-0.4,0.5-0.6
				c0.1-0.1,0.3-0.1,0.5-0.1c0.3,0,0.5,0.1,0.8,0.3c0.1,0.1,0.2,0.3,0.2,0.4s0.1,0.3,0.1,0.3l0.1,0.9c0.1,0.6,0.2,1.9,0.5,3.9
				l0.1,0.8c0.2-0.2,0.4-0.5,0.8-0.9c0.2-0.2,0.4-0.3,0.7-0.3c0.3,0,0.5,0.1,0.8,0.3c0.1,0.1,0.2,0.2,0.2,0.3c0,0.1,0.1,0.3,0.1,0.4
				c0,0.2-0.1,0.5-0.3,0.7L169.1,33.9z M163.3,31L163.3,31L163.3,31z M163.4,31C163.4,31,163.4,31,163.4,31L163.4,31L163.4,31
				C163.4,31,163.4,31,163.4,31z M166,41.3c0,0,0,0.1,0,0.4l0.1,0.5l0.2,0.3c0,0.1,0.1,0.1,0.2,0.1c0,0,0.1,0.1,0.1,0.1l0.2,0.1h0.2
				l0,0l0.1,0v0l0.1-0.3c0-0.2,0-0.5,0-0.8s0-0.5,0-0.6l-0.2-1.8c0-0.6-0.1-1-0.1-1.3c-0.4,0.8-0.6,1.8-0.8,2.8
				C166,41,166,41.3,166,41.3z M166,40.5c0,0,0-0.1,0-0.2C166.1,40.4,166.1,40.4,166,40.5z M166.9,42.7L166.9,42.7L166.9,42.7
				L166.9,42.7L166.9,42.7C166.9,42.7,166.9,42.7,166.9,42.7L166.9,42.7C166.9,42.7,166.9,42.7,166.9,42.7L166.9,42.7L166.9,42.7
				L166.9,42.7L166.9,42.7L166.9,42.7z M167,42.7C167,42.7,167,42.7,167,42.7C167,42.7,167,42.7,167,42.7z M166.9,42.7
				C167,42.7,167,42.7,166.9,42.7L166.9,42.7z M167,42.6L167,42.6L167,42.6z M167.1,42.6L167.1,42.6L167.1,42.6L167.1,42.6z
				 M167.1,42.4v-0.1V42.4l-0.1,0.1C167.1,42.5,167.1,42.5,167.1,42.4z"/>
			<path class="st3" d="M191.2,34.3c0,0.2,0,0.4-0.1,0.5c-0.1,0.2-0.3,0.4-0.6,0.5c-0.1,0-0.2,0-0.3,0c-0.2,0-0.4,0-0.5-0.1
				c-0.3-0.2-0.6-0.5-0.8-0.9c-0.2-0.3-0.3-0.6-0.4-0.9c-0.1-0.4-0.2-0.9-0.3-1.7c0-0.3-0.1-0.7-0.1-1.2c-0.3,0.4-0.6,0.9-1.1,1.4
				c-0.7,0.8-1.3,1.4-1.8,1.8c-0.5,0.4-0.9,0.8-1.2,1l-0.5,0.4c-0.4,0.2-0.9,0.3-1.2,0.3c-0.6,0-1.1-0.2-1.5-0.7
				c-0.4-0.5-0.7-1.1-0.7-1.8c0-0.4,0-0.9,0.2-1.6c0.1-0.5,0.3-0.9,0.5-1.3c0.3-0.7,0.8-1.4,1.3-2.1s1.2-1.2,2-1.6
				c1.3-0.8,2.7-1.2,4.2-1.2c0.3,0,0.5,0,0.6,0c0.1,0,0.2,0,0.3,0.1h0.3c0.2,0,0.4,0.1,0.6,0.3c0.1,0.1,0.2,0.2,0.2,0.3
				c0.1,0.1,0.1,0.3,0.1,0.4c-0.1,0.7-0.1,1.5-0.1,2.4c0,1,0.1,2.1,0.2,3.1v0c0.1,0.5,0.2,1,0.3,1.3l0.1,0.2l0.1,0.1
				c0.2,0.2,0.4,0.4,0.5,0.6C191.1,34.1,191.2,34.2,191.2,34.3z M186.8,28.8c0,0,0.2-0.5,0.7-1.4l-0.3,0l0.3-0.1
				c-0.6,0.1-1.1,0.2-1.6,0.5l0.1-0.1c-0.5,0.2-1,0.5-1.5,0.9c0,0,0,0,0,0c-0.5,0.4-1,0.9-1.3,1.4l0,0c-0.3,0.5-0.6,0.9-0.8,1.4
				l0-0.1c-0.2,0.4-0.3,0.9-0.4,1.3v-0.1c0,0.1,0,0.1,0,0.2v0.1v0V33l0.1,0.3l0.1,0.1l0,0c0.2-0.1,0.6-0.3,1-0.7l-0.2,0.1
				c1.1-0.9,2.1-1.9,3-3l-0.1,0.1C186.5,29.2,186.8,28.8,186.8,28.8z M182,32.5l0,0.1L182,32.5C182,32.6,182,32.6,182,32.5z
				 M181.9,33.1L181.9,33.1l0.1,0.2L181.9,33.1L181.9,33.1L181.9,33.1L181.9,33.1z M182.1,33.3L182.1,33.3L182.1,33.3z M185.7,27.9
				c0.1,0,0.1-0.1,0.2-0.1L185.7,27.9z M190.2,32.1c0-0.1,0-0.1,0-0.2C190.2,32,190.2,32.1,190.2,32.1z"/>
			<path class="st3" d="M208.3,34c0,0.2-0.1,0.4-0.2,0.6c-0.1,0.2-0.3,0.3-0.6,0.4c-0.1,0-0.2,0.1-0.3,0.1c-0.2,0-0.4-0.1-0.6-0.2
				c-0.2-0.1-0.3-0.3-0.4-0.6c-0.4-1.5-0.8-2.7-1.2-3.8l0.1,0.1l-0.2-0.4c-0.1,0-0.2,0.1-0.4,0.2l0.2-0.1c-0.2,0.1-0.5,0.2-0.8,0.5
				l-0.1,0.1l-0.1,0l0,0l-0.5,0.5c0.1,0.7,0.2,1.8,0.3,3.4c0,0.3-0.1,0.5-0.3,0.7c-0.2,0.2-0.5,0.3-0.7,0.3c-0.3,0-0.6-0.1-0.8-0.3
				c-0.2-0.2-0.3-0.4-0.3-0.7l-0.2-2.3c-0.2-2.6-0.5-5.3-0.9-8v0c-0.2-1.2-0.3-2.2-0.4-2.8c0-0.1-0.1-0.2-0.1-0.3
				c0-0.1,0-0.2,0.1-0.3l0.1-0.3c0.1-0.2,0.3-0.4,0.6-0.5c0,0,0.1,0,0.2,0c0.2,0,0.4,0,0.6,0.1c0.1,0.1,0.2,0.2,0.3,0.3
				c0.1,0.1,0.1,0.2,0.2,0.4c0.2,1.3,0.3,2.2,0.4,2.9c0.3,2,0.5,3.6,0.6,4.8c0.1-0.1,0.2-0.1,0.2-0.1c0.2-0.1,0.5-0.3,0.9-0.4
				c0.1,0,0.2-0.1,0.4-0.1c0.2-0.1,0.4-0.1,0.5-0.1c0.6,0,1.1,0.3,1.3,1l0.5,1.1c0.5,1.4,0.9,2.6,1.2,3.7
				C208.3,33.7,208.3,33.8,208.3,34z M200.6,24.5c0-0.1,0-0.1,0-0.1C200.6,24.4,200.6,24.5,200.6,24.5z M204,30.7L204,30.7
				C204,30.7,204,30.7,204,30.7L204,30.7z M204.8,29.8L204.8,29.8L204.8,29.8L204.8,29.8z M205.4,30L205.4,30L205.4,30L205.4,30z"/>
			<path class="st3" d="M216.8,27.8c0,0.4,0,0.9-0.2,1.4c-0.1,0.8-0.3,1.5-0.5,2.2c-0.2,0.7-0.4,1.4-0.7,2.1
				c-0.1,0.1-0.1,0.3-0.2,0.5c-0.1,0.2-0.2,0.4-0.3,0.7c-0.1,0.3-0.3,0.5-0.6,0.6c-0.3,0.2-0.5,0.3-0.8,0.3c-0.3,0-0.7-0.1-1.1-0.2
				c-0.3-0.1-0.6-0.2-1-0.4c-0.3-0.2-0.6-0.4-0.9-0.7c-0.3-0.3-0.5-0.6-0.6-1c-0.1-0.2-0.1-0.5-0.1-0.8s0-0.5,0-0.5v-1.2v-2.4
				c0-0.3,0.1-0.5,0.3-0.7s0.5-0.3,0.7-0.3c0.3,0,0.5,0.1,0.7,0.3s0.3,0.5,0.3,0.7v2.2v1.1c0,0.1,0,0.2,0,0.4c0,0.1,0,0.3,0,0.5
				c0,0,0,0,0-0.1c0,0,0,0.1,0,0.1v0.2v-0.2l0,0.2l0-0.1c0,0,0,0.1,0.1,0.2l0,0l0,0l0,0.1l0-0.1v0l0.1,0.1l-0.1-0.1l0.2,0.2l0.5,0.3
				l0.6,0.2c0.1-0.2,0.2-0.4,0.3-0.7l-0.1,0.3c0.7-1.6,1.1-3.1,1.3-4.7v0c0-0.2,0-0.5,0-0.9c0-0.1-0.1-0.3-0.1-0.5
				c0-0.1-0.1-0.2-0.1-0.2l-0.2-0.2l-0.3-0.2H214c0,0-0.1,0-0.2,0l-0.1,0l0,0c-0.1,0.1-0.3,0.1-0.5,0.1c-0.4,0-0.7-0.2-0.9-0.5
				c-0.1-0.1-0.2-0.3-0.2-0.5c0-0.2,0-0.4,0.1-0.5c0.1-0.2,0.2-0.3,0.4-0.4c0.4-0.2,0.8-0.3,1.2-0.3c0.5,0,0.9,0.1,1.4,0.4
				c0.4,0.2,0.7,0.5,1,0.9s0.4,0.8,0.5,1.2C216.8,27,216.8,27.4,216.8,27.8z M211.9,32.4L211.9,32.4L211.9,32.4L211.9,32.4z
				 M211.9,32.7L211.9,32.7C211.9,32.7,212,32.7,211.9,32.7L211.9,32.7z M213.7,26.2L213.7,26.2L213.7,26.2L213.7,26.2L213.7,26.2
				L213.7,26.2h0.1H213.7L213.7,26.2z M213.8,26.2L213.8,26.2L213.8,26.2z M214.3,26.4L214.3,26.4l-0.2-0.2L214.3,26.4L214.3,26.4z
				 M214.4,26.5C214.3,26.5,214.3,26.5,214.4,26.5C214.3,26.5,214.3,26.5,214.4,26.5z M214.7,27.4c0,0,0-0.1,0-0.2
				C214.7,27.3,214.7,27.3,214.7,27.4z"/>
			<path class="st3" d="M226.5,32c0,0.3,0,0.5-0.1,0.7c-0.4,1.1-1.2,1.9-2.5,2.4c-0.6,0.2-1.1,0.3-1.7,0.3c-0.5,0-1-0.1-1.5-0.3
				c-0.6-0.2-1.1-0.5-1.4-0.9c-0.4-0.3-0.7-0.8-0.9-1.4c0-0.1,0-0.2,0-0.3c0-0.2,0-0.4,0.1-0.5c0.2-0.2,0.4-0.4,0.6-0.4
				c0.1,0,0.1,0,0.3,0c0.2,0,0.4,0,0.5,0.1c0.2,0.1,0.4,0.3,0.5,0.6l-0.1-0.2c0.2,0.3,0.2,0.5,0.3,0.5l0.3,0.2
				c0.2,0.1,0.4,0.2,0.6,0.3l-0.3-0.1c0.3,0.1,0.5,0.2,0.7,0.2l0.3,0l0.3,0c0.3,0,0.5-0.1,0.8-0.2c0.1-0.1,0.3-0.2,0.6-0.3l0,0
				c0.1,0,0.1-0.1,0.2-0.1l-0.1,0c0,0,0.1-0.1,0.1-0.1c0,0,0.1-0.1,0.2-0.1l0.1-0.3l0.1-0.2V32l0-0.1l0,0c-0.2-0.3-0.6-0.6-1.1-1
				l0.2,0.2c-0.3-0.2-0.8-0.6-1.4-1c-0.3-0.2-0.5-0.3-0.7-0.4c-0.4-0.2-0.6-0.4-0.7-0.5c-0.3-0.3-0.4-0.7-0.4-1.1
				c0-0.4,0.1-0.8,0.4-1c0.4-0.5,0.9-0.9,1.5-1.1c0.3-0.1,0.6-0.2,1-0.2c0.3,0,0.5,0,0.8,0.1c0.2,0,0.4,0.2,0.5,0.4
				c0.1,0.2,0.2,0.4,0.2,0.7c0,0.1,0,0.2,0,0.2c0,0.1-0.1,0.2-0.2,0.4c-0.1,0.1-0.2,0.2-0.3,0.3c-0.1,0.1-0.3,0.1-0.5,0.1
				c-0.1,0-0.2,0-0.3,0h-0.2c0.1,0,0.2,0,0.3,0c-0.1,0-0.1,0-0.3,0c-0.1,0-0.2,0-0.2,0c0,0-0.1,0-0.2,0.1l-0.2,0.1
				c0.1,0,0.1,0,0.1,0.1c0,0,0.1,0,0.1,0.1c0.2,0.1,0.3,0.2,0.4,0.3c0.1,0.1,0.2,0.2,0.3,0.2l1.6,1.2c0.5,0.4,0.9,0.8,1.1,1.2
				C226.4,31.2,226.5,31.6,226.5,32z M222.3,28L222.3,28L222.3,28z M222.3,28L222.3,28L222.3,28L222.3,28z M222.9,27.7
				c0.1,0,0.1,0,0.2,0L222.9,27.7z M223.8,32.9L223.8,32.9L223.8,32.9L223.8,32.9z M224.3,32.3C224.3,32.4,224.3,32.4,224.3,32.3
				C224.3,32.4,224.3,32.4,224.3,32.3z M224.3,32.3C224.3,32.3,224.3,32.3,224.3,32.3C224.3,32.3,224.3,32.3,224.3,32.3z
				 M224.5,32.1C224.5,32.1,224.4,32,224.5,32.1C224.4,32,224.5,32.1,224.5,32.1L224.5,32.1L224.5,32.1L224.5,32.1L224.5,32.1z"/>
			<path class="st3" d="M235,29.7c0,0.3-0.1,0.5-0.3,0.8c-0.2,0.2-0.5,0.3-0.8,0.3c-0.5,0.1-1,0.1-1.5,0.1c0,1.2,0.1,2.5,0.2,3.7
				c0,0.3-0.1,0.5-0.3,0.7c-0.2,0.2-0.5,0.3-0.7,0.3c-0.3,0-0.5-0.1-0.8-0.3c-0.2-0.2-0.3-0.4-0.3-0.7l-0.1-2.6l0-1
				c-0.6,0-1.1,0-1.4,0s-0.5-0.1-0.7-0.3c-0.2-0.2-0.3-0.4-0.3-0.7c0-0.3,0.1-0.5,0.3-0.7c0.2-0.2,0.4-0.3,0.7-0.3l1.4,0v-1.6
				c0-1.6,0-3.2,0.1-4.7c0-0.3,0.1-0.5,0.3-0.7c0.2-0.2,0.5-0.3,0.8-0.3c0.2,0,0.5,0.1,0.7,0.3c0.2,0.2,0.3,0.4,0.3,0.7
				c0,0.6,0,1.5-0.1,2.7l0,1.8l0,1.8c0.7,0,1.2-0.1,1.5-0.1h0.1c0.2,0,0.5,0.1,0.7,0.3C234.8,29.1,234.9,29.3,235,29.7z"/>
			<path class="st3" d="M240.9,28.6c0,2.4-0.2,5.3-0.6,8.7c0,0.2,0,0.4-0.1,0.5L240,38c-0.2,0.2-0.5,0.3-0.8,0.3
				c-0.3,0-0.5-0.1-0.7-0.3c-0.1-0.1-0.2-0.2-0.2-0.3s-0.1-0.3-0.1-0.4c0.1-0.7,0.2-1.6,0.3-2.9c0.2-2.3,0.3-4.3,0.3-5.8
				c0-1.5-0.1-2.8-0.2-4v0c-0.1-0.9-0.2-1.5-0.3-1.9c-0.2-1.1-0.6-2.2-1-3.3c-0.3-0.7-0.5-1.4-0.6-1.9c-0.1-0.5-0.2-1.1-0.2-1.7
				c0-0.3,0.1-0.5,0.3-0.7c0.2-0.2,0.5-0.3,0.8-0.3c0.3,0,0.5,0.1,0.7,0.3c0.2,0.2,0.3,0.4,0.3,0.7c0,0.2,0,0.4,0.1,0.7l0-0.3
				c0.1,0.6,0.3,1.3,0.6,2.2c0.4,1,0.6,1.7,0.8,2.2C240.6,23,240.9,25.7,240.9,28.6z"/>
		</g>
	</g>
</g>
</svg>
