<svg xmlns="http://www.w3.org/2000/svg" viewBox="0 0 261.28 67.43"><defs><style>.cls-1{fill:#fff;}.cls-1,.cls-2{stroke:#201600;stroke-miterlimit:10;}.cls-2{fill:none;}.cls-3{fill:#201600;}</style></defs><title>seconddonut_ru</title><g id="Слой_2" data-name="Слой 2"><g id="Слой_5" data-name="Слой 5"><path class="cls-1" d="M8.48,39.66c0,2.78.44,11.24,1.72,14,1.75,3.75,14.91,3.82,25.15,5.07,16.81,2.05,209.56-2.91,219.09-5.59,2.93-.82,9.55-32.17,4.51-42.74a11.66,11.66,0,0,0-4.71-5.57c-2.24-1.26-5.17-1.73-8-2.06-10.78-1.23-21.78-.9-32.7-.55-14.86.47-100.22.69-108.35-.08C79.59-.34,53.62.51,27.83,1.37c-4.24.14-11.35.06-14.05,2.79C11.46,6.48,8.59,31.34,8.48,39.66Z"/><path class="cls-2" d="M13.77,4.16C5.1,6.9,2.7,12.55,2.28,14.46,1.15,19.59,1.06,24.89.73,30.13c-.34,5.49-.5,28.23,1,30.5,3.5,5.15,91.35,5.65,108.67,5.81,58.64.53,115.29.67,125.86.22,4.88-.21,12.91-6.38,18.31-13.19"/><path class="cls-2" d="M11.39,12.61C7.77,15.86,5,18.25,1.24,21.33"/><path class="cls-2" d="M.92,29.77A85.86,85.86,0,0,1,10.25,23"/><path class="cls-2" d="M.38,38.82q4.18-3.46,8.69-6.5"/><path class="cls-2" d="M.55,47.24q3.86-2.9,7.94-5.5"/><path class="cls-2" d="M1.15,56.83A36.43,36.43,0,0,1,9.4,50.21"/><path class="cls-2" d="M7.23,62.4a60.55,60.55,0,0,1,8-6.07"/><path class="cls-2" d="M19.06,63.76a53.56,53.56,0,0,1,6.07-6"/><path class="cls-2" d="M31.05,64.58A46.42,46.42,0,0,1,37,59.06"/><path class="cls-2" d="M42.8,65.24A52,52,0,0,1,50.45,59"/><path class="cls-2" d="M54,65.6A63.13,63.13,0,0,1,61.29,59"/><path class="cls-2" d="M64.71,65.85a83.24,83.24,0,0,1,6.87-6.79"/><path class="cls-2" d="M74.89,66.12a4.44,4.44,0,0,1,.91-1.29l5.38-5.93"/><path class="cls-2" d="M84,66,90.36,59"/><path class="cls-2" d="M93.67,66.36q3.58-3.93,7.45-7.6"/><path class="cls-2" d="M103.16,66.43c-.22-.15,0-.49.14-.69q3.29-3.47,6.61-6.91"/><path class="cls-2" d="M113.24,66.81a17.85,17.85,0,0,1,2.53-2.66,42.64,42.64,0,0,0,5.07-5.73"/><path class="cls-2" d="M124.62,66.55a79.72,79.72,0,0,0,6.76-8.24"/><path class="cls-2" d="M136.07,66.51a88.36,88.36,0,0,0,7.21-8.72"/><path class="cls-2" d="M146.7,66.64c2.73-2.81,4.39-6.34,7.16-9.12"/><path class="cls-2" d="M156.87,66.69c1.86-2.81,4.83-6.51,6.49-9.44"/><path class="cls-2" d="M165.72,66.54c2.23-2.85,4.51-6.78,6.83-9.55"/><path class="cls-2" d="M175.53,66.86a25,25,0,0,1,1.73-2.39c1.65-2.23,4.36-5.59,6-7.82"/><path class="cls-2" d="M183.78,66.93c2.3-3.09,6.46-8.05,9.11-10.85"/><path class="cls-2" d="M192.53,66.93c.55-.86,1.56-2.08,2.17-2.89l6.08-8-1.09,1.4"/><path class="cls-2" d="M200.78,66.93c1.92-3,6.06-8.28,8.22-11.15"/><path class="cls-2" d="M210.19,66.54c2.32-3.19,5.7-7.62,8.16-10.7"/><path class="cls-2" d="M218.35,66.93l7.82-11.85"/><path class="cls-2" d="M228.49,66.77c1.95-3.2,5.22-8.86,7-12.15"/><path class="cls-2" d="M238.64,66.42l8.66-12.51"/><path class="cls-3" d="M25.2,29.08a3,3,0,0,1-.27,1.23,3.6,3.6,0,0,1-1,1.11,30.16,30.16,0,0,1-2.46,1.86,11,11,0,0,1-2.61,1.41,3.91,3.91,0,0,1-.54.15q.06.48.33,1.77a1,1,0,0,1,0,.3,1,1,0,0,1-.19.6,1.09,1.09,0,0,1-.56.39,1,1,0,0,1-.27.06,1.07,1.07,0,0,1-.66-.23.88.88,0,0,1-.36-.55q-.3-1.56-.42-2.34l-.45-.09a7.11,7.11,0,0,1-2.4-1.12,23.45,23.45,0,0,1-2.49-2.12.88.88,0,0,1-.33-.72,1,1,0,0,1,.33-.75.92.92,0,0,1,.72-.3,1,1,0,0,1,.75.3l.45.42,1.38,1.17a1,1,0,0,1-.24-.15,9.84,9.84,0,0,0,1.71,1l-.09-.06.39.15L15.93,32q-.18-2.25-.24-5.4-.3,0-1-.06a9.77,9.77,0,0,1-2.55-.69,4,4,0,0,1-1-.69A2.94,2.94,0,0,1,10.35,24a3,3,0,0,1-.18-1,3.47,3.47,0,0,1,.27-1.38,7.18,7.18,0,0,1,1.29-2.07,9.07,9.07,0,0,1,4.05-2.61Q15.72,15,15.66,14a.88.88,0,0,1,.3-.75,1.08,1.08,0,0,1,.75-.3.86.86,0,0,1,.74.28,1.23,1.23,0,0,1,.31.77q.09,1.2.09,2.43a6.32,6.32,0,0,1,.72,0,5.94,5.94,0,0,1,.69,0,1.13,1.13,0,0,1,.72.31,1.07,1.07,0,0,1,.33.73,1.16,1.16,0,0,1-.3.75,1.57,1.57,0,0,1-.36.21,1,1,0,0,1-.39.09,3.93,3.93,0,0,0-.57,0c-.36,0-.63,0-.81,0q0,1.32-.06,4l0,2q1.17,0,1.93,0a7.17,7.17,0,0,1,1.52.25A6.3,6.3,0,0,1,23.64,26a4.09,4.09,0,0,1,1.47,2.28A3.1,3.1,0,0,1,25.2,29.08Zm-9.93-4.62.45,0V23q.06-2.58.06-3.87h0l0,0a9.79,9.79,0,0,0-1.44.84,9.37,9.37,0,0,0-1.41,1.41,8,8,0,0,0-.51.87l-.12.42a2.43,2.43,0,0,0,0,.45l0,.15.15.21.12.15a3.93,3.93,0,0,0,.87.48L13.17,24a7.31,7.31,0,0,0,1.68.42l-.27,0A6.2,6.2,0,0,0,15.27,24.45Zm.24,8,.09,0A.12.12,0,0,1,15.51,32.43Zm7.14-2.58.33-.39s-.06.07-.06.09l.09-.12.06-.09-.06.06.06-.12.06-.15V29a2,2,0,0,0-.18-.63l.09.27a2.53,2.53,0,0,0-.42-.75s0,.05.06.09a2.66,2.66,0,0,0-.63-.57h0a6,6,0,0,0-.93-.48l.27.09a8,8,0,0,0-1.65-.42h0a17.85,17.85,0,0,0-2-.06q.06,3.78.3,6.15a1.81,1.81,0,0,0,.51-.15l-.18.06a11,11,0,0,0,1.74-1q.33-.21,1.59-1.11v0s0,0,.09-.06h0Zm-.9.66.06-.06ZM23,29.43a0,0,0,0,0,0,0l0-.06Zm.12-.42,0-.18A.41.41,0,0,0,23.13,29Zm0,.24v0a.12.12,0,0,0,0-.09Zm0,.06v0Z"/><path class="cls-3" d="M37.38,15.79a.93.93,0,0,1,0,.27q-.09.57-.33,1.71-.51,2.49-1,5.82v-.06l-.27,2.4q-.48,4.23-.63,8.55a.94.94,0,0,1-.32.73,1.1,1.1,0,0,1-.76.29,1,1,0,0,1-1-1q0-1.41.18-4.23.27-3.81.81-7.53l.45-3a87.64,87.64,0,0,1-6.12,6.9.92.92,0,0,1-.72.3,1,1,0,0,1-.75-.3A.93.93,0,0,1,26.7,26,1.08,1.08,0,0,1,27,25.2l1.77-1.86q3-3.21,5.85-6.9l-.18.21,1.08-1.38a1,1,0,0,1,.6-.48.64.64,0,0,1,.24,0,1.29,1.29,0,0,1,.45.09A1,1,0,0,1,37.38,15.79Zm-1.35,8,0-.21A.52.52,0,0,1,36,23.79Z"/><path class="cls-3" d="M47.89,23.62s0,0,0,0a6.25,6.25,0,0,1,.3,2,9.39,9.39,0,0,1-.24,2.1q-.24,1.05-.69,2.43a11,11,0,0,1-1.83,3.36A6.12,6.12,0,0,1,44,34.7a5.08,5.08,0,0,1-1.66.67,6.09,6.09,0,0,1-1,.12,6.14,6.14,0,0,1-1-.12,1.83,1.83,0,0,1-1.2-.78,2,2,0,0,1-.27-1.17V27.87q0-1.5.06-2.25A7.3,7.3,0,0,1,40,22a4.91,4.91,0,0,1,1.47-1.37,3.49,3.49,0,0,1,1.83-.52,1.49,1.49,0,0,1,.54.12,4.44,4.44,0,0,1,.87.15,4.6,4.6,0,0,1,2.22,1.5.79.79,0,0,1,.24,0,1,1,0,0,1,.72.3.88.88,0,0,1,.33.72.92.92,0,0,1-.33.75Zm-1.78,1.74a53.86,53.86,0,0,0-3.75,4.26l.18-.21q-1.29,1.71-1.59,2.19v1.35a2.43,2.43,0,0,0,0,.45l.3.06-.27-.06a2.47,2.47,0,0,0,.45,0,2.27,2.27,0,0,0,.42,0l-.27.06q.39-.09.87-.24l.78-.42,0,0,.18-.12a0,0,0,0,0,0,0,7.44,7.44,0,0,0,.75-.84l0,.06A8.83,8.83,0,0,0,45,30.16l-.06.18q.3-.75.63-1.8a13.57,13.57,0,0,0,.48-2.13l0,.27A7.62,7.62,0,0,0,46.11,25.35ZM40.95,26.7v1.41a51.09,51.09,0,0,1,4.38-4.92,4.57,4.57,0,0,0-.36-.39,2.1,2.1,0,0,0-.36-.23l-.3-.17a4,4,0,0,0-.54-.12l.27,0-.24,0a1.37,1.37,0,0,1-.48-.12h-.21l-.42.12a2.46,2.46,0,0,1-.36.21l0,0-.09.06-.12.09.06,0-.36.36q-.12.18-.45.75s.06-.07.06-.09A4.73,4.73,0,0,0,41,25.2v-.06A14,14,0,0,0,40.95,26.7Zm.75-3.57s.06-.07.06-.09S41.74,23.1,41.7,23.14Zm.63-.63-.12.09.06-.06Zm.81-.33a.33.33,0,0,0,.15,0h0Zm.06,10.62a.48.48,0,0,1,.18-.12l-.15.09Zm2.13-9.6v0a0,0,0,0,0,0,0Z"/><path class="cls-3" d="M60.16,22.76a28.47,28.47,0,0,0-.74,3.67v-.06A18.21,18.21,0,0,0,59.25,29a18.94,18.94,0,0,0,.15,2.22v0a15.71,15.71,0,0,0,1,3.66l-.06-.06a12,12,0,0,0,1.5,2.58.77.77,0,0,1,.12.48,1.07,1.07,0,0,1,0,.3,1,1,0,0,1-.48.63.81.81,0,0,1-.48.15,1,1,0,0,1-.3-.06,1.21,1.21,0,0,1-.63-.45,13.17,13.17,0,0,1-2.1-4.32,16.94,16.94,0,0,1-.69-5,27.13,27.13,0,0,1,.3-3.81,29.71,29.71,0,0,1,1-4.19q.64-2.08,1.69-5a1.12,1.12,0,0,1,.38-.56.94.94,0,0,1,.58-.19,1.08,1.08,0,0,1,.3,0,.84.84,0,0,1,.36.17,1,1,0,0,1,.27.29,1.09,1.09,0,0,1,.12.54.92.92,0,0,1,0,.27l-.75,2.13Q60.66,20.91,60.16,22.76ZM60.42,35a.46.46,0,0,1-.06-.18Z"/><path class="cls-3" d="M70.26,22.77l.31.32a1,1,0,0,1,.32.73V34.48a1,1,0,0,1-.32.73,1.1,1.1,0,0,1-.76.29.93.93,0,0,1-.69-.31,1,1,0,0,1-.3-.71V29.35a4.75,4.75,0,0,1-3.06,1.41v2.76a1,1,0,0,1-.32.73,1.1,1.1,0,0,1-.76.29.93.93,0,0,1-.69-.31,1,1,0,0,1-.3-.71V24.39a1,1,0,0,1,.3-.73,1.17,1.17,0,0,1,.75-.31,1,1,0,0,1,.71.31,1,1,0,0,1,.32.73v4.26h0a2.9,2.9,0,0,0,.75-.21l-.15.09.21-.09a0,0,0,0,1,0,0h0l.51-.3-.06.06.06-.06.15-.09-.15.09a1.89,1.89,0,0,0,.45-.42l.15-.18a1,1,0,0,1,.48-.42,1.13,1.13,0,0,1,.63-.06V23.83a1,1,0,0,1,.3-.73,1.17,1.17,0,0,1,.75-.32ZM66.6,28.45h-.06l.06,0Z"/><path class="cls-3" d="M79.38,27.75a7.92,7.92,0,0,1-.15,1.41,17.25,17.25,0,0,1-.48,2.16q-.3,1-.72,2.1c-.06.12-.13.28-.21.48a6.92,6.92,0,0,1-.33.69,1.8,1.8,0,0,1-.58.65,1.39,1.39,0,0,1-.79.25A3.83,3.83,0,0,1,75,35.25a6.62,6.62,0,0,1-1-.39,2.79,2.79,0,0,1-.9-.68,2.74,2.74,0,0,1-.57-1,2.55,2.55,0,0,1-.12-.81V28.29a1,1,0,0,1,.32-.72,1,1,0,0,1,.73-.3.88.88,0,0,1,.71.29,1,1,0,0,1,.32.73v3.27c0,.1,0,.22,0,.36a2.65,2.65,0,0,0,0,.48s0,0,0-.06a.12.12,0,0,0,0,.09v0l0,.18,0-.09a.51.51,0,0,0,.06.15l0,0,0,0,0,.09,0-.09v0l.12.15-.09-.15.18.18.48.27.6.18a5.22,5.22,0,0,0,.27-.66L76,33a17.8,17.8,0,0,0,1.29-4.65v0q0-.33,0-.93a4,4,0,0,0-.15-.54.31.31,0,0,0-.12-.21l-.18-.24-.27-.15h-.06a.52.52,0,0,0-.21,0l-.06,0,0,0a1,1,0,0,1-.51.12,1,1,0,0,1-.9-.51.78.78,0,0,1-.15-.51,1.11,1.11,0,0,1,.13-.52.85.85,0,0,1,.38-.37,2.36,2.36,0,0,1,1.2-.33,2.79,2.79,0,0,1,1.38.39,3,3,0,0,1,1,.88,3.43,3.43,0,0,1,.54,1.22A4.51,4.51,0,0,1,79.38,27.75Zm-4.92,4.68v0Zm.06.3v0a0,0,0,0,0,0,0Zm1.77-6.51h.06l0,0h0l.06,0h-.12Zm.06,0v0Zm.48.21-.09-.09-.15-.06.15.06Zm.12.09s-.07-.06-.09-.06S76.91,26.49,76.95,26.52Zm.36.84a.33.33,0,0,1,0-.15A.33.33,0,0,0,77.31,27.37Z"/><path class="cls-3" d="M89,27.87a3.37,3.37,0,0,1-.42,1.62,4.69,4.69,0,0,1-1,1.29A17.46,17.46,0,0,1,86,32a12.22,12.22,0,0,1-3,1.5v7.32a1,1,0,0,1-1,1,.91.91,0,0,1-.73-.29,1,1,0,0,1-.32-.73V26.41a1,1,0,0,1,.32-.72,1.16,1.16,0,0,1,.73-.33,1,1,0,0,1,.57.2,1.09,1.09,0,0,1,.39.52l.36-.18c.4-.16.7-.27.9-.33a5.27,5.27,0,0,1,2-.33,3.58,3.58,0,0,1,1.71.51,2.62,2.62,0,0,1,1.14,1.62A3.38,3.38,0,0,1,89,27.87Zm-2.82,1.38.36-.42-.06.06a3,3,0,0,0,.33-.48,0,0,0,0,1,0,0l0-.06.06-.18a.93.93,0,0,0,0-.27l0-.15-.09-.12,0,0-.21-.15a3,3,0,0,0-.48-.15h-.36l-.12,0h-.06a13.11,13.11,0,0,0-1.8.6l.06,0-.45.27-.09.09-.09.15v.06l0,.06,0-.06v.15a1,1,0,0,1-.12.48.33.33,0,0,1-.12.15v2.07a12,12,0,0,0,2.52-1.47l-.21.15Zm-3-.75s0-.06,0-.06S83.16,28.47,83.16,28.5Zm.12-.27a0,0,0,0,1,0,0h0Zm.72-.42a.46.46,0,0,1-.18.06Zm1.71-.54a.33.33,0,0,1-.15,0h.06A.12.12,0,0,1,85.71,27.27Zm1.17.39-.06-.06.06.09Zm.06.09-.06-.06ZM87,28v-.09l0,.06v0a.43.43,0,0,1,0,.18.34.34,0,0,0,0-.15L87,28Zm0,0s0,0,0,0h0v0Z"/><path class="cls-3" d="M104.91,30.91v3.3a1,1,0,0,1-.34.73,1.1,1.1,0,0,1-.76.29,1,1,0,0,1-1-1V30.64q-.21.3-.69.9L100,34.27a9.2,9.2,0,0,1-.85.94,1.23,1.23,0,0,1-.86.29,1.44,1.44,0,0,1-1-.36,1.62,1.62,0,0,1-.54-.9,2.63,2.63,0,0,1-.06-.66l0-1,.06-1.11q-.24.42-.78,1.26a3.92,3.92,0,0,1-1.71,1.65,2.19,2.19,0,0,1-.69.24,2.5,2.5,0,0,1-.45,0,3.06,3.06,0,0,1-.48,0,2.57,2.57,0,0,1-1.26-.6,2.14,2.14,0,0,1-.72-.93,3,3,0,0,1-.24-.93v-.21a3,3,0,0,1,0-.48.73.73,0,0,1,.17-.35,1,1,0,0,1,.31-.25,1,1,0,0,1,.51-.15.93.93,0,0,1,.27,0,.77.77,0,0,1,.36.18,1.23,1.23,0,0,1,.27.3,1.16,1.16,0,0,1,.12.63V32l.12.24.21.18h0a0,0,0,0,1,0,0h0l.06,0h0a0,0,0,0,0,0,0h0l.06,0h.18a.47.47,0,0,1,.18-.06l.18-.12A1.77,1.77,0,0,0,94,32S94,32,94,32a6.86,6.86,0,0,0,.69-1l.81-1.38,1.65-2.76a1,1,0,0,1,.51-.42,1.25,1.25,0,0,1,.66-.06,1,1,0,0,1,.56.39.9.9,0,0,1,.19.63q-.06,1.11-.12,3.33l-.09,1.65v0l.15-.18L103.08,27a.77.77,0,0,1,.6-.27l.21,0a.75.75,0,0,1,.33.09,1,1,0,0,1,.46.36,1,1,0,0,1,.17.57Q104.91,30.91,104.91,30.91Zm-12.39,1h0l0,.06Zm.21.45v0l-.06-.09A.05.05,0,0,0,92.73,32.37Zm.15.12h0l.06,0Zm0,0a0,0,0,0,1,0,0Zm0,0h0a.12.12,0,0,1,.09,0Zm.21.09,0,0s0,0,.06,0-.06,0-.06,0h0s0,0-.06,0l-.06,0a0,0,0,0,0,0,0l.09.06Zm0,0h0Zm5.55,1.05v0h0A0,0,0,0,1,98.7,33.64Zm.09.24v0Z"/><path class="cls-3" d="M117.69,34.33a1,1,0,0,1-.12.51.93.93,0,0,1-.63.48,1,1,0,0,1-.3,0,.77.77,0,0,1-.48-.12,3.15,3.15,0,0,1-.84-.87,5.35,5.35,0,0,1-.39-.9,11.33,11.33,0,0,1-.27-1.68q-.06-.39-.12-1.17A15.88,15.88,0,0,1,113.43,32a16.69,16.69,0,0,1-1.83,1.8q-.78.66-1.2,1l-.54.36a2.77,2.77,0,0,1-1.23.33,2,2,0,0,1-1.5-.69,2.85,2.85,0,0,1-.69-1.77,5,5,0,0,1,.18-1.56,11.91,11.91,0,0,1,.45-1.29,7.3,7.3,0,0,1,1.35-2.06,9.09,9.09,0,0,1,2-1.6,7.93,7.93,0,0,1,4.2-1.23,4.6,4.6,0,0,1,.6,0,1.05,1.05,0,0,1,.33.06h.27a1.07,1.07,0,0,1,.6.3,1,1,0,0,1,.21.33,1,1,0,0,1,.09.39,22.15,22.15,0,0,0-.12,2.43,25.63,25.63,0,0,0,.18,3.06v0a7.18,7.18,0,0,0,.3,1.32l.12.18.06.06a1.62,1.62,0,0,1,.45.63A.92.92,0,0,1,117.69,34.33Zm-4.32-5.55.69-1.38-.33,0,.27-.06a6.53,6.53,0,0,0-1.62.45l.06-.06a7.88,7.88,0,0,0-1.53.9,0,0,0,0,1,0,0A7.2,7.2,0,0,0,109.59,30l0,0a6.06,6.06,0,0,0-.78,1.38l0-.09a8.34,8.34,0,0,0-.36,1.29v-.12a.42.42,0,0,1,0,.18V33l.09.33.12.12,0,0a8.11,8.11,0,0,0,1-.66l-.21.15a17.2,17.2,0,0,0,3-3l-.06.09Zm-4.86,3.75,0,.12v-.06S108.51,32.57,108.51,32.52Zm0,.6,0,.06.06.12-.06-.12v0Zm.12.21v0Zm3.6-5.46a.47.47,0,0,1,.18-.06Zm4.56,4.26a.43.43,0,0,0,0-.18A.43.43,0,0,1,116.76,32.14Z"/><path class="cls-3" d="M128.43,34.45a1.23,1.23,0,0,1-.15.54,1.08,1.08,0,0,1-.6.48.92.92,0,0,1-.27,0,1,1,0,0,1-.54-.15.89.89,0,0,1-.48-.6q-.12-.87-.3-2.31a37.4,37.4,0,0,1-.3-3.84l-.06.12q-1.14,2.13-1.79,3.22a13.84,13.84,0,0,1-1.58,2.15,2.4,2.4,0,0,1-1.74,1,1.2,1.2,0,0,1-.74-.18,1.42,1.42,0,0,1-.53-.54,2.18,2.18,0,0,1-.18-1.2V29.31a.92.92,0,0,1,.33-.73,1.15,1.15,0,0,1,.78-.29.88.88,0,0,1,.67.32,1,1,0,0,1,.29.7V32.2l.18-.24-.15.21q.45-.6,1.08-1.62l1.08-1.92.63-1.17a20.11,20.11,0,0,1,2-3.12,1,1,0,0,1,.6-.3h.15a1.69,1.69,0,0,1,.39.06,1.34,1.34,0,0,1,.45.4.94.94,0,0,1,.18.56q-.06,1.2-.06,1.83a50.79,50.79,0,0,0,.42,6.42l0-.3.18,1.17ZM120.63,33h0Zm6.84-7.11-.06.09S127.47,25.95,127.47,25.93Z"/><path class="cls-3" d="M136.14,32.14a4.76,4.76,0,0,1-.09.93,11,11,0,0,1-.72,2.19,2.41,2.41,0,0,1-.6.84,2,2,0,0,1-1.53.48,3.91,3.91,0,0,1-2.34-.93,3,3,0,0,1-.9-2.1,2.65,2.65,0,0,1,0-.48,9.62,9.62,0,0,1,.18-1.47l.39-2.31q.54-3.06.78-4.59a1.25,1.25,0,0,1,.48-.63,1,1,0,0,1,.48-.12,1.23,1.23,0,0,1,.33,0,.82.82,0,0,1,.6.48,1.16,1.16,0,0,1,.12.78L132.63,29l-.12.66a1.06,1.06,0,0,1,.24-.39,1.1,1.1,0,0,1,.75-.3,3.1,3.1,0,0,1,1.26.42,3.6,3.6,0,0,1,.93,1A3.32,3.32,0,0,1,136.14,32.14Zm-2.07.36,0-.06V32a1.28,1.28,0,0,0-.12-.39l-.15-.3.06.09-.06-.09-.09-.12s0,.05.06.09a.18.18,0,0,0-.12-.12l.06.06-.21-.15-.18,0h.12a1.16,1.16,0,0,1-.72-.3,1.2,1.2,0,0,1-.3-.72v0q-.3,1.74-.42,2.64l0-.3a5.16,5.16,0,0,0-.06,1.08l.06.36.15.3.09.09.27.15a3.26,3.26,0,0,0,.78.21h0l.09-.21a8,8,0,0,0,.6-1.77V32.5Zm-2,1.2a.34.34,0,0,0,0-.15A.34.34,0,0,1,132,33.7Zm.09.3h0l-.09-.21A.48.48,0,0,1,132.12,34Zm.3.27a.12.12,0,0,0,.09,0l-.09,0-.06-.06Zm.87-3.24s.06,0,.06,0S133.33,31,133.29,31Zm0,3.6v0l0,0Zm.81-2.25v.06l0,.12A.41.41,0,0,1,134.1,32.37Z"/><path class="cls-3" d="M144.21,22.77l.31.32a1,1,0,0,1,.32.73V34.48a1,1,0,0,1-.32.73,1.1,1.1,0,0,1-.76.29.93.93,0,0,1-.69-.31,1,1,0,0,1-.3-.71V29.35a4.75,4.75,0,0,1-3.06,1.41v2.76a1,1,0,0,1-.32.73,1.1,1.1,0,0,1-.76.29.93.93,0,0,1-.69-.31,1,1,0,0,1-.3-.71V24.39a1,1,0,0,1,.3-.73,1.17,1.17,0,0,1,.75-.31,1,1,0,0,1,.71.31,1,1,0,0,1,.32.73v4.26h0a2.9,2.9,0,0,0,.75-.21l-.15.09.21-.09a0,0,0,0,1,0,0h0l.51-.3-.06.06.06-.06.15-.09-.15.09a1.89,1.89,0,0,0,.45-.42l.15-.18a1,1,0,0,1,.48-.42,1.13,1.13,0,0,1,.63-.06V23.83a1,1,0,0,1,.3-.73,1.17,1.17,0,0,1,.75-.32Zm-3.66,5.67h-.06l.06,0Z"/><path class="cls-3" d="M153.33,27.75a7.92,7.92,0,0,1-.15,1.41,17.25,17.25,0,0,1-.48,2.16q-.3,1-.72,2.1c-.06.12-.13.28-.21.48a6.92,6.92,0,0,1-.33.69,1.8,1.8,0,0,1-.58.65,1.39,1.39,0,0,1-.79.25,3.83,3.83,0,0,1-1.14-.24,6.62,6.62,0,0,1-1-.39,2.79,2.79,0,0,1-.9-.68,2.74,2.74,0,0,1-.57-1,2.55,2.55,0,0,1-.12-.81V28.29a1,1,0,0,1,.32-.72,1,1,0,0,1,.73-.3.88.88,0,0,1,.71.29,1,1,0,0,1,.32.73v3.27c0,.1,0,.22,0,.36a2.65,2.65,0,0,0,0,.48s0,0,0-.06a.12.12,0,0,0,0,.09v0l0,.18,0-.09a.51.51,0,0,0,.06.15l0,0,0,0,0,.09,0-.09v0l.12.15-.09-.15.18.18.48.27.6.18a5.22,5.22,0,0,0,.27-.66l-.09.27a17.8,17.8,0,0,0,1.29-4.65v0q0-.33,0-.93a4,4,0,0,0-.15-.54.31.31,0,0,0-.12-.21l-.18-.24-.27-.15h-.06a.52.52,0,0,0-.21,0l-.06,0,0,0a1,1,0,0,1-.51.12,1,1,0,0,1-.9-.51.78.78,0,0,1-.15-.51,1.11,1.11,0,0,1,.13-.52.85.85,0,0,1,.38-.37,2.36,2.36,0,0,1,1.2-.33,2.79,2.79,0,0,1,1.38.39,3,3,0,0,1,1,.88,3.43,3.43,0,0,1,.54,1.22A4.51,4.51,0,0,1,153.33,27.75Zm-4.92,4.68v0Zm.06.3v0a0,0,0,0,0,0,0Zm1.77-6.51h.06l0,0h0l.06,0h-.12Zm.06,0v0Zm.48.21-.09-.09-.15-.06.15.06Zm.12.09s-.07-.06-.09-.06S150.86,26.49,150.9,26.52Zm.36.84a.33.33,0,0,1,0-.15A.33.33,0,0,0,151.26,27.37Z"/><path class="cls-3" d="M172.08,32.89v.18a1,1,0,0,1-.12.51,1.61,1.61,0,0,1-.72.77,2.14,2.14,0,0,1-2.16,0,2.68,2.68,0,0,1-.87-.84,3.05,3.05,0,0,1-.48-2,5.5,5.5,0,0,1,0-.62c0-.17,0-.31.06-.43s0-.19.06-.33a3.75,3.75,0,0,0,0-.51,5.65,5.65,0,0,0,0-.69q0-.3,0-.51-1.89,1.35-3.54,2.43v3.6a1,1,0,0,1-.32.73,1.1,1.1,0,0,1-.76.29.88.88,0,0,1-.67-.31,1,1,0,0,1-.29-.71V26.85a1,1,0,0,1,.32-.73,1.1,1.1,0,0,1,.76-.29.88.88,0,0,1,.67.31,1,1,0,0,1,.29.71v1.56q2-1.38,3.42-2.46h0l.06,0,.15-.12-.06.06a1.13,1.13,0,0,1,.45-.27.64.64,0,0,1,.54,0,1,1,0,0,1,.48.27.78.78,0,0,1,.24.45A9.88,9.88,0,0,1,170,29q0,.57-.12,1.71a7.42,7.42,0,0,0-.09,1.17c0,.16.08.3.12.42l.09.18.12.09h.06a1,1,0,0,1,.9-.51,1,1,0,0,1,.51.12.93.93,0,0,1,.48.63Zm-2-.3h0Zm0,0h0Z"/><path class="cls-3" d="M180.33,33.54l.21.3a1.13,1.13,0,0,1,.21.66.76.76,0,0,1,0,.24,1.1,1.1,0,0,1-.48.63,1,1,0,0,1-.51.12,1.06,1.06,0,0,1-.3,0,12.85,12.85,0,0,1-2.71-.77,5.32,5.32,0,0,1-2-1.43,3.94,3.94,0,0,1-1.08-2.1,5.76,5.76,0,0,1,0-.66,5.3,5.3,0,0,1,0-.66,4.49,4.49,0,0,1,.33-1.08,3.67,3.67,0,0,1,1.41-1.63,3.72,3.72,0,0,1,2-.62,3.93,3.93,0,0,1,2.28.66,2.71,2.71,0,0,1,1.41,2.22,1.41,1.41,0,0,1-.32.88,1.59,1.59,0,0,1-.79.56,3.28,3.28,0,0,1-.79.09h-.55q-.84,0-2.52,0a1,1,0,0,1-.48-.12,1.1,1.1,0,0,0,.12.33,4.74,4.74,0,0,0,.3.57l-.06-.06.06.06.09.15s0,0-.06-.09l.48.48a5.25,5.25,0,0,0,1.17.69,19.1,19.1,0,0,0,2.25.57Zm-4.71-3.18a.34.34,0,0,0,0-.15.12.12,0,0,1,0,.09Zm0,.27a.12.12,0,0,1,0,.09.34.34,0,0,0,0-.15Zm.15-.81v0Zm1.62-1.23a1.44,1.44,0,0,0-.33,0l.3-.06-.48.09-.33.18h1.35a4.14,4.14,0,0,0,.57,0l-.15-.09.06,0-.09,0-.15-.09.12.06a1.91,1.91,0,0,0-.54-.12A1.23,1.23,0,0,0,177.39,28.6Zm-.64.12a.1.1,0,0,0-.08,0,.1.1,0,0,1,.08,0,.1.1,0,0,0,.08,0A.1.1,0,0,1,176.74,28.72Zm1.58.06-.06,0,0,0Zm.75.45v0Z"/><path class="cls-3" d="M190.71,27.87a3.37,3.37,0,0,1-.42,1.62,4.69,4.69,0,0,1-1,1.29,17.46,17.46,0,0,1-1.54,1.2,12.22,12.22,0,0,1-3,1.5v7.32a1,1,0,0,1-1,1,.91.91,0,0,1-.73-.29,1,1,0,0,1-.32-.73V26.41a1,1,0,0,1,.32-.72,1.16,1.16,0,0,1,.73-.33,1,1,0,0,1,.57.2,1.09,1.09,0,0,1,.39.52l.36-.18c.4-.16.7-.27.9-.33a5.27,5.27,0,0,1,2-.33,3.58,3.58,0,0,1,1.71.51,2.62,2.62,0,0,1,1.14,1.62A3.38,3.38,0,0,1,190.71,27.87Zm-2.82,1.38.36-.42-.06.06a3,3,0,0,0,.33-.48,0,0,0,0,1,0,0l0-.06.06-.18a.93.93,0,0,0,0-.27l0-.15-.09-.12,0,0-.21-.15a3,3,0,0,0-.48-.15h-.36l-.12,0h-.06a13.11,13.11,0,0,0-1.8.6l.06,0-.45.27-.09.09-.09.15v.06l0,.06,0-.06v.15a1,1,0,0,1-.12.48.33.33,0,0,1-.12.15v2.07a12,12,0,0,0,2.52-1.47L187,30Zm-3-.75s0-.06,0-.06S184.89,28.47,184.89,28.5Zm.12-.27a0,0,0,0,1,0,0h0Zm.72-.42a.46.46,0,0,1-.18.06Zm1.71-.54a.33.33,0,0,1-.15,0h.06A.12.12,0,0,1,187.44,27.27Zm1.17.39-.06-.06.06.09Zm.06.09-.06-.06Zm0,.21v-.09l0,.06v0a.43.43,0,0,1,0,.18.34.34,0,0,0,0-.15l0,.06Zm0,0s0,0,0,0h0v0Z"/><path class="cls-3" d="M199,33.54l.21.3a1.13,1.13,0,0,1,.21.66.76.76,0,0,1,0,.24,1.1,1.1,0,0,1-.48.63,1,1,0,0,1-.51.12,1.06,1.06,0,0,1-.3,0,12.85,12.85,0,0,1-2.71-.77,5.32,5.32,0,0,1-2-1.43,3.94,3.94,0,0,1-1.08-2.1,5.76,5.76,0,0,1,0-.66,5.3,5.3,0,0,1,0-.66,4.49,4.49,0,0,1,.33-1.08A3.67,3.67,0,0,1,194,27.14a3.72,3.72,0,0,1,2-.62,3.93,3.93,0,0,1,2.28.66,2.71,2.71,0,0,1,1.41,2.22,1.41,1.41,0,0,1-.32.88,1.59,1.59,0,0,1-.79.56,3.28,3.28,0,0,1-.79.09h-.55q-.84,0-2.52,0a1,1,0,0,1-.48-.12,1.1,1.1,0,0,0,.12.33,4.74,4.74,0,0,0,.3.57l-.06-.06.06.06.09.15s0,0-.06-.09l.48.48a5.25,5.25,0,0,0,1.17.69,19.1,19.1,0,0,0,2.25.57Zm-4.71-3.18a.34.34,0,0,0,0-.15.12.12,0,0,1,0,.09Zm0,.27a.12.12,0,0,1,0,.09.34.34,0,0,0,0-.15Zm.15-.81v0ZM196,28.6a1.44,1.44,0,0,0-.33,0l.3-.06-.48.09-.33.18h1.35a4.14,4.14,0,0,0,.57,0l-.15-.09.06,0-.09,0-.15-.09.12.06a1.91,1.91,0,0,0-.54-.12A1.23,1.23,0,0,0,196,28.6Zm-.64.12a.1.1,0,0,0-.08,0,.1.1,0,0,1,.08,0,.1.1,0,0,0,.08,0A.1.1,0,0,1,195.37,28.72Zm1.58.06-.06,0,0,0Zm.75.45v0Z"/><path class="cls-3" d="M207.81,22.77l.31.32a1,1,0,0,1,.32.73V34.48a1,1,0,0,1-.32.73,1.1,1.1,0,0,1-.76.29.93.93,0,0,1-.69-.31,1,1,0,0,1-.3-.71V29.35a4.75,4.75,0,0,1-3.06,1.41v2.76a1,1,0,0,1-.32.73,1.1,1.1,0,0,1-.76.29.93.93,0,0,1-.69-.31,1,1,0,0,1-.3-.71V24.39a1,1,0,0,1,.3-.73,1.17,1.17,0,0,1,.75-.31,1,1,0,0,1,.71.31,1,1,0,0,1,.32.73v4.26h0a2.9,2.9,0,0,0,.75-.21l-.15.09.21-.09a0,0,0,0,1,0,0h0l.51-.3-.06.06.06-.06.15-.09-.15.09a1.89,1.89,0,0,0,.45-.42l.15-.18a1,1,0,0,1,.48-.42,1.13,1.13,0,0,1,.63-.06V23.83a1,1,0,0,1,.3-.73,1.17,1.17,0,0,1,.75-.32Zm-3.66,5.67h-.06l.06,0Z"/><path class="cls-3" d="M216.93,27.75a7.92,7.92,0,0,1-.15,1.41,17.25,17.25,0,0,1-.48,2.16q-.3,1-.72,2.1c-.06.12-.13.28-.21.48a6.92,6.92,0,0,1-.33.69,1.8,1.8,0,0,1-.58.65,1.39,1.39,0,0,1-.79.25,3.83,3.83,0,0,1-1.14-.24,6.62,6.62,0,0,1-1-.39,2.79,2.79,0,0,1-.9-.68,2.74,2.74,0,0,1-.57-1,2.55,2.55,0,0,1-.12-.81V28.29a1,1,0,0,1,.32-.72,1,1,0,0,1,.73-.3.88.88,0,0,1,.71.29,1,1,0,0,1,.32.73v3.27c0,.1,0,.22,0,.36a2.65,2.65,0,0,0,0,.48s0,0,0-.06a.12.12,0,0,0,0,.09v0l0,.18,0-.09a.51.51,0,0,0,.06.15l0,0,0,0,0,.09,0-.09v0l.12.15-.09-.15.18.18.48.27.6.18a5.22,5.22,0,0,0,.27-.66l-.09.27a17.8,17.8,0,0,0,1.29-4.65v0q0-.33,0-.93a4,4,0,0,0-.15-.54.31.31,0,0,0-.12-.21l-.18-.24-.27-.15h-.06a.52.52,0,0,0-.21,0l-.06,0,0,0a1,1,0,0,1-.51.12,1,1,0,0,1-.9-.51.78.78,0,0,1-.15-.51,1.11,1.11,0,0,1,.13-.52.85.85,0,0,1,.38-.37,2.36,2.36,0,0,1,1.2-.33,2.79,2.79,0,0,1,1.38.39,3,3,0,0,1,1,.88,3.43,3.43,0,0,1,.54,1.22A4.51,4.51,0,0,1,216.93,27.75ZM212,32.43v0Zm.06.3v0a0,0,0,0,0,0,0Zm1.77-6.51h.06l0,0h0l.06,0h-.12Zm.06,0v0Zm.48.21-.09-.09-.15-.06.15.06Zm.12.09s-.07-.06-.09-.06S214.46,26.49,214.5,26.52Zm.36.84a.33.33,0,0,1,0-.15A.33.33,0,0,0,214.86,27.37Z"/><path class="cls-3" d="M227.88,34.87l-.32.3a1.15,1.15,0,0,1-.73.33q-1.56,0-2.34,0a3.67,3.67,0,0,1-1.2-.24,1.42,1.42,0,0,1-.56-.45,1.49,1.49,0,0,1-.29-.63,8.67,8.67,0,0,1-.06-1.2v-1l0-1.32-.36.27a3.55,3.55,0,0,1-.78.36,1.82,1.82,0,0,1-.54.06,2.73,2.73,0,0,1-.48,0,2,2,0,0,1-1.44-1,1.11,1.11,0,0,1-.3-.66l0-.36,0-.36a1.17,1.17,0,0,1,.18-.48.77.77,0,0,1,.6-.45.93.93,0,0,1,.27,0,1.09,1.09,0,0,1,.54.12,1.23,1.23,0,0,1,.48.63,1.87,1.87,0,0,1,0,.48s0,0,.06,0l0,0,.15-.06a.69.69,0,0,0,.18-.12,4.22,4.22,0,0,0,.48-.51v0l0-.06.15-.15-.09.09q.33-.42.93-1.26a1.34,1.34,0,0,1,.63-.48.9.9,0,0,1,.27,0,.91.91,0,0,1,.27,0,1,1,0,0,1,.54.38,1.2,1.2,0,0,1,.24.61q0,2,0,3.06t0,1.53c0,.12,0,.27,0,.45a4.58,4.58,0,0,0,0,.63q.33,0,1,0h1.38a.87.87,0,0,1,.72.28,1,1,0,0,1,.3.74Zm-7.47-5.34,0-.09,0-.06-.06.12Zm.09-.21v0h0v0a0,0,0,0,1,0,0Zm0,0,0,0v0Zm.18-.09v0h0A0,0,0,0,0,220.68,29.23Zm0,0h0a0,0,0,0,0,0,0Zm.18-.06.09-.06S220.9,29.13,220.86,29.16Zm.6-.63a0,0,0,0,1,0,0l.09-.09Z"/><path class="cls-3" d="M236.46,33.87s.06-.07.06-.09l-.57.78.33,3.63q0,.69.15,1.86l.12,1.8a3.34,3.34,0,0,1-.42,1.8,2.54,2.54,0,0,1-.75.78,3.51,3.51,0,0,1-1,.3,2.87,2.87,0,0,1-2.85-2,4,4,0,0,1-.24-1.47,9.7,9.7,0,0,1,.24-2,12.62,12.62,0,0,1,1.14-3.15A18.83,18.83,0,0,1,233.82,34c0-.34-.07-.85-.15-1.53l-.18-1.92-.51.84q-.24.36-.39.54l-.2.25-.25.31A1.73,1.73,0,0,1,231,33a1.29,1.29,0,0,1-.78-.24,1.63,1.63,0,0,1-.72-1,10,10,0,0,1-.12-1.78V27a1,1,0,0,1,.32-.73,1.1,1.1,0,0,1,.76-.28.93.93,0,0,1,.69.31,1,1,0,0,1,.3.7v3a14.79,14.79,0,0,0,.75-1.41,0,0,0,0,0,0,0,11,11,0,0,0,.84-2.91,1,1,0,0,1,.48-.63,1,1,0,0,1,.48-.12,1.27,1.27,0,0,1,.78.27.9.9,0,0,1,.24.43A2.18,2.18,0,0,1,235,26l.09.93q.12.93.48,3.87l.09.81q.24-.3.78-.9a.85.85,0,0,1,.66-.3,1.2,1.2,0,0,1,.78.3.55.55,0,0,1,.23.3,1.27,1.27,0,0,1,.07.42,1.13,1.13,0,0,1-.3.72ZM230.67,31h0Zm.06,0s0,0,0,0l.06,0h0Zm2.58,10.24,0,.36.12.48.18.27a.54.54,0,0,0,.15.15s.07.06.09.06l.18.09h.21l0,0,.09,0v0l.09-.33a4.4,4.4,0,0,0,0-.79q0-.44,0-.62l-.15-1.8q-.06-.84-.12-1.32a11.16,11.16,0,0,0-.78,2.82Zm.06-.81a.33.33,0,0,0,0-.15A.33.33,0,0,1,233.37,40.45Zm.84,2.25h0a0,0,0,0,0,0,0l0,0a0,0,0,0,1,0,0h0l0,0h0Zm.12,0s-.05,0-.09.06S234.31,42.66,234.33,42.66Zm-.06.06s.06-.07.06-.09Zm.09-.09h0Zm0,0v0l0,0Zm.06-.21v0l-.06.12A.17.17,0,0,0,234.45,42.43Z"/><path class="cls-3" d="M252,26.89l-.06.72a6.24,6.24,0,0,1-.15,1.32A7.87,7.87,0,0,1,251,31.2a9.89,9.89,0,0,1-1.4,2A6.54,6.54,0,0,1,248,34.5a3.7,3.7,0,0,1-1.81.51,2.79,2.79,0,0,1-1.26-.3,2.24,2.24,0,0,1-.93-.83,3.29,3.29,0,0,1-.48-1.21,5.73,5.73,0,0,1-.06-1.14h-1.68l0,3.54a.85.85,0,0,1-.33.69,1.15,1.15,0,0,1-.75.27.88.88,0,0,1-.67-.31,1.16,1.16,0,0,1-.31-.71l0-2q0-3.75.21-7a1.1,1.1,0,0,1,.32-.74A1,1,0,0,1,241,25a.93.93,0,0,1,.69.31.9.9,0,0,1,.27.71l-.09,2-.06,1.47q1.86,0,2.76,0a1,1,0,0,1,.81.39,1,1,0,0,1,.21.6,1.23,1.23,0,0,1,0,.3l0,.33q0,.33,0,1a1.77,1.77,0,0,0,.15.51l.06.09.12.15.12.06.24.06h.12l.21,0h-.12a1.32,1.32,0,0,0,.28-.09l.23-.09.54-.3a9.7,9.7,0,0,0,1.17-1.2l-.09.12a9.9,9.9,0,0,0,.9-1.56s-.06.07-.06.09A9,9,0,0,0,249.9,28l-.06.27a6.46,6.46,0,0,0,.06-.75,2.76,2.76,0,0,0,0-.48l.06.27a2,2,0,0,0-.12-.42l0-.09a0,0,0,0,1,0,0h0l-.06,0-.18-.06h-.24l-.24.06-.27.15-.24.24-.36.6s.06-.07.06-.09a8,8,0,0,0-.36,1.26.82.82,0,0,1-.36.54,1.13,1.13,0,0,1-.66.21.78.78,0,0,1-.24,0,1.1,1.1,0,0,1-.63-.48,1,1,0,0,1-.12-.51,1.08,1.08,0,0,1,0-.3A5.21,5.21,0,0,1,247,25.68a2.89,2.89,0,0,1,1-.78,3,3,0,0,1,1.29-.3,2.78,2.78,0,0,1,1.44.39,2.53,2.53,0,0,1,1,1.26Zm-6.48,4a.34.34,0,0,1,0,.15A.34.34,0,0,0,245.55,30.85Zm.09,1.8v0h0Zm.21.21,0,.06h0Zm.09.09h0Zm.06,0h0l.06,0A.12.12,0,0,0,246,32.95Zm.3,0h0a.17.17,0,0,1,.12,0Zm3.09-6.33a.12.12,0,0,0,.09,0l-.09,0h0l-.12,0A.18.18,0,0,0,249.39,26.64Zm.28.06s0,0,0,0l-.06-.06,0,0Zm.11.09.06,0-.09-.06Zm0,0h0v0A0,0,0,0,0,249.81,26.83Zm0,.06,0-.06v0Z"/><path class="cls-3" d="M257.91,28.6a72.31,72.31,0,0,1-.63,8.67,1,1,0,0,1-.15.51L257,38a1,1,0,0,1-.75.3,1,1,0,0,1-.72-.3,1.2,1.2,0,0,1-.24-.35.63.63,0,0,1-.06-.37q.12-1.05.3-2.85.33-3.51.33-5.79a30.83,30.83,0,0,0-.24-4v0a17.93,17.93,0,0,0-.33-1.92,24.35,24.35,0,0,0-1-3.27q-.39-1.08-.6-1.9a7.8,7.8,0,0,1-.24-1.67.92.92,0,0,1,.33-.73,1.15,1.15,0,0,1,.78-.29.88.88,0,0,1,.67.31,1,1,0,0,1,.29.71,6.32,6.32,0,0,0,.06.72l0-.3a8.85,8.85,0,0,0,.6,2.22q.54,1.44.75,2.19A29.39,29.39,0,0,1,257.91,28.6Z"/></g></g></svg>