<?xml version="1.0" encoding="utf-8"?>
<!-- Generator: Adobe Illustrator 21.0.2, SVG Export Plug-In . SVG Version: 6.00 Build 0)  -->
<svg version="1.1" id="Слой_1" xmlns="http://www.w3.org/2000/svg" xmlns:xlink="http://www.w3.org/1999/xlink" x="0px" y="0px"
	 viewBox="0 0 261 70" style="enable-background:new 0 0 261 70;" xml:space="preserve">
<style type="text/css">
	.st0{display:none;}
	.st1{display:inline;fill:#EEB755;stroke:#586DB0;stroke-miterlimit:10;}
	.st2{fill:#FFFFFF;stroke:#000000;stroke-miterlimit:10;}
	.st3{fill:none;stroke:#000000;stroke-miterlimit:10;}
</style>
<g id="Слой_3" class="st0">
	<rect x="-799.3" y="-464.8" class="st1" width="1306" height="2822"/>
</g>
<g id="Слой_18">
</g>
<g id="Слой_2">
</g>
<g id="Слой_4">
</g>
<g id="Слой_8">
</g>
<g id="Слой_15">
</g>
<g id="Слой_16">
</g>
<g id="Слой_9">
</g>
<g id="Слой_24">
</g>
<g id="Слой_7">
</g>
<g id="Слой_6">
</g>
<g id="Слой_13">
</g>
<g id="Слой_14">
</g>
<g id="Слой_11">
</g>
<g id="Слой_12">
</g>
<g id="Слой_10">
</g>
<g id="Слой_5">
	<path class="st2" d="M8.3,41.4c0,2.8,0.4,11.2,1.7,14c1.8,3.7,14.9,3.8,25.1,5.1c16.8,2.1,209.6-2.9,219.1-5.6
		c2.9-0.8,9.5-32.2,4.5-42.7c-1-2.1-2.3-4.2-4.7-5.6c-2.2-1.3-5.2-1.7-8-2.1c-10.8-1.2-21.8-0.9-32.7-0.6
		C198.5,4.4,113.1,4.6,105,3.8C79.4,1.4,53.4,2.2,27.6,3.1c-4.2,0.1-11.3,0.1-14.1,2.8C11.3,8.2,8.4,33,8.3,41.4z"/>
	<path class="st3" d="M13.6,5.9C4.9,8.6,2.5,14.2,2.1,16.2C1,21.3,0.9,26.6,0.5,31.8C0.2,37.3,0,60,1.6,62.3
		C5.1,67.5,93,68,110.3,68.1c58.6,0.5,115.3,0.7,125.9,0.2c4.9-0.2,12.9-6.4,18.3-13.2"/>
	<path class="st3" d="M11.2,14.3C7.6,17.6,4.8,19.9,1.1,23"/>
	<path class="st3" d="M0.7,31.5c3-2.5,6.1-4.7,9.3-6.8"/>
	<path class="st3" d="M0.2,40.5C3,38.2,5.9,36,8.9,34"/>
	<path class="st3" d="M0.4,48.9C3,47,5.6,45.1,8.3,43.4"/>
	<path class="st3" d="M1,58.5c2.4-2.6,5.2-4.8,8.3-6.6"/>
	<path class="st3" d="M7,64.1c2.6-2.3,5.1-4.2,8-6.1"/>
	<path class="st3" d="M18.9,65.5c2-2.3,3.7-4.1,6.1-6"/>
	<path class="st3" d="M30.9,66.3c2.1-2.3,3.5-3.6,5.9-5.5"/>
	<path class="st3" d="M42.6,66.9c2.3-2.3,4.9-4.4,7.6-6.3"/>
	<path class="st3" d="M53.8,67.3c2.3-2.4,4.7-4.6,7.3-6.6"/>
	<path class="st3" d="M64.5,67.5c2.2-2.4,4.5-4.7,6.9-6.8"/>
	<path class="st3" d="M74.7,67.8c0.2-0.5,0.6-0.9,0.9-1.3c1.8-2,3.6-4,5.4-5.9"/>
	<path class="st3" d="M83.8,67.7c2.1-2.4,4.3-4.7,6.4-7.1"/>
	<path class="st3" d="M93.5,68.1c2.4-2.6,4.9-5.2,7.4-7.6"/>
	<path class="st3" d="M103,68.1c-0.2-0.2,0-0.5,0.1-0.7c2.2-2.3,4.4-4.6,6.6-6.9"/>
	<path class="st3" d="M113.1,68.5c0.7-1,1.6-1.8,2.5-2.7c1.9-1.8,3.6-3.7,5.1-5.7"/>
	<path class="st3" d="M124.4,68.2c2.4-2.6,4.7-5.3,6.8-8.2"/>
	<path class="st3" d="M135.9,68.2c2.4-2.6,5.1-5.8,7.2-8.7"/>
	<path class="st3" d="M146.5,68.3c2.7-2.8,4.4-6.3,7.2-9.1"/>
	<path class="st3" d="M156.7,68.4c1.9-2.8,4.8-6.5,6.5-9.4"/>
	<path class="st3" d="M165.5,68.2c2.2-2.8,4.5-6.8,6.8-9.6"/>
	<path class="st3" d="M175.3,68.6c0.4-0.7,1.3-1.8,1.7-2.4c1.7-2.2,4.4-5.6,6-7.8"/>
	<path class="st3" d="M183.6,68.6c2.3-3.1,6.5-8.1,9.1-10.9"/>
	<path class="st3" d="M192.3,68.6c0.6-0.9,1.6-2.1,2.2-2.9c1.6-2.2,4.4-5.8,6.1-8l-1.1,1.4"/>
	<path class="st3" d="M200.6,68.6c1.9-3,6.1-8.3,8.2-11.2"/>
	<path class="st3" d="M210,68.2c2.3-3.2,5.7-7.6,8.2-10.7"/>
	<path class="st3" d="M218.2,68.6c2-3.1,5.8-8.8,7.8-11.9"/>
	<path class="st3" d="M228.3,68.5c1.9-3.2,5.2-8.9,7-12.1"/>
	<path class="st3" d="M238.5,68.1c2.3-3.3,6.4-9.2,8.7-12.5"/>
	<g>
		<path d="M75.6,33.6c0,0-0.4,0.5-1.2,1.5c-1,1.3-2.2,2.1-3.6,2.4c-0.4,0.1-0.9,0.2-1.3,0.2c-0.6,0-1.2-0.1-1.7-0.4
			c-0.4-0.2-0.7-0.4-1-0.8c-0.3-0.4-0.5-0.7-0.6-1.1c0-0.1,0-0.2,0-0.3c0-0.2,0.1-0.5,0.2-0.7c0.1-0.2,0.3-0.3,0.6-0.4
			c0.1,0,0.2,0,0.3,0c0.2,0,0.5,0.1,0.7,0.2s0.4,0.4,0.4,0.6c0,0,0,0.1,0,0.2l0.1,0.1l0.1,0.1l0.3,0.1c0.1,0,0.2,0.1,0.4,0.1h0.4h0
			h0.1c0,0,0.1,0,0.2,0H70c0.4-0.1,0.7-0.2,1-0.3l-0.3,0.1c0.4-0.1,0.7-0.3,1.1-0.6l-0.1,0.1c0.4-0.3,0.7-0.7,1-1l-0.1,0.1
			c0.2-0.3,0.4-0.6,0.5-1L73,33.2c0.2-0.5,0.3-0.9,0.3-1.1v0.1c0-0.1,0-0.2,0-0.4c0-0.2,0-0.3,0-0.3v0.1c-0.1-0.5-0.2-0.9-0.3-1.2
			l0.1,0.1c-0.2-0.6-0.6-1.1-0.9-1.5c0,0,0,0,0,0c-0.3-0.4-0.8-1-1.6-1.7l-1.5-1.5c0,0-0.3-0.3-0.7-0.8c-0.4-0.5-0.7-0.9-0.8-1.3
			c0-0.2-0.1-0.4-0.1-0.5c0-0.4,0.1-0.8,0.3-1.2c0.2-0.4,0.5-0.7,0.9-0.9c0.5-0.3,1-0.5,1.7-0.5c0.4,0,0.7,0,1,0.1
			c0.2,0,0.4,0.2,0.6,0.4c0.2,0.2,0.2,0.5,0.2,0.7c0,0.1,0,0.2,0,0.3c0,0.1-0.1,0.3-0.2,0.4s-0.2,0.2-0.3,0.3
			c-0.2,0.1-0.4,0.2-0.6,0.2c-0.1,0-0.2,0-0.3,0h0c-0.1,0-0.2,0-0.4,0c0,0,0,0,0.1,0c0,0-0.1,0-0.1,0h-0.2l0,0l0,0h0L70,22.9
			l0.1-0.1h0.1c-0.1,0-0.1,0-0.2,0.1h0l-0.1,0.1v0l0.2,0.3l-0.2-0.2c0.4,0.5,1.1,1.2,2,2.1c0.7,0.7,1.2,1.2,1.6,1.6
			c1.5,1.6,2.2,3.2,2.2,5C75.6,33,75.6,33.6,75.6,33.6z M68.6,35L68.6,35L68.6,35z M68.9,35.3C68.8,35.3,68.8,35.2,68.9,35.3
			C68.8,35.2,68.8,35.3,68.9,35.3z M69.2,35.4h0.1H69.2c-0.1,0-0.1-0.1-0.2-0.1C69,35.4,69.1,35.4,69.2,35.4z M69.8,23.2L69.8,23.2
			L69.8,23.2L69.8,23.2z M69.9,35.5L69.9,35.5C69.8,35.4,69.9,35.4,69.9,35.5C69.9,35.4,69.9,35.4,69.9,35.5z M70.1,22.9L70.1,22.9
			L70.1,22.9z M70.3,22.9L70.3,22.9L70.3,22.9L70.3,22.9z M72.9,30.2c0,0.1,0.1,0.1,0.1,0.2L72.9,30.2z"/>
		<path d="M84.7,35.9c0,0,0.1,0.1,0.2,0.3s0.2,0.5,0.2,0.7c0,0.1,0,0.2,0,0.3c-0.1,0.3-0.2,0.5-0.5,0.7c-0.2,0.1-0.3,0.1-0.6,0.1
			c-0.2,0-0.3,0-0.3,0c-1.1-0.2-2.1-0.5-3-0.8c-0.9-0.4-1.6-0.9-2.2-1.6c-0.7-0.7-1.1-1.5-1.2-2.3c0-0.2,0-0.4,0-0.7
			c0-0.3,0-0.6,0-0.7c0.1-0.4,0.2-0.8,0.4-1.2c0.3-0.7,0.8-1.3,1.6-1.8c0.7-0.5,1.5-0.7,2.2-0.7c1,0,1.8,0.2,2.5,0.7
			c1,0.7,1.6,1.5,1.6,2.4c0,0.4-0.1,0.7-0.3,1s-0.5,0.5-0.9,0.6c-0.3,0.1-0.6,0.1-0.9,0.1c-0.3,0-0.5,0-0.6,0c-0.6,0-1.5,0-2.8,0
			c-0.2,0-0.4,0-0.5-0.1c0,0.2,0.1,0.3,0.1,0.4c0.1,0.2,0.2,0.5,0.3,0.6l-0.1-0.1l0.1,0.1l0.1,0.2c0,0,0-0.1-0.1-0.1l0.5,0.5
			c0.3,0.2,0.7,0.5,1.3,0.8c0.7,0.2,1.5,0.4,2.5,0.6C84.5,35.9,84.7,35.9,84.7,35.9z M79.5,32.4c0,0,0-0.1,0-0.2
			C79.5,32.3,79.5,32.3,79.5,32.4L79.5,32.4z M79.5,32.7C79.5,32.7,79.5,32.8,79.5,32.7C79.5,32.8,79.5,32.7,79.5,32.7L79.5,32.7z
			 M79.6,31.8L79.6,31.8L79.6,31.8L79.6,31.8z M81.4,30.5c-0.2,0-0.3,0-0.4,0L81.4,30.5l-0.6,0.1l-0.4,0.2H82c0.2,0,0.4,0,0.6,0
			l-0.2-0.1l0.1,0l-0.1,0l-0.2-0.1l0.1,0.1c-0.3-0.1-0.5-0.1-0.6-0.1C81.7,30.5,81.6,30.5,81.4,30.5z M80.7,30.6
			C80.7,30.6,80.7,30.6,80.7,30.6C80.7,30.6,80.7,30.6,80.7,30.6C80.7,30.6,80.8,30.6,80.7,30.6C80.8,30.6,80.7,30.6,80.7,30.6z
			 M82.4,30.7L82.4,30.7L82.4,30.7L82.4,30.7z M83.3,31.2L83.3,31.2L83.3,31.2L83.3,31.2z"/>
		<path d="M96.3,35.9c0,0.2-0.1,0.5-0.2,0.7c-0.2,0.2-0.4,0.4-0.6,0.4c0,0-0.1,0-0.2,0c-0.2,0-0.4-0.1-0.7-0.2
			c-0.2-0.1-0.4-0.4-0.5-0.7c-0.3-0.8-0.5-1.6-0.7-2.2c-0.4-1.4-0.6-2.9-0.7-4.4c-0.1-0.7-0.1-1.4-0.1-2.1c0-0.3,0-0.5,0-0.7
			c-0.5,0.3-0.8,0.5-0.9,0.6l0.1-0.1c-0.9,0.7-1.6,1.5-2.3,2.3V31c0,2,0,4-0.1,5.9c0,0.3-0.1,0.6-0.4,0.8c-0.2,0.2-0.5,0.3-0.8,0.3
			c-0.3,0-0.5-0.1-0.8-0.3c-0.2-0.2-0.3-0.5-0.3-0.8c0-1.1,0.1-2,0.1-2.5c0-2,0.1-3.5,0.1-4.5c0-1,0-2.5-0.1-4.5
			c0-0.3,0.1-0.6,0.3-0.8c0.2-0.2,0.5-0.3,0.8-0.3c0.3,0,0.6,0.1,0.8,0.3c0.2,0.2,0.3,0.5,0.3,0.8l0,1l0.1-0.1
			c0.9-0.7,1.6-1.2,2.2-1.6c0.6-0.4,1.2-0.6,1.6-0.7c0.4,0,0.8,0.2,1.1,0.5c0.2,0.3,0.4,0.7,0.4,1.1v0.2l0,1c0,0.3,0,0.8,0,1.4
			c0,1,0.1,2,0.2,2.8L95,30.7c0.2,1.6,0.6,3.2,1.2,5C96.3,35.7,96.3,35.8,96.3,35.9z"/>
		<path d="M106.7,36.5c0,0.3-0.1,0.5-0.2,0.7c-0.1,0.2-0.3,0.3-0.6,0.4c0,0-0.1,0-0.2,0c-0.2,0-0.5-0.1-0.6-0.2
			c-0.3-0.2-0.5-0.4-0.5-0.7c-0.2-1.1-0.4-2-0.4-2.6l-0.1-0.8l-0.4,1.2c-0.8,2.3-1.7,4.3-2.7,5.9c-0.1,0.2-0.3,0.3-0.4,0.4
			c-0.2,0.1-0.4,0.1-0.6,0.1c-0.1,0-0.2,0-0.3,0c-0.6-0.1-1.1-0.6-1.4-1.4c-0.1-0.3-0.2-0.8-0.2-1.4c0-0.4,0-0.9,0-1.6
			c0-1.5,0.2-2.8,0.6-3.7c0.2-0.5,0.4-1,0.6-1.3c0.3-0.4,0.7-0.8,1.2-1.1c0.5-0.4,1.1-0.6,1.7-0.6c0.3,0,0.5,0,0.6,0.1
			c0.3-1.1,0.7-3,1.2-5.5c0-0.2,0.2-0.4,0.4-0.6c0.2-0.2,0.5-0.2,0.7-0.2c0.3,0,0.6,0.1,0.8,0.3c0.1,0.1,0.2,0.2,0.2,0.4
			c0.1,0.2,0.1,0.3,0.1,0.4c-0.1,0.7-0.1,1.3-0.1,2c0,0.1,0,0.3,0,0.5c0,0.2,0,0.4,0,0.7c0,1.9,0.1,3.9,0.4,5.8l-0.1-0.3
			c0.1,0.6,0.2,1.5,0.5,2.8C106.7,36.3,106.7,36.4,106.7,36.5z M101.5,33.6l0.5-1.4h-0.1l-0.2,0c-0.1,0.1-0.2,0.1-0.2,0.1l0,0
			l-0.1,0l-0.2,0.1l0.1-0.1c-0.2,0.2-0.2,0.3-0.3,0.3c-0.1,0.1-0.3,0.4-0.4,0.7c-0.2,0.6-0.4,1.2-0.5,1.8l0.1-0.3
			c-0.1,0.7-0.1,1.3-0.1,2v0.1l0.5-1.1l-0.1,0.3C101,35,101.3,34.2,101.5,33.6z M100.6,33.6l0.1-0.2
			C100.7,33.4,100.7,33.5,100.6,33.6z M101.5,32.3L101.5,32.3L101.5,32.3L101.5,32.3z M101.8,32.1L101.8,32.1h0.1H101.8z
			 M102.1,32.2C102.1,32.2,102.1,32.2,102.1,32.2C102.1,32.2,102.1,32.2,102.1,32.2C102,32.2,102.1,32.2,102.1,32.2z"/>
		<path d="M130.1,36.7c0,0,0,0.1,0,0.2c0,0.3-0.1,0.5-0.2,0.7c-0.2,0.2-0.4,0.3-0.6,0.4c-0.1,0-0.2,0-0.3,0c-0.2,0-0.5-0.1-0.7-0.2
			s-0.4-0.4-0.4-0.6c-0.2-0.8-0.4-1.8-0.6-2.9c-0.4-2.2-0.6-4.2-0.7-5.9l-0.3,0.7l0-0.1c-0.8,1.9-1.6,3.9-2.2,6
			c-0.1,0.2-0.2,0.4-0.4,0.6c-0.2,0.2-0.4,0.2-0.6,0.3c-0.2,0-0.4,0-0.6-0.1c-0.2-0.1-0.4-0.2-0.5-0.4c-0.3-0.5-0.7-1.3-1.2-2.3
			c-0.6-1.3-1.1-2.5-1.6-3.9c-0.2,2.3-0.3,4.5-0.3,6.6c0,0.3-0.1,0.6-0.4,0.8c-0.2,0.2-0.5,0.3-0.9,0.3c-0.3,0-0.5-0.1-0.7-0.3
			c-0.2-0.2-0.3-0.5-0.3-0.8c0-1.2,0-2.1,0-2.7c0.1-3.3,0.5-6.5,1-9.6c0-0.1,0.1-0.3,0.2-0.4c0.1-0.1,0.2-0.2,0.3-0.3
			c0.1-0.1,0.3-0.1,0.6-0.2c0.2,0,0.5,0.1,0.7,0.2c0.2,0.2,0.4,0.4,0.4,0.6c0.5,2.4,1.3,4.8,2.3,7.1c0,0,0,0,0,0
			c0.1,0.3,0.4,0.8,0.7,1.4c1.1-2.9,2.3-5.9,3.8-8.8c0.1-0.2,0.2-0.3,0.4-0.4c0.2-0.1,0.4-0.1,0.6-0.1c0.1,0,0.2,0,0.3,0
			c0.2,0,0.4,0.2,0.6,0.4c0.2,0.2,0.3,0.5,0.2,0.7l0,1.9c0,2.4,0.2,4.5,0.5,6.5l0-0.3C129.3,33.4,129.7,35.1,130.1,36.7
			C130,36.7,130.1,36.7,130.1,36.7z M119.4,26.8c0-0.1,0-0.1,0-0.2L119.4,26.8L119.4,26.8z M126.4,28.8
			C126.4,28.8,126.4,28.8,126.4,28.8c0,0.1-0.1,0.2-0.1,0.2L126.4,28.8z"/>
		<path d="M139.1,35.9c0,0,0.1,0.1,0.2,0.3c0.2,0.2,0.2,0.5,0.2,0.7c0,0.1,0,0.2,0,0.3c-0.1,0.3-0.2,0.5-0.5,0.7
			c-0.2,0.1-0.3,0.1-0.6,0.1c-0.2,0-0.3,0-0.3,0c-1.1-0.2-2.1-0.5-3-0.8c-0.9-0.4-1.6-0.9-2.2-1.6c-0.7-0.7-1.1-1.5-1.2-2.3
			c0-0.2,0-0.4,0-0.7c0-0.3,0-0.6,0-0.7c0.1-0.4,0.2-0.8,0.4-1.2c0.3-0.7,0.8-1.3,1.6-1.8c0.7-0.5,1.5-0.7,2.2-0.7
			c1,0,1.8,0.2,2.5,0.7c1,0.7,1.6,1.5,1.6,2.4c0,0.4-0.1,0.7-0.3,1s-0.5,0.5-0.9,0.6c-0.3,0.1-0.6,0.1-0.9,0.1c-0.3,0-0.5,0-0.6,0
			c-0.6,0-1.5,0-2.8,0c-0.2,0-0.4,0-0.5-0.1c0,0.2,0.1,0.3,0.1,0.4c0.1,0.2,0.2,0.5,0.3,0.6l-0.1-0.1l0.1,0.1l0.1,0.2
			c0,0,0-0.1-0.1-0.1l0.5,0.5c0.3,0.2,0.7,0.5,1.3,0.8c0.7,0.2,1.5,0.4,2.5,0.6C139,35.9,139.1,35.9,139.1,35.9z M134,32.4
			c0,0,0-0.1,0-0.2C134,32.3,134,32.3,134,32.4L134,32.4z M134,32.7C134,32.7,134,32.8,134,32.7C134,32.8,134,32.7,134,32.7
			L134,32.7z M134.1,31.8L134.1,31.8L134.1,31.8L134.1,31.8z M135.9,30.5c-0.2,0-0.3,0-0.4,0L135.9,30.5l-0.6,0.1l-0.4,0.2h1.5
			c0.2,0,0.4,0,0.6,0l-0.2-0.1l0.1,0l-0.1,0l-0.2-0.1l0.1,0.1c-0.3-0.1-0.5-0.1-0.6-0.1C136.2,30.5,136.1,30.5,135.9,30.5z
			 M135.2,30.6C135.2,30.6,135.1,30.6,135.2,30.6C135.1,30.6,135.2,30.6,135.2,30.6S135.3,30.6,135.2,30.6
			C135.3,30.6,135.2,30.6,135.2,30.6z M136.9,30.7L136.9,30.7L136.9,30.7L136.9,30.7z M137.8,31.2L137.8,31.2L137.8,31.2L137.8,31.2
			z"/>
		<path d="M150.7,34.3c0,0.3,0,0.6-0.1,0.8c-0.4,1.2-1.3,2-2.8,2.6c-0.6,0.2-1.2,0.4-1.9,0.4c-0.6,0-1.1-0.1-1.6-0.3
			c-0.6-0.2-1.2-0.6-1.6-1c-0.4-0.4-0.7-0.9-1-1.6c0-0.1,0-0.2,0-0.3c0-0.2,0-0.4,0.1-0.6c0.2-0.3,0.4-0.4,0.7-0.5
			c0.1,0,0.2,0,0.3,0c0.2,0,0.4,0,0.6,0.1c0.2,0.1,0.4,0.4,0.5,0.7l-0.1-0.2c0.2,0.3,0.3,0.5,0.3,0.6l0.3,0.3
			c0.2,0.1,0.4,0.3,0.7,0.4l-0.3-0.1c0.3,0.1,0.5,0.2,0.7,0.2l0.4,0l0.3,0c0.3,0,0.6-0.1,0.8-0.2c0.2-0.1,0.4-0.2,0.7-0.4l0,0
			c0.1,0,0.2-0.1,0.2-0.1l-0.1,0c0,0,0.1-0.1,0.1-0.1c0.1-0.1,0.1-0.1,0.2-0.1l0.2-0.3l0.1-0.2v-0.1l0-0.1l0,0
			c-0.3-0.3-0.7-0.7-1.3-1.1l0.2,0.2c-0.3-0.3-0.8-0.6-1.6-1.1c-0.3-0.2-0.5-0.4-0.7-0.5c-0.4-0.3-0.7-0.5-0.8-0.6
			c-0.3-0.4-0.5-0.8-0.5-1.2c0-0.4,0.1-0.8,0.4-1.2c0.4-0.6,1-1,1.7-1.2c0.3-0.1,0.7-0.2,1.1-0.2c0.3,0,0.6,0,0.8,0.1
			c0.2,0,0.4,0.2,0.6,0.4c0.2,0.2,0.2,0.5,0.2,0.7c0,0.1,0,0.2,0,0.3c0,0.1-0.1,0.3-0.2,0.4s-0.2,0.2-0.3,0.3
			c-0.2,0.1-0.3,0.1-0.5,0.1c-0.2,0-0.3,0-0.3,0h-0.2c0.1,0,0.2,0,0.3,0c-0.1,0-0.2,0-0.3,0c-0.1,0-0.2,0-0.3,0c0,0-0.1,0-0.2,0.1
			l-0.2,0.1c0.1,0,0.1,0,0.1,0.1s0.1,0,0.1,0.1c0.2,0.1,0.3,0.2,0.5,0.3c0.1,0.1,0.3,0.2,0.4,0.2l1.7,1.3c0.6,0.5,1,0.9,1.2,1.3
			C150.5,33.4,150.7,33.8,150.7,34.3z M146,29.8L146,29.8L146,29.8z M146,29.9L146,29.9L146,29.9L146,29.9z M146.7,29.5
			c0.1,0,0.2,0,0.2,0L146.7,29.5z M147.7,35.2L147.7,35.2L147.7,35.2L147.7,35.2z M148.3,34.6C148.2,34.6,148.2,34.7,148.3,34.6
			C148.2,34.7,148.2,34.6,148.3,34.6z M148.3,34.6C148.3,34.6,148.3,34.5,148.3,34.6C148.3,34.5,148.3,34.6,148.3,34.6z M148.4,34.3
			C148.4,34.3,148.4,34.3,148.4,34.3C148.4,34.3,148.4,34.3,148.4,34.3L148.4,34.3L148.4,34.3L148.4,34.3L148.4,34.3z"/>
		<path d="M161.3,34.3c0,0.3,0,0.6-0.1,0.8c-0.4,1.2-1.3,2-2.8,2.6c-0.6,0.2-1.2,0.4-1.9,0.4c-0.6,0-1.1-0.1-1.6-0.3
			c-0.6-0.2-1.2-0.6-1.6-1c-0.4-0.4-0.7-0.9-1-1.6c0-0.1,0-0.2,0-0.3c0-0.2,0-0.4,0.1-0.6c0.2-0.3,0.4-0.4,0.7-0.5
			c0.1,0,0.2,0,0.3,0c0.2,0,0.4,0,0.6,0.1c0.2,0.1,0.4,0.4,0.5,0.7l-0.1-0.2c0.2,0.3,0.3,0.5,0.3,0.6l0.3,0.3
			c0.2,0.1,0.4,0.3,0.7,0.4l-0.3-0.1c0.3,0.1,0.5,0.2,0.7,0.2l0.4,0l0.3,0c0.3,0,0.6-0.1,0.8-0.2c0.2-0.1,0.4-0.2,0.7-0.4l0,0
			c0.1,0,0.2-0.1,0.2-0.1l-0.1,0c0,0,0.1-0.1,0.1-0.1c0.1-0.1,0.1-0.1,0.2-0.1l0.2-0.3l0.1-0.2v-0.1l0-0.1l0,0
			c-0.3-0.3-0.7-0.7-1.3-1.1l0.2,0.2c-0.3-0.3-0.8-0.6-1.6-1.1c-0.3-0.2-0.5-0.4-0.7-0.5c-0.4-0.3-0.7-0.5-0.8-0.6
			c-0.3-0.4-0.5-0.8-0.5-1.2c0-0.4,0.1-0.8,0.4-1.2c0.4-0.6,1-1,1.7-1.2c0.3-0.1,0.7-0.2,1.1-0.2c0.3,0,0.6,0,0.8,0.1
			c0.2,0,0.4,0.2,0.6,0.4c0.2,0.2,0.2,0.5,0.2,0.7c0,0.1,0,0.2,0,0.3c0,0.1-0.1,0.3-0.2,0.4s-0.2,0.2-0.3,0.3
			c-0.2,0.1-0.3,0.1-0.5,0.1c-0.2,0-0.3,0-0.3,0h-0.2c0.1,0,0.2,0,0.3,0c-0.1,0-0.2,0-0.3,0c-0.1,0-0.2,0-0.3,0c0,0-0.1,0-0.2,0.1
			l-0.2,0.1c0.1,0,0.1,0,0.1,0.1s0.1,0,0.1,0.1c0.2,0.1,0.3,0.2,0.5,0.3c0.1,0.1,0.3,0.2,0.4,0.2l1.7,1.3c0.6,0.5,1,0.9,1.2,1.3
			C161.2,33.4,161.3,33.8,161.3,34.3z M156.7,29.8L156.7,29.8L156.7,29.8z M156.7,29.9L156.7,29.9L156.7,29.9L156.7,29.9z
			 M157.4,29.5c0.1,0,0.2,0,0.2,0L157.4,29.5z M158.4,35.2L158.4,35.2L158.4,35.2L158.4,35.2z M158.9,34.6
			C158.9,34.6,158.9,34.7,158.9,34.6C158.9,34.7,158.9,34.6,158.9,34.6z M158.9,34.6C158.9,34.6,158.9,34.5,158.9,34.6
			C158.9,34.5,158.9,34.6,158.9,34.6z M159.1,34.3C159.1,34.3,159.1,34.3,159.1,34.3C159.1,34.3,159.1,34.3,159.1,34.3L159.1,34.3
			L159.1,34.3L159.1,34.3L159.1,34.3z"/>
		<path d="M175.4,36.8c0,0.2,0,0.4-0.1,0.6c-0.1,0.3-0.4,0.4-0.7,0.5c-0.1,0-0.2,0-0.3,0c-0.2,0-0.4,0-0.5-0.1
			c-0.4-0.3-0.7-0.6-0.9-1c-0.2-0.4-0.3-0.7-0.4-1c-0.1-0.4-0.2-1-0.3-1.8c0-0.3-0.1-0.7-0.1-1.3c-0.3,0.5-0.7,1-1.2,1.6
			c-0.8,0.9-1.4,1.5-2,2c-0.6,0.5-1,0.8-1.3,1.1l-0.6,0.4c-0.5,0.2-0.9,0.4-1.4,0.4c-0.6,0-1.2-0.3-1.7-0.8
			c-0.5-0.5-0.7-1.2-0.8-1.9c0-0.4,0-1,0.2-1.7c0.2-0.5,0.3-1,0.5-1.4c0.4-0.8,0.8-1.6,1.5-2.3c0.6-0.7,1.4-1.3,2.1-1.8
			c1.5-0.9,3-1.4,4.6-1.4c0.3,0,0.5,0,0.7,0c0.1,0,0.2,0,0.4,0.1h0.3c0.2,0,0.4,0.1,0.7,0.3c0.1,0.1,0.2,0.2,0.2,0.4
			c0.1,0.2,0.1,0.3,0.1,0.4c-0.1,0.8-0.1,1.7-0.1,2.7c0,1.1,0.1,2.3,0.2,3.4v0c0.1,0.6,0.2,1.1,0.3,1.5l0.1,0.2l0.1,0.1
			c0.2,0.2,0.4,0.5,0.5,0.7C175.4,36.6,175.4,36.7,175.4,36.8z M170.6,30.7c0,0,0.3-0.5,0.8-1.5l-0.4,0l0.3-0.1
			c-0.6,0.1-1.2,0.3-1.8,0.5l0.1-0.1c-0.6,0.3-1.2,0.6-1.7,1c0,0,0,0,0,0c-0.6,0.4-1.1,0.9-1.5,1.5l0,0c-0.4,0.5-0.7,1-0.9,1.5
			l0-0.1c-0.2,0.5-0.3,1-0.4,1.4v-0.1c0,0.1,0,0.2,0,0.2V35v0v0.4l0.1,0.4l0.1,0.1l0,0c0.3-0.1,0.6-0.4,1.1-0.7l-0.2,0.2
			c1.3-1,2.4-2.1,3.3-3.3l-0.1,0.1C170.3,31.1,170.6,30.7,170.6,30.7z M165.3,34.8l0,0.1L165.3,34.8
			C165.3,34.9,165.3,34.8,165.3,34.8z M165.2,35.5L165.2,35.5l0.1,0.2L165.2,35.5L165.2,35.5L165.2,35.5L165.2,35.5z M165.4,35.7
			L165.4,35.7L165.4,35.7z M169.3,29.7c0.1,0,0.2-0.1,0.2-0.1L169.3,29.7z M174.3,34.4c0-0.1,0-0.2,0-0.2
			C174.3,34.2,174.3,34.3,174.3,34.4z"/>
		<path d="M185.9,35.6L185.9,35.6c0.1,0.5,0.1,1.5,0.1,2.7c0,1.2,0,2.2,0,2.8l-0.1,4.5c0,0.2,0,0.5,0,1c0,0.5-0.1,0.9-0.1,1.3
			c-0.1,0.4-0.3,0.8-0.5,1.1s-0.6,0.6-0.9,0.8c-0.5,0.2-1.2,0.5-2.1,0.6c-0.2,0-0.4,0.1-0.8,0.1c-0.4,0-0.7,0.1-1,0.1l-0.5,0
			c-0.5-0.1-1-0.2-1.4-0.4c-0.4-0.3-0.7-0.6-0.9-1c-0.3-0.5-0.4-1.2-0.4-1.8c0-0.8,0.1-1.5,0.4-2.2s0.7-1.6,1.2-2.6
			c0.6-1.1,1.3-2.3,2.1-3.6c1-1.5,2-2.9,2.9-4.2l0-0.2c-0.5,0.3-1,0.5-1.4,0.5c-0.7,0-1.4-0.3-1.9-1c-0.3-0.4-0.4-0.9-0.5-1.6
			c0-0.4,0-0.8,0.1-1.5c0.1-0.3,0.2-0.8,0.4-1.4c0.6-1.5,1.4-2.4,2.3-2.8c0.5-0.2,1-0.4,1.5-0.4c0.9,0,1.6,0.3,2.1,0.8
			c0.2,0.2,0.3,0.5,0.3,0.8c0,0.3-0.1,0.6-0.3,0.9c-0.2,0.2-0.5,0.3-0.8,0.3c-0.3,0-0.6-0.1-0.9-0.3l0,0l-0.1,0l-0.3-0.1l0.1,0
			l-0.1,0h-0.1h0.1h-0.1l-0.4,0.1l-0.4,0.2l0.1-0.1l-0.1,0.1l-0.1,0.1l0.1,0l-0.3,0.2l0,0l0,0.1c-0.1,0-0.1,0.1-0.2,0.2l0.1-0.1
			c-0.2,0.3-0.3,0.6-0.5,1l0-0.1c-0.2,0.6-0.4,1.1-0.5,1.6v-0.1c0,0.1,0,0.2,0,0.2V32v0v0.5c0,0.1,0.1,0.2,0.1,0.3l0,0.1
			c0,0,0.1,0,0.1,0l0,0c0,0,0.1,0,0.1-0.1l-0.1,0.1l0.2-0.2c0.2-0.2,0.3-0.5,0.4-0.8l-0.1,0.2c0-0.1,0.1-0.3,0.3-0.7
			c0.1-0.4,0.3-0.7,0.5-0.9c0.2-0.3,0.4-0.5,0.7-0.5c0.1,0,0.2-0.1,0.3-0.1c0.1,0,0.2,0,0.3,0.1c0.2,0,0.4,0.2,0.6,0.4
			c0.2,0.2,0.2,0.4,0.3,0.7c0,0.5,0,0.9,0,1.1V32c0.2-0.2,0.4-0.3,0.8-0.3h0.1c0.3,0,0.5,0.1,0.7,0.3c0.2,0.2,0.3,0.5,0.3,0.8
			c0,0.3-0.1,0.5-0.3,0.8l-1.5,1.8l0-0.1L185.9,35.6L185.9,35.6z M183.6,43.9c0.1-1.7,0.1-3.5,0.1-5.2c-0.7,1-1.3,1.9-1.7,2.7
			c-0.4,0.7-0.8,1.4-1.2,2c-0.5,1-0.9,1.6-1,2c-0.2,0.4-0.3,0.9-0.4,1.5v-0.1v0.2c0,0,0,0.1,0,0.1v-0.1c0,0.3,0,0.6,0,0.7
			c0,0.1,0,0.3,0.1,0.4l0,0.1l0,0.1l0.1,0l0.2,0h-0.2c0.1,0,0.2,0,0.2,0h0.1h0c0.3,0,0.8,0,1.5-0.1h0h0.1c0,0,0.1,0,0.2,0h-0.1
			c0.5-0.1,0.9-0.2,1.4-0.3l0.3-0.2c0,0,0.1-0.1,0.1-0.1c0-0.1,0.1-0.3,0.1-0.5l0.1-1.4L183.6,43.9z M179.3,46.8
			C179.3,46.9,179.3,46.9,179.3,46.8C179.3,46.9,179.3,46.9,179.3,46.8L179.3,46.8z M179.8,48.3c0.1,0,0.1,0,0.1,0L179.8,48.3
			C179.9,48.3,179.8,48.3,179.8,48.3z M181.4,48.3c0,0,0.1,0,0.2,0C181.5,48.2,181.4,48.2,181.4,48.3L181.4,48.3z M182.1,31.9
			C182.1,31.9,182.1,31.8,182.1,31.9C182.1,31.9,182.1,31.9,182.1,31.9L182.1,31.9z M182.1,32.8C182.1,32.8,182.2,32.8,182.1,32.8
			L182.1,32.8L182.1,32.8z M182.3,32.7C182.3,32.7,182.2,32.7,182.3,32.7L182.3,32.7L182.3,32.7z M182.3,32.7L182.3,32.7L182.3,32.7
			L182.3,32.7z M182.3,32.7L182.3,32.7L182.3,32.7z M183.1,29.3L183.1,29.3C183.1,29.3,183.1,29.3,183.1,29.3L183.1,29.3z
			 M183.2,47.8L183.2,47.8C183.2,47.8,183.2,47.8,183.2,47.8z M183.4,29L183.4,29L183.4,29L183.4,29z M184,28.7c0.1,0,0.1,0,0.2,0
			C184.1,28.7,184.1,28.7,184,28.7z M184.4,28.7L184.4,28.7L184.4,28.7z M184.6,28.7L184.6,28.7L184.6,28.7L184.6,28.7z M186,35.4
			C186,35.4,186,35.5,186,35.4L186,35.4z"/>
		<path d="M196.9,35.9c0,0,0.1,0.1,0.2,0.3c0.2,0.2,0.2,0.5,0.2,0.7c0,0.1,0,0.2,0,0.3c-0.1,0.3-0.2,0.5-0.5,0.7
			c-0.2,0.1-0.3,0.1-0.6,0.1c-0.2,0-0.3,0-0.3,0c-1.1-0.2-2.1-0.5-3-0.8c-0.9-0.4-1.6-0.9-2.2-1.6c-0.7-0.7-1.1-1.5-1.2-2.3
			c0-0.2,0-0.4,0-0.7c0-0.3,0-0.6,0-0.7c0.1-0.4,0.2-0.8,0.4-1.2c0.3-0.7,0.8-1.3,1.6-1.8c0.7-0.5,1.5-0.7,2.2-0.7
			c1,0,1.8,0.2,2.5,0.7c1,0.7,1.6,1.5,1.6,2.4c0,0.4-0.1,0.7-0.3,1s-0.5,0.5-0.9,0.6c-0.3,0.1-0.6,0.1-0.9,0.1c-0.3,0-0.5,0-0.6,0
			c-0.6,0-1.5,0-2.8,0c-0.2,0-0.4,0-0.5-0.1c0,0.2,0.1,0.3,0.1,0.4c0.1,0.2,0.2,0.5,0.3,0.6l-0.1-0.1l0.1,0.1l0.1,0.2
			c0,0,0-0.1-0.1-0.1l0.5,0.5c0.3,0.2,0.7,0.5,1.3,0.8c0.7,0.2,1.5,0.4,2.5,0.6C196.7,35.9,196.9,35.9,196.9,35.9z M191.7,32.4
			c0,0,0-0.1,0-0.2C191.7,32.3,191.7,32.3,191.7,32.4L191.7,32.4z M191.7,32.7C191.7,32.7,191.7,32.8,191.7,32.7
			C191.7,32.8,191.7,32.7,191.7,32.7L191.7,32.7z M191.8,31.8L191.8,31.8L191.8,31.8L191.8,31.8z M193.6,30.5c-0.2,0-0.3,0-0.4,0
			L193.6,30.5l-0.6,0.1l-0.4,0.2h1.5c0.2,0,0.4,0,0.6,0l-0.2-0.1l0.1,0l-0.1,0l-0.2-0.1l0.1,0.1c-0.3-0.1-0.5-0.1-0.6-0.1
			C193.9,30.5,193.8,30.5,193.6,30.5z M192.9,30.6C192.9,30.6,192.8,30.6,192.9,30.6C192.8,30.6,192.9,30.6,192.9,30.6
			S193,30.6,192.9,30.6C193,30.6,192.9,30.6,192.9,30.6z M194.6,30.7L194.6,30.7L194.6,30.7L194.6,30.7z M195.5,31.2L195.5,31.2
			L195.5,31.2L195.5,31.2z"/>
	</g>
</g>
<g id="Слой_21">
</g>
<g id="Слой_20">
</g>
<g id="Слой_19">
</g>
<g id="Слой_22">
</g>
<g id="Слой_25">
</g>
</svg>
