<svg xmlns="http://www.w3.org/2000/svg" viewBox="0 0 261.28 67.43"><defs><style>.cls-1{fill:#fff;}.cls-1,.cls-2{stroke:#201600;stroke-miterlimit:10;}.cls-2{fill:none;}.cls-3{fill:#201600;}</style></defs><title>sendbtn_ru</title><g id="Слой_2" data-name="Слой 2"><g id="Слой_5" data-name="Слой 5"><path class="cls-1" d="M8.48,39.66c0,2.78.44,11.24,1.72,14,1.75,3.75,14.91,3.82,25.15,5.07,16.81,2.05,209.56-2.91,219.09-5.59,2.93-.82,9.55-32.17,4.51-42.74a11.66,11.66,0,0,0-4.71-5.57c-2.24-1.26-5.17-1.73-8-2.06-10.78-1.23-21.78-.9-32.7-.55-14.86.47-100.22.69-108.35-.08C79.59-.34,53.62.51,27.83,1.37c-4.24.14-11.35.06-14.05,2.79C11.46,6.48,8.59,31.34,8.48,39.66Z"/><path class="cls-2" d="M13.77,4.16C5.1,6.9,2.7,12.55,2.28,14.46,1.15,19.59,1.06,24.89.73,30.13c-.34,5.49-.5,28.23,1,30.5,3.5,5.15,91.35,5.65,108.67,5.81,58.64.53,115.29.67,125.86.22,4.88-.21,12.91-6.38,18.31-13.19"/><path class="cls-2" d="M11.39,12.61C7.77,15.86,5,18.25,1.24,21.33"/><path class="cls-2" d="M.92,29.77A85.86,85.86,0,0,1,10.25,23"/><path class="cls-2" d="M.38,38.82q4.18-3.46,8.69-6.5"/><path class="cls-2" d="M.55,47.24q3.86-2.9,7.94-5.5"/><path class="cls-2" d="M1.15,56.83A36.43,36.43,0,0,1,9.4,50.21"/><path class="cls-2" d="M7.23,62.4a60.55,60.55,0,0,1,8-6.07"/><path class="cls-2" d="M19.06,63.76a53.56,53.56,0,0,1,6.07-6"/><path class="cls-2" d="M31.05,64.58A46.42,46.42,0,0,1,37,59.06"/><path class="cls-2" d="M42.8,65.24A52,52,0,0,1,50.45,59"/><path class="cls-2" d="M54,65.6A63.13,63.13,0,0,1,61.29,59"/><path class="cls-2" d="M64.71,65.85a83.24,83.24,0,0,1,6.87-6.79"/><path class="cls-2" d="M74.89,66.12a4.44,4.44,0,0,1,.91-1.29l5.38-5.93"/><path class="cls-2" d="M84,66,90.36,59"/><path class="cls-2" d="M93.67,66.36q3.58-3.93,7.45-7.6"/><path class="cls-2" d="M103.16,66.43c-.22-.15,0-.49.14-.69q3.29-3.47,6.61-6.91"/><path class="cls-2" d="M113.24,66.81a17.85,17.85,0,0,1,2.53-2.66,42.64,42.64,0,0,0,5.07-5.73"/><path class="cls-2" d="M124.62,66.55a79.72,79.72,0,0,0,6.76-8.24"/><path class="cls-2" d="M136.07,66.51a88.36,88.36,0,0,0,7.21-8.72"/><path class="cls-2" d="M146.7,66.64c2.73-2.81,4.39-6.34,7.16-9.12"/><path class="cls-2" d="M156.87,66.69c1.86-2.81,4.83-6.51,6.49-9.44"/><path class="cls-2" d="M165.72,66.54c2.23-2.85,4.51-6.78,6.83-9.55"/><path class="cls-2" d="M175.53,66.86a25,25,0,0,1,1.73-2.39c1.65-2.23,4.36-5.59,6-7.82"/><path class="cls-2" d="M183.78,66.93c2.3-3.09,6.46-8.05,9.11-10.85"/><path class="cls-2" d="M192.53,66.93c.55-.86,1.56-2.08,2.17-2.89l6.08-8-1.09,1.4"/><path class="cls-2" d="M200.78,66.93c1.92-3,6.06-8.28,8.22-11.15"/><path class="cls-2" d="M210.19,66.54c2.32-3.19,5.7-7.62,8.16-10.7"/><path class="cls-2" d="M218.35,66.93l7.82-11.85"/><path class="cls-2" d="M228.49,66.77c1.95-3.2,5.22-8.86,7-12.15"/><path class="cls-2" d="M238.64,66.42l8.66-12.51"/><path class="cls-3" d="M37.14,27.49a13.15,13.15,0,0,1-.36,2.88A25.7,25.7,0,0,1,35,35.08a6.59,6.59,0,0,1-2.55,3.15,3.84,3.84,0,0,1-1,.36,6.34,6.34,0,0,1-.66.06,4.55,4.55,0,0,1-.9-.09,10.32,10.32,0,0,1-2.25-.78,4.6,4.6,0,0,1-1.83-1.5,4,4,0,0,1-.6-2.46,14.65,14.65,0,0,1,.3-2.43q.21-1.23.48-2.28a35.48,35.48,0,0,1,3.33-8.58,1.14,1.14,0,0,1,.15-.45,1.06,1.06,0,0,1,.6-.48,4.08,4.08,0,0,1,1.14-.24,4.42,4.42,0,0,1,2.16.53,5.48,5.48,0,0,1,1.8,1.46A8.55,8.55,0,0,1,37,25.54,14.86,14.86,0,0,1,37.14,27.49Zm-2.07.66v-.78A8.07,8.07,0,0,0,35,26.23q-.06-.51-.13-1a3.48,3.48,0,0,0-.29-.9l-.34-.69a3.7,3.7,0,0,0-.46-.75,4.1,4.1,0,0,0-.93-.93l-.68-.36a1.3,1.3,0,0,0-.46-.18l-.18,0,.06,0a2.29,2.29,0,0,0-.42,0l0,0a29.4,29.4,0,0,0-1.53,3.21l.06-.18q-.36.84-.69,1.8A33,33,0,0,0,27.3,33q-.06.6-.06.9a3.58,3.58,0,0,0,.06.54l.09.36.15.3a2.44,2.44,0,0,0,.36.39l-.09,0,.18.12,0,0,0,0q.3.18.9.48L28.77,36c.08,0,.3.13.67.25a6.85,6.85,0,0,0,1.06.29h-.09a.43.43,0,0,1,.18,0h.3l.51-.15-.18.09.21-.12h0a.38.38,0,0,0,.24-.15,3.5,3.5,0,0,0,.63-.6s-.06.07-.06.09a14.71,14.71,0,0,0,1.53-2.94l-.09.24A18.35,18.35,0,0,0,35,28.54Zm-4.56,8.43a.34.34,0,0,1,.15,0H30.6A.13.13,0,0,0,30.51,36.58Zm.93-.12h0l0,0Zm.39-.27s0,0-.09.06ZM35,28.66a.34.34,0,0,0,0,.15A.34.34,0,0,1,35,28.66Z"/><path class="cls-3" d="M52.12,19.31a1,1,0,0,1-.71.29H46.56q0,1.32,0,3.9,0,1.17,0,3.54t0,3.54q0,2.37-.06,7.11a.94.94,0,0,1-.31.74,1.1,1.1,0,0,1-.77.29.93.93,0,0,1-.69-.32,1,1,0,0,1-.3-.71l.06-4,0-7.08q0-2.31-.06-7H39.66a1,1,0,0,1-1-1,.91.91,0,0,1,.29-.74,1,1,0,0,1,.73-.32H51.42a.93.93,0,0,1,.73.33,1.16,1.16,0,0,1,.29.78A.88.88,0,0,1,52.12,19.31Z"/><path class="cls-3" d="M62.35,20.64a.93.93,0,0,1,.32.69q0,.75-.06,2.31-.06,1-.06,1.53-.09,3.33-.09,6.69,0,4.5,0,6.75a.93.93,0,0,1-.33.73,1.15,1.15,0,0,1-.78.29.88.88,0,0,1-.68-.31,1,1,0,0,1-.28-.71q0-1.26,0-3.81,0-4.47,0-6.69l.15-5.7q-.72,0-2.19,0t-2.19,0l-.06,2.13Q56,27.34,56,30.88q0,1.59.06,4.89a1,1,0,0,1-.31.72,1,1,0,0,1-.74.3.87.87,0,0,1-.72-.29,1,1,0,0,1-.3-.74q-.06-2.1-.06-3.15V31.18q0-4.59.24-9.78a1.1,1.1,0,0,1,.33-.72,1,1,0,0,1,.72-.3q2.52-.06,3.75-.06l2.67,0A1,1,0,0,1,62.35,20.64Z"/><path class="cls-3" d="M72.27,21.76v1.14a6.18,6.18,0,0,1-.15,1.47,6.41,6.41,0,0,1-1.58,3,6.65,6.65,0,0,1-2.8,1.81,1,1,0,0,1-.3.06.91.91,0,0,1-.6-.23,1.27,1.27,0,0,1-.39-.55.77.77,0,0,1,0-.24,1,1,0,0,1,.15-.54,1.07,1.07,0,0,1,.6-.48l.24-.09-.09.06a6.29,6.29,0,0,0,1.23-.75l-.06.06a4.91,4.91,0,0,0,.72-.69v0l.18-.18-.12.12a4.35,4.35,0,0,0,.63-1.05l-.06.09a6.06,6.06,0,0,0,.36-1.29,3.66,3.66,0,0,0,0-.54,3.39,3.39,0,0,0,0-.51,6.09,6.09,0,0,0-.36-1.29,4.94,4.94,0,0,0-.36-.66,1.38,1.38,0,0,0-.36-.33l.21.15a.64.64,0,0,0-.27-.18s.06,0,.06,0a1.89,1.89,0,0,0-.48-.15,1.07,1.07,0,0,0-.3,0,1.45,1.45,0,0,0-.33,0h.06a5.38,5.38,0,0,0-1.38.33l.15-.09-.15.09h0a0,0,0,0,0,0,0s-.06.07-.06.09a4.12,4.12,0,0,0-.13.66c0,.24-.06.41-.08.51q-.12,1.11-.12,3.39t0,6.72v6.72a1,1,0,0,1-.32.74,1.1,1.1,0,0,1-.76.28.93.93,0,0,1-.69-.31,1,1,0,0,1-.3-.71V26q0-.81,0-1.23,0-1.68.06-2.49a12.69,12.69,0,0,1,.24-2,2.45,2.45,0,0,1,1.14-1.77,2.34,2.34,0,0,1,.77-.33l.88-.21a6.5,6.5,0,0,1,1.08-.09,4.85,4.85,0,0,1,1,.09,3,3,0,0,1,1.59,1,5.59,5.59,0,0,1,1,1.8Zm-5.85-.48a.24.24,0,0,1,0,.15A.24.24,0,0,0,66.42,21.27Zm.12-.93s0,0,.09-.06Zm.09-.09v0Zm2.58,5.46v0s.06-.07.06-.09A.05.05,0,0,1,69.21,25.72Zm1-3.42a.33.33,0,0,1,0-.15A.33.33,0,0,0,70.2,22.3Zm0,1.32a.33.33,0,0,1,0-.15A.33.33,0,0,0,70.17,23.62Z"/><path class="cls-3" d="M84.43,35.27a1,1,0,0,1-.71.29H82.41q.33,1.41,1.05,4.23a.92.92,0,0,1,0,.27,1,1,0,0,1-.75,1,1,1,0,0,1-.3.06,1,1,0,0,1-.62-.22,1,1,0,0,1-.37-.55q-.78-3.12-1.14-4.68a.13.13,0,0,0,0-.09H75.93a18.24,18.24,0,0,0-.09,1.83,1.05,1.05,0,0,1-.35.74,1.1,1.1,0,0,1-.76.29.93.93,0,0,1-.69-.32.89.89,0,0,1-.27-.71q0-.84.12-2.4a1.28,1.28,0,0,1-.09-.45,1,1,0,0,1,.24-.66l0-.3q.33-2.19,1.29-6.27l.18-.84q.78-3.54,1.05-5.22v.06q.15-1.17.21-2.67a1.16,1.16,0,0,1,.27-.67,1,1,0,0,1,.63-.34h.12a1.9,1.9,0,0,1,.54.12.88.88,0,0,1,.32.27.84.84,0,0,1,.17.36q.3,1.86.87,4.74.9,4.65,1.74,8.37.27,1.2.48,2h1.8a1,1,0,0,1,.74.32,1.1,1.1,0,0,1,.29.76A.88.88,0,0,1,84.43,35.27ZM79.8,33.52q-.72-3.09-1.35-6.21L78,25l-.75,3.33q-.63,2.61-1.08,5.16H79.8ZM76.62,21l0,.21A.53.53,0,0,1,76.62,21Z"/><path class="cls-3" d="M97.26,31.45a2.82,2.82,0,0,1-.09.69,2.94,2.94,0,0,1-.66,1.14,3.82,3.82,0,0,1-1,.84l-.67.42-1.38.87-.54.33a27.53,27.53,0,0,1-4.2,2.1,1,1,0,0,1-.27.06,1.62,1.62,0,0,1-.36-.06,1.25,1.25,0,0,1-.81.39.87.87,0,0,1-.71-.29,1,1,0,0,1-.31-.73v-4l0-7v-.9a23,23,0,0,1,.18-3.12,6.65,6.65,0,0,1,.84-2.43,1.17,1.17,0,0,1,.51-.42.74.74,0,0,1,.39-.09,1,1,0,0,1,.27.06,9.7,9.7,0,0,1,2.85,1.47,4.25,4.25,0,0,1,1.5,2.46,7.22,7.22,0,0,1,.12,1.08,5.43,5.43,0,0,1-.36,1.92,5.83,5.83,0,0,1-.72,1.35h0a7,7,0,0,1,2.19.34A6.17,6.17,0,0,1,96,29a3.43,3.43,0,0,1,1.23,1.86A4.88,4.88,0,0,1,97.26,31.45Zm-7.5-9.27a7.83,7.83,0,0,0-1-.6,8.93,8.93,0,0,0-.3,1.38q-.09.87-.09,2.61V28.3A12,12,0,0,0,90,26.64l-.18.21a5.33,5.33,0,0,0,.75-1.26,2.81,2.81,0,0,0,.24-1,4.74,4.74,0,0,0,0-.63v0a5.07,5.07,0,0,0-.12-.63,4.9,4.9,0,0,0-.3-.57l0,0,0,0-.12-.18s0,0,.06.09a2.76,2.76,0,0,0-.48-.48s.07.06.09.06ZM95,31.81l.09-.15a.46.46,0,0,0,.06-.18v-.12l0-.12L95,30.88a3.9,3.9,0,0,0-.54-.48h0a3.76,3.76,0,0,0-.75-.39,9,9,0,0,0-1.35-.36l.27.06a6.28,6.28,0,0,0-1.74,0l.27-.06a6.53,6.53,0,0,0-1.59.45l.24-.12a8.17,8.17,0,0,0-1.17.66l-.12.09-.21.09q0,1.65,0,5a.46.46,0,0,0,.18-.06l-.12.06q1-.42,1.44-.69.87-.42,2.55-1.44.42-.24,1.26-.78l.84-.54A4.18,4.18,0,0,0,95,31.81Zm-6.63-9a.34.34,0,0,0,0-.15A.34.34,0,0,1,88.41,22.84Zm1.35-.66.12.09S89.82,22.24,89.76,22.18Zm.6.57.06.09S90.4,22.79,90.36,22.75Zm4.83,8.67v0Z"/><path class="cls-3" d="M109.2,34.27a1,1,0,0,1-.23.62,1,1,0,0,1-.52.38.9.9,0,0,1-.27,0,1.08,1.08,0,0,1-.54-.12,1.19,1.19,0,0,1-.48-.63q-.51-1.41-.9-2.88a50.7,50.7,0,0,1-1.38-6.39q-.87,2.46-2,6-.84,2.67-2,6.51a1.07,1.07,0,0,1-.43.6,1,1,0,0,1-.71.15,1,1,0,0,1-.64-.35,1,1,0,0,1-.26-.67V33.81l0-6.45,0-6.45a1,1,0,0,1,.32-.72,1.15,1.15,0,0,1,.73-.33,1,1,0,0,1,.71.31,1,1,0,0,1,.32.74q0,2.43,0,3.66v6.21l.45-1.38.32-1q.19-.61.5-1.42,1.2-3.57,2.25-6.42a1.27,1.27,0,0,1,.45-.57,1,1,0,0,1,.69-.18,1,1,0,0,1,.63.34,1.17,1.17,0,0,1,.27.68q.18,1.8.3,2.85v-.06q.15,1.2.36,2.31a49.32,49.32,0,0,0,2.1,8.07A.92.92,0,0,1,109.2,34.27Z"/><path class="cls-3" d="M124.18,19.31a1,1,0,0,1-.71.29h-4.86q0,1.32,0,3.9,0,1.17,0,3.54t0,3.54q0,2.37-.06,7.11a.94.94,0,0,1-.31.74,1.1,1.1,0,0,1-.77.29.93.93,0,0,1-.69-.32,1,1,0,0,1-.3-.71l.06-4,0-7.08q0-2.31-.06-7h-4.83a1,1,0,0,1-1-1,.91.91,0,0,1,.29-.74,1,1,0,0,1,.73-.32h11.76a.93.93,0,0,1,.73.33,1.16,1.16,0,0,1,.29.78A.88.88,0,0,1,124.18,19.31Z"/><path class="cls-3" d="M133,29.31a3.77,3.77,0,0,1,.08,1.2,6.26,6.26,0,0,1-.53,2,16.54,16.54,0,0,1-1.18,2.14,23.58,23.58,0,0,1-2.76,3.51,1,1,0,0,1-.72.3,1,1,0,0,1-.75-.3.92.92,0,0,1-.3-.72,1,1,0,0,1,.3-.75l.15-.15a.94.94,0,0,1-.27,0H127a.92.92,0,0,1-.66-.3,1.19,1.19,0,0,1-.3-.72,6.37,6.37,0,0,1-.06-.72,5.08,5.08,0,0,1,.06-.69V18a1,1,0,0,1,.31-.74,1.1,1.1,0,0,1,.77-.28.93.93,0,0,1,.69.31,1,1,0,0,1,.3.71V29.47l.21-.3.63-.81a3.32,3.32,0,0,1,.93-.93,1.87,1.87,0,0,1,.9-.21,1.9,1.9,0,0,1,.6.09,2.83,2.83,0,0,1,1.67,2Zm-2,1.14v-.39a.13.13,0,0,0,0-.09v-.06a1,1,0,0,0-.06-.24l-.15-.3.09.09-.09-.09,0-.06h0l-.18.24.15-.21A17.4,17.4,0,0,0,128.46,33a7.93,7.93,0,0,0-.36,1.29v1.41l.57-.72-.15.21q.72-1,1.23-1.8a11.9,11.9,0,0,0,1-1.89l-.09.27a8.64,8.64,0,0,0,.39-1.38l-.06.27Zm-.33-1.2v0Zm.21-.09-.06.06ZM131,30l0,0a.12.12,0,0,1,0-.09Z"/><path class="cls-3" d="M154.19,34.89a1,1,0,0,1-.15.53,1.18,1.18,0,0,1-.39.41,1,1,0,0,1-.54.15.8.8,0,0,1-.24,0,1.44,1.44,0,0,1-.63-.48,34.17,34.17,0,0,1-1.8-3.06,37.65,37.65,0,0,1-2.37-6.09l-.27-1-1,7.2-.27,2q0,.18-.11.75a5.52,5.52,0,0,1-.22,1A3.46,3.46,0,0,1,144.93,38a2.44,2.44,0,0,1-2.07.36,1.08,1.08,0,0,1-.55-.39,1,1,0,0,1-.2-.6.9.9,0,0,1,0-.27.88.88,0,0,1,.36-.55,1.07,1.07,0,0,1,.66-.22.8.8,0,0,1,.24,0l.06,0h.06l.15-.06a.17.17,0,0,0,.12-.06l.21-.21.09-.15a6,6,0,0,0,.36-1.53l.27-1.8.9-6.54.9-6.51a.87.87,0,0,1,.18-.34A.76.76,0,0,1,147,19a1,1,0,0,1,.51-.15,1.14,1.14,0,0,1,1,.75q.12.6.51,2.31a50,50,0,0,0,2.4,7.77s0,0-.06-.09A28.66,28.66,0,0,0,154,34.42.9.9,0,0,1,154.19,34.89Z"/><path class="cls-3" d="M166.36,35.27a1,1,0,0,1-.71.29h-1.32q.33,1.41,1.05,4.23a.92.92,0,0,1,0,.27,1,1,0,0,1-.75,1,1,1,0,0,1-.3.06,1,1,0,0,1-.62-.22,1,1,0,0,1-.37-.55q-.78-3.12-1.14-4.68a.13.13,0,0,0,0-.09h-4.35a18.24,18.24,0,0,0-.09,1.83,1.05,1.05,0,0,1-.35.74,1.1,1.1,0,0,1-.76.29.93.93,0,0,1-.69-.32.89.89,0,0,1-.27-.71q0-.84.12-2.4a1.28,1.28,0,0,1-.09-.45,1,1,0,0,1,.24-.66l0-.3q.33-2.19,1.29-6.27l.18-.84q.78-3.54,1.05-5.22v.06q.15-1.17.21-2.67A1.16,1.16,0,0,1,159,18a1,1,0,0,1,.63-.34h.12a1.9,1.9,0,0,1,.54.12.88.88,0,0,1,.32.27.84.84,0,0,1,.17.36q.3,1.86.87,4.74.9,4.65,1.74,8.37.27,1.2.48,2h1.8a1,1,0,0,1,.74.32,1.1,1.1,0,0,1,.29.76A.88.88,0,0,1,166.36,35.27Zm-4.63-1.75q-.72-3.09-1.35-6.21L159.93,25l-.75,3.33q-.63,2.61-1.08,5.16h3.63ZM158.54,21l0,.21A.53.53,0,0,1,158.54,21Z"/><path class="cls-3" d="M178.4,24.7a1,1,0,0,1-1,1,1.24,1.24,0,0,1-.75-.3l-.15-.12.21.18a6.37,6.37,0,0,0-1.59-.93l.06,0a8,8,0,0,0-1.74-.45l.27,0a3.67,3.67,0,0,0-.9-.06h-.06a0,0,0,0,1,0,0l0,0h0l-.06.06.06-.06s0,0-.06.09l0,.06-.54,1a10.14,10.14,0,0,0-.6,1.23l.09-.18a18.48,18.48,0,0,0-1.26,4.59l.06-.27a9.9,9.9,0,0,0-.15,1.62q0,.33.06,1v0a5.51,5.51,0,0,0,.45,1.68l0-.06a7.44,7.44,0,0,0,.48.81,4.19,4.19,0,0,0,.48.51s-.07-.06-.09-.06l.15.12.06,0,0,0,.39.21-.12,0,.24.09.24.06a2.66,2.66,0,0,0,.48,0l-.27.06a1.56,1.56,0,0,0,.51-.15l-.06.06s.07-.06.09-.06l.06,0h0a.84.84,0,0,0,.24-.13l.18-.13-.21.18a5.13,5.13,0,0,0,.81-.81l-.12.12a10.32,10.32,0,0,0,.72-1.11,1,1,0,0,1,.9-.48,1,1,0,0,1,.51.12,1,1,0,0,1,.48.9,1,1,0,0,1-.12.51l-.27.48a6.24,6.24,0,0,1-1.86,2,3.43,3.43,0,0,1-1.89.54,3.22,3.22,0,0,1-1.08-.18,4.83,4.83,0,0,1-2.37-2,7.17,7.17,0,0,1-1-3,6.51,6.51,0,0,1-.06-1q0-.57.12-1.71a18.9,18.9,0,0,1,.6-3A17.4,17.4,0,0,1,170,24.6q.21-.45.69-1.29a5,5,0,0,1,.65-.82,1.67,1.67,0,0,1,.79-.44,2.63,2.63,0,0,1,.69-.09,4.76,4.76,0,0,1,.62,0,4.34,4.34,0,0,0,.53,0,12.23,12.23,0,0,1,1.35.33,8.57,8.57,0,0,1,2.76,1.53.82.82,0,0,1,.3.72Zm-8.13,8.52a.41.41,0,0,1,0,.18A.41.41,0,0,0,170.27,33.22Zm1.44,2.88-.06-.06.09.06Zm.78.33.18,0A.43.43,0,0,0,172.49,36.43Zm.15-12.3.06-.06-.09.12Zm.11-.12s0,0,0,0l0,.06v0Zm.52,12.29h-.06l.06,0Zm.84-.71s.06-.07.06-.09S174.15,35.55,174.11,35.59Z"/><path class="cls-3" d="M193.39,19.31a1,1,0,0,1-.71.29h-4.86q0,1.32,0,3.9,0,1.17,0,3.54t0,3.54q0,2.37-.06,7.11a.94.94,0,0,1-.31.74,1.1,1.1,0,0,1-.77.29.93.93,0,0,1-.69-.32,1,1,0,0,1-.3-.71l.06-4,0-7.08q0-2.31-.06-7h-4.83a1,1,0,0,1-1-1,.91.91,0,0,1,.29-.74,1,1,0,0,1,.73-.32h11.76a.93.93,0,0,1,.73.33,1.16,1.16,0,0,1,.29.78A.88.88,0,0,1,193.39,19.31Z"/><path class="cls-3" d="M207.14,27.49a13.15,13.15,0,0,1-.36,2.88A25.7,25.7,0,0,1,205,35.08a6.59,6.59,0,0,1-2.55,3.15,3.84,3.84,0,0,1-1,.36,6.34,6.34,0,0,1-.66.06,4.55,4.55,0,0,1-.9-.09,10.32,10.32,0,0,1-2.25-.78,4.6,4.6,0,0,1-1.83-1.5,4,4,0,0,1-.6-2.46,14.65,14.65,0,0,1,.3-2.43q.21-1.23.48-2.28a35.48,35.48,0,0,1,3.33-8.58,1.14,1.14,0,0,1,.15-.45,1.06,1.06,0,0,1,.6-.48,4.08,4.08,0,0,1,1.14-.24,4.42,4.42,0,0,1,2.16.53,5.48,5.48,0,0,1,1.8,1.46,8.55,8.55,0,0,1,1.83,4.2A14.86,14.86,0,0,1,207.14,27.49Zm-2.07.66v-.78a8.07,8.07,0,0,0-.06-1.14q-.06-.51-.13-1a3.48,3.48,0,0,0-.29-.9l-.34-.69a3.7,3.7,0,0,0-.46-.75,4.1,4.1,0,0,0-.93-.93l-.68-.36a1.3,1.3,0,0,0-.46-.18l-.18,0,.06,0a2.29,2.29,0,0,0-.42,0l0,0a29.4,29.4,0,0,0-1.53,3.21l.06-.18q-.36.84-.69,1.8A33,33,0,0,0,197.3,33q-.06.6-.06.9a3.58,3.58,0,0,0,.06.54l.09.36.15.3a2.44,2.44,0,0,0,.36.39l-.09,0,.18.12,0,0,0,0q.3.18.9.48l-.12-.06c.08,0,.3.13.67.25a6.85,6.85,0,0,0,1.06.29h-.09a.43.43,0,0,1,.18,0h.3l.51-.15-.18.09.21-.12h0a.38.38,0,0,0,.24-.15,3.5,3.5,0,0,0,.63-.6s-.06.07-.06.09a14.71,14.71,0,0,0,1.53-2.94l-.09.24A18.35,18.35,0,0,0,205,28.54Zm-4.56,8.43a.34.34,0,0,1,.15,0h-.06A.13.13,0,0,0,200.51,36.58Zm.93-.12h0l0,0Zm.39-.27s0,0-.09.06ZM205,28.66a.34.34,0,0,0,0,.15A.34.34,0,0,1,205,28.66Z"/><path class="cls-3" d="M217.13,17.74l.29.31a1,1,0,0,1,.28.71V37.48a1,1,0,0,1-.31.74,1.1,1.1,0,0,1-.76.29.88.88,0,0,1-.68-.32,1,1,0,0,1-.29-.71V27.39a2.37,2.37,0,0,1-.69.27,4.67,4.67,0,0,1-1.29.18,3.49,3.49,0,0,1-.54,0,9,9,0,0,1-1.68-.3,4.39,4.39,0,0,1-1.38-.66,2.67,2.67,0,0,0-.3-.24,1.31,1.31,0,0,1-.33-.33,3,3,0,0,1-.54-.93,5.42,5.42,0,0,1-.24-1.8q0-.57,0-1.77V18.16a1,1,0,0,1,.32-.72,1,1,0,0,1,.73-.3.88.88,0,0,1,.71.29,1,1,0,0,1,.32.74V23a4.55,4.55,0,0,1,0,.63v.63a2,2,0,0,0,.18.6l.06.09.3.27a2.31,2.31,0,0,0,.54.27l-.15-.06a5.49,5.49,0,0,0,1.47.36h0q.3,0,.9,0l.6-.15.17-.09.23-.12s-.05,0-.09.06l.09-.09.12-.06-.09,0,.18-.18,0,.09.06-.12.09-.09a.1.1,0,0,0,0-.08.1.1,0,0,1,0-.07.1.1,0,0,0,0,.07.1.1,0,0,1,0,.08l-.06.06.15-.27v-.09l0-.18a1.32,1.32,0,0,1,.21-.45V18.76A1,1,0,0,1,216,18a1.1,1.1,0,0,1,.76-.28Zm-6.36,6.72a.42.42,0,0,0,0-.18A.42.42,0,0,1,210.77,24.46Zm3.45,1.29a.34.34,0,0,0-.15,0A.34.34,0,0,1,214.22,25.75Zm.78-.36v0l0-.06S215,25.39,215,25.39Zm.27-.24h0s0,0,0,0l.06-.06Z"/><path class="cls-3" d="M232.37,36.27a1,1,0,0,1-.3.72,1,1,0,0,1-.75.3.92.92,0,0,1-.72-.3l-1.92-2.16q-3.51-3.9-6.66-7L221.3,29l0,1.47q0,2.34.21,7a.83.83,0,0,1-.31.74,1.21,1.21,0,0,1-.79.29.84.84,0,0,1-.66-.32,1.2,1.2,0,0,1-.3-.71l-.15-3.93q-.06-2.28-.12-7t0-6.93a1.13,1.13,0,0,1,.33-.75,1,1,0,0,1,.75-.3,1,1,0,0,1,.71.32.91.91,0,0,1,.28.74l0,3.9V25a74.94,74.94,0,0,1,4.38-6.36,1,1,0,0,1,.36-.39l.27-.09a.89.89,0,0,1,.27,0,1,1,0,0,1,.51.12.93.93,0,0,1,.48.63,1.07,1.07,0,0,1,0,.3.77.77,0,0,1-.12.48l-1.53,2q-1.38,1.92-2.82,4.23l1.95,2q3.45,3.57,7,7.62A1,1,0,0,1,232.37,36.27Z"/><path class="cls-3" d="M238,28.14,236.93,27a26.7,26.7,0,0,1-1.77-2.37q-.27-.39-.75-1.17a5.87,5.87,0,0,1-.33-.6,2.56,2.56,0,0,1-.21-.87,1.21,1.21,0,0,1,.32-.87,1,1,0,0,1,.76-.33.93.93,0,0,1,.76.36,1,1,0,0,1,.23.78,17,17,0,0,0,.87,1.47l.9,1.29.15.21a0,0,0,0,0,0,0q.6.72,1.2,1.38l.42.45a.89.89,0,0,1,.3.69,1,1,0,0,1-.3.75.92.92,0,0,1-.72.3,1,1,0,0,1-.75-.3Zm-2.1-6,0-.21,0,.12ZM242.59,20a.91.91,0,0,1,.29.73q-.06,1.65-.39,4a47,47,0,0,1-1.38,6.6,47.84,47.84,0,0,1-2.37,6.6,1.09,1.09,0,0,1-.63.48.77.77,0,0,1-.24,0,1.22,1.22,0,0,1-.54-.15.82.82,0,0,1-.48-.6.8.8,0,0,1,0-.24,1.93,1.93,0,0,1,.12-.57l.24-.51s0,0-.06.09q.45-1,1-2.64a49.94,49.94,0,0,0,2.34-9.72v0q.15-1.14.33-3.42a1.14,1.14,0,0,1,.3-.73,1,1,0,0,1,.72-.29A.91.91,0,0,1,242.59,20Zm-4.87,4.63a.47.47,0,0,1,.12.18A.71.71,0,0,0,237.71,24.67Zm2.76-.24a.41.41,0,0,1,0-.18A.41.41,0,0,0,240.47,24.43Z"/></g></g></svg>