<svg xmlns="http://www.w3.org/2000/svg" viewBox="0 0 261.28 67.43"><defs><style>.cls-1{fill:#fff;}.cls-1,.cls-2{stroke:#201600;stroke-miterlimit:10;}.cls-2{fill:none;}.cls-3{fill:#201600;}</style></defs><title>sendbtn_ua</title><g id="Слой_2" data-name="Слой 2"><g id="Слой_5" data-name="Слой 5"><path class="cls-1" d="M8.48,39.66c0,2.78.44,11.24,1.72,14,1.75,3.75,14.91,3.82,25.15,5.07,16.81,2.05,209.56-2.91,219.09-5.59,2.93-.82,9.55-32.17,4.51-42.74a11.66,11.66,0,0,0-4.71-5.57c-2.24-1.26-5.17-1.73-8-2.06-10.78-1.23-21.78-.9-32.7-.55-14.86.47-100.22.69-108.35-.08C79.59-.34,53.62.51,27.83,1.37c-4.24.14-11.35.06-14.05,2.79C11.46,6.48,8.59,31.34,8.48,39.66Z"/><path class="cls-2" d="M13.77,4.16C5.1,6.9,2.7,12.55,2.28,14.46,1.15,19.59,1.06,24.89.73,30.13c-.34,5.49-.5,28.23,1,30.5,3.5,5.15,91.35,5.65,108.67,5.81,58.64.53,115.29.67,125.86.22,4.88-.21,12.91-6.38,18.31-13.19"/><path class="cls-2" d="M11.39,12.61C7.77,15.86,5,18.25,1.24,21.33"/><path class="cls-2" d="M.92,29.77A85.86,85.86,0,0,1,10.25,23"/><path class="cls-2" d="M.38,38.82q4.18-3.46,8.69-6.5"/><path class="cls-2" d="M.55,47.24q3.86-2.9,7.94-5.5"/><path class="cls-2" d="M1.15,56.83A36.43,36.43,0,0,1,9.4,50.21"/><path class="cls-2" d="M7.23,62.4a60.55,60.55,0,0,1,8-6.07"/><path class="cls-2" d="M19.06,63.76a53.56,53.56,0,0,1,6.07-6"/><path class="cls-2" d="M31.05,64.58A46.42,46.42,0,0,1,37,59.06"/><path class="cls-2" d="M42.8,65.24A52,52,0,0,1,50.45,59"/><path class="cls-2" d="M54,65.6A63.13,63.13,0,0,1,61.29,59"/><path class="cls-2" d="M64.71,65.85a83.24,83.24,0,0,1,6.87-6.79"/><path class="cls-2" d="M74.89,66.12a4.44,4.44,0,0,1,.91-1.29l5.38-5.93"/><path class="cls-2" d="M84,66,90.36,59"/><path class="cls-2" d="M93.67,66.36q3.58-3.93,7.45-7.6"/><path class="cls-2" d="M103.16,66.43c-.22-.15,0-.49.14-.69q3.29-3.47,6.61-6.91"/><path class="cls-2" d="M113.24,66.81a17.85,17.85,0,0,1,2.53-2.66,42.64,42.64,0,0,0,5.07-5.73"/><path class="cls-2" d="M124.62,66.55a79.72,79.72,0,0,0,6.76-8.24"/><path class="cls-2" d="M136.07,66.51a88.36,88.36,0,0,0,7.21-8.72"/><path class="cls-2" d="M146.7,66.64c2.73-2.81,4.39-6.34,7.16-9.12"/><path class="cls-2" d="M156.87,66.69c1.86-2.81,4.83-6.51,6.49-9.44"/><path class="cls-2" d="M165.72,66.54c2.23-2.85,4.51-6.78,6.83-9.55"/><path class="cls-2" d="M175.53,66.86a25,25,0,0,1,1.73-2.39c1.65-2.23,4.36-5.59,6-7.82"/><path class="cls-2" d="M183.78,66.93c2.3-3.09,6.46-8.05,9.11-10.85"/><path class="cls-2" d="M192.53,66.93c.55-.86,1.56-2.08,2.17-2.89l6.08-8-1.09,1.4"/><path class="cls-2" d="M200.78,66.93c1.92-3,6.06-8.28,8.22-11.15"/><path class="cls-2" d="M210.19,66.54c2.32-3.19,5.7-7.62,8.16-10.7"/><path class="cls-2" d="M218.35,66.93l7.82-11.85"/><path class="cls-2" d="M228.49,66.77c1.95-3.2,5.22-8.86,7-12.15"/><path class="cls-2" d="M238.64,66.42l8.66-12.51"/><path class="cls-3" d="M47.44,33.58a2.82,2.82,0,0,1-.09.69,2.94,2.94,0,0,1-.66,1.14,3.82,3.82,0,0,1-1,.84l-.67.42-1.38.87-.54.33a27.53,27.53,0,0,1-4.2,2.1,1,1,0,0,1-.27.06,1.62,1.62,0,0,1-.36-.06,1.25,1.25,0,0,1-.81.39.87.87,0,0,1-.71-.29,1,1,0,0,1-.31-.73v-4l0-7v-.9a23,23,0,0,1,.18-3.12,6.65,6.65,0,0,1,.84-2.43,1.17,1.17,0,0,1,.51-.42.74.74,0,0,1,.39-.09,1,1,0,0,1,.27.06,9.7,9.7,0,0,1,2.85,1.47A4.25,4.25,0,0,1,43,25.35a7.22,7.22,0,0,1,.12,1.08,5.43,5.43,0,0,1-.36,1.92A5.83,5.83,0,0,1,42,29.71h0a7,7,0,0,1,2.19.34,6.17,6.17,0,0,1,1.92,1,3.43,3.43,0,0,1,1.23,1.86A4.88,4.88,0,0,1,47.44,33.58Zm-7.5-9.27a7.83,7.83,0,0,0-1-.6,8.93,8.93,0,0,0-.3,1.38q-.09.87-.09,2.61v2.73a12,12,0,0,0,1.68-1.65L40,29a5.33,5.33,0,0,0,.75-1.26,2.81,2.81,0,0,0,.24-1,4.74,4.74,0,0,0,0-.63v0a5.07,5.07,0,0,0-.12-.63,4.9,4.9,0,0,0-.3-.57l0,0,0,0-.12-.18s0,0,.06.09a2.76,2.76,0,0,0-.48-.48s.07.06.09.06Zm5.28,9.63.09-.15a.46.46,0,0,0,.06-.18v-.12l0-.12L45.16,33a3.9,3.9,0,0,0-.54-.48h0a3.76,3.76,0,0,0-.75-.39,9,9,0,0,0-1.35-.36l.27.06a6.28,6.28,0,0,0-1.74,0l.27-.06a6.53,6.53,0,0,0-1.59.45L40,32.1a8.17,8.17,0,0,0-1.17.66l-.12.09-.21.09q0,1.65,0,5a.46.46,0,0,0,.18-.06l-.12.06q1-.42,1.44-.69.87-.42,2.55-1.44.42-.24,1.26-.78l.84-.54A4.18,4.18,0,0,0,45.22,33.93Zm-6.63-9a.34.34,0,0,0,0-.15A.34.34,0,0,1,38.59,25Zm1.35-.66.12.09S40,24.37,39.94,24.3Zm.6.57.06.09S40.58,24.92,40.54,24.88Zm4.83,8.67v0Z"/><path class="cls-3" d="M53.83,20.41V40.63H51.22V20.41Z"/><path class="cls-3" d="M74.41,39.51v3.69a1,1,0,0,1-.3.72,1.11,1.11,0,0,1-.72.33,1.08,1.08,0,0,1-1-1V40.47L70,40.6q-4,.12-6.06.12-3.21,0-5.73-.12v.21a3.38,3.38,0,0,0,0,.51L58.15,41a4.21,4.21,0,0,0,.27,1l0-.09a4.4,4.4,0,0,0,.48.87l-.09-.12.09.12.06.09,0-.06.27.33a.92.92,0,0,1,.3.72,1,1,0,0,1-.3.72.89.89,0,0,1-.69.3,1,1,0,0,1-.75-.3,5.26,5.26,0,0,1-1.35-2.19,5.65,5.65,0,0,1-.27-1.26,7.87,7.87,0,0,1,.06-1.32.9.9,0,0,1,.48-.6l.21-.09a1.35,1.35,0,0,1,.42-.5.81.81,0,0,1,.57-.17q1.59.09,3.15.09a1.68,1.68,0,0,1-.06-.39A.77.77,0,0,1,61,38l.69-3q1.11-5.28,1.86-10.23l0-.45a.85.85,0,0,1,.3-.72,1.23,1.23,0,0,1,.75-.33h.06a1.45,1.45,0,0,1,.33,0,.89.89,0,0,1,.6.48,1.27,1.27,0,0,1,.12.81l0,.27q0,.51.15,1.53v-.06a6.28,6.28,0,0,1,.1.69,8.83,8.83,0,0,0,.17,1,32.19,32.19,0,0,0,1.83,6.15L67.81,34A10.58,10.58,0,0,0,69,36.15l0-.06a4.62,4.62,0,0,0,1,1l-.21-.15.21.15a1.09,1.09,0,0,1,.51.93,1,1,0,0,1-.12.48q1.68-.06,2.46-.12a1.11,1.11,0,0,1,.57-.18.88.88,0,0,1,.71.29,1,1,0,0,1,.31.74v.3ZM58.89,42.88s0,0,0,0l0,0Zm8.42-4.26,1.23,0a8,8,0,0,1-1.83-2.22,17.48,17.48,0,0,1-1.2-2.67,22.24,22.24,0,0,1-.9-2.94q-.87,4.41-1.65,7.8a.12.12,0,0,1,0,.09Q65.83,38.64,67.3,38.62ZM65.74,26.08a.52.52,0,0,1,0,.21Z"/><path class="cls-3" d="M84.33,22.77a.93.93,0,0,1,.32.69q0,.75-.06,2.31-.06,1-.06,1.53-.09,3.33-.09,6.69,0,4.5,0,6.75a.93.93,0,0,1-.33.73,1.15,1.15,0,0,1-.78.29.88.88,0,0,1-.68-.31,1,1,0,0,1-.28-.71q0-1.26,0-3.81,0-4.47,0-6.69l.15-5.7q-.72,0-2.19,0t-2.19,0l-.06,2.13Q78,29.47,78,33q0,1.59.06,4.89a1,1,0,0,1-.31.72,1,1,0,0,1-.74.3.87.87,0,0,1-.72-.29,1,1,0,0,1-.3-.74q-.06-2.1-.06-3.15V33.3q0-4.59.24-9.78a1.1,1.1,0,0,1,.33-.72,1,1,0,0,1,.72-.3q2.52-.06,3.75-.06l2.67,0A1,1,0,0,1,84.33,22.77Z"/><path class="cls-3" d="M94.24,23.89V25a6.18,6.18,0,0,1-.15,1.47,6.41,6.41,0,0,1-1.58,3,6.65,6.65,0,0,1-2.8,1.81,1,1,0,0,1-.3.06.91.91,0,0,1-.6-.23,1.27,1.27,0,0,1-.39-.55.77.77,0,0,1,0-.24,1,1,0,0,1,.15-.54,1.07,1.07,0,0,1,.6-.48l.24-.09-.09.06a6.29,6.29,0,0,0,1.23-.75l-.06.06a4.91,4.91,0,0,0,.72-.69v0l.18-.18-.12.12a4.35,4.35,0,0,0,.63-1.05l-.06.09a6.06,6.06,0,0,0,.36-1.29,3.66,3.66,0,0,0,0-.54,3.39,3.39,0,0,0,0-.51,6.09,6.09,0,0,0-.36-1.29,4.94,4.94,0,0,0-.36-.66,1.38,1.38,0,0,0-.36-.33l.21.15a.64.64,0,0,0-.27-.18s.06,0,.06,0a1.89,1.89,0,0,0-.48-.15,1.07,1.07,0,0,0-.3,0,1.45,1.45,0,0,0-.33,0H90a5.38,5.38,0,0,0-1.38.33l.15-.09-.15.09h0a0,0,0,0,0,0,0s-.06.07-.06.09a4.12,4.12,0,0,0-.13.66c0,.24-.06.41-.08.51q-.12,1.11-.12,3.39t0,6.72v6.72a1,1,0,0,1-.32.74,1.1,1.1,0,0,1-.76.28.93.93,0,0,1-.69-.31,1,1,0,0,1-.3-.71V28.14q0-.81,0-1.23,0-1.68.06-2.49a12.69,12.69,0,0,1,.24-2,2.45,2.45,0,0,1,1.14-1.77,2.34,2.34,0,0,1,.77-.33l.88-.21A6.5,6.5,0,0,1,90.34,20a4.85,4.85,0,0,1,1,.09,3,3,0,0,1,1.59,1,5.59,5.59,0,0,1,1,1.8Zm-5.85-.48a.24.24,0,0,1,0,.15A.24.24,0,0,0,88.39,23.4Zm.12-.93s0,0,.09-.06Zm.09-.09v0Zm2.58,5.46v0s.06-.07.06-.09A.05.05,0,0,1,91.18,27.85Zm1-3.42a.33.33,0,0,1,0-.15A.33.33,0,0,0,92.17,24.43Zm0,1.32a.33.33,0,0,1,0-.15A.33.33,0,0,0,92.14,25.75Z"/><path class="cls-3" d="M106.41,37.4a1,1,0,0,1-.71.29h-1.32q.33,1.41,1.05,4.23a.92.92,0,0,1,0,.27,1,1,0,0,1-.75,1,1,1,0,0,1-.3.06,1,1,0,0,1-.62-.22,1,1,0,0,1-.37-.55q-.78-3.12-1.14-4.68a.13.13,0,0,0,0-.09H97.9a18.24,18.24,0,0,0-.09,1.83,1.05,1.05,0,0,1-.35.74,1.1,1.1,0,0,1-.76.29.93.93,0,0,1-.69-.32.89.89,0,0,1-.27-.71q0-.84.12-2.4a1.28,1.28,0,0,1-.09-.45A1,1,0,0,1,96,36l0-.3q.33-2.19,1.29-6.27l.18-.84q.78-3.54,1.05-5.22v.06q.15-1.17.21-2.67a1.16,1.16,0,0,1,.27-.67,1,1,0,0,1,.63-.34h.12a1.9,1.9,0,0,1,.54.12.88.88,0,0,1,.32.27.84.84,0,0,1,.17.36q.3,1.86.87,4.74.9,4.65,1.74,8.37.27,1.2.48,2h1.8a1,1,0,0,1,.74.32,1.1,1.1,0,0,1,.29.76A.88.88,0,0,1,106.41,37.4Zm-4.63-1.75q-.72-3.09-1.35-6.21L100,27.15l-.75,3.33q-.63,2.61-1.08,5.16h3.63ZM98.59,23.17l0,.21A.53.53,0,0,1,98.59,23.17Z"/><path class="cls-3" d="M119.23,33.58a2.82,2.82,0,0,1-.09.69,2.94,2.94,0,0,1-.66,1.14,3.82,3.82,0,0,1-1,.84l-.67.42-1.38.87-.54.33a27.53,27.53,0,0,1-4.2,2.1,1,1,0,0,1-.27.06,1.62,1.62,0,0,1-.36-.06,1.25,1.25,0,0,1-.81.39.87.87,0,0,1-.71-.29,1,1,0,0,1-.31-.73v-4l0-7v-.9a23,23,0,0,1,.18-3.12,6.65,6.65,0,0,1,.84-2.43,1.17,1.17,0,0,1,.51-.42.74.74,0,0,1,.39-.09,1,1,0,0,1,.27.06,9.7,9.7,0,0,1,2.85,1.47,4.25,4.25,0,0,1,1.5,2.46,7.22,7.22,0,0,1,.12,1.08,5.43,5.43,0,0,1-.36,1.92,5.83,5.83,0,0,1-.72,1.35h0a7,7,0,0,1,2.19.34,6.17,6.17,0,0,1,1.92,1,3.43,3.43,0,0,1,1.23,1.86A4.88,4.88,0,0,1,119.23,33.58Zm-7.5-9.27a7.83,7.83,0,0,0-1-.6,8.93,8.93,0,0,0-.3,1.38q-.09.87-.09,2.61v2.73A12,12,0,0,0,112,28.77l-.18.21a5.33,5.33,0,0,0,.75-1.26,2.81,2.81,0,0,0,.24-1,4.74,4.74,0,0,0,0-.63v0a5.07,5.07,0,0,0-.12-.63,4.9,4.9,0,0,0-.3-.57l0,0,0,0-.12-.18s0,0,.06.09a2.76,2.76,0,0,0-.48-.48s.07.06.09.06ZM117,33.93l.09-.15a.46.46,0,0,0,.06-.18v-.12l0-.12L117,33a3.9,3.9,0,0,0-.54-.48h0a3.76,3.76,0,0,0-.75-.39,9,9,0,0,0-1.35-.36l.27.06a6.28,6.28,0,0,0-1.74,0l.27-.06a6.53,6.53,0,0,0-1.59.45l.24-.12a8.17,8.17,0,0,0-1.17.66l-.12.09-.21.09q0,1.65,0,5a.46.46,0,0,0,.18-.06l-.12.06q1-.42,1.44-.69.87-.42,2.55-1.44.42-.24,1.26-.78l.84-.54A4.18,4.18,0,0,0,117,33.93Zm-6.63-9a.34.34,0,0,0,0-.15A.34.34,0,0,1,110.38,25Zm1.35-.66.12.09S111.79,24.37,111.73,24.3Zm.6.57.06.09S112.37,24.92,112.33,24.88Zm4.83,8.67v0Z"/><path class="cls-3" d="M131.17,36.39a1,1,0,0,1-.23.62,1,1,0,0,1-.52.38.9.9,0,0,1-.27,0,1.08,1.08,0,0,1-.54-.12,1.19,1.19,0,0,1-.48-.63q-.51-1.41-.9-2.88a50.7,50.7,0,0,1-1.38-6.39q-.87,2.46-2,6-.84,2.67-2,6.51a1.07,1.07,0,0,1-.43.6,1,1,0,0,1-.71.15,1,1,0,0,1-.64-.35,1,1,0,0,1-.26-.67V35.94l0-6.45,0-6.45a1,1,0,0,1,.32-.72,1.15,1.15,0,0,1,.73-.33,1,1,0,0,1,.71.31,1,1,0,0,1,.32.74q0,2.43,0,3.66v6.21l.45-1.38.32-1q.19-.61.5-1.42,1.2-3.57,2.25-6.42a1.27,1.27,0,0,1,.45-.57,1,1,0,0,1,.69-.18,1,1,0,0,1,.63.34,1.17,1.17,0,0,1,.27.68q.18,1.8.3,2.85v-.06q.15,1.2.36,2.31a49.32,49.32,0,0,0,2.1,8.07A.92.92,0,0,1,131.17,36.39Z"/><path class="cls-3" d="M146.16,21.44a1,1,0,0,1-.71.29h-4.86q0,1.32,0,3.9,0,1.17,0,3.54t0,3.54q0,2.37-.06,7.11a.94.94,0,0,1-.31.74,1.1,1.1,0,0,1-.77.29.93.93,0,0,1-.69-.32,1,1,0,0,1-.3-.71l.06-4,0-7.08q0-2.31-.06-7h-4.83a1,1,0,0,1-1-1A.91.91,0,0,1,133,20a1,1,0,0,1,.73-.32h11.76a.93.93,0,0,1,.73.33,1.16,1.16,0,0,1,.29.78A.88.88,0,0,1,146.16,21.44Z"/><path class="cls-3" d="M158.41,36.39a1,1,0,0,1-.23.62,1,1,0,0,1-.52.38.9.9,0,0,1-.27,0,1.08,1.08,0,0,1-.54-.12,1.19,1.19,0,0,1-.48-.63q-.51-1.41-.9-2.88a50.7,50.7,0,0,1-1.38-6.39q-.87,2.46-2,6-.84,2.67-2,6.51a1.07,1.07,0,0,1-.43.6,1,1,0,0,1-.71.15,1,1,0,0,1-.64-.35,1,1,0,0,1-.26-.67V35.94l0-6.45L148,23a1,1,0,0,1,.32-.72A1.15,1.15,0,0,1,149,22a1,1,0,0,1,.71.31A1,1,0,0,1,150,23q0,2.43,0,3.66v6.21l.45-1.38.32-1q.19-.61.5-1.42,1.2-3.57,2.25-6.42a1.27,1.27,0,0,1,.45-.57,1,1,0,0,1,.69-.18,1,1,0,0,1,.63.34,1.17,1.17,0,0,1,.27.68q.18,1.8.3,2.85v-.06q.15,1.2.36,2.31a49.32,49.32,0,0,0,2.1,8.07A.92.92,0,0,1,158.41,36.39Z"/><path class="cls-3" d="M177.7,20.85a1.11,1.11,0,0,1,.33.72,1.08,1.08,0,0,1-1,1h-7.5v17a1,1,0,0,1-.32.74,1.1,1.1,0,0,1-.76.29.93.93,0,0,1-.69-.32,1,1,0,0,1-.3-.71v-18a1.08,1.08,0,0,1,1-1H177A1,1,0,0,1,177.7,20.85Z"/><path class="cls-3" d="M191.47,29.62a13.15,13.15,0,0,1-.36,2.88,25.7,25.7,0,0,1-1.74,4.71,6.59,6.59,0,0,1-2.55,3.15,3.84,3.84,0,0,1-1,.36,6.34,6.34,0,0,1-.66.06,4.55,4.55,0,0,1-.9-.09A10.32,10.32,0,0,1,182,39.9a4.6,4.6,0,0,1-1.83-1.5,4,4,0,0,1-.6-2.46,14.65,14.65,0,0,1,.3-2.43q.21-1.23.48-2.28a35.48,35.48,0,0,1,3.33-8.58,1.14,1.14,0,0,1,.15-.45,1.06,1.06,0,0,1,.6-.48,4.08,4.08,0,0,1,1.14-.24,4.42,4.42,0,0,1,2.16.53,5.48,5.48,0,0,1,1.8,1.46,8.55,8.55,0,0,1,1.83,4.2A14.86,14.86,0,0,1,191.47,29.62Zm-2.07.66V29.5a8.07,8.07,0,0,0-.06-1.14q-.06-.51-.13-1a3.48,3.48,0,0,0-.29-.9l-.34-.69a3.7,3.7,0,0,0-.46-.75,4.1,4.1,0,0,0-.93-.93l-.68-.36a1.3,1.3,0,0,0-.46-.18l-.18,0,.06,0a2.29,2.29,0,0,0-.42,0l0,0a29.4,29.4,0,0,0-1.53,3.21l.06-.18q-.36.84-.69,1.8a33,33,0,0,0-1.68,6.75q-.06.6-.06.9a3.58,3.58,0,0,0,.06.54l.09.36.15.3a2.44,2.44,0,0,0,.36.39l-.09,0,.18.12,0,0,0,0q.3.18.9.48l-.12-.06c.08,0,.3.13.67.25a6.85,6.85,0,0,0,1.06.29h-.09a.43.43,0,0,1,.18,0h.3l.51-.15-.18.09.21-.12h0a.38.38,0,0,0,.24-.15,3.5,3.5,0,0,0,.63-.6s-.06.07-.06.09A14.71,14.71,0,0,0,188.11,35l-.09.24a18.35,18.35,0,0,0,1.32-4.53Zm-4.56,8.43a.34.34,0,0,1,.15,0h-.06A.13.13,0,0,0,184.84,38.71Zm.93-.12h0l0,0Zm.39-.27s0,0-.09.06Zm3.18-7.53a.34.34,0,0,0,0,.15A.34.34,0,0,1,189.34,30.79Z"/><path class="cls-3" d="M204.48,33.58a1,1,0,0,1-.74.3h-.42q0,1.14.06,3.48l0,1.74a1,1,0,0,1-.32.72,1.15,1.15,0,0,1-.74.33,1,1,0,0,1-.72-.31,1,1,0,0,1-.3-.74q-.06-2-.06-3.12l0-2.1H195v5.61a1,1,0,0,1-.32.75,1.07,1.07,0,0,1-.76.3.93.93,0,0,1-.69-.32,1,1,0,0,1-.3-.74V25.63a.93.93,0,0,1,.33-.74,1.16,1.16,0,0,1,.78-.29.88.88,0,0,1,.67.32,1,1,0,0,1,.29.71V31.8h6.21v-2q0-3.21,0-4.83a1,1,0,0,1,1-1,.92.92,0,0,1,.72.29,1,1,0,0,1,.33.74l-.06,3.12V31.8h.45a1,1,0,0,1,.75.32,1.07,1.07,0,0,1,.3.76A.93.93,0,0,1,204.48,33.58Z"/><path class="cls-3" d="M219.16,40.23v.15a1.2,1.2,0,0,1-.13.54.85.85,0,0,1-.37.39q-2.1,1.14-3.15,1.74a1,1,0,0,1-.51.12,1,1,0,0,1-.9-.51.89.89,0,0,1-.15-.48,1.1,1.1,0,0,1,.15-.54,1,1,0,0,1,.36-.39l2.16-1.17-.15-.09-.39-.12H216l-.3.06a2.53,2.53,0,0,1-.42,0,2.43,2.43,0,0,1-.42-.06,1.48,1.48,0,0,1-.66-.4,1.69,1.69,0,0,1-.39-.67,3.58,3.58,0,0,1-.06-.51l0-.54,0-.93.09-2.34a33.3,33.3,0,0,1-1.56,3.09l-.9,1.44a2.38,2.38,0,0,1-1.89,1.23,2.21,2.21,0,0,1-1-.25,3.12,3.12,0,0,1-.9-.67,5.38,5.38,0,0,1-.87-1.5,9.52,9.52,0,0,1-.45-3V31.05q0-5.22,0-7.83a.94.94,0,0,1,.31-.73,1.1,1.1,0,0,1,.77-.29.88.88,0,0,1,.67.31,1,1,0,0,1,.29.71v11q0,1.2.06,1.77v0a5.77,5.77,0,0,0,.33,1.32l-.09-.15.09.18,0,.06v0l.09.17.12.22s0,0-.06-.09.06.07.06.09l.09.12-.06-.12.13.14a1.06,1.06,0,0,1,.13.17l.18.09a0,0,0,0,1,0,0c.12-.16.25-.35.39-.57l.33-.54q.48-.84.69-1.26.45-.78,1.17-2.4l0,.06a24.49,24.49,0,0,0,1.77-6.24l-.06.27q.12-.84.18-1.71-.06-1.8-.06-2.7a.88.88,0,0,1,.32-.67,1,1,0,0,1,.71-.29H215a1,1,0,0,1,.69.3,1.21,1.21,0,0,1,.3.72l.06.84c0,.2,0,.51,0,.93s0,.74,0,1v.66q0,4-.06,6,0,1-.06,3-.06,1-.06,1.5a7.06,7.06,0,0,0,0,.75v0h.27a3.59,3.59,0,0,1,.54.06,3.07,3.07,0,0,1,1,.39,3.13,3.13,0,0,1,1.5,1.86Zm-10.71-4a.43.43,0,0,0,0-.18Zm.3,1.08v0l0,.06Zm.24.42h0Zm.3.3.09.06S209.31,38.08,209.29,38.08Zm.21.12s0,0,0,0h0Zm6.39,1.68a.34.34,0,0,1-.15,0A.34.34,0,0,0,215.89,39.88Zm.39,0a.34.34,0,0,1-.15,0A.34.34,0,0,0,216.28,39.9Z"/><path class="cls-3" d="M231.33,37.4a1,1,0,0,1-.71.29H229.3q.33,1.41,1.05,4.23a.92.92,0,0,1,0,.27,1,1,0,0,1-.75,1,1,1,0,0,1-.3.06,1,1,0,0,1-.62-.22,1,1,0,0,1-.37-.55q-.78-3.12-1.14-4.68a.13.13,0,0,0,0-.09h-4.35a18.24,18.24,0,0,0-.09,1.83,1.05,1.05,0,0,1-.35.74,1.1,1.1,0,0,1-.76.29.93.93,0,0,1-.69-.32.89.89,0,0,1-.27-.71q0-.84.12-2.4a1.28,1.28,0,0,1-.09-.45,1,1,0,0,1,.24-.66l0-.3q.33-2.19,1.29-6.27l.18-.84q.78-3.54,1.05-5.22v.06q.15-1.17.21-2.67a1.16,1.16,0,0,1,.27-.67,1,1,0,0,1,.63-.34h.12a1.9,1.9,0,0,1,.54.12.88.88,0,0,1,.32.27.84.84,0,0,1,.17.36q.3,1.86.87,4.74.9,4.65,1.74,8.37.27,1.2.48,2h1.8a1,1,0,0,1,.74.32,1.1,1.1,0,0,1,.29.76A.88.88,0,0,1,231.33,37.4Zm-4.63-1.75q-.72-3.09-1.35-6.21l-.45-2.28-.75,3.33q-.63,2.61-1.08,5.16h3.63Zm-3.18-12.48,0,.21A.53.53,0,0,1,223.51,23.17Z"/></g></g></svg>