<svg xmlns="http://www.w3.org/2000/svg" viewBox="0 0 138.35 101.31"><defs><style>.cls-1{fill:none;}.cls-1,.cls-2{stroke:#000105;stroke-linecap:round;stroke-linejoin:round;}.cls-2{fill:#fff;}</style></defs><title>sneakers</title><g id="Слой_2" data-name="Слой 2"><g id="Layer_9" data-name="Layer 9"><path class="cls-1" d="M89.45,6.93s3,3.65.63,6.81h0"/><path class="cls-2" d="M98.9,7a26.84,26.84,0,0,0-9.45,0S85.17.5,83.21.5s-3,.53-5,3.2a19.76,19.76,0,0,0-2.14,3.21s-7.74-.16-9.27.78-4.08,6-5.22,13.71c0,0-3.11-.33-2.54,4.15a6.83,6.83,0,0,0-4.75,6S50.21,37,50,38.12c0,0-3.08,1.47-2.94,3.61,0,0-1.54.94-1.81,1.67a3.06,3.06,0,0,0-3.61,2.81l-1.87,1.67a3.31,3.31,0,0,0-4.41,2L33.09,51.5s-3.34-.4-3.95,2.07c0,0-11.3,5.75-12.64,7,0,0-9.56,3.14-10.1,6.22,0,0-8.43,1.14-5.15,13,0,0,2.88,5.89,12.51,6.49s15.52.67,15.52.67a37.37,37.37,0,0,0,.07,5.39c.27,1.07.94,4.37,9,5.84s32.19,2.72,34.24,2.63,16.94-1.23,18-1.76,13.78-8.09,18.06-9.3S123.18,85.8,124,85.2l.87-.6s1.5,3.78,2.37,3.78,1.44-.33,1-1.4a25.1,25.1,0,0,0-1.67-3s9.13-.1,11.14-6.86c0,0,.67-7.16-1.57-11.17,0,0-.28-18.67-7.59-28.66,0,0-1.61-15.52-.09-20.52,0,0,1.07-3.49-4-3.49h-2.59a9.31,9.31,0,0,0-9.16-6.19s-4.51.32-8.46,8.21c0,0-3.24-.14-4.55,1.3C99.74,16.63,100.74,7.79,98.9,7Z"/><path class="cls-1" d="M29.28,86.94s.6-5.93,2.39-6S65,90.91,83.92,85.2s35-10.7,41.91-12.66A20.44,20.44,0,0,0,136.19,66"/><path class="cls-1" d="M31.66,80.92S38.8,72,45,72.45s14.24,2.2,17.54,14.18c0,0-3.45-8.68,3.86-14.19S81.78,63.27,88.74,57.2s12.48-9.81,15.69-24.25c0,0,3.21-10.25,8.74-11.68s6.42,1.07,10-.8,5.58-3.95,5.44-4.65"/><path class="cls-1" d="M99.74,16.62s-6.12,4.85-9.93,17.49l.74-.54a64.31,64.31,0,0,0,9.23-10,49.75,49.75,0,0,0,4.51-8.23"/><path class="cls-1" d="M42.32,72.79S54.94,68.62,58.06,67s3.57-1.78,3.57-1.78S79.46,51.14,82.31,48.37s7.49-14.27,7.49-14.27"/><path class="cls-1" d="M6.41,66.74S9.5,73.54,47,71.21"/><path class="cls-1" d="M13.6,61.62S27.38,58,31.66,71.69c0,0-2.14-7.71,14.54-17.61S71,35.09,74.11,25.9,79.91,14,82.49,13.6s9.18,1,12.39-.71S98.19,9,98.9,7"/><circle class="cls-1" cx="110.91" cy="39.42" r="2.64"/><circle class="cls-1" cx="113.58" cy="29.79" r="2.64"/><circle class="cls-1" cx="82.55" cy="22.3" r="2.64"/><circle class="cls-1" cx="78.8" cy="33" r="2.64"/><circle class="cls-1" cx="73.99" cy="41.03" r="2.64"/><circle class="cls-1" cx="67.03" cy="48.52" r="2.64"/><circle class="cls-1" cx="59.54" cy="53.87" r="2.64"/><circle class="cls-1" cx="52.05" cy="58.69" r="2.64"/><circle class="cls-1" cx="45.1" cy="62.43" r="2.64"/><circle class="cls-1" cx="106.63" cy="50.12" r="2.64"/><circle class="cls-1" cx="99.67" cy="57.62" r="2.64"/><circle class="cls-1" cx="93.78" cy="64.04" r="2.64"/><circle class="cls-1" cx="85.22" cy="69.92" r="2.64"/><circle class="cls-1" cx="76.66" cy="74.2" r="2.64"/><path class="cls-2" d="M126.62,84c-2.84-4.06-2.31-2.18-2.13-3.79a5.66,5.66,0,0,0-1.07-3.74c-.62-1.07-1.34-3.66-.54-7.58s1.52-8.74.71-11.68-2.14-7.94-2.05-9.72.85-15.35-6.93-17.69a1,1,0,0,0-2.07,0,1,1,0,0,0,.19.56h0l0,0a1,1,0,0,0,.45.36,13.34,13.34,0,0,1,4.15,7.63c1.07,5.62.8,10.7,2.59,16.59s1.69,10.43.89,13.29-5.17,7.13,3.12,14.62l1,1.72s1.36,4.12,2.37,3.78S129.46,88.06,126.62,84Z"/><path class="cls-2" d="M96,24.94s-1.78.07-1.16,1.49,2.76,2.68,3.75,3.92,2.32,4.19,3.21,4.9a8.66,8.66,0,0,0,1.73,1.08l.41-1.88a5.64,5.64,0,0,1-3.28-2.85c-.91-2.14-.74-3.3-2.52-4.46A5.1,5.1,0,0,1,96,24.94Z"/><path class="cls-2" d="M91.2,32.89,90.54,34s13.85-4,15.06-5.24,1.2-1.21,1.2-1.21-1.21,4.13-3.17,5.32-10.7,2.49-10.7,2.49H89.27Z"/><path class="cls-2" d="M111.94,39.42a1,1,0,0,0-1-1h0s-4.3-5.07-21.64-2L92.22,40s13.48-1,18.13.28a1,1,0,0,0,.55.18h0A1,1,0,0,0,111.94,39.42Z"/><path class="cls-2" d="M90.54,34.06s8.4,5.76,10.16,9.06l-1,2.62A24.13,24.13,0,0,1,88,38.39Z"/><path class="cls-2" d="M106.91,49.09c-3-6-20.87-4.47-20.87-4.47l2.88,2.86c5.14-.71,13.58,1.95,16.74,3a1,1,0,0,0,2-.39C107.66,49.65,106.91,49.09,106.91,49.09Z"/><path class="cls-2" d="M83.59,46.78l8.27,7.09.32.36,3.21-3S86.89,45,85.72,43.07Z"/><path class="cls-2" d="M81.45,48.65s7.41,4.76,7.84,7.86L86.43,59.1s-5.08-7.42-7.63-7.69Z"/><path class="cls-2" d="M99.91,56.58c-5-6.42-22.62-3.91-22.62-3.91s-4.57,3.83-3.11,2.65c1.28-1,20.06,2.15,24.7,3a1,1,0,0,0,.79.38,1,1,0,0,0,1-1C100.71,57.13,99.91,56.58,99.91,56.58Z"/><path class="cls-2" d="M71.35,57.62s4.84,5.4,5.32,8.07L80.91,63S75.73,56,74,55.32Z"/><path class="cls-2" d="M93.91,63c-4-6.33-23.18-5.07-23.18-5.07L66.5,61.39s13.36.17,19.46-.07A9.91,9.91,0,0,1,92.75,64a1,1,0,0,0,2.07,0C94.82,63.51,93.91,63,93.91,63Z"/><path class="cls-2" d="M70,69.92s-3.61-2.2-3.53-8.53l2-1.67s4.8,8.06,4.8,8.05Z"/><path class="cls-2" d="M86.26,69.92a4,4,0,0,0-.35-1s-2-4.85-14.22-4.39L67,66l4.4,1.3,2.26.49s3.63-2.21,10.51,2c0,0,.44,1.14,1,1.14a1,1,0,0,0,.49-.14c.07,0,.2-.14.2-.14A1,1,0,0,0,86.26,69.92Z"/><path class="cls-2" d="M77.22,73.33s-2.53-7.78-14.77-8.8l-1.87,1.2s1.66.86,8.27,3.49,6.78,5,6.78,5a1,1,0,0,0,2.07,0C77.7,73.83,77.22,73.33,77.22,73.33Z"/><path class="cls-2" d="M83.59,46.78s.06.05,0-.05Z"/><path class="cls-2" d="M85.19,25.21s.69-1.94-1.6-3.34l-.18-.1a1,1,0,0,0-.87-.5,1,1,0,0,0-.39.08c-.74,0-.64,1-.64,1s-.35,20.5,1,22.64a12.89,12.89,0,0,1,1.07,1.78l2.1-3.65S84,31.57,85.19,25.21Z"/><path class="cls-1" d="M35.37,49.89l3.3,2.94,4.24,1-1.29-2.71-1.83-3.28A3.39,3.39,0,0,0,35.37,49.89Z"/><path class="cls-2" d="M59.91,52.83c-1-7-19.93-5-19.93-5l1.25,2.4c13.89-1,17.27,3.59,17.27,3.68a1,1,0,0,0,2.07,0C60.58,53.43,59.91,52.83,59.91,52.83Z"/><path class="cls-2" d="M44.88,53l-3.23-6.79s.49-3.32,3.61-2.81l4.43,8.54L47.16,53.5S46.69,52.94,44.88,53Z"/><path class="cls-2" d="M67.91,49a.92.92,0,0,0,0-1s-7-6.88-20.4-6.28l-2,1.67,1.2,1.68s13,.7,19.31,3.43h0a1,1,0,0,0,1,1,1,1,0,0,0,.58-.2C67.71,49.42,67.91,49,67.91,49Z"/><path class="cls-2" d="M66.31,16.48,73,22.3,75,20.8s-3.85-5.53-6.87-6.41A18.58,18.58,0,0,0,66.31,16.48Z"/><path class="cls-2" d="M50,38.12l5.65,9.78-1,.62-7.61-6.79S46.6,39.79,50,38.12Z"/><path class="cls-2" d="M76.63,19.44s-6.79,3.3-12.69,3.9S66.56,28,66.56,28s7.72-2.69,8.33-4.26S76.63,19.44,76.63,19.44Z"/><path class="cls-2" d="M74,40.31s-5.42-5.59-22-5.48c0,0-1.39,2.17-2.06,3.37,0,0,14-2.61,23.1,3.31a1,1,0,0,0,.83.56H74c.57,0,1-.3,1-.88S74.56,40.31,74,40.31Z"/><path class="cls-2" d="M54.29,31.57S60.55,33,63.24,41.69l-2.4,2.15s-6.31-8.41-8.77-9.17Z"/><path class="cls-2" d="M59.07,25.45"/><path class="cls-2" d="M67.86,36.79"/><path class="cls-1" d="M71,32.41"/><path class="cls-2" d="M89.45,6.93s3.73,4.3,1,6.8"/><path class="cls-2" d="M122,13.52s1.6,6.2-1,7.64"/><line class="cls-2" x1="123.96" y1="82.88" x2="124.34" y2="81.03"/><path class="cls-2" d="M78.91,32c-1-5.48-19.8-6.52-19.8-6.52a7.3,7.3,0,0,0-4.78,6.12A30.41,30.41,0,0,1,77.77,33s.46,1.06,1,1.06a1,1,0,0,0,1-1C79.84,32.47,78.91,32,78.91,32Z"/><path class="cls-2" d="M61.58,21.4c5.66-4,3.08-3.52,6-6.47s8.47-8,8.47-8"/><path class="cls-2" d="M71.35,31.19s-7.64-9.28-10.43-9.79c0,0-2.33.09-1.87,4.15,0,0,10.79,6.13,10.94,8.45A3.84,3.84,0,0,0,71.35,31.19Z"/><path class="cls-2" d="M45.31,61.41a.34.34,0,0,1-.27-.21c-.44-1.28-3.35-8.69-11.94-9.71,0,0-2.62-.5-3.72,1.55a.33.33,0,0,0,.29.49c2.3-.08,11.57.17,14.33,8.89a1.09,1.09,0,0,0,1.1,1,1,1,0,0,0,.21-2.05Z"/><path class="cls-2" d="M52.14,57.62s-.66-5.81-14.42-4.79c0,0,2.64,1.08,3.38,2.35,0,0,7.69-.27,9.92,3.5a1,1,0,0,0,2.07,0C53.09,58.11,52.82,57.83,52.14,57.62Z"/><path class="cls-1" d="M29.23,88.4S68.67,98.48,86,93.65s38.13-16.55,51.75-20.86"/><path class="cls-1" d="M.5,75.24S24.06,81.64,33.41,79"/><path class="cls-1" d="M72.36,78.93Q70.19,81.36,68.27,84"/><path class="cls-1" d="M83.58,78a19.41,19.41,0,0,0-2.67,4"/><path class="cls-1" d="M94.7,74.44a17.76,17.76,0,0,0-2.9,4.66"/><path class="cls-1" d="M103.56,72.63,100.72,76"/><path class="cls-1" d="M113.41,70.14a36.64,36.64,0,0,1-2.49,4.17"/><path class="cls-1" d="M129.9,60.8l-4.31,6.35"/><path class="cls-1" d="M39.55,65.13l-2.17,3.5"/><path class="cls-1" d="M52.58,63.48l-2.17,3.83"/><path class="cls-1" d="M63,59.28l-2.63,3.86"/><path class="cls-1" d="M73.41,52.15a44.42,44.42,0,0,1-3.33,5.67"/></g></g></svg>