<svg xmlns="http://www.w3.org/2000/svg" viewBox="0 0 114.64 135.91"><defs><style>.cls-1{fill:#fff;}.cls-1,.cls-2,.cls-3,.cls-4,.cls-5{stroke:#000105;}.cls-1,.cls-2,.cls-3{stroke-miterlimit:10;}.cls-2,.cls-4{fill:none;}.cls-3,.cls-5,.cls-6{fill:#000105;}.cls-4,.cls-5{stroke-linejoin:round;}</style></defs><title>superman</title><g id="Слой_2" data-name="Слой 2"><g id="Слой_24" data-name="Слой 24"><path class="cls-1" d="M33.74,84.13S23.11,85.68,20.6,78.84c-1.94-5.28.94-8,1.78-9.89s1.1-2.83.52-3.61-2.25-2.51-4.13-2.41c0,0-4.34,2.67-7.74,1.83s-6.59-1.62-9.68-11.2c0,0-.42-1.78-.73-2,0,0-.58-.58.84,0s5.28,3.09,7.85,2.83S17.62,51,20.81,51.33s8,3,8,3a2.36,2.36,0,0,0,1.15-2.2c-.16-1.47-1.78-3.09-2-4.13s-.1-3.24,2.67-5.08a2.39,2.39,0,0,1,2.56,0A29.26,29.26,0,0,1,38.55,48s1.2-2.09,2.41-2.41,1.67-.58,2.2-.1a7.06,7.06,0,0,1,2.3,2.3s.73,1,3.19-1.57,2.09-4.71,4.34-6.07a9.27,9.27,0,0,1,5.6-1.62s-4.08-7-3-10S61,25.84,62,26a13.63,13.63,0,0,1,5.55,3.14c1.94,1.83,6.28,5.23,8.42,6a11.06,11.06,0,0,0,3.77.73s-2.2-3.4-1.94-5.55,1.67-5.65,4.08-6.23,4.4-.89,7.9,1.67c0,0-.94-4.13-.63-4.92a6.7,6.7,0,0,1,5.44-3.61c3.24-.16,4.81,1.15,5.81,1.2a3.32,3.32,0,0,0,3.49-3.23S100.63,2.83,99.27,1c0,0,5.55,1.88,7.12,6.49S109,19,107.53,24.5a60.48,60.48,0,0,1-9.8,21.17c-5.76,7.64-7.33,9.42-7.33,9.42Z"/><path class="cls-2" d="M103.94,15.29s2.06,10.71.73,15"/><path class="cls-2" d="M91.1,50.94A42.64,42.64,0,0,0,100,36.32c3.31-9,5-13.1,5-14"/><path class="cls-2" d="M90.48,49.93c.07-.14,7-14.93,6.94-23.93"/><path class="cls-2" d="M88,47.73s3.42-6.66,1.8-21.89"/><path class="cls-2" d="M78.32,48s-.58-.31.84-4.87.63-7.22.63-7.22"/><path class="cls-2" d="M58.59,38.55s2.37,5,4.08,6.7"/><path class="cls-2" d="M45.46,47.82s3.19,5.08,5.08,5.63"/><path class="cls-2" d="M38.55,48S42.3,52.4,45,53.87"/><path class="cls-2" d="M28.77,54.3s5.86,4.17,8.65,4.38"/><path class="cls-2" d="M18.77,62.94s8.39-5.3,15.44-2.58"/><path class="cls-1" d="M30.58,75.57a9.09,9.09,0,0,1-1.19-8.72c1.88-5.09,5.58-7.19,8-7.74A7.61,7.61,0,0,1,41.75,55s.55-.7,2,.56a2.33,2.33,0,0,1,2.09-1.24c1.47.05.91,0,.91,0a5,5,0,0,1,5.09-1.69s.35-1.94,1.67-2c0,0-.51-2.19,2.18-4s3.53-2.75,8.4-2.15c0,0,.55.42,1.73-.39s4,.42,4.29,1.18,3,2.09,3.45,3.22a3.64,3.64,0,0,1,.31,1.73,58,58,0,0,1,5.73-2.38,6.59,6.59,0,0,1,3.06.21,3.42,3.42,0,0,1,2.11-.88,4.31,4.31,0,0,1,3.11,3.22s3,.55,3.91,1.6a9.47,9.47,0,0,1,9,.09,13.87,13.87,0,0,1,3.42.45,41.67,41.67,0,0,0,5.86.7s1.81,5,2.3,5.93a9.52,9.52,0,0,1,1.5,4.6,29.56,29.56,0,0,1,0,4.43c0,1.33.41,14.65.1,16s-.76,3.66-.94,4.81-.66,1.6-.56,2.83.19,3.16-.68,3.28a10.32,10.32,0,0,1-2.88-.16,14.1,14.1,0,0,0-2.84-.56c-.85,0-1.24,0-1.4-.45a3.87,3.87,0,0,1-.17-.52s-.49,0-.65-.19a2.6,2.6,0,0,1-.61-2,2.45,2.45,0,0,1-2.09-1.06,16.93,16.93,0,0,0-.05-1.78c-.07-.28-.23-.24.05-.68a14.91,14.91,0,0,0,2.95-4.48,7.09,7.09,0,0,1,2.91-1.38A20.24,20.24,0,0,0,105,74c-2.06-4.34-3.1-5.44-3.16-6.17a13.23,13.23,0,0,1-6,.12S95.15,71.9,87,76.3c0,0-1.33,4.74-7.57,9.56,0,0,2.3,7.81-.14,18.52,0,0-1.78,7.74-6.24,11.37,0,0,.35,5.13-4.19,6.17,0,0-.72,3.41-4.75,2.86s-4.89-2.49-4.92-3.24a8.67,8.67,0,0,1,.44-2.17s-1.73-2.25-.44-6.15c0,0-1.57-.18-1.49-3.53s.73-3,.92-3.35a4,4,0,0,0,.18-1.41,3.69,3.69,0,0,0-.13-1.41,1,1,0,0,1-.34-.73l-.08-.58s-.47,1.73-3.17,1.54c0,0,.05,2.75-3.37,3.19,0,0,.31,3.74-5.26,4.66A4.35,4.35,0,0,1,44,114.35s.18.27-.13,1.14a1.18,1.18,0,0,1-.14,1.26c-.49.63-2.79,3.23-3.26,5s-.54,1.43-.65,1.53S42,127.75,42,129.2s-.38,4.66-.89,5.34a2.21,2.21,0,0,1-2.93.54c-1.22-.73-2.13-3.47-2.18-4.1s.14-5,0-5.67a6.42,6.42,0,0,1,0-2.53,2,2,0,0,1-.4-.89,68.37,68.37,0,0,0-.33-7.83c-.4-3.33-.21-3.94.63-4.78A8,8,0,0,1,39.51,105a18.31,18.31,0,0,1,.26-6.14A11.9,11.9,0,0,1,34.21,91s-.84-.06-1-1.37.56-5.81.14-6.65-2.76-1.43-3-3.73A7.59,7.59,0,0,1,30.58,75.57Z"/><path class="cls-2" d="M30.1,74.87c0-.08-.11-7.92,6.31-11.09"/><path class="cls-2" d="M45.89,60.74A8.07,8.07,0,0,0,36,64.4"/><path class="cls-2" d="M37.42,59.1a31.42,31.42,0,0,1,3.66,0"/><path class="cls-2" d="M40.15,60.76a5.67,5.67,0,0,1,2.74-3.23"/><path class="cls-2" d="M43.77,55.54s4.5,4.26,5.27,3.8-2.3-2.48-2.3-2.48"/><path class="cls-2" d="M41.52,57.18s2-.7,5.1,4.53,2.9,12,9.8,12.59"/><path class="cls-2" d="M40.35,67.12s8.72.59,9.45,7.19"/><path class="cls-2" d="M30.58,75.57s.66-2.72,1.6-3.63"/><path class="cls-2" d="M33.3,83a7.79,7.79,0,0,1-.52-3.91"/><path class="cls-2" d="M33.43,84s.47,2.44.5,2.51-.7-2.23,1.71-5.93c0,0-1.19-1.68.38-4.69"/><path class="cls-2" d="M48.64,71.17s1-.95.69-3.25"/><path class="cls-2" d="M46.77,54.3s3.52,1.59,4.12,7.34.24,8.48,3.8,10.92"/><path class="cls-2" d="M54.51,69.74a3,3,0,0,0,1.39,3"/><path class="cls-2" d="M43.77,74.69s8.79-3.52,11.62,6"/><path class="cls-2" d="M40,79.4a29.17,29.17,0,0,0,7.12,2.9"/><path class="cls-2" d="M40.63,72.77c.1-.13,1.72-.51,5.27,1.4"/><path class="cls-2" d="M51.86,52.61s-.7.84-.28,2.93-.07,4,.28,4.7a5.29,5.29,0,0,0,1.43,2.08c.87.79.58,1.73,1.2,2.08a2.83,2.83,0,0,0,.71.35,5.86,5.86,0,0,1-.51-1.81c0-.7.18-.63.51-1.33s.89-1,.54-2.23-1.12-2-.84-2.58S56,55.4,56.08,55s-.89-1.85-.89-1.85A12.74,12.74,0,0,1,57,54.81c.45.63.56,1.64,4.22,1.5a3.6,3.6,0,0,0,1.29-1.26c.49-.84,1.12.1,1.5.7s3.17,4.12,5.13,4.19,3.73-2.48,3.73-2.48c0-.24.66.17.38.84s-.73,1-.63,1.57.7,1.29.7,1.74a5.12,5.12,0,0,0,.17,1.53c.14.31.35-.11.38-.82a3.7,3.7,0,0,1,.8-1.72c.28-.45.59-.26.59-1A7.84,7.84,0,0,0,75,57.46c-.24-1.15.28-2.06.28-2.89s-.66-1.6-1-2.58a4.47,4.47,0,0,1-.32-1.79"/><path class="cls-3" d="M55.9,63.25c.11-.1,1.08-1.12,1.36-1.15s3.58,1.25,5.08,1.5a.34.34,0,0,1,.26.46l-.14.35a.38.38,0,0,1-.48.21,45.85,45.85,0,0,1-4.68-1.9Z"/><path class="cls-2" d="M53.05,62.1s-.81,0-.88.42a11.15,11.15,0,0,1,0,1.57c-.14.87-.31.84,0,1.64s.76,1.25.89,1.81.1,1.4.69,1.64a7.91,7.91,0,0,0,1.64.36"/><path class="cls-2" d="M52.45,62.94a.81.81,0,0,1,.56.49,7.76,7.76,0,0,0,.68,1.33,3.44,3.44,0,0,1,.8,1.22.89.89,0,0,1-.12.73"/><path class="cls-2" d="M53.69,67.65a6.55,6.55,0,0,0-.85-1.33c-.42-.45-.35-.66-.17-1.15s.06-.61.24-1.08.1-.66.1-.66"/><path class="cls-2" d="M53.48,64.42s-.52,1-.37,1.12"/><path class="cls-2" d="M54,65.17s-.71.67-.55,1.15a7.62,7.62,0,0,0,.89,1.43c0,.07.21.38.32-.1a1,1,0,0,0,0-.66"/><path class="cls-2" d="M59,77.59a9.3,9.3,0,0,1-2.55-3.28c-.21-.35,0,0-.53-1.36s-.71-8.2-.71-8.2"/><path class="cls-2" d="M73.49,63.15s.59,2.44,0,3.56-2,3.17-2,3.17"/><path class="cls-2" d="M75.22,60a.58.58,0,0,1,.46.79A20.06,20.06,0,0,1,74,63.15"/><path class="cls-2" d="M72.89,67.72c.21.14,1.15.42,1.61-.07A3.59,3.59,0,0,0,75,65.73a3.8,3.8,0,0,1,.49-1.31c.17-.33-.49-1.71-.24-2.92"/><path class="cls-2" d="M74.22,66.08c0-.1,1.09-.71,1.05-1.37s-.84-1.5-.77-2.39"/><path class="cls-2" d="M74,64.75c0-.14.57-1.45.21-1.81"/><path class="cls-2" d="M63,80.24s5.13.17,6-.52a25.35,25.35,0,0,0,3.87-6.31,21.9,21.9,0,0,0,.32-5.56"/><path class="cls-2" d="M63.36,75.57a.76.76,0,0,0,.92.49,5.46,5.46,0,0,1,2.09-.63c.87,0,1.6.24,1.78-.14a2.92,2.92,0,0,1,.32-.56"/><path class="cls-2" d="M61.84,74.87s-.1,0,.8-.14a6.9,6.9,0,0,0,1.88-.68c.59-.2,2.13-.13,2.51-.3a13.31,13.31,0,0,1,2.65,0"/><path class="cls-2" d="M66.09,78.84s.14,1.11-.33,1.39"/><path class="cls-2" d="M55.29,67.12s-.44,1.57,2.6,3.84"/><path class="cls-2" d="M57.65,68.83c0,.1.28,3.42.45,4.33"/><path class="cls-2" d="M64.45,66.08a20.91,20.91,0,0,0,0,2.13"/><path class="cls-2" d="M64.63,69.74a3.72,3.72,0,0,1,0,.63"/><path class="cls-2" d="M65.76,66.08a27.08,27.08,0,0,0,.35,3.47"/><path class="cls-2" d="M63,69.88c.07.1-.38,1,.33,1.38a7.83,7.83,0,0,1,1.55.68,1.19,1.19,0,0,0,1.4,0c.28-.21,1-1,1.19-1.22"/><path class="cls-2" d="M67.49,68.83a4.86,4.86,0,0,1,.28,1"/><path class="cls-2" d="M67.84,70.3"/><path class="cls-3" d="M66.65,63.15s-.45.45,0,.63a5.33,5.33,0,0,0,3.28-1.26,9.39,9.39,0,0,1,1.53-1.36,4.93,4.93,0,0,1,1,.13s-1-1.09-1.41-.72-1.2,1.57-2.08,1.75A5.16,5.16,0,0,0,66.65,63.15Z"/><path class="cls-4" d="M66.95,64.42s.61-1.64,4.43-.83A5.27,5.27,0,0,1,66.95,64.42Z"/><path class="cls-4" d="M62.25,64.62a2.61,2.61,0,0,1-2.17.83,5.22,5.22,0,0,1-2.2-.94,8.13,8.13,0,0,0,2.62-.43"/><path class="cls-4" d="M59.6,64.35a.92.92,0,0,0,0,1"/><path class="cls-4" d="M61.06,64.29s.08,1-.48,1.18"/><circle class="cls-5" cx="60.26" cy="64.77" r="0.18"/><circle class="cls-5" cx="68.79" cy="63.99" r="0.18"/><path class="cls-4" d="M68,63.57a1.18,1.18,0,0,0,0,1"/><path class="cls-4" d="M69.55,63.38a2.09,2.09,0,0,1,0,1.07"/><path class="cls-4" d="M62.6,64.06s1.09.49,1.27.91"/><path class="cls-4" d="M66.65,63.78a2.74,2.74,0,0,0-.74,1.07"/><path class="cls-4" d="M60.44,66.51a9.64,9.64,0,0,0,2.51-1"/><path class="cls-4" d="M66.45,65.17l2,.56"/><path class="cls-4" d="M73.24,70.37c0-.18,3.84-3.08,4.36-10.4S78.84,51.43,82.69,48"/><path class="cls-4" d="M73.16,71.56a16.23,16.23,0,0,0,7.23-8.9s.45-6.52,1.57-9,2-4.08,3.1-4.88"/><path class="cls-4" d="M76.89,64.06a50.07,50.07,0,0,0-.51-5.87c-.31-2.37-.27-5.46,2.73-7.56"/><path class="cls-4" d="M80.39,62.66a6.52,6.52,0,0,1,1.88-1.1"/><path class="cls-4" d="M80.75,59.2a21.8,21.8,0,0,0,2.82-1.85"/><path class="cls-4" d="M83.32,50.94a12.2,12.2,0,0,1,4.59-.57"/><path class="cls-4" d="M81.93,64.35c0-.12-.8-5.28,5.37-8.53"/><path class="cls-4" d="M78,67.12s5.71,2.52,6.51,4.43"/><path class="cls-4" d="M90.65,53.66c.1,0,8.69.12,7.88,6.43s-8.27,8.75-8.27,8.75"/><path class="cls-4" d="M82.06,62.15s4.68-1.44,9.92-8.49"/><path class="cls-4" d="M91.82,52s2.4,1.27,2.55,2.34"/><path class="cls-4" d="M95.83,68s1.14-.54,1.26-4.13"/><path class="cls-4" d="M100.95,52.05a9.21,9.21,0,0,1,2.17,1.88"/><path class="cls-4" d="M101.68,55.56c.1-.05,3.92-.81,6.55.52"/><path class="cls-4" d="M112.42,59.14a10.26,10.26,0,0,0-2-2.42"/><path class="cls-4" d="M112.59,69.48c0-.08,1.18-.89,1.42-4"/><path class="cls-4" d="M101.83,67.86s6.86-2.12,4.69-8.08"/><path class="cls-4" d="M107,80.86s2.31-2.27,7.15-.62"/><path class="cls-4" d="M107.06,81.79s1.82-1.9,3.5-1.38"/><path class="cls-4" d="M107.88,73.3a62.83,62.83,0,0,1,.93,6.72"/><path class="cls-4" d="M104.82,86.43A2.74,2.74,0,0,0,107.54,85"/><path class="cls-4" d="M103.57,90a5.63,5.63,0,0,1,5-2.38"/><path class="cls-4" d="M101.15,88.33a2,2,0,0,0,1.94,1.28"/><path class="cls-4" d="M104.66,90.91c.26.05.52.58,1.23,0a10.72,10.72,0,0,0,1.17-1.12,5.73,5.73,0,0,0-.07-1.67c-.05-.18-.63-.28-.63-.28"/><path class="cls-4" d="M105.34,89c.13,0,2.62.89,3,2.9"/><path class="cls-4" d="M104.55,93.37s1.53-.46,4.26,1.49c0,0,2.26.85,2.57-.77s0-1.6,0-1.6"/><path class="cls-4" d="M111.41,91.64a11.25,11.25,0,0,1,.94-2.88"/><path class="cls-4" d="M34.21,91c.24.14,3.21,2.16,3.21,2.16"/><path class="cls-4" d="M39.77,98.82a3.13,3.13,0,0,0,2.91,1.24,4.58,4.58,0,0,1-2.34-3c-.35-2,.21-7.57,4.47-10.53"/><path class="cls-4" d="M39.65,93.15s-.24,1.47,2.09,3.73"/><path class="cls-4" d="M41.52,97.26c-.06.1,1.16,2.79,1.16,2.79s.42,2.51,4.08,3.31c0,0,2.16,2.9,3.21,3.21a9.12,9.12,0,0,0,1.68.37"/><path class="cls-4" d="M58.2,102.21a6.62,6.62,0,0,0,1.23-1.91,3.09,3.09,0,0,0,2.86-.22,6.49,6.49,0,0,0,1.81-2.33,3.11,3.11,0,0,0,2.2,0A3.79,3.79,0,0,0,68.6,95c.28-1.62-.73-5.7-2.49-8.7s-3.33-6.52-3.72-7.26-2.72-2.13-3.8-1.26-1.6,2.37-2.16,2.69-.85.38-1.94-.07-2.59-.87-3.4.14-.7,3-1.12,3.28-2.41-.35-3.39.28-1.53.63-1.92,3.77c0,0,.31,1.6-.17,2s-2.44,1.57-2.58,3-.45,2.2,1.64,4.19,2.44,1.71,2.76,3.14"/><path class="cls-4" d="M43,98.24c.1.1,3.77,5.13,3.77,5.13"/><path class="cls-4" d="M48.23,93.6a16.64,16.64,0,0,1,2,3.07c.77,1.71,3,6.56,4.81,7.08"/><path class="cls-4" d="M53.57,89.86c0,.11,4.36,9.21,5.86,10.43"/><path class="cls-4" d="M59,85.37c0,.21-.1.8,2.34,4.92s3,7.12,2.79,7.47"/><path class="cls-4" d="M45.69,89.1s.17.63,1.78,1.33S49,92.07,49,92.07"/><path class="cls-4" d="M49.8,85.65A10.34,10.34,0,0,1,51,88.37,6.62,6.62,0,0,0,52.1,91"/><path class="cls-4" d="M50.73,83.76a3.92,3.92,0,0,0,1.69,2.13c1.12.49.56.21.56.21"/><path class="cls-4" d="M56,81.6a12,12,0,0,1,.45,2.68,10.23,10.23,0,0,0,1.15,3.46"/><path class="cls-4" d="M87,76.3a11.27,11.27,0,0,0,.52-2.13"/><path class="cls-4" d="M70.12,78.36a17.22,17.22,0,0,0,6.62-2.07l6.21,3.77s-5.72,6.56-13,9.28"/><path class="cls-4" d="M64.35,83.06c-.06-.11,5-2.41,8.89-.42l5-1.33-.51-2.86s3,2.79,2.92,2.83S77.68,84,77.68,84a3.71,3.71,0,0,0-1.82-.94,8.21,8.21,0,0,0-2.58.1c-.1,0-7.22,2.24-7.78,2"/><path class="cls-4" d="M73.75,79.82a24.7,24.7,0,0,0,2.5.73A8,8,0,0,1,76,78.84Z"/><path class="cls-4" d="M66.11,86.31a19.53,19.53,0,0,1,4.24,3.3,2,2,0,0,1,.52,1c.1,1.38-.31,3.36.17,4.5s1.67,3.93-.49,6.19c0,0-4,.91-6.21,1.64s-2.65.73-3,.45-1.31-3.1-1.3-2.89"/><path class="cls-4" d="M79.38,85.86s-6.2,3.53-9,3.75"/><path class="cls-4" d="M66.64,86.62c.07,0,7.47-2.51,7.4-1.25s-2.13,1.78-4,2-2.09.41-2.09.41"/><path class="cls-4" d="M68.65,88a16.18,16.18,0,0,0,2.47-.3l-1.61,1"/><path class="cls-4" d="M63.58,98.68s2.65-.21,2.53,1.41,0,1.54-1,2.61"/><path class="cls-4" d="M61.38,100.5a5.62,5.62,0,0,0,1,3"/><path class="cls-4" d="M69.72,95.38s1.43-.47,1.53,4.7"/><path class="cls-4" d="M75,88.08s3.27.15,5,12.22"/><path class="cls-4" d="M60.7,102.21s-2.49,5-1.13,9.53c0,0,.14.63-1,.07s0-5.27,0-5.47"/><path class="cls-4" d="M63.2,106.51s-3.09,3.84-4.06,6.72"/><path class="cls-4" d="M59.59,119.37a5.6,5.6,0,0,1,1.27-2.75"/><path class="cls-4" d="M68.81,121.93a33.57,33.57,0,0,0,2.09-5.72"/><path class="cls-4" d="M73,115.75s-2,2.55-2.77,2.81"/><path class="cls-4" d="M39.51,105a4.93,4.93,0,0,0,.45,2"/><path class="cls-4" d="M39.31,109.86a2.32,2.32,0,0,0,.43,2.18c.85,1.05,3.5,3,5.69-.55a4.11,4.11,0,0,0,1,.1"/><path class="cls-4" d="M35.65,109.43a3.06,3.06,0,0,0,1,2.27c1.1,1.18,2.25,1.78,2.72,2.85s.24,1.57.63,1.65,1.41-.76,1.56-.78,2.37.07,2.37.07"/><path class="cls-4" d="M42.66,114.84a1.64,1.64,0,0,1,1.36-.5"/><path class="cls-4" d="M35.2,110.09a2.82,2.82,0,0,0,.9,1.93c.92.88,3,2.6,3,3.6"/><path class="cls-4" d="M39.51,116.47s-3.23,2.55-3,3.72,1.3,2.76,1.4,3.27a27,27,0,0,0,2.89-3.14,22.68,22.68,0,0,0-.8-3.6s.84.31,1.12,0a7.69,7.69,0,0,1,1-.81s1.62.31,1.88,0"/><path class="cls-4" d="M35.9,122.78a4.06,4.06,0,0,0,.87.82"/><path class="cls-4" d="M38.69,123.67c.07,0,.91-.13,1.15-.37"/><path class="cls-4" d="M36.39,123.3a4.91,4.91,0,0,0,0,2,6.66,6.66,0,0,1,.39,2.88c-.23.7-.35.52-.21,1.52s-.16,3.23,1.8,4.67a2,2,0,0,1,2.11-.78l.47-.12s1.06-4.11.65-5.87"/><path class="cls-4" d="M39.09,134.55c.05-.07.66-.05,1-.23a.73.73,0,0,0,.35-.35"/><path class="cls-6" d="M53.06,50.7A3.89,3.89,0,0,0,50.63,54c-.05.59.82.53,1.21.47s1.62-.34,1.67-.9a4,4,0,0,1,.32-1.26,2.31,2.31,0,0,1,.27-.46c.12-.16.36-.3.05-.17.3-.13,1.23-.57.81-1s-1.48-.12-1.9.05Z"/><path class="cls-6" d="M52.6,51.4a8.31,8.31,0,0,0-1.41,3.77c-.19,1.45,2.76,1.05,2.93-.23A6.08,6.08,0,0,1,55,52.22c1.05-1.5-1.67-1.89-2.42-.83Z"/><path class="cls-6" d="M52.9,52.63a5.11,5.11,0,0,0-.69,2.82c0,.67.73.81,1.29.76s1.63-.41,1.63-1.06a4.23,4.23,0,0,1,.5-2.34c.38-.59-.33-1-.83-1a2.17,2.17,0,0,0-1.9.83Z"/><path class="cls-6" d="M53.5,54.34A12.53,12.53,0,0,0,53,56.39c-.14.49.94.3,1.16.27a4.41,4.41,0,0,0,1.1-.34c.18-.09.54-.23.6-.44a12.52,12.52,0,0,1,.52-2.06c.23-.47-1-.29-1.16-.27-.47.08-1.46.28-1.7.78Z"/><path class="cls-6" d="M50.92,57a11,11,0,0,0,.51,3.42c.23.68,1.11.76,1.71.6s1.41-.7,1.18-1.38a9.2,9.2,0,0,1-.47-2.86c0-.72-.7-1-1.34-.95s-1.61.46-1.6,1.17Z"/><path class="cls-6" d="M51.7,58.13a14.26,14.26,0,0,0,.84,4.19c.25.75,3.13-.08,2.9-.78a14.26,14.26,0,0,1-.84-4.19c0-.59-2.92-.12-2.9.78Z"/><path class="cls-6" d="M52.54,57.64c0,.95.27,1.87.33,2.81s.05,1.91.05,2.87c0,.8,2.9.29,2.9-.78s0-1.92-.05-2.87-.31-1.87-.33-2.81-2.92-.29-2.9.78Z"/><path class="cls-6" d="M53.55,59a8.64,8.64,0,0,1-.13,2.45c-.22.79,2.64.38,2.87-.45a9.84,9.84,0,0,0,.15-2.78c0-.65-2.91-.18-2.9.78Z"/><path class="cls-6" d="M55.79,50.34a3.47,3.47,0,0,1,.53-1.53c.63-1.22-2.26-.91-2.7-.06a4.89,4.89,0,0,0-.73,2.37c0,.23.41.37.56.4a2.4,2.4,0,0,0,1.08-.06c.54-.15,1.26-.47,1.25-1.11Z"/><path class="cls-6" d="M57,51.82a2.14,2.14,0,0,1,.42-1c.32-.56-.28-.75-.76-.75s-1.61.21-1.92.76a3.24,3.24,0,0,0-.63,1.38c0,.61.79.59,1.23.53S57,52.39,57,51.82Z"/><path class="cls-6" d="M57.37,52.15c.09-.14.18-.28.28-.42.34-.46.21-.06-.76.14.48-.1,1.52-.3,1.67-.88s-.94-.49-1.2-.44a3.77,3.77,0,0,0-2.65,1.68c-.35.53.31.66.73.65a2.7,2.7,0,0,0,1.93-.74Z"/><path class="cls-6" d="M58.18,53.65a3,3,0,0,1,1.09-1c.48-.33.32-.75-.22-.82a3.1,3.1,0,0,0-2,.55,4.68,4.68,0,0,0-1.7,1.72c-.26.55,1,.47,1.2.44.56-.08,1.41-.32,1.67-.88Z"/><path class="cls-6" d="M59.39,54.4a17.69,17.69,0,0,1,1-2.32c.31-.63-.28-1.05-.85-1.11a2,2,0,0,0-1.89.86,21.25,21.25,0,0,0-1.2,2.84c-.22.68.88.89,1.31.85a1.77,1.77,0,0,0,1.61-1.12Z"/><path class="cls-6" d="M60.22,54.34c.17-.38.33-.77.53-1.13a1.44,1.44,0,0,1,.25-.37c.14-.16.14-.05.05-.06l-.13.07q.23-.11-.05,0c.56-.15,1.37-.68,1.19-1.37s-1.16-.74-1.71-.6c-1.59.42-2.27,1.75-2.9,3.13-.3.65.27,1.13.88,1.21a1.91,1.91,0,0,0,1.89-.88Z"/><path class="cls-6" d="M60.4,55.24a7.68,7.68,0,0,1,2-2.62c.49-.43-.44-.45-.67-.43a3.62,3.62,0,0,0-1.94.68,8.64,8.64,0,0,0-2.28,2.89c-.21.46,1,.27,1.15.24.44-.08,1.48-.28,1.7-.77Z"/><path class="cls-6" d="M62.17,55.42c0-.7.57-1.73,1.49-1.34.44.18.68,1.18.84,1.61a7.82,7.82,0,0,0,1.38,2.91,5.75,5.75,0,0,0,5.42,1.22c1.68-.55,1.36-1.92-.36-1.36-.93.3-2.36-.87-2.77-1.57a15.12,15.12,0,0,1-.86-2.2c-.48-1.22-1.11-2.23-2.49-2.46-2.17-.37-5.42,1.16-5.55,3.59-.06,1.12,2.84.53,2.89-.39Z"/><path class="cls-6" d="M63.73,54.45c-.59.55-1.17,0-.66.37.18.13.36.26.54.4a3.6,3.6,0,0,1,.77.84c.65,1,3.44,0,2.66-1.24A5.62,5.62,0,0,0,64.87,53a3.21,3.21,0,0,0-3.54.74A.75.75,0,0,0,61.68,55a2.15,2.15,0,0,0,2-.55Z"/><path class="cls-6" d="M62.9,52.9s1.72.93,1.93,1.11a3.21,3.21,0,0,1,.91,1.62c.4,1.24.62,2.48,1.77,3.28,1.89,1.31,3.92-.14,5.6-1.08s-.87-1.29-1.78-.78c-.29.16-1.45,1-1.75,1q.5-.84-.44-1.44a6,6,0,0,1-.4-1.2A4.11,4.11,0,0,0,67,52.57c-1.81-1.2-4-1.67-5.91-.45-1.65,1,.89,1.35,1.78.78Z"/><path class="cls-6" d="M59,46.47c.53-.45,2,0,2.56.26a9.13,9.13,0,0,1,1.95,1.5c.79.64,3.48-.49,2.69-1.13a8.37,8.37,0,0,0-4.69-2.35A6,6,0,0,0,56.66,46c-.5.42-.26.85.27,1a2.49,2.49,0,0,0,2-.55Z"/><path class="cls-6" d="M60,47.36c.48-.33,3.57,2.61,4.25,2.88a7.78,7.78,0,0,0,5.21-.1c1.75-.59,1.22-2.71-.57-2.12a4,4,0,0,1-4-.49,16.38,16.38,0,0,0-2.31-1.82,4.3,4.3,0,0,0-4.55.21c-1.61,1.12.72,2.29,2,1.44Z"/><path class="cls-6" d="M61.59,48.7c-.52.37-.47,0,.07.34a14.43,14.43,0,0,1,1.32.77c.53.4,1,.9,1.57,1.25a7.22,7.22,0,0,0,3.85.76c.56,0,1.66-.19,1.91-.8s-.21-.88-.79-.89a4.5,4.5,0,0,1-3.15-.9A10.23,10.23,0,0,0,64,47.61a4.34,4.34,0,0,0-4.17.19c-1.59,1.14.87,1.57,1.81.9Z"/><path class="cls-6" d="M63.11,51.33c1.31-.1,2.24,1,3.32,1.56a4.27,4.27,0,0,0,2.86.5c.57-.1,1.54-.38,1.62-1.09s-.78-.9-1.3-.8c-1,.18-2.05-1-2.89-1.42a5.61,5.61,0,0,0-3.29-.64c-.57,0-1.55.42-1.62,1.09s.78.84,1.3.8Z"/><path class="cls-6" d="M63.52,46.37c1.31.06,2.11,1.2,3.16,1.79A3.74,3.74,0,0,0,70.21,48c.45-.22.8-.67.29-1s-1.56.07-2,.31l.79-.29L69,46.81a7,7,0,0,0-.55-.44,8.4,8.4,0,0,0-1.08-.76,5.57,5.57,0,0,0-2.64-.71,2.46,2.46,0,0,0-1.92.75c-.35.57.3.69.75.71Z"/><path class="cls-6" d="M65.67,48.19l-1,.26.19,0a4,4,0,0,0,.5.18c.3.12.58.27.88.39a4.46,4.46,0,0,0,1.9.36,2.86,2.86,0,0,0,1.94-.71c.39-.51-.35-.54-.7-.53a4,4,0,0,1-1.18-.48,6,6,0,0,0-1.25-.45,4.77,4.77,0,0,0-3.49.78c-.47.32-.35.63.19.7a3.38,3.38,0,0,0,2-.55Z"/><path class="cls-6" d="M67.09,45.59c.72-.22,2,1.13,2.46,1.62a7.13,7.13,0,0,1,1.62,2.87c.21.77.19,1.58.46,2.34.35,1,1,1.91,1.42,2.89s3.22,0,2.9-.78a19.11,19.11,0,0,1-1.68-4,8.46,8.46,0,0,0-1.4-3.62c-1.47-2-3.64-3.24-6.11-2.5-1.69.5-1.4,1.74.33,1.22Z"/><path class="cls-6" d="M70.85,52.86A8.59,8.59,0,0,0,72,56.25c.87,1.32.51,2.59.67,4.11.13,1.18,3,.5,2.9-.78s.28-2.67-.42-3.87a8.38,8.38,0,0,1-.86-1.37,14.79,14.79,0,0,1-.5-2.26c-.2-1.2-3.11-.48-2.9.78Z"/></g></g></svg>