<svg xmlns="http://www.w3.org/2000/svg" viewBox="0 0 169.68 101.2"><defs><style>.cls-1{fill:#fff;}.cls-1,.cls-2{stroke:#000105;stroke-linecap:round;stroke-linejoin:round;}.cls-2{fill:none;}</style></defs><title>tent</title><g id="Слой_2" data-name="Слой 2"><g id="Layer_10" data-name="Layer 10"><path class="cls-1" d="M4.28,92s20-28,25.13-41.13S44.51,17.34,47.77.5c0,0,44.24,45.61,98.84,37.14l.72-.12S155.22,83,160.22,85.31v1.18s-49.92,12.73-73,11L61,99.41l-38.9-6.07Z"/><path class="cls-2" d="M47.77.5c-1.05,63.27-24.31,93.06-24.53,93"/><path class="cls-2" d="M61,99.41"/><path class="cls-2" d="M61,99.41s-9.55-37.15-11-53.73S47.45,9.77,47.45,9.77"/><path class="cls-2" d="M88.25,97.52S49.19,9.51,49.07,1.77"/><path class="cls-1" d="M45.58,29.56s-.49,22.33-.84,28.5-3,35.58-2.87,37,.55,3.27,3.71,2.48c0,0-.2-16.85,0-20.9S46.39,57,46.39,57l1.74-27.49.24-2.15L47.22,13.58S46.6,25.71,45.58,29.56Z"/><path class="cls-1" d="M96.44,78.06S85,92.81,86.94,99.9c1.3,4.8,14.75-13.61,14.75-13.61S102.61,77.23,96.44,78.06Z"/><path class="cls-1" d="M96.44,78.06s.49,7,5.25,8.23"/><path class="cls-1" d="M158.22,85.25c0-.33,8.07-12.87,8.07-12.87s4.45,3.65,2.32,7.77-10.39,6.68-10.39,6.68Z"/><path class="cls-1" d="M166.58,72.38s-2,7.87,1.91,8.64"/><path class="cls-1" d="M6.5,88.81l-6-8.27S-.06,74.87,4.07,73L8.82,85.44Z"/><path class="cls-2" d="M44.15,50.28c-2,3-1.36,2.9-2.93,6.47"/><path class="cls-2" d="M42.28,65.72,36.55,72.9"/><path class="cls-2" d="M40.47,77.76a146.7,146.7,0,0,0-11,12"/><path class="cls-2" d="M39.61,86.72l-5.45,7.82"/><path class="cls-2" d="M50.29,58.49,47.1,64"/><path class="cls-2" d="M52,68.27Q49.14,72,46.56,76l.42-.13"/><path class="cls-2" d="M53.64,79.28a49.38,49.38,0,0,0-5.91,8.89"/><path class="cls-2" d="M55.85,87.8A34.52,34.52,0,0,1,52.2,94l-.07-.77"/><path class="cls-2" d="M64.71,18.29l-2.08,6.95c1.19.89,2.76.42,4.1-.11s2.87-1.08,4.12-.32L68.18,31.9c-.3.81-.53,2,.13,2.4a25.71,25.71,0,0,0,5.61-4.83"/><path class="cls-2" d="M75.47,28,68.3,40.75a5.19,5.19,0,0,0-.95,3.32L73.29,36"/><path class="cls-2" d="M135.58,49c.1.3.47-.24.23-.41s-.54.06-.75.28a151.94,151.94,0,0,0-14.6,17.42,9.67,9.67,0,0,0-2.16,4.66,215.94,215.94,0,0,1,22.47-16.19L123.5,77.87c-1.69,2.26-3.48,4.92-3.12,7.87l13.49-11.8a73.62,73.62,0,0,1,9.78-7.63l-6.48,9.05c-.42.58-.72,1.68-.09,1.89a30.69,30.69,0,0,1,5.26-2.81l-1.91,4.28a.48.48,0,0,0,.88,0"/></g></g></svg>