<?xml version="1.0" encoding="utf-8"?>
<!-- Generator: Adobe Illustrator 21.0.2, SVG Export Plug-In . SVG Version: 6.00 Build 0)  -->
<svg version="1.1" xmlns="http://www.w3.org/2000/svg" xmlns:xlink="http://www.w3.org/1999/xlink" x="0px" y="0px"
	 viewBox="0 0 555 180" style="enable-background:new 0 0 555 180;" xml:space="preserve">
<style type="text/css">
	.st0{display:none;}
	.st1{display:inline;fill:#EEB755;stroke:#586DB0;stroke-miterlimit:10;}
	.st2{display:inline;}
	.st3{fill:#0D0E0F;}
	.st4{fill:none;stroke:#0D0E0F;stroke-miterlimit:10;}
	.st5{fill:#FFFFFF;}
	.st6{fill:#FFFFFF;stroke:#0D0E0F;stroke-miterlimit:10;}
</style>
<g id="Слой_3" class="st0">
	<rect x="-145.4" y="-2037.4" class="st1" width="1306" height="2822"/>
</g>
<g id="Слой_18">
</g>
<g id="Слой_2" class="st0">
	<g class="st2">
		<g>
			<g>
				<path class="st3" d="M-159.7-2084.3c-2,1.7-4.9,4.9-4.7,7.7c0.1,1.7,0.7,3.5,1.1,5.2c1.6,6.6,3.3,13.2,5.1,19.8
					c2,7.3,4,14.5,6.1,21.8c0.7,2.4,1.4,4.7,2.1,7.1c0.3,0.8,0.5,2.3,1.2,2.9c0.9,0.7,3,0.5,4,0.5c2.3,0.1,4.7,0,7-0.1
					c1.4-0.1,3.1-0.1,4.4-0.6c1.9-0.7,2.8-2.9,3.6-4.6c0.3-0.6-0.6-1.1-0.9-0.5c-0.9,1.9-1.7,3.9-3.9,4.3c-1.4,0.3-2.8,0.3-4.2,0.4
					c-1.8,0.1-3.7,0.1-5.5,0.1c-0.9,0-3.3,0.3-4-0.3c-0.6-0.6-0.9-2.6-1.1-3.4c-0.7-2.3-1.4-4.5-2-6.8c-3.6-12.6-7.1-25.3-10.3-38
					c-0.5-2.2-1.1-4.4-1.5-6.7c-0.6-3.1,1.8-6,4.2-8C-158.5-2084-159.2-2084.7-159.7-2084.3L-159.7-2084.3z"/>
			</g>
		</g>
		<g>
			<g>
				<path class="st3" d="M-126-2085c-2.3,0.1-4.6,0.5-6,2.5c-1.4,2-1.9,4.7-2.5,7c-1.8,6.5-3.2,13.2-4.6,19.8
					c-0.1,0.6,0.8,0.9,1,0.3c1.1-5.6,2.4-11.2,3.8-16.7c0.6-2.5,1.3-4.9,2.1-7.3c1.1-3.2,2.9-4.3,6.3-4.5
					C-125.3-2084-125.3-2085-126-2085L-126-2085z"/>
			</g>
		</g>
		<g>
			<g>
				<path class="st3" d="M-93.7-2083.1c0.6,0,0.6-1,0-1C-94.4-2084.1-94.4-2083.1-93.7-2083.1L-93.7-2083.1z"/>
			</g>
		</g>
		<g>
			<g>
				<path class="st3" d="M-93.7-2083.1c0.6,0,0.6-1,0-1C-94.4-2084.1-94.4-2083.1-93.7-2083.1L-93.7-2083.1z"/>
			</g>
		</g>
		<g>
			<g>
				<path class="st3" d="M-93.1-2085c-2.4,1.2-5.2,2.5-6.2,5.2c-1.2,2.9-2,5.9-2.8,8.9c-1.6,5.7-3.4,11.4-4.3,17.2
					c0.2-0.1,0.5-0.2,0.7-0.3c-0.1,0-0.1-0.1-0.2-0.1c-0.6-0.3-1.1,0.6-0.5,0.9c0.1,0,0.1,0.1,0.2,0.1c0.3,0.1,0.7,0,0.7-0.3
					c0.8-5.3,2.4-10.5,3.8-15.7c0.8-3,1.7-5.9,2.7-8.9c0.3-0.8,0.5-1.9,1.1-2.6c1.1-1.5,3.6-2.6,5.3-3.5
					C-92-2084.5-92.5-2085.3-93.1-2085L-93.1-2085z"/>
			</g>
		</g>
		<g>
			<g>
				<path class="st3" d="M-97.8-2024.6c-2.2,3.1-4.7,5.4-8.6,5.4c-2.5,0-5.3,0.1-7.7-0.6c-3-0.8-3.6-5.5-4.3-8.1
					c-1.3-4.6-2.3-9.2-3.2-13.8c-0.6-3.2-1.4-6.6-1.6-9.9c0-0.6-1-0.6-1,0c0.1,3.9,1.1,7.9,1.9,11.7c1.1,5.3,2.2,10.6,3.9,15.7
					c0.4,1.3,0.9,3.1,1.8,4.2c1,1.2,2.8,1.3,4.3,1.5c2.5,0.3,5.4,0.6,8,0.2c3.1-0.4,5.6-3.4,7.3-5.8
					C-96.6-2024.7-97.4-2025.2-97.8-2024.6L-97.8-2024.6z"/>
			</g>
		</g>
		<g>
			<g>
				<path class="st3" d="M-75.9-2084.9c-2.8,3.1-5.9,5.9-6.2,10.3c-0.1,1.9,0,3.8,0,5.8c0.1,6.6,0.3,13.3,0.5,19.9
					c0.2,7,0.4,14,0.8,21c0.1,2,0.2,4.1,0.5,6.1c0.1,1,0.1,1.5,1,1.9c1.3,0.5,3.3,0.5,4.7,0.6c2.2,0.2,4.4,0.4,6.7,0.3
					c3.7-0.2,5.4-2.4,7-5.6c0.3-0.6-0.6-1.1-0.9-0.5c-0.7,1.4-1.7,3.1-2.9,4.2c-1.2,1.1-3.2,0.9-4.8,0.9c-1.7,0-3.4-0.1-5.1-0.3
					c-1.3-0.1-3.1-0.1-4.3-0.6c-0.4-0.2-0.2,0.3-0.4-0.5c-0.1-0.6-0.2-1.3-0.2-2c-0.2-2.2-0.3-4.4-0.4-6.5c-0.6-12.3-1-24.7-1.2-37
					c0-2.1-0.1-4.2-0.1-6.3c0.1-4.9,3-7.5,6-11C-74.8-2084.6-75.5-2085.3-75.9-2084.9L-75.9-2084.9z"/>
			</g>
		</g>
		<g>
			<g>
				<path class="st3" d="M-42.1-2085c-2,0.7-5,2.1-6.2,3.8c-0.8,1.2-0.8,3.1-0.9,4.5c-0.4,5.3-0.2,10.7-0.2,16c0,0.6,1,0.6,1,0
					c0-4.5-0.1-8.9,0-13.4c0.1-1.8-0.1-4.2,0.5-5.9c0.8-2,4.1-3.4,6-4.2C-41.2-2084.2-41.5-2085.2-42.1-2085L-42.1-2085z"/>
			</g>
		</g>
		<g>
			<g>
				<path class="st3" d="M-62.4-2044.7c0.6,1.5,6.4,0.5,7.7,0.4c1.3,0,4.7-0.6,5.1,0.8c0.4,1.1-0.1,3-0.1,4.1c0,1.6,0,3.2,0,4.8
					c0,2.8,0.1,5.7,0.3,8.5c0.1,1.6,0,3.7,0.6,5.3c0.4,1,0.9,1.1,2,1.3c2.3,0.3,4.6,0.2,6.9,0.2c2-0.1,4.2,0.1,6.1-0.3
					c2.5-0.5,3.8-2.8,5-4.9c0.3-0.6-0.5-1.1-0.9-0.5c-0.9,1.6-2,3.6-3.9,4.3c-1,0.3-2,0.2-3,0.2c-2.5,0.1-5.1,0.3-7.6,0.2
					c-0.8,0-3.1,0.2-3.6-0.5c-0.4-0.5-0.3-1.8-0.4-2.4c-0.3-3.1-0.4-6.1-0.5-9.2c-0.1-3.4-0.1-6.8,0.1-10.2c0.1-1.6,0.2-2.2-1.4-2.6
					c-1.9-0.4-4.1-0.2-6.1-0.1c-1.1,0-2.2,0.1-3.4,0.1c-0.5,0-0.9,0-1.3,0c-0.4,0-0.7-0.3-0.6,0.1
					C-61.6-2045.5-62.6-2045.3-62.4-2044.7L-62.4-2044.7z"/>
			</g>
		</g>
		<g>
			<g>
				<path class="st3" d="M-1.2-2069.2c3.9-3.1,7.9-0.3,8.6,4.1c0.5,3.3,0.4,6.8,0.2,10.1c-0.3,6.8-1.4,13.5-1.4,20.2
					c0.3,0,0.7-0.1,1-0.1c-0.1-0.4-0.2-0.5-0.5-0.8c-0.4-0.5-1.2,0.2-0.7,0.7c0.1,0.1,0.1,0.2,0.2,0.4c0.2,0.5,1,0.5,1-0.1
					c0-9.6,2.1-19.1,1.3-28.8c-0.2-2.6-0.7-5.2-2.9-6.9c-2.5-1.9-5.2-1.3-7.5,0.5C-2.4-2069.5-1.7-2068.8-1.2-2069.2L-1.2-2069.2z"
					/>
			</g>
		</g>
		<g>
			<g>
				<path class="st3" d="M-7.6-2082.3c-2.4,0.9-4.5,2.8-6.5,4.4c-2.5,2.1-4.7,4.4-6.4,7.2c-4.1,6.6-5.8,14.7-5.8,22.5
					c0,13.4,8.8,27,22.6,29.6c8.6,1.6,15.9-2.5,22.1-8.1c0.5-0.4-0.2-1.1-0.7-0.7c-5.6,5-12,9-19.8,8c-6.3-0.8-11.9-4.3-16-9
					c-9.1-10.5-9.1-26.7-3.2-38.9c1.6-3.3,3.7-6.3,6.5-8.7c2.2-2,4.7-4.3,7.5-5.4C-6.8-2081.6-7-2082.5-7.6-2082.3L-7.6-2082.3z"/>
			</g>
		</g>
		<path class="st4" d="M76.8-2084.5c-2.4,1.3-6,2.7-7.4,5.1c-0.5,0.8-19.2,56.3-18.6,57.3c0.7,1.3,13,3.1,14.4,2.3
			c1.3-0.7,2.5-2.3,4.1-4.9"/>
		<path class="st4" d="M111.1-2024.9c-0.5,1.7-1.9,3.2-3.1,4.4c-0.9,0.8-14.6,0.7-15.2,0c-1.2-1.2-3.9-10.2-4.4-10.6
			c-1.2-0.9-4.6-0.6-6.8-0.6c-3.5,0-6.7-0.2-10.1-0.3"/>
		<path class="st4" d="M79.5-2060.6c1.3,4.9,3.1,8.2,4.9,13"/>
		<path class="st4" d="M117.6-2084.5c-2.5,2.6-5.5,5.2-5.8,6c-0.3,0.9,1.2,58.2,1.8,58.5c0.3,0.2,12.4,0.3,13.2-0.3
			c0.9-0.6,2.1-2.8,2.6-4.3"/>
		<path class="st4" d="M129.8-2051c0.6,1.8,8.1,29.6,9.1,31c0.1,0.1,10,1.3,11.4,0.5c1.3-0.8,2.2-2.8,3.5-5"/>
		<path class="st4" d="M163-2056.3c0.1,10.6,0.1,35,0.8,36c0.8,1.2,15.3,1.2,15.5,0.8c1.5-2.4,2.2-3.1,3.8-5.5"/>
		<path class="st4" d="M161.1-2084.5c-1.9,1.1-7.1,5.2-7.7,5.9c-0.4,0.5-4.7,15.1-5.6,23"/>
		<path class="st4" d="M217.7-2083.9c-2.2,1.9-5.7,4.9-6.2,6.8c-0.5,1.9-0.8,54.9,0.3,57.8c0.2,0.4,10.1,1.2,13.2,0.8
			c1.8-0.2,5.2-3.3,6.7-6.3"/>
		<path class="st4" d="M248.8-2082.5c-7.5,2.6-13.4,8.9-13.7,16.8c-0.1,1.2,0,3.6,0.8,4.6c0.6,0.7,9.2,1.4,10.6,1.1
			c0.7-0.1,3-1.9,4-3.9"/>
		<path class="st4" d="M252.3-2070.3c2.1-0.9,4.9-1.5,7.1-0.7c1.4,0.5,2.4,1.9,2.8,3.3c0.3,0.8,0,1.8-0.1,2.7
			c-0.4,2.8-1.2,5.5-2.3,8"/>
		<path class="st4" d="M257-2056c-1.6,1.1-3.8,2.6-5.2,4.1c-0.8,0.8-1.5,1.7-2,2.7c-1.1,2.1-0.8,9.3-0.1,10.1
			c0.6,0.6,9.5,1.4,10,1.3c2.1-0.7,4.3-2.4,5-4.2"/>
		<path class="st4" d="M253.5-2037.3c-1.1,1-4.5,3.8-4.8,4.5c-0.3,0.8-0.1,12.3,1,13c0.6,0.4,12.8,0.2,13.7-0.5c0.6-0.5,3.2-3,4-4.5
			"/>
		<path class="st4" d="M211.1-2070.9"/>
		<path class="st4" d="M270.1-2025.2"/>
		<path class="st4" d="M-158.5-2080.8c-1.6,3.3-2.9,6.2-4.3,9.6"/>
		<path class="st4" d="M-156.4-2073.2c-1.6,3.6-2.8,6.9-4,10.7"/>
		<path class="st4" d="M-154.1-2063.1c-1.7,3-3.1,5.7-4.3,8.8"/>
		<path class="st4" d="M-152-2054.5c-1.6,2.6-3,5.2-4.3,7.9"/>
		<path class="st4" d="M-149.2-2044.4c-1.3,2.8-2.9,6.3-4,9.2"/>
		<path class="st4" d="M-147.3-2036.4c-1.3,2.8-2.5,5.7-3.6,8.6c0-0.1,0-0.2,0.1-0.3"/>
		<path class="st4" d="M-145-2027.9c-1.2,2.3-2.5,4.6-3.8,6.8"/>
		<path class="st4" d="M-141.7-2023.9c-1,1.4-1.9,2.8-2.7,4.3c0-0.1,0-0.1,0.1-0.2"/>
		<path class="st4" d="M-137.3-2024.2c-0.9,1.3-1.8,2.8-2.5,4.2c0,0,0-0.1,0-0.1"/>
		<path class="st4" d="M-133.3-2024.2c-0.8,1.2-1.6,2.4-2.3,3.7"/>
		<path class="st4" d="M-126-2083.8c-2.3,1.4-4.6,2.9-6.9,4.4"/>
		<path class="st4" d="M-127.7-2078.5c-2.5,1.6-4.4,3.1-6.7,4.9"/>
		<path class="st4" d="M-129.3-2071.1c-2.3,1.2-4.4,2.4-6.8,3.6"/>
		<path class="st4" d="M-130.9-2065.4c-2.2,1.4-3.9,2.1-6.3,3.3"/>
		<path class="st4" d="M-132.3-2058.6c-1.6,1.7-3.9,2.6-5.8,4c0.1-0.1,0.2-0.1,0.3-0.2"/>
		<path class="st4" d="M-133.8-2052.3c-0.3,0.2-0.6,0.5-0.9,0.7c-1.1,0.8-2.1,1.6-3.2,2.4c0,0,0.1,0,0.1-0.1"/>
		<path class="st4" d="M-119-2057c-1.5,1.8-3.3,3.9-4.6,5.8"/>
		<path class="st4" d="M-117.5-2051.2c0,0.2-0.2,0.4-0.4,0.6c-1.7,1.9-3.1,3.5-4.8,5.4"/>
		<path class="st4" d="M-115.7-2044c-1.9,1.8-3.9,4-5.6,6.1"/>
		<path class="st4" d="M-114.3-2037.2c-1.8,2.3-3.4,4.2-5.3,6.4"/>
		<path class="st4" d="M-112.3-2030.6c-1.1,1.3-2.1,2.5-3.2,3.8c-0.8,0.9-1.6,1.9-2.2,2.9"/>
		<path class="st4" d="M-111.3-2025.3c-1.6,1.8-3.2,3.6-4.8,5.4"/>
		<path class="st4" d="M-104.7-2024.3c-1.5,1.4-3.3,3.7-4.3,5.5"/>
		<path class="st4" d="M-100-2024.1c-1.4,1.6-2.7,3.4-3.9,5.1"/>
		<path class="st4" d="M-94.1-2082.3c-2,1.5-3.9,3.1-5.6,4.9"/>
		<path class="st4" d="M-95.7-2076.6c-1.8,1.5-3.9,3.2-5.6,4.7"/>
		<path class="st4" d="M-97.4-2070c-2.1,1.6-3.9,3.2-5.9,5"/>
		<path class="st4" d="M-98.6-2063.7c-2.2,1.5-3.9,2.7-6.1,4.3"/>
		<path class="st4" d="M-99.8-2058.1c-1.9,1-3.8,2.1-5.7,3.3"/>
		<path class="st4" d="M-100.8-2052.8c-1.2,0.9-2.4,1.7-3.5,2.6c0.1,0,0.2,0,0.2-0.1"/>
		<path class="st4" d="M-75.7-2079.3c-2.1,2.1-4,4.3-6,6.6"/>
		<path class="st4" d="M-75.5-2072.9c-2.1,2.1-4,4-6.1,6.2"/>
		<path class="st4" d="M-75.2-2065.7c-2.3,2.1-4,3.9-6.1,6.2"/>
		<path class="st4" d="M-75.4-2059.5c-2,2.1-4,4.2-5.9,6.4c0.1-0.1,0.2-0.3,0.3-0.4"/>
		<path class="st4" d="M-75.5-2052.4c-1.9,2.3-3.6,4.2-5.7,6.3"/>
		<path class="st4" d="M-75.5-2046.7c-1.8,2.1-3.6,4.3-5.4,6.4"/>
		<path class="st4" d="M-75.4-2038.3c-1.6,2.3-3.4,4.4-5.3,6.4"/>
		<path class="st4" d="M-75.5-2030.2c-1.5,1.7-3.4,4-4.8,5.8"/>
		<path class="st4" d="M-74.7-2025.8c-1.4,1.9-2.8,3.8-4.1,5.7"/>
		<path class="st4" d="M-69.8-2024.3c-1.1,1.1-3,3.3-3.9,4.6"/>
		<path class="st4" d="M-64.7-2024.4c-1.2,1.5-2.3,3.1-3.2,4.8"/>
		<path class="st4" d="M-43-2079.8c-2.1,1.7-3.8,3.3-5.8,5.1"/>
		<path class="st4" d="M-42.7-2074.8c-2,1.5-4.3,3.4-6.1,5.1"/>
		<path class="st4" d="M-42.5-2068.4c-2,1.5-4.3,3.2-6.3,4.8"/>
		<path class="st4" d="M-42.5-2063.8c-1,1.1-2.4,2.3-3.4,3.3c0,0-0.1,0.1-0.1,0c0,0,0-0.1,0,0"/>
		<path class="st4" d="M-56.5-2049.7c-1.7,1.3-3.9,3.3-5.3,4.9c0.1,0,0.1-0.1,0.2-0.2"/>
		<path class="st4" d="M-50.7-2049.6c-0.5,0.2-1.4,0.8-1.9,1.2c-1.1,1-2.2,2-3.3,3c0.1,0,0.2-0.1,0.2-0.3"/>
		<path class="st4" d="M-46.1-2049.4c-1.7,1.4-3.2,2.9-4.6,4.5"/>
		<path class="st4" d="M-42.9-2047.2c-2.1,1.8-4.2,3.6-6.1,5.6"/>
		<path class="st4" d="M-43-2041.5c-2.2,2-4.1,3.7-6.3,5.7"/>
		<path class="st4" d="M-43.1-2034.7c-2.1,1.8-4.1,3.6-6.2,5.3"/>
		<path class="st4" d="M-43-2028.8c-2,1.8-3.8,3.8-5.6,5.8"/>
		<path class="st4" d="M-40.8-2024.2c-1,1.1-2.1,2.2-3.1,3.3c-0.2,0.3-0.5,0.5-0.6,0.9"/>
		<path class="st4" d="M-35.9-2023.9c-0.8,1.3-2,2.9-3,4.2"/>
		<path class="st4" d="M-14.9-2074.2c-1.6,1-3.4,2.2-5,3.3"/>
		<path class="st4" d="M-17.3-2068.4c0,0.1,0.1-0.1,0.1-0.1c-0.1,0-0.2,0-0.2,0.1c-1.6,1.2-3.3,2.4-4.9,3.7c-0.4,0.3-0.7,0.5-1,0.9"
			/>
		<path class="st4" d="M-19.3-2061.6c-2,1.6-3.9,3.2-5.9,4.8"/>
		<path class="st4" d="M-19.8-2055.5c-2.1,1.9-4,3.6-6.1,5.5"/>
		<path class="st4" d="M-19.4-2048.8c-2.2,2-4,3.8-6,5.8"/>
		<path class="st4" d="M-18.4-2041.8c-1.8,1.7-3.6,3.4-5.4,5"/>
		<path class="st4" d="M-15.9-2036.9c-1.9,1.9-3.3,3.4-5.2,5.3"/>
		<path class="st4" d="M-11.5-2031.2c-1.7,1.6-3.4,3.3-5.1,4.9"/>
		<path class="st4" d="M-6.4-2027.3c-1.7,1.7-3.4,3.4-5.1,5.1c-0.1,0.1-0.4,0-0.3-0.2c0.1-0.2,0.4-0.1,0.3,0.1"/>
		<path class="st4" d="M-1.3-2024.8c-1.6,1.5-3.4,3.5-5,5"/>
		<path class="st4" d="M5.1-2023.7c-1.2,1.3-3.2,3.5-4.2,5"/>
		<path class="st4" d="M10.7-2024.2c-1.1,1.1-2.1,2.4-2.9,3.8"/>
		<path class="st4" d="M7.4-2073.8c-0.4,0-0.7,0.3-1,0.6c-0.8,0.8-1.6,1.6-2.4,2.4"/>
		<path class="st4" d="M12.2-2071.9c-1.6,1.6-3.1,3.2-4.5,4.8"/>
		<path class="st4" d="M14.7-2068.5c-2.4,2.1-4.6,4.4-6.7,6.8"/>
		<path class="st4" d="M16.2-2063c-1.2,1.5-2.4,2.9-3.8,4.2c-1.4,1.3-3.1,2.4-4.1,4c0-0.2,0.1-0.3,0.1-0.5"/>
		<path class="st4" d="M16.9-2056.1c-3.4,3.6-6.6,7.3-9.7,11.1"/>
		<path class="st4" d="M16.4-2049.1c-2.9,3.4-6,6.6-9.3,9.6"/>
		<path class="st4" d="M14.6-2041.5c-2.4,2-4.8,4.1-6.8,6.4"/>
		<path class="st4" d="M74.5-2079.2c-2.3,1.5-4.7,3.1-7,4.6"/>
		<path class="st4" d="M71.7-2071.2c-1.9,1.1-3.8,2.2-5.7,3.5c-0.2,0.2-0.5,0.3-0.6,0.5c0.1-0.1,0.1-0.2,0.2-0.2"/>
		<path class="st4" d="M70.1-2065.4c-2.2,1.3-4.6,2.4-7,3.3c0,0.1,0.2,0.1,0.2,0"/>
		<path class="st4" d="M68.1-2059.3c-2.2,1.3-4.4,2.6-6.6,3.9c0.1,0,0.3-0.1,0.4-0.1"/>
		<path class="st4" d="M65.5-2051.5c-2.4,1-4.6,2.2-6.8,3.5c0.1,0,0.2,0,0.2-0.1"/>
		<path class="st4" d="M63.6-2045.9c-2.3,2-5.3,3.1-7.5,5.2"/>
		<path class="st4" d="M61.3-2039.8c-1.8,1.1-3.6,2.2-5.5,3.1c-0.6,0.3-1.2,0.6-1.7,1.1c0.1,0,0.1-0.1,0.2-0.1"/>
		<path class="st4" d="M59.5-2033.2c-2.2,1.3-4.3,2.6-6.5,4"/>
		<path class="st4" d="M50.9-2022.7c1.9-1.5,4.1-2.8,6.3-3.7"/>
		<path class="st4" d="M56.3-2020.9c-0.1,0,0-0.2,0-0.2c1.3-1,2.5-2,3.9-2.9"/>
		<path class="st4" d="M62.3-2020c0.7-1.2,1.8-2.1,2.9-2.9c0.3-0.3,0.7-0.5,1-0.8"/>
		<path class="st4" d="M79.8-2059.7c1.1-1.6,2.6-3,4.2-4.2"/>
		<path class="st4" d="M81.4-2056.4c1.3-1.3,2.6-2.5,4.1-3.5"/>
		<path class="st4" d="M83.1-2051c-0.2-0.1,0-0.4,0.1-0.5c1-1.3,2.2-2.4,3.5-3.3"/>
		<path class="st4" d="M84.9-2047.6c1.2-1,2.5-1.9,3.8-2.7"/>
		<path class="st4" d="M72.6-2032.3c1.3-1.4,2.7-2.7,4.1-4"/>
		<path class="st4" d="M78.2-2031.5c0-0.4,0.3-0.7,0.6-1c1.2-1.3,2.5-2.6,3.7-3.9c0.2-0.3,0.5-0.5,0.7-0.7c0,0,0.1-0.1,0.1-0.1
			s0.1,0.1,0,0.1"/>
		<path class="st4" d="M83.9-2031.5c1.6-1.9,3.3-3.8,5.1-5.6"/>
		<path class="st4" d="M88.8-2030.7c0-0.3,0.2-0.6,0.4-0.8c1.2-1.2,2.5-2.5,3.8-3.7"/>
		<path class="st4" d="M90-2025.5c1.3-1.4,2.7-2.7,4.1-4"/>
		<path class="st4" d="M92.4-2021.1c0.9-1.4,2.1-2.7,3.5-3.7"/>
		<path class="st4" d="M97.6-2019.9c0.1-0.3,0.3-0.5,0.4-0.7c0.8-0.9,1.6-1.8,2.4-2.7c0.2-0.3,0.5-0.6,0.8-0.8"/>
		<path class="st4" d="M102.7-2020c-0.1,0-0.1-0.2,0-0.3c0.8-1.4,1.7-2.7,2.6-4"/>
		<path class="st4" d="M105.9-2019.9c-0.1,0-0.1-0.2,0-0.3c0.8-1.4,1.6-2.8,2.4-4.2"/>
		<path class="st4" d="M112.1-2073.3c1.4-2,3.1-3.8,4.9-5.4"/>
		<path class="st4" d="M112.2-2067.4c1.5-2,3.1-3.9,4.8-5.7"/>
		<path class="st4" d="M112-2062.1c0.6-0.6,1.2-1.3,1.8-1.9c1.1-1.1,2.1-2.3,3.3-3.3c0,0,0.1-0.1,0.2,0c0.1,0,0,0.1,0,0.1"/>
		<path class="st4" d="M112.3-2055c1.5-2.1,3.2-4.1,5-5.9"/>
		<path class="st4" d="M112.8-2049.6c1.3-1.9,3-3.6,4.8-4.9"/>
		<path class="st4" d="M112.8-2041.8c0.7-1.3,1.7-2.4,2.7-3.5c0.6-0.7,1.3-1.4,1.9-2c0,0,0.1-0.1,0.2-0.1c0.1,0,0,0.1,0,0.1"/>
		<path class="st4" d="M113-2035.7c1.5-1.8,3.1-3.5,4.8-5.2"/>
		<path class="st4" d="M113.8-2028.6c1.1-1.7,2.5-3.2,4-4.5"/>
		<path class="st4" d="M113.4-2021.6c1.2-1.5,2.6-3,4-4.3"/>
		<path class="st4" d="M117.7-2020c1.2-1.3,2.3-2.6,3.5-3.9"/>
		<path class="st4" d="M124-2019.7c0.8-1.5,1.8-2.9,3-4.1c-0.1,0.1-0.2,0.1-0.2,0.2"/>
		<path class="st4" d="M129.9-2056.8c0.7-1.4,1.6-2.7,2.6-3.9"/>
		<path class="st4" d="M130.2-2049.6c1.1-2,2.3-4,3.6-5.8"/>
		<path class="st4" d="M131.9-2044.3c1.2-1.7,2.3-3.3,3.6-4.9c0.1-0.1,0.3-0.2,0.3,0"/>
		<path class="st4" d="M133.5-2038.5c1.3-1.8,2.6-3.6,4-5.3"/>
		<path class="st4" d="M135.1-2031.6c1.2-1.9,2.6-3.8,4.1-5.4"/>
		<path class="st4" d="M136.8-2025.4c0.4-0.4,0.7-0.9,1.1-1.3c1.1-1.6,2.4-3.1,3.9-4.4c-0.1,0.1-0.3,0.1-0.4,0.2"/>
		<path class="st4" d="M139.5-2019.6c1.3-1.7,2.7-3.4,4.2-4.8c0,0,0.1-0.1,0.1,0c0,0,0,0.1,0,0.1"/>
		<path class="st4" d="M146.4-2018.9c1.4-1.7,2.6-3.5,3.6-5.4"/>
		<path class="st4" d="M152.5-2075c1.8-1.5,3.8-2.8,5.9-3.7"/>
		<path class="st4" d="M150.5-2068.7c2.2-1.4,4.4-2.8,6.6-4.2"/>
		<path class="st4" d="M149.1-2063.2c2.2-1.7,4.5-3.3,6.8-4.8c0,0,0.1-0.1,0.1-0.1s-0.1,0-0.1,0"/>
		<path class="st4" d="M148.2-2057.8c2.2-1.7,4.5-3.4,6.8-5c-0.2,0-0.4,0-0.6,0.1"/>
		<path class="st4" d="M148.7-2053c1.5-1.3,3-2.5,4.7-3.6c-0.1,0-0.3,0-0.4-0.1"/>
		<path class="st4" d="M165.3-2062.3c0.9-0.6,1.9-1.3,2.8-1.9c0.1-0.1,0.4-0.2,0.5,0"/>
		<path class="st4" d="M163.3-2055c1.4-1.7,3.2-3.1,5.1-4.1"/>
		<path class="st4" d="M163-2047.6c1.9-1.6,3.8-3.2,5.8-4.8"/>
		<path class="st4" d="M163.2-2041.6c1.8-2.1,3.7-4,5.7-5.9"/>
		<path class="st4" d="M162.9-2034c1.5-2.5,4.2-4,6-6.3c-0.2,0.2-0.4,0.3-0.6,0.5"/>
		<path class="st4" d="M163.7-2027.3c1.6-1.6,3.2-3.1,5-4.5c-0.1,0.1-0.2,0.2-0.4,0.3"/>
		<path class="st4" d="M163.7-2020.1c1.4-1.7,3-3.3,4.6-4.7"/>
		<path class="st4" d="M169.6-2019.3c1.5-1.8,3.2-3.6,4.8-5.3"/>
		<path class="st4" d="M174.6-2018.9c1.3-1.8,2.9-3.6,4.6-5.1"/>
		<path class="st4" d="M211.3-2071.4c1.9-2.1,4-4.1,6.2-5.8"/>
		<path class="st4" d="M210.9-2064.4c2.1-2.3,4.4-4.5,6.8-6.5c0.2-0.2,0.5,0.1,0.4,0.3s-0.5,0-0.5-0.2"/>
		<path class="st4" d="M211.1-2058.3c2-1.9,4.2-3.6,6.4-5.3"/>
		<path class="st4" d="M211.2-2050.8c1.9-2.1,4-4,6.2-5.8"/>
		<path class="st4" d="M210.9-2042.7c2.1-2.4,4.3-4.6,6.6-6.8c0,0,0.1-0.1,0.1-0.2s-0.1,0-0.1,0.1"/>
		<path class="st4" d="M211-2035.1c1.8-2,4.2-3.8,6.3-5.4c-0.1,0.1-0.2,0.1-0.3,0.2"/>
		<path class="st4" d="M211.4-2028.8c2.1-2,3.8-3.6,5.9-5.5"/>
		<path class="st4" d="M211.4-2022.3c2-2,4-4.1,6-6"/>
		<path class="st4" d="M214.9-2018.8c1.9-1.7,3.9-4,5.9-5.4"/>
		<path class="st4" d="M221.3-2018.5c2.1-1.7,4-3.6,5.8-5.6"/>
		<path class="st4" d="M237.8-2074.2c1.6-1.1,3.2-2,5-2.7c-0.1,0-0.2,0.1-0.3,0.1"/>
		<path class="st4" d="M235.2-2067.9c0.3-0.5,0.8-1,1.2-1.4c1.4-1.2,2.9-2.3,4.5-3.3"/>
		<path class="st4" d="M235.5-2061.8c1.3-1.4,2.8-2.8,4.2-4.1"/>
		<path class="st4" d="M240.8-2060.1c0-0.3,0.3-0.6,0.5-0.8c1.3-1.2,2.7-2.3,4.1-3.3"/>
		<path class="st4" d="M256.2-2071.2c1.5-1.3,3.1-2.4,4.8-3.3"/>
		<path class="st4" d="M261.7-2069.4c1.4-0.9,2.7-1.9,4.1-2.8c0,0,0.1-0.1,0.1-0.1c0,0-0.1,0-0.1,0"/>
		<path class="st4" d="M261.8-2063.6c1.6-1.2,3.7-2.4,5.4-3.4c-0.1,0-0.2,0-0.3,0"/>
		<path class="st4" d="M249.2-2047.5c1.6-1.3,3.3-2.4,5.1-3.2c-0.1,0.1-0.2,0.1-0.4,0.2"/>
		<path class="st4" d="M249.1-2042.2c1.4-1.4,3-2.8,4.6-4"/>
		<path class="st4" d="M250.8-2038.7c1.1-1,2.8-2.3,3.9-3.3"/>
		<path class="st4" d="M256.4-2038c1.3-1.3,3.2-3.1,4.6-4.3"/>
		<path class="st4" d="M248.5-2028.8c1.7-1.6,3.8-3.4,5.6-4.8"/>
		<path class="st4" d="M249-2022.1c1.3-1.6,2.8-3.2,4.2-4.7"/>
		<path class="st4" d="M252.6-2019.8c1.3-1.7,2.7-3.2,4.3-4.7"/>
		<path class="st4" d="M258.9-2019.7c0.9-1.4,2.7-3.5,3.9-4.7"/>
		<g>
			<path class="st5" d="M-145.1-2084c1,4.2,9.3,40,9.3,40s9.5-40.5,9.8-40.5c6.5,0.2,12.8-0.6,12.9,0c0.7,3.2,10.5,40.6,10.5,40.6
				s7.3-37.5,9.1-40.6c0.5-0.8,11.3-0.3,11.3,0.4c0,1.1-12.3,54.1-14.9,59.4c-0.7,1.4-5.4,0-13.9,0.1c-0.3,0-9.8-39.6-9.8-39.6
				s-8.7,38.5-9.4,39.6c-0.3,0.4-13.4,1-13.8,0.2c-3-7.8-15.1-59.2-15.1-59.4C-159-2084.3-146.3-2084.4-145.1-2084"/>
			<g>
				<path class="st3" d="M-145.5-2083.9c3.2,13.3,6.2,26.7,9.3,40c0.1,0.5,0.9,0.5,1,0c2.8-12.1,5.6-24.2,8.7-36.3
					c0.3-1,0.5-2,0.8-3c0.5-1.7,0.9-0.8,2.8-0.8c2.8,0,5.6-0.3,8.4-0.2c1.5,0,1.1-0.1,1.5,1.4c1.7,7,3.6,14,5.4,21
					c1.6,6,3.1,12.1,4.7,18.1c0.1,0.5,0.9,0.5,1,0c2.2-11.1,4.3-22.2,7-33.2c0.5-2,0.8-4.6,1.7-6.4c0.5-1,0.9-0.9,2.2-1
					c1.7-0.1,3.5,0,5.3,0.1c0.8,0.1,1.6,0.1,2.3,0.2c0.4,0.1,1.2,0.5,0.9-0.1c0,0.1-0.2,0.9-0.2,1.1c-0.4,1.9-0.8,3.7-1.2,5.6
					c-3.1,13.5-6.3,27-9.8,40.4c-0.7,2.7-1.4,5.4-2.2,8c-0.4,1.2-0.7,3.8-1.9,4.4c-1.2,0.5-3.6,0-4.8-0.1c-1.2-0.1-2.4-0.2-3.6-0.2
					c-0.9,0-1.7-0.1-2.6-0.1c0.6,0-1.7,0-1.5,0.2c-0.7-0.6-1-3.6-1.2-4.4c-3-11.7-5.8-23.4-8.6-35.1c-0.1-0.5-0.9-0.5-1,0
					c-1.7,7.7-3.5,15.4-5.3,23.1c-1.1,4.6-2.1,9.2-3.3,13.7c-0.1,0.5-0.5,2.4-0.7,2.6c-0.7,0.6-4.8,0.3-6,0.4
					c-1.3,0-2.6,0.1-3.9,0.1c-0.6,0-2.5,0.2-3.1-0.2c-0.6-0.4-0.9-2.9-1.2-3.7c-1.3-4.5-2.5-9.1-3.7-13.7c-2.8-10.9-5.4-21.9-8-32.9
					c-0.5-2-0.9-4-1.4-5.9c-0.2-0.8-0.7-2-0.7-2.9c0-0.4-0.4,0.4-0.1,0.4c0.5,0,1-0.1,1.5-0.1c1.4-0.1,2.9-0.1,4.3-0.1
					c2.4,0,5.2-0.3,7.6,0.2c0.6,0.1,0.9-0.8,0.3-1c-2.1-0.5-4.5-0.3-6.6-0.3c-2.1,0-5.3-0.5-7.3,0.3c-1.5,0.6-0.1,3.3,0.2,4.5
					c2.6,11.2,5.3,22.4,8.1,33.5c1.4,5.4,2.7,10.9,4.3,16.3c0.5,1.7,0.9,3.3,1.5,5c0.5,1.4,1,1.5,2.5,1.6c2.8,0.2,5.7,0,8.6-0.1
					c1-0.1,3.2,0.2,3.9-0.7c0.5-0.6,0.7-2.1,0.9-2.9c0.6-2.2,1.1-4.4,1.6-6.6c2.4-10,4.7-20.1,7-30.2c-0.3,0-0.6,0-1,0
					c2.8,11.5,5.5,23,8.4,34.4c0.4,1.4,0.5,3.8,1.3,5c0.5,0.7,0.6,0.5,1.5,0.6c3.2,0,6.3,0.3,9.4,0.4c2,0.1,3.5,0.3,4.3-1.7
					c0.8-2,1.4-4.2,2-6.3c4-14.4,7.4-29.1,10.8-43.7c0.5-2.2,1-4.5,1.5-6.7c0.2-0.8,0.7-1.9,0-2.6c-0.5-0.5-2.3-0.5-2.9-0.5
					c-2-0.2-4-0.3-6-0.2c-2.1,0.1-2.8,0.2-3.5,2.1c-2.4,7.2-3.7,15-5.2,22.4c-1.2,5.6-2.3,11.2-3.4,16.8c0.3,0,0.6,0,1,0
					c-3.4-13-6.8-25.9-10.1-38.9c-0.1-0.5-0.2-1.6-0.6-1.9c-1-0.9-4-0.2-5.1-0.2c-1.9,0.1-3.8,0.1-5.7,0.1c-0.7,0-2.2-0.4-2.8,0.2
					c-0.3,0.3-0.3,0.9-0.4,1.3c-1.9,6.8-3.4,13.7-5,20.6c-1.5,6.3-3,12.5-4.4,18.8c0.3,0,0.6,0,1,0c-3.1-13.3-6.1-26.7-9.3-40
					C-144.7-2084.8-145.7-2084.5-145.5-2083.9L-145.5-2083.9z"/>
			</g>
		</g>
		<g>
			<path class="st5" d="M-75.6-2084.5c0,12.2,0.2,46.4,0.2,59.8c0,0.5,7.1,0.7,13.7,0.2c1-0.1-1-15.3,0-24.7c0,0,11.2-0.8,18.7,0.1
				c0.2,4.4-0.8,23.5,0,24.7c0.3,0.4,13.8,0.8,13.7-0.1c-0.4-3.3,0.8-51.3-0.2-59.9c-0.1-0.5-6.5-0.2-12.7,0c-0.6,0-1,0.5-1,1.1
				c0.2,4.4,1,21.8,0.2,22.3c-1.9,1-16.9,0.7-18.6,0.1c-1.3-0.5,0.1-22.8-0.2-23.4C-62.1-2085.4-74.3-2084.4-75.6-2084.5"/>
			<g>
				<path class="st3" d="M-76.1-2084.5c0,13.8,0.1,27.5,0.1,41.3c0,3.5,0,6.9,0,10.4c0,1.4,0,2.8,0,4.2c0,1-0.4,3.1,0,3.9
					c0.6,1.4,3.7,0.9,4.9,1c2.4,0,4.7,0,7.1-0.1c0.8,0,2.3,0.3,2.8-0.5c0.9-1.2,0.2-4.3,0.1-5.6c-0.2-3.8-0.4-7.6-0.5-11.4
					c0-2,0-3.9,0.1-5.9c0-0.4,0.1-1.7-0.2-1.4c0.1-0.1,1-0.1,1.2-0.1c3.4-0.2,6.8-0.3,10.2-0.2c1.9,0,3.9,0,5.9,0.3
					c1.2,0.1,0.6-0.3,0.9,0.4c0.2,0.4,0,1.3,0,1.8c0,2.9-0.1,5.8-0.2,8.7c-0.1,3.1-0.1,6.2-0.1,9.3c0,1-0.3,3.6,0.4,4.4
					c0.7,0.8,2.9,0.6,3.8,0.6c2.6,0.1,5.3,0.2,8,0c1-0.1,2.5,0.1,2.8-1c0.2-0.7-0.1-2.1-0.1-2.9c-0.1-10.9,0.2-21.7,0.3-32.6
					c0-5.6,0.1-11.3,0-16.9c0-1.9-0.1-3.9-0.2-5.8c-0.1-1.2,0.1-2.1-1.1-2.5c-1.4-0.4-3.3-0.1-4.7-0.1c-2.4,0.1-5.3-0.3-7.6,0.2
					c-2,0.5-1.4,3-1.3,4.6c0.2,5.8,0.7,11.6,0.3,17.4c0,0.7,0,1.2-0.5,1.6c-0.8,0.5-2.6,0.3-3.5,0.4c-3,0.2-6,0.1-9,0
					c-1.2,0-4.7,0.3-5.3-0.8c-0.3-0.6-0.2-1.9-0.2-2.5c0-1.3,0-2.6,0-3.9c0-5,0.4-10.1,0.4-15.1c0-1,0.1-1.4-0.9-1.8
					c-2-0.7-5-0.1-7.1,0c-2.1,0.1-4.4,0.4-6.5,0.3c-0.6,0-0.6,1,0,1c3.2,0.2,6.4-0.3,9.6-0.4c0.7,0,3.7-0.2,3.8,0c0.3,0.3,0,2,0,2.4
					c-0.2,6.4-1,13.2-0.2,19.6c0.2,1.8,0.9,1.9,2.6,2.1c3.7,0.4,7.5,0.4,11.2,0.3c1.4,0,5.2,0.4,6.1-1c0.4-0.5,0.3-1.7,0.3-2.3
					c0.1-1.8,0-3.7,0-5.5c-0.1-3.9-0.2-7.8-0.4-11.8c0-0.6-0.2-1.5-0.1-2.1c0.4-1.7,2.7-1.4,4.2-1.4c1.4,0,2.8-0.1,4.2-0.1
					c1.2,0,2.9-0.3,4,0.1c0.6,0.2,0.2-0.3,0.3,0.5c0.1,0.4,0.1,0.8,0.1,1.2c0.1,1.3,0.1,2.6,0.1,3.9c0.1,3.3,0.1,6.6,0.1,9.9
					c0,14.1-0.6,28.2-0.3,42.3c0,0.3,0.1,0.7,0,1.1c-0.1,0.7,0.1,0.2-0.1,0.4c-0.9,0.7-3.7,0.3-4.8,0.3c-2,0-4,0-6.1-0.2
					c-1.3-0.1-1.9,0.2-1.9-1c-0.1-7.8,0.4-15.7,0.2-23.5c0-0.3-0.2-0.5-0.5-0.5c-6.2-0.6-12.5-0.5-18.7-0.1c-0.3,0-0.5,0.2-0.5,0.5
					c-0.7,6.9,0,13.9,0.2,20.8c0,0.8,0.3,2.2,0,2.9c-0.3,0.8-0.7,0.6-1.6,0.6c-1.3,0.1-2.7,0.1-4,0.1c-1.8,0-3.7,0-5.5-0.1
					c-1.7-0.1-2,0.1-2-1.5c0-13-0.1-26.1-0.1-39.1c0-6.3,0-12.7,0-19C-75.1-2085.2-76.1-2085.2-76.1-2084.5L-76.1-2084.5z"/>
			</g>
		</g>
		<g>
			<path class="st5" d="M31.1-2054.6c-0.4-20.1-10.5-30.3-25-30.9c-34.1-1.1-35.7,60.6-0.8,61.8
				C21.5-2023.2,31.5-2037.8,31.1-2054.6z M6-2035.1c-17.4,1.1-13.2-40-0.7-38.9c10.1-0.8,11,12.7,11.1,14
				C17.2-2050.3,16.6-2035.8,6-2035.1z"/>
			<g>
				<path class="st3" d="M31.6-2054.6c-0.2-7.7-1.7-15.8-6.5-22c-3.9-5.1-9.7-8.2-16.1-9.1c-10.5-1.4-20.1,3.4-25.2,12.7
					c-9.5,17-4.1,46.1,18,49.5c7.9,1.2,15.8-1.1,21.3-6.9C29.3-2036.9,31.7-2045.9,31.6-2054.6c0-0.6-1-0.6-1,0
					c0.2,15.1-8.9,31.2-25.8,30.4c-10.3-0.5-18.3-7.2-22-16.6c-6.5-16.7-0.1-43.2,21.1-44.1c6.9-0.3,13.8,1.9,18.7,6.9
					c6,6.2,7.7,15.1,8,23.4C30.6-2054,31.6-2053.9,31.6-2054.6z"/>
				<path class="st3" d="M6-2035.6c-13.5,0.6-12-20.9-9.2-29.1c1.8-5.2,5-9.9,11.2-8.7c6.1,1.2,7.7,8.6,8.1,13.9
					C16.5-2051.5,16.8-2036.5,6-2035.6c-0.6,0.1-0.6,1.1,0,1c9.9-0.9,11.2-12.6,11.2-20.5c-0.1-5.9-0.5-13.8-5.7-17.7
					c-2.4-1.8-6.2-2.3-9-1.2c-2.4,1-4,3.2-5.2,5.4c-3.2,6.1-4.1,13.9-3.1,20.7c0.9,6.5,4.2,13.7,11.8,13.4
					C6.6-2034.6,6.6-2035.6,6-2035.6z"/>
			</g>
		</g>
		<g>
			<path class="st5" d="M92.3-2084.5c-0.4-0.3-13.2-0.5-16.4,0.4c-4.3,14.3-19.5,59.1-19,59.5c0.8,0.6,12.1,0.6,12.4,0
				c1.4-4.1,3.8-12.2,3.8-12.2s18.4-0.6,19.3,0c0.6,0.4,2.7,11.4,3.8,12.3c0.8,0.7,14.9,0.3,15,0
				C111.5-2025.4,93.4-2083.5,92.3-2084.5z M76.4-2047.9c-0.3-0.4,4.9-19,6.4-21.1c0.9,2.7,6.4,21.1,6.3,21.1
				C87.8-2047.4,76.6-2047.6,76.4-2047.9z"/>
			<g>
				<path class="st3" d="M92.5-2084.9c-1.1-0.5-2.6-0.3-3.7-0.3c-2.5-0.1-5.1,0-7.6,0.1c-1.3,0.1-4.5-0.3-5.6,0.6
					c-0.8,0.7-1.1,3.1-1.4,4.1c-3.1,9.9-6.4,19.7-9.6,29.5c-2.6,8-5.4,16.1-7.8,24.2c-0.4,1.4-1.1,2.5,0.8,2.8
					c2,0.3,4.1,0.3,6.1,0.2c1.4,0,4,0.3,5.3-0.3c1.3-0.7,1.5-3.2,1.9-4.5c0.7-2.3,2.1-5.1,2.3-7.6c0-0.2,0.1-0.5,0.2-0.6
					c0,0.1-0.7,0.4-0.3,0.3c0.5-0.1,1,0,1.6,0c2-0.1,4.1-0.1,6.1-0.2c2.3,0,4.6-0.1,6.8-0.1c0.9,0,3.6-0.4,4.4,0.2
					c0.3,0.3,0.5,1.7,0.6,2.1c0.3,1.2,0.6,2.4,0.9,3.6c0.5,1.9,0.8,4,1.7,5.7c1.2,2.2,6,1.3,8.1,1.3c2.1,0,4.3,0,6.4-0.2
					c0.6,0,1.5,0.1,1.8-0.5c0.4-0.9-0.8-3.5-1-4.3c-0.9-3.3-1.9-6.6-2.9-9.8c-2.7-8.9-5.4-17.7-8.3-26.6c-2-6.2-3.7-12.6-6.3-18.7
					c-0.2-0.4-0.3-0.8-0.6-1.1c-0.5-0.5-1.2,0.2-0.7,0.7c0.8,0.8,1.4,3.6,1.8,4.9c1.3,3.7,2.5,7.5,3.7,11.3c3,9.3,5.9,18.7,8.8,28
					c1.1,3.6,2.2,7.2,3.2,10.8c0.3,1.1,0.6,2.3,0.9,3.4c0.1,0.3,0.1,0.6,0.2,0.9c0.1,0.4,0.5-0.1,0-0.1c-4.2-0.3-8.5,0.5-12.8,0.1
					c-2.1-0.2-2.1-1.9-2.6-3.7c-0.7-2.3-1.2-4.7-1.8-7.1c-0.3-1.2-0.4-1.7-1.7-1.9c-2-0.4-4.3-0.2-6.4-0.2c-4.1,0-8.2,0.1-12.3,0.3
					c-0.2,0-0.4,0.2-0.5,0.4c-1.1,3.6-2.1,7.1-3.3,10.6c-0.3,0.8-0.2,1.1-0.9,1.5c-0.5,0.3-1.6,0.1-2.2,0.2c-1.9,0.1-3.8,0.1-5.7,0
					c-0.8,0-1.5,0-2.3-0.1c-0.6-0.1-1.1-0.4-0.9,0.2c-0.1-0.2,0.3-1.1,0.4-1.4c0.6-2.3,1.4-4.5,2.1-6.7c4.8-15.1,9.9-30.2,14.7-45.3
					c0.5-1.5,0.8-3.5,1.5-4.9c0.5-0.9,0.3-0.7,1.5-0.9c0.9-0.1,1.9-0.2,2.9-0.2c2.4-0.1,4.8-0.2,7.2-0.1c1.2,0,3.3-0.3,4.4,0.2
					C92.6-2083.8,93.1-2084.6,92.5-2084.9z"/>
				<path class="st3" d="M76.9-2048c-0.2-0.7,0.6-2.7,0.8-3.5c0.6-2.1,1.2-4.3,1.8-6.4c1-3.5,1.8-7.8,3.7-10.9
					c-0.3,0-0.6-0.1-0.9-0.1c2,6,3.7,12.1,5.5,18.2c0.3,0.9,0.4,1.8,0.7,2.7c0.2,0.5-0.3-0.2,0.3-0.3c-0.2,0-0.5,0.1-0.7,0.1
					c-0.6-0.1-1.5,0.1-2.2,0.1c-1.9,0-3.7,0-5.6,0c-0.9,0-2.8,0.3-3.6-0.2c-0.6-0.3-1.1,0.6-0.5,0.9c1.5,0.8,4.3,0.3,5.9,0.3
					c2.3,0,4.9,0.3,7.1-0.3c0.2-0.1,0.3-0.3,0.4-0.5c0.1-0.8-0.5-2.1-0.8-2.9c-0.6-2.2-1.3-4.4-1.9-6.6c-1.2-3.9-2.3-7.9-3.6-11.8
					c-0.1-0.4-0.7-0.5-0.9-0.1c-2.1,3.3-2.9,7.9-4,11.6c-0.7,2.3-1.3,4.6-1.9,6.9c-0.2,0.8-0.8,2.2-0.6,3.1
					C76.1-2047.1,77.1-2047.4,76.9-2048z"/>
			</g>
		</g>
		<g>
			<path class="st5" d="M117.6-2084.5c-0.4,12,0.3,48,0.2,60c0,0.5,3.7,1,11.7-0.1c1.1-0.1-0.1-49-0.1-49s12.8,47.4,14.9,48.9
				c0.8,0.6,9.5,0.5,9.6,0.1c2.4-10.6,14.9-49.7,14.9-49.7s-0.4,43.3,0.1,49.5c0.1,0.8,10.8,0.5,14.1-0.1c0.7-0.1,0.5-53,0-59.7
				c0,0-8.1-0.8-21.9,0c-1.2,0.1-10.5,38.2-10.5,38.2s-10.6-38-11-38.2C139-2084.7,121.2-2084.9,117.6-2084.5"/>
			<g>
				<path class="st3" d="M117.1-2084.5c-0.3,10.7-0.1,21.4,0,32c0,5.9,0.1,11.9,0.1,17.8c0,2.3,0,4.6,0,6.9c0,1-0.5,3,0.3,3.8
					c0.7,0.7,2.9,0.5,3.8,0.5c1.5,0,3.1-0.1,4.6-0.2c1-0.1,3.2,0.1,3.8-0.5c0.9-0.8,0.5-3.4,0.6-4.5c0.2-8.4,0-16.8-0.1-25.1
					c-0.1-6.6-0.2-13.1-0.4-19.7c-0.3,0-0.7,0.1-1,0.1c4,14.7,7.8,29.5,12.8,43.9c0.5,1.4,1,4.3,2.3,5.2c1.2,0.9,3.8,0.5,5.1,0.5
					c1.1,0,4,0.4,5-0.3c0.8-0.6,0.9-2.9,1.1-3.8c0.6-2.1,1.2-4.2,1.8-6.4c1.5-5.3,3.1-10.5,4.7-15.8c2.5-8.1,5-16.1,7.6-24.1
					c-0.3,0-0.7-0.1-1-0.1c-0.1,7.5-0.1,14.9-0.2,22.4c0,5.7,0,11.3,0,17c0,2.1,0,4.2,0.1,6.3c0,1-0.3,3,0.2,3.9
					c0.5,1,2.2,0.8,3.2,0.9c3,0.1,6,0,8.9-0.3c1-0.1,2.5,0.1,3-0.8c0.3-0.6,0.2-1.8,0.2-2.4c0.4-9.4,0.3-18.8,0.2-28.1
					c0-9.7,0.3-19.5-0.5-29.1c0-0.3-0.2-0.5-0.5-0.5c-4.3-0.4-8.7-0.4-13-0.3c-2.3,0-4.6,0.1-6.9,0.2c-0.7,0-1.8-0.2-2.4,0.3
					c-0.6,0.5-0.8,1.8-1,2.4c-3,8.9-5.1,18.1-7.3,27.2c-0.7,2.9-1.5,5.8-2.2,8.7c0.3,0,0.6,0,1,0c-2.2-7.9-4.4-15.9-6.7-23.8
					c-1.2-4.2-2.4-8.5-3.7-12.7c-0.2-0.5-0.3-1.6-0.8-2c-0.8-0.6-3.2-0.2-4.1-0.3c-6-0.1-12.2-0.4-18.2,0.2c-0.6,0.1-0.6,1.1,0,1
					c5-0.5,10.3-0.3,15.3-0.2c2,0,4.2-0.2,6.2,0.1c0.6,0.1-0.1-0.4,0.2,0.1c0.2,0.4,0.3,1,0.5,1.5c2.8,9.1,5.3,18.3,7.9,27.5
					c0.8,2.9,1.6,5.8,2.4,8.7c0.1,0.5,0.8,0.5,1,0c2.7-11.1,5.4-22.1,8.6-33.1c0.3-1.1,0.6-2.1,1-3.2c0.1-0.3,0.2-0.9,0.4-1.1
					c0.6-0.7-0.3-0.1,1-0.5c1.6-0.4,3.8-0.2,5.4-0.2c1.3,0,2.6-0.1,4-0.1c2.4,0,4.8,0,7.2,0.1c1.1,0,2.5,0.4,3.6,0.2
					c0.2,0,0.4,0,0.6,0.1c-0.8-0.2-0.3-0.4-0.4,0.5c-0.3,2.1,0.2,4.5,0.2,6.5c0.3,14.6,0.4,29.3,0.1,43.9c0,2.2-0.1,4.4-0.2,6.6
					c0,0.3,0.1,1.2-0.1,1.4c0.1-0.1-1.1,0-1.5,0.1c-1,0.1-2.1,0.2-3.2,0.2c-2,0.1-4,0.2-6,0.1c-1.5-0.1-2.4,0.2-2.5-0.8
					c-0.3-2.4-0.1-4.9-0.2-7.3c-0.1-13.8,0-27.6,0.1-41.3c0-0.6-0.8-0.7-1-0.1c-4.9,15.4-10,30.8-14.1,46.5
					c-0.2,0.8-0.4,1.5-0.6,2.3c-0.2,0.9,0,0.7-1.1,0.8c-2.2,0.2-4.5,0.2-6.7,0c-1.2-0.1-1.3-0.2-1.8-1.3c-0.5-1.1-0.9-2.3-1.3-3.5
					c-2.8-8.2-5.2-16.6-7.5-25c-1.8-6.3-3.6-12.7-5.3-19c-0.1-0.5-1-0.4-1,0.1c0.3,13.1,0.6,26.3,0.5,39.4c0,2.7,0,5.4-0.2,8
					c-0.1,1.8-0.5,1.2-2.5,1.4c-2.4,0.2-5.1,0.6-7.5,0.2c-0.9-0.1-0.8,0-1-0.7c-0.2-0.8,0-2,0-2.8c0-2.1,0-4.3,0-6.4
					c0-5.5-0.1-11-0.1-16.4c-0.1-11.2-0.3-22.5,0-33.7C118.1-2085.1,117.1-2085.1,117.1-2084.5L117.1-2084.5z"/>
			</g>
		</g>
		<g>
			<path class="st5" d="M217.7-2083.9c0,15.2-0.9,59.2,0.1,59.3c1.2,0.2,13.6,1,13.9-0.1c0.5-1.9,0.4-59.4-0.1-59.5
				C231.2-2084.4,221.4-2084.9,217.7-2083.9"/>
			<g>
				<path class="st3" d="M217.2-2083.9c0,13.8-0.3,27.5-0.3,41.3c0,5.3-0.1,10.5,0.2,15.8c0,0.6-0.1,2.1,0.4,2.6
					c0.9,0.9,4.3,0.5,5.4,0.5c2.6,0.1,5.8,0.6,8.3-0.1c1-0.3,1-0.7,1.1-1.6c0.3-3.6,0.2-7.3,0.2-10.9c0.1-12.2,0.1-24.4,0-36.6
					c0-2.4-0.1-4.8-0.1-7.3c0-1.1,0.2-2.8-0.1-3.8c-0.4-1.2-1.8-0.9-3-0.9c-3.8-0.2-7.8-0.4-11.6,0.5c-0.6,0.1-0.4,1.1,0.3,1
					c3.2-0.7,6.7-0.6,10-0.5c1,0,2.4-0.1,3.4,0.2c-0.1,0,0-0.5,0,0.2c-0.2,3.1,0.2,6.4,0.2,9.5c0.1,11.1,0.1,22.1,0.1,33.2
					c0,4.2,0,8.5-0.1,12.7c0,0.6,0.3,2.6-0.1,3.1c-0.6,0.9-4.4,0.4-5.6,0.4c-1.3,0-2.7-0.1-4-0.2c-1-0.1-2.4,0.1-3.4-0.2
					c-0.6-0.2,0.1,0.3,0,0.1c-0.1-0.1-0.1-0.4-0.1-0.5c0-0.6-0.1-1.3-0.1-1.9c-0.2-4.8-0.2-9.7-0.1-14.5c0-14,0.3-28.1,0.3-42.1
					C218.2-2084.6,217.2-2084.6,217.2-2083.9L217.2-2083.9z"/>
			</g>
		</g>
		<g>
			<path class="st5" d="M245.8-2080.3c-4.1,3.1-7.5,14.7-7.1,14.9c1.4,0.4,11.3,1.9,12,1.5c0.3-0.2-0.3-8.6,6.5-10.5
				c10.3-2.8,11.4,8.2,7.3,12.9c-1.4,1.5-6.7,3.4-9.4,8.1c-2.3,3.9-1.6,9.8-1.1,11.8c0,0,8.8-0.1,10.8,0c0.2,0,0.4-0.2,0.4-0.4
				c0.3-3-1-4,0.7-5.6c6.1-5.7,15.5-10.7,14.7-21.3C279.3-2086.1,255.7-2090.2,245.8-2080.3"/>
			<g>
				<path class="st3" d="M245.5-2080.7c-2.4,1.9-3.8,5-4.9,7.7c-0.6,1.5-1.2,2.9-1.6,4.4c-0.2,0.7-0.9,2-0.7,2.8
					c0.3,1.4,3.1,1.2,4.2,1.4c1.5,0.2,2.9,0.4,4.4,0.6c1,0.1,2.6,0.6,3.6,0.3c1.3-0.4,0.9-2,1.1-3.2c0.7-4,2.9-7,7.1-7.7
					c4-0.7,7.2,1.4,7.6,5.5c0.3,2.9-0.8,6.1-3.2,7.8c-3.3,2.3-7,4.2-8.8,8.1c-1.6,3.4-1.5,7.6-0.7,11.3c0,0.2,0.3,0.3,0.5,0.4
					c2.3,0.2,4.8,0,7.1,0c2.2,0,4.7,0.9,4.7-1.9c-0.1-2.2-0.5-3.2,1.4-4.9c1.5-1.3,3-2.5,4.5-3.8c2.7-2.3,5.4-4.7,7.3-7.8
					c3.4-5.7,2.8-13.2-1.1-18.4c-3.4-4.5-8.8-7.1-14.3-7.8C257-2086.7,250.2-2085.2,245.5-2080.7c-0.5,0.4,0.2,1.2,0.7,0.7
					c8.7-8.4,26.2-6.4,32.1,4.5c4,7.4,1.2,15-4.5,20.4c-2.5,2.4-5.5,4.4-8,6.9c-0.8,0.8-1.3,1.5-1.3,2.6c0,0.7,0.2,1.4,0.2,2.1
					c0,1.2-0.1,1.1-1,1.3c-2.6,0.4-5.7,0-8.4,0c-0.2,0-0.9,0.1-1.1,0c0,0,0.1,0.1,0.1-0.6c0-1.8-0.4-3.6-0.2-5.5
					c0.5-4.9,3.5-8.1,7.5-10.6c2-1.3,3.7-2.3,4.7-4.6c1.7-3.7,1.4-9.1-2.6-11.2c-4.7-2.5-10.7,0.6-12.5,5.3
					c-0.4,1.1-0.6,2.2-0.8,3.4c-0.1,0.4,0,1-0.1,1.4c-0.2,0.5,0.5,0.2-0.3,0.2c-3,0-6.2-0.6-9.2-1.1c-0.4-0.1-1.4-0.1-1.6-0.3
					c0.2,0.1,0,0,0.2-0.6c0.5-1.3,0.8-2.6,1.2-3.9c1.2-3.3,2.8-7.3,5.6-9.6C246.7-2080.4,246-2081.1,245.5-2080.7L245.5-2080.7z"/>
			</g>
		</g>
		<g>
			<path class="st5" d="M253.5-2037.6c0,5.9-0.6,12.5,0,13.2c0.3,0.3,14,0.1,13.9-0.3c-0.1-0.6,0.4-13.1-0.5-12.9
				C265.3-2037.4,255.3-2038.1,253.5-2037.6"/>
			<g>
				<path class="st3" d="M253-2037.6c0,3.8-0.4,7.6-0.3,11.4c0,1.1-0.1,2,1,2.3c1.5,0.5,3.8,0.1,5.4,0.1c2.2,0,4.4-0.1,6.5-0.2
					c0.7,0,1.8,0.1,2.2-0.6c0.5-0.8,0-3.3,0-4.2c0-2.3,0.1-4.6-0.1-6.8c-0.1-0.8,0-2.1-0.9-2.5c-0.5-0.2-1.8,0.1-2.3,0.1
					c-1.4,0-2.8-0.1-4.2-0.1c-2.3-0.1-4.9-0.4-7.2,0.2c-0.6,0.1-0.4,1.1,0.3,1c2.2-0.5,4.7-0.2,6.9-0.1c1.2,0,2.5,0.1,3.7,0.1
					c0.4,0,2.3-0.3,2.6-0.1c-0.2-0.2,0,1.6,0,1.9c0.1,1.1,0.1,2.2,0.1,3.2c0,2.1-0.3,4.4-0.1,6.5c0,0.2,0.1,0.5,0,0.7
					c-0.1,0.4,0.5-0.3,0.1-0.3c-0.9,0.1-1.7,0.2-2.6,0.2c-2.2,0.1-4.4,0.2-6.6,0.2c-0.9,0-2.2,0.2-3.1,0c-1-0.3-0.8,0.2-0.9-1.1
					c-0.2-3.9,0.2-7.8,0.3-11.6C254-2038.3,253-2038.3,253-2037.6L253-2037.6z"/>
			</g>
		</g>
	</g>
</g>
<g id="Слой_4" class="st0">
	<g class="st2">
		<path class="st4" d="M-133.7-1948.6c3.8,5.8,10.4,20.7,11.3,21.5c1.3,1.1,14.9,0.7,16.6-0.7c1.7-1.6,2.3-3.1,3.9-5.5"/>
		<path class="st4" d="M-117-1993.2c-1.6,0.7-6.6,1.3-7.1,1.5c-0.6,0.3-5.2,8.6-6.7,12.4"/>
		<path class="st4" d="M-152.8-1992.7c-1.4,1.3-3.9,4.7-3.5,5.6c0.6,1,12.8,21.4,12.9,22.2c0.1,1.1-18.9,33.4-18.7,35.8
			c0.1,1.1,15.8,1.5,16.3,1.3c0.7-0.3,3.7-5.2,4.8-7.3"/>
		<path class="st4" d="M-101.3-1993.2c-1.8,2-3.9,2.4-4.4,5.1c-0.2,1,0.4,12.3,0.9,12.8c0.6,0.6,8.7,0.6,12.4,0.5
			c0.3,3.8,0.3,45.1,0.6,45.6c0.6,0.8,9.8,0.9,13.8,0.5c0.8-0.1,4.9-3.2,5.6-4.7"/>
		<path class="st4" d="M-57.6-1981.5c-0.8,1.1-1.3,2.4-1.9,3.7s-1.4,2.5-2.6,3.1c-0.7,0.3-1.4,0.5-2.2,0.6c-3.2,0.4-6.5-0.2-9.4,1.1
			c0.1,0.2,0.3,0.2,0.5,0.2"/>
		<path class="st4" d="M41.6-1976.2c2-1.9,5.1-2,7.9-2c1.4,0,3,0.1,3.9,1.2c0.4,0.5,0.6,1.2,0.8,1.8c0.7,2.6,0.9,5.3,0.6,8"/>
		<path class="st4" d="M46.6-1950.8c1.3-0.3,7.6-0.5,8.4,0.6c0.7,1.1-0.3,22,1.7,23.2c1,0.6,14.6,0.5,15,0.3
			c0.4-0.2,3.2-4.3,4.1-7.1"/>
		<path class="st4" d="M29.1-1983.8c-9.4,16.3,1.7,23.9,1.9,25c0.4,2.4-13.9,27.6-12.3,29.4c1.2,1.2,16,2.7,16.3,2.4
			c2.1-1.8,3.7-3.8,5.1-6.2"/>
		<path class="st4" d="M-152.1-1990.3c-1.2,1.6-2.1,2.9-3.3,4.6"/>
		<path class="st4" d="M-149.9-1987.6c0.1,0.2,0,0.4-0.1,0.5c-1.1,1.6-2.2,3.2-3.3,4.8"/>
		<path class="st4" d="M-147.5-1983.2c-1.4,1.6-2.5,3-3.9,4.6"/>
		<path class="st4" d="M-145.6-1979.7c-1.3,1.4-2.6,2.7-4,4"/>
		<path class="st4" d="M-143.1-1976.1c-1.3,1.5-2.8,3-4.3,4.3"/>
		<path class="st4" d="M-141.3-1972.6c-1.6,1.4-2.6,2.3-4,3.9"/>
		<path class="st4" d="M-139.3-1969.4c-1.3,1.3-2.7,2.6-4,3.9c-0.1,0.1-0.2,0.1-0.3,0.1"/>
		<path class="st4" d="M-145.1-1961.5c2.2-1.2,5.7-2.9,8-3.8"/>
		<path class="st4" d="M-147.1-1957.5c2.9-1.1,4.6-1.8,7.5-2.9"/>
		<path class="st4" d="M-150.6-1951.4c2.1-1,5.3-2.4,7.5-3.2"/>
		<path class="st4" d="M-153.5-1946c2-1.1,4.6-1.9,6.8-2.2"/>
		<path class="st4" d="M-156.7-1940.6c2.2-0.8,4.8-1.7,7-2.4"/>
		<path class="st4" d="M-160.2-1933.8c2.1-1.3,4.2-2.2,6.6-2.8"/>
		<path class="st4" d="M-161.1-1928.9c3.1-1.3,6-3,8.7-4.9"/>
		<path class="st4" d="M-154.4-1928.2c1.7-1.3,4.3-3.3,5.9-4.7c0,0,0.1,0,0.1,0"/>
		<path class="st4" d="M-147.9-1927.9c1.2-1.5,3.6-3.7,5.2-4.8"/>
		<path class="st4" d="M-132.2-1946.2c1.1-1.4,3.3-3.3,4.6-4.5"/>
		<path class="st4" d="M-129.6-1941.8c1.5-1.7,3.2-3.3,5-4.6c-0.1,0.2-0.3,0.4-0.4,0.6"/>
		<path class="st4" d="M-126.2-1935c1.2-2,2.7-3.9,4.5-5.5"/>
		<path class="st4" d="M-124.1-1930.2c1-2,2.4-3.9,3.9-5.6"/>
		<path class="st4" d="M-120.7-1926.7c1.5-2,3.5-4.3,5.2-6.2"/>
		<path class="st4" d="M-112.7-1926.8c1.3-2.2,2.9-4.3,4.6-6.1"/>
		<path class="st4" d="M-108-1927.4c1.1-2.2,2.3-4.4,3.7-6.4"/>
		<path class="st4" d="M-129.1-1977.7c1.6-1.4,4.1-3,6-3.9"/>
		<path class="st4" d="M-129.8-1981.4c1.1-1.5,3.2-2.3,4.9-3.1c1.9-0.8,3.6-1.8,5.4-3"/>
		<path class="st4" d="M-126.7-1987.7c1.8-1.1,4.6-2,6.6-2.8c0.6-0.2,1.7-0.7,2.2-1.1"/>
		<path class="st4" d="M-105.8-1985.6c1.1-1.1,2.4-2,3.7-2.8"/>
		<path class="st4" d="M-105.4-1980.2c1.2-1.1,2.5-2.1,3.8-3c-0.1,0.1-0.2,0.2-0.3,0.3"/>
		<path class="st4" d="M-104.3-1975.1c2.3-2.1,5.2-4.4,7.7-6.1"/>
		<path class="st4" d="M-96.5-1974.8c2.2-2,5.1-4.3,7.4-6.2"/>
		<path class="st4" d="M-92.4-1970.6c1.8-1.9,3.7-3.8,5.7-5.4c-0.1,0-0.2,0.1-0.3,0.1"/>
		<path class="st4" d="M-92.4-1964c1.9-1.7,3.7-3.3,5.6-5c-0.1,0.1-0.2,0.1-0.3,0.2"/>
		<path class="st4" d="M-92.3-1957.3c1.8-1.8,3.7-3.6,5.6-5.3"/>
		<path class="st4" d="M-92.1-1950.4c1.7-2,3.9-4.2,6-5.9c-0.2,0.2-0.4,0.3-0.7,0.5"/>
		<path class="st4" d="M-92.1-1944.6c1.7-1.8,3.2-3.1,5.1-4.6"/>
		<path class="st4" d="M-91.9-1938.7c1.6-1.7,3-2.9,4.8-4.3"/>
		<path class="st4" d="M-92.1-1933.8c1.8-1.6,3.3-2.9,5.1-4.5"/>
		<path class="st4" d="M-90.4-1928.8c1.7-1.5,3.3-3,5-4.4"/>
		<path class="st4" d="M-83.9-1928.3c1.6-1.9,3.4-3.6,5.5-4.9"/>
		<path class="st4" d="M-72.7-1978c1.4-1.4,3-2.6,4.8-3.5"/>
		<path class="st4" d="M-68.4-1973.8c0.6-0.7,1.9-1.8,2.5-2.5c1.6-1.7,3.6-3.7,5.6-4.9"/>
		<path class="st4" d="M25.4-1968.9c0.8-1.3,1.6-2.5,2.4-3.8"/>
		<path class="st4" d="M27.6-1963.5c0.9-1.3,1.8-2.5,2.7-3.8c0,0,0.1-0.1,0.1-0.1c0.1,0,0.1,0.1,0,0.1"/>
		<path class="st4" d="M30.4-1959.3c0.8-1.4,1.7-2.5,2.7-3.8"/>
		<path class="st4" d="M29.2-1954c2.1-1.2,5.3-2.8,7.6-3.6c-0.1,0.1-0.2,0.2-0.3,0.2"/>
		<path class="st4" d="M26.2-1947.7c1.7-1.1,3.1-2,4.8-3.1c0.7-0.4,2.1-1.2,2.8-1.4"/>
		<path class="st4" d="M23.4-1941.7c1.1-0.5,1.6-1,2.7-1.5c1.4-0.7,2.8-1.4,4.3-1.6"/>
		<path class="st4" d="M20.3-1935.1c2.1-1.3,4.4-2.3,6.8-2.9"/>
		<path class="st4" d="M20.2-1929c1.9-1.6,4.3-3.3,6.5-4.5c-0.1,0.1-0.1,0.1-0.2,0.2"/>
		<path class="st4" d="M26.1-1928c0-0.3,0.5-0.7,0.8-0.9c1.8-1.6,3.6-3.2,5.5-4.8"/>
		<path class="st4" d="M32.3-1927.3c0.2-0.4,0.5-0.7,0.8-0.9c1.7-1.5,3.9-3.3,5.6-4.8"/>
		<path class="st4" d="M47.6-1951c2.3-1.5,4.9-3.8,6.8-5.8c0.2-0.2,0.5-0.5,0.9-0.5"/>
		<path class="st4" d="M54.8-1950.4c2.1-1.9,4.8-4.4,6.8-6.3"/>
		<path class="st4" d="M55.1-1943.4c2-2.2,4.2-4.2,6.5-6"/>
		<path class="st4" d="M55.4-1937.4c2-2.2,3.9-4,6.3-5.7"/>
		<path class="st4" d="M55.6-1931.1c2-1.9,4-3.8,6-5.8"/>
		<path class="st4" d="M57.9-1926.5c2.1-2.1,4.7-4.7,6.8-6.7"/>
		<path class="st4" d="M65.8-1926.7c1.8-2.1,3.8-4.9,5.3-7.3c-0.1,0.1-0.2,0.1-0.4,0.2"/>
		<path class="st4" d="M44.4-1977.4c0-0.5,0.4-0.9,0.7-1.2c1.2-1.2,2.5-2.3,3.8-3.4"/>
		<path class="st4" d="M51.2-1978.3c1.4-1.6,3-3,4.8-4.2"/>
		<path class="st4" d="M54.6-1974.9c2.4-2.1,4.9-4.1,7.4-6"/>
		<path class="st4" d="M54.8-1970.1c2.2-1.7,4.4-3.4,6.6-5"/>
		<path class="st4" d="M57.6-1967.1c1.3-1.2,2.8-2.3,4.3-3.3c-0.1-0.1-0.2-0.1-0.2-0.1"/>
		<path class="st6" d="M-137.2-1993.2c0.5,0.3,2.5,4.1,3.7,6.4c1.8,3.8,3.6,7.6,5.5,11.4c0.2,0.4,0.4,0.8,0.8,0.8
			c0.3,0,0.6-0.3,0.7-0.6c3.1-5.3,9.1-17.7,9.5-17.9c0.4-0.3,12.6-0.2,13,0c0.9,0.4-16.2,27.1-16.4,27.8c-0.3,1.3,18.7,31.6,18.4,32
			c-0.5,0.5-15.1,1-16.1,0.4c-0.9-0.5-9.3-18.3-12.1-21.9c-3.1,5.5-11,20.7-12.1,21.5c-1.3,0.9-13.6,0.7-13-0.2
			c6.5-11,17.5-29.8,17.5-29.9c0.3-0.6,0.5-1.3,0.5-2c0-1.2-12.3-20.8-13.5-23.3c-0.5-1-1.5-2.3-2.1-3.6
			C-153.6-1994.1-138.7-1994-137.2-1993.2z"/>
		<g>
			<g>
				<path class="st3" d="M-35.9-1977.5c3.9-3.1,7.9-0.3,8.6,4.1c0.5,3.3,0.4,6.8,0.2,10.1c-0.3,6.8-1.4,13.5-1.4,20.2
					c0.3,0,0.7-0.1,1-0.1c-0.1-0.4-0.2-0.5-0.5-0.8c-0.4-0.5-1.2,0.2-0.7,0.7c0.1,0.1,0.1,0.2,0.2,0.4c0.2,0.5,1,0.5,1-0.1
					c0-9.6,2.1-19.1,1.3-28.8c-0.2-2.6-0.7-5.2-2.9-6.9c-2.5-1.9-5.2-1.3-7.5,0.5C-37.2-1977.8-36.4-1977.1-35.9-1977.5
					L-35.9-1977.5z"/>
			</g>
		</g>
		<g>
			<g>
				<path class="st3" d="M-42.4-1990.6c-2.4,0.9-4.5,2.8-6.5,4.4c-2.5,2.1-4.7,4.4-6.4,7.2c-4.1,6.6-5.8,14.7-5.8,22.5
					c0,13.4,8.8,27,22.6,29.6c8.6,1.6,15.9-2.5,22.1-8.1c0.5-0.4-0.2-1.1-0.7-0.7c-5.6,5-12,9-19.8,8c-6.3-0.8-11.9-4.3-16-9
					c-9.1-10.5-9.1-26.7-3.2-38.9c1.6-3.3,3.7-6.3,6.5-8.7c2.2-2,4.7-4.3,7.5-5.4C-41.5-1989.8-41.8-1990.8-42.4-1990.6
					L-42.4-1990.6z"/>
			</g>
		</g>
		<path class="st4" d="M-49.6-1982.5c-1.6,1-3.4,2.2-5,3.3"/>
		<path class="st4" d="M-52.1-1976.7c0,0.1,0.1-0.1,0.1-0.1c-0.1,0-0.2,0-0.2,0.1c-1.6,1.2-3.3,2.4-4.9,3.7c-0.4,0.3-0.7,0.5-1,0.9"
			/>
		<path class="st4" d="M-54-1969.9c-2,1.6-3.9,3.2-5.9,4.8"/>
		<path class="st4" d="M-54.5-1963.8c-2.1,1.9-4,3.6-6.1,5.5"/>
		<path class="st4" d="M-54.2-1957.1c-2.2,2-4,3.8-6,5.8"/>
		<path class="st4" d="M-53.1-1950c-1.8,1.7-3.6,3.4-5.4,5"/>
		<path class="st4" d="M-50.6-1945.1c-1.9,1.9-3.3,3.4-5.2,5.3"/>
		<path class="st4" d="M-46.2-1939.5c-1.7,1.6-3.4,3.3-5.1,4.9"/>
		<path class="st4" d="M-41.2-1935.6c-1.7,1.7-3.4,3.4-5.1,5.1c-0.1,0.1-0.4,0-0.3-0.2s0.4-0.1,0.3,0.1"/>
		<path class="st4" d="M-36.1-1933.1c-1.6,1.5-3.4,3.5-5,5"/>
		<path class="st4" d="M-29.6-1932c-1.2,1.3-3.2,3.5-4.2,5"/>
		<path class="st4" d="M-24-1932.5c-1.1,1.1-2.1,2.4-2.9,3.8"/>
		<path class="st4" d="M-27.3-1982c-0.4,0-0.7,0.3-1,0.6c-0.8,0.8-1.6,1.6-2.4,2.4"/>
		<path class="st4" d="M-22.5-1980.2c-1.6,1.6-3.1,3.2-4.5,4.8"/>
		<path class="st4" d="M-20-1976.8c-2.4,2.1-4.6,4.4-6.7,6.8"/>
		<path class="st4" d="M-18.6-1971.3c-1.2,1.5-2.4,2.9-3.8,4.2c-1.4,1.3-3.1,2.4-4.1,4c0-0.2,0.1-0.3,0.1-0.5"/>
		<path class="st4" d="M-17.8-1964.3c-3.4,3.6-6.6,7.3-9.7,11.1"/>
		<path class="st4" d="M-18.3-1957.3c-2.9,3.4-6,6.6-9.3,9.6"/>
		<path class="st4" d="M-20.1-1949.8c-2.4,2-4.8,4.1-6.8,6.4"/>
		<g>
			<path class="st5" d="M-3.6-1962.9c-0.4-20.1-10.5-30.3-25-30.9c-34.1-1.1-35.7,60.6-0.8,61.8C-13.2-1931.5-3.3-1946.1-3.6-1962.9
				z M-28.8-1943.4c-17.4,1.1-13.2-40-0.7-38.9c10.1-0.8,11,12.7,11.1,14C-17.5-1958.6-18.2-1944-28.8-1943.4z"/>
			<g>
				<path class="st3" d="M-3.1-1962.9c-0.2-7.7-1.7-15.8-6.5-22c-3.9-5.1-9.7-8.2-16.1-9.1c-10.5-1.4-20.1,3.4-25.2,12.7
					c-9.5,17-4.1,46.1,18,49.5c7.9,1.2,15.8-1.1,21.3-6.9C-5.5-1945.1-3-1954.2-3.1-1962.9c0-0.6-1-0.6-1,0
					c0.2,15.1-8.9,31.2-25.8,30.4c-10.3-0.5-18.3-7.2-22-16.6c-6.5-16.7-0.1-43.2,21.1-44.1c6.9-0.3,13.8,1.9,18.7,6.9
					c6,6.2,7.7,15.1,8,23.4C-4.1-1962.2-3.1-1962.2-3.1-1962.9z"/>
				<path class="st3" d="M-28.8-1943.9c-13.5,0.6-12-20.9-9.2-29.1c1.8-5.2,5-9.9,11.2-8.7c6.1,1.2,7.7,8.6,8.1,13.9
					C-18.2-1959.8-18-1944.8-28.8-1943.9c-0.6,0.1-0.6,1.1,0,1c9.9-0.9,11.2-12.6,11.2-20.5c-0.1-5.9-0.5-13.8-5.7-17.7
					c-2.4-1.8-6.2-2.3-9-1.2c-2.4,1-4,3.2-5.2,5.4c-3.2,6.1-4.1,13.9-3.1,20.7c0.9,6.5,4.2,13.7,11.8,13.4
					C-28.1-1942.9-28.1-1943.9-28.8-1943.9z"/>
			</g>
		</g>
		<path class="st4" d="M93.2-1991.5c-7.5,2.6-13.4,8.9-13.7,16.8c-0.1,1.2,0,3.6,0.8,4.6c0.6,0.7,9.2,1.4,10.6,1.1
			c0.7-0.1,3-1.9,4-3.9"/>
		<path class="st4" d="M96.7-1979.3c2.1-0.9,4.9-1.5,7.1-0.7c1.4,0.5,2.4,1.9,2.8,3.3c0.3,0.8,0,1.8-0.1,2.7c-0.4,2.8-1.2,5.5-2.3,8
			"/>
		<path class="st4" d="M101.4-1965c-1.6,1.1-3.8,2.6-5.2,4.1c-0.8,0.8-1.5,1.7-2,2.7c-1.1,2.1-0.8,9.3-0.1,10.1
			c0.6,0.6,9.5,1.4,10,1.3c2.1-0.7,4.3-2.4,5-4.2"/>
		<path class="st4" d="M98-1946.4c-1.1,1-4.5,3.8-4.8,4.5c-0.3,0.8-0.1,12.3,1,13c0.6,0.4,12.8,0.2,13.8-0.5c0.6-0.5,3.2-3,4-4.5"/>
		<path class="st4" d="M114.5-1934.2"/>
		<path class="st4" d="M82.3-1983.2c1.6-1.1,3.2-2,5-2.7c-0.1,0-0.2,0.1-0.3,0.1"/>
		<path class="st4" d="M79.7-1976.9c0.3-0.5,0.8-1,1.2-1.4c1.4-1.2,2.9-2.3,4.5-3.3"/>
		<path class="st4" d="M79.9-1970.8c1.3-1.4,2.8-2.8,4.2-4.1"/>
		<path class="st4" d="M85.3-1969.2c0-0.3,0.3-0.6,0.5-0.8c1.3-1.2,2.7-2.3,4.1-3.3"/>
		<path class="st4" d="M100.7-1980.2c1.5-1.3,3.1-2.4,4.8-3.3"/>
		<path class="st4" d="M106.2-1978.4c1.4-0.9,2.7-1.9,4.1-2.8c0,0,0.1-0.1,0.1-0.1c0,0-0.1,0-0.1,0"/>
		<path class="st4" d="M106.3-1972.6c1.6-1.2,3.7-2.4,5.4-3.4c-0.1,0-0.2,0-0.3,0"/>
		<path class="st4" d="M93.6-1956.5c1.6-1.3,3.3-2.4,5.1-3.2c-0.1,0.1-0.2,0.1-0.4,0.2"/>
		<path class="st4" d="M93.6-1951.2c1.4-1.4,3-2.8,4.6-4"/>
		<path class="st4" d="M95.2-1947.7c1.1-1,2.8-2.3,3.9-3.3"/>
		<path class="st4" d="M100.9-1947c1.3-1.3,3.2-3.1,4.6-4.3"/>
		<path class="st4" d="M93-1937.8c1.7-1.6,3.8-3.4,5.6-4.8"/>
		<path class="st4" d="M93.5-1931.2c1.3-1.6,2.8-3.2,4.2-4.7"/>
		<path class="st4" d="M97.1-1928.8c1.3-1.7,2.7-3.2,4.3-4.7"/>
		<path class="st4" d="M103.4-1928.7c0.9-1.4,2.7-3.5,3.9-4.7"/>
		<g>
			<path class="st5" d="M90.3-1989.3c-4.1,3.1-7.5,14.7-7.1,14.9c1.4,0.4,11.3,1.9,12,1.5c0.3-0.2-0.3-8.6,6.5-10.5
				c10.3-2.8,11.4,8.2,7.3,12.9c-1.4,1.5-6.7,3.4-9.4,8.1c-2.3,3.9-1.6,9.8-1.1,11.8c0,0,8.8-0.1,10.8,0c0.2,0,0.4-0.2,0.4-0.4
				c0.3-3-1-4,0.7-5.6c6.1-5.7,15.5-10.7,14.7-21.3C123.7-1995.1,100.2-1999.3,90.3-1989.3"/>
			<g>
				<path class="st3" d="M89.9-1989.7c-2.4,1.9-3.8,5-4.9,7.7c-0.6,1.5-1.2,2.9-1.6,4.4c-0.2,0.7-0.9,2-0.7,2.8
					c0.3,1.4,3.1,1.2,4.2,1.4c1.5,0.2,2.9,0.4,4.4,0.6c1,0.1,2.6,0.6,3.6,0.3c1.3-0.4,0.9-2,1.1-3.2c0.7-4,2.9-7,7.1-7.7
					c4-0.7,7.2,1.4,7.6,5.5c0.3,2.9-0.8,6.1-3.2,7.8c-3.3,2.3-7,4.2-8.8,8.1c-1.6,3.4-1.5,7.6-0.7,11.3c0,0.2,0.3,0.3,0.5,0.4
					c2.3,0.2,4.8,0,7.1,0c2.2,0,4.7,0.9,4.7-1.9c-0.1-2.2-0.5-3.2,1.4-4.9c1.5-1.3,3-2.5,4.5-3.8c2.7-2.3,5.4-4.7,7.3-7.8
					c3.4-5.7,2.8-13.2-1.1-18.4c-3.4-4.5-8.8-7.1-14.3-7.8C101.5-1995.7,94.6-1994.2,89.9-1989.7c-0.5,0.4,0.2,1.2,0.7,0.7
					c8.7-8.4,26.2-6.4,32.1,4.5c4,7.4,1.2,15-4.5,20.4c-2.5,2.4-5.5,4.4-8,6.9c-0.8,0.8-1.3,1.5-1.3,2.6c0,0.7,0.2,1.4,0.2,2.1
					c0,1.2-0.1,1.1-1,1.3c-2.6,0.4-5.7,0-8.4,0c-0.2,0-0.9,0.1-1.1,0c0,0,0.1,0.1,0.1-0.6c0-1.8-0.4-3.6-0.2-5.5
					c0.5-4.9,3.5-8.1,7.5-10.6c2-1.3,3.7-2.3,4.7-4.6c1.7-3.7,1.4-9.1-2.6-11.2c-4.7-2.5-10.7,0.6-12.5,5.3
					c-0.4,1.1-0.6,2.2-0.8,3.4c-0.1,0.4,0,1-0.1,1.4c-0.2,0.5,0.5,0.2-0.3,0.2c-3,0-6.2-0.6-9.2-1.1c-0.4-0.1-1.4-0.1-1.6-0.3
					c0.2,0.1,0,0,0.2-0.6c0.5-1.3,0.8-2.6,1.2-3.9c1.2-3.3,2.8-7.3,5.6-9.6C91.1-1989.4,90.4-1990.1,89.9-1989.7L89.9-1989.7z"/>
			</g>
		</g>
		<g>
			<path class="st5" d="M98-1946.6c0,5.9-0.6,12.5,0,13.2c0.3,0.3,14,0.1,13.9-0.3c-0.1-0.6,0.4-13.1-0.5-12.9
				C109.8-1946.5,99.7-1947.2,98-1946.6"/>
			<g>
				<path class="st3" d="M97.5-1946.6c0,3.8-0.4,7.6-0.3,11.4c0,1.1-0.1,2,1,2.3c1.5,0.5,3.8,0.1,5.4,0.1c2.2,0,4.4-0.1,6.5-0.2
					c0.7,0,1.8,0.1,2.2-0.6c0.5-0.8,0-3.3,0-4.2c0-2.3,0.1-4.6-0.1-6.8c-0.1-0.8,0-2.1-0.9-2.5c-0.5-0.2-1.8,0.1-2.3,0.1
					c-1.4,0-2.8-0.1-4.2-0.1c-2.3-0.1-4.9-0.4-7.2,0.2c-0.6,0.1-0.4,1.1,0.3,1c2.2-0.5,4.7-0.2,6.9-0.1c1.2,0,2.5,0.1,3.7,0.1
					c0.4,0,2.3-0.3,2.6-0.1c-0.2-0.2,0,1.6,0,1.9c0.1,1.1,0.1,2.2,0.1,3.2c0,2.1-0.3,4.4-0.1,6.5c0,0.2,0.1,0.5,0,0.7
					c-0.1,0.4,0.5-0.3,0.1-0.3c-0.9,0.1-1.7,0.2-2.6,0.2c-2.2,0.1-4.4,0.2-6.6,0.2c-0.9,0-2.2,0.2-3.1,0c-1-0.3-0.8,0.2-0.9-1.1
					c-0.2-3.9,0.2-7.8,0.3-11.6C98.5-1947.3,97.5-1947.3,97.5-1946.6L97.5-1946.6z"/>
			</g>
		</g>
		<path class="st6" d="M-101.6-1981.5c0.2,0.2,14.6,0.5,14.7,0.7c0.1,0.1-0.4,38.3,0.1,47.4c3.6,0.5,13.7,0.9,14.3,0
			c0.4-0.6-0.6-47.9-0.3-48.1c0.4-0.2,13.9,0.5,14.8,0.1c0.8-0.3,0.5-11.6-0.1-11.9c-0.3-0.2-42.5-1-43.4,0
			C-102.1-1992.4-101.7-1981.6-101.6-1981.5z"/>
		<path class="st6" d="M75.1-1993.2c-0.3-0.2-28.1,0.1-30.4,0.4c-3,0.3-6.2,0.9-8.9,2.3c-5.3,2.7-8.5,8.4-8.5,14.4
			c0,6,3.1,12.5,8.4,15.2c0.9,0.4,2.1,0.4,2,1.3c0,0.3-0.2,0.6-0.3,0.9c-4.4,8-8.3,16.2-11.7,24.6c-0.2,0.5,0.2,0.9,0.7,0.9
			c4.8-0.8,13.4,0.5,13.7,0.4c0.4-0.3,5.2-15.8,8.8-22.7c0.1-0.3,0.3-0.5,0.5-0.7c0.3-0.2,0.6-0.2,1-0.2c3.8-0.2,7.5-0.5,11.3-0.7
			c-0.1,4.9,0,24,0.2,24.2c0.2,0.2,9.9-0.1,13.7-0.1C76.3-1934.8,75.5-1993,75.1-1993.2z M61.7-1967.1c-5-0.1-10.1,0-15-0.6
			c-1-0.1-3.8-1.7-4.5-3.9c-0.4-1.4-0.7-2.3-0.7-3.7c0.1-1.9,0.9-3.7,2.5-5.3c1.8-1.9,15.2-2.2,17-2
			C62.2-1982.5,61.6-1970.9,61.7-1967.1z"/>
	</g>
</g>
<g id="Слой_8" class="st0">
	<rect x="-182.7" y="-1127.7" style="display:inline;fill:none;" width="1304" height="306"/>
	<text transform="matrix(1 0 0 1 -182.719 -1067.6897)" class="st2"><tspan x="0" y="0" style="font-family:'FranklinGothic-Demi'; font-size:90px;">YES, YOU CAN!</tspan><tspan x="0" y="108" style="font-family:'FranklinGothic-Demi'; font-size:90px;">ТИ МОЖЕШ ДОПОМОГТИ! </tspan><tspan x="0" y="216" style="font-family:'FranklinGothic-Demi'; font-size:90px;">ТЫ МОЖЕШЬ ПОМОЧЬ!</tspan></text>
	<rect x="-174.6" y="-749.7" style="display:inline;fill:none;" width="1304" height="306"/>
	<text transform="matrix(1 0 0 1 -174.6225 -689.6898)" class="st2"><tspan x="0" y="0" style="font-family:'FranklinGothic-Demi'; font-size:90px;">CONTACT ME</tspan><tspan x="0" y="108" style="font-family:'FranklinGothic-Demi'; font-size:90px;">ЗВ’ЯЗАТИСЯ ЗІ МНОЮ </tspan><tspan x="0" y="216" style="font-family:'FranklinGothic-Demi'; font-size:90px;">СВЯЗАТЬСЯ СО МНОЙ</tspan></text>
</g>
<g id="Слой_15">
</g>
<g id="Слой_16">
</g>
<g id="Слой_9">
</g>
<g id="Слой_24">
</g>
<g id="Слой_7">
</g>
<g id="Слой_6">
</g>
<g id="Слой_13">
</g>
<g id="Слой_14">
</g>
<g id="Слой_11">
</g>
<g id="Слой_12">
</g>
<g id="Слой_10">
</g>
<g id="Слой_5">
</g>
<g id="Слой_21">
</g>
<g id="Слой_20">
</g>
<g id="Слой_19">
	<path class="st6" d="M10.9,153.5c0.3,4.9,0.7,10.1,2.5,13.7c2.1,4.2,5.4,5,8.5,5.4c95.5,13,187.1,5.5,282.8-0.7
		c68.6-4.5,123.6-10.2,191.8,3.4c10.8,2.2,37.9,0,48.3,0c9.6,0,7.4-57.7,10.2-110.4c0.3-6.4-5.8-62.3-8-62.3
		c-15.8,0-33.2,3.5-46,2.3C385.6-5.3,96.5,6.1,67.3,4.9C52.8,4.4,4.6,1.8,2,8c-2.5,5.9,2.2,41.4,2.7,49.2
		C6.8,89.3,8.8,121.4,10.9,153.5z"/>
</g>
<g id="Слой_22">
</g>
<g id="Слой_25">
</g>
</svg>
