<?xml version="1.0" encoding="utf-8"?>
<!-- Generator: Adobe Illustrator 21.0.2, SVG Export Plug-In . SVG Version: 6.00 Build 0)  -->
<svg version="1.1" id="Слой_1" xmlns="http://www.w3.org/2000/svg" xmlns:xlink="http://www.w3.org/1999/xlink" x="0px" y="0px"
	 viewBox="0 0 261.3 67.4" style="enable-background:new 0 0 261.3 67.4;" xml:space="preserve">
<style type="text/css">
	.st0{fill:#FFFFFF;stroke:#201600;stroke-miterlimit:10;}
	.st1{fill:none;stroke:#201600;stroke-miterlimit:10;}
	.st2{enable-background:new    ;}
	.st3{fill:#201600;}
</style>
<title>Ресурс 4</title>
<g id="Слой_2">
	<g id="Слой_5">
		<path class="st0" d="M8.5,39.7c0,2.8,0.4,11.2,1.7,14c1.8,3.8,14.9,3.8,25.1,5.1c16.8,2,209.6-2.9,219.1-5.6
			c2.9-0.8,9.5-32.2,4.5-42.7c-0.9-2.3-2.6-4.3-4.7-5.6c-2.2-1.3-5.2-1.7-8-2.1c-10.8-1.2-21.8-0.9-32.7-0.5
			c-14.9,0.5-100.2,0.7-108.3-0.1C79.6-0.3,53.6,0.5,27.8,1.4c-4.2,0.1-11.4,0.1-14.1,2.8C11.5,6.5,8.6,31.3,8.5,39.7z"/>
		<path class="st1" d="M13.8,4.2C5.1,6.9,2.7,12.5,2.3,14.5c-1.1,5.1-1.2,10.4-1.5,15.7c-0.3,5.5-0.5,28.2,1,30.5
			c3.5,5.2,91.3,5.7,108.7,5.8c58.6,0.5,115.3,0.7,125.9,0.2c4.9-0.2,12.9-6.4,18.3-13.2"/>
		<path class="st1" d="M11.4,12.6C7.8,15.9,5,18.2,1.2,21.3"/>
		<path class="st1" d="M0.9,29.8c3-2.5,6.1-4.7,9.3-6.8"/>
		<path class="st1" d="M0.4,38.8c2.8-2.3,5.7-4.5,8.7-6.5"/>
		<path class="st1" d="M0.6,47.2c2.6-1.9,5.2-3.8,7.9-5.5"/>
		<path class="st1" d="M1.1,56.8c2.4-2.6,5.2-4.8,8.3-6.6"/>
		<path class="st1" d="M7.2,62.4c2.5-2.2,5.2-4.3,8-6.1"/>
		<path class="st1" d="M19.1,63.8c1.9-2.2,3.9-4.2,6.1-6"/>
		<path class="st1" d="M31,64.6c1.8-2,3.8-3.9,6-5.5"/>
		<path class="st1" d="M42.8,65.2c2.3-2.3,4.9-4.4,7.7-6.2"/>
		<path class="st1" d="M54,65.6c2.3-2.4,4.7-4.6,7.3-6.6"/>
		<path class="st1" d="M64.7,65.8c2.2-2.4,4.5-4.7,6.9-6.8"/>
		<path class="st1" d="M74.9,66.1c0.2-0.5,0.5-0.9,0.9-1.3l5.4-5.9"/>
		<path class="st1" d="M84,66l6.4-7"/>
		<path class="st1" d="M93.7,66.4c2.4-2.6,4.9-5.2,7.4-7.6"/>
		<path class="st1" d="M103.2,66.4c-0.2-0.2,0-0.5,0.1-0.7c2.2-2.3,4.4-4.6,6.6-6.9"/>
		<path class="st1" d="M113.2,66.8c0.7-1,1.6-1.9,2.5-2.7c1.9-1.8,3.6-3.7,5.1-5.7"/>
		<path class="st1" d="M124.6,66.5c2.4-2.6,4.7-5.3,6.8-8.2"/>
		<path class="st1" d="M136.1,66.5c2.6-2.7,5-5.7,7.2-8.7"/>
		<path class="st1" d="M146.7,66.6c2.7-2.8,4.4-6.3,7.2-9.1"/>
		<path class="st1" d="M156.9,66.7c1.9-2.8,4.8-6.5,6.5-9.4"/>
		<path class="st1" d="M165.7,66.5c2.2-2.8,4.5-6.8,6.8-9.5"/>
		<path class="st1" d="M175.5,66.9c0.5-0.8,1.1-1.6,1.7-2.4c1.6-2.2,4.4-5.6,6-7.8"/>
		<path class="st1" d="M183.8,66.9c2.3-3.1,6.5-8,9.1-10.8"/>
		<path class="st1" d="M192.5,66.9c0.6-0.9,1.6-2.1,2.2-2.9l6.1-8l-1.1,1.4"/>
		<path class="st1" d="M200.8,66.9c1.9-3,6.1-8.3,8.2-11.2"/>
		<path class="st1" d="M210.2,66.5c2.3-3.2,5.7-7.6,8.2-10.7"/>
		<path class="st1" d="M218.4,66.9l7.8-11.8"/>
		<path class="st1" d="M228.5,66.8c1.9-3.2,5.2-8.9,7-12.2"/>
		<path class="st1" d="M238.6,66.4l8.7-12.5"/>
		<g class="st2">
			<path class="st3" d="M30.3,29.1c0,0.4-0.1,0.8-0.3,1.2c-0.2,0.4-0.5,0.7-1,1.1c-0.8,0.6-1.6,1.3-2.5,1.9
				c-0.9,0.7-1.8,1.1-2.6,1.4c-0.2,0.1-0.4,0.1-0.5,0.1c0,0.3,0.1,0.9,0.3,1.8c0,0.1,0,0.2,0,0.3c0,0.2-0.1,0.4-0.2,0.6
				c-0.1,0.2-0.3,0.3-0.6,0.4c-0.1,0-0.2,0.1-0.3,0.1c-0.2,0-0.5-0.1-0.7-0.2c-0.2-0.2-0.3-0.3-0.4-0.6c-0.2-1-0.3-1.8-0.4-2.3
				l-0.4-0.1c-0.9-0.2-1.7-0.6-2.4-1.1c-0.7-0.5-1.6-1.2-2.5-2.1c-0.2-0.2-0.3-0.4-0.3-0.7c0-0.3,0.1-0.5,0.3-0.8
				c0.2-0.2,0.4-0.3,0.7-0.3c0.3,0,0.5,0.1,0.8,0.3l0.4,0.4c0.8,0.7,1.2,1,1.4,1.2c0,0-0.1,0-0.2-0.1c0.7,0.5,1.3,0.9,1.7,1
				l-0.1-0.1c0.2,0.1,0.4,0.2,0.4,0.2L21,32c-0.1-1.5-0.2-3.3-0.2-5.4c-0.2,0-0.5,0-1-0.1c-0.9-0.1-1.8-0.3-2.6-0.7
				c-0.4-0.2-0.7-0.4-1-0.7c-0.3-0.3-0.6-0.7-0.8-1.2c-0.1-0.3-0.2-0.7-0.2-1c0-0.5,0.1-1,0.3-1.4c0.3-0.7,0.7-1.4,1.3-2.1
				c1.1-1.2,2.4-2.1,4-2.6c0-1.3-0.1-2.2-0.1-2.9c0-0.3,0.1-0.5,0.3-0.8c0.2-0.2,0.5-0.3,0.8-0.3c0.3,0,0.5,0.1,0.7,0.3
				c0.2,0.2,0.3,0.5,0.3,0.8c0.1,0.8,0.1,1.6,0.1,2.4c0.2,0,0.4,0,0.7,0c0.3,0,0.5,0,0.7,0c0.3,0,0.5,0.1,0.7,0.3
				c0.2,0.2,0.3,0.4,0.3,0.7c0,0.3-0.1,0.5-0.3,0.8c-0.1,0.1-0.2,0.2-0.4,0.2c-0.1,0.1-0.3,0.1-0.4,0.1c-0.1,0-0.3,0-0.6,0
				c-0.4,0-0.6,0-0.8,0c0,0.9,0,2.2-0.1,4l0,2c0.8,0,1.4,0,1.9,0c0.5,0,1,0.1,1.5,0.3c0.9,0.2,1.7,0.7,2.4,1.3
				c0.8,0.6,1.3,1.4,1.5,2.3C30.3,28.6,30.3,28.8,30.3,29.1z M20.4,24.5l0.4,0V23c0-1.7,0.1-3,0.1-3.9h0l0,0c-0.5,0.3-1,0.5-1.4,0.8
				c-0.5,0.4-1,0.9-1.4,1.4c-0.2,0.3-0.4,0.6-0.5,0.9l-0.1,0.4c0,0.1,0,0.3,0,0.5l0,0.1l0.1,0.2l0.1,0.2c0.2,0.2,0.5,0.3,0.9,0.5
				L18.3,24c0.4,0.2,1,0.3,1.7,0.4l-0.3,0C20,24.4,20.2,24.5,20.4,24.5z M20.6,32.4L20.6,32.4C20.7,32.5,20.6,32.5,20.6,32.4z
				 M27.8,29.9c0,0,0.1-0.1,0.3-0.4c0,0-0.1,0.1-0.1,0.1l0.1-0.1l0.1-0.1l-0.1,0.1l0.1-0.1l0.1-0.2V29c0-0.2-0.1-0.4-0.2-0.6
				l0.1,0.3c-0.1-0.3-0.2-0.5-0.4-0.8c0,0,0,0,0.1,0.1c-0.2-0.3-0.4-0.5-0.6-0.6h0c-0.4-0.2-0.7-0.4-0.9-0.5l0.3,0.1
				c-0.5-0.2-1-0.3-1.6-0.4h0c-0.7-0.1-1.4-0.1-2-0.1c0,2.5,0.1,4.6,0.3,6.2c0.2,0,0.3-0.1,0.5-0.2l-0.2,0.1c0.6-0.3,1.2-0.6,1.7-1
				c0.2-0.1,0.8-0.5,1.6-1.1v0c0,0,0,0,0.1-0.1h0C27.5,30.1,27.8,29.9,27.8,29.9z M26.9,30.5L26.9,30.5
				C26.9,30.5,26.9,30.5,26.9,30.5z M28.1,29.4C28.1,29.4,28.1,29.5,28.1,29.4L28.1,29.4L28.1,29.4z M28.2,29l0-0.2
				C28.2,28.9,28.2,29,28.2,29z M28.2,29.3L28.2,29.3c0,0,0-0.1,0-0.1L28.2,29.3z M28.2,29.3L28.2,29.3L28.2,29.3L28.2,29.3z"/>
			<path class="st3" d="M47,33.7c0,0-0.1,0.1-0.3,0.3s-0.5,0.3-0.7,0.3h-2.4c-1,0-2.4,0-4.3,0h-1.5c-1,0-1.8,0-2.3,0.1l0.3-0.1
				c-0.6,0.1-1.1,0.2-1.4,0.4l0.1,0l-0.1,0.1h0c-0.3,0.2-0.5,0.3-0.6,0.4l0.2-0.2l-0.2,0.2c-0.2,0.2-0.4,0.3-0.7,0.3
				c-0.3,0-0.5-0.1-0.6-0.2c-0.2-0.2-0.3-0.3-0.4-0.5c0-0.1,0-0.1,0-0.2c0-0.1,0-0.3,0.1-0.6c0.3-0.6,0.6-1.1,0.8-1.6
				c0.7-1.2,1.8-2.7,3.2-4.5l0.6-0.8l-0.1,0.1c0.8-1.1,1.4-1.9,1.8-2.5c0.8-1.1,1.3-2,1.6-2.8l-0.1,0.2c0.2-0.4,0.3-0.8,0.4-1.2
				c0-0.1,0-0.3,0-0.5c0-0.2-0.1-0.3-0.1-0.4c0,0-0.1-0.2-0.1-0.3l-0.2-0.2c-0.1-0.1-0.4-0.2-0.6-0.3l0.1,0
				c-0.2-0.1-0.5-0.2-0.9-0.2l0.3,0.1C38.3,19,38,19,37.7,19s-0.6,0-0.8,0c-0.4,0.1-0.8,0.1-1.1,0.3l-0.2,0.1l0.2-0.1
				c-0.3,0.1-0.5,0.2-0.7,0.4l0.1-0.1L35,19.7l0,0l0,0c-0.2,0.2-0.3,0.3-0.3,0.4c-0.1,0.1-0.1,0.2-0.2,0.4l0.1-0.2
				c0,0.1-0.1,0.2-0.1,0.4v0.1l0.1,0.2c0,0.1,0,0.2-0.1,0.3c0,0.1-0.1,0.2-0.1,0.2c-0.1,0.2-0.3,0.4-0.6,0.5c-0.1,0-0.1,0-0.3,0
				c-0.2,0-0.4,0-0.5-0.1c-0.1-0.1-0.2-0.2-0.3-0.3c-0.1-0.1-0.2-0.2-0.2-0.4c0-0.1,0-0.3,0-0.6c0-0.4,0-0.7,0.1-1
				c0.2-0.5,0.5-0.9,0.8-1.3c0.6-0.6,1.4-1.1,2.5-1.3c0.7-0.1,1.3-0.2,1.8-0.2c1,0,1.9,0.2,2.6,0.5c0.3,0.2,0.6,0.4,0.9,0.6
				c0.3,0.3,0.5,0.5,0.7,0.8c0.3,0.5,0.4,1.1,0.4,1.8c0,0.3,0,0.6-0.1,0.9c-0.1,0.6-0.4,1.4-0.9,2.2c-0.2,0.5-0.6,1.1-1.1,1.8
				c-0.7,1-1.4,1.9-2.1,2.8c-0.1,0.2-0.4,0.5-0.7,0.9v0l-0.8,1c-0.5,0.7-1,1.4-1.4,2c0.6-0.1,1.3-0.2,2.1-0.2h2.8c2.6,0,4.5,0,5.9,0
				c0.3,0,0.5,0.1,0.8,0.3c0.2,0.2,0.3,0.5,0.3,0.8C47,33.6,47,33.7,47,33.7z M34.2,34.8C34.2,34.8,34.2,34.8,34.2,34.8L34.2,34.8
				L34.2,34.8z M34.4,20.8L34.4,20.8L34.4,20.8L34.4,20.8z M35,19.7C35,19.7,35,19.7,35,19.7C35,19.7,35,19.7,35,19.7
				C35,19.7,35,19.7,35,19.7z"/>
			<path class="st3" d="M61.6,19.5c0,0,0.1,0.1,0.2,0.3c0.1,0.2,0.2,0.4,0.2,0.6c0,0.1,0,0.2,0,0.3c0,0.2-0.2,0.4-0.4,0.6
				c-0.2,0.2-0.4,0.2-0.6,0.2c-0.1,0-0.1,0-0.3-0.1c-1.2-0.4-2.5-0.7-3.9-0.8l0.3,0c-1-0.1-2-0.2-3.2-0.2c-0.7,0-1.4,0-2.2,0.1
				c0,0.8,0,1.9,0,3.5c0.4,0,0.6-0.1,0.8-0.1c1.1,0,2.1,0.4,3,1.3c0.6,0.6,1.1,1.3,1.4,2.1c0.3,0.8,0.5,1.7,0.5,2.6
				c0,0.8-0.1,1.6-0.4,2.3c-0.3,0.8-0.7,1.4-1.2,2.1c-0.5,0.6-1.2,1.2-1.9,1.6c-0.8,0.4-1.5,0.7-2.3,0.7c-0.5,0-0.9,0-1.3-0.2
				c-0.3-0.1-0.6-0.3-0.8-0.5c-0.1,0-0.2-0.2-0.4-0.5c-0.3-0.4-0.5-0.9-0.5-1.4c0-0.5,0.1-0.8,0.3-1.1c0.2-0.3,0.5-0.5,0.9-0.5
				c0.2,0,0.3,0,0.5,0.1c0.1,0.1,0.2,0.1,0.3,0.3c0.1,0.1,0.2,0.2,0.2,0.4c0,0.1,0,0.1,0,0.2c0,0.2-0.1,0.4-0.1,0.6l0,0.1V34l0,0.1
				l0.1,0.1l0.1,0.1l0.1,0h-0.1h0.1c0,0,0.1,0.1,0.1,0.1l-0.1,0l0.3,0.1h-0.1c0.1,0,0.1,0,0.2,0h0.1h0c0.1,0,0.3,0,0.5-0.1l-0.3,0.1
				c0.3,0,0.7-0.2,1.1-0.3l-0.3,0.1c0.5-0.2,0.9-0.4,1.4-0.8l-0.1,0.1c0.3-0.3,0.6-0.6,0.9-0.9c0,0-0.1,0.1-0.1,0.1
				c0.3-0.4,0.5-0.7,0.7-1.1l0,0c0.2-0.5,0.3-0.9,0.4-1.2v0.1c0-0.1,0-0.1,0-0.2v-0.1v0c0-0.1,0-0.3,0-0.5c0-0.2,0-0.4,0-0.5v0v0
				l0-0.2v0.1c-0.1-0.4-0.2-0.8-0.3-1l-0.1-0.2l0.1,0.2c-0.2-0.4-0.4-0.8-0.7-1.1l0.1,0.1c-0.2-0.2-0.4-0.5-0.8-0.8
				c-0.1-0.1-0.3-0.2-0.5-0.3c-0.2-0.1-0.4-0.1-0.5-0.1h-0.4c-0.2,0-0.3,0.1-0.4,0.1c-0.1,0-0.2,0.1-0.3,0.2l0.1-0.1
				c0,0-0.1,0.1-0.1,0.1l-0.1,0.1l0.1,0l-0.1,0.1c-0.2,0.2-0.4,0.3-0.7,0.3c-0.2,0-0.3,0-0.4-0.1c-0.2-0.1-0.4-0.2-0.5-0.4
				s-0.2-0.4-0.2-0.6l-0.1-6.4c0-0.3,0.1-0.5,0.3-0.7c0.2-0.2,0.4-0.3,0.8-0.3c0.3,0,0.5,0.1,0.7,0.3c0,0,0.1,0,0.1,0
				c1.1-0.1,1.9-0.1,2.4-0.1c2.5,0,4.9,0.4,7.3,1.1C61.5,19.5,61.6,19.5,61.6,19.5z M50.5,34.1C50.5,34.1,50.5,34,50.5,34.1
				C50.5,34,50.5,34.1,50.5,34.1C50.5,34.1,50.5,34.1,50.5,34.1z M50.6,34.2L50.6,34.2C50.7,34.3,50.7,34.3,50.6,34.2z M50.7,34.3
				L50.7,34.3L50.7,34.3C50.7,34.3,50.7,34.3,50.7,34.3z M50.8,34.4L50.8,34.4L50.8,34.4z M51.2,34.5L51.2,34.5
				C51.1,34.5,51.2,34.5,51.2,34.5L51.2,34.5z M51.7,26.2L51.7,26.2L51.7,26.2L51.7,26.2z M55.1,28.1L55.1,28.1L55.1,28.1z
				 M55.4,29.3c0,0,0-0.1,0-0.1L55.4,29.3z M55.4,30.3l0,0.1C55.4,30.4,55.4,30.4,55.4,30.3L55.4,30.3z"/>
			<path class="st3" d="M73.9,22.8c-0.3,1.2-0.6,2.5-0.7,3.7v-0.1C73.1,27.2,73,28.1,73,29c0,0.6,0,1.4,0.1,2.2v0
				c0.2,1.4,0.5,2.6,1,3.7l-0.1-0.1c0.4,0.9,0.9,1.8,1.5,2.6c0.1,0.1,0.1,0.3,0.1,0.5c0,0.1,0,0.2,0,0.3c-0.1,0.3-0.2,0.5-0.5,0.6
				c-0.1,0.1-0.3,0.1-0.5,0.1c-0.1,0-0.2,0-0.3-0.1c-0.2,0-0.4-0.2-0.6-0.5c-0.9-1.2-1.6-2.7-2.1-4.3c-0.5-1.5-0.7-3.2-0.7-5
				c0-1.1,0.1-2.4,0.3-3.8c0.2-1.4,0.5-2.8,1-4.2c0.4-1.4,1-3,1.7-5c0.1-0.2,0.2-0.4,0.4-0.6c0.2-0.1,0.4-0.2,0.6-0.2
				c0.1,0,0.2,0,0.3,0c0.1,0,0.2,0.1,0.4,0.2c0.1,0.1,0.2,0.2,0.3,0.3c0.1,0.1,0.1,0.3,0.1,0.5c0,0.1,0,0.2,0,0.3l-0.8,2.1
				C74.7,20.2,74.3,21.5,73.9,22.8z M74.2,35c0-0.1-0.1-0.1-0.1-0.2L74.2,35z"/>
			<path class="st3" d="M86.2,35c-0.2,0.2-0.4,0.3-0.7,0.3c-1.5,0.1-3,0.1-4.4,0.1l-2.5,0c-0.3,0-0.5-0.1-0.7-0.3
				c-0.2-0.2-0.3-0.5-0.3-0.8c0-0.3,0.1-0.5,0.3-0.7c0.2-0.2,0.4-0.3,0.7-0.3l2.7,0v-2.5v-9.6l-0.4,0.2c-0.2,0.1-0.3,0.2-0.5,0.2
				c-0.1,0-0.2,0-0.3,0c-0.2-0.1-0.4-0.2-0.6-0.5c-0.1-0.2-0.1-0.4-0.1-0.6c0-0.1,0-0.2,0-0.2c0-0.1,0.1-0.2,0.2-0.4
				c0.1-0.1,0.2-0.2,0.3-0.2c0.9-0.4,2.1-0.9,3.9-1.7c0.2-0.1,0.3-0.2,0.5-0.2c0.1,0,0.1,0,0.3,0c0.2,0.1,0.4,0.2,0.6,0.5
				c0.1,0.1,0.1,0.3,0.1,0.5c0,0.1,0,0.2,0,0.3c0,0.1-0.1,0.2-0.2,0.4c-0.1,0.1-0.2,0.2-0.3,0.2l-1.4,0.6v2.5v10.5
				c0.5,0,1.2,0,2.2-0.1c0.3,0,0.5,0.1,0.7,0.3c0.2,0.2,0.3,0.5,0.3,0.8C86.5,34.6,86.4,34.8,86.2,35z"/>
			<path class="st3" d="M102.8,33.4c0,0,0,0.1-0.1,0.4c-0.2,0.4-0.4,0.7-0.6,1c-0.3,0.2-0.6,0.4-0.9,0.5s-0.7,0.2-1,0.2
				c-0.6,0-1.2-0.2-1.7-0.5c-0.5-0.4-1.1-0.9-1.7-1.5c-0.5-0.5-0.9-1.1-1.1-1.7c-0.1-0.5-0.2-1.1-0.2-1.9c0-0.8,0-1.5,0.1-2
				c0-0.5,0.1-1.1,0.3-1.6c0.2-0.6,0.5-1.1,0.8-1.5c0.4-0.5,0.9-0.8,1.4-0.9c0.1,0,0.2,0,0.3,0c0.2,0,0.3,0,0.5,0.1
				c0.2,0.1,0.4,0.3,0.5,0.6c0,0.1,0,0.1,0,0.2c0,0.2-0.1,0.4-0.1,0.5c-0.1,0.1-0.1,0.2-0.3,0.3c-0.1,0.1-0.2,0.1-0.3,0.2L98.4,26
				l-0.1,0.1c0,0,0,0,0,0l-0.1,0l-0.1,0.1l0.1,0l-0.1,0.1c0,0,0,0,0,0l0,0.1L98,26.4l0.1-0.1l-0.2,0.3v0c0,0-0.1,0.1-0.1,0.2
				l0.1-0.1c-0.1,0.2-0.2,0.5-0.2,1v0c-0.1,0.4-0.1,0.9-0.1,1.6c0,0.1,0,0.4,0,0.6c0,0.3,0,0.5,0,0.7v0v0.1c0,0,0,0.1,0,0.2v-0.1
				c0,0.2,0.1,0.4,0.2,0.5c0,0.1,0.1,0.2,0.2,0.2l-0.1-0.1c0.2,0.3,0.5,0.6,0.8,0.8l0.6,0.6l0,0c0.2,0.2,0.4,0.3,0.7,0.5l0.2,0.1
				c0.2,0,0.3,0,0.4,0l0.2-0.1l0.1-0.1l0,0c0.1-0.2,0.2-0.4,0.4-0.6c0.1-0.1,0.3-0.1,0.5-0.1c0.2,0,0.3,0,0.3,0
				c0.3,0.1,0.5,0.2,0.6,0.5C102.8,33.3,102.8,33.4,102.8,33.4z M97.5,30.8L97.5,30.8C97.6,30.7,97.6,30.8,97.5,30.8
				C97.6,30.8,97.6,30.8,97.5,30.8z M97.9,26.7L97.9,26.7L97.9,26.7L97.9,26.7z M98.2,26.2L98.2,26.2C98.2,26.2,98.2,26.2,98.2,26.2
				C98.1,26.3,98.2,26.3,98.2,26.2z M98.3,26.1L98.3,26.1C98.3,26.1,98.3,26.1,98.3,26.1L98.3,26.1z M98.4,26L98.4,26L98.4,26
				L98.4,26z M100.3,33.5l0.2,0C100.4,33.4,100.3,33.4,100.3,33.5l-0.1,0C100.2,33.5,100.2,33.5,100.3,33.5z M100.7,33.3L100.7,33.3
				L100.7,33.3z M100.7,33.3L100.7,33.3C100.7,33.3,100.7,33.3,100.7,33.3z M100.8,33.2L100.8,33.2L100.8,33.2L100.8,33.2z"/>
			<path class="st3" d="M111.3,27.8c0,0.4-0.1,0.9-0.2,1.4c-0.1,0.8-0.3,1.5-0.5,2.2c-0.2,0.7-0.4,1.4-0.7,2.1
				c-0.1,0.1-0.1,0.3-0.2,0.5c-0.1,0.2-0.2,0.4-0.3,0.7c-0.1,0.3-0.3,0.5-0.6,0.6c-0.3,0.2-0.5,0.3-0.8,0.3c-0.3,0-0.7-0.1-1.1-0.2
				c-0.3-0.1-0.6-0.2-1-0.4c-0.3-0.2-0.6-0.4-0.9-0.7c-0.3-0.3-0.4-0.6-0.6-1c-0.1-0.2-0.1-0.5-0.1-0.8s0-0.5,0-0.5v-1.2v-2.4
				c0-0.3,0.1-0.5,0.3-0.7s0.5-0.3,0.7-0.3c0.3,0,0.5,0.1,0.7,0.3s0.3,0.5,0.3,0.7v2.2v1.1c0,0.1,0,0.2,0,0.4c0,0.1,0,0.3,0,0.5
				c0,0,0,0,0-0.1c0,0,0,0.1,0,0.1v0.2v-0.2l0,0.2l0-0.1c0,0,0,0.1,0.1,0.2l0,0l0,0l0,0.1l0-0.1v0l0.1,0.1l-0.1-0.1l0.2,0.2l0.5,0.3
				l0.6,0.2c0.1-0.2,0.2-0.4,0.3-0.7l-0.1,0.3c0.7-1.6,1.1-3.1,1.3-4.7v0c0-0.2,0-0.5,0-0.9c0-0.1-0.1-0.3-0.1-0.5
				c0-0.1-0.1-0.2-0.1-0.2l-0.2-0.2l-0.3-0.2h-0.1c0,0-0.1,0-0.2,0l-0.1,0l0,0c-0.1,0.1-0.3,0.1-0.5,0.1c-0.4,0-0.7-0.2-0.9-0.5
				c-0.1-0.1-0.2-0.3-0.2-0.5c0-0.2,0-0.4,0.1-0.5c0.1-0.2,0.2-0.3,0.4-0.4c0.4-0.2,0.8-0.3,1.2-0.3c0.5,0,0.9,0.1,1.4,0.4
				c0.4,0.2,0.7,0.5,1,0.9c0.3,0.4,0.4,0.8,0.5,1.2C111.2,27,111.3,27.4,111.3,27.8z M106.4,32.4L106.4,32.4L106.4,32.4L106.4,32.4z
				 M106.4,32.7L106.4,32.7C106.4,32.7,106.4,32.7,106.4,32.7L106.4,32.7z M108.2,26.2L108.2,26.2L108.2,26.2L108.2,26.2L108.2,26.2
				L108.2,26.2h0.1H108.2L108.2,26.2z M108.2,26.2L108.2,26.2L108.2,26.2z M108.7,26.4L108.7,26.4l-0.2-0.2L108.7,26.4L108.7,26.4z
				 M108.8,26.5C108.8,26.5,108.8,26.5,108.8,26.5C108.8,26.5,108.8,26.5,108.8,26.5z M109.2,27.4c0,0,0-0.1,0-0.2
				C109.2,27.3,109.2,27.3,109.2,27.4z"/>
			<path class="st3" d="M118.3,36.3c-0.2,0.2-0.5,0.3-0.8,0.3c-0.3,0-0.5-0.1-0.7-0.3c-0.2-0.2-0.3-0.4-0.3-0.8l-0.1-1.9v-0.1
				c-0.4,0.6-0.8,1-1,1.3c-0.3,0.4-0.7,0.6-1.2,0.6c-0.3,0-0.5-0.1-0.7-0.2c-0.2-0.1-0.4-0.3-0.5-0.6c-0.1-0.2-0.2-0.4-0.2-0.7
				s0-0.5,0-0.7c0-0.3,0-0.4,0-0.6V31v-3.6c0-0.3,0.1-0.5,0.3-0.7c0.2-0.2,0.4-0.3,0.7-0.3c0.3,0,0.5,0.1,0.7,0.3
				c0.2,0.2,0.3,0.5,0.3,0.7c0,1.5,0,2.7,0,3.4v1.6c0.3-0.6,0.6-1.1,0.9-1.7l-0.1,0.2c0.3-0.7,0.5-1.6,0.7-2.6l0,0.3
				c0-0.3,0.1-0.5,0.1-0.6l0-0.7c0-0.3,0.1-0.5,0.3-0.7c0.2-0.2,0.4-0.3,0.7-0.3c0.3,0,0.5,0.1,0.7,0.3s0.3,0.5,0.3,0.7
				c0,0.4,0,0.7,0,0.9c0,0.2,0,0.5,0,0.9c0,1.9,0,4.1,0.2,6.6C118.6,35.9,118.5,36.1,118.3,36.3z M114.5,32.8
				c-0.1,0.1-0.1,0.1-0.1,0.2L114.5,32.8z M114.7,33.7C114.7,33.7,114.7,33.7,114.7,33.7C114.7,33.7,114.7,33.7,114.7,33.7z"/>
			<path class="st3" d="M124.8,33c0,0.2-0.1,0.4-0.1,0.5l-1.1,1.5c-0.2,0.2-0.4,0.4-0.5,0.4c-0.1,0.1-0.3,0.1-0.4,0.1l-0.3,0
				c-0.6-0.2-1-0.5-1.4-1c-0.4-0.5-0.6-1-0.8-1.5c-0.2-0.7-0.2-1.5-0.2-2.5c0-0.4,0.1-0.9,0.1-1.6c0.1-1.1,0.3-2.4,0.5-3.9v0
				l0.3-2.4c0.1-0.8,0.1-1.4,0.1-1.8c0-0.3,0.1-0.5,0.3-0.8c0.2-0.2,0.5-0.3,0.8-0.3c0.3,0,0.5,0.1,0.7,0.3c0.2,0.2,0.3,0.5,0.3,0.7
				c0,0.2,0,0.6-0.1,1c-0.1,1-0.3,2.7-0.6,4.9v-0.1c-0.1,0.6-0.1,1.1-0.2,1.3c-0.2,1.3-0.3,2.3-0.3,3.2c0,0.4,0,0.7,0,0.9
				c0,0.3,0.1,0.6,0.2,0.9l-0.1-0.1l0.1,0.2l0.4-0.5c0.2-0.2,0.4-0.4,0.6-0.5c0,0,0.1,0,0.2,0c0.2,0,0.4,0,0.6,0.2
				c0.2,0.1,0.4,0.3,0.5,0.6C124.8,32.8,124.8,32.9,124.8,33z M120.8,24.7l0,0.2C120.8,24.9,120.8,24.8,120.8,24.7z M122.2,32.1
				c0,0,0,0.1,0,0.2C122.2,32.2,122.2,32.1,122.2,32.1z M122.6,26.9l0-0.2C122.6,26.7,122.6,26.8,122.6,26.9z M122.9,33.4
				L122.9,33.4L122.9,33.4L122.9,33.4z M122.9,33.5L122.9,33.5L122.9,33.5z"/>
			<path class="st3" d="M134.3,34.1c0,0.2-0.1,0.5-0.2,0.6c-0.1,0.2-0.3,0.3-0.6,0.4c0,0-0.1,0-0.2,0c-0.2,0-0.4,0-0.6-0.2
				c-0.3-0.1-0.4-0.3-0.5-0.6c-0.2-1-0.3-1.8-0.4-2.4l-0.1-0.7l-0.4,1.1c-0.8,2.1-1.6,3.9-2.5,5.4c-0.1,0.2-0.2,0.3-0.4,0.4
				c-0.2,0.1-0.3,0.1-0.5,0.1c-0.1,0-0.2,0-0.3,0c-0.6-0.1-1-0.5-1.3-1.2c-0.1-0.3-0.2-0.7-0.2-1.3c0-0.3,0-0.8,0-1.5
				c0-1.4,0.2-2.5,0.5-3.4c0.2-0.5,0.4-0.9,0.6-1.2c0.3-0.4,0.6-0.7,1-1c0.5-0.3,1-0.5,1.5-0.5c0.3,0,0.4,0,0.6,0.1
				c0.3-1,0.6-2.7,1.1-5c0-0.2,0.2-0.4,0.4-0.5c0.2-0.1,0.4-0.2,0.7-0.2c0.3,0,0.5,0.1,0.7,0.3c0.1,0.1,0.2,0.2,0.2,0.4
				c0.1,0.1,0.1,0.3,0.1,0.4c-0.1,0.6-0.1,1.2-0.1,1.8c0,0.1,0,0.3,0,0.4c0,0.2,0,0.4,0,0.6c0,1.8,0.1,3.5,0.4,5.3l-0.1-0.3
				c0.1,0.6,0.2,1.4,0.4,2.5C134.3,33.8,134.3,33.9,134.3,34.1z M129.6,31.4l0.4-1.3h-0.1l-0.1,0c-0.1,0.1-0.2,0.1-0.2,0.1l0,0
				l-0.1,0l-0.2,0.1l0.1-0.1c-0.1,0.1-0.2,0.2-0.2,0.3c-0.1,0.1-0.2,0.3-0.4,0.6c-0.2,0.5-0.4,1.1-0.4,1.7l0.1-0.3
				c-0.1,0.6-0.1,1.2-0.1,1.8v0.1l0.5-1l-0.1,0.2C129.1,32.7,129.4,31.9,129.6,31.4z M128.7,31.5l0.1-0.2
				C128.8,31.3,128.8,31.3,128.7,31.5z M129.6,30.3L129.6,30.3L129.6,30.3L129.6,30.3z M129.9,30.1L129.9,30.1h0.1H129.9z
				 M130.1,30.1C130.1,30.1,130.1,30.1,130.1,30.1C130.1,30.1,130.1,30.1,130.1,30.1C130.1,30.1,130.1,30.1,130.1,30.1z"/>
			<path class="st3" d="M150,28.7c0,0.9-0.3,1.8-0.8,2.5c-0.3,0.4-0.7,0.9-1.2,1.3c-0.2,0.2-0.7,0.5-1.5,1c-0.1,0.1-0.3,0.2-0.5,0.2
				c-0.2,0-0.4-0.1-0.6-0.2v0.2c0,0.3-0.1,0.5-0.3,0.7s-0.4,0.3-0.6,0.3c0,0-0.1,0-0.2,0c-0.2,0-0.3,0-0.5-0.2
				c-0.1,0-0.2-0.1-0.3-0.2c-0.1-0.1-0.2-0.2-0.2-0.4c0-0.2-0.1-0.4-0.1-0.8c0-0.3,0-0.5,0-0.7v-1.4v-9c0-0.3,0.1-0.5,0.3-0.7
				c0.2-0.2,0.4-0.3,0.7-0.3c0.3,0,0.5,0.1,0.7,0.3s0.3,0.5,0.3,0.7v2.6V28c0.4-0.6,0.7-1.1,1-1.4c0.3-0.3,0.6-0.5,1-0.6
				c0.2,0,0.3-0.1,0.4-0.1c0.3,0,0.6,0.1,0.9,0.2c0.3,0.1,0.6,0.4,0.8,0.6s0.4,0.6,0.5,0.9C150,28,150,28.3,150,28.7z M145.7,31.9
				C145.7,31.9,145.7,31.8,145.7,31.9C145.7,31.8,145.7,31.9,145.7,31.9C145.7,31.9,145.7,31.9,145.7,31.9
				C145.7,31.9,145.7,31.9,145.7,31.9z M147.1,30.5c0,0,0.1-0.2,0.4-0.5l-0.1,0.1l0.4-0.5c0.1-0.2,0.1-0.4,0.2-0.7v-0.3l-0.1-0.4
				l-0.1-0.1c-0.5,0.7-0.8,1.3-1.1,1.8l-0.8,1.5l0.7-0.5l-0.2,0.2C146.9,30.7,147.1,30.5,147.1,30.5z M147.3,30.2
				C147.4,30.2,147.4,30.2,147.3,30.2C147.4,30.2,147.4,30.2,147.3,30.2z"/>
			<path class="st3" d="M157,36.3c-0.2,0.2-0.5,0.3-0.8,0.3c-0.3,0-0.5-0.1-0.7-0.3c-0.2-0.2-0.3-0.4-0.3-0.8l-0.1-1.9v-0.1
				c-0.4,0.6-0.8,1-1,1.3c-0.3,0.4-0.7,0.6-1.2,0.6c-0.3,0-0.5-0.1-0.7-0.2c-0.2-0.1-0.4-0.3-0.5-0.6c-0.1-0.2-0.2-0.4-0.2-0.7
				s0-0.5,0-0.7c0-0.3,0-0.4,0-0.6V31v-3.6c0-0.3,0.1-0.5,0.3-0.7c0.2-0.2,0.4-0.3,0.7-0.3c0.3,0,0.5,0.1,0.7,0.3
				c0.2,0.2,0.3,0.5,0.3,0.7c0,1.5,0,2.7,0,3.4v1.6c0.3-0.6,0.6-1.1,0.9-1.7l-0.1,0.2c0.3-0.7,0.5-1.6,0.7-2.6l0,0.3
				c0-0.3,0.1-0.5,0.1-0.6l0-0.7c0-0.3,0.1-0.5,0.3-0.7c0.2-0.2,0.4-0.3,0.7-0.3c0.3,0,0.5,0.1,0.7,0.3s0.3,0.5,0.3,0.7
				c0,0.4,0,0.7,0,0.9c0,0.2,0,0.5,0,0.9c0,1.9,0,4.1,0.2,6.6C157.3,35.9,157.2,36.1,157,36.3z M153.2,32.8
				c-0.1,0.1-0.1,0.1-0.1,0.2L153.2,32.8z M153.4,33.7C153.4,33.7,153.4,33.7,153.4,33.7C153.4,33.7,153.4,33.7,153.4,33.7z"/>
			<path class="st3" d="M165.9,33.9C166,33.8,166,33.8,165.9,33.9l-0.5,0.7l0.3,3.6c0,0.5,0.1,1.1,0.1,1.9l0.1,1.8
				c0,0.8-0.1,1.4-0.4,1.8c-0.2,0.3-0.4,0.6-0.8,0.8c-0.2,0.1-0.6,0.2-1,0.3c-0.5,0-1.1-0.1-1.6-0.4c-0.5-0.3-1-0.9-1.2-1.6
				c-0.2-0.4-0.2-0.9-0.2-1.5c0-0.6,0.1-1.3,0.2-2c0.2-1.1,0.6-2.2,1.1-3.2c0.3-0.6,0.7-1.2,1.2-2.1c0-0.3-0.1-0.9-0.2-1.5l-0.2-1.9
				l-0.5,0.8c-0.2,0.2-0.3,0.4-0.4,0.5c-0.1,0.1-0.1,0.2-0.2,0.3s-0.2,0.2-0.3,0.3c-0.4,0.3-0.8,0.5-1.2,0.5c-0.3,0-0.6-0.1-0.8-0.2
				c-0.4-0.3-0.6-0.6-0.7-1s-0.1-1-0.1-1.8V27c0-0.3,0.1-0.5,0.3-0.7c0.2-0.2,0.5-0.3,0.8-0.3c0.3,0,0.5,0.1,0.7,0.3
				c0.2,0.2,0.3,0.4,0.3,0.7v2.2V30c0.3-0.5,0.6-1,0.8-1.4c0,0,0,0,0,0c0.4-0.9,0.7-1.8,0.8-2.9c0-0.2,0.2-0.4,0.5-0.6
				c0.1-0.1,0.3-0.1,0.5-0.1c0.3,0,0.5,0.1,0.8,0.3c0.1,0.1,0.2,0.3,0.2,0.4s0.1,0.3,0.1,0.3l0.1,0.9c0.1,0.6,0.2,1.9,0.5,3.9
				l0.1,0.8c0.2-0.2,0.4-0.5,0.8-0.9c0.2-0.2,0.4-0.3,0.7-0.3c0.3,0,0.5,0.1,0.8,0.3c0.1,0.1,0.2,0.2,0.2,0.3c0,0.1,0.1,0.3,0.1,0.4
				c0,0.2-0.1,0.5-0.3,0.7L165.9,33.9z M160.1,31L160.1,31L160.1,31z M160.2,31C160.2,31,160.2,31,160.2,31L160.2,31L160.2,31
				C160.2,31,160.2,31,160.2,31z M162.8,41.3c0,0,0,0.1,0,0.4l0.1,0.5l0.2,0.3c0,0.1,0.1,0.1,0.2,0.1c0,0,0.1,0.1,0.1,0.1l0.2,0.1
				h0.2l0,0l0.1,0v0l0.1-0.3c0-0.2,0-0.5,0-0.8s0-0.5,0-0.6l-0.2-1.8c0-0.6-0.1-1-0.1-1.3c-0.4,0.8-0.6,1.8-0.8,2.8
				C162.8,41,162.8,41.3,162.8,41.3z M162.8,40.5c0,0,0-0.1,0-0.2C162.9,40.4,162.9,40.4,162.8,40.5z M163.7,42.7L163.7,42.7
				L163.7,42.7L163.7,42.7L163.7,42.7C163.7,42.7,163.7,42.7,163.7,42.7L163.7,42.7C163.7,42.7,163.7,42.7,163.7,42.7L163.7,42.7
				L163.7,42.7L163.7,42.7L163.7,42.7L163.7,42.7z M163.8,42.7C163.8,42.7,163.8,42.7,163.8,42.7C163.8,42.7,163.8,42.7,163.8,42.7z
				 M163.7,42.7C163.8,42.7,163.8,42.7,163.7,42.7L163.7,42.7z M163.8,42.6L163.8,42.6L163.8,42.6z M163.9,42.6L163.9,42.6
				L163.9,42.6L163.9,42.6z M163.9,42.4v-0.1V42.4l-0.1,0.1C163.9,42.5,163.9,42.5,163.9,42.4z"/>
			<path class="st3" d="M188,34.3c0,0.2,0,0.4-0.1,0.5c-0.1,0.2-0.3,0.4-0.6,0.5c-0.1,0-0.2,0-0.3,0c-0.2,0-0.4,0-0.5-0.1
				c-0.3-0.2-0.6-0.5-0.8-0.9c-0.2-0.3-0.3-0.6-0.4-0.9c-0.1-0.4-0.2-0.9-0.3-1.7c0-0.3-0.1-0.7-0.1-1.2c-0.3,0.4-0.6,0.9-1.1,1.4
				c-0.7,0.8-1.3,1.4-1.8,1.8c-0.5,0.4-0.9,0.8-1.2,1l-0.5,0.4c-0.4,0.2-0.9,0.3-1.2,0.3c-0.6,0-1.1-0.2-1.5-0.7
				c-0.4-0.5-0.7-1.1-0.7-1.8c0-0.4,0-0.9,0.2-1.6c0.1-0.5,0.3-0.9,0.5-1.3c0.3-0.7,0.8-1.4,1.3-2.1s1.2-1.2,2-1.6
				c1.3-0.8,2.7-1.2,4.2-1.2c0.3,0,0.5,0,0.6,0c0.1,0,0.2,0,0.3,0.1h0.3c0.2,0,0.4,0.1,0.6,0.3c0.1,0.1,0.2,0.2,0.2,0.3
				c0.1,0.1,0.1,0.3,0.1,0.4c-0.1,0.7-0.1,1.5-0.1,2.4c0,1,0.1,2.1,0.2,3.1v0c0.1,0.5,0.2,1,0.3,1.3l0.1,0.2l0.1,0.1
				c0.2,0.2,0.4,0.4,0.5,0.6C187.9,34.1,188,34.2,188,34.3z M183.6,28.8c0,0,0.2-0.5,0.7-1.4l-0.3,0l0.3-0.1
				c-0.6,0.1-1.1,0.2-1.6,0.5l0.1-0.1c-0.5,0.2-1,0.5-1.5,0.9c0,0,0,0,0,0c-0.5,0.4-1,0.9-1.3,1.4l0,0c-0.3,0.5-0.6,0.9-0.8,1.4
				l0-0.1c-0.2,0.4-0.3,0.9-0.4,1.3v-0.1c0,0.1,0,0.1,0,0.2v0.1v0V33l0.1,0.3l0.1,0.1l0,0c0.2-0.1,0.6-0.3,1-0.7l-0.2,0.1
				c1.1-0.9,2.1-1.9,3-3l-0.1,0.1C183.3,29.2,183.6,28.8,183.6,28.8z M178.8,32.5l0,0.1L178.8,32.5
				C178.8,32.6,178.8,32.6,178.8,32.5z M178.7,33.1L178.7,33.1l0.1,0.2L178.7,33.1L178.7,33.1L178.7,33.1L178.7,33.1z M178.9,33.3
				L178.9,33.3L178.9,33.3z M182.5,27.9c0.1,0,0.1-0.1,0.2-0.1L182.5,27.9z M187,32.1c0-0.1,0-0.1,0-0.2C187,32,187,32.1,187,32.1z"
				/>
			<path class="st3" d="M203.9,29.7c0,0.3-0.1,0.5-0.3,0.8c-0.2,0.2-0.4,0.3-0.8,0.3c-0.5,0.1-1,0.1-1.5,0.1c0,1.2,0.1,2.5,0.2,3.7
				c0,0.3-0.1,0.5-0.3,0.7c-0.2,0.2-0.5,0.3-0.7,0.3c-0.3,0-0.6-0.1-0.8-0.3c-0.2-0.2-0.3-0.4-0.3-0.7l-0.2-2.6l0-1
				c-0.6,0-1.1,0-1.4,0s-0.5-0.1-0.7-0.3c-0.2-0.2-0.3-0.4-0.3-0.7c0-0.3,0.1-0.5,0.3-0.7s0.4-0.3,0.7-0.3l1.4,0v-1.6
				c0-1.6,0-3.2,0.1-4.7c0-0.3,0.1-0.5,0.3-0.7c0.2-0.2,0.5-0.3,0.8-0.3c0.2,0,0.5,0.1,0.7,0.3c0.2,0.2,0.3,0.4,0.3,0.7
				c0,0.6,0,1.5-0.1,2.7l0,1.8l0,1.8c0.7,0,1.2-0.1,1.5-0.1h0.1c0.2,0,0.5,0.1,0.7,0.3C203.8,29.1,203.9,29.3,203.9,29.7z"/>
			<path class="st3" d="M205.7,21.5c-0.2-0.2-0.3-0.4-0.3-0.7v-0.9c0-0.3,0.1-0.5,0.3-0.8c0.2-0.2,0.5-0.3,0.8-0.3
				c0.3,0,0.5,0.1,0.7,0.3c0.2,0.2,0.3,0.5,0.3,0.7v0.9c0,0.3-0.1,0.5-0.3,0.7c-0.2,0.2-0.5,0.3-0.8,0.3
				C206.2,21.8,205.9,21.7,205.7,21.5z M211.9,32c0,0.2,0,0.3-0.2,0.5c-0.7,1-1.4,1.8-2.2,2.4c-0.4,0.3-0.7,0.5-0.9,0.5
				c-0.2,0-0.3,0.1-0.4,0.1c-0.3,0-0.5-0.1-0.8-0.2c-0.5-0.2-0.8-0.7-1.1-1.5c-0.1-0.3-0.2-0.8-0.2-1.5v-1.4v-6.2
				c0-0.3,0.1-0.5,0.3-0.7s0.5-0.3,0.8-0.3c0.3,0,0.5,0.1,0.7,0.3c0.2,0.2,0.3,0.4,0.3,0.7v1.9v3.3v1.7c0,0.6,0,1.1,0.1,1.4
				l-0.1-0.3l0.2,0.6c0.5-0.4,0.9-0.8,1.3-1.3l0,0l0.4-0.5c0.2-0.3,0.5-0.5,0.9-0.5c0.2,0,0.4,0,0.5,0.1c0.2,0.1,0.4,0.3,0.5,0.6
				C211.9,31.8,211.9,31.9,211.9,32z M208.5,33.5L208.5,33.5L208.5,33.5L208.5,33.5z M208.5,33.6L208.5,33.6L208.5,33.6z"/>
			<path class="st3" d="M220.8,33.4c0,0,0,0.1-0.1,0.4c-0.2,0.4-0.4,0.7-0.6,1c-0.3,0.2-0.6,0.4-0.9,0.5s-0.7,0.2-1,0.2
				c-0.6,0-1.2-0.2-1.7-0.5c-0.5-0.4-1.1-0.9-1.7-1.5c-0.5-0.5-0.9-1.1-1.1-1.7c-0.1-0.5-0.2-1.1-0.2-1.9c0-0.8,0-1.5,0.1-2
				c0-0.5,0.1-1.1,0.3-1.6c0.2-0.6,0.5-1.1,0.8-1.5c0.4-0.5,0.9-0.8,1.4-0.9c0.1,0,0.2,0,0.3,0c0.2,0,0.3,0,0.5,0.1
				c0.2,0.1,0.4,0.3,0.5,0.6c0,0.1,0,0.1,0,0.2c0,0.2,0,0.4-0.1,0.5c-0.1,0.1-0.1,0.2-0.3,0.3c-0.1,0.1-0.2,0.1-0.3,0.2l-0.2,0.1
				l-0.1,0.1c0,0,0,0,0,0l-0.1,0l-0.1,0.1l0.1,0l-0.1,0.1c0,0,0,0,0,0l0,0.1l-0.2,0.1l0.1-0.1l-0.2,0.3v0c0,0-0.1,0.1-0.1,0.2
				l0.1-0.1c-0.1,0.2-0.2,0.5-0.2,1v0c-0.1,0.4-0.1,0.9-0.1,1.6c0,0.1,0,0.4,0,0.6c0,0.3,0,0.5,0,0.7v0v0.1c0,0,0,0.1,0,0.2v-0.1
				c0,0.2,0.1,0.4,0.2,0.5c0,0.1,0.1,0.2,0.2,0.2l-0.1-0.1c0.2,0.3,0.5,0.6,0.8,0.8l0.6,0.6l0,0c0.2,0.2,0.4,0.3,0.7,0.5l0.2,0.1
				c0.2,0,0.3,0,0.4,0l0.2-0.1l0.1-0.1l0,0c0.1-0.2,0.2-0.4,0.4-0.6c0.1-0.1,0.3-0.1,0.5-0.1c0.2,0,0.3,0,0.3,0
				c0.3,0.1,0.5,0.2,0.6,0.5S220.8,33.4,220.8,33.4z M215.5,30.8L215.5,30.8C215.5,30.7,215.5,30.8,215.5,30.8
				C215.5,30.8,215.5,30.8,215.5,30.8z M215.9,26.7L215.9,26.7L215.9,26.7L215.9,26.7z M216.1,26.2L216.1,26.2
				C216.1,26.2,216.1,26.2,216.1,26.2C216.1,26.3,216.1,26.3,216.1,26.2z M216.2,26.1L216.2,26.1C216.3,26.1,216.2,26.1,216.2,26.1
				L216.2,26.1z M216.3,26L216.3,26L216.3,26L216.3,26z M218.2,33.5l0.2,0C218.3,33.4,218.2,33.4,218.2,33.5l-0.1,0
				C218.1,33.5,218.1,33.5,218.2,33.5z M218.6,33.3L218.6,33.3L218.6,33.3z M218.7,33.3L218.7,33.3
				C218.7,33.3,218.7,33.3,218.7,33.3z M218.8,33.2L218.8,33.2L218.8,33.2L218.8,33.2z"/>
			<path class="st3" d="M229.3,33.8c0,0.2-0.1,0.5-0.3,0.7c-0.2,0.2-0.5,0.3-0.8,0.3c-0.1,0-0.3,0-0.4-0.1s-0.3-0.1-0.3-0.2
				c-1.2-1.4-2.2-2.9-3.1-4.3c0,0-0.1,0-0.2,0v4.3c0,0.3-0.1,0.5-0.3,0.7c-0.2,0.2-0.5,0.3-0.8,0.3c-0.3,0-0.5-0.1-0.7-0.3
				c-0.2-0.2-0.3-0.4-0.3-0.7v-2.9V21.3c0-0.3,0.1-0.5,0.3-0.8s0.5-0.3,0.8-0.3c0.3,0,0.5,0.1,0.7,0.3s0.3,0.5,0.3,0.7v2.9v2.7
				l0.5-0.6c0.2-0.2,0.4-0.3,0.7-0.3c0.3,0,0.5,0.1,0.8,0.3c0.2,0.2,0.3,0.4,0.3,0.7c0,0.3-0.1,0.6-0.3,0.8
				c-0.4,0.5-0.7,0.8-0.7,0.8l0.1-0.1l-0.1,0.1c0.2,0.1,0.4,0.2,0.5,0.4c0.6,1,1.3,2,2.1,3.1l-0.1-0.1l0.9,1.1
				C229.2,33.3,229.3,33.6,229.3,33.8z"/>
			<path class="st3" d="M237.6,33.5c0,0,0.1,0.1,0.2,0.3c0.1,0.2,0.2,0.4,0.2,0.7c0,0.1,0,0.2,0,0.2c-0.1,0.2-0.2,0.5-0.5,0.6
				c-0.1,0.1-0.3,0.1-0.5,0.1c-0.1,0-0.2,0-0.3,0c-1-0.2-1.9-0.4-2.7-0.8c-0.8-0.3-1.5-0.8-2-1.4c-0.6-0.7-1-1.4-1.1-2.1
				c0-0.2,0-0.4,0-0.7c0-0.3,0-0.5,0-0.7c0.1-0.4,0.2-0.7,0.3-1.1c0.3-0.7,0.8-1.2,1.4-1.6c0.6-0.4,1.3-0.6,2-0.6
				c0.9,0,1.6,0.2,2.3,0.7c0.9,0.6,1.4,1.4,1.4,2.2c0,0.3-0.1,0.6-0.3,0.9c-0.2,0.3-0.5,0.5-0.8,0.6c-0.2,0.1-0.5,0.1-0.8,0.1
				c-0.3,0-0.5,0-0.6,0c-0.6,0-1.4,0-2.5,0c-0.2,0-0.3,0-0.5-0.1c0,0.2,0.1,0.3,0.1,0.3c0.1,0.2,0.2,0.4,0.3,0.6l-0.1-0.1l0.1,0.1
				l0.1,0.1c0,0,0,0-0.1-0.1l0.5,0.5c0.3,0.2,0.6,0.4,1.2,0.7c0.6,0.2,1.3,0.4,2.3,0.6C237.5,33.5,237.6,33.5,237.6,33.5z
				 M232.9,30.4c0,0,0-0.1,0-0.2C232.9,30.3,232.9,30.3,232.9,30.4L232.9,30.4z M232.9,30.6C232.9,30.7,232.9,30.7,232.9,30.6
				C232.9,30.7,232.9,30.6,232.9,30.6L232.9,30.6z M233,29.8L233,29.8L233,29.8L233,29.8z M234.6,28.6c-0.1,0-0.3,0-0.3,0
				L234.6,28.6l-0.5,0.1l-0.3,0.2h1.3c0.1,0,0.3,0,0.6,0l-0.1-0.1l0.1,0l-0.1,0l-0.2-0.1l0.1,0.1c-0.2-0.1-0.4-0.1-0.5-0.1
				C234.9,28.6,234.8,28.6,234.6,28.6z M234,28.7C234,28.7,233.9,28.7,234,28.7C233.9,28.7,234,28.7,234,28.7
				C234,28.7,234,28.7,234,28.7C234,28.7,234,28.7,234,28.7z M235.6,28.8L235.6,28.8L235.6,28.8L235.6,28.8z M236.3,29.2L236.3,29.2
				L236.3,29.2L236.3,29.2z"/>
			<path class="st3" d="M246.8,29.7c0,0.3-0.1,0.5-0.3,0.8c-0.2,0.2-0.5,0.3-0.8,0.3c-0.5,0.1-1,0.1-1.5,0.1c0,1.2,0.1,2.5,0.2,3.7
				c0,0.3-0.1,0.5-0.3,0.7c-0.2,0.2-0.5,0.3-0.7,0.3c-0.3,0-0.5-0.1-0.8-0.3c-0.2-0.2-0.3-0.4-0.3-0.7l-0.1-2.6l0-1
				c-0.6,0-1.1,0-1.4,0s-0.5-0.1-0.7-0.3c-0.2-0.2-0.3-0.4-0.3-0.7c0-0.3,0.1-0.5,0.3-0.7c0.2-0.2,0.4-0.3,0.7-0.3l1.4,0v-1.6
				c0-1.6,0-3.2,0.1-4.7c0-0.3,0.1-0.5,0.3-0.7c0.2-0.2,0.5-0.3,0.8-0.3c0.2,0,0.5,0.1,0.7,0.3c0.2,0.2,0.3,0.4,0.3,0.7
				c0,0.6,0,1.5-0.1,2.7l0,1.8l0,1.8c0.7,0,1.2-0.1,1.5-0.1h0.1c0.2,0,0.5,0.1,0.7,0.3C246.7,29.1,246.8,29.3,246.8,29.7z"/>
			<path class="st3" d="M252.8,28.6c0,2.4-0.2,5.3-0.6,8.7c0,0.2,0,0.4-0.1,0.5l-0.2,0.2c-0.2,0.2-0.5,0.3-0.8,0.3
				c-0.3,0-0.5-0.1-0.7-0.3c-0.1-0.1-0.2-0.2-0.2-0.3s-0.1-0.3-0.1-0.4c0.1-0.7,0.2-1.6,0.3-2.9c0.2-2.3,0.3-4.3,0.3-5.8
				c0-1.5-0.1-2.8-0.2-4v0c-0.1-0.9-0.2-1.5-0.3-1.9c-0.2-1.1-0.6-2.2-1-3.3c-0.3-0.7-0.5-1.4-0.6-1.9c-0.1-0.5-0.2-1.1-0.2-1.7
				c0-0.3,0.1-0.5,0.3-0.7c0.2-0.2,0.5-0.3,0.8-0.3c0.3,0,0.5,0.1,0.7,0.3c0.2,0.2,0.3,0.4,0.3,0.7c0,0.2,0,0.4,0.1,0.7l0-0.3
				c0.1,0.6,0.3,1.3,0.6,2.2c0.4,1,0.6,1.7,0.8,2.2C252.5,23,252.8,25.7,252.8,28.6z"/>
		</g>
	</g>
</g>
</svg>
