<svg xmlns="http://www.w3.org/2000/svg" viewBox="0 0 261.28 67.43"><defs><style>.cls-1{fill:#fff;}.cls-1,.cls-2{stroke:#201600;stroke-miterlimit:10;}.cls-2{fill:none;}.cls-3{fill:#201600;}</style></defs><title>thirddonut_ru</title><g id="Слой_2" data-name="Слой 2"><g id="Слой_5" data-name="Слой 5"><path class="cls-1" d="M8.48,39.66c0,2.78.44,11.24,1.72,14,1.75,3.75,14.91,3.82,25.15,5.07,16.81,2.05,209.56-2.91,219.09-5.59,2.93-.82,9.55-32.17,4.51-42.74a11.66,11.66,0,0,0-4.71-5.57c-2.24-1.26-5.17-1.73-8-2.06-10.78-1.23-21.78-.9-32.7-.55-14.86.47-100.22.69-108.35-.08C79.59-.34,53.62.51,27.83,1.37c-4.24.14-11.35.06-14.05,2.79C11.46,6.48,8.59,31.34,8.48,39.66Z"/><path class="cls-2" d="M13.77,4.16C5.1,6.9,2.7,12.55,2.28,14.46,1.15,19.59,1.06,24.89.73,30.13c-.34,5.49-.5,28.23,1,30.5,3.5,5.15,91.35,5.65,108.67,5.81,58.64.53,115.29.67,125.86.22,4.88-.21,12.91-6.38,18.31-13.19"/><path class="cls-2" d="M11.39,12.61C7.77,15.86,5,18.25,1.24,21.33"/><path class="cls-2" d="M.92,29.77A85.86,85.86,0,0,1,10.25,23"/><path class="cls-2" d="M.38,38.82q4.18-3.46,8.69-6.5"/><path class="cls-2" d="M.55,47.24q3.86-2.9,7.94-5.5"/><path class="cls-2" d="M1.15,56.83A36.43,36.43,0,0,1,9.4,50.21"/><path class="cls-2" d="M7.23,62.4a60.55,60.55,0,0,1,8-6.07"/><path class="cls-2" d="M19.06,63.76a53.56,53.56,0,0,1,6.07-6"/><path class="cls-2" d="M31.05,64.58A46.42,46.42,0,0,1,37,59.06"/><path class="cls-2" d="M42.8,65.24A52,52,0,0,1,50.45,59"/><path class="cls-2" d="M54,65.6A63.13,63.13,0,0,1,61.29,59"/><path class="cls-2" d="M64.71,65.85a83.24,83.24,0,0,1,6.87-6.79"/><path class="cls-2" d="M74.89,66.12a4.44,4.44,0,0,1,.91-1.29l5.38-5.93"/><path class="cls-2" d="M84,66,90.36,59"/><path class="cls-2" d="M93.67,66.36q3.58-3.93,7.45-7.6"/><path class="cls-2" d="M103.16,66.43c-.22-.15,0-.49.14-.69q3.29-3.47,6.61-6.91"/><path class="cls-2" d="M113.24,66.81a17.85,17.85,0,0,1,2.53-2.66,42.64,42.64,0,0,0,5.07-5.73"/><path class="cls-2" d="M124.62,66.55a79.72,79.72,0,0,0,6.76-8.24"/><path class="cls-2" d="M136.07,66.51a88.36,88.36,0,0,0,7.21-8.72"/><path class="cls-2" d="M146.7,66.64c2.73-2.81,4.39-6.34,7.16-9.12"/><path class="cls-2" d="M156.87,66.69c1.86-2.81,4.83-6.51,6.49-9.44"/><path class="cls-2" d="M165.72,66.54c2.23-2.85,4.51-6.78,6.83-9.55"/><path class="cls-2" d="M175.53,66.86a25,25,0,0,1,1.73-2.39c1.65-2.23,4.36-5.59,6-7.82"/><path class="cls-2" d="M183.78,66.93c2.3-3.09,6.46-8.05,9.11-10.85"/><path class="cls-2" d="M192.53,66.93c.55-.86,1.56-2.08,2.17-2.89l6.08-8-1.09,1.4"/><path class="cls-2" d="M200.78,66.93c1.92-3,6.06-8.28,8.22-11.15"/><path class="cls-2" d="M210.19,66.54c2.32-3.19,5.7-7.62,8.16-10.7"/><path class="cls-2" d="M218.35,66.93l7.82-11.85"/><path class="cls-2" d="M228.49,66.77c1.95-3.2,5.22-8.86,7-12.15"/><path class="cls-2" d="M238.64,66.42l8.66-12.51"/><path class="cls-3" d="M54.84,30.08a3,3,0,0,1-.27,1.23,3.6,3.6,0,0,1-1,1.11,30.16,30.16,0,0,1-2.46,1.86,11,11,0,0,1-2.61,1.41,3.91,3.91,0,0,1-.54.15q.06.48.33,1.77a1,1,0,0,1,0,.3,1,1,0,0,1-.19.6,1.09,1.09,0,0,1-.56.39,1,1,0,0,1-.27.06,1.07,1.07,0,0,1-.66-.23.88.88,0,0,1-.36-.55q-.3-1.56-.42-2.34l-.45-.09A7.11,7.11,0,0,1,43,34.62a23.45,23.45,0,0,1-2.49-2.12.88.88,0,0,1-.33-.72,1,1,0,0,1,.33-.75.92.92,0,0,1,.72-.3A1,1,0,0,1,42,31l.45.42,1.38,1.17a1,1,0,0,1-.24-.15,9.84,9.84,0,0,0,1.71,1l-.09-.06.39.15L45.57,33q-.18-2.25-.24-5.4-.3,0-1-.06a9.77,9.77,0,0,1-2.55-.69,4,4,0,0,1-1-.69A2.94,2.94,0,0,1,40,25a3,3,0,0,1-.18-1,3.47,3.47,0,0,1,.27-1.38,7.18,7.18,0,0,1,1.29-2.07,9.07,9.07,0,0,1,4.05-2.61Q45.36,16,45.3,15a.88.88,0,0,1,.3-.75,1.08,1.08,0,0,1,.75-.3.86.86,0,0,1,.74.28,1.23,1.23,0,0,1,.31.77q.09,1.2.09,2.43a6.32,6.32,0,0,1,.72,0,5.94,5.94,0,0,1,.69,0,1.13,1.13,0,0,1,.72.31,1.07,1.07,0,0,1,.33.73,1.16,1.16,0,0,1-.3.75,1.57,1.57,0,0,1-.36.21,1,1,0,0,1-.39.09,3.93,3.93,0,0,0-.57,0c-.36,0-.63,0-.81,0q0,1.32-.06,4l0,2q1.17,0,1.93,0a7.17,7.17,0,0,1,1.52.25A6.3,6.3,0,0,1,53.28,27a4.09,4.09,0,0,1,1.47,2.28A3.1,3.1,0,0,1,54.84,30.08Zm-9.93-4.62.45,0V24q.06-2.58.06-3.87h0l0,0A9.79,9.79,0,0,0,44,21a9.37,9.37,0,0,0-1.41,1.41,8,8,0,0,0-.51.87l-.12.42a2.43,2.43,0,0,0,0,.45l0,.15.15.21.12.15a3.93,3.93,0,0,0,.87.48L42.81,25a7.31,7.31,0,0,0,1.68.42l-.27,0A6.2,6.2,0,0,0,44.91,25.45Zm.24,8,.09,0A.12.12,0,0,1,45.15,33.43Zm7.14-2.58.33-.39s-.06.07-.06.09l.09-.12.06-.09-.06.06.06-.12.06-.15V30a2,2,0,0,0-.18-.63l.09.27a2.53,2.53,0,0,0-.42-.75s0,.05.06.09a2.66,2.66,0,0,0-.63-.57h0a6,6,0,0,0-.93-.48l.27.09a8,8,0,0,0-1.65-.42h0a17.85,17.85,0,0,0-2-.06q.06,3.78.3,6.15a1.81,1.81,0,0,0,.51-.15l-.18.06a11,11,0,0,0,1.74-1q.33-.21,1.59-1.11v0s0,0,.09-.06h0Zm-.9.66.06-.06Zm1.26-1.08a0,0,0,0,0,0,0l0-.06Zm.12-.42,0-.18A.41.41,0,0,0,52.77,30Zm0,.24v0a.12.12,0,0,0,0-.09Zm0,.06v0Z"/><path class="cls-3" d="M71.49,34.73l-.32.3a1,1,0,0,1-.74.3H68q-1.44,0-4.32,0H62.16a15.82,15.82,0,0,0-2.28.12l.3-.06a8.22,8.22,0,0,0-1.41.36l.06,0-.09.06h0a4.5,4.5,0,0,0-.6.39l.18-.18-.21.18a1,1,0,0,1-.72.3.92.92,0,0,1-.63-.21,1.17,1.17,0,0,1-.36-.54.76.76,0,0,1,0-.24,1.93,1.93,0,0,1,.12-.57q.45-.87.84-1.56a39.29,39.29,0,0,1,3.18-4.5l.6-.78-.09.09q1.26-1.62,1.83-2.46A17,17,0,0,0,64.44,23l-.12.24A5,5,0,0,0,64.68,22a2.75,2.75,0,0,0,0-.48,1.28,1.28,0,0,0-.12-.39,1.17,1.17,0,0,0-.15-.33l-.24-.24a3.55,3.55,0,0,0-.63-.33l.06,0A6.76,6.76,0,0,0,62.7,20l.27.06a3.57,3.57,0,0,0-.78-.06c-.36,0-.63,0-.81,0a4.75,4.75,0,0,0-1.08.27l-.24.09.18-.06a4.84,4.84,0,0,0-.66.36l.15-.12-.18.15,0,0,0,0a2.3,2.3,0,0,0-.33.39,1.45,1.45,0,0,0-.21.39l.09-.15a1.86,1.86,0,0,0-.12.42v.09l.06.24a1,1,0,0,1-.06.27.64.64,0,0,1-.12.24,1.07,1.07,0,0,1-.6.48.89.89,0,0,1-.27,0,1.08,1.08,0,0,1-.54-.12,1.22,1.22,0,0,1-.3-.27.76.76,0,0,1-.18-.36,4.44,4.44,0,0,1,0-.6,2.94,2.94,0,0,1,.15-1,3.75,3.75,0,0,1,.81-1.32,4.58,4.58,0,0,1,2.46-1.32,9.43,9.43,0,0,1,1.8-.21,5.9,5.9,0,0,1,2.61.54,3.87,3.87,0,0,1,.9.63,3.24,3.24,0,0,1,.66.84,3.8,3.8,0,0,1,.42,1.77,5.43,5.43,0,0,1-.09.93,7.1,7.1,0,0,1-.87,2.22,19.12,19.12,0,0,1-1.14,1.83q-1,1.44-2.07,2.79-.21.33-.69.93v0l-.78,1q-.78,1.05-1.41,2a12.39,12.39,0,0,1,2.07-.15h2.82q3.9,0,5.85,0a1,1,0,0,1,.75.32,1.07,1.07,0,0,1,.3.76ZM58.74,35.81a0,0,0,0,1,0,0l-.06,0Zm.24-14v0Zm.6-1.08v0a0,0,0,0,1,0,0Z"/><path class="cls-3" d="M86.13,20.5l.2.27a1,1,0,0,1,.2.6.92.92,0,0,1,0,.27.88.88,0,0,1-.36.56,1,1,0,0,1-.63.23,1,1,0,0,1-.27-.06,22.44,22.44,0,0,0-3.87-.84l.3,0a22.59,22.59,0,0,0-3.18-.21q-1.08,0-2.16.09,0,1.17,0,3.48c.36,0,.61-.06.75-.06a4.28,4.28,0,0,1,3,1.29,5.78,5.78,0,0,1,1.43,2.12A6.9,6.9,0,0,1,82,30.83a6.39,6.39,0,0,1-.43,2.32,6.89,6.89,0,0,1-1.25,2.06,6.66,6.66,0,0,1-2,1.58,6.2,6.2,0,0,1-2.34.73,3,3,0,0,1-1.35-.18,2.32,2.32,0,0,1-.84-.51,2.13,2.13,0,0,1-.45-.48A2.46,2.46,0,0,1,73,34.93a1.87,1.87,0,0,1,.33-1.14,1.09,1.09,0,0,1,.93-.51,1,1,0,0,1,.48.12,1.24,1.24,0,0,1,.3.27.76.76,0,0,1,.18.36.79.79,0,0,1,0,.24,1,1,0,0,1-.15.57l0,.06V35l0,.12.09.12.09.09.09,0h0a.17.17,0,0,0,.12.06l-.12,0,.27.06h-.15a.69.69,0,0,1,.21,0h0a3.53,3.53,0,0,0,.51-.06l-.27.06a4.62,4.62,0,0,0,1.14-.33l-.27.09a5.49,5.49,0,0,0,1.35-.78l-.06.06a6.43,6.43,0,0,0,.9-.9s-.06.07-.06.09a7.8,7.8,0,0,0,.66-1.08l0,0a6,6,0,0,0,.36-1.2v.09a.65.65,0,0,1,0-.21v0a3.66,3.66,0,0,0,0-.54,3.39,3.39,0,0,0,0-.51v0l0-.24v.12a7.26,7.26,0,0,0-.27-1.05l-.09-.24.09.21A5.57,5.57,0,0,0,79,28l.09.12a4.42,4.42,0,0,0-.75-.75,3.19,3.19,0,0,0-.51-.3,4,4,0,0,0-.54-.15h-.36a1.88,1.88,0,0,0-.42.12,1,1,0,0,0-.3.15l.06-.06s-.07.06-.09.06l-.12.09.09,0-.12.09a.89.89,0,0,1-.69.3.93.93,0,0,1-.42-.09,1,1,0,0,1-.46-.37,1,1,0,0,1-.17-.55l-.06-6.39a1,1,0,0,1,.3-.73,1.17,1.17,0,0,1,.75-.31.9.9,0,0,1,.66.27.33.33,0,0,1,.15,0q1.62-.12,2.37-.12a24.62,24.62,0,0,1,7.29,1.11ZM75.06,35.06v0s0,0,0,0Zm.09.18.06.06Zm.09.09.06,0h0A0,0,0,0,0,75.24,35.33Zm.12,0v0Zm.33.12-.06,0a.13.13,0,0,1,.09,0Zm.51-8.31h0l-.06.06Zm3.48,1.92v0Zm.3,1.17a.17.17,0,0,1,0-.12Zm0,1.08,0,.12a.33.33,0,0,1,0-.15Z"/><path class="cls-3" d="M98.47,23.76a28.47,28.47,0,0,0-.74,3.67v-.06A18.21,18.21,0,0,0,97.56,30a18.94,18.94,0,0,0,.15,2.22v0a15.71,15.71,0,0,0,1,3.66l-.06-.06a12,12,0,0,0,1.5,2.58.77.77,0,0,1,.12.48,1.07,1.07,0,0,1,0,.3,1,1,0,0,1-.48.63.81.81,0,0,1-.48.15,1,1,0,0,1-.3-.06,1.21,1.21,0,0,1-.63-.45,13.17,13.17,0,0,1-2.1-4.32,16.94,16.94,0,0,1-.69-5,27.13,27.13,0,0,1,.3-3.81,29.71,29.71,0,0,1,1-4.19q.64-2.08,1.69-5a1.12,1.12,0,0,1,.38-.56.94.94,0,0,1,.58-.19,1.08,1.08,0,0,1,.3,0,.84.84,0,0,1,.36.17,1,1,0,0,1,.27.29,1.09,1.09,0,0,1,.12.54.92.92,0,0,1,0,.27l-.75,2.13Q99,21.91,98.47,23.76ZM98.73,36a.46.46,0,0,1-.06-.18Z"/><path class="cls-3" d="M109.59,34.27a1,1,0,0,1,0,.3.89.89,0,0,1-.48.6,1.2,1.2,0,0,1-.78.12,5.43,5.43,0,0,1-2.58-1.2,4.54,4.54,0,0,1-1.17-1.29l-.15.09-.12.06q-.12,2.82-.21,4.23a1.29,1.29,0,0,1-.33.73,1.05,1.05,0,0,1-.72.32,1,1,0,0,1-.72-.3.82.82,0,0,1-.3-.75l.12-2.13q.12-3.06.12-4.59,0-1,0-1.53l0-1.5a.87.87,0,0,1,.33-.67,1.16,1.16,0,0,1,.78-.29.84.84,0,0,1,.66.31,1.21,1.21,0,0,1,.3.71l.06,2.16v.66a8.17,8.17,0,0,0,.66-.75l-.15.21a8.56,8.56,0,0,0,1-1.65l-.09.15a6.81,6.81,0,0,0,.51-1.8,1,1,0,0,1,.48-.63,1,1,0,0,1,.48-.12,1.08,1.08,0,0,1,.3,0,.83.83,0,0,1,.63.48,1,1,0,0,1,.12.48,1.07,1.07,0,0,1,0,.3,8.3,8.3,0,0,1-.33,1.41,8.5,8.5,0,0,1-1.77,3,5.21,5.21,0,0,0,.42.66l-.15-.21a5.17,5.17,0,0,0,.81.81l-.09-.06a3.21,3.21,0,0,0,.66.39h0l.06,0,.09,0-.06,0a2.75,2.75,0,0,0,1,.27,1,1,0,0,1,.6.48A.78.78,0,0,1,109.59,34.27Zm-5.79-3.48-.12.09.06,0Zm4,2.22a0,0,0,0,1,0,0l.06,0Z"/><path class="cls-3" d="M118.2,34.87s.06-.07.06-.09l-.57.78L118,39.2q0,.69.15,1.86l.12,1.8a3.34,3.34,0,0,1-.42,1.8,2.54,2.54,0,0,1-.75.78,3.51,3.51,0,0,1-1,.3,2.87,2.87,0,0,1-2.85-2,4,4,0,0,1-.24-1.47,9.7,9.7,0,0,1,.24-2,12.62,12.62,0,0,1,1.14-3.15A18.83,18.83,0,0,1,115.56,35c0-.34-.07-.85-.15-1.53l-.18-1.92-.51.84q-.24.36-.39.54l-.2.25-.25.31a1.73,1.73,0,0,1-1.17.48,1.29,1.29,0,0,1-.78-.24,1.63,1.63,0,0,1-.72-1,10,10,0,0,1-.12-1.78V28a1,1,0,0,1,.32-.73,1.1,1.1,0,0,1,.76-.28.93.93,0,0,1,.69.31,1,1,0,0,1,.3.7v3a14.79,14.79,0,0,0,.75-1.41,0,0,0,0,0,0,0,11,11,0,0,0,.84-2.91,1,1,0,0,1,.48-.63,1,1,0,0,1,.48-.12,1.27,1.27,0,0,1,.78.27.9.9,0,0,1,.24.43,2.18,2.18,0,0,1,.06.32l.09.93q.12.93.48,3.87l.09.81q.24-.3.78-.9a.85.85,0,0,1,.66-.3,1.2,1.2,0,0,1,.78.3.55.55,0,0,1,.23.3,1.27,1.27,0,0,1,.07.42,1.13,1.13,0,0,1-.3.72ZM112.41,32h0Zm.06,0s0,0,0,0l.06,0h0ZM115,42.25l0,.36.12.48.18.27a.54.54,0,0,0,.15.15s.07.06.09.06l.18.09H116l0,0,.09,0v0l.09-.33a4.4,4.4,0,0,0,0-.79q0-.44,0-.62L116,40q-.06-.84-.12-1.32a11.16,11.16,0,0,0-.78,2.82Zm.06-.81a.33.33,0,0,0,0-.15A.33.33,0,0,1,115.11,41.45Zm.84,2.25h0a0,0,0,0,0,0,0l0,0a0,0,0,0,1,0,0h0l0,0h0Zm.12,0s-.05,0-.09.06S116,43.66,116.07,43.66Zm-.06.06s.06-.07.06-.09Zm.09-.09h0Zm0,0v0l0,0Zm.06-.21v0l-.06.12A.17.17,0,0,0,116.19,43.43Z"/><path class="cls-3" d="M131.19,33.89v.18a1,1,0,0,1-.12.51,1.61,1.61,0,0,1-.72.77,2.14,2.14,0,0,1-2.16,0,2.68,2.68,0,0,1-.87-.84,3.05,3.05,0,0,1-.48-2,5.5,5.5,0,0,1,0-.62c0-.17,0-.31.06-.43s0-.19.06-.33a3.75,3.75,0,0,0,0-.51,5.65,5.65,0,0,0,0-.69q0-.3,0-.51-1.89,1.35-3.54,2.43v3.6a1,1,0,0,1-.32.73,1.1,1.1,0,0,1-.76.29.88.88,0,0,1-.67-.31,1,1,0,0,1-.29-.71V27.85a1,1,0,0,1,.32-.73,1.1,1.1,0,0,1,.76-.29.88.88,0,0,1,.67.31,1,1,0,0,1,.29.71v1.56q2-1.38,3.42-2.46h0l.06,0,.15-.12-.06.06a1.13,1.13,0,0,1,.45-.27.64.64,0,0,1,.54,0,1,1,0,0,1,.48.27.78.78,0,0,1,.24.45,9.88,9.88,0,0,1,.36,2.67q0,.57-.12,1.71a7.42,7.42,0,0,0-.09,1.17c0,.16.08.3.12.42l.09.18.12.09h.06a1,1,0,0,1,.9-.51,1,1,0,0,1,.51.12.93.93,0,0,1,.48.63Zm-2-.3h0Zm0,0h0Z"/><path class="cls-3" d="M141.93,35.45a1.23,1.23,0,0,1-.15.54,1.08,1.08,0,0,1-.6.48.92.92,0,0,1-.27,0,1,1,0,0,1-.54-.15.89.89,0,0,1-.48-.6q-.12-.87-.3-2.31a37.4,37.4,0,0,1-.3-3.84l-.06.12q-1.14,2.13-1.79,3.22a13.84,13.84,0,0,1-1.58,2.15,2.4,2.4,0,0,1-1.74,1,1.2,1.2,0,0,1-.74-.18,1.42,1.42,0,0,1-.53-.54,2.18,2.18,0,0,1-.18-1.2V30.31a.92.92,0,0,1,.33-.73,1.15,1.15,0,0,1,.78-.29.88.88,0,0,1,.67.32,1,1,0,0,1,.29.7V33.2l.18-.24-.15.21q.45-.6,1.08-1.62l1.08-1.92.63-1.17a20.11,20.11,0,0,1,2-3.12,1,1,0,0,1,.6-.3h.15a1.69,1.69,0,0,1,.39.06,1.34,1.34,0,0,1,.45.4.94.94,0,0,1,.18.56q-.06,1.2-.06,1.83a50.79,50.79,0,0,0,.42,6.42l0-.3.18,1.17ZM134.13,34h0ZM141,26.93l-.06.09S141,26.95,141,26.93Z"/><path class="cls-3" d="M155.76,27.89l-.06.72a6.24,6.24,0,0,1-.15,1.32,7.87,7.87,0,0,1-.79,2.28,9.89,9.89,0,0,1-1.4,2,6.54,6.54,0,0,1-1.63,1.29,3.7,3.7,0,0,1-1.81.51,2.79,2.79,0,0,1-1.26-.3,2.24,2.24,0,0,1-.93-.83,3.29,3.29,0,0,1-.48-1.21,5.73,5.73,0,0,1-.06-1.14H145.5l0,3.54a.85.85,0,0,1-.33.69,1.15,1.15,0,0,1-.75.27.88.88,0,0,1-.67-.31,1.16,1.16,0,0,1-.31-.71l0-2q0-3.75.21-7a1.1,1.1,0,0,1,.32-.74,1,1,0,0,1,.76-.28.93.93,0,0,1,.69.31.9.9,0,0,1,.27.71l-.09,2-.06,1.47q1.86,0,2.76,0a1,1,0,0,1,.81.39,1,1,0,0,1,.21.6,1.23,1.23,0,0,1,0,.3l0,.33q0,.33,0,1a1.77,1.77,0,0,0,.15.51l.06.09.12.15.12.06.24.06H150l.21,0h-.12a1.32,1.32,0,0,0,.28-.09l.23-.09.54-.3a9.7,9.7,0,0,0,1.17-1.2l-.09.12a9.9,9.9,0,0,0,.9-1.56s-.06.07-.06.09a9,9,0,0,0,.54-1.92l-.06.27a6.46,6.46,0,0,0,.06-.75,2.76,2.76,0,0,0,0-.48l.06.27a2,2,0,0,0-.12-.42l0-.09a0,0,0,0,1,0,0h0l-.06,0-.18-.06H153l-.24.06-.27.15-.24.24-.36.6s.06-.07.06-.09a8,8,0,0,0-.36,1.26.82.82,0,0,1-.36.54,1.13,1.13,0,0,1-.66.21.78.78,0,0,1-.24,0,1.1,1.1,0,0,1-.63-.48,1,1,0,0,1-.12-.51,1.08,1.08,0,0,1,0-.3,5.21,5.21,0,0,1,1.17-2.64,2.89,2.89,0,0,1,1-.78,3,3,0,0,1,1.29-.3,2.78,2.78,0,0,1,1.44.39,2.53,2.53,0,0,1,1,1.26Zm-6.48,4a.34.34,0,0,1,0,.15A.34.34,0,0,0,149.28,31.85Zm.09,1.8v0h0Zm.21.21,0,.06h0Zm.09.09h0Zm.06,0h0l.06,0A.12.12,0,0,0,149.73,33.95Zm.3,0h0a.17.17,0,0,1,.12,0Zm3.09-6.33a.12.12,0,0,0,.09,0l-.09,0h0l-.12,0A.18.18,0,0,0,153.12,27.64Zm.28.06s0,0,0,0l-.06-.06,0,0Zm.11.09.06,0-.09-.06Zm0,0h0v0A0,0,0,0,0,153.54,27.83Zm0,.06,0-.06v0Z"/><path class="cls-3" d="M173.25,30.23a12.33,12.33,0,0,1-1,2.13A10.41,10.41,0,0,1,169,35.75a5.13,5.13,0,0,1-1,.57,1.59,1.59,0,0,1-.72.18,1.36,1.36,0,0,1-.66-.18,1.15,1.15,0,0,1-.54-.57,2.35,2.35,0,0,1-.19-.67,6.73,6.73,0,0,1,0-.85V27.74l-.36-.18a1.8,1.8,0,0,1-.65-.72,2.12,2.12,0,0,1-.22-1,6.85,6.85,0,0,1,.24-1.77,11.6,11.6,0,0,1,1-2.7,10.8,10.8,0,0,1,3.75-4.26.73.73,0,0,1,.48-.15,1.11,1.11,0,0,1,.53.13,1.06,1.06,0,0,1,.41.38,1.09,1.09,0,0,1,.12.54.92.92,0,0,1,0,.27,1,1,0,0,1-.48.6l-.45.33.21-.15a12,12,0,0,0-1.68,1.65l0,0a10.67,10.67,0,0,0-1.38,2.37l.09-.24a10.68,10.68,0,0,0-.69,2.58v-.15a3.66,3.66,0,0,0,0,.54.94.94,0,0,0,.27.06h0q.36.06,1.14.12l1.74.21a10.73,10.73,0,0,1,1.26.33,5,5,0,0,1,1.32.66,3.36,3.36,0,0,1,.72.69,2,2,0,0,1,.3,1.08A5.08,5.08,0,0,1,173.25,30.23Zm-6-4.32-.24,0A.78.78,0,0,1,167.28,25.91Zm3.3,5.34.51-1.14-.09.24a8.32,8.32,0,0,0,.42-1.29V29l0-.06a0,0,0,0,0,0,0l-.06,0-.12-.12.12.12a4.28,4.28,0,0,0-.78-.42l.27.09a12.17,12.17,0,0,0-1.77-.45h.06l-.24,0h0L168,28V34l.3-.21-.06,0a8.35,8.35,0,0,0,1.68-1.68l0,.09Zm-1.5-3.09a.5.5,0,0,1-.21,0h0Z"/><path class="cls-3" d="M187.14,26.18a.93.93,0,0,1,0,.27,28.75,28.75,0,0,0-1.29,5.34l0-.27q-.18,1.41-.24,3.3a1,1,0,0,1-1,1,.91.91,0,0,1-.73-.28,1,1,0,0,1-.32-.74l.09-1.95c0-.18,0-.43.08-.75s.06-.59.11-.81l-1.56,2.25-1.14,1.62a4.15,4.15,0,0,1-.83.92,1.94,1.94,0,0,1-1,.4,1.36,1.36,0,0,1-1.23-.6,1.86,1.86,0,0,1-.36-1.2,16,16,0,0,1,.27-2q.09-.57.33-1.65l.3-1.65a16.79,16.79,0,0,0-1.65,2.85,1,1,0,0,1-.6.48.92.92,0,0,1-.27,0,1.08,1.08,0,0,1-.54-.12,1.23,1.23,0,0,1-.3-.27A.76.76,0,0,1,175,32a.5.5,0,0,1,0-.21,1.27,1.27,0,0,1,.15-.57,19.63,19.63,0,0,1,3.69-5.43.92.92,0,0,1,.72-.3,1.12,1.12,0,0,1,.65.19.92.92,0,0,1,.38.56,8.81,8.81,0,0,1,.15,1.53,11.75,11.75,0,0,1-.14,1.8q-.13.87-.43,2.52a10.51,10.51,0,0,0-.24,1.2c.06-.1.14-.22.24-.36l.33-.48,4.74-6.84a1.07,1.07,0,0,1,.9-.51,1,1,0,0,1,.39.09,1.18,1.18,0,0,1,.48.42A1,1,0,0,1,187.14,26.18ZM179,34.52l.06,0h0Z"/><path class="cls-3" d="M197.88,35.45a1.23,1.23,0,0,1-.15.54,1.08,1.08,0,0,1-.6.48.92.92,0,0,1-.27,0,1,1,0,0,1-.54-.15.89.89,0,0,1-.48-.6q-.12-.87-.3-2.31a37.4,37.4,0,0,1-.3-3.84l-.06.12q-1.14,2.13-1.79,3.22a13.84,13.84,0,0,1-1.58,2.15,2.4,2.4,0,0,1-1.74,1,1.2,1.2,0,0,1-.74-.18,1.42,1.42,0,0,1-.53-.54,2.18,2.18,0,0,1-.18-1.2V30.31a.92.92,0,0,1,.33-.73,1.15,1.15,0,0,1,.78-.29.88.88,0,0,1,.67.32,1,1,0,0,1,.29.7V33.2l.18-.24-.15.21q.45-.6,1.08-1.62l1.08-1.92.63-1.17a20.11,20.11,0,0,1,2-3.12,1,1,0,0,1,.6-.3h.15a1.69,1.69,0,0,1,.39.06,1.34,1.34,0,0,1,.45.4.94.94,0,0,1,.18.56q-.06,1.2-.06,1.83a50.79,50.79,0,0,0,.42,6.42l0-.3.18,1.17ZM190.08,34h0Zm6.84-7.11-.06.09S196.92,26.95,196.92,26.93Z"/><path class="cls-3" d="M206.12,34.54l.21.3a1.13,1.13,0,0,1,.21.66.76.76,0,0,1,0,.24,1.1,1.1,0,0,1-.48.63,1,1,0,0,1-.51.12,1.06,1.06,0,0,1-.3,0,12.85,12.85,0,0,1-2.71-.77,5.32,5.32,0,0,1-2-1.43,3.94,3.94,0,0,1-1.08-2.1,5.76,5.76,0,0,1,0-.66,5.3,5.3,0,0,1,0-.66,4.49,4.49,0,0,1,.33-1.08,3.67,3.67,0,0,1,1.41-1.63,3.72,3.72,0,0,1,2-.62,3.93,3.93,0,0,1,2.28.66,2.71,2.71,0,0,1,1.41,2.22,1.41,1.41,0,0,1-.32.88,1.59,1.59,0,0,1-.79.56,3.28,3.28,0,0,1-.79.09h-.55q-.84,0-2.52,0a1,1,0,0,1-.48-.12,1.1,1.1,0,0,0,.12.33,4.74,4.74,0,0,0,.3.57l-.06-.06.06.06.09.15s0,0-.06-.09l.48.48a5.25,5.25,0,0,0,1.17.69,19.1,19.1,0,0,0,2.25.57Zm-4.71-3.18a.34.34,0,0,0,0-.15.12.12,0,0,1,0,.09Zm0,.27a.12.12,0,0,1,0,.09.34.34,0,0,0,0-.15Zm.15-.81v0Zm1.62-1.23a1.44,1.44,0,0,0-.33,0l.3-.06-.48.09-.33.18h1.35a4.14,4.14,0,0,0,.57,0l-.15-.09.06,0-.09,0-.15-.09.12.06a1.91,1.91,0,0,0-.54-.12A1.23,1.23,0,0,0,203.18,29.6Zm-.64.12a.1.1,0,0,0-.08,0,.1.1,0,0,1,.08,0,.1.1,0,0,0,.08,0A.1.1,0,0,1,202.54,29.72Zm1.58.06-.06,0,0,0Zm.75.45v0Z"/><path class="cls-3" d="M222.32,34.16a1.22,1.22,0,0,1-.15.54,1.07,1.07,0,0,1-.6.48.63.63,0,0,1-.24,0,1,1,0,0,1-.57-.15.89.89,0,0,1-.48-.6q-.18-1.08-.33-1.62a10.76,10.76,0,0,0-.42-1.47l.09.27a1.38,1.38,0,0,0-.27-.51s-.06-.07-.06-.09l-.15.09.12-.12a11.74,11.74,0,0,0-1.47,1.5s.06-.07.06-.09a11.6,11.6,0,0,0-1.26,2.13.1.1,0,0,0,0-.07.1.1,0,0,1,0-.08q-.15.39-.3.87a1.08,1.08,0,0,1-.39.56,1,1,0,0,1-.63.19,1,1,0,0,1-1-1V31.87q0-.54,0-1.59v-.42L214,30l-.93.66h0a20,20,0,0,0-2.34,2.16,30,30,0,0,0,.18,3.78v.06a.92.92,0,0,1-.3.66,1,1,0,0,1-.75.3h-.06a.92.92,0,0,1-.66-.3,1.2,1.2,0,0,1-.3-.72q-.12-1.23-.15-1.92,0-.39,0-1.17a1,1,0,0,1-.27-.72,1.13,1.13,0,0,1,.3-.72,34.79,34.79,0,0,1,.51-4.32.83.83,0,0,1,.36-.54,1.13,1.13,0,0,1,.66-.21.8.8,0,0,1,.24,0,1,1,0,0,1,.63.45,1.14,1.14,0,0,1,.12.51,1.07,1.07,0,0,1,0,.3q-.09.54-.21,1.41a17.81,17.81,0,0,1,2.1-1.56,8.4,8.4,0,0,1,1.35-.72,1.44,1.44,0,0,1,1.2.09,1.33,1.33,0,0,1,.69,1.08,5.49,5.49,0,0,1,0,.93q0,.51,0,.72V31l.84-.9a5.72,5.72,0,0,1,1.08-.9,1.89,1.89,0,0,1,1-.27h.12a1.72,1.72,0,0,1,.75.21,3,3,0,0,1,1.5,2,14.91,14.91,0,0,1,.66,2.7ZM211,29.75v0Z"/><path class="cls-3" d="M228.26,29.6a72.31,72.31,0,0,1-.63,8.67,1,1,0,0,1-.15.51l-.15.21a1,1,0,0,1-.75.3,1,1,0,0,1-.72-.3,1.2,1.2,0,0,1-.24-.35.63.63,0,0,1-.06-.37q.12-1.05.3-2.85.33-3.51.33-5.79a30.83,30.83,0,0,0-.24-4v0a17.93,17.93,0,0,0-.33-1.92,24.35,24.35,0,0,0-1-3.27q-.39-1.08-.6-1.9a7.8,7.8,0,0,1-.24-1.67.92.92,0,0,1,.33-.73,1.15,1.15,0,0,1,.78-.29.88.88,0,0,1,.67.31,1,1,0,0,1,.29.71,6.32,6.32,0,0,0,.06.72l0-.3a8.85,8.85,0,0,0,.6,2.22q.54,1.44.75,2.19A29.39,29.39,0,0,1,228.26,29.6Z"/></g></g></svg>