<?xml version="1.0" encoding="utf-8"?>
<!-- Generator: Adobe Illustrator 21.0.2, SVG Export Plug-In . SVG Version: 6.00 Build 0)  -->
<svg version="1.1" xmlns="http://www.w3.org/2000/svg" xmlns:xlink="http://www.w3.org/1999/xlink" x="0px" y="0px"
	 viewBox="0 0 252 34.4" style="enable-background:new 0 0 252 34.4;" xml:space="preserve">
<style type="text/css">
	.st0{display:none;}
	.st1{display:inline;fill:#EEB755;stroke:#586DB0;stroke-miterlimit:10;}
	.st2{display:inline;}
	.st3{fill:#0D0E0F;}
	.st4{fill:none;stroke:#0D0E0F;stroke-miterlimit:10;}
	.st5{fill:#FFFFFF;}
	.st6{fill:#FFFFFF;stroke:#0D0E0F;stroke-miterlimit:10;}
	.st7{fill:#FFFFFF;stroke:#000000;stroke-miterlimit:10;}
	.st8{fill:none;stroke:#000000;stroke-miterlimit:10;}
</style>
<g id="Слой_3" class="st0">
	<rect x="-617.7" y="-17.5" class="st1" width="1306" height="2822"/>
</g>
<g id="Слой_18">
</g>
<g id="Слой_2" class="st0">
	<g class="st2">
		<g>
			<g>
				<path class="st3" d="M-632-64.4c-2,1.7-4.9,4.9-4.7,7.7c0.1,1.7,0.7,3.5,1.1,5.2c1.6,6.6,3.3,13.2,5.1,19.8
					c2,7.3,4,14.5,6.1,21.8c0.7,2.4,1.4,4.7,2.1,7.1c0.3,0.8,0.5,2.3,1.2,2.9c0.9,0.7,3,0.5,4,0.5c2.3,0.1,4.7,0,7-0.1
					c1.4-0.1,3.1-0.1,4.4-0.6c1.9-0.7,2.8-2.9,3.6-4.6c0.3-0.6-0.6-1.1-0.9-0.5c-0.9,1.9-1.7,3.9-3.9,4.3c-1.4,0.3-2.8,0.3-4.2,0.4
					c-1.8,0.1-3.7,0.1-5.5,0.1c-0.9,0-3.3,0.3-4-0.3c-0.6-0.6-0.9-2.6-1.1-3.4c-0.7-2.3-1.4-4.5-2-6.8c-3.6-12.6-7.1-25.3-10.3-38
					c-0.5-2.2-1.1-4.4-1.5-6.7c-0.6-3.1,1.8-6,4.2-8C-630.8-64.1-631.5-64.8-632-64.4L-632-64.4z"/>
			</g>
		</g>
		<g>
			<g>
				<path class="st3" d="M-598.3-65.1c-2.3,0.1-4.6,0.5-6,2.5c-1.4,2-1.9,4.7-2.5,7c-1.8,6.5-3.2,13.2-4.6,19.8
					c-0.1,0.6,0.8,0.9,1,0.3c1.1-5.6,2.4-11.2,3.8-16.7c0.6-2.5,1.3-4.9,2.1-7.3c1.1-3.2,2.9-4.3,6.3-4.5
					C-597.6-64.2-597.6-65.2-598.3-65.1L-598.3-65.1z"/>
			</g>
		</g>
		<g>
			<g>
				<path class="st3" d="M-566-63.2c0.6,0,0.6-1,0-1C-566.7-64.2-566.7-63.2-566-63.2L-566-63.2z"/>
			</g>
		</g>
		<g>
			<g>
				<path class="st3" d="M-566-63.2c0.6,0,0.6-1,0-1C-566.7-64.2-566.7-63.2-566-63.2L-566-63.2z"/>
			</g>
		</g>
		<g>
			<g>
				<path class="st3" d="M-565.4-65.1c-2.4,1.2-5.2,2.5-6.2,5.2c-1.2,2.9-2,5.9-2.8,8.9c-1.6,5.7-3.4,11.4-4.3,17.2
					c0.2-0.1,0.5-0.2,0.7-0.3c-0.1,0-0.1-0.1-0.2-0.1c-0.6-0.3-1.1,0.6-0.5,0.9c0.1,0,0.1,0.1,0.2,0.1c0.3,0.1,0.7,0,0.7-0.3
					c0.8-5.3,2.4-10.5,3.8-15.7c0.8-3,1.7-5.9,2.7-8.9c0.3-0.8,0.5-1.9,1.1-2.6c1.1-1.5,3.6-2.6,5.3-3.5
					C-564.3-64.6-564.8-65.4-565.4-65.1L-565.4-65.1z"/>
			</g>
		</g>
		<g>
			<g>
				<path class="st3" d="M-570.1-4.7c-2.2,3.1-4.7,5.4-8.6,5.4c-2.5,0-5.3,0.1-7.7-0.6c-3-0.8-3.6-5.5-4.3-8.1
					c-1.3-4.6-2.3-9.2-3.2-13.8c-0.6-3.2-1.4-6.6-1.6-9.9c0-0.6-1-0.6-1,0c0.1,3.9,1.1,7.9,1.9,11.7c1.1,5.3,2.2,10.6,3.9,15.7
					c0.4,1.3,0.9,3.1,1.8,4.2c1,1.2,2.8,1.3,4.3,1.5c2.5,0.3,5.4,0.6,8,0.2c3.1-0.4,5.6-3.4,7.3-5.8C-568.9-4.8-569.7-5.3-570.1-4.7
					L-570.1-4.7z"/>
			</g>
		</g>
		<g>
			<g>
				<path class="st3" d="M-548.2-65c-2.8,3.1-5.9,5.9-6.2,10.3c-0.1,1.9,0,3.8,0,5.8c0.1,6.6,0.3,13.3,0.5,19.9c0.2,7,0.4,14,0.8,21
					c0.1,2,0.2,4.1,0.5,6.1c0.1,1,0.1,1.5,1,1.9c1.3,0.5,3.3,0.5,4.7,0.6c2.2,0.2,4.4,0.4,6.7,0.3c3.7-0.2,5.4-2.4,7-5.6
					c0.3-0.6-0.6-1.1-0.9-0.5c-0.7,1.4-1.7,3.1-2.9,4.2c-1.2,1.1-3.2,0.9-4.8,0.9c-1.7,0-3.4-0.1-5.1-0.3c-1.3-0.1-3.1-0.1-4.3-0.6
					c-0.4-0.2-0.2,0.3-0.4-0.5c-0.1-0.6-0.2-1.3-0.2-2c-0.2-2.2-0.3-4.4-0.4-6.5c-0.6-12.3-1-24.7-1.2-37c0-2.1-0.1-4.2-0.1-6.3
					c0.1-4.9,3-7.5,6-11C-547.1-64.8-547.8-65.5-548.2-65L-548.2-65z"/>
			</g>
		</g>
		<g>
			<g>
				<path class="st3" d="M-514.4-65.1c-2,0.7-5,2.1-6.2,3.8c-0.8,1.2-0.8,3.1-0.9,4.5c-0.4,5.3-0.2,10.7-0.2,16c0,0.6,1,0.6,1,0
					c0-4.5-0.1-8.9,0-13.4c0.1-1.8-0.1-4.2,0.5-5.9c0.8-2,4.1-3.4,6-4.2C-513.5-64.3-513.8-65.3-514.4-65.1L-514.4-65.1z"/>
			</g>
		</g>
		<g>
			<g>
				<path class="st3" d="M-534.7-24.8c0.6,1.5,6.4,0.5,7.7,0.4c1.3,0,4.7-0.6,5.1,0.8c0.4,1.1-0.1,3-0.1,4.1c0,1.6,0,3.2,0,4.8
					c0,2.8,0.1,5.7,0.3,8.5c0.1,1.6,0,3.7,0.6,5.3c0.4,1,0.9,1.1,2,1.3c2.3,0.3,4.6,0.2,6.9,0.2c2-0.1,4.2,0.1,6.1-0.3
					c2.5-0.5,3.8-2.8,5-4.9c0.3-0.6-0.5-1.1-0.9-0.5c-0.9,1.6-2,3.6-3.9,4.3c-1,0.3-2,0.2-3,0.2c-2.5,0.1-5.1,0.3-7.6,0.2
					c-0.8,0-3.1,0.2-3.6-0.5c-0.4-0.5-0.3-1.8-0.4-2.4c-0.3-3.1-0.4-6.1-0.5-9.2c-0.1-3.4-0.1-6.8,0.1-10.2c0.1-1.6,0.2-2.2-1.4-2.6
					c-1.9-0.4-4.1-0.2-6.1-0.1c-1.1,0-2.2,0.1-3.4,0.1c-0.5,0-0.9,0-1.3,0c-0.4,0-0.7-0.3-0.6,0.1
					C-533.9-25.6-534.9-25.4-534.7-24.8L-534.7-24.8z"/>
			</g>
		</g>
		<g>
			<g>
				<path class="st3" d="M-473.5-49.3c3.9-3.1,7.9-0.3,8.6,4.1c0.5,3.3,0.4,6.8,0.2,10.1c-0.3,6.8-1.4,13.5-1.4,20.2
					c0.3,0,0.7-0.1,1-0.1c-0.1-0.4-0.2-0.5-0.5-0.8c-0.4-0.5-1.2,0.2-0.7,0.7c0.1,0.1,0.1,0.2,0.2,0.4c0.2,0.5,1,0.5,1-0.1
					c0-9.6,2.1-19.1,1.3-28.8c-0.2-2.6-0.7-5.2-2.9-6.9c-2.5-1.9-5.2-1.3-7.5,0.5C-474.7-49.6-474-48.9-473.5-49.3L-473.5-49.3z"/>
			</g>
		</g>
		<g>
			<g>
				<path class="st3" d="M-479.9-62.4c-2.4,0.9-4.5,2.8-6.5,4.4c-2.5,2.1-4.7,4.4-6.4,7.2c-4.1,6.6-5.8,14.7-5.8,22.5
					c0,13.4,8.8,27,22.6,29.6c8.6,1.6,15.9-2.5,22.1-8.1c0.5-0.4-0.2-1.1-0.7-0.7c-5.6,5-12,9-19.8,8c-6.3-0.8-11.9-4.3-16-9
					c-9.1-10.5-9.1-26.7-3.2-38.9c1.6-3.3,3.7-6.3,6.5-8.7c2.2-2,4.7-4.3,7.5-5.4C-479.1-61.7-479.3-62.7-479.9-62.4L-479.9-62.4z"
					/>
			</g>
		</g>
		<path class="st4" d="M-395.5-64.6c-2.4,1.3-6,2.7-7.4,5.1c-0.5,0.8-19.2,56.3-18.6,57.3c0.7,1.3,13,3.1,14.4,2.3
			c1.3-0.7,2.5-2.3,4.1-4.9"/>
		<path class="st4" d="M-361.2-5c-0.5,1.7-1.9,3.2-3.1,4.4c-0.9,0.8-14.6,0.7-15.2,0c-1.2-1.2-3.9-10.2-4.4-10.6
			c-1.2-0.9-4.6-0.6-6.8-0.6c-3.5,0-6.7-0.2-10.1-0.3"/>
		<path class="st4" d="M-392.8-40.7c1.3,4.9,3.1,8.2,4.9,13"/>
		<path class="st4" d="M-354.7-64.6c-2.5,2.6-5.5,5.2-5.8,6c-0.3,0.9,1.2,58.2,1.8,58.5c0.3,0.2,12.4,0.3,13.2-0.3
			c0.9-0.6,2.1-2.8,2.6-4.3"/>
		<path class="st4" d="M-342.5-31.1c0.6,1.8,8.1,29.6,9.1,31c0.1,0.1,10,1.3,11.4,0.5c1.3-0.8,2.2-2.8,3.5-5"/>
		<path class="st4" d="M-309.3-36.5c0.1,10.6,0.1,35,0.8,36c0.8,1.2,15.3,1.2,15.5,0.8c1.5-2.4,2.2-3.1,3.8-5.5"/>
		<path class="st4" d="M-311.2-64.6c-1.9,1.1-7.1,5.2-7.7,5.9c-0.4,0.5-4.7,15.1-5.6,23"/>
		<path class="st4" d="M-254.6-64c-2.2,1.9-5.7,4.9-6.2,6.8c-0.5,1.9-0.8,54.9,0.3,57.8c0.2,0.4,10.1,1.2,13.2,0.8
			c1.8-0.2,5.2-3.3,6.7-6.3"/>
		<path class="st4" d="M-223.5-62.6c-7.5,2.6-13.4,8.9-13.7,16.8c-0.1,1.2,0,3.6,0.8,4.6c0.6,0.7,9.2,1.4,10.6,1.1
			c0.7-0.1,3-1.9,4-3.9"/>
		<path class="st4" d="M-220-50.4c2.1-0.9,4.9-1.5,7.1-0.7c1.4,0.5,2.4,1.9,2.8,3.3c0.3,0.8,0,1.8-0.1,2.7c-0.4,2.8-1.2,5.5-2.3,8"
			/>
		<path class="st4" d="M-215.3-36.1c-1.6,1.1-3.8,2.6-5.2,4.1c-0.8,0.8-1.5,1.7-2,2.7c-1.1,2.1-0.8,9.3-0.1,10.1
			c0.6,0.6,9.5,1.4,10,1.3c2.1-0.7,4.3-2.4,5-4.2"/>
		<path class="st4" d="M-218.8-17.5c-1.1,1-4.5,3.8-4.8,4.5c-0.3,0.8-0.1,12.3,1,13c0.6,0.4,12.8,0.2,13.8-0.5c0.6-0.5,3.2-3,4-4.5"
			/>
		<path class="st4" d="M-261.2-51.1"/>
		<path class="st4" d="M-202.2-5.3"/>
		<path class="st4" d="M-630.8-60.9c-1.6,3.3-2.9,6.2-4.3,9.6"/>
		<path class="st4" d="M-628.7-53.3c-1.6,3.6-2.8,6.9-4,10.7"/>
		<path class="st4" d="M-626.4-43.3c-1.7,3-3.1,5.7-4.3,8.8"/>
		<path class="st4" d="M-624.3-34.6c-1.6,2.6-3,5.2-4.3,7.9"/>
		<path class="st4" d="M-621.5-24.5c-1.3,2.8-2.9,6.3-4,9.2"/>
		<path class="st4" d="M-619.6-16.5c-1.3,2.8-2.5,5.7-3.6,8.6c0-0.1,0-0.2,0.1-0.3"/>
		<path class="st4" d="M-617.3-8c-1.2,2.3-2.5,4.6-3.8,6.8"/>
		<path class="st4" d="M-614-4c-1,1.4-1.9,2.8-2.7,4.3c0-0.1,0-0.1,0.1-0.2"/>
		<path class="st4" d="M-609.6-4.3c-0.9,1.3-1.8,2.8-2.5,4.2c0,0,0-0.1,0-0.1"/>
		<path class="st4" d="M-605.6-4.3c-0.8,1.2-1.6,2.4-2.3,3.7"/>
		<path class="st4" d="M-598.3-63.9c-2.3,1.4-4.6,2.9-6.9,4.4"/>
		<path class="st4" d="M-600-58.6c-2.5,1.6-4.4,3.1-6.7,4.9"/>
		<path class="st4" d="M-601.6-51.3c-2.3,1.2-4.4,2.4-6.8,3.6"/>
		<path class="st4" d="M-603.2-45.5c-2.2,1.4-3.9,2.1-6.3,3.3"/>
		<path class="st4" d="M-604.6-38.7c-1.6,1.7-3.9,2.6-5.8,4c0.1-0.1,0.2-0.1,0.3-0.2"/>
		<path class="st4" d="M-606.1-32.4c-0.3,0.2-0.6,0.5-0.9,0.7c-1.1,0.8-2.1,1.6-3.2,2.4c0,0,0.1,0,0.1-0.1"/>
		<path class="st4" d="M-591.3-37.1c-1.5,1.8-3.3,3.9-4.6,5.8"/>
		<path class="st4" d="M-589.8-31.3c0,0.2-0.2,0.4-0.4,0.6c-1.7,1.9-3.1,3.5-4.8,5.4"/>
		<path class="st4" d="M-588-24.1c-1.9,1.8-3.9,4-5.6,6.1"/>
		<path class="st4" d="M-586.6-17.3c-1.8,2.3-3.4,4.2-5.3,6.4"/>
		<path class="st4" d="M-584.7-10.7c-1.1,1.3-2.1,2.5-3.2,3.8c-0.8,0.9-1.6,1.9-2.2,2.9"/>
		<path class="st4" d="M-583.6-5.4c-1.6,1.8-3.2,3.6-4.8,5.4"/>
		<path class="st4" d="M-577-4.4c-1.5,1.4-3.3,3.7-4.3,5.5"/>
		<path class="st4" d="M-572.3-4.2c-1.4,1.6-2.7,3.4-3.9,5.1"/>
		<path class="st4" d="M-566.4-62.5c-2,1.5-3.9,3.1-5.6,4.9"/>
		<path class="st4" d="M-568-56.7c-1.8,1.5-3.9,3.2-5.6,4.7"/>
		<path class="st4" d="M-569.7-50.1c-2.1,1.6-3.9,3.2-5.9,5"/>
		<path class="st4" d="M-570.9-43.8c-2.2,1.5-3.9,2.7-6.1,4.3"/>
		<path class="st4" d="M-572.1-38.2c-1.9,1-3.8,2.1-5.7,3.3"/>
		<path class="st4" d="M-573.1-33c-1.2,0.9-2.4,1.7-3.5,2.6c0.1,0,0.2,0,0.2-0.1"/>
		<path class="st4" d="M-548-59.4c-2.1,2.1-4,4.3-6,6.6"/>
		<path class="st4" d="M-547.8-53c-2.1,2.1-4,4-6.1,6.2"/>
		<path class="st4" d="M-547.5-45.8c-2.3,2.1-4,3.9-6.1,6.2"/>
		<path class="st4" d="M-547.7-39.6c-2,2.1-4,4.2-5.9,6.4c0.1-0.1,0.2-0.3,0.3-0.4"/>
		<path class="st4" d="M-547.8-32.6c-1.9,2.3-3.6,4.2-5.7,6.3"/>
		<path class="st4" d="M-547.8-26.8c-1.8,2.1-3.6,4.3-5.4,6.4"/>
		<path class="st4" d="M-547.7-18.4c-1.6,2.3-3.4,4.4-5.3,6.4"/>
		<path class="st4" d="M-547.8-10.3c-1.5,1.7-3.4,4-4.8,5.8"/>
		<path class="st4" d="M-547-5.9c-1.4,1.9-2.8,3.8-4.1,5.7"/>
		<path class="st4" d="M-542.1-4.4c-1.1,1.1-3,3.3-3.9,4.6"/>
		<path class="st4" d="M-537-4.5c-1.2,1.5-2.3,3.1-3.2,4.8"/>
		<path class="st4" d="M-515.3-59.9c-2.1,1.7-3.8,3.3-5.8,5.1"/>
		<path class="st4" d="M-515-54.9c-2,1.5-4.3,3.4-6.1,5.1"/>
		<path class="st4" d="M-514.8-48.5c-2,1.5-4.3,3.2-6.3,4.8"/>
		<path class="st4" d="M-514.8-43.9c-1,1.1-2.4,2.3-3.4,3.3c0,0-0.1,0-0.1,0c0,0,0-0.1,0,0"/>
		<path class="st4" d="M-528.8-29.8c-1.7,1.3-3.9,3.3-5.3,4.9c0.1,0,0.1-0.1,0.2-0.2"/>
		<path class="st4" d="M-523-29.7c-0.5,0.2-1.4,0.8-1.9,1.2c-1.1,1-2.2,2-3.3,3c0.1,0,0.2-0.1,0.2-0.3"/>
		<path class="st4" d="M-518.4-29.5c-1.7,1.4-3.2,2.9-4.6,4.5"/>
		<path class="st4" d="M-515.2-27.3c-2.1,1.8-4.2,3.6-6.1,5.6"/>
		<path class="st4" d="M-515.3-21.6c-2.2,2-4.1,3.7-6.3,5.7"/>
		<path class="st4" d="M-515.4-14.8c-2.1,1.8-4.1,3.6-6.2,5.3"/>
		<path class="st4" d="M-515.3-8.9c-2,1.8-3.8,3.8-5.6,5.8"/>
		<path class="st4" d="M-513.1-4.3c-1,1.1-2.1,2.2-3.1,3.3c-0.2,0.3-0.5,0.5-0.6,0.9"/>
		<path class="st4" d="M-508.2-4c-0.8,1.3-2,2.9-3,4.2"/>
		<path class="st4" d="M-487.2-54.3c-1.6,1-3.4,2.2-5,3.3"/>
		<path class="st4" d="M-489.6-48.5c0,0.1,0.1-0.1,0.1-0.1c-0.1,0-0.2,0-0.2,0.1c-1.6,1.2-3.3,2.4-4.9,3.7c-0.4,0.3-0.7,0.5-1,0.9"
			/>
		<path class="st4" d="M-491.6-41.7c-2,1.6-3.9,3.2-5.9,4.8"/>
		<path class="st4" d="M-492.1-35.6c-2.1,1.9-4,3.6-6.1,5.5"/>
		<path class="st4" d="M-491.7-28.9c-2.2,2-4,3.8-6,5.8"/>
		<path class="st4" d="M-490.7-21.9c-1.8,1.7-3.6,3.4-5.4,5"/>
		<path class="st4" d="M-488.2-17c-1.9,1.9-3.3,3.4-5.2,5.3"/>
		<path class="st4" d="M-483.8-11.4c-1.7,1.6-3.4,3.3-5.1,4.9"/>
		<path class="st4" d="M-478.7-7.4c-1.7,1.7-3.4,3.4-5.1,5.1c-0.1,0.1-0.4,0-0.3-0.2c0.1-0.2,0.4-0.1,0.3,0.1"/>
		<path class="st4" d="M-473.6-4.9c-1.6,1.5-3.4,3.5-5,5"/>
		<path class="st4" d="M-467.2-3.8c-1.2,1.3-3.2,3.5-4.2,5"/>
		<path class="st4" d="M-461.6-4.3c-1.1,1.1-2.1,2.4-2.9,3.8"/>
		<path class="st4" d="M-464.9-53.9c-0.4,0-0.7,0.3-1,0.6c-0.8,0.8-1.6,1.6-2.4,2.4"/>
		<path class="st4" d="M-460.1-52c-1.6,1.6-3.1,3.2-4.5,4.8"/>
		<path class="st4" d="M-457.6-48.7c-2.4,2.1-4.6,4.4-6.7,6.8"/>
		<path class="st4" d="M-456.1-43.2c-1.2,1.5-2.4,2.9-3.8,4.2c-1.4,1.3-3.1,2.4-4.1,4c0-0.2,0.1-0.3,0.1-0.5"/>
		<path class="st4" d="M-455.4-36.2c-3.4,3.6-6.6,7.3-9.7,11.1"/>
		<path class="st4" d="M-455.9-29.2c-2.9,3.4-6,6.6-9.3,9.6"/>
		<path class="st4" d="M-457.7-21.6c-2.4,2-4.8,4.1-6.8,6.4"/>
		<path class="st4" d="M-397.8-59.3c-2.3,1.5-4.7,3.1-7,4.6"/>
		<path class="st4" d="M-400.6-51.3c-1.9,1.1-3.8,2.2-5.7,3.5c-0.2,0.2-0.5,0.3-0.6,0.5c0.1-0.1,0.1-0.2,0.2-0.2"/>
		<path class="st4" d="M-402.2-45.5c-2.2,1.3-4.6,2.4-7,3.3c0,0.1,0.2,0.1,0.2,0"/>
		<path class="st4" d="M-404.2-39.4c-2.2,1.3-4.4,2.6-6.6,3.9c0.1,0,0.3-0.1,0.4-0.1"/>
		<path class="st4" d="M-406.8-31.6c-2.4,1-4.6,2.2-6.8,3.5c0.1,0,0.2,0,0.2-0.1"/>
		<path class="st4" d="M-408.7-26c-2.3,2-5.3,3.1-7.5,5.2"/>
		<path class="st4" d="M-411-19.9c-1.8,1.1-3.6,2.2-5.5,3.1c-0.6,0.3-1.2,0.6-1.7,1.1c0.1,0,0.1-0.1,0.2-0.1"/>
		<path class="st4" d="M-412.8-13.3c-2.2,1.3-4.3,2.6-6.5,4"/>
		<path class="st4" d="M-421.4-2.8c1.9-1.5,4.1-2.8,6.3-3.7"/>
		<path class="st4" d="M-416-1c-0.1,0,0-0.2,0-0.2c1.3-1,2.5-2,3.9-2.9"/>
		<path class="st4" d="M-410-0.2c0.7-1.2,1.8-2.1,2.9-2.9c0.3-0.3,0.7-0.5,1-0.8"/>
		<path class="st4" d="M-392.5-39.8c1.1-1.6,2.6-3,4.2-4.2"/>
		<path class="st4" d="M-390.9-36.5c1.3-1.3,2.6-2.5,4.1-3.5"/>
		<path class="st4" d="M-389.2-31.1c-0.2-0.1,0-0.4,0.1-0.5c1-1.3,2.2-2.4,3.5-3.3"/>
		<path class="st4" d="M-387.4-27.7c1.2-1,2.5-1.9,3.8-2.7"/>
		<path class="st4" d="M-399.7-12.4c1.3-1.4,2.7-2.7,4.1-4"/>
		<path class="st4" d="M-394.1-11.6c0-0.4,0.3-0.7,0.6-1c1.2-1.3,2.5-2.6,3.7-3.9c0.2-0.3,0.5-0.5,0.7-0.7c0,0,0.1-0.1,0.1-0.1
			c0,0,0.1,0.1,0,0.1"/>
		<path class="st4" d="M-388.4-11.6c1.6-1.9,3.3-3.8,5.1-5.6"/>
		<path class="st4" d="M-383.5-10.8c0-0.3,0.2-0.6,0.4-0.8c1.2-1.2,2.5-2.5,3.8-3.7"/>
		<path class="st4" d="M-382.3-5.7c1.3-1.4,2.7-2.7,4.1-4"/>
		<path class="st4" d="M-379.9-1.2c0.9-1.4,2.1-2.7,3.5-3.7"/>
		<path class="st4" d="M-374.7,0c0.1-0.3,0.3-0.5,0.4-0.7c0.8-0.9,1.6-1.8,2.4-2.7c0.2-0.3,0.5-0.6,0.8-0.8"/>
		<path class="st4" d="M-369.6-0.1c-0.1,0-0.1-0.2,0-0.3c0.8-1.4,1.7-2.7,2.6-4"/>
		<path class="st4" d="M-366.4,0c-0.1,0-0.1-0.2,0-0.3c0.8-1.4,1.6-2.8,2.4-4.2"/>
		<path class="st4" d="M-360.2-53.5c1.4-2,3.1-3.8,4.9-5.4"/>
		<path class="st4" d="M-360.1-47.5c1.5-2,3.1-3.9,4.8-5.7"/>
		<path class="st4" d="M-360.3-42.2c0.6-0.6,1.2-1.3,1.8-1.9c1.1-1.1,2.1-2.3,3.3-3.3c0,0,0.1-0.1,0.2,0c0.1,0,0,0.1,0,0.1"/>
		<path class="st4" d="M-360-35.1c1.5-2.1,3.2-4.1,5-5.9"/>
		<path class="st4" d="M-359.5-29.7c1.3-1.9,3-3.6,4.8-4.9"/>
		<path class="st4" d="M-359.5-21.9c0.7-1.3,1.7-2.4,2.7-3.5c0.6-0.7,1.3-1.4,1.9-2c0,0,0.1-0.1,0.2-0.1c0.1,0,0,0.1,0,0.1"/>
		<path class="st4" d="M-359.3-15.8c1.5-1.8,3.1-3.5,4.8-5.2"/>
		<path class="st4" d="M-358.5-8.7c1.1-1.7,2.5-3.2,4-4.5"/>
		<path class="st4" d="M-358.9-1.7c1.2-1.5,2.6-3,4-4.3"/>
		<path class="st4" d="M-354.6-0.1c1.2-1.3,2.3-2.6,3.5-3.9"/>
		<path class="st4" d="M-348.3,0.1c0.8-1.5,1.8-2.9,3-4.1c-0.1,0.1-0.2,0.1-0.2,0.2"/>
		<path class="st4" d="M-342.4-36.9c0.7-1.4,1.6-2.7,2.6-3.9"/>
		<path class="st4" d="M-342.1-29.8c1.1-2,2.3-4,3.6-5.8"/>
		<path class="st4" d="M-340.4-24.4c1.2-1.7,2.3-3.3,3.6-4.9c0.1-0.1,0.3-0.2,0.3,0"/>
		<path class="st4" d="M-338.8-18.6c1.3-1.8,2.6-3.6,4-5.3"/>
		<path class="st4" d="M-337.2-11.7c1.2-1.9,2.6-3.8,4.1-5.4"/>
		<path class="st4" d="M-335.5-5.5c0.4-0.4,0.7-0.9,1.1-1.3c1.1-1.6,2.4-3.1,3.9-4.4c-0.1,0.1-0.3,0.1-0.4,0.2"/>
		<path class="st4" d="M-332.8,0.3c1.3-1.7,2.7-3.4,4.2-4.8c0,0,0.1-0.1,0.1,0c0,0,0,0.1,0,0.1"/>
		<path class="st4" d="M-325.9,1c1.4-1.7,2.6-3.5,3.6-5.4"/>
		<path class="st4" d="M-319.8-55.2c1.8-1.5,3.8-2.8,5.9-3.7"/>
		<path class="st4" d="M-321.8-48.8c2.2-1.4,4.4-2.8,6.6-4.2"/>
		<path class="st4" d="M-323.2-43.3c2.2-1.7,4.5-3.3,6.8-4.8c0,0,0.1-0.1,0.1-0.1c0-0.1-0.1,0-0.1,0"/>
		<path class="st4" d="M-324.1-37.9c2.2-1.7,4.5-3.4,6.8-5c-0.2,0-0.4,0-0.6,0.1"/>
		<path class="st4" d="M-323.6-33.1c1.5-1.3,3-2.5,4.7-3.6c-0.1,0-0.3,0-0.4-0.1"/>
		<path class="st4" d="M-307-42.4c0.9-0.6,1.9-1.3,2.8-1.9c0.1-0.1,0.4-0.2,0.5,0"/>
		<path class="st4" d="M-309-35.1c1.4-1.7,3.2-3.1,5.1-4.1"/>
		<path class="st4" d="M-309.3-27.7c1.9-1.6,3.8-3.2,5.8-4.8"/>
		<path class="st4" d="M-309.1-21.7c1.8-2.1,3.7-4,5.7-5.9"/>
		<path class="st4" d="M-309.4-14.1c1.5-2.5,4.2-4,6-6.3c-0.2,0.2-0.4,0.3-0.6,0.5"/>
		<path class="st4" d="M-308.6-7.4c1.6-1.6,3.2-3.1,5-4.5c-0.1,0.1-0.2,0.2-0.4,0.3"/>
		<path class="st4" d="M-308.6-0.2c1.4-1.7,3-3.3,4.6-4.7"/>
		<path class="st4" d="M-302.7,0.6c1.5-1.8,3.2-3.6,4.8-5.3"/>
		<path class="st4" d="M-297.7,1c1.3-1.8,2.9-3.6,4.6-5.1"/>
		<path class="st4" d="M-261-51.5c1.9-2.1,4-4.1,6.2-5.8"/>
		<path class="st4" d="M-261.4-44.5c2.1-2.3,4.4-4.5,6.8-6.5c0.2-0.2,0.5,0.1,0.4,0.3s-0.5,0-0.5-0.2"/>
		<path class="st4" d="M-261.2-38.4c2-1.9,4.2-3.6,6.4-5.3"/>
		<path class="st4" d="M-261.1-30.9c1.9-2.1,4-4,6.2-5.8"/>
		<path class="st4" d="M-261.4-22.8c2.1-2.4,4.3-4.6,6.6-6.8c0,0,0.1-0.1,0.1-0.2c0-0.1-0.1,0-0.1,0.1"/>
		<path class="st4" d="M-261.3-15.2c1.8-2,4.2-3.8,6.3-5.4c-0.1,0.1-0.2,0.1-0.3,0.2"/>
		<path class="st4" d="M-260.9-8.9c2.1-2,3.8-3.6,5.9-5.5"/>
		<path class="st4" d="M-260.9-2.4c2-2,4-4.1,6-6"/>
		<path class="st4" d="M-257.4,1c1.9-1.7,3.9-4,5.9-5.4"/>
		<path class="st4" d="M-251,1.4c2.1-1.7,4-3.6,5.8-5.6"/>
		<path class="st4" d="M-234.5-54.3c1.6-1.1,3.2-2,5-2.7c-0.1,0-0.2,0.1-0.3,0.1"/>
		<path class="st4" d="M-237.1-48c0.3-0.5,0.8-1,1.2-1.4c1.4-1.2,2.9-2.3,4.5-3.3"/>
		<path class="st4" d="M-236.9-41.9c1.3-1.4,2.8-2.8,4.2-4.1"/>
		<path class="st4" d="M-231.5-40.3c0-0.3,0.3-0.6,0.5-0.8c1.3-1.2,2.7-2.3,4.1-3.3"/>
		<path class="st4" d="M-216.1-51.3c1.5-1.3,3.1-2.4,4.8-3.3"/>
		<path class="st4" d="M-210.6-49.5c1.4-0.9,2.7-1.9,4.1-2.8c0,0,0.1-0.1,0.1-0.1c0,0-0.1,0-0.1,0"/>
		<path class="st4" d="M-210.5-43.7c1.6-1.2,3.7-2.4,5.4-3.4c-0.1,0-0.2,0-0.3,0"/>
		<path class="st4" d="M-223.1-27.6c1.6-1.3,3.3-2.4,5.1-3.2c-0.1,0.1-0.2,0.1-0.4,0.2"/>
		<path class="st4" d="M-223.2-22.3c1.4-1.4,3-2.8,4.6-4"/>
		<path class="st4" d="M-221.5-18.8c1.1-1,2.8-2.3,3.9-3.3"/>
		<path class="st4" d="M-215.9-18.1c1.3-1.3,3.2-3.1,4.6-4.3"/>
		<path class="st4" d="M-223.8-8.9c1.7-1.6,3.8-3.4,5.6-4.8"/>
		<path class="st4" d="M-223.3-2.3c1.3-1.6,2.8-3.2,4.2-4.7"/>
		<path class="st4" d="M-219.7,0.1c1.3-1.7,2.7-3.2,4.3-4.7"/>
		<path class="st4" d="M-213.4,0.2c0.9-1.4,2.7-3.5,3.9-4.7"/>
		<g>
			<path class="st5" d="M-617.4-64.1c1,4.2,9.3,40,9.3,40s9.5-40.5,9.8-40.5c6.5,0.2,12.8-0.6,12.9,0c0.7,3.2,10.5,40.6,10.5,40.6
				s7.3-37.5,9.1-40.6c0.5-0.8,11.3-0.3,11.3,0.4c0,1.1-12.3,54.1-14.9,59.4c-0.7,1.4-5.4,0-13.9,0.1c-0.3,0-9.8-39.6-9.8-39.6
				s-8.7,38.5-9.4,39.6c-0.3,0.4-13.4,1-13.8,0.2c-3-7.8-15.1-59.2-15.1-59.4C-631.3-64.5-618.6-64.5-617.4-64.1"/>
			<g>
				<path class="st3" d="M-617.8-64c3.2,13.3,6.2,26.7,9.3,40c0.1,0.5,0.9,0.5,1,0c2.8-12.1,5.6-24.2,8.7-36.3c0.3-1,0.5-2,0.8-3
					c0.5-1.7,0.9-0.8,2.8-0.8c2.8,0,5.6-0.3,8.4-0.2c1.5,0,1.1-0.1,1.5,1.4c1.7,7,3.6,14,5.4,21c1.6,6,3.1,12.1,4.7,18.1
					c0.1,0.5,0.9,0.5,1,0c2.2-11.1,4.3-22.2,7-33.2c0.5-2,0.8-4.6,1.7-6.4c0.5-1,0.9-0.9,2.2-1c1.7-0.1,3.5,0,5.3,0.1
					c0.8,0.1,1.6,0.1,2.3,0.2c0.4,0.1,1.2,0.5,0.9-0.1c0,0.1-0.2,0.9-0.2,1.1c-0.4,1.9-0.8,3.7-1.2,5.6c-3.1,13.5-6.3,27-9.8,40.4
					c-0.7,2.7-1.4,5.4-2.2,8c-0.4,1.2-0.7,3.8-1.9,4.4c-1.2,0.5-3.6,0-4.8-0.1c-1.2-0.1-2.4-0.2-3.6-0.2c-0.9,0-1.7-0.1-2.6-0.1
					c0.6,0-1.7,0-1.5,0.2c-0.7-0.6-1-3.6-1.2-4.4c-3-11.7-5.8-23.4-8.6-35.1c-0.1-0.5-0.9-0.5-1,0c-1.7,7.7-3.5,15.4-5.3,23.1
					c-1.1,4.6-2.1,9.2-3.3,13.7c-0.1,0.5-0.5,2.4-0.7,2.6c-0.7,0.6-4.8,0.3-6,0.4c-1.3,0-2.6,0.1-3.9,0.1c-0.6,0-2.5,0.2-3.1-0.2
					c-0.6-0.4-0.9-2.9-1.2-3.7c-1.3-4.5-2.5-9.1-3.7-13.7c-2.8-10.9-5.4-21.9-8-32.9c-0.5-2-0.9-4-1.4-5.9c-0.2-0.8-0.7-2-0.7-2.9
					c0-0.4-0.4,0.4-0.1,0.4c0.5,0,1-0.1,1.5-0.1c1.4-0.1,2.9-0.1,4.3-0.1c2.4,0,5.2-0.3,7.6,0.2c0.6,0.1,0.9-0.8,0.3-1
					c-2.1-0.5-4.5-0.3-6.6-0.3c-2.1,0-5.3-0.5-7.3,0.3c-1.5,0.6-0.1,3.3,0.2,4.5c2.6,11.2,5.3,22.4,8.1,33.5
					c1.4,5.4,2.7,10.9,4.3,16.3c0.5,1.7,0.9,3.3,1.5,5c0.5,1.4,1,1.5,2.5,1.6c2.8,0.2,5.7,0,8.6-0.1c1-0.1,3.2,0.2,3.9-0.7
					c0.5-0.6,0.7-2.1,0.9-2.9c0.6-2.2,1.1-4.4,1.6-6.6c2.4-10,4.7-20.1,7-30.2c-0.3,0-0.6,0-1,0c2.8,11.5,5.5,23,8.4,34.4
					c0.4,1.4,0.5,3.8,1.3,5c0.5,0.7,0.6,0.5,1.5,0.6c3.2,0,6.3,0.3,9.4,0.4c2,0.1,3.5,0.3,4.3-1.7c0.8-2,1.4-4.2,2-6.3
					c4-14.4,7.4-29.1,10.8-43.7c0.5-2.2,1-4.5,1.5-6.7c0.2-0.8,0.7-1.9,0-2.6c-0.5-0.5-2.3-0.5-2.9-0.5c-2-0.2-4-0.3-6-0.2
					c-2.1,0.1-2.8,0.2-3.5,2.1c-2.4,7.2-3.7,15-5.2,22.4c-1.2,5.6-2.3,11.2-3.4,16.8c0.3,0,0.6,0,1,0c-3.4-13-6.8-25.9-10.1-38.9
					c-0.1-0.5-0.2-1.6-0.6-1.9c-1-0.9-4-0.2-5.1-0.2c-1.9,0.1-3.8,0.1-5.7,0.1c-0.7,0-2.2-0.4-2.8,0.2c-0.3,0.3-0.3,0.9-0.4,1.3
					c-1.9,6.8-3.4,13.7-5,20.6c-1.5,6.3-3,12.5-4.4,18.8c0.3,0,0.6,0,1,0c-3.1-13.3-6.1-26.7-9.3-40C-617-64.9-618-64.6-617.8-64
					L-617.8-64z"/>
			</g>
		</g>
		<g>
			<path class="st5" d="M-547.9-64.6c0,12.2,0.2,46.4,0.2,59.8c0,0.5,7.1,0.7,13.7,0.2c1-0.1-1-15.3,0-24.7c0,0,11.2-0.8,18.7,0.1
				c0.2,4.4-0.8,23.5,0,24.7c0.3,0.4,13.8,0.8,13.7-0.1c-0.4-3.3,0.8-51.3-0.2-59.9c-0.1-0.5-6.5-0.2-12.7,0c-0.6,0-1,0.5-1,1.1
				c0.2,4.4,1,21.8,0.2,22.3c-1.9,1-16.9,0.7-18.6,0.1c-1.3-0.5,0.1-22.8-0.2-23.4C-534.4-65.6-546.6-64.5-547.9-64.6"/>
			<g>
				<path class="st3" d="M-548.4-64.6c0,13.8,0.1,27.5,0.1,41.3c0,3.5,0,6.9,0,10.4c0,1.4,0,2.8,0,4.2c0,1-0.4,3.1,0,3.9
					c0.6,1.4,3.7,0.9,4.9,1c2.4,0,4.7,0,7.1-0.1c0.8,0,2.3,0.3,2.8-0.5c0.9-1.2,0.2-4.3,0.1-5.6c-0.2-3.8-0.4-7.6-0.5-11.4
					c0-2,0-3.9,0.1-5.9c0-0.4,0.1-1.7-0.2-1.4c0.1-0.1,1-0.1,1.2-0.1c3.4-0.2,6.8-0.3,10.2-0.2c1.9,0,3.9,0,5.9,0.3
					c1.2,0.1,0.6-0.3,0.9,0.4c0.2,0.4,0,1.3,0,1.8c0,2.9-0.1,5.8-0.2,8.7c-0.1,3.1-0.1,6.2-0.1,9.3c0,1-0.3,3.6,0.4,4.4
					c0.7,0.8,2.9,0.6,3.8,0.6c2.6,0.1,5.3,0.2,8,0c1-0.1,2.5,0.1,2.8-1c0.2-0.7-0.1-2.1-0.1-2.9c-0.1-10.9,0.2-21.7,0.3-32.6
					c0-5.6,0.1-11.3,0-16.9c0-1.9-0.1-3.9-0.2-5.8c-0.1-1.2,0.1-2.1-1.1-2.5c-1.4-0.4-3.3-0.1-4.7-0.1c-2.4,0.1-5.3-0.3-7.6,0.2
					c-2,0.5-1.4,3-1.3,4.6c0.2,5.8,0.7,11.6,0.3,17.4c0,0.7,0,1.2-0.5,1.6c-0.8,0.5-2.6,0.3-3.5,0.4c-3,0.2-6,0.1-9,0
					c-1.2,0-4.7,0.3-5.3-0.8c-0.3-0.6-0.2-1.9-0.2-2.5c0-1.3,0-2.6,0-3.9c0-5,0.4-10.1,0.4-15.1c0-1,0.1-1.4-0.9-1.8
					c-2-0.7-5-0.1-7.1,0c-2.1,0.1-4.4,0.4-6.5,0.3c-0.6,0-0.6,1,0,1c3.2,0.2,6.4-0.3,9.6-0.4c0.7,0,3.7-0.2,3.8,0c0.3,0.3,0,2,0,2.4
					c-0.2,6.4-1,13.2-0.2,19.6c0.2,1.8,0.9,1.9,2.6,2.1c3.7,0.4,7.5,0.4,11.2,0.3c1.4,0,5.2,0.4,6.1-1c0.4-0.5,0.3-1.7,0.3-2.3
					c0.1-1.8,0-3.7,0-5.5c-0.1-3.9-0.2-7.8-0.4-11.8c0-0.6-0.2-1.5-0.1-2.1c0.4-1.7,2.7-1.4,4.2-1.4c1.4,0,2.8-0.1,4.2-0.1
					c1.2,0,2.9-0.3,4,0.1c0.6,0.2,0.2-0.3,0.3,0.5c0.1,0.4,0.1,0.8,0.1,1.2c0.1,1.3,0.1,2.6,0.1,3.9c0.1,3.3,0.1,6.6,0.1,9.9
					c0,14.1-0.6,28.2-0.3,42.3c0,0.3,0.1,0.7,0,1.1c-0.1,0.7,0.1,0.2-0.1,0.4c-0.9,0.7-3.7,0.3-4.8,0.3c-2,0-4,0-6.1-0.2
					c-1.3-0.1-1.9,0.2-1.9-1c-0.1-7.8,0.4-15.7,0.2-23.5c0-0.3-0.2-0.5-0.5-0.5c-6.2-0.6-12.5-0.5-18.7-0.1c-0.3,0-0.5,0.2-0.5,0.5
					c-0.7,6.9,0,13.9,0.2,20.8c0,0.8,0.3,2.2,0,2.9c-0.3,0.8-0.7,0.6-1.6,0.6c-1.3,0.1-2.7,0.1-4,0.1c-1.8,0-3.7,0-5.5-0.1
					c-1.7-0.1-2,0.1-2-1.5c0-13-0.1-26.1-0.1-39.1c0-6.3,0-12.7,0-19C-547.4-65.3-548.4-65.3-548.4-64.6L-548.4-64.6z"/>
			</g>
		</g>
		<g>
			<path class="st5" d="M-441.2-34.7c-0.4-20.1-10.5-30.3-25-30.9C-500.3-66.7-501.9-5-467-3.8C-450.8-3.3-440.8-17.9-441.2-34.7z
				 M-466.3-15.2c-17.4,1.1-13.2-40-0.7-38.9c10.1-0.8,11,12.7,11.1,14C-455.1-30.4-455.7-15.9-466.3-15.2z"/>
			<g>
				<path class="st3" d="M-440.7-34.7c-0.2-7.7-1.7-15.8-6.5-22c-3.9-5.1-9.7-8.2-16.1-9.1c-10.5-1.4-20.1,3.4-25.2,12.7
					c-9.5,17-4.1,46.1,18,49.5c7.9,1.2,15.8-1.1,21.3-6.9C-443-17-440.6-26-440.7-34.7c0-0.6-1-0.6-1,0c0.2,15.1-8.9,31.2-25.8,30.4
					c-10.3-0.5-18.3-7.2-22-16.6c-6.5-16.7-0.1-43.2,21.1-44.1c6.9-0.3,13.8,1.9,18.7,6.9c6,6.2,7.7,15.1,8,23.4
					C-441.7-34.1-440.7-34.1-440.7-34.7z"/>
				<path class="st3" d="M-466.3-15.7c-13.5,0.6-12-20.9-9.2-29.1c1.8-5.2,5-9.9,11.2-8.7c6.1,1.2,7.7,8.6,8.1,13.9
					C-455.8-31.6-455.5-16.7-466.3-15.7c-0.6,0.1-0.6,1.1,0,1c9.9-0.9,11.2-12.6,11.2-20.5c-0.1-5.9-0.5-13.8-5.7-17.7
					c-2.4-1.8-6.2-2.3-9-1.2c-2.4,1-4,3.2-5.2,5.4c-3.2,6.1-4.1,13.9-3.1,20.7c0.9,6.5,4.2,13.7,11.8,13.4
					C-465.7-14.7-465.7-15.7-466.3-15.7z"/>
			</g>
		</g>
		<g>
			<path class="st5" d="M-380-64.6c-0.4-0.3-13.2-0.5-16.4,0.4c-4.3,14.3-19.5,59.1-19,59.5c0.8,0.6,12.1,0.6,12.4,0
				c1.4-4.1,3.8-12.2,3.8-12.2s18.4-0.6,19.3,0c0.6,0.4,2.7,11.4,3.8,12.3c0.8,0.7,14.9,0.3,15,0C-360.8-5.5-378.9-63.6-380-64.6z
				 M-395.9-28c-0.3-0.4,4.9-19,6.4-21.1c0.9,2.7,6.4,21.1,6.3,21.1C-384.5-27.6-395.7-27.7-395.9-28z"/>
			<g>
				<path class="st3" d="M-379.8-65c-1.1-0.5-2.6-0.3-3.7-0.3c-2.5-0.1-5.1,0-7.6,0.1c-1.3,0.1-4.5-0.3-5.6,0.6
					c-0.8,0.7-1.1,3.1-1.4,4.1c-3.1,9.9-6.4,19.7-9.6,29.5c-2.6,8-5.4,16.1-7.8,24.2c-0.4,1.4-1.1,2.5,0.8,2.8
					c2,0.3,4.1,0.3,6.1,0.2c1.4,0,4,0.4,5.3-0.3c1.3-0.7,1.5-3.2,1.9-4.5c0.7-2.3,2.1-5.1,2.3-7.6c0-0.2,0.1-0.5,0.2-0.6
					c0,0.1-0.7,0.4-0.3,0.3c0.5-0.1,1,0,1.6,0c2-0.1,4.1-0.1,6.1-0.2c2.3,0,4.6-0.1,6.8-0.1c0.9,0,3.6-0.4,4.4,0.2
					c0.3,0.3,0.5,1.7,0.6,2.1c0.3,1.2,0.6,2.4,0.9,3.6c0.5,1.9,0.8,4,1.7,5.7c1.2,2.2,6,1.3,8.1,1.3c2.1,0,4.3,0,6.4-0.2
					c0.6,0,1.5,0.1,1.8-0.5c0.4-0.9-0.8-3.5-1-4.3c-0.9-3.3-1.9-6.6-2.9-9.8c-2.7-8.9-5.4-17.7-8.3-26.6c-2-6.2-3.7-12.6-6.3-18.7
					c-0.2-0.4-0.3-0.8-0.6-1.1c-0.5-0.5-1.2,0.2-0.7,0.7c0.8,0.8,1.4,3.6,1.8,4.9c1.3,3.7,2.5,7.5,3.7,11.3c3,9.3,5.9,18.7,8.8,28
					c1.1,3.6,2.2,7.2,3.2,10.8c0.3,1.1,0.6,2.3,0.9,3.4c0.1,0.3,0.1,0.6,0.2,0.9c0.1,0.4,0.5-0.1,0-0.1c-4.2-0.3-8.5,0.5-12.8,0.1
					c-2.1-0.2-2.1-1.9-2.6-3.7c-0.7-2.3-1.2-4.7-1.8-7.1c-0.3-1.2-0.4-1.7-1.7-1.9c-2-0.4-4.3-0.2-6.4-0.2c-4.1,0-8.2,0.1-12.3,0.3
					c-0.2,0-0.4,0.2-0.5,0.4c-1.1,3.6-2.1,7.1-3.3,10.6c-0.3,0.8-0.2,1.1-0.9,1.5c-0.5,0.3-1.6,0.1-2.2,0.2c-1.9,0.1-3.8,0.1-5.7,0
					c-0.8,0-1.5,0-2.3-0.1c-0.6-0.1-1.1-0.4-0.9,0.2c-0.1-0.2,0.3-1.1,0.4-1.4c0.6-2.3,1.4-4.5,2.1-6.7c4.8-15.1,9.9-30.2,14.7-45.3
					c0.5-1.5,0.8-3.5,1.5-4.9c0.5-0.9,0.3-0.7,1.5-0.9c0.9-0.1,1.9-0.2,2.9-0.2c2.4-0.1,4.8-0.2,7.2-0.1c1.2,0,3.3-0.3,4.4,0.2
					C-379.7-63.9-379.2-64.8-379.8-65z"/>
				<path class="st3" d="M-395.4-28.1c-0.2-0.7,0.6-2.7,0.8-3.5c0.6-2.1,1.2-4.3,1.8-6.4c1-3.5,1.8-7.8,3.7-10.9
					c-0.3,0-0.6-0.1-0.9-0.1c2,6,3.7,12.1,5.5,18.2c0.3,0.9,0.4,1.8,0.7,2.7c0.2,0.5-0.3-0.2,0.3-0.3c-0.2,0-0.5,0.1-0.7,0.1
					c-0.6-0.1-1.5,0.1-2.2,0.1c-1.9,0-3.7,0-5.6,0c-0.9,0-2.8,0.3-3.6-0.2c-0.6-0.3-1.1,0.6-0.5,0.9c1.5,0.8,4.3,0.3,5.9,0.3
					c2.3,0,4.9,0.3,7.1-0.3c0.2-0.1,0.3-0.3,0.4-0.5c0.1-0.8-0.5-2.1-0.8-2.9c-0.6-2.2-1.3-4.4-1.9-6.6c-1.2-3.9-2.3-7.9-3.6-11.8
					c-0.1-0.4-0.7-0.5-0.9-0.1c-2.1,3.3-2.9,7.9-4,11.6c-0.7,2.3-1.3,4.6-1.9,6.9c-0.2,0.8-0.8,2.2-0.6,3.1
					C-396.2-27.2-395.2-27.5-395.4-28.1z"/>
			</g>
		</g>
		<g>
			<path class="st5" d="M-354.7-64.6c-0.4,12,0.3,48,0.2,60c0,0.5,3.7,1,11.7-0.1c1.1-0.1-0.1-49-0.1-49S-330.1-6.2-328-4.7
				c0.8,0.6,9.5,0.5,9.6,0.1c2.4-10.6,14.9-49.7,14.9-49.7s-0.4,43.3,0.1,49.5c0.1,0.8,10.8,0.5,14.1-0.1c0.7-0.1,0.5-53,0-59.7
				c0,0-8.1-0.8-21.9,0c-1.2,0.1-10.5,38.2-10.5,38.2s-10.6-38-11-38.2C-333.3-64.8-351.1-65-354.7-64.6"/>
			<g>
				<path class="st3" d="M-355.2-64.6c-0.3,10.7-0.1,21.4,0,32c0,5.9,0.1,11.9,0.1,17.8c0,2.3,0,4.6,0,6.9c0,1-0.5,3,0.3,3.8
					c0.7,0.7,2.9,0.5,3.8,0.5c1.5,0,3.1-0.1,4.6-0.2c1-0.1,3.2,0.1,3.8-0.5c0.9-0.8,0.5-3.4,0.6-4.5c0.2-8.4,0-16.8-0.1-25.1
					c-0.1-6.6-0.2-13.1-0.4-19.7c-0.3,0-0.7,0.1-1,0.1c4,14.7,7.8,29.5,12.8,43.9c0.5,1.4,1,4.3,2.3,5.2c1.2,0.9,3.8,0.5,5.1,0.5
					c1.1,0,4,0.4,5-0.3c0.8-0.6,0.9-2.9,1.1-3.8c0.6-2.1,1.2-4.2,1.8-6.4c1.5-5.3,3.1-10.5,4.7-15.8c2.5-8.1,5-16.1,7.6-24.1
					c-0.3,0-0.7-0.1-1-0.1c-0.1,7.5-0.1,14.9-0.2,22.4c0,5.7,0,11.3,0,17c0,2.1,0,4.2,0.1,6.3c0,1-0.3,3,0.2,3.9
					c0.5,1,2.2,0.8,3.2,0.9c3,0.1,6,0,8.9-0.3c1-0.1,2.5,0.1,3-0.8c0.3-0.6,0.2-1.8,0.2-2.4c0.4-9.4,0.3-18.8,0.2-28.1
					c0-9.7,0.3-19.5-0.5-29.1c0-0.3-0.2-0.5-0.5-0.5c-4.3-0.4-8.7-0.4-13-0.3c-2.3,0-4.6,0.1-6.9,0.2c-0.7,0-1.8-0.2-2.4,0.3
					c-0.6,0.5-0.8,1.8-1,2.4c-3,8.9-5.1,18.1-7.3,27.2c-0.7,2.9-1.5,5.8-2.2,8.7c0.3,0,0.6,0,1,0c-2.2-7.9-4.4-15.9-6.7-23.8
					c-1.2-4.2-2.4-8.5-3.7-12.7c-0.2-0.5-0.3-1.6-0.8-2c-0.8-0.6-3.2-0.2-4.1-0.3c-6-0.1-12.2-0.4-18.2,0.2c-0.6,0.1-0.6,1.1,0,1
					c5-0.5,10.3-0.3,15.3-0.2c2,0,4.2-0.2,6.2,0.1c0.6,0.1-0.1-0.4,0.2,0.1c0.2,0.4,0.3,1,0.5,1.5c2.8,9.1,5.3,18.3,7.9,27.5
					c0.8,2.9,1.6,5.8,2.4,8.7c0.1,0.5,0.8,0.5,1,0c2.7-11.1,5.4-22.1,8.6-33.1c0.3-1.1,0.6-2.1,1-3.2c0.1-0.3,0.2-0.9,0.4-1.1
					c0.6-0.7-0.3-0.1,1-0.5c1.6-0.4,3.8-0.2,5.4-0.2c1.3,0,2.6-0.1,4-0.1c2.4,0,4.8,0,7.2,0.1c1.1,0,2.5,0.4,3.6,0.2
					c0.2,0,0.4,0,0.6,0.1c-0.8-0.2-0.3-0.4-0.4,0.5c-0.3,2.1,0.2,4.5,0.2,6.5c0.3,14.6,0.4,29.3,0.1,43.9c0,2.2-0.1,4.4-0.2,6.6
					c0,0.3,0.1,1.2-0.1,1.4c0.1-0.1-1.1,0-1.5,0.1c-1,0.1-2.1,0.2-3.2,0.2c-2,0.1-4,0.2-6,0.1c-1.5-0.1-2.4,0.2-2.5-0.8
					c-0.3-2.4-0.1-4.9-0.2-7.3c-0.1-13.8,0-27.6,0.1-41.4c0-0.6-0.8-0.7-1-0.1C-308.9-39-314-23.6-318.1-8c-0.2,0.8-0.4,1.5-0.6,2.3
					c-0.2,0.9,0,0.7-1.1,0.8c-2.2,0.2-4.5,0.2-6.7,0c-1.2-0.1-1.3-0.2-1.8-1.3c-0.5-1.1-0.9-2.3-1.3-3.5c-2.8-8.2-5.2-16.6-7.5-25
					c-1.8-6.3-3.6-12.7-5.3-19c-0.1-0.5-1-0.4-1,0.1c0.3,13.1,0.6,26.3,0.5,39.4c0,2.7,0,5.4-0.2,8c-0.1,1.8-0.5,1.2-2.5,1.4
					c-2.4,0.2-5.1,0.6-7.5,0.2c-0.9-0.1-0.8,0-1-0.7c-0.2-0.8,0-2,0-2.8c0-2.1,0-4.3,0-6.4c0-5.5-0.1-11-0.1-16.4
					c-0.1-11.2-0.3-22.5,0-33.7C-354.2-65.2-355.2-65.2-355.2-64.6L-355.2-64.6z"/>
			</g>
		</g>
		<g>
			<path class="st5" d="M-254.6-64c0,15.2-0.9,59.2,0.1,59.3c1.2,0.2,13.6,1,13.9-0.1c0.5-1.9,0.4-59.4-0.1-59.5
				C-241.1-64.5-250.9-65-254.6-64"/>
			<g>
				<path class="st3" d="M-255.1-64c0,13.8-0.3,27.5-0.3,41.3c0,5.3-0.1,10.5,0.2,15.8c0,0.6-0.1,2.1,0.4,2.6
					c0.9,0.9,4.3,0.5,5.4,0.5c2.6,0.1,5.8,0.6,8.3-0.1c1-0.3,1-0.7,1.1-1.6c0.3-3.6,0.2-7.3,0.2-10.9c0.1-12.2,0.1-24.4,0-36.6
					c0-2.4-0.1-4.8-0.1-7.3c0-1.1,0.2-2.8-0.1-3.8c-0.4-1.2-1.8-0.9-3-0.9c-3.8-0.2-7.8-0.4-11.6,0.5c-0.6,0.1-0.4,1.1,0.3,1
					c3.2-0.7,6.7-0.6,10-0.5c1,0,2.4-0.1,3.4,0.2c-0.1,0,0-0.5,0,0.2c-0.2,3.1,0.2,6.4,0.2,9.5c0.1,11.1,0.1,22.1,0.1,33.2
					c0,4.2,0,8.5-0.1,12.7c0,0.6,0.3,2.6-0.1,3.1c-0.6,0.9-4.4,0.4-5.6,0.4c-1.3,0-2.7-0.1-4-0.2c-1-0.1-2.4,0.1-3.4-0.2
					c-0.6-0.2,0.1,0.3,0,0.1c-0.1-0.1-0.1-0.4-0.1-0.5c0-0.6-0.1-1.3-0.1-1.9c-0.2-4.8-0.2-9.7-0.1-14.5c0-14,0.3-28.1,0.3-42.1
					C-254.1-64.7-255.1-64.7-255.1-64L-255.1-64z"/>
			</g>
		</g>
		<g>
			<path class="st5" d="M-226.5-60.4c-4.1,3.1-7.5,14.7-7.1,14.9c1.4,0.4,11.3,1.9,12,1.5c0.3-0.2-0.3-8.6,6.5-10.5
				c10.3-2.8,11.4,8.2,7.3,12.9c-1.4,1.5-6.7,3.4-9.4,8.1c-2.3,3.9-1.6,9.8-1.1,11.8c0,0,8.8-0.1,10.8,0c0.2,0,0.4-0.2,0.4-0.4
				c0.3-3-1-4,0.7-5.6c6.1-5.7,15.5-10.7,14.7-21.3C-193-66.2-216.6-70.3-226.5-60.4"/>
			<g>
				<path class="st3" d="M-226.8-60.8c-2.4,1.9-3.8,5-4.9,7.7c-0.6,1.5-1.2,2.9-1.6,4.4c-0.2,0.7-0.9,2-0.7,2.8
					c0.3,1.4,3.1,1.2,4.2,1.4c1.5,0.2,2.9,0.4,4.4,0.6c1,0.1,2.6,0.6,3.6,0.3c1.3-0.4,0.9-2,1.1-3.2c0.7-4,2.9-7,7.1-7.7
					c4-0.7,7.2,1.4,7.6,5.5c0.3,2.9-0.8,6.1-3.2,7.8c-3.3,2.3-7,4.2-8.8,8.1c-1.6,3.4-1.5,7.6-0.7,11.3c0,0.2,0.3,0.3,0.5,0.4
					c2.3,0.2,4.8,0,7.1,0c2.2,0,4.7,0.9,4.7-1.9c-0.1-2.2-0.5-3.2,1.4-4.9c1.5-1.3,3-2.5,4.5-3.8c2.7-2.3,5.4-4.7,7.3-7.8
					c3.4-5.7,2.8-13.2-1.1-18.4c-3.4-4.5-8.8-7.1-14.3-7.8C-215.3-66.8-222.1-65.3-226.8-60.8c-0.5,0.4,0.2,1.2,0.7,0.7
					c8.7-8.4,26.2-6.4,32.1,4.5c4,7.4,1.2,15-4.5,20.4c-2.5,2.4-5.5,4.4-8,6.9c-0.8,0.8-1.3,1.5-1.3,2.6c0,0.7,0.2,1.4,0.2,2.1
					c0,1.2-0.1,1.1-1,1.3c-2.6,0.4-5.7,0-8.4,0c-0.2,0-0.9,0.1-1.1,0c0,0,0.1,0.1,0.1-0.6c0-1.8-0.4-3.6-0.2-5.5
					c0.5-4.9,3.5-8.1,7.5-10.6c2-1.3,3.7-2.3,4.7-4.6c1.7-3.7,1.4-9.1-2.6-11.2c-4.7-2.5-10.7,0.6-12.5,5.3
					c-0.4,1.1-0.6,2.2-0.8,3.4c-0.1,0.4,0,1-0.1,1.4c-0.2,0.5,0.5,0.2-0.3,0.2c-3,0-6.2-0.6-9.2-1.1c-0.4-0.1-1.4-0.1-1.6-0.3
					c0.2,0.1,0,0,0.2-0.6c0.5-1.3,0.8-2.6,1.2-3.9c1.2-3.3,2.8-7.3,5.6-9.6C-225.6-60.5-226.3-61.2-226.8-60.8L-226.8-60.8z"/>
			</g>
		</g>
		<g>
			<path class="st5" d="M-218.8-17.7c0,5.9-0.6,12.5,0,13.2c0.3,0.3,14,0.1,13.9-0.3c-0.1-0.6,0.4-13.1-0.5-12.9
				C-207-17.6-217-18.3-218.8-17.7"/>
			<g>
				<path class="st3" d="M-219.3-17.7c0,3.8-0.4,7.6-0.3,11.4c0,1.1-0.1,2,1,2.3c1.5,0.5,3.8,0.1,5.4,0.1c2.2,0,4.4-0.1,6.5-0.2
					c0.7,0,1.8,0.1,2.2-0.6c0.5-0.8,0-3.3,0-4.2c0-2.3,0.1-4.6-0.1-6.8c-0.1-0.8,0-2.1-0.9-2.5c-0.5-0.2-1.8,0.1-2.3,0.1
					c-1.4,0-2.8-0.1-4.2-0.1c-2.3-0.1-4.9-0.4-7.2,0.2c-0.6,0.1-0.4,1.1,0.3,1c2.2-0.5,4.7-0.2,6.9-0.1c1.2,0,2.5,0.1,3.7,0.1
					c0.4,0,2.3-0.3,2.6-0.1c-0.2-0.2,0,1.6,0,1.9c0.1,1.1,0.1,2.2,0.1,3.2c0,2.1-0.3,4.4-0.1,6.5c0,0.2,0.1,0.5,0,0.7
					c-0.1,0.4,0.5-0.3,0.1-0.3c-0.9,0.1-1.7,0.2-2.6,0.2c-2.2,0.1-4.4,0.2-6.6,0.2c-0.9,0-2.2,0.2-3.1,0c-1-0.3-0.8,0.2-0.9-1.1
					c-0.2-3.9,0.2-7.8,0.3-11.6C-218.3-18.4-219.3-18.4-219.3-17.7L-219.3-17.7z"/>
			</g>
		</g>
	</g>
</g>
<g id="Слой_4" class="st0">
	<g class="st2">
		<path class="st4" d="M-606,71.3c3.8,5.8,10.4,20.7,11.3,21.5c1.3,1.1,14.9,0.7,16.6-0.7c1.7-1.6,2.3-3.1,3.9-5.5"/>
		<path class="st4" d="M-589.3,26.7c-1.6,0.7-6.6,1.3-7.1,1.5c-0.6,0.3-5.2,8.6-6.7,12.4"/>
		<path class="st4" d="M-625.1,27.2c-1.4,1.3-3.9,4.7-3.5,5.6c0.6,1,12.8,21.4,12.9,22.2c0.1,1.1-18.9,33.4-18.7,35.8
			c0.1,1.1,15.8,1.5,16.3,1.3c0.7-0.3,3.7-5.2,4.8-7.3"/>
		<path class="st4" d="M-573.7,26.7c-1.8,2-3.9,2.4-4.4,5.1c-0.2,1,0.4,12.3,0.9,12.8c0.6,0.6,8.7,0.6,12.4,0.5
			c0.3,3.8,0.3,45.1,0.6,45.6c0.6,0.8,9.8,0.9,13.8,0.5c0.8-0.1,4.9-3.2,5.6-4.7"/>
		<path class="st4" d="M-529.9,38.4c-0.8,1.1-1.3,2.4-1.9,3.7c-0.6,1.2-1.4,2.5-2.6,3.1c-0.7,0.3-1.4,0.5-2.2,0.6
			c-3.2,0.4-6.5-0.2-9.4,1.1c0.1,0.2,0.3,0.2,0.5,0.2"/>
		<path class="st4" d="M-430.7,43.7c2-1.9,5.1-2,7.9-2c1.4,0,3,0.1,3.9,1.2c0.4,0.5,0.6,1.2,0.8,1.8c0.7,2.6,0.9,5.3,0.6,8"/>
		<path class="st4" d="M-425.7,69.1c1.3-0.3,7.6-0.5,8.4,0.6c0.7,1.1-0.3,22,1.7,23.2c1,0.6,14.6,0.5,15,0.3
			c0.4-0.2,3.2-4.3,4.1-7.1"/>
		<path class="st4" d="M-443.2,36.1c-9.4,16.3,1.7,23.9,1.9,25c0.4,2.4-13.9,27.6-12.3,29.4c1.2,1.2,16,2.7,16.3,2.4
			c2.1-1.8,3.7-3.8,5.1-6.2"/>
		<path class="st4" d="M-624.4,29.5c-1.2,1.6-2.1,2.9-3.3,4.6"/>
		<path class="st4" d="M-622.2,32.3c0.1,0.2,0,0.4-0.1,0.5c-1.1,1.6-2.2,3.2-3.3,4.8"/>
		<path class="st4" d="M-619.8,36.7c-1.4,1.6-2.5,3-3.9,4.6"/>
		<path class="st4" d="M-617.9,40.2c-1.3,1.4-2.6,2.7-4,4"/>
		<path class="st4" d="M-615.4,43.8c-1.3,1.5-2.8,3-4.3,4.3"/>
		<path class="st4" d="M-613.6,47.2c-1.6,1.4-2.6,2.3-4,3.9"/>
		<path class="st4" d="M-611.6,50.5c-1.3,1.3-2.7,2.6-4,3.9c-0.1,0.1-0.2,0.1-0.3,0.1"/>
		<path class="st4" d="M-617.4,58.3c2.2-1.2,5.7-2.9,8-3.8"/>
		<path class="st4" d="M-619.4,62.4c2.9-1.1,4.6-1.8,7.5-2.9"/>
		<path class="st4" d="M-622.9,68.5c2.1-1,5.3-2.4,7.5-3.2"/>
		<path class="st4" d="M-625.8,73.9c2-1.1,4.6-1.9,6.8-2.2"/>
		<path class="st4" d="M-629,79.2c2.2-0.8,4.8-1.7,7-2.4"/>
		<path class="st4" d="M-632.5,86.1c2.1-1.3,4.2-2.2,6.6-2.8"/>
		<path class="st4" d="M-633.4,91c3.1-1.3,6-3,8.7-4.9"/>
		<path class="st4" d="M-626.7,91.7c1.7-1.3,4.3-3.3,5.9-4.7c0,0,0.1,0,0.1,0"/>
		<path class="st4" d="M-620.2,92c1.2-1.5,3.6-3.7,5.2-4.8"/>
		<path class="st4" d="M-604.5,73.7c1.1-1.4,3.3-3.3,4.6-4.5"/>
		<path class="st4" d="M-601.9,78c1.5-1.7,3.2-3.3,5-4.6c-0.1,0.2-0.3,0.4-0.4,0.6"/>
		<path class="st4" d="M-598.5,84.9c1.2-2,2.7-3.9,4.5-5.5"/>
		<path class="st4" d="M-596.4,89.7c1-2,2.4-3.9,3.9-5.6"/>
		<path class="st4" d="M-593,93.2c1.5-2,3.5-4.3,5.2-6.2"/>
		<path class="st4" d="M-585,93.1c1.3-2.2,2.9-4.3,4.6-6.1"/>
		<path class="st4" d="M-580.3,92.5c1.1-2.2,2.3-4.4,3.7-6.4"/>
		<path class="st4" d="M-601.4,42.2c1.6-1.4,4.1-3,6-3.9"/>
		<path class="st4" d="M-602.1,38.5c1.1-1.5,3.2-2.3,4.9-3.1c1.9-0.8,3.6-1.8,5.4-3"/>
		<path class="st4" d="M-599,32.2c1.8-1.1,4.6-2,6.6-2.8c0.6-0.2,1.7-0.7,2.2-1.1"/>
		<path class="st4" d="M-578.1,34.3c1.1-1.1,2.4-2,3.7-2.8"/>
		<path class="st4" d="M-577.7,39.7c1.2-1.1,2.5-2.1,3.8-3c-0.1,0.1-0.2,0.2-0.3,0.3"/>
		<path class="st4" d="M-576.6,44.8c2.3-2.1,5.2-4.4,7.7-6.1"/>
		<path class="st4" d="M-568.8,45.1c2.2-2,5.1-4.3,7.4-6.2"/>
		<path class="st4" d="M-564.7,49.3c1.8-1.9,3.7-3.8,5.7-5.4c-0.1,0-0.2,0.1-0.3,0.1"/>
		<path class="st4" d="M-564.7,55.9c1.9-1.7,3.7-3.3,5.6-5c-0.1,0.1-0.2,0.1-0.3,0.2"/>
		<path class="st4" d="M-564.6,62.6c1.8-1.8,3.7-3.6,5.6-5.3"/>
		<path class="st4" d="M-564.4,69.5c1.7-2,3.9-4.2,6-5.9c-0.2,0.2-0.4,0.3-0.7,0.5"/>
		<path class="st4" d="M-564.4,75.3c1.7-1.8,3.2-3.1,5.1-4.6"/>
		<path class="st4" d="M-564.2,81.2c1.6-1.7,3-2.9,4.8-4.3"/>
		<path class="st4" d="M-564.4,86.1c1.8-1.6,3.3-2.9,5.1-4.5"/>
		<path class="st4" d="M-562.7,91.1c1.7-1.5,3.3-3,5-4.4"/>
		<path class="st4" d="M-556.2,91.6c1.6-1.9,3.4-3.6,5.5-4.9"/>
		<path class="st4" d="M-545,41.9c1.4-1.4,3-2.6,4.8-3.5"/>
		<path class="st4" d="M-540.7,46.1c0.6-0.7,1.9-1.8,2.5-2.5c1.6-1.7,3.6-3.7,5.6-4.9"/>
		<path class="st4" d="M-446.9,51c0.8-1.3,1.6-2.5,2.4-3.8"/>
		<path class="st4" d="M-444.7,56.4c0.9-1.3,1.8-2.5,2.7-3.8c0,0,0.1-0.1,0.1-0.1c0.1,0,0.1,0.1,0,0.1"/>
		<path class="st4" d="M-441.9,60.6c0.8-1.4,1.7-2.5,2.7-3.8"/>
		<path class="st4" d="M-443.1,65.9c2.1-1.2,5.3-2.8,7.6-3.6c-0.1,0.1-0.2,0.2-0.3,0.2"/>
		<path class="st4" d="M-446.1,72.2c1.7-1.1,3.1-2,4.8-3.1c0.7-0.4,2.1-1.2,2.8-1.4"/>
		<path class="st4" d="M-448.9,78.2c1-0.5,1.6-1,2.7-1.5c1.4-0.7,2.8-1.4,4.3-1.6"/>
		<path class="st4" d="M-452,84.8c2.1-1.3,4.4-2.3,6.8-2.9"/>
		<path class="st4" d="M-452.2,90.9c1.9-1.6,4.3-3.3,6.5-4.5c-0.1,0.1-0.1,0.1-0.2,0.2"/>
		<path class="st4" d="M-446.2,91.8c0-0.3,0.5-0.7,0.8-0.9c1.8-1.6,3.6-3.2,5.5-4.8"/>
		<path class="st4" d="M-440,92.6c0.2-0.4,0.5-0.7,0.8-0.9c1.7-1.5,3.9-3.3,5.6-4.8"/>
		<path class="st4" d="M-424.7,68.9c2.3-1.5,4.9-3.8,6.8-5.8c0.2-0.2,0.5-0.5,0.9-0.5"/>
		<path class="st4" d="M-417.5,69.5c2.1-1.9,4.8-4.4,6.8-6.3"/>
		<path class="st4" d="M-417.2,76.5c2-2.2,4.2-4.2,6.5-6"/>
		<path class="st4" d="M-416.9,82.5c2-2.2,3.9-4,6.3-5.7"/>
		<path class="st4" d="M-416.7,88.8c2-1.9,4-3.8,6-5.8"/>
		<path class="st4" d="M-414.4,93.3c2.1-2.1,4.7-4.7,6.8-6.7"/>
		<path class="st4" d="M-406.5,93.2c1.8-2.1,3.8-4.9,5.3-7.3c-0.1,0.1-0.2,0.1-0.4,0.2"/>
		<path class="st4" d="M-427.9,42.5c0-0.5,0.4-0.9,0.7-1.2c1.2-1.2,2.5-2.3,3.8-3.4"/>
		<path class="st4" d="M-421.1,41.6c1.4-1.6,3-3,4.8-4.2"/>
		<path class="st4" d="M-417.7,45c2.4-2.1,4.9-4.1,7.4-6"/>
		<path class="st4" d="M-417.5,49.7c2.2-1.7,4.4-3.4,6.6-5"/>
		<path class="st4" d="M-414.7,52.8c1.3-1.2,2.8-2.3,4.3-3.3c-0.1-0.1-0.2-0.1-0.2-0.1"/>
		<path class="st6" d="M-609.5,26.7c0.5,0.3,2.5,4.1,3.7,6.4c1.8,3.8,3.6,7.6,5.5,11.4c0.2,0.4,0.4,0.8,0.8,0.8
			c0.3,0,0.6-0.3,0.7-0.6c3.1-5.3,9.1-17.7,9.5-17.9c0.4-0.3,12.6-0.2,13,0c0.9,0.4-16.2,27.1-16.4,27.8c-0.3,1.3,18.7,31.6,18.4,32
			c-0.5,0.5-15.1,1-16.1,0.4c-0.9-0.5-9.3-18.3-12.1-21.9c-3.1,5.5-11,20.7-12.1,21.5c-1.3,0.9-13.6,0.7-13-0.2
			c6.5-11,17.5-29.8,17.5-29.9c0.3-0.6,0.5-1.3,0.5-2c0-1.2-12.3-20.8-13.5-23.3c-0.5-1-1.5-2.3-2.1-3.6
			C-625.9,25.8-611,25.9-609.5,26.7z"/>
		<g>
			<g>
				<path class="st3" d="M-508.2,42.4c3.9-3.1,7.9-0.3,8.6,4.1c0.5,3.3,0.4,6.8,0.2,10.1c-0.3,6.8-1.4,13.5-1.4,20.2
					c0.3,0,0.7-0.1,1-0.1c-0.1-0.4-0.2-0.5-0.5-0.8c-0.4-0.5-1.2,0.2-0.7,0.7c0.1,0.1,0.1,0.2,0.2,0.4c0.2,0.5,1,0.5,1-0.1
					c0-9.6,2.1-19.1,1.3-28.8c-0.2-2.6-0.7-5.2-2.9-6.9c-2.5-1.9-5.2-1.3-7.5,0.5C-509.5,42.1-508.7,42.8-508.2,42.4L-508.2,42.4z"
					/>
			</g>
		</g>
		<g>
			<g>
				<path class="st3" d="M-514.7,29.3c-2.4,0.9-4.5,2.8-6.5,4.4c-2.5,2.1-4.7,4.4-6.4,7.2c-4.1,6.6-5.8,14.7-5.8,22.5
					c0,13.4,8.8,27,22.6,29.6c8.6,1.6,15.9-2.5,22.1-8.1c0.5-0.4-0.2-1.1-0.7-0.7c-5.6,5-12,9-19.8,8c-6.3-0.8-11.9-4.3-16-9
					c-9.1-10.5-9.1-26.7-3.2-38.9c1.6-3.3,3.7-6.3,6.5-8.7c2.2-2,4.7-4.3,7.5-5.4C-513.8,30.1-514.1,29.1-514.7,29.3L-514.7,29.3z"
					/>
			</g>
		</g>
		<path class="st4" d="M-521.9,37.4c-1.6,1-3.4,2.2-5,3.3"/>
		<path class="st4" d="M-524.4,43.2c0,0.1,0.1-0.1,0.1-0.1s-0.2,0-0.2,0.1c-1.6,1.2-3.3,2.4-4.9,3.7c-0.4,0.3-0.7,0.5-1,0.9"/>
		<path class="st4" d="M-526.3,50c-2,1.6-3.9,3.2-5.9,4.8"/>
		<path class="st4" d="M-526.8,56.1c-2.1,1.9-4,3.6-6.1,5.5"/>
		<path class="st4" d="M-526.5,62.8c-2.2,2-4,3.8-6,5.8"/>
		<path class="st4" d="M-525.4,69.9c-1.8,1.7-3.6,3.4-5.4,5"/>
		<path class="st4" d="M-522.9,74.8c-1.9,1.9-3.3,3.4-5.2,5.3"/>
		<path class="st4" d="M-518.5,80.4c-1.7,1.6-3.4,3.3-5.1,4.9"/>
		<path class="st4" d="M-513.5,84.3c-1.7,1.7-3.4,3.4-5.1,5.1c-0.1,0.1-0.4,0-0.3-0.2s0.4-0.1,0.3,0.1"/>
		<path class="st4" d="M-508.4,86.8c-1.6,1.5-3.4,3.5-5,5"/>
		<path class="st4" d="M-502,87.9c-1.2,1.3-3.2,3.5-4.2,5"/>
		<path class="st4" d="M-496.3,87.4c-1.1,1.1-2.1,2.4-2.9,3.8"/>
		<path class="st4" d="M-499.6,37.9c-0.4,0-0.7,0.3-1,0.6c-0.8,0.8-1.6,1.6-2.4,2.4"/>
		<path class="st4" d="M-494.8,39.7c-1.6,1.6-3.1,3.2-4.5,4.8"/>
		<path class="st4" d="M-492.3,43.1c-2.4,2.1-4.6,4.4-6.7,6.8"/>
		<path class="st4" d="M-490.9,48.6c-1.2,1.5-2.4,2.9-3.8,4.2c-1.4,1.3-3.1,2.4-4.1,4c0-0.2,0.1-0.3,0.1-0.5"/>
		<path class="st4" d="M-490.1,55.5c-3.4,3.6-6.6,7.3-9.7,11.1"/>
		<path class="st4" d="M-490.6,62.6c-2.9,3.4-6,6.6-9.3,9.6"/>
		<path class="st4" d="M-492.4,70.1c-2.4,2-4.8,4.1-6.8,6.4"/>
		<g>
			<path class="st5" d="M-475.9,57c-0.4-20.1-10.5-30.3-25-30.9c-34.1-1.1-35.7,60.6-0.8,61.8C-485.5,88.4-475.6,73.8-475.9,57z
				 M-501.1,76.5c-17.4,1.1-13.2-40-0.7-38.9c10.1-0.8,11,12.7,11.1,14C-489.8,61.3-490.5,75.9-501.1,76.5z"/>
			<g>
				<path class="st3" d="M-475.4,57c-0.2-7.7-1.7-15.8-6.5-22c-3.9-5.1-9.7-8.2-16.1-9.1c-10.5-1.4-20.1,3.4-25.2,12.7
					c-9.5,17-4.1,46.1,18,49.5c7.9,1.2,15.8-1.1,21.3-6.9C-477.8,74.8-475.3,65.7-475.4,57c0-0.6-1-0.6-1,0
					c0.2,15.1-8.9,31.2-25.8,30.4c-10.3-0.5-18.3-7.2-22-16.6c-6.5-16.7-0.1-43.2,21.1-44.1c6.9-0.3,13.8,1.9,18.7,6.9
					c6,6.2,7.7,15.1,8,23.4C-476.4,57.7-475.4,57.7-475.4,57z"/>
				<path class="st3" d="M-501.1,76c-13.5,0.6-12-20.9-9.2-29.1c1.8-5.2,5-9.9,11.2-8.7c6.1,1.2,7.7,8.6,8.1,13.9
					C-490.5,60.1-490.3,75.1-501.1,76c-0.6,0.1-0.6,1.1,0,1c9.9-0.9,11.2-12.6,11.2-20.5c-0.1-5.9-0.5-13.8-5.7-17.7
					c-2.4-1.8-6.2-2.3-9-1.2c-2.4,1-4,3.2-5.2,5.4c-3.2,6.1-4.1,13.9-3.1,20.7c0.9,6.5,4.2,13.7,11.8,13.4
					C-500.4,77-500.4,76-501.1,76z"/>
			</g>
		</g>
		<path class="st4" d="M-379.1,28.4c-7.5,2.6-13.4,8.9-13.7,16.8c-0.1,1.2,0,3.6,0.8,4.6c0.6,0.7,9.2,1.4,10.6,1.1
			c0.7-0.1,3-1.9,4-3.9"/>
		<path class="st4" d="M-375.6,40.6c2.1-0.9,4.9-1.5,7.1-0.7c1.4,0.5,2.4,1.9,2.8,3.3c0.3,0.8,0,1.8-0.1,2.7c-0.4,2.8-1.2,5.5-2.3,8
			"/>
		<path class="st4" d="M-370.9,54.9c-1.6,1.1-3.8,2.6-5.2,4.1c-0.8,0.8-1.5,1.7-2,2.7c-1.1,2.1-0.8,9.3-0.1,10.1
			c0.6,0.6,9.5,1.4,10,1.3c2.1-0.7,4.3-2.4,5-4.2"/>
		<path class="st4" d="M-374.3,73.5c-1.1,1-4.5,3.8-4.8,4.5c-0.3,0.8-0.1,12.3,1,13c0.6,0.4,12.8,0.2,13.8-0.5c0.6-0.5,3.2-3,4-4.5"
			/>
		<path class="st4" d="M-357.8,85.7"/>
		<path class="st4" d="M-390,36.7c1.6-1.1,3.2-2,5-2.7c-0.1,0-0.2,0.1-0.3,0.1"/>
		<path class="st4" d="M-392.6,43c0.3-0.5,0.8-1,1.2-1.4c1.4-1.2,2.9-2.3,4.5-3.3"/>
		<path class="st4" d="M-392.4,49.1c1.3-1.4,2.8-2.8,4.2-4.1"/>
		<path class="st4" d="M-387,50.7c0-0.3,0.3-0.6,0.5-0.8c1.3-1.2,2.7-2.3,4.1-3.3"/>
		<path class="st4" d="M-371.6,39.7c1.5-1.3,3.1-2.4,4.8-3.3"/>
		<path class="st4" d="M-366.1,41.5c1.4-0.9,2.7-1.9,4.1-2.8c0,0,0.1-0.1,0.1-0.1c0,0-0.1,0-0.1,0"/>
		<path class="st4" d="M-366,47.3c1.6-1.2,3.7-2.4,5.4-3.4c-0.1,0-0.2,0-0.3,0"/>
		<path class="st4" d="M-378.7,63.4c1.6-1.3,3.3-2.4,5.1-3.2c-0.1,0.1-0.2,0.1-0.4,0.2"/>
		<path class="st4" d="M-378.7,68.7c1.4-1.4,3-2.8,4.6-4"/>
		<path class="st4" d="M-377.1,72.2c1.1-1,2.8-2.3,3.9-3.3"/>
		<path class="st4" d="M-371.5,72.9c1.3-1.3,3.2-3.1,4.6-4.3"/>
		<path class="st4" d="M-379.3,82.1c1.7-1.6,3.8-3.4,5.6-4.8"/>
		<path class="st4" d="M-378.8,88.7c1.3-1.6,2.8-3.2,4.2-4.7"/>
		<path class="st4" d="M-375.2,91.1c1.3-1.7,2.7-3.2,4.3-4.7"/>
		<path class="st4" d="M-368.9,91.2c0.9-1.4,2.7-3.5,3.9-4.7"/>
		<g>
			<path class="st5" d="M-382,30.6c-4.1,3.1-7.5,14.7-7.1,14.9c1.4,0.4,11.3,1.9,12,1.5c0.3-0.2-0.3-8.6,6.5-10.5
				c10.3-2.8,11.4,8.2,7.3,12.9c-1.4,1.5-6.7,3.4-9.4,8.1c-2.3,3.9-1.6,9.8-1.1,11.8c0,0,8.8-0.1,10.8,0c0.2,0,0.4-0.2,0.4-0.4
				c0.3-3-1-4,0.7-5.6c6.1-5.7,15.5-10.7,14.7-21.3C-348.6,24.8-372.1,20.6-382,30.6"/>
			<g>
				<path class="st3" d="M-382.4,30.2c-2.4,1.9-3.8,5-4.9,7.7c-0.6,1.5-1.2,2.9-1.6,4.4c-0.2,0.7-0.9,2-0.7,2.8
					c0.3,1.4,3.1,1.2,4.2,1.4c1.5,0.2,2.9,0.4,4.4,0.6c1,0.1,2.6,0.6,3.6,0.3c1.3-0.4,0.9-2,1.1-3.2c0.7-4,2.9-7,7.1-7.7
					c4-0.7,7.2,1.4,7.6,5.5c0.3,2.9-0.8,6.1-3.2,7.8c-3.3,2.3-7,4.2-8.8,8.1c-1.6,3.4-1.5,7.6-0.7,11.3c0,0.2,0.3,0.3,0.5,0.4
					c2.3,0.2,4.8,0,7.1,0c2.2,0,4.7,0.9,4.7-1.9c-0.1-2.2-0.5-3.2,1.4-4.9c1.5-1.3,3-2.5,4.5-3.8c2.7-2.3,5.4-4.7,7.3-7.8
					c3.4-5.7,2.8-13.2-1.1-18.4c-3.4-4.5-8.8-7.1-14.3-7.8C-370.8,24.2-377.7,25.7-382.4,30.2c-0.5,0.4,0.2,1.2,0.7,0.7
					c8.7-8.4,26.2-6.4,32.1,4.5c4,7.4,1.2,15-4.5,20.4c-2.5,2.4-5.5,4.4-8,6.9c-0.8,0.8-1.3,1.5-1.3,2.6c0,0.7,0.2,1.4,0.2,2.1
					c0,1.2-0.1,1.1-1,1.3c-2.6,0.4-5.7,0-8.4,0c-0.2,0-0.9,0.1-1.1,0c0,0,0.1,0.1,0.1-0.6c0-1.8-0.4-3.6-0.2-5.5
					c0.5-4.9,3.5-8.1,7.5-10.6c2-1.3,3.7-2.3,4.7-4.6c1.7-3.7,1.4-9.1-2.6-11.2c-4.7-2.5-10.7,0.6-12.5,5.3
					c-0.4,1.1-0.6,2.2-0.8,3.4c-0.1,0.4,0,1-0.1,1.4c-0.2,0.5,0.5,0.2-0.3,0.2c-3,0-6.2-0.6-9.2-1.1c-0.4-0.1-1.4-0.1-1.6-0.3
					c0.2,0.1,0,0,0.2-0.6c0.5-1.3,0.8-2.6,1.2-3.9c1.2-3.3,2.8-7.3,5.6-9.6C-381.2,30.5-381.9,29.8-382.4,30.2L-382.4,30.2z"/>
			</g>
		</g>
		<g>
			<path class="st5" d="M-374.3,73.2c0,5.9-0.6,12.5,0,13.2c0.3,0.3,14,0.1,13.9-0.3c-0.1-0.6,0.4-13.1-0.5-12.9
				C-362.5,73.4-372.6,72.7-374.3,73.2"/>
			<g>
				<path class="st3" d="M-374.8,73.2c0,3.8-0.4,7.6-0.3,11.4c0,1.1-0.1,2,1,2.3c1.5,0.5,3.8,0.1,5.4,0.1c2.2,0,4.4-0.1,6.5-0.2
					c0.7,0,1.8,0.1,2.2-0.6c0.5-0.8,0-3.3,0-4.2c0-2.3,0.1-4.6-0.1-6.8c-0.1-0.8,0-2.1-0.9-2.5c-0.5-0.2-1.8,0.1-2.3,0.1
					c-1.4,0-2.8-0.1-4.2-0.1c-2.3-0.1-4.9-0.4-7.2,0.2c-0.6,0.1-0.4,1.1,0.3,1c2.2-0.5,4.7-0.2,6.9-0.1c1.2,0,2.5,0.1,3.7,0.1
					c0.4,0,2.3-0.3,2.6-0.1c-0.2-0.2,0,1.6,0,1.9c0.1,1.1,0.1,2.2,0.1,3.2c0,2.1-0.3,4.4-0.1,6.5c0,0.2,0.1,0.5,0,0.7
					c-0.1,0.4,0.5-0.3,0.1-0.3c-0.9,0.1-1.7,0.2-2.6,0.2c-2.2,0.1-4.4,0.2-6.6,0.2c-0.9,0-2.2,0.2-3.1,0c-1-0.3-0.8,0.2-0.9-1.1
					c-0.2-3.9,0.2-7.8,0.3-11.6C-373.8,72.6-374.8,72.6-374.8,73.2L-374.8,73.2z"/>
			</g>
		</g>
		<path class="st6" d="M-573.9,38.4c0.2,0.2,14.6,0.5,14.7,0.7c0.1,0.1-0.4,38.3,0.1,47.4c3.6,0.5,13.7,0.9,14.3,0
			c0.4-0.6-0.6-47.9-0.3-48.1c0.4-0.2,13.9,0.5,14.8,0.1c0.8-0.3,0.5-11.6-0.1-11.9c-0.3-0.2-42.5-1-43.4,0
			C-574.4,27.5-574,38.3-573.9,38.4z"/>
		<path class="st6" d="M-397.2,26.7c-0.3-0.2-28.1,0.1-30.4,0.4c-3,0.3-6.2,0.9-8.9,2.3c-5.3,2.7-8.5,8.4-8.5,14.4
			s3.1,12.5,8.4,15.2c0.9,0.4,2.1,0.4,2,1.3c0,0.3-0.2,0.6-0.3,0.9c-4.4,8-8.3,16.2-11.7,24.6c-0.2,0.5,0.2,0.9,0.7,0.9
			c4.8-0.8,13.4,0.5,13.7,0.4c0.4-0.3,5.2-15.8,8.8-22.7c0.1-0.3,0.3-0.5,0.5-0.7c0.3-0.2,0.6-0.2,1-0.2c3.8-0.2,7.5-0.5,11.3-0.7
			c-0.1,4.9,0,24,0.2,24.2c0.2,0.2,9.9-0.1,13.7-0.1C-396,85.1-396.8,26.9-397.2,26.7z M-410.6,52.7c-5-0.1-10.1,0-15-0.6
			c-1-0.1-3.8-1.7-4.5-3.9c-0.4-1.4-0.7-2.3-0.7-3.7c0.1-1.9,0.9-3.7,2.5-5.3c1.8-1.9,15.2-2.2,17-2
			C-410.1,37.4-410.7,49-410.6,52.7z"/>
	</g>
</g>
<g id="Слой_8" class="st0">
	<rect x="-655" y="892.2" style="display:inline;fill:none;" width="1304" height="306"/>
	<text transform="matrix(1 0 0 1 -655.0201 952.1987)" class="st2"><tspan x="0" y="0" style="font-family:'FranklinGothic-Demi'; font-size:90px;">YES, YOU CAN!</tspan><tspan x="0" y="108" style="font-family:'FranklinGothic-Demi'; font-size:90px;">ТИ МОЖЕШ ДОПОМОГТИ! </tspan><tspan x="0" y="216" style="font-family:'FranklinGothic-Demi'; font-size:90px;">ТЫ МОЖЕШЬ ПОМОЧЬ!</tspan></text>
	<rect x="-646.9" y="1270.2" style="display:inline;fill:none;" width="1304" height="306"/>
	<text transform="matrix(1 0 0 1 -646.9236 1330.1987)" class="st2"><tspan x="0" y="0" style="font-family:'FranklinGothic-Demi'; font-size:90px;">CONTACT ME</tspan><tspan x="0" y="108" style="font-family:'FranklinGothic-Demi'; font-size:90px;">ЗВ’ЯЗАТИСЯ ЗІ МНОЮ </tspan><tspan x="0" y="216" style="font-family:'FranklinGothic-Demi'; font-size:90px;">СВЯЗАТЬСЯ СО МНОЙ</tspan></text>
</g>
<g id="Слой_15">
</g>
<g id="Слой_16">
</g>
<g id="Слой_9">
</g>
<g id="Слой_24">
</g>
<g id="Слой_7">
</g>
<g id="Слой_6">
</g>
<g id="Слой_13">
</g>
<g id="Слой_14">
</g>
<g id="Слой_11">
</g>
<g id="Слой_12">
</g>
<g id="Слой_10">
</g>
<g id="Слой_5">
	<path class="st7" d="M-0.3,26.9c0,2.8,0.4,11.2,1.7,14c1.8,3.7,14.9,3.8,25.1,5.1C43.4,48,236.1,43,245.6,40.3
		c2.9-0.8,9.5-32.2,4.5-42.7c-1-2.1-2.3-4.2-4.7-5.6c-2.2-1.3-5.2-1.7-8-2.1c-10.8-1.2-21.8-0.9-32.7-0.6
		c-14.9,0.5-100.2,0.7-108.4-0.1c-25.6-2.4-51.6-1.6-77.3-0.7C14.8-11.3,7.7-11.4,5-8.6C2.7-6.3-0.2,18.5-0.3,26.9z"/>
	<path class="st8" d="M5-8.6C-3.7-5.9-6.1-0.2-6.5,1.7c-1.1,5.1-1.2,10.4-1.5,15.7c-0.3,5.5-0.5,28.2,1,30.5
		c3.5,5.1,91.4,5.7,108.7,5.8c58.6,0.5,115.3,0.7,125.9,0.2c4.9-0.2,12.9-6.4,18.3-13.2"/>
	<path class="st8" d="M2.6-0.2C-1,3.1-3.8,5.5-7.6,8.5"/>
	<path class="st8" d="M-7.9,17c3-2.5,6.1-4.7,9.3-6.8"/>
	<path class="st8" d="M-8.4,26c2.8-2.3,5.7-4.5,8.7-6.5"/>
	<path class="st8" d="M-8.2,34.5c2.6-1.9,5.2-3.8,7.9-5.5"/>
	<path class="st8" d="M-7.7,44c2.4-2.6,5.2-4.8,8.3-6.6"/>
	<path class="st8" d="M-1.6,49.6c2.6-2.3,5.1-4.2,8-6.1"/>
	<path class="st8" d="M10.3,51c2-2.3,3.7-4.1,6.1-6"/>
	<path class="st8" d="M22.3,51.8c2.1-2.3,3.5-3.6,5.9-5.5"/>
	<path class="st8" d="M34,52.4c2.3-2.3,4.9-4.4,7.6-6.3"/>
	<path class="st8" d="M45.2,52.8c2.3-2.4,4.7-4.6,7.3-6.6"/>
	<path class="st8" d="M55.9,53.1c2.2-2.4,4.5-4.7,6.9-6.8"/>
	<path class="st8" d="M66.1,53.3c0.2-0.5,0.6-0.9,0.9-1.3c1.8-2,3.6-4,5.4-5.9"/>
	<path class="st8" d="M75.2,53.2c2.1-2.4,4.3-4.7,6.4-7.1"/>
	<path class="st8" d="M84.9,53.6c2.4-2.6,4.9-5.2,7.4-7.6"/>
	<path class="st8" d="M94.4,53.6c-0.2-0.2,0-0.5,0.1-0.7c2.2-2.3,4.4-4.6,6.6-6.9"/>
	<path class="st8" d="M104.4,54c0.7-1,1.6-1.8,2.5-2.7c1.9-1.8,3.6-3.7,5.1-5.7"/>
	<path class="st8" d="M115.8,53.8c2.4-2.6,4.7-5.3,6.8-8.2"/>
	<path class="st8" d="M127.3,53.7c2.4-2.6,5.1-5.8,7.2-8.7"/>
	<path class="st8" d="M137.9,53.8c2.7-2.8,4.4-6.3,7.2-9.1"/>
	<path class="st8" d="M148.1,53.9c1.9-2.8,4.8-6.5,6.5-9.4"/>
	<path class="st8" d="M156.9,53.7c2.2-2.8,4.5-6.8,6.8-9.6"/>
	<path class="st8" d="M166.7,54.1c0.4-0.7,1.3-1.8,1.7-2.4c1.7-2.2,4.4-5.6,6-7.8"/>
	<path class="st8" d="M175,54.1c2.3-3.1,6.5-8.1,9.1-10.9"/>
	<path class="st8" d="M183.7,54.1c0.6-0.9,1.6-2.1,2.2-2.9c1.6-2.2,4.4-5.8,6.1-8c0,0-1.1,1.4-1.1,1.4"/>
	<path class="st8" d="M192,54.1c1.9-3,6.1-8.3,8.2-11.2"/>
	<path class="st8" d="M201.4,53.8c2.3-3.2,5.7-7.6,8.2-10.7"/>
	<path class="st8" d="M209.6,54.1c2-3.1,5.8-8.8,7.8-11.9"/>
	<path class="st8" d="M219.7,54c1.9-3.2,5.2-8.9,7-12.1"/>
	<path class="st8" d="M229.8,53.6c2.3-3.3,6.4-9.2,8.7-12.5"/>
	<g>
		<path d="M46.9,26c0-0.5,0.2-0.8,0.7-0.8c0.2,0,0.5,0.1,0.9,0.2s0.6,0.2,0.8,0.2s0.3,0,0.5-0.1c0-1.6-0.2-5.1-0.3-10.6
			c0-0.1-0.2-0.3-0.5-0.7s-0.5-0.7-0.7-0.9s-0.4-0.7-0.8-1.2c-0.4-0.6-0.6-1-0.7-1.4c-0.4-1-0.6-1.9-0.6-2.7s0.3-1.6,0.8-2.4
			s1.3-1.4,2.2-1.8c0-0.4,0-0.7,0-1s0-0.5,0.1-0.7C49.2,2.1,49.3,2,49.4,2c0.1,0,0.2,0,0.3,0.1c0.3,0.2,0.4,0.5,0.4,1v0.4
			c0.6-0.1,1.2-0.2,1.6-0.2c0.5,0,0.9,0.1,1.2,0.3s0.6,0.5,0.7,0.8L53.2,5c-0.2,0-0.5,0-1-0.1s-0.8-0.1-1-0.1c0,0-0.1,0-0.1,0
			c-0.2,0-0.5,0-0.9,0.1l0.4,9.4c1.6,2,2.5,3.7,2.8,5c0.2,0.6,0.2,1.4,0.2,2.2s-0.2,1.8-0.6,2.7s-1,1.7-1.8,2.2v2.1
			c0,0.1,0,0.1,0,0.2c0,0.9-0.3,1.3-0.9,1.3c-0.4,0-0.5-0.3-0.5-0.9V29l-0.1-2c-0.1,0-0.3,0-0.6,0s-0.5,0-0.9-0.1s-0.6-0.2-1-0.3
			S46.9,26.2,46.9,26z M49.3,12.6c0-1.1-0.1-3.5-0.2-7.3c-0.5,0.3-0.9,0.7-1.2,1.2c-0.3,0.5-0.4,1-0.4,1.6
			C47.6,9.4,48.2,10.9,49.3,12.6z M51.1,24.7c0.4-0.5,0.7-1,0.9-1.7s0.3-1.2,0.3-1.7c0-1.3-0.5-2.8-1.6-4.4L51.1,24.7z"/>
		<path d="M57.5,26.9l-0.5,0c-1.1,0-1.6-0.3-1.6-0.8c0-0.2,0.1-0.4,0.3-0.5c0.2-0.1,0.4-0.2,0.7-0.2s0.5,0.1,0.7,0.2
			c0.5-0.2,0.9-0.7,1.1-1.6c0.3-0.9,0.4-1.7,0.4-2.3s0-1.1,0-1.4c0-0.3,0-0.7,0-1.3s-0.1-0.9-0.1-1.3c0-0.3-0.1-0.7-0.2-1.2
			s-0.2-0.8-0.3-1.1s-0.3-0.6-0.4-0.9c-0.2-0.3-0.4-0.5-0.6-0.7c-0.5-0.4-1.1-0.6-1.8-0.6c-0.5,0-0.8-0.2-0.9-0.6
			c-0.1-0.3-0.2-0.7-0.2-1.1l0.2-1.5c0-1.3-0.2-3.3-0.7-6.3l0.5-0.5h2.4c0.8,0,1.2,0.3,1.2,0.8v0.2l-0.6,0.5h-0.7V4.6h-1.3
			c0,1.3,0.2,3.6,0.6,7.1c0,0,0.2,0,0.6,0.1c0.3,0,0.6,0.1,0.7,0.1c0.5,0.1,0.9,0.2,1.1,0.4c0.5,0.3,0.8,1,1.1,2.1
			c0.5,1.8,0.7,3.7,0.7,5.7c0,1.7,0,2.8-0.1,3.1s-0.2,0.8-0.3,1.1c-0.1,0.4-0.3,0.7-0.4,0.9C58.7,25.8,58.2,26.4,57.5,26.9z"/>
		<path d="M69.2,31L69.2,31c-0.2,0.4-0.5,0.6-0.8,0.6c-0.5,0-1-0.5-1.5-1.6s-0.9-2.4-1.2-4s-0.6-3.2-0.8-5c-0.4-3.4-0.7-5.6-0.7-6.7
			s0.1-2.2,0.2-3.4s0.3-2.4,0.6-3.8c0.3-1.3,0.6-2.5,1-3.5s0.9-1.5,1.4-1.5h0.1l0.5,0.4c0,0.5-0.2,1.1-0.5,1.8S67.1,5.4,67,5.6
			c-0.9,2.2-1.3,4.7-1.3,7.6s0.2,5.6,0.5,8.3c0.4,3.1,1.1,5.7,2.2,7.6C68.8,29.9,69.1,30.5,69.2,31z"/>
		<path d="M74,5.2l-0.5,0c-0.2,0-0.3,0-0.4,0.1s-0.1,0.2-0.1,0.5c0,2,0.1,4.9,0.4,8.8s0.4,6.8,0.4,8.8v1.2c0.2,0,0.4,0,0.6,0
			c0.8,0,1.2,0.4,1.2,1.1v0.2l-0.7,0.5l-2,0.1c-1.7,0-2.6-0.3-2.6-0.9c0-0.5,0.3-0.7,0.9-0.7l0.6,0c0.3,0,0.4-0.2,0.4-0.7
			c0-1.5-0.1-3.9-0.3-6.9s-0.3-5.4-0.3-6.9l0.1-3.1c0-0.6,0-1.2-0.1-1.7c-0.3,0.1-0.5,0.1-0.7,0.1c-0.5,0-0.7-0.2-0.7-0.7
			c0-0.2,0.2-0.5,0.5-0.6s0.7-0.3,1.1-0.4c0.8-0.1,1.5-0.2,1.9-0.2s0.7,0.1,0.9,0.2s0.3,0.4,0.3,0.6S74.6,4.8,74.5,5
			C74.3,5.1,74.2,5.2,74,5.2z"/>
		<path d="M80,19.1l0-1.8v-0.7c0-2.9,0.1-5,0.4-6.2c0.4-1.4,0.8-2.4,1.5-3c0.8-0.8,1.9-1.1,3.2-1.1c0.3,0,0.5,0.1,0.7,0.2
			S86,6.9,86,7.1s-0.1,0.4-0.2,0.5c-0.1,0.2-0.3,0.2-0.5,0.3H84c-0.4,0-0.8,0.3-1.1,0.8c-0.3,0.5-0.5,1.2-0.6,1.9
			c-0.3,1.4-0.4,2.6-0.4,3.6v0.1l-0.1,5.8c0,1.2,0.1,2.1,0.2,2.5c0.1,0.5,0.3,0.8,0.4,1.1s0.3,0.5,0.5,0.7c0.4,0.4,1,0.6,1.7,0.6
			c0.2,0,0.4-0.1,0.6-0.3c0.2,0,0.4,0.1,0.6,0.2s0.3,0.3,0.3,0.5c0,0.8-0.6,1.2-1.7,1.2c-0.4,0-0.9-0.1-1.4-0.2
			c-0.5-0.1-0.9-0.3-1.1-0.4C80.6,25.3,80,22.9,80,19.1z"/>
		<path d="M87.4,17.2l0-1.1c0-0.1,0-0.1,0-0.1v-0.5c0-3.1,0.2-5.4,0.5-6.7c0.3-1.1,0.6-1.8,0.9-2.1s0.6-0.4,0.8-0.4
			c2.3,0,3.9,1.2,4.8,3.5c0.5,1.3,0.8,3,0.8,5v0.2l0.1,3.4c0,5.8-1.3,8.6-4,8.6c-1.1,0-1.9-0.6-2.5-1.8c-0.6-1.2-0.9-2.3-1-3.5
			C87.5,19.9,87.4,18.4,87.4,17.2z M89.2,13.1l-0.1,2.8c0,2.9,0.2,5.4,0.7,7.6c0.5,1.3,1,2,1.4,2.2c0.4,0,0.7-0.1,1-0.4
			s0.5-0.7,0.7-1.2s0.3-1,0.4-1.6c0.1-0.5,0.2-1.1,0.2-1.7c0.1-1.1,0.1-2,0.1-2.7s-0.1-1.9-0.2-3.5c-0.1-1.6-0.2-2.7-0.2-3.5v-0.5
			c0-0.7-0.3-1.4-0.7-2s-1-0.9-1.8-0.9c-0.7,0-1.1,0.4-1.4,1.2c-0.2,0.6-0.3,1.4-0.3,2.4L89.2,13.1z"/>
		<path d="M104.4,13l0,0.5c0,8.9-1.3,13.3-3.9,13.3c-1,0-1.7-0.4-2.2-1.2c-0.5-0.8-0.8-1.7-0.9-2.5c-0.2-1.3-0.3-2.7-0.3-4.4
			s0-4,0-7.2L97,7.2c0.2-0.4,0.4-0.6,0.6-0.6s0.5,0.2,0.6,0.5s0.3,0.8,0.3,1.2v8.2c0,0.7,0.1,1.8,0.2,3.2c0.1,1.4,0.2,2.5,0.2,3.2
			c0,1.5,0.6,2.2,1.9,2.2c1.4,0,2.1-5.4,2.1-16.1V7.2l0-0.5c0-0.2,0.1-0.4,0.2-0.5s0.3-0.2,0.6-0.2s0.5,0,0.6,0.1
			c0.1,0.1,0.2,0.2,0.3,0.4c0.1,0.2,0.1,0.6,0.1,1l-0.2,3L104.4,13z"/>
		<path d="M108.4,9.5l0.1,7.2c-0.1,0.3-0.2,0.6-0.2,1v0.6l-0.1,4.8c0,1.4,0.3,2.1,1,2.1l1.2,0c1.1,0,1.6,0.3,1.6,0.9
			c0,0.2-0.1,0.4-0.3,0.5s-0.4,0.2-0.6,0.3c-0.7-0.2-1.6-0.4-2.7-0.4c-0.3,0.2-0.6,0.3-0.9,0.3s-0.5-0.1-0.7-0.3s-0.2-0.4-0.2-0.7
			c0-1.5,0.1-3.7,0.2-6.7s0.2-5.2,0.2-6.7v-0.2c-0.1-1.3-0.2-2.2-0.2-2.8c0-1.9,0.3-2.8,1-2.8c0.2,0,0.4,0.1,0.5,0.2
			c0.2,0.1,0.2,0.3,0.2,0.5L108.4,9.5z"/>
		<path d="M113.5,22.6l0.1-9.4c0-0.6-0.1-1.6-0.2-3s-0.2-2.2-0.2-2.5s0.1-0.6,0.3-0.8s0.5-0.3,0.7-0.3c2.1,0,3.7,1.2,5,3.6
			c0.7,1.4,1.1,2.8,1.1,4.4l-0.1,1.5v1.7c0,2-0.1,3.4-0.3,4s-0.4,1.2-0.6,1.7s-0.4,0.8-0.7,1.2c-0.6,0.8-1.4,1.4-2.4,1.9h-2.2
			C113.8,26.5,113.5,25.2,113.5,22.6z M115.6,24.3V25c1.7,0,2.8-1.8,3.1-5.3c0.1-0.8,0.1-1.6,0.1-2.3c0-6-1.2-9.2-3.5-9.5
			c-0.1,0.8-0.2,1.9-0.2,3.3s0.1,3.5,0.2,6.5C115.5,20.6,115.6,22.8,115.6,24.3z"/>
		<path d="M126.2,9.2L126,7.6V7.5c0-0.4,0.1-0.8,0.2-1c0.1-0.2,0.5-0.4,1-0.4c0.5,0,1.1,0.1,1.6,0.4s0.9,0.7,1.2,1.2
			c0.6,1,0.9,2.1,0.9,3.3s-0.1,2.2-0.3,3s-0.5,1.4-0.9,2c0.8,0.8,1.2,2,1.3,3.7c0,0.4,0,0.9,0,1.4c0,0.5,0,1.1-0.1,1.6
			s-0.3,1-0.5,1.5c-0.2,0.5-0.5,0.9-0.8,1.2c-0.7,0.8-1.7,1.1-2.9,1.1c-0.4,0-0.7-0.2-0.8-0.6c-0.1-0.3-0.1-0.6-0.1-1l0.3-6.4
			L126.2,9.2z M127.4,23.6l0,0.1v1.3c0.7-0.2,1.2-0.6,1.5-1.2c0.3-0.6,0.5-1.2,0.5-1.8s0-1,0-1.3c0-0.3-0.1-0.7-0.1-1.2
			s-0.2-0.9-0.3-1.2c-0.3-0.9-0.7-1.4-1.4-1.5c-0.1,1.3-0.1,2.8-0.1,4.5L127.4,23.6z M127.6,10.7v4.5c1.1,0,1.6-1.3,1.6-3.8
			s-0.4-3.8-1.2-3.9C127.8,8,127.6,9.1,127.6,10.7z"/>
		<path d="M140.2,13l0,0.5c0,8.9-1.3,13.3-3.9,13.3c-1,0-1.7-0.4-2.2-1.2c-0.5-0.8-0.8-1.7-0.9-2.5c-0.2-1.3-0.3-2.7-0.3-4.4
			s0-4,0-7.2l-0.1-4.3c0.2-0.4,0.4-0.6,0.6-0.6s0.5,0.2,0.6,0.5s0.3,0.8,0.3,1.2v8.2c0,0.7,0.1,1.8,0.2,3.2c0.1,1.4,0.2,2.5,0.2,3.2
			c0,1.5,0.6,2.2,1.9,2.2c1.4,0,2.1-5.4,2.1-16.1V7.2l0-0.5c0-0.2,0.1-0.4,0.2-0.5s0.3-0.2,0.6-0.2s0.5,0,0.6,0.1
			c0.1,0.1,0.2,0.2,0.3,0.4c0.1,0.2,0.1,0.6,0.1,1l-0.2,3L140.2,13z"/>
		<path d="M146.6,24.8c0,1.3-0.3,2-1,2c-0.4,0-0.6-0.2-0.8-0.7c0.2-0.4,0.3-2.1,0.3-5.1c0-0.5-0.1-1.3-0.2-2.3s-0.2-1.7-0.2-2.1
			v-0.8c0-0.1-0.4-0.9-0.9-2.4c-1.3-3.3-2-5.3-2-6V7.3l0.7-0.5c0.6,0,1.3,1.6,2.2,4.6c0.4,1.3,0.6,2,0.6,2c0.1-0.2,0.2-1,0.5-2.2
			c0.6-3.2,1.2-4.9,1.9-4.9c0.2,0,0.4,0.1,0.5,0.2c0.2,0.1,0.2,0.3,0.2,0.5c0,1-0.3,2.4-0.9,4.3c-0.6,1.9-0.9,3.3-0.9,4.3V24.8z"/>
		<path d="M153.4,22.6l0.1-9.4c0-0.6-0.1-1.6-0.2-3s-0.2-2.2-0.2-2.5s0.1-0.6,0.3-0.8s0.5-0.3,0.7-0.3c2.1,0,3.7,1.2,5,3.6
			c0.7,1.4,1.1,2.8,1.1,4.4l-0.1,1.5v1.7c0,2-0.1,3.4-0.3,4s-0.4,1.2-0.6,1.7s-0.4,0.8-0.7,1.2c-0.6,0.8-1.4,1.4-2.4,1.9h-2.2
			C153.6,26.5,153.4,25.2,153.4,22.6z M155.5,24.3V25c1.7,0,2.8-1.8,3.1-5.3c0.1-0.8,0.1-1.6,0.1-2.3c0-6-1.2-9.2-3.5-9.5
			c-0.1,0.8-0.2,1.9-0.2,3.3s0.1,3.5,0.2,6.5C155.4,20.6,155.5,22.8,155.5,24.3z"/>
		<path d="M162,17.2l0-1.1c0-0.1,0-0.1,0-0.1v-0.5c0-3.1,0.2-5.4,0.5-6.7c0.3-1.1,0.6-1.8,0.9-2.1s0.6-0.4,0.8-0.4
			c2.3,0,3.9,1.2,4.8,3.5c0.5,1.3,0.8,3,0.8,5v0.2l0.1,3.4c0,5.8-1.3,8.6-4,8.6c-1.1,0-1.9-0.6-2.5-1.8c-0.6-1.2-0.9-2.3-1-3.5
			C162.1,19.9,162,18.4,162,17.2z M163.8,13.1l-0.1,2.8c0,2.9,0.2,5.4,0.7,7.6c0.5,1.3,1,2,1.4,2.2c0.4,0,0.7-0.1,1-0.4
			s0.5-0.7,0.7-1.2s0.3-1,0.4-1.6c0.1-0.5,0.2-1.1,0.2-1.7c0.1-1.1,0.1-2,0.1-2.7s-0.1-1.9-0.2-3.5c-0.1-1.6-0.2-2.7-0.2-3.5v-0.5
			c0-0.7-0.3-1.4-0.7-2s-1-0.9-1.8-0.9c-0.7,0-1.1,0.4-1.4,1.2c-0.2,0.6-0.3,1.4-0.3,2.4L163.8,13.1z"/>
		<path d="M171.7,14.2l0.2-5.6c0-0.9,0.4-1.7,1.1-2.2v0.2c0.1,0,0.2-0.1,0.2-0.1c0.5,0,1.1,0.8,1.8,2.4s1.3,3.4,1.9,5.3
			s1.1,3.9,1.7,5.9s0.9,3.1,1,3.5c0.4-4.2,0.6-9.3,0.6-15.2l0-0.8c0-0.6,0.2-0.9,0.7-0.9c0.3,0,0.5,0.1,0.6,0.4s0.2,0.5,0.2,0.8v2.3
			c0,2.4-0.1,5.5-0.3,9.4c-0.2,3.9-0.4,6.1-0.8,6.7c-0.5,0.2-0.9,0.2-1.1,0.2c-0.2,0-0.4-0.1-0.5-0.2s-0.2-0.4-0.3-0.7
			s-0.1-0.5-0.2-0.6l0-0.1c0-0.7-0.7-3.1-2.2-7.1s-2.5-6.7-3.1-8.2v15.1c0,0,0.1,0.1,0.1,0.2c0.1,0.2,0.2,0.4,0.2,0.6
			s-0.1,0.4-0.3,0.6c-0.2,0.2-0.4,0.3-0.6,0.3c-0.7,0-1-0.6-1-1.8L171.7,14.2z"/>
		<path d="M191.1,13l0,0.5c0,8.9-1.3,13.3-3.9,13.3c-1,0-1.7-0.4-2.2-1.2c-0.5-0.8-0.8-1.7-0.9-2.5c-0.2-1.3-0.3-2.7-0.3-4.4
			s0-4,0-7.2l-0.1-4.3c0.2-0.4,0.4-0.6,0.6-0.6s0.5,0.2,0.6,0.5s0.3,0.8,0.3,1.2v8.2c0,0.7,0.1,1.8,0.2,3.2c0.1,1.4,0.2,2.5,0.2,3.2
			c0,1.5,0.6,2.2,1.9,2.2c1.4,0,2.1-5.4,2.1-16.1V7.2l0-0.5c0-0.2,0.1-0.4,0.2-0.5s0.3-0.2,0.6-0.2s0.5,0,0.6,0.1
			c0.1,0.1,0.2,0.2,0.3,0.4c0.1,0.2,0.1,0.6,0.1,1l-0.2,3L191.1,13z"/>
		<path d="M196,25.9l-0.1-2.3c0,0,0-0.4,0-1c-0.1-0.3-0.2-2.5-0.5-6.8s-0.4-6.9-0.4-7.8c0,0-0.1,0-0.1,0c-1.6,0-2.4-0.3-2.4-0.9
			c0-0.2,0.1-0.3,0.3-0.5s0.4-0.2,0.6-0.2l4.1,0.3l0.5,0c0.6,0,0.9,0.2,0.9,0.7c0,0.2-0.1,0.4-0.3,0.6s-0.4,0.2-0.7,0.2L196.7,8
			l-0.1,0.3c0,1.9,0.2,4.7,0.5,8.5s0.5,6.6,0.5,8.5c0,0.2-0.1,0.4-0.3,0.6s-0.4,0.3-0.7,0.3L196,25.9z"/>
		<path d="M205.2,14.4L205.2,14.4c0,1.6-0.4,4.7-1.3,9.1c-0.4,1.9-0.9,3.6-1.5,5.1s-1.2,2.2-1.7,2.2c-0.2,0-0.4-0.1-0.5-0.2
			c-0.2-0.1-0.2-0.3-0.2-0.5s0.1-0.4,0.2-0.8c0.2-0.3,0.4-0.7,0.6-1.1c0.9-1.6,1.6-3.8,2.2-6.7c0.5-2.8,0.8-5.1,0.8-6.8
			c0-4.5-0.6-7.8-1.8-10c-0.4-0.8-0.7-1.5-0.7-2V2.6l0.5-0.4c0.6,0,1.1,0.5,1.5,1.6c0.4,1.1,0.8,2.3,1.1,3.8
			C204.9,10.5,205.2,12.8,205.2,14.4z"/>
	</g>
</g>
<g id="Слой_21">
</g>
<g id="Слой_20">
</g>
<g id="Слой_19">
</g>
<g id="Слой_22">
</g>
<g id="Слой_25">
</g>
</svg>
