<svg xmlns="http://www.w3.org/2000/svg" viewBox="0 0 113.06 66.07"><defs><style>.cls-1{fill:none;}.cls-1,.cls-2{stroke:#000105;stroke-miterlimit:10;}.cls-2,.cls-3{fill:#fff;}.cls-4{fill:#000105;}</style></defs><title>Ресурс 7</title><g id="Слой_2" data-name="Слой 2"><g id="Слой_5" data-name="Слой 5"><path class="cls-1" d="M10.66,60.63l3.16-2.1"/><path class="cls-1" d="M14.75,63l3.31-2.61"/><path class="cls-1" d="M19.08,64.13A23.48,23.48,0,0,1,21.77,62"/><path class="cls-1" d="M24.65,65.2l2.41-2.51"/><path class="cls-1" d="M30.73,64.62a20.33,20.33,0,0,1,1.81-2"/><path class="cls-1" d="M52.28,62.53a30.4,30.4,0,0,1,6.31-3.74"/><path class="cls-1" d="M57.64,64.34c-.09,0,0-.16,0-.22q1.89-1.52,3.87-2.91"/><path class="cls-1" d="M63.65,65.17a10.3,10.3,0,0,1,2.88-2.92l1-.77"/><path class="cls-1" d="M91.41,59.68a54.61,54.61,0,0,1,4.08-4"/><path class="cls-1" d="M93.81,64.17a15.79,15.79,0,0,1,3.46-3.72"/><path class="cls-1" d="M98.93,65.33a2,2,0,0,1,.45-.69l2.38-2.74a4.63,4.63,0,0,1,.78-.77"/><path class="cls-1" d="M104.06,65.24c-.1,0-.09-.17,0-.26a44.59,44.59,0,0,1,2.61-4"/><path class="cls-1" d="M7.41,2.69C5.55,3.78.79,7.42.52,8.06S2.16,47.2,2.92,50.19C6.12,62.67,20.49,65,25.22,65.37c2.33.17,14.89-1.74,16.65-3.82"/><path class="cls-1" d="M43.21,2.32c-1.9,1.78-4.14,3.56-6,5.34-.84.79-1.11,37.23-.55,43.92"/><path class="cls-2" d="M7.27,41.36C7.26,47,8.79,53,12.66,57.05c3.28,3.47,8.25,4.67,13,5.45a93.52,93.52,0,0,0,15.44-.45c5.11-1.43,8.73-3.74,11.63-8.19C55.25,49.93,56,9.56,55,2.14c-3.61.26-8-.09-11.76,0-.74,13.66,2.1,42.59-2.33,46.93-1.35,1.33-5.88,2.46-8.25,2.46-3.65,0-6.07-.88-8.56-3.55-2.12-2.28-1-35.74-1.78-45.67A.28.28,0,0,0,22,2.06C20,2.13,7.36,2,7.28,2.82S7.27,37.37,7.27,41.36Z"/><path class="cls-1" d="M7.25,7.68a4.77,4.77,0,0,1-.91,1.09c-1.9,1.64-4,3.08-5.59,5"/><path class="cls-1" d="M.92,19.81A26.11,26.11,0,0,1,7.26,16"/><path class="cls-1" d="M1.12,26a70.94,70.94,0,0,1,6-4.6"/><path class="cls-1" d="M1.3,31.37a68.93,68.93,0,0,1,6.19-4.29"/><path class="cls-1" d="M2,36.77Q4.65,34.92,7.23,33"/><path class="cls-1" d="M2.11,42.34l5.19-3.67"/><path class="cls-1" d="M2.54,47.78Q5,46,7.45,44.09l-.2.13"/><path class="cls-1" d="M4.06,53.2a32.77,32.77,0,0,1,4.26-3.41"/><path class="cls-1" d="M6.31,57.52q2.2-1.39,4.27-3"/><path class="cls-1" d="M36.8,12.68A31.32,31.32,0,0,1,43.09,8.4"/><path class="cls-1" d="M36.51,18.63c2.3-1.9,4.36-3.6,6.49-5.69"/><path class="cls-1" d="M36.56,25.19q3.35-3,6.55-6.19"/><path class="cls-1" d="M36.27,31.08c2.46-2.09,4.58-3.78,7.17-5.71"/><path class="cls-1" d="M36.33,37.59c2-1.64,5.07-3.92,7.11-5.56,0,0-.32.2-.33.16"/><path class="cls-1" d="M36.33,42.63l7.11-5.22"/><path class="cls-1" d="M36.39,48.6q3.07-2.52,6.2-5"/><path class="cls-1" d="M78.15.71c-2.43,1.3-6,2.74-7.44,5.1-.49.82-19.16,56.27-18.65,57.25.68,1.29,13,3.06,14.45,2.33s2.51-2.33,4.07-4.91"/><path class="cls-1" d="M112.49,60.31a10.61,10.61,0,0,1-3.08,4.39c-.85.81-14.59.66-15.19,0-1.17-1.19-3.86-10.2-4.44-10.62-1.19-.87-4.57-.61-6.75-.62-3.45,0-6.69-.25-10.14-.27"/><path class="cls-1" d="M80.91,24.62c1.31,4.92,3.13,8.24,4.93,13"/><path class="cls-1" d="M75.88,6.06l-7,4.59"/><path class="cls-1" d="M73.05,14q-2.9,1.61-5.66,3.46a1.64,1.64,0,0,0-.58.55l.17-.25"/><path class="cls-1" d="M71.49,19.84a51.42,51.42,0,0,1-7,3.34.13.13,0,0,0,.21,0"/><path class="cls-1" d="M69.47,25.89l-6.61,3.93.38-.15"/><path class="cls-1" d="M66.87,33.69a47.89,47.89,0,0,0-6.8,3.55.22.22,0,0,0,.24-.07"/><path class="cls-1" d="M65,39.29c-2.31,2-5.27,3.14-7.5,5.23"/><path class="cls-1" d="M62.71,45.4Q60,47.09,57.23,48.55a6.43,6.43,0,0,0-1.68,1.1l.18-.14"/><path class="cls-1" d="M60.87,52,54.4,56"/><path class="cls-1" d="M81.15,25.5a17.78,17.78,0,0,1,4.16-4.18"/><path class="cls-1" d="M82.73,28.84a32.94,32.94,0,0,1,4.07-3.52"/><path class="cls-1" d="M84.47,34.25c-.16-.12,0-.38.08-.54A16.93,16.93,0,0,1,88,30.37"/><path class="cls-1" d="M86.29,37.64a32.79,32.79,0,0,1,3.77-2.73"/><path class="cls-1" d="M74,52.95q2-2.07,4.15-4"/><path class="cls-1" d="M79.56,53.75a1.81,1.81,0,0,1,.59-1l3.74-3.91c.24-.25.48-.5.74-.73a.16.16,0,0,1,.13-.05s.05.11,0,.1"/><path class="cls-1" d="M85.26,53.7q2.43-2.89,5.13-5.55"/><path class="cls-1" d="M90.16,54.49a1,1,0,0,1,.4-.78q1.87-1.87,3.82-3.65"/><path class="cls-3" d="M93.65.75c-.36-.29-13.22-.5-16.44.4-4.28,14.25-19.47,59.13-19,59.46.77.56,12.15.61,12.36,0,1.38-4.12,3.79-12.21,3.79-12.21s18.39-.63,19.33,0c.56.4,2.72,11.44,3.79,12.29.83.66,14.9.29,15,0C112.88,59.79,94.79,1.69,93.65.75ZM77.77,37.36c-.29-.37,4.91-19,6.36-21.14.89,2.66,6.43,21.09,6.29,21.14C89.19,37.77,78,37.65,77.77,37.36Z"/><path class="cls-4" d="M93.9.32A10.76,10.76,0,0,0,90.18,0C87.64,0,85.09,0,82.55.1,81.28.15,78-.16,77,.73c-.82.67-1.09,3.1-1.4,4.1C72.47,14.69,69.21,24.5,66,34.32c-2.64,8-5.41,16.05-7.78,24.17-.42,1.44-1.06,2.5.78,2.81a35.62,35.62,0,0,0,6.11.24c1.44,0,4,.35,5.31-.33s1.5-3.16,1.91-4.46c.73-2.34,2.1-5.13,2.32-7.58a2.13,2.13,0,0,1,.19-.64c0,.08-.69.37-.32.33s1,0,1.55,0q3.05-.09,6.1-.15c2.28,0,4.56-.08,6.85-.06.92,0,3.65-.37,4.38.25.32.28.5,1.68.6,2.06.32,1.2.61,2.4.92,3.6a26.31,26.31,0,0,0,1.72,5.75c1.19,2.24,6,1.32,8.12,1.3s4.27,0,6.4-.18c.59,0,1.52.09,1.82-.53.43-.89-.76-3.45-1-4.29-.92-3.29-1.9-6.55-2.89-9.82q-4-13.33-8.27-26.59c-2-6.21-3.74-12.63-6.26-18.65A3.41,3.41,0,0,0,94,.4c-.45-.46-1.16.25-.71.71.84.85,1.4,3.63,1.83,4.9,1.29,3.75,2.51,7.52,3.72,11.29q4.5,14,8.76,28c1.09,3.61,2.18,7.22,3.21,10.85.32,1.13.65,2.25.92,3.39.07.29.14.59.2.88s.47-.06,0-.1c-4.21-.33-8.53.46-12.78.14-2.08-.16-2.09-1.85-2.61-3.69-.65-2.35-1.16-4.74-1.84-7.08-.35-1.18-.43-1.71-1.65-1.93a35.3,35.3,0,0,0-6.37-.16c-4.11,0-8.21.12-12.32.26a.51.51,0,0,0-.48.37c-1.06,3.56-2.14,7.11-3.28,10.64-.27.83-.22,1.13-.88,1.45a6.81,6.81,0,0,1-2.21.16c-1.88.08-3.77.07-5.65,0-.75,0-1.51,0-2.26-.13-.58-.07-1.08-.35-.9.16-.09-.25.28-1.08.36-1.37.64-2.25,1.37-4.48,2.08-6.71C66,37.32,71.08,22.27,75.88,7.12a30.88,30.88,0,0,1,1.53-4.89c.45-.86.31-.71,1.47-.87.95-.12,1.91-.18,2.86-.23C84.14,1,86.55,1,88.95,1c1.21,0,3.33-.31,4.45.17C94,1.44,94.49.58,93.9.32Z"/><path class="cls-4" d="M78.26,37.22c-.21-.73.61-2.68.82-3.48.56-2.15,1.16-4.29,1.78-6.42,1-3.46,1.77-7.76,3.71-10.85l-.91-.12c2,6,3.74,12.11,5.49,18.18.25.88.43,1.83.75,2.69.17.47-.3-.21.26-.32a2,2,0,0,1-.7.08,10.76,10.76,0,0,0-2.17.1c-1.87,0-3.74,0-5.61,0-.92,0-2.81.27-3.65-.17-.57-.3-1.08.56-.5.86,1.49.78,4.33.32,5.94.33,2.25,0,4.89.3,7.09-.28a.52.52,0,0,0,.37-.48,9.16,9.16,0,0,0-.76-2.9c-.63-2.19-1.28-4.38-1.94-6.57C87,23.95,85.91,20,84.61,16.09A.51.51,0,0,0,83.7,16c-2.07,3.32-2.89,7.91-4,11.61-.66,2.28-1.3,4.56-1.88,6.86-.2.8-.82,2.21-.57,3.06A.5.5,0,0,0,78.26,37.22Z"/></g></g></svg>