<svg xmlns="http://www.w3.org/2000/svg" viewBox="0 0 98.85 101"><defs><style>.cls-1{fill:#fff;}.cls-1,.cls-2,.cls-3{stroke:#000105;stroke-linecap:round;stroke-linejoin:round;}.cls-2{fill:none;}.cls-3{fill:#000105;}</style></defs><title>Ресурс 4</title><g id="Слой_2" data-name="Слой 2"><g id="Слой_7" data-name="Слой 7"><path class="cls-1" d="M85,14.65S97-.41,98.23.54s-7.72,16.58-7.72,16.58Z"/><path class="cls-1" d="M70.24,15.58c-.14-.23,1.83-10.24,3.62-9.43S77.5,13.1,77.5,13.1l-6,3.29Z"/><path class="cls-1" d="M56.7,45.67s-4-1.37-3.78-3.58,3.59-3.67,7.48-2.72c0,0-6.52-.88-5.7-3.29s3-2.43,7.34-2c0,0-6.73-1.28-6-3.45s4.46-2,7.49-1.46c0,0-6.77-2.12-5.73-4.29s3.58-2.56,7.81-1.41c0,0-7.53-2.58-5.86-5.14S65,16,68.54,17.68s.45,8.7.45,8.7L58.53,46.77Z"/><path class="cls-1" d="M19.47,52.36S14.74,55.31,8.8,64.85-.32,82.47.68,83.17s5.55-6.34,5.55-6.34-3.38,8.29-2,8.85,4.38-4.86,4.38-4.86-1.39,6.29,0,6.81,3.73-3.82,4.12-5.64,2.62-15.1,4.59-17.4S19.47,52.36,19.47,52.36Z"/><path class="cls-1" d="M37,74.84s-2,21.29-4.37,21.49-4.05-23.09-4.05-23.09Z"/><path class="cls-1" d="M51.82,72.93s5.09,24.47,6.74,22,2.17-25.17,2.17-25.17Z"/><path class="cls-1" d="M17.22,56s.52-4.08,7.2-6.51S43.51,46,56.7,45.67c0,0,1.13.61,2.6-3.12s4.6-15.27,6-18.31,3.56-9.29,7.9-10.41A22,22,0,0,1,88.12,15c5.12,2.43,9,3.21,8.33,6.77s-2.6,4.34-2.6,4.34-8.77,1.65-12.15,5.73-8.25,8.77-11.2,27.95S68.62,90.4,68.59,91.12s.2,3.88-.26,4.43-.81.58-1.56-.43S62.14,81.66,60.58,72c0,0-17,7.67-31.79,2.92,0,0-1.94,23.23-2.81,24.53s-1.5,3.24-4.14-6.68S17.35,75,17.22,56Z"/><line class="cls-2" x1="65.15" y1="90.72" x2="68.58" y2="90.59"/><line class="cls-2" x1="22.54" y1="95.24" x2="26.75" y2="95.33"/><line class="cls-2" x1="55.91" y1="89.77" x2="59.62" y2="89.59"/><line class="cls-2" x1="30.73" y1="91.62" x2="34.55" y2="91.75"/><path class="cls-2" d="M89.55,22.15s2.47,1.74,4.25.35"/><circle class="cls-3" cx="80.29" cy="17.92" r="0.89"/><path class="cls-2" d="M88.47,12.48q.7.27,1.43.48"/><path class="cls-2" d="M90.21,10.39l1.47.28"/><path class="cls-2" d="M92,8.3q.71.16,1.43.29"/><path class="cls-2" d="M93.5,6.48a7,7,0,0,0,1.21.1"/><path class="cls-2" d="M95.11,4.45a8.51,8.51,0,0,0,1,0"/><path class="cls-1" d="M72.49,11.75a.72.72,0,0,0,.07.33.55.55,0,0,0,.53.24,1.61,1.61,0,0,0,.57-.2l1.21-.6a.28.28,0,0,0,.11-.08.27.27,0,0,0,0-.18,5.55,5.55,0,0,0-.37-1.33c-.26-.69-.63-2.34-1.32-1A5.85,5.85,0,0,0,72.49,11.75Z"/><path class="cls-2" d="M61.26,19.29l2.52.11"/><path class="cls-2" d="M59.78,25.55l2.09.08"/><path class="cls-2" d="M77.71,20.55l0,0-1.12,1.15"/><path class="cls-2" d="M79.54,21.41a5.28,5.28,0,0,1-1,1.27"/><path class="cls-2" d="M57.83,31.18h3"/><path class="cls-2" d="M56.78,36.2a5.37,5.37,0,0,0,2,.53"/><path class="cls-2" d="M55,42.16l2.17-.37"/><path class="cls-2" d="M13.34,62.51q-2.88,4-5.42,8.17"/><path class="cls-2" d="M14.73,64.36a18.09,18.09,0,0,1-1.93,4.71l-1.92,3.65"/><path class="cls-2" d="M24.29,52.19,20,58.31"/><path class="cls-2" d="M31,51.75,27.6,56.63"/><path class="cls-2" d="M39.14,49.2l-3.2,5.58"/><path class="cls-2" d="M48.56,48.54A40.94,40.94,0,0,1,44,53.94"/><path class="cls-2" d="M56,48.28l-3.92,5.45"/></g></g></svg>