<svg xmlns="http://www.w3.org/2000/svg" viewBox="0 0 238.76 80.55"><defs><style>.cls-1{fill:none;}.cls-1,.cls-4{stroke:#000105;stroke-miterlimit:10;}.cls-2,.cls-4{fill:#fff;}.cls-3{fill:#000105;}</style></defs><title>whereami_ua</title><g id="Слой_2" data-name="Слой 2"><g id="Слой_12" data-name="Слой 12"><path class="cls-1" d="M154.77,18.93c2-1.9,5.13-2,7.92-2,1.42,0,3,.08,3.94,1.17a4.44,4.44,0,0,1,.79,1.79,23.79,23.79,0,0,1,.64,8" transform="translate(0 0)"/><path class="cls-1" d="M159.79,44.32c1.28-.28,7.64-.47,8.36.62s-.29,22,1.68,23.18c1,.63,14.62.48,15,.3A26.57,26.57,0,0,0,189,61.27" transform="translate(0 0)"/><path class="cls-1" d="M142.3,11.3c-9.4,16.29,1.67,23.94,1.85,25,.43,2.4-13.91,27.6-12.25,29.35,1.17,1.24,16,2.72,16.34,2.42a22.41,22.41,0,0,0,5.13-6.21" transform="translate(0 0)"/><path class="cls-1" d="M138.57,26.24q1.16-1.91,2.41-3.76" transform="translate(0 0)"/><path class="cls-1" d="M140.82,31.66q1.35-1.9,2.73-3.78s.08-.1.14-.09.07.12,0,.11" transform="translate(0 0)"/><path class="cls-1" d="M143.61,35.85a28.28,28.28,0,0,1,2.71-3.75" transform="translate(0 0)"/><path class="cls-1" d="M142.43,41.1A59.17,59.17,0,0,1,150,37.47a.35.35,0,0,1-.33.21" transform="translate(0 0)"/><path class="cls-1" d="M139.41,47.44c1.73-1.08,3.11-2,4.84-3.09A16.26,16.26,0,0,1,147,42.94" transform="translate(0 0)"/><path class="cls-1" d="M136.59,53.43c1.05-.55,1.65-1,2.7-1.52a12.06,12.06,0,0,1,4.31-1.59" transform="translate(0 0)"/><path class="cls-1" d="M133.5,60a23.58,23.58,0,0,1,6.78-2.87" transform="translate(0 0)"/><path class="cls-1" d="M133.34,66.13a43.48,43.48,0,0,1,6.48-4.54l-.21.18" transform="translate(0 0)"/><path class="cls-1" d="M139.26,67.07c0-.27.54-.72.75-.9l5.46-4.79" transform="translate(0 0)"/><path class="cls-1" d="M145.49,67.84a2.69,2.69,0,0,1,.77-.93c1.74-1.54,3.86-3.26,5.6-4.79" transform="translate(0 0)"/><path class="cls-1" d="M160.77,44.1a49.41,49.41,0,0,0,6.81-5.79,1.17,1.17,0,0,1,.87-.47" transform="translate(0 0)"/><path class="cls-1" d="M168,44.75c2.06-1.87,4.77-4.44,6.83-6.3" transform="translate(0 0)"/><path class="cls-1" d="M168.29,51.7a47.32,47.32,0,0,1,6.55-6" transform="translate(0 0)"/><path class="cls-1" d="M168.55,57.73a42.08,42.08,0,0,1,6.3-5.72" transform="translate(0 0)"/><path class="cls-1" d="M168.77,64l6-5.75" transform="translate(0 0)"/><path class="cls-1" d="M171.09,68.57l6.75-6.73" transform="translate(0 0)"/><path class="cls-1" d="M179,68.38a67.81,67.81,0,0,0,5.26-7.3l-.37.18" transform="translate(0 0)"/><path class="cls-1" d="M157.59,17.68a1.81,1.81,0,0,1,.73-1.21q1.87-1.75,3.83-3.42" transform="translate(0 0)"/><path class="cls-1" d="M164.42,16.84a23.77,23.77,0,0,1,4.78-4.21" transform="translate(0 0)"/><path class="cls-1" d="M167.75,20.24q3.6-3.17,7.45-6" transform="translate(0 0)"/><path class="cls-1" d="M168,25q3.25-2.6,6.64-5" transform="translate(0 0)"/><path class="cls-1" d="M170.82,28a35,35,0,0,1,4.29-3.31.23.23,0,0,0-.25-.06" transform="translate(0 0)"/><path class="cls-1" d="M206.42,3.6C199,6.19,193,12.53,192.7,20.41c-.05,1.23,0,3.63.76,4.56.62.73,9.24,1.35,10.59,1.12.73-.12,3-1.87,4-3.92" transform="translate(0 0)"/><path class="cls-1" d="M209.91,15.85c2.08-.87,4.95-1.49,7.05-.69a5.19,5.19,0,0,1,2.83,3.31,6.59,6.59,0,0,1-.11,2.71,28.21,28.21,0,0,1-2.34,8" transform="translate(0 0)"/><path class="cls-1" d="M214.6,30.15a35.3,35.3,0,0,0-5.16,4.06,11.86,11.86,0,0,0-2,2.73c-1.07,2.15-.83,9.3-.1,10.09.59.64,9.53,1.43,10,1.28a8.92,8.92,0,0,0,5-4.18" transform="translate(0 0)"/><path class="cls-1" d="M211.14,48.76c-1.08,1-4.5,3.78-4.83,4.51s-.07,12.32,1,13c.6.38,12.83.17,13.75-.5a21.62,21.62,0,0,0,4-4.47" transform="translate(0 0)"/><path class="cls-1" d="M227.74,60.88" transform="translate(0 0)"/><path class="cls-1" d="M195.47,11.92a23.38,23.38,0,0,1,5-2.66l-.29.13" transform="translate(0 0)"/><path class="cls-1" d="M192.89,18.2a5.4,5.4,0,0,1,1.22-1.36,32.78,32.78,0,0,1,4.55-3.31" transform="translate(0 0)"/><path class="cls-1" d="M193.09,24.3q2-2.14,4.23-4.11" transform="translate(0 0)"/><path class="cls-1" d="M198.44,26a1.29,1.29,0,0,1,.55-.83q2-1.74,4.08-3.35" transform="translate(0 0)"/><path class="cls-1" d="M213.87,14.91a26.35,26.35,0,0,1,4.82-3.31" transform="translate(0 0)"/><path class="cls-1" d="M219.37,16.73,223.47,14s.07-.06.06-.1-.09,0-.06,0" transform="translate(0 0)"/><path class="cls-1" d="M219.47,22.52c1.61-1.15,3.66-2.45,5.38-3.43l-.34,0" transform="translate(0 0)"/><path class="cls-1" d="M206.82,38.61a21.57,21.57,0,0,1,5.14-3.2l-.37.22" transform="translate(0 0)"/><path class="cls-1" d="M206.79,43.91a39.3,39.3,0,0,1,4.62-4" transform="translate(0 0)"/><path class="cls-1" d="M208.42,47.41l3.89-3.31" transform="translate(0 0)"/><path class="cls-1" d="M214,48.14c1.27-1.29,3.21-3.13,4.56-4.34" transform="translate(0 0)"/><path class="cls-1" d="M206.18,57.32c1.69-1.57,3.8-3.4,5.59-4.84" transform="translate(0 0)"/><path class="cls-1" d="M206.64,64a58.56,58.56,0,0,1,4.23-4.68" transform="translate(0 0)"/><path class="cls-1" d="M210.24,66.29a42.23,42.23,0,0,1,4.25-4.67" transform="translate(0 0)"/><path class="cls-1" d="M216.57,66.45a35.47,35.47,0,0,1,3.95-4.72" transform="translate(0 0)"/><path class="cls-2" d="M203.45,5.79c-4.09,3.09-7.54,14.75-7.09,14.88,1.41.41,11.26,1.86,12,1.47.28-.16-.31-8.62,6.5-10.5,10.28-2.83,11.44,8.19,7.28,12.94-1.35,1.55-6.69,3.45-9.44,8.06-2.31,3.87-1.59,9.77-1.14,11.77,0,0,8.82-.08,10.81,0a.42.42,0,0,0,.44-.37c.26-3-1-4,.74-5.6,6.11-5.73,15.53-10.7,14.72-21.32C236.93,0,213.38-4.13,203.45,5.79" transform="translate(0 0)"/><path class="cls-3" d="M203.1,5.44c-2.37,1.93-3.78,5-4.94,7.71-.62,1.45-1.17,2.94-1.64,4.45-.23.74-.85,2-.69,2.83.28,1.38,3.1,1.23,4.23,1.41,1.47.22,2.94.43,4.41.6,1,.11,2.61.55,3.6.25,1.28-.39.89-2,1.1-3.17.7-4,2.93-7,7.08-7.69,4-.66,7.17,1.41,7.57,5.5a8.52,8.52,0,0,1-3.24,7.83c-3.35,2.31-7,4.25-8.8,8.13-1.57,3.42-1.48,7.63-.73,11.25a.51.51,0,0,0,.48.37c2.34.2,4.78,0,7.12,0,2.15,0,4.73.91,4.66-1.93-.06-2.25-.49-3.23,1.43-4.95,1.46-1.3,3-2.51,4.48-3.76a32.56,32.56,0,0,0,7.29-7.8A16.72,16.72,0,0,0,235.38,8C232,3.52,226.55,1,221,.23c-6.36-.85-13.24.65-17.94,5.21-.46.45.24,1.16.71.71C212.52-2.3,230-.24,235.88,10.66c4,7.38,1.2,15-4.53,20.39-2.55,2.41-5.47,4.4-8,6.85a3.53,3.53,0,0,0-1.3,2.64c0,.7.23,1.39.22,2.08,0,1.19-.07,1.13-1,1.28-2.65.41-5.71,0-8.4,0a3.68,3.68,0,0,1-1.1,0s.08.09.09-.57c0-1.83-.37-3.61-.19-5.47.47-4.94,3.5-8.08,7.5-10.64,2-1.29,3.7-2.29,4.74-4.55,1.67-3.66,1.38-9.13-2.56-11.23-4.73-2.53-10.71.59-12.46,5.29a15.51,15.51,0,0,0-.8,3.37,8.36,8.36,0,0,1-.15,1.43c-.16.47.45.15-.33.16a53.3,53.3,0,0,1-9.18-1.13,5.24,5.24,0,0,1-1.65-.31c.17.14,0,0,.2-.57.48-1.27.76-2.64,1.23-3.92,1.22-3.34,2.77-7.3,5.61-9.61.5-.41-.21-1.11-.71-.71Z" transform="translate(0 0)"/><path class="cls-2" d="M211.14,48.48c0,5.88-.61,12.46,0,13.16.28.32,14,.08,13.89-.34-.14-.59.42-13.13-.54-12.94-1.54.31-11.57-.39-13.35.13" transform="translate(0 0)"/><path class="cls-3" d="M210.64,48.48c0,3.79-.38,7.59-.26,11.38,0,1.09-.06,2,1,2.34,1.53.49,3.78.09,5.36.07,2.18,0,4.36-.07,6.54-.22.69,0,1.84.07,2.22-.62s0-3.25,0-4.18c0-2.28.09-4.57-.07-6.85-.06-.82,0-2.14-.85-2.53a8.43,8.43,0,0,0-2.28.06c-1.38,0-2.77-.06-4.15-.09-2.31-.06-4.91-.38-7.18.16-.63.15-.36,1.11.27,1,2.17-.51,4.71-.17,6.92-.12,1.23,0,2.47.07,3.7.08a10.51,10.51,0,0,1,2.56-.07c-.2-.17,0,1.61,0,1.93.06,1.08.07,2.16.07,3.24a63.62,63.62,0,0,0-.06,6.47,2.73,2.73,0,0,1,0,.73c-.09.37.5-.34.05-.3-.87.09-1.74.15-2.61.2-2.21.11-4.42.15-6.62.16a12.91,12.91,0,0,1-3.07,0c-1-.26-.82.17-.89-1.14-.2-3.86.24-7.77.26-11.63a.5.5,0,0,0-1,0Z" transform="translate(0 0)"/><path class="cls-4" d="M188.33,1.88c-.3-.24-28.14.12-30.4.37A26.2,26.2,0,0,0,149,4.56,16.06,16.06,0,0,0,140.46,19c0,6,3.09,12.53,8.44,15.19.86.43,2.08.38,2,1.33a2.24,2.24,0,0,1-.33.85A219.8,219.8,0,0,0,138.82,61a.64.64,0,0,0,.7.86c4.79-.75,13.39.54,13.68.36s5.2-15.84,8.85-22.74a1.82,1.82,0,0,1,.51-.68,1.84,1.84,0,0,1,1-.24l11.28-.72c-.1,4.87,0,24,.18,24.21s9.88-.1,13.74-.1C189.5,60.32,188.68,2.15,188.33,1.88ZM174.91,28a128.37,128.37,0,0,1-15-.62c-1-.13-3.83-1.73-4.48-3.85a9.6,9.6,0,0,1-.66-3.69,8.4,8.4,0,0,1,2.5-5.33c1.77-1.88,15.24-2.16,17-2C175.43,12.66,174.79,24.23,174.91,28Z" transform="translate(0 0)"/><path class="cls-1" d="M69.26,3.73c-1.67,1.73-5.72,5.94-5.92,6.41s-1,57.05-.83,57.4,43.84.8,44.42.51a12,12,0,0,0,5-5.29" transform="translate(0 0)"/><path class="cls-1" d="M111.64,14.34a36,36,0,0,1-5.91,5.75c-.84.45-16.89-1-23.83-.3" transform="translate(0 0)"/><path class="cls-1" d="M105.74,37.62c-2.07,2.18-6.7,7.06-7,7.19s-10.52.15-16.33-.1c.15,0-.39.87-.24.9" transform="translate(0 0)"/><path class="cls-1" d="M68.72,8.75Q65.92,12,63.24,15.39" transform="translate(0 0)"/><path class="cls-1" d="M68.56,15.47A64,64,0,0,0,63.07,22" transform="translate(0 0)"/><path class="cls-1" d="M68.58,22.44,62.9,29.26" transform="translate(0 0)"/><path class="cls-1" d="M68.74,29.08l-5.87,6.66" transform="translate(0 0)"/><path class="cls-1" d="M68.65,35.57a55.13,55.13,0,0,0-6.06,6.89" transform="translate(0 0)"/><path class="cls-1" d="M68.53,43.13l-3.65,3.73a15.14,15.14,0,0,0-2.19,2.6" transform="translate(0 0)"/><path class="cls-1" d="M68.63,49.1a84.63,84.63,0,0,0-6,6" transform="translate(0 0)"/><path class="cls-1" d="M68.49,54.72l-1.37,1.14a32,32,0,0,0-4.61,4.38" transform="translate(0 0)"/><path class="cls-1" d="M68.59,60.8a4.54,4.54,0,0,1-.87.89c-1.95,1.66-3.29,2.85-5.24,4.51" transform="translate(0 0)"/><path class="cls-1" d="M73.39,62.73a39.6,39.6,0,0,0-4.51,4.95" transform="translate(0 0)"/><path class="cls-1" d="M81.56,62.45a63.8,63.8,0,0,0-5.41,5.43" transform="translate(0 0)"/><path class="cls-1" d="M87,62.75A58.62,58.62,0,0,0,82,67.89" transform="translate(0 0)"/><path class="cls-1" d="M107.9,62.55A42.75,42.75,0,0,0,103.57,68" transform="translate(0 0)"/><path class="cls-1" d="M102,62.91c-1.68,1.28-2.91,3.53-4.3,5.12" transform="translate(0 0)"/><path class="cls-1" d="M95.75,62.91a19.61,19.61,0,0,0-3.46,5.16" transform="translate(0 0)"/><path class="cls-1" d="M90.21,62.81A27.3,27.3,0,0,0,86.75,68" transform="translate(0 0)"/><path class="cls-1" d="M87.3,37.84q-2,3.2-3.67,6.57" transform="translate(0 0)"/><path class="cls-1" d="M87.29,44.64q2.24-3.43,4.26-7" transform="translate(0 0)"/><path class="cls-1" d="M93.37,44.73c-.1-.05,0-.2,0-.3l4.32-6.53" transform="translate(0 0)"/><path class="cls-1" d="M102,20.22l4.2-6-.39.12" transform="translate(0 0)"/><path class="cls-1" d="M97.64,19.73a15.15,15.15,0,0,0,1.25-1.37A40.73,40.73,0,0,1,102.26,14" transform="translate(0 0)"/><path class="cls-1" d="M93,19.8l4.55-6.08" transform="translate(0 0)"/><path class="cls-1" d="M89.08,19.45l3.3-5.63" transform="translate(0 0)"/><path class="cls-1" d="M83.78,19.36l1.74-3,1.33-2.27.23-.37" transform="translate(0 0)"/><path class="cls-4" d="M68.7,62.24c-.07.52,43.05.74,43.26.52s.24-11.49,0-11.75-28,.25-28.63-.08c-1-.53-.48-12.74-.07-13.17s22.1.43,22.42,0,.8-10.86.08-11.17-21.85.3-22.26,0-.48-12-.08-12.39,19,0,28.25.17c-.06-3.23.54-11.14.17-11.65,0,0-42.19-.23-42.75.9C67.88,6,68.85,61.1,68.7,62.24Z" transform="translate(0 0)"/><path class="cls-4" d="M64.17,72c-.55-6.81.23-14.07-.32-20.89,0-.28-3.63,0-5.24,0a.61.61,0,0,1-.63-.41c-2.67-12.06-10.72-43.21-12.22-48a.82.82,0,0,0-.84-.52c-5.07.25-20.51-.47-20.74.18-1.06,3.06-2.43,8.4-3.06,11.25-.91,4.07-6.69,28.83-9,37.7-1.78-.16-3.74-.27-5.6-.31a.64.64,0,0,0-.64.75C7,58.7,5.74,65.64,5.84,74a.83.83,0,0,0,1,.81l7.7.14a.56.56,0,0,0,.58-.61c-.26-3,1.4-9,1.4-12,0-1.07,36.28-.15,36.56,0s1.2,7.81,1.71,12.17a.58.58,0,0,0,.63.51c2.33-.23,8.35.47,8.66,0A8.43,8.43,0,0,0,64.17,72ZM42.1,51c-6.21-.6-11.54.14-17.89.14,2.24-10.57,6.68-37.09,8.29-37.43.52-.11,2.39-.38,2.54.29.59,2.53,6.65,33.7,7.71,36A.66.66,0,0,1,42.1,51Z" transform="translate(0 0)"/><path class="cls-1" d="M24.59,2.12A45.83,45.83,0,0,0,18.43,6c-.3.31-8.82,29.63-10.92,45" transform="translate(0 0)"/><path class="cls-1" d="M14.89,74.76a34.57,34.57,0,0,1-3.46,4c-.26.13-10.75-.23-10.91-.44S1.3,56.65,1.57,56.08c.72-1.52,3-3.68,4.26-4.68" transform="translate(0 0)"/><path class="cls-1" d="M15.66,67.08c2.88-1.38,29.92-.46,31.15.59,1.62,1.38,1.75,9.71,1.88,11.53,0,.54,12,1.24,12.75.56,1.35-3,1.33-2,2.68-5" transform="translate(0 0)"/><path class="cls-1" d="M29.77,21.93a146.78,146.78,0,0,1,6.7,29.16" transform="translate(0 0)"/><path class="cls-1" d="M16.85,11.24a43.27,43.27,0,0,1,4.53-2.84,2.13,2.13,0,0,1,.87-.31l-.12.18" transform="translate(0 0)"/><path class="cls-1" d="M15.46,16.61A17.4,17.4,0,0,1,19,14.17l1.75-1s.09,0,.13,0,0,.09,0,0" transform="translate(0 0)"/><path class="cls-1" d="M13.75,22.41a18.31,18.31,0,0,0,2-1.45,13.91,13.91,0,0,1,3.86-2" transform="translate(0 0)"/><path class="cls-1" d="M12.46,27.2,17.62,24a1.25,1.25,0,0,1,1.06-.27" transform="translate(0 0)"/><path class="cls-1" d="M11.28,32.67a22.33,22.33,0,0,1,6.11-3.1.18.18,0,0,0,.11-.08s0-.11-.07-.09" transform="translate(0 0)"/><path class="cls-1" d="M9.79,38.8q2.07-1.29,4.23-2.45a5,5,0,0,1,1.91-.7l-.31,0" transform="translate(0 0)"/><path class="cls-1" d="M8.91,43.84l4.82-3.1.85-.54" transform="translate(0 0)"/><path class="cls-1" d="M7.65,49.63l5.8-3.7" transform="translate(0 0)"/><path class="cls-1" d="M30.38,20.17a51.31,51.31,0,0,1,5-4.13" transform="translate(0 0)"/><path class="cls-1" d="M31.35,26.87A62.07,62.07,0,0,1,36.48,22l-.23.12" transform="translate(0 0)"/><path class="cls-1" d="M33,32.5l5-5.09" transform="translate(0 0)"/><path class="cls-1" d="M34.44,39a15.18,15.18,0,0,1,1.2-1.48l3.73-3.88" transform="translate(0 0)"/><path class="cls-1" d="M35.3,43.84l5-4.77" transform="translate(0 0)"/><path class="cls-1" d="M36.32,49.93a31.81,31.81,0,0,1,5.21-5.23l-.48.38" transform="translate(0 0)"/><path class="cls-1" d="M1.22,60.75a15.17,15.17,0,0,1,5-4.13" transform="translate(0 0)"/><path class="cls-1" d="M1,66a13.92,13.92,0,0,1,3.28-3.13,7.45,7.45,0,0,1,1.9-1l-.25.1" transform="translate(0 0)"/><path class="cls-1" d="M.57,71A19.6,19.6,0,0,1,6,66.66" transform="translate(0 0)"/><path class="cls-1" d="M.5,75.85A12.1,12.1,0,0,1,5,72.19,1.21,1.21,0,0,1,5.69,72" transform="translate(0 0)"/><path class="cls-1" d="M4,78.6a22.1,22.1,0,0,0,4-3.89" transform="translate(0 0)"/><path class="cls-1" d="M9.28,78.93a19.8,19.8,0,0,0,3.55-4" transform="translate(0 0)"/><path class="cls-1" d="M16.36,67c0-.12.06-.23.14-.32l3.22-3.49c.52-.57.67-.75,1.22-1.3" transform="translate(0 0)"/><path class="cls-1" d="M22.9,66.39a13,13,0,0,1,1.75-2.17c.77-.92,1-1.51,1.74-2.43" transform="translate(0 0)"/><path class="cls-1" d="M28.23,66.38a36.89,36.89,0,0,0,4-4.53" transform="translate(0 0)"/><path class="cls-1" d="M32.79,66.5a41.31,41.31,0,0,0,4.14-4.63" transform="translate(0 0)"/><path class="cls-1" d="M37.69,66.59A39.14,39.14,0,0,0,42,61.83" transform="translate(0 0)"/><path class="cls-1" d="M43.18,67.06c1.13-1.8,3.17-3.06,4.09-5" transform="translate(0 0)"/><path class="cls-1" d="M46.91,68.18a34.82,34.82,0,0,0,5.53-5.72" transform="translate(0 0)"/><path class="cls-1" d="M48.25,74q3.14-2.32,6-4.94" transform="translate(0 0)"/><path class="cls-1" d="M48.68,79.21a49.69,49.69,0,0,0,5.8-5.57" transform="translate(0 0)"/><path class="cls-1" d="M53.58,79.88A24.69,24.69,0,0,0,58.11,75" transform="translate(0 0)"/><path class="cls-1" d="M58.77,79.88a12.65,12.65,0,0,1,1.91-2.41,6.5,6.5,0,0,0,1.6-2.59" transform="translate(0 0)"/></g></g></svg>