<svg xmlns="http://www.w3.org/2000/svg" viewBox="0 0 549.95 68.42"><defs><style>.cls-1{fill:#000105;}.cls-2{fill:none;}.cls-2,.cls-4{stroke:#000105;stroke-miterlimit:10;}.cls-3,.cls-4{fill:#fff;}</style></defs><title>whereami</title><g id="Слой_2" data-name="Слой 2"><g id="Слой_10" data-name="Слой 10"><path class="cls-1" d="M4.75,2.26C2.72,3.93-.17,7.14.07,10a36.25,36.25,0,0,0,1.1,5.21c1.57,6.62,3.33,13.19,5.1,19.76,2,7.28,4,14.54,6.07,21.78.69,2.37,1.38,4.74,2.13,7.09.26.8.49,2.32,1.21,2.88.91.7,3,.46,4,.48,2.32.06,4.66,0,7-.12a16.69,16.69,0,0,0,4.36-.56c1.89-.68,2.82-2.9,3.64-4.55.29-.57-.58-1.08-.86-.5-.93,1.88-1.73,3.85-3.93,4.27a29.81,29.81,0,0,1-4.17.39q-2.74.13-5.49.08c-.9,0-3.34.27-4-.34s-.9-2.6-1.14-3.38c-.7-2.25-1.36-4.52-2-6.79C9.43,43.07,5.94,30.4,2.8,17.66c-.55-2.21-1.1-4.43-1.54-6.67-.61-3.15,1.8-6,4.2-8,.5-.41-.21-1.11-.71-.71Z" transform="translate(-0.05 0)"/><path class="cls-1" d="M38.44,1.56c-2.29.14-4.62.51-6,2.51s-1.86,4.72-2.48,7c-1.77,6.54-3.22,13.18-4.56,19.81-.13.63.84.9,1,.27q1.7-8.4,3.76-16.73c.62-2.46,1.25-4.94,2.06-7.35C33.24,3.83,35,2.76,38.44,2.56c.64,0,.64-1,0-1Z" transform="translate(-0.05 0)"/><path class="cls-1" d="M70.69,3.51a.5.5,0,0,0,0-1,.5.5,0,0,0,0,1Z" transform="translate(-0.05 0)"/><path class="cls-1" d="M70.69,3.51a.5.5,0,0,0,0-1,.5.5,0,0,0,0,1Z" transform="translate(-0.05 0)"/><path class="cls-1" d="M71.31,1.54c-2.43,1.23-5.15,2.53-6.22,5.15a85.5,85.5,0,0,0-2.81,8.86A143.35,143.35,0,0,0,58,32.79l.73-.3-.16-.08c-.58-.28-1.08.58-.5.86l.16.08c.26.13.68,0,.73-.3a136.07,136.07,0,0,1,3.83-15.71c.83-3,1.66-5.94,2.67-8.85a10,10,0,0,1,1.07-2.61c1.11-1.51,3.61-2.65,5.25-3.48.57-.29.07-1.15-.5-.86Z" transform="translate(-0.05 0)"/><path class="cls-1" d="M66.6,61.93c-2.22,3.1-4.69,5.4-8.61,5.4a29.65,29.65,0,0,1-7.72-.62c-3-.82-3.56-5.53-4.27-8.11-1.26-4.56-2.27-9.19-3.17-13.82a64.81,64.81,0,0,1-1.56-9.88c0-.64-1-.64-1,0,.14,3.9,1.14,7.89,1.91,11.7a134.73,134.73,0,0,0,3.9,15.75,13.19,13.19,0,0,0,1.81,4.17c1,1.24,2.8,1.34,4.3,1.52a32.38,32.38,0,0,0,8,.23c3.14-.44,5.58-3.41,7.31-5.83.37-.52-.49-1-.86-.5Z" transform="translate(-0.05 0)"/><path class="cls-1" d="M88.5,1.7C85.75,4.84,82.59,7.59,82.26,12c-.14,1.9,0,3.84,0,5.75.08,6.63.26,13.27.46,19.9.21,7,.45,14,.85,21,.12,2,.21,4.07.46,6.09.13,1,.1,1.51,1,1.9,1.31.54,3.32.47,4.72.62a43,43,0,0,0,6.66.3c3.67-.2,5.35-2.36,7-5.56.29-.57-.57-1.08-.86-.5a14.06,14.06,0,0,1-2.92,4.17c-1.25,1.06-3.22.93-4.78.92s-3.4-.15-5.09-.32a18.27,18.27,0,0,1-4.32-.56c-.41-.15-.19.28-.37-.52a14.56,14.56,0,0,1-.21-2c-.19-2.18-.31-4.36-.42-6.54-.64-12.33-1-24.69-1.18-37,0-2.09-.09-4.19-.05-6.29.09-4.86,3-7.54,6-11,.42-.48-.28-1.19-.71-.71Z" transform="translate(-0.05 0)"/><path class="cls-1" d="M122.3,1.62c-2,.74-5,2.05-6.22,3.82-.83,1.16-.76,3.15-.85,4.5-.36,5.34-.18,10.7-.17,16a.5.5,0,0,0,1,0c0-4.46-.11-8.92,0-13.38.06-1.79-.14-4.17.52-5.87.76-2,4.07-3.44,6-4.15.6-.22.34-1.19-.27-1Z" transform="translate(-0.05 0)"/><path class="cls-1" d="M102,41.9c.63,1.54,6.44.47,7.68.44s4.68-.56,5.15.8c.37,1.06-.12,3-.15,4.13q0,2.42,0,4.85c0,2.84.1,5.68.28,8.51.1,1.6,0,3.73.6,5.26.4,1,.93,1.11,2,1.26a41,41,0,0,0,6.9.16,37.58,37.58,0,0,0,6.1-.32c2.47-.51,3.84-2.83,5-4.85a.5.5,0,0,0-.86-.5c-.93,1.61-2,3.62-3.88,4.27a10.17,10.17,0,0,1-3,.23c-2.55.07-5.06.27-7.62.19-.82,0-3.08.21-3.64-.5-.39-.5-.34-1.81-.4-2.4-.33-3.05-.42-6.14-.48-9.21-.07-3.39-.06-6.78.09-10.17.08-1.62.21-2.21-1.44-2.56a25.8,25.8,0,0,0-6.11-.09c-1.12,0-2.23.1-3.35.12h-1.35c-.39,0-.73-.26-.57.14-.24-.59-1.21-.33-1,.27Z" transform="translate(-0.05 0)"/><path class="cls-2" d="M5.91,5.79C4.33,9.08,3,12,1.65,15.35" transform="translate(-0.05 0)"/><path class="cls-2" d="M8,13.39a111.5,111.5,0,0,0-4,10.69" transform="translate(-0.05 0)"/><path class="cls-2" d="M10.26,23.43a75.88,75.88,0,0,0-4.33,8.8" transform="translate(-0.05 0)"/><path class="cls-2" d="M12.41,32Q10,35.91,8.06,40" transform="translate(-0.05 0)"/><path class="cls-2" d="M15.24,42.21c-1.35,2.84-2.86,6.27-4,9.18" transform="translate(-0.05 0)"/><path class="cls-2" d="M17.08,50.21q-1.91,4.26-3.62,8.6l.06-.3" transform="translate(-0.05 0)"/><path class="cls-2" d="M19.41,58.71q-1.83,3.44-3.77,6.82" transform="translate(-0.05 0)"/><path class="cls-2" d="M22.69,62.64A35.19,35.19,0,0,0,20,66.91l.06-.19" transform="translate(-0.05 0)"/><path class="cls-2" d="M27.09,62.41a31.3,31.3,0,0,0-2.5,4.24l0-.12" transform="translate(-0.05 0)"/><path class="cls-2" d="M31.13,62.38a32.38,32.38,0,0,0-2.3,3.75" transform="translate(-0.05 0)"/><path class="cls-2" d="M38.42,2.74Q35,4.86,31.55,7.11" transform="translate(-0.05 0)"/><path class="cls-2" d="M36.67,8.08c-2.53,1.6-4.36,3.12-6.73,4.94" transform="translate(-0.05 0)"/><path class="cls-2" d="M35.13,15.42c-2.35,1.22-4.44,2.39-6.78,3.61" transform="translate(-0.05 0)"/><path class="cls-2" d="M33.5,21.16a62.42,62.42,0,0,1-6.25,3.27" transform="translate(-0.05 0)"/><path class="cls-2" d="M32.09,28c-1.61,1.7-3.9,2.57-5.79,4l.26-.17" transform="translate(-0.05 0)"/><path class="cls-2" d="M30.6,34.24l-.93.69-3.19,2.36.09-.05" transform="translate(-0.05 0)"/><path class="cls-2" d="M45.4,29.57c-1.51,1.82-3.26,3.89-4.58,5.85" transform="translate(-0.05 0)"/><path class="cls-2" d="M46.88,35.35a1.3,1.3,0,0,1-.36.59l-4.84,5.39" transform="translate(-0.05 0)"/><path class="cls-2" d="M48.68,42.59a62.47,62.47,0,0,0-5.57,6.1" transform="translate(-0.05 0)"/><path class="cls-2" d="M50.09,49.34c-1.84,2.26-3.43,4.25-5.35,6.44" transform="translate(-0.05 0)"/><path class="cls-2" d="M52.06,56l-3.22,3.77a18.63,18.63,0,0,0-2.2,2.95" transform="translate(-0.05 0)"/><path class="cls-2" d="M53.15,61.32Q50.75,64,48.39,66.73" transform="translate(-0.05 0)"/><path class="cls-2" d="M59.67,62.25a25.77,25.77,0,0,0-4.27,5.52" transform="translate(-0.05 0)"/><path class="cls-2" d="M64.45,62.46c-1.39,1.64-2.65,3.39-3.91,5.14" transform="translate(-0.05 0)"/><path class="cls-2" d="M70.33,4.22a43.73,43.73,0,0,0-5.59,4.91" transform="translate(-0.05 0)"/><path class="cls-2" d="M68.71,10c-1.77,1.47-3.95,3.17-5.65,4.73" transform="translate(-0.05 0)"/><path class="cls-2" d="M67,16.61a66.18,66.18,0,0,0-5.9,5" transform="translate(-0.05 0)"/><path class="cls-2" d="M65.77,22.85c-2.2,1.52-3.92,2.74-6.06,4.34" transform="translate(-0.05 0)"/><path class="cls-2" d="M64.59,28.49Q61.72,30,58.94,31.77" transform="translate(-0.05 0)"/><path class="cls-2" d="M63.65,33.72l-3.54,2.61a.22.22,0,0,0,.23-.07" transform="translate(-0.05 0)"/><path class="cls-2" d="M88.67,7.25q-3.09,3.21-6,6.62" transform="translate(-0.05 0)"/><path class="cls-2" d="M88.89,13.72c-2.15,2.07-4,4-6.11,6.16" transform="translate(-0.05 0)"/><path class="cls-2" d="M89.18,20.84a84.31,84.31,0,0,0-6.08,6.22" transform="translate(-0.05 0)"/><path class="cls-2" d="M89,27.05q-3,3.12-5.88,6.43l.34-.39" transform="translate(-0.05 0)"/><path class="cls-2" d="M89,34.13a70.79,70.79,0,0,1-5.65,6.27" transform="translate(-0.05 0)"/><path class="cls-2" d="M88.9,39.89,83.52,46.3" transform="translate(-0.05 0)"/><path class="cls-2" d="M89,48.26a65.78,65.78,0,0,1-5.3,6.43" transform="translate(-0.05 0)"/><path class="cls-2" d="M88.88,56.37c-1.49,1.69-3.45,4-4.84,5.79" transform="translate(-0.05 0)"/><path class="cls-2" d="M89.71,60.76l-4.15,5.71" transform="translate(-0.05 0)"/><path class="cls-2" d="M94.57,62.29a38.46,38.46,0,0,0-3.87,4.64" transform="translate(-0.05 0)"/><path class="cls-2" d="M99.67,62.16a25.93,25.93,0,0,0-3.22,4.77" transform="translate(-0.05 0)"/><path class="cls-2" d="M121.39,6.74c-2.07,1.72-3.82,3.26-5.76,5.13" transform="translate(-0.05 0)"/><path class="cls-2" d="M121.71,11.81c-2,1.48-4.3,3.39-6.13,5.06" transform="translate(-0.05 0)"/><path class="cls-2" d="M121.93,18.2c-2,1.52-4.3,3.21-6.3,4.77" transform="translate(-0.05 0)"/><path class="cls-2" d="M121.93,22.79c-1,1.06-2.36,2.28-3.4,3.34,0,0-.06,0-.09,0s0-.07,0,0" transform="translate(-0.05 0)"/><path class="cls-2" d="M107.89,36.89a52,52,0,0,0-5.32,4.89.37.37,0,0,0,.18-.18" transform="translate(-0.05 0)"/><path class="cls-2" d="M113.74,37a9.63,9.63,0,0,0-1.87,1.16l-3.27,3a.34.34,0,0,0,.23-.27" transform="translate(-0.05 0)"/><path class="cls-2" d="M118.34,37.19a41.16,41.16,0,0,0-4.61,4.52" transform="translate(-0.05 0)"/><path class="cls-2" d="M121.51,39.36Q118.31,42,115.37,45" transform="translate(-0.05 0)"/><path class="cls-2" d="M121.43,45c-2.25,2-4.12,3.66-6.28,5.72" transform="translate(-0.05 0)"/><path class="cls-2" d="M121.31,51.91l-6.16,5.34" transform="translate(-0.05 0)"/><path class="cls-2" d="M121.39,57.8q-2.93,2.76-5.62,5.76" transform="translate(-0.05 0)"/><path class="cls-2" d="M123.57,62.42l-3.13,3.25a1.78,1.78,0,0,0-.55.86" transform="translate(-0.05 0)"/><path class="cls-2" d="M128.47,62.68c-.83,1.28-2,2.95-3,4.15" transform="translate(-0.05 0)"/><path class="cls-3" d="M19.34,2.54c1,4.2,9.25,40,9.25,40S38.06,2,38.44,2.06c6.51.21,12.81-.56,12.94,0,.71,3.19,10.49,40.59,10.49,40.59S69.12,5.19,71,2.06c.5-.83,11.25-.33,11.25.35,0,1.13-12.28,54.07-14.94,59.44-.67,1.36-5.41,0-13.87.13-.31,0-9.81-39.62-9.81-39.62s-8.69,38.48-9.44,39.56c-.26.38-13.44,1-13.75.19C17.43,54.33,5.37,2.86,5.37,2.67c0-.44,12.73-.51,14-.13" transform="translate(-0.05 0)"/><path class="cls-1" d="M18.86,2.67C22,16,25,29.35,28.11,42.7a.5.5,0,0,0,1,0C31.9,30.59,34.7,18.46,37.75,6.4c.25-1,.5-2,.78-3,.47-1.68.88-.81,2.8-.82,2.81,0,5.62-.27,8.42-.25,1.47,0,1.15-.07,1.51,1.38,1.74,7,3.58,14,5.4,21q2.35,9,4.72,18.09a.5.5,0,0,0,1,0c2.15-11.11,4.34-22.23,7-33.23.49-2,.78-4.56,1.75-6.42.53-1,.92-.92,2.19-1a44.49,44.49,0,0,1,5.26.11c.78.06,1.57.1,2.34.24.39.07,1.15.46.88-.05a6.54,6.54,0,0,1-.22,1.12c-.38,1.86-.81,3.71-1.23,5.56-3.06,13.5-6.26,27-9.79,40.36-.71,2.69-1.43,5.38-2.23,8-.36,1.2-.71,3.81-1.93,4.36s-3.55,0-4.81-.13-2.42-.16-3.63-.21c-.85,0-1.73-.11-2.58-.07.63,0-1.73,0-1.46.25-.72-.57-1-3.6-1.19-4.44-3-11.66-5.75-23.36-8.56-35.06a.5.5,0,0,0-1,0q-2.61,11.54-5.3,23.05c-1.07,4.58-2.13,9.16-3.31,13.72a18,18,0,0,1-.68,2.57c-.73.62-4.79.34-6,.38s-2.6.07-3.9.06c-.64,0-2.54.23-3.08-.22s-.94-2.88-1.17-3.68C18.34,53.55,17.16,49,16,44.38c-2.79-10.94-5.44-21.92-8-32.9q-.7-3-1.4-5.93a12.14,12.14,0,0,1-.67-2.9c0-.36-.41.42-.08.39.5,0,1-.1,1.49-.13,1.45-.08,2.9-.1,4.35-.12,2.4,0,5.22-.34,7.57.22.63.15.89-.81.27-1a29,29,0,0,0-6.55-.26c-2.09,0-5.32-.51-7.31.27-1.48.58-.13,3.34.15,4.53q3.94,16.8,8.12,33.53C15.25,45.56,16.63,51,18.15,56.4c.47,1.66.93,3.34,1.5,5,.49,1.4,1,1.46,2.49,1.56a67.28,67.28,0,0,0,8.59-.13c1-.06,3.16.17,3.92-.67.54-.6.66-2.14.86-2.88.57-2.18,1.1-4.37,1.62-6.57,2.41-10,4.71-20.12,7-30.2h-1c2.75,11.48,5.49,23,8.39,34.4.36,1.41.49,3.81,1.34,5,.45.65.56.54,1.52.55,3.15,0,6.28.27,9.42.44,2,.1,3.51.25,4.31-1.7a59.31,59.31,0,0,0,2-6.34c4-14.44,7.43-29.08,10.77-43.7.51-2.24,1-4.48,1.5-6.72.18-.83.69-1.94,0-2.6s-2.27-.47-2.94-.53a45.39,45.39,0,0,0-6-.19c-2.08.08-2.85.19-3.5,2.11-2.44,7.21-3.67,15-5.22,22.42Q63,34.08,61.38,42.51h1C59,29.54,55.5,16.59,52.26,3.58c-.13-.51-.18-1.57-.59-1.95-1-.88-4-.22-5.11-.17-1.9.07-3.8.14-5.7.14-.75,0-2.23-.41-2.82.17-.28.27-.35.94-.45,1.3-1.93,6.78-3.41,13.72-5,20.58q-2.23,9.4-4.43,18.8h1C26,29.09,23,15.73,19.82,2.4c-.15-.63-1.11-.36-1,.27Z" transform="translate(-0.05 0)"/><path class="cls-3" d="M88.85,2.06c0,12.2.18,46.43.18,59.76,0,.5,7.13.67,13.74.2,1-.08-1-15.26,0-24.7,0,0,11.15-.78,18.72.06.15,4.35-.77,23.47,0,24.72.25.39,13.82.83,13.69-.12-.44-3.25.84-51.25-.19-59.92-.06-.52-6.48-.24-12.72,0a1,1,0,0,0-1,1.06c.21,4.45,1,21.83.16,22.26-1.86,1-16.93.74-18.58.08-1.25-.5.11-22.76-.17-23.38-.42-.94-12.66.15-13.92,0" transform="translate(-0.05 0)"/><path class="cls-1" d="M88.35,2.06c0,13.76.08,27.51.13,41.27q0,5.19,0,10.37,0,2.09,0,4.17c0,1-.4,3.07,0,3.95.62,1.36,3.68.94,4.89,1,2.36,0,4.73,0,7.09-.13.84,0,2.27.25,2.84-.53.86-1.17.17-4.31.11-5.61-.18-3.79-.41-7.57-.45-11.37,0-2,0-3.95.14-5.92,0-.37.08-1.71-.22-1.42.14-.13,1-.06,1.18-.07,3.39-.19,6.8-.28,10.2-.24a57.42,57.42,0,0,1,5.86.25c1.21.14.58-.32.88.42a6,6,0,0,1,0,1.77c0,2.9-.12,5.79-.19,8.69-.07,3.09-.15,6.18-.12,9.26,0,1-.35,3.55.37,4.42s2.89.58,3.84.63a72.51,72.51,0,0,0,8,0c1-.06,2.45.06,2.83-1a11,11,0,0,0-.09-2.85c-.09-10.87.21-21.74.28-32.61,0-5.63.07-11.26,0-16.89,0-1.93-.07-3.86-.2-5.78-.07-1.17.14-2.11-1.08-2.46-1.4-.41-3.3-.12-4.74-.09-2.38.05-5.3-.3-7.61.25-2,.49-1.35,3-1.28,4.57.24,5.76.67,11.63.33,17.39,0,.69,0,1.22-.46,1.55-.75.5-2.61.32-3.48.37-3,.15-6,.13-9,0-1.24,0-4.67.27-5.27-.77a6.94,6.94,0,0,1-.21-2.55c0-1.28,0-2.57,0-3.85,0-5,.42-10.1.4-15.15,0-1,.06-1.43-.92-1.79-2-.73-5-.13-7.05,0a54.64,54.64,0,0,1-6.48.26c-.64,0-.64,1,0,1,3.15.24,6.44-.31,9.6-.37a29.45,29.45,0,0,1,3.84,0c.28.31,0,2,0,2.37-.17,6.43-1,13.21-.21,19.62.23,1.81.88,1.88,2.64,2.06a86.6,86.6,0,0,0,11.2.25c1.42,0,5.16.36,6.13-1a5.21,5.21,0,0,0,.3-2.33c.08-1.83,0-3.67,0-5.5-.06-3.92-.21-7.85-.37-11.77a8.59,8.59,0,0,1-.09-2.08c.42-1.72,2.71-1.36,4.16-1.41s2.81-.09,4.22-.12c1.17,0,2.91-.32,4,.05.57.19.22-.27.33.53.06.41.06.83.09,1.24.08,1.31.12,2.62.15,3.94.08,3.3.1,6.61.1,9.91,0,14.11-.59,28.24-.3,42.34a7.57,7.57,0,0,1,0,1.05c-.08.65.15.25-.1.44-.92.68-3.69.26-4.82.27-2,0-4,0-6.06-.17-1.31-.09-1.87.25-1.89-1-.1-7.84.41-15.71.19-23.54a.51.51,0,0,0-.5-.5,109.47,109.47,0,0,0-18.72-.06.52.52,0,0,0-.5.5c-.72,6.91,0,13.86.22,20.77a8.7,8.7,0,0,1,0,2.91c-.31.76-.66.57-1.6.62q-2,.11-4,.15c-1.83,0-3.66,0-5.48-.06s-2,.12-2-1.55c0-13-.08-26.06-.13-39.08q0-9.52,0-19a.5.5,0,0,0-1,0Z" transform="translate(-0.05 0)"/><path class="cls-2" d="M345.66,1.59c-2.43,1.3-6,2.74-7.44,5.1-.49.82-19.16,56.27-18.65,57.25.68,1.29,13,3.06,14.45,2.33s2.51-2.33,4.07-4.91" transform="translate(-0.05 0)"/><path class="cls-2" d="M380,61.2a10.61,10.61,0,0,1-3.08,4.39c-.85.81-14.59.66-15.19,0-1.17-1.19-3.86-10.2-4.44-10.62-1.19-.87-4.57-.61-6.75-.62-3.45,0-6.69-.25-10.14-.27" transform="translate(-0.05 0)"/><path class="cls-2" d="M348.42,25.51c1.31,4.92,3.13,8.24,4.93,13" transform="translate(-0.05 0)"/><path class="cls-2" d="M386.51,1.64c-2.47,2.58-5.5,5.17-5.76,6s1.24,58.17,1.79,58.5c.34.21,12.4.25,13.23-.28s2.08-2.76,2.6-4.28" transform="translate(-0.05 0)"/><path class="cls-2" d="M398.72,35.14c.57,1.83,8.07,29.62,9.14,31,.11.15,10,1.35,11.39.48s2.2-2.78,3.55-5" transform="translate(-0.05 0)"/><path class="cls-2" d="M431.88,29.76c.07,10.57.11,35,.75,36,.78,1.22,15.3,1.21,15.55.81,1.52-2.45,2.23-3.1,3.76-5.55" transform="translate(-0.05 0)"/><path class="cls-2" d="M430,1.59a63.16,63.16,0,0,0-7.66,5.92c-.39.5-4.74,15.09-5.58,23" transform="translate(-0.05 0)"/><path class="cls-2" d="M486.6,2.17C484.44,4.08,480.86,7,480.36,9s-.84,54.95.3,57.84c.17.44,10.07,1.25,13.23.81,1.77-.25,5.24-3.27,6.69-6.25" transform="translate(-0.05 0)"/><path class="cls-2" d="M517.66,3.6c-7.45,2.59-13.38,8.93-13.73,16.81-.05,1.23,0,3.63.76,4.56.62.73,9.24,1.35,10.59,1.12.73-.12,3-1.87,4-3.92" transform="translate(-0.05 0)"/><path class="cls-2" d="M521.15,15.85c2.08-.87,4.95-1.49,7.05-.69A5.19,5.19,0,0,1,531,18.47a6.59,6.59,0,0,1-.11,2.71,28.21,28.21,0,0,1-2.34,8" transform="translate(-0.05 0)"/><path class="cls-2" d="M525.84,30.15a35.3,35.3,0,0,0-5.16,4.06,11.86,11.86,0,0,0-2,2.73c-1.07,2.15-.83,9.3-.1,10.09.59.64,9.53,1.43,10,1.28a8.92,8.92,0,0,0,5-4.18" transform="translate(-0.05 0)"/><path class="cls-2" d="M522.38,48.76c-1.08,1-4.5,3.78-4.83,4.51s-.07,12.32,1,13c.6.38,12.83.17,13.75-.5a21.62,21.62,0,0,0,4-4.47" transform="translate(-0.05 0)"/><path class="cls-2" d="M479.94,15.16" transform="translate(-0.05 0)"/><path class="cls-2" d="M539,60.88" transform="translate(-0.05 0)"/><path class="cls-2" d="M343.4,6.94l-7,4.59" transform="translate(-0.05 0)"/><path class="cls-2" d="M340.57,14.87q-2.9,1.61-5.66,3.46a1.64,1.64,0,0,0-.58.55l.17-.25" transform="translate(-0.05 0)"/><path class="cls-2" d="M339,20.72a51.42,51.42,0,0,1-7,3.34.13.13,0,0,0,.21,0" transform="translate(-0.05 0)"/><path class="cls-2" d="M337,26.77l-6.61,3.93.38-.15" transform="translate(-0.05 0)"/><path class="cls-2" d="M334.39,34.57a47.89,47.89,0,0,0-6.8,3.55.22.22,0,0,0,.24-.07" transform="translate(-0.05 0)"/><path class="cls-2" d="M332.47,40.17c-2.31,2-5.27,3.14-7.5,5.23" transform="translate(-0.05 0)"/><path class="cls-2" d="M330.23,46.28q-2.67,1.69-5.48,3.15a6.43,6.43,0,0,0-1.68,1.1l.18-.14" transform="translate(-0.05 0)"/><path class="cls-2" d="M328.38,52.92l-6.47,4" transform="translate(-0.05 0)"/><path class="cls-2" d="M319.79,63.41a30.4,30.4,0,0,1,6.31-3.74" transform="translate(-0.05 0)"/><path class="cls-2" d="M325.16,65.22c-.09,0,0-.16,0-.22q1.89-1.52,3.87-2.91" transform="translate(-0.05 0)"/><path class="cls-2" d="M331.17,66.05A10.3,10.3,0,0,1,334,63.14l1-.77" transform="translate(-0.05 0)"/><path class="cls-2" d="M348.66,26.38a17.78,17.78,0,0,1,4.16-4.18" transform="translate(-0.05 0)"/><path class="cls-2" d="M350.25,29.72a32.94,32.94,0,0,1,4.07-3.52" transform="translate(-0.05 0)"/><path class="cls-2" d="M352,35.13c-.16-.12,0-.38.08-.54a16.93,16.93,0,0,1,3.5-3.34" transform="translate(-0.05 0)"/><path class="cls-2" d="M353.81,38.52a32.79,32.79,0,0,1,3.77-2.73" transform="translate(-0.05 0)"/><path class="cls-2" d="M341.52,53.83q2-2.07,4.15-4" transform="translate(-0.05 0)"/><path class="cls-2" d="M347.07,54.63a1.81,1.81,0,0,1,.59-1l3.74-3.91c.24-.25.48-.5.74-.73a.16.16,0,0,1,.13-.05s.05.11,0,.1" transform="translate(-0.05 0)"/><path class="cls-2" d="M352.77,54.58q2.43-2.89,5.13-5.55" transform="translate(-0.05 0)"/><path class="cls-2" d="M357.67,55.37a1,1,0,0,1,.4-.78q1.87-1.87,3.82-3.65" transform="translate(-0.05 0)"/><path class="cls-2" d="M358.92,60.56a54.61,54.61,0,0,1,4.08-4" transform="translate(-0.05 0)"/><path class="cls-2" d="M361.33,65a15.79,15.79,0,0,1,3.46-3.72" transform="translate(-0.05 0)"/><path class="cls-2" d="M366.44,66.21a2,2,0,0,1,.45-.69l2.38-2.74A4.63,4.63,0,0,1,370,62" transform="translate(-0.05 0)"/><path class="cls-2" d="M371.57,66.12c-.1,0-.09-.17,0-.26a44.59,44.59,0,0,1,2.61-4" transform="translate(-0.05 0)"/><path class="cls-2" d="M374.74,66.22c-.11,0-.09-.18,0-.28l2.43-4.16" transform="translate(-0.05 0)"/><path class="cls-2" d="M381,12.76a31,31,0,0,1,4.92-5.36" transform="translate(-0.05 0)"/><path class="cls-2" d="M381.12,18.68A65.35,65.35,0,0,1,386,13" transform="translate(-0.05 0)"/><path class="cls-2" d="M380.86,24l1.77-1.91A31.44,31.44,0,0,1,386,18.82s.1-.07.15,0,0,.13,0,.1" transform="translate(-0.05 0)"/><path class="cls-2" d="M381.23,31.12a40.09,40.09,0,0,1,5-5.91" transform="translate(-0.05 0)"/><path class="cls-2" d="M381.7,36.5a21.47,21.47,0,0,1,4.8-4.93" transform="translate(-0.05 0)"/><path class="cls-2" d="M381.67,44.3a15.61,15.61,0,0,1,2.67-3.5l1.89-2s.11-.1.16-.07,0,.13,0,.07" transform="translate(-0.05 0)"/><path class="cls-2" d="M381.91,50.38q2.29-2.7,4.83-5.17" transform="translate(-0.05 0)"/><path class="cls-2" d="M382.68,57.48a23.68,23.68,0,0,1,4-4.53" transform="translate(-0.05 0)"/><path class="cls-2" d="M382.28,64.51a38.8,38.8,0,0,1,4-4.3" transform="translate(-0.05 0)"/><path class="cls-2" d="M386.56,66.11,390,62.24" transform="translate(-0.05 0)"/><path class="cls-2" d="M392.87,66.36a17.63,17.63,0,0,1,3-4.14l-.24.17" transform="translate(-0.05 0)"/><path class="cls-2" d="M398.8,29.28a25.59,25.59,0,0,1,2.59-3.92" transform="translate(-0.05 0)"/><path class="cls-2" d="M399.07,36.46a43.39,43.39,0,0,1,3.62-5.79" transform="translate(-0.05 0)"/><path class="cls-2" d="M400.74,41.83q1.73-2.51,3.58-4.92c.09-.12.35-.2.35,0" transform="translate(-0.05 0)"/><path class="cls-2" d="M402.37,47.6q1.95-2.71,4-5.32" transform="translate(-0.05 0)"/><path class="cls-2" d="M404,54.48A38.87,38.87,0,0,1,408.15,49" transform="translate(-0.05 0)"/><path class="cls-2" d="M405.69,60.67a7.29,7.29,0,0,0,1.06-1.34,25.17,25.17,0,0,1,3.86-4.4l-.38.19" transform="translate(-0.05 0)"/><path class="cls-2" d="M408.34,66.48a35,35,0,0,1,4.24-4.82s.07-.06.1,0,0,.09,0,.07" transform="translate(-0.05 0)"/><path class="cls-2" d="M415.24,67.21a36.56,36.56,0,0,0,3.62-5.36" transform="translate(-0.05 0)"/><path class="cls-2" d="M421.42,11.06a25.08,25.08,0,0,1,5.88-3.73" transform="translate(-0.05 0)"/><path class="cls-2" d="M419.36,17.43,426,13.2" transform="translate(-0.05 0)"/><path class="cls-2" d="M418,22.91q3.3-2.54,6.83-4.78s.11-.08.08-.14-.12,0-.06,0" transform="translate(-0.05 0)"/><path class="cls-2" d="M417.09,28.29q3.35-2.55,6.75-5l-.6.05" transform="translate(-0.05 0)"/><path class="cls-2" d="M417.56,33.11a36.7,36.7,0,0,1,4.69-3.59l-.42-.06" transform="translate(-0.05 0)"/><path class="cls-2" d="M434.22,23.77l2.8-1.92c.14-.1.37-.18.47,0" transform="translate(-0.05 0)"/><path class="cls-2" d="M432.16,31.13a19.3,19.3,0,0,1,5.1-4.15" transform="translate(-0.05 0)"/><path class="cls-2" d="M431.87,38.5q2.87-2.43,5.76-4.82" transform="translate(-0.05 0)"/><path class="cls-2" d="M432,44.5q2.73-3.09,5.73-5.94" transform="translate(-0.05 0)"/><path class="cls-2" d="M431.77,52.15c1.54-2.48,4.23-4,6-6.34l-.61.5" transform="translate(-0.05 0)"/><path class="cls-2" d="M432.6,58.82a46.25,46.25,0,0,1,5-4.5l-.36.31" transform="translate(-0.05 0)"/><path class="cls-2" d="M432.61,66a39.32,39.32,0,0,1,4.65-4.69" transform="translate(-0.05 0)"/><path class="cls-2" d="M438.53,66.84q2.32-2.71,4.81-5.28" transform="translate(-0.05 0)"/><path class="cls-2" d="M443.45,67.18A34.8,34.8,0,0,1,448,62.07" transform="translate(-0.05 0)"/><path class="cls-2" d="M480.2,14.68a39.1,39.1,0,0,1,6.24-5.76" transform="translate(-0.05 0)"/><path class="cls-2" d="M479.73,21.71a58.08,58.08,0,0,1,6.79-6.46c.19-.15.51.15.37.35s-.53,0-.45-.23" transform="translate(-0.05 0)"/><path class="cls-2" d="M480,27.83q3.06-2.79,6.36-5.31" transform="translate(-0.05 0)"/><path class="cls-2" d="M480.12,35.34a70.88,70.88,0,0,1,6.19-5.81" transform="translate(-0.05 0)"/><path class="cls-2" d="M479.77,43.41a89,89,0,0,1,6.57-6.78s.1-.11.07-.16-.13,0-.07.05" transform="translate(-0.05 0)"/><path class="cls-2" d="M479.9,51a40.6,40.6,0,0,1,6.32-5.44l-.31.17" transform="translate(-0.05 0)"/><path class="cls-2" d="M480.27,57.32c2.07-2,3.76-3.57,5.93-5.48" transform="translate(-0.05 0)"/><path class="cls-2" d="M480.29,63.77q2.93-3.07,6-6" transform="translate(-0.05 0)"/><path class="cls-2" d="M483.78,67.26c1.87-1.67,3.87-4,5.95-5.4" transform="translate(-0.05 0)"/><path class="cls-2" d="M490.14,67.61A63.91,63.91,0,0,0,496,62" transform="translate(-0.05 0)"/><path class="cls-2" d="M506.71,11.92a23.38,23.38,0,0,1,5-2.66l-.29.13" transform="translate(-0.05 0)"/><path class="cls-2" d="M504.13,18.2a5.4,5.4,0,0,1,1.22-1.36,32.78,32.78,0,0,1,4.55-3.31" transform="translate(-0.05 0)"/><path class="cls-2" d="M504.33,24.3q2-2.14,4.23-4.11" transform="translate(-0.05 0)"/><path class="cls-2" d="M509.68,26a1.29,1.29,0,0,1,.55-.83q2-1.74,4.08-3.35" transform="translate(-0.05 0)"/><path class="cls-2" d="M525.12,14.91a26.35,26.35,0,0,1,4.82-3.31" transform="translate(-0.05 0)"/><path class="cls-2" d="M530.62,16.73,534.71,14s.07-.06.06-.1-.09,0-.06,0" transform="translate(-0.05 0)"/><path class="cls-2" d="M530.71,22.52c1.61-1.15,3.66-2.45,5.38-3.43l-.34,0" transform="translate(-0.05 0)"/><path class="cls-2" d="M518.06,38.61a21.57,21.57,0,0,1,5.14-3.2l-.37.22" transform="translate(-0.05 0)"/><path class="cls-2" d="M518,43.91a39.3,39.3,0,0,1,4.62-4" transform="translate(-0.05 0)"/><path class="cls-2" d="M519.66,47.41l3.89-3.31" transform="translate(-0.05 0)"/><path class="cls-2" d="M525.28,48.14c1.27-1.29,3.21-3.13,4.56-4.34" transform="translate(-0.05 0)"/><path class="cls-2" d="M517.42,57.32c1.69-1.57,3.8-3.4,5.59-4.84" transform="translate(-0.05 0)"/><path class="cls-2" d="M517.88,64a58.56,58.56,0,0,1,4.23-4.68" transform="translate(-0.05 0)"/><path class="cls-2" d="M521.48,66.29a42.23,42.23,0,0,1,4.25-4.67" transform="translate(-0.05 0)"/><path class="cls-2" d="M527.81,66.45a35.47,35.47,0,0,1,3.95-4.72" transform="translate(-0.05 0)"/><path class="cls-3" d="M361.16,1.64c-.36-.29-13.22-.5-16.44.4-4.28,14.25-19.47,59.13-19,59.46.77.56,12.15.61,12.36,0,1.38-4.12,3.79-12.21,3.79-12.21s18.39-.63,19.33,0c.56.4,2.72,11.44,3.79,12.29.83.66,14.9.29,15,0C380.4,60.68,362.3,2.57,361.16,1.64Zm-15.87,36.6c-.29-.37,4.91-19,6.36-21.14.89,2.66,6.43,21.09,6.29,21.14C356.71,38.66,345.52,38.53,345.29,38.24Z" transform="translate(-0.05 0)"/><path class="cls-1" d="M361.42,1.2a10.76,10.76,0,0,0-3.72-.29c-2.54-.06-5.09,0-7.63.06-1.27.05-4.51-.25-5.59.63-.82.67-1.09,3.1-1.4,4.1-3.09,9.87-6.35,19.68-9.57,29.5-2.64,8-5.41,16.05-7.78,24.17-.42,1.44-1.06,2.5.78,2.81a35.62,35.62,0,0,0,6.11.24c1.44,0,4,.35,5.31-.33s1.5-3.16,1.91-4.46c.73-2.34,2.1-5.13,2.32-7.58a2.13,2.13,0,0,1,.19-.64c0,.08-.69.37-.32.33s1,0,1.55,0q3.05-.09,6.1-.15c2.28,0,4.56-.08,6.85-.06.92,0,3.65-.37,4.38.25.32.28.5,1.68.6,2.06.32,1.2.61,2.4.92,3.6a26.31,26.31,0,0,0,1.72,5.75c1.19,2.24,6,1.32,8.12,1.3s4.27,0,6.4-.18c.59,0,1.52.09,1.82-.53.43-.89-.76-3.45-1-4.29-.92-3.29-1.9-6.55-2.89-9.82q-4-13.33-8.27-26.59c-2-6.21-3.74-12.63-6.26-18.65a3.41,3.41,0,0,0-.56-1.11c-.45-.46-1.16.25-.71.71.84.85,1.4,3.63,1.83,4.9,1.29,3.75,2.51,7.52,3.72,11.29q4.5,14,8.76,28c1.09,3.61,2.18,7.22,3.21,10.85.32,1.13.65,2.25.92,3.39.07.29.14.59.2.88s.47-.06,0-.1c-4.21-.33-8.53.46-12.78.14-2.08-.16-2.09-1.85-2.61-3.69-.65-2.35-1.16-4.74-1.84-7.08-.35-1.18-.43-1.71-1.65-1.93a35.3,35.3,0,0,0-6.37-.16c-4.11,0-8.21.12-12.32.26a.51.51,0,0,0-.48.37c-1.06,3.56-2.14,7.11-3.28,10.64-.27.83-.22,1.13-.88,1.45a6.81,6.81,0,0,1-2.21.16c-1.88.08-3.77.07-5.65,0-.75,0-1.51,0-2.26-.13-.58-.07-1.08-.35-.9.16-.09-.25.28-1.08.36-1.37.64-2.25,1.37-4.48,2.08-6.71C333.49,38.2,338.6,23.15,343.4,8a30.88,30.88,0,0,1,1.53-4.89c.45-.86.31-.71,1.47-.87.95-.12,1.91-.18,2.86-.23,2.4-.13,4.81-.15,7.21-.12,1.21,0,3.33-.31,4.45.17C361.5,2.32,362,1.46,361.42,1.2Z" transform="translate(-0.05 0)"/><path class="cls-1" d="M345.77,38.1c-.21-.73.61-2.68.82-3.48.56-2.15,1.16-4.29,1.78-6.42,1-3.46,1.77-7.76,3.71-10.85l-.91-.12c2,6,3.74,12.11,5.49,18.18.25.88.43,1.83.75,2.69.17.47-.3-.21.26-.32a2,2,0,0,1-.7.08,10.76,10.76,0,0,0-2.17.1c-1.87,0-3.74,0-5.61,0-.92,0-2.81.27-3.65-.17-.57-.3-1.08.56-.5.86,1.49.78,4.33.32,5.94.33,2.25,0,4.89.3,7.09-.28a.52.52,0,0,0,.37-.48,9.16,9.16,0,0,0-.76-2.9c-.63-2.19-1.28-4.38-1.94-6.57-1.18-3.94-2.31-7.9-3.61-11.8a.51.51,0,0,0-.91-.12c-2.07,3.32-2.89,7.91-4,11.61-.66,2.28-1.3,4.56-1.88,6.86-.2.8-.82,2.21-.57,3.06A.5.5,0,0,0,345.77,38.1Z" transform="translate(-0.05 0)"/><path class="cls-3" d="M386.51,1.64c-.36,12,.26,48,.16,60,0,.52,3.69,1,11.71-.08,1.1-.14-.08-49-.08-49S411.12,60,413.16,61.51c.84.61,9.54.51,9.63.13,2.37-10.56,14.93-49.71,14.93-49.71s-.43,43.29.07,49.52c.06.78,10.75.52,14.06-.12.75-.15.54-53,0-59.73a146.84,146.84,0,0,0-21.87,0c-1.15.07-10.5,38.16-10.5,38.16s-10.58-38-11-38.16c-.66-.21-18.41-.36-22,0" transform="translate(-0.05 0)"/><path class="cls-1" d="M386,1.64c-.3,10.66-.09,21.35,0,32q.07,8.91.14,17.82,0,3.47,0,6.94c0,1-.45,3,.31,3.82s2.91.5,3.76.5c1.54,0,3.08-.1,4.61-.24,1-.09,3.15.14,3.85-.51.87-.82.53-3.44.56-4.49.24-8.37,0-16.77-.08-25.14q-.15-9.86-.39-19.71l-1,.13c4,14.68,7.84,29.5,12.77,43.9.48,1.39,1,4.29,2.29,5.24s3.79.53,5.14.54c1.14,0,4,.44,5-.33.77-.6.89-2.86,1.13-3.78.56-2.12,1.16-4.24,1.77-6.35,1.52-5.27,3.11-10.53,4.73-15.77q3.72-12.1,7.58-24.15l-1-.13q-.11,11.21-.15,22.42c0,5.65,0,11.31,0,17,0,2.1,0,4.2.07,6.3,0,1-.3,3,.15,3.9s2.22.84,3.2.88a68.86,68.86,0,0,0,8.92-.27c1-.09,2.48.09,3-.84a7,7,0,0,0,.19-2.44c.41-9.35.26-18.75.23-28.11,0-9.67.26-19.49-.47-29.14a.52.52,0,0,0-.5-.5,109.9,109.9,0,0,0-13-.35q-3.46.06-6.92.24c-.75,0-1.79-.2-2.39.33a6.13,6.13,0,0,0-1,2.44c-3,8.88-5.05,18.11-7.34,27.19q-1.09,4.34-2.16,8.68h1q-3.31-11.91-6.69-23.79c-1.2-4.23-2.38-8.47-3.69-12.67-.17-.53-.3-1.59-.77-2-.8-.62-3.22-.24-4.14-.26-6-.11-12.19-.42-18.17.19-.63.07-.64,1.07,0,1a137.11,137.11,0,0,1,15.32-.23A41.12,41.12,0,0,1,408,2c.65.11-.06-.42.21.14a10.13,10.13,0,0,1,.47,1.46c2.81,9.1,5.29,18.32,7.87,27.49q1.23,4.37,2.44,8.75a.5.5,0,0,0,1,0c2.71-11.05,5.4-22.14,8.63-33.05.31-1.06.63-2.12,1-3.17A4.24,4.24,0,0,1,430,2.52c.59-.74-.32-.13,1-.48,1.6-.45,3.77-.19,5.44-.24q2-.06,4-.08c2.41,0,4.83,0,7.24.1a20.36,20.36,0,0,0,3.6.21,1.88,1.88,0,0,1,.61.05c-.79-.2-.28-.4-.39.46-.26,2.06.15,4.47.2,6.55Q452,31,451.74,53c0,2.2-.05,4.42-.18,6.62,0,.33.08,1.15-.12,1.43.1-.13-1.12,0-1.54.06-1,.11-2.1.17-3.15.23-2,.1-4,.16-6,.09-1.46-.05-2.37.24-2.49-.84a71.5,71.5,0,0,1-.15-7.29c-.13-13.78,0-27.57.14-41.35a.5.5,0,0,0-1-.13c-4.94,15.39-10,30.81-14.13,46.45-.2.76-.38,1.53-.58,2.3s0,.73-1.08.82a36.37,36.37,0,0,1-6.75,0c-1.23-.13-1.34-.22-1.81-1.27s-.9-2.32-1.3-3.49c-2.83-8.23-5.16-16.64-7.53-25q-2.7-9.51-5.29-19a.5.5,0,0,0-1,.13c.32,13.13.6,26.26.55,39.39,0,2.66,0,5.35-.19,8-.14,1.78-.53,1.17-2.48,1.37a32.85,32.85,0,0,1-7.54.23c-.93-.13-.77,0-1-.66a11.27,11.27,0,0,1,0-2.79q0-3.22,0-6.45,0-8.22-.13-16.43c-.09-11.22-.33-22.46,0-33.68a.5.5,0,0,0-1,0Z" transform="translate(-0.05 0)"/><path class="cls-3" d="M486.6,2.17c0,15.2-.88,59.22.13,59.34,1.25.16,13.59,1,13.86-.13C501,59.45,501,2,500.52,1.84s-10.23-.62-13.92.32" transform="translate(-0.05 0)"/><path class="cls-1" d="M486.1,2.17c0,13.76-.29,27.51-.35,41.27,0,5.26-.12,10.54.16,15.79,0,.65-.11,2.08.41,2.6.86.86,4.29.46,5.39.51,2.55.12,5.83.64,8.32-.13,1-.3,1-.66,1.11-1.57.33-3.58.17-7.27.2-10.87q.15-18.29,0-36.57c0-2.42-.05-4.84-.1-7.26a14.2,14.2,0,0,0-.15-3.84c-.42-1.22-1.84-.87-3-.92-3.79-.15-7.84-.36-11.56.51-.63.15-.36,1.11.27,1a40.25,40.25,0,0,1,10-.51,15.63,15.63,0,0,1,3.36.16c-.07,0,0-.48,0,.24-.2,3.1.17,6.35.21,9.46.12,11.07.12,22.13.06,33.2,0,4.24,0,8.49-.14,12.74,0,.63.26,2.56-.11,3.1-.61.88-4.43.44-5.59.41-1.35,0-2.69-.09-4-.16a13.53,13.53,0,0,1-3.38-.23c-.56-.2.1.34,0,.09a1.65,1.65,0,0,1-.08-.52c0-.63-.09-1.26-.12-1.9-.21-4.82-.16-9.65-.14-14.47,0-14,.34-28.05.35-42.08a.5.5,0,0,0-1,0Z" transform="translate(-0.05 0)"/><path class="cls-3" d="M514.69,5.79c-4.09,3.09-7.54,14.75-7.09,14.88,1.41.41,11.26,1.86,12,1.47.28-.16-.31-8.62,6.5-10.5,10.28-2.83,11.44,8.19,7.28,12.94-1.35,1.55-6.69,3.45-9.44,8.06-2.31,3.87-1.59,9.77-1.14,11.77,0,0,8.82-.08,10.81,0a.42.42,0,0,0,.44-.37c.26-3-1-4,.74-5.6,6.11-5.73,15.53-10.7,14.72-21.32C548.17,0,524.62-4.13,514.69,5.79" transform="translate(-0.05 0)"/><path class="cls-1" d="M514.34,5.44c-2.37,1.93-3.78,5-4.94,7.71-.62,1.45-1.17,2.94-1.64,4.45-.23.74-.85,2-.69,2.83.28,1.38,3.1,1.23,4.23,1.41,1.47.22,2.94.43,4.41.6,1,.11,2.61.55,3.6.25,1.28-.39.89-2,1.1-3.17.7-4,2.93-7,7.08-7.69,4-.66,7.17,1.41,7.57,5.5a8.52,8.52,0,0,1-3.24,7.83c-3.35,2.31-7,4.25-8.8,8.13-1.57,3.42-1.48,7.63-.73,11.25a.51.51,0,0,0,.48.37c2.34.2,4.78,0,7.12,0,2.15,0,4.73.91,4.66-1.93-.06-2.25-.49-3.23,1.43-4.95,1.46-1.3,3-2.51,4.48-3.76a32.56,32.56,0,0,0,7.29-7.8A16.72,16.72,0,0,0,546.62,8C543.23,3.52,537.79,1,532.29.23c-6.36-.85-13.24.65-17.94,5.21-.46.45.24,1.16.71.71,8.71-8.44,26.23-6.39,32.08,4.52,4,7.38,1.2,15-4.53,20.39-2.55,2.41-5.47,4.4-8,6.85a3.53,3.53,0,0,0-1.3,2.64c0,.7.23,1.39.22,2.08,0,1.19-.07,1.13-1,1.28-2.65.41-5.71,0-8.4,0a3.68,3.68,0,0,1-1.1,0s.08.09.09-.57c0-1.83-.37-3.61-.19-5.47.47-4.94,3.5-8.08,7.5-10.64,2-1.29,3.7-2.29,4.74-4.55,1.67-3.66,1.38-9.13-2.56-11.23-4.73-2.53-10.71.59-12.46,5.29a15.51,15.51,0,0,0-.8,3.37,8.36,8.36,0,0,1-.15,1.43c-.16.47.45.15-.33.16a53.3,53.3,0,0,1-9.18-1.13,5.24,5.24,0,0,1-1.65-.31c.17.14,0,0,.2-.57.48-1.27.76-2.64,1.23-3.92,1.22-3.34,2.77-7.3,5.61-9.61.5-.41-.21-1.11-.71-.71Z" transform="translate(-0.05 0)"/><path class="cls-3" d="M522.38,48.48c0,5.88-.61,12.46,0,13.16.28.32,14,.08,13.89-.34-.14-.59.42-13.13-.54-12.94-1.54.31-11.57-.39-13.35.13" transform="translate(-0.05 0)"/><path class="cls-1" d="M521.88,48.48c0,3.79-.38,7.59-.26,11.38,0,1.09-.06,2,1,2.34,1.53.49,3.78.09,5.36.07,2.18,0,4.36-.07,6.54-.22.69,0,1.84.07,2.22-.62s0-3.25,0-4.18c0-2.28.09-4.57-.07-6.85-.06-.82,0-2.14-.85-2.53a8.43,8.43,0,0,0-2.28.06c-1.38,0-2.77-.06-4.15-.09-2.31-.06-4.91-.38-7.18.16-.63.15-.36,1.11.27,1,2.17-.51,4.71-.17,6.92-.12,1.23,0,2.47.07,3.7.08a10.51,10.51,0,0,1,2.56-.07c-.2-.17,0,1.61,0,1.93.06,1.08.07,2.16.07,3.24a63.62,63.62,0,0,0-.06,6.47,2.73,2.73,0,0,1,0,.73c-.09.37.5-.34.05-.3-.87.09-1.74.15-2.61.2-2.21.11-4.42.15-6.62.16a12.91,12.91,0,0,1-3.07,0c-1-.26-.82.17-.89-1.14-.2-3.86.24-7.77.26-11.63a.5.5,0,0,0-1,0Z" transform="translate(-0.05 0)"/><path class="cls-2" d="M147.94,2.72c-1.67,1.73-5.72,5.94-5.92,6.41s-1,57.05-.83,57.4,43.84.8,44.42.51a12,12,0,0,0,5-5.29" transform="translate(-0.05 0)"/><path class="cls-2" d="M190.32,13.33a36,36,0,0,1-5.91,5.75c-.84.45-16.89-1-23.83-.3" transform="translate(-0.05 0)"/><path class="cls-2" d="M184.41,36.61c-2.07,2.18-6.7,7.06-7,7.19s-10.52.15-16.33-.1c.15,0-.39.87-.24.9" transform="translate(-0.05 0)"/><path class="cls-2" d="M258.29,3c-1.67,1.73-5.72,5.94-5.92,6.41s-1,57.05-.83,57.4,43.84.8,44.42.51a12,12,0,0,0,5-5.29" transform="translate(-0.05 0)"/><path class="cls-2" d="M300.67,13.66a36,36,0,0,1-5.91,5.75c-.84.45-16.89-1-23.83-.3" transform="translate(-0.05 0)"/><path class="cls-2" d="M294.76,36.94c-2.07,2.18-6.7,7.06-7,7.19s-10.52.15-16.33-.1c.15,0-.39.87-.24.9" transform="translate(-0.05 0)"/><path class="cls-2" d="M212.61,17.83a18.42,18.42,0,0,1,11.08.42,10,10,0,0,1,3.46,2c1.65,1.6,1.88,4.66,1.83,7l-.42-.82" transform="translate(-0.05 0)"/><path class="cls-2" d="M213.15,61.83A20.75,20.75,0,0,1,209.54,66c-1.49,1.2-15.36.29-15.34-.47.07-5.13-.12-59.25.38-60,1.13-1.72,3.21-2.78,4.78-4" transform="translate(-0.05 0)"/><path class="cls-2" d="M213.92,44.74a17.79,17.79,0,0,1,7.16.5c.2.22,6.28,20.33,8.07,21.32,1.33.73,13,.16,13.33,0,2.65-1.44,3.88-2,4.82-4.88" transform="translate(-0.05 0)"/><path class="cls-2" d="M147.39,7.74q-2.79,3.27-5.48,6.63" transform="translate(-0.05 0)"/><path class="cls-2" d="M147.24,14.46A64,64,0,0,0,141.75,21" transform="translate(-0.05 0)"/><path class="cls-2" d="M147.26,21.42l-5.68,6.82" transform="translate(-0.05 0)"/><path class="cls-2" d="M147.42,28.07l-5.87,6.66" transform="translate(-0.05 0)"/><path class="cls-2" d="M147.33,34.55a55.13,55.13,0,0,0-6.06,6.89" transform="translate(-0.05 0)"/><path class="cls-2" d="M147.21,42.12l-3.65,3.73a15.14,15.14,0,0,0-2.19,2.6" transform="translate(-0.05 0)"/><path class="cls-2" d="M147.3,48.09a84.63,84.63,0,0,0-6,6" transform="translate(-0.05 0)"/><path class="cls-2" d="M147.17,53.71l-1.37,1.14a32,32,0,0,0-4.61,4.38" transform="translate(-0.05 0)"/><path class="cls-2" d="M147.27,59.79a4.54,4.54,0,0,1-.87.89c-1.95,1.66-3.29,2.85-5.24,4.51" transform="translate(-0.05 0)"/><path class="cls-2" d="M152.06,61.72a39.6,39.6,0,0,0-4.51,4.95" transform="translate(-0.05 0)"/><path class="cls-2" d="M160.23,61.44a63.8,63.8,0,0,0-5.41,5.43" transform="translate(-0.05 0)"/><path class="cls-2" d="M165.71,61.74a58.62,58.62,0,0,0-5.07,5.14" transform="translate(-0.05 0)"/><path class="cls-2" d="M186.57,61.54A42.75,42.75,0,0,0,182.24,67" transform="translate(-0.05 0)"/><path class="cls-2" d="M180.67,61.9c-1.68,1.28-2.91,3.53-4.3,5.12" transform="translate(-0.05 0)"/><path class="cls-2" d="M174.43,61.9A19.61,19.61,0,0,0,171,67.06" transform="translate(-0.05 0)"/><path class="cls-2" d="M168.89,61.8A27.3,27.3,0,0,0,165.42,67" transform="translate(-0.05 0)"/><path class="cls-2" d="M166,36.83q-2,3.2-3.67,6.57" transform="translate(-0.05 0)"/><path class="cls-2" d="M166,43.63q2.24-3.43,4.26-7" transform="translate(-0.05 0)"/><path class="cls-2" d="M172,43.71c-.1-.05,0-.2,0-.3l4.32-6.53" transform="translate(-0.05 0)"/><path class="cls-2" d="M180.67,19.21l4.2-6-.39.12" transform="translate(-0.05 0)"/><path class="cls-2" d="M176.31,18.72a15.15,15.15,0,0,0,1.25-1.37A40.73,40.73,0,0,1,180.93,13" transform="translate(-0.05 0)"/><path class="cls-2" d="M171.68,18.79l4.55-6.08" transform="translate(-0.05 0)"/><path class="cls-2" d="M167.76,18.43l3.3-5.63" transform="translate(-0.05 0)"/><path class="cls-2" d="M162.46,18.35l1.74-3,1.33-2.27.23-.37" transform="translate(-0.05 0)"/><path class="cls-2" d="M257.74,8.07q-2.79,3.27-5.48,6.63" transform="translate(-0.05 0)"/><path class="cls-2" d="M257.59,14.79a64,64,0,0,0-5.49,6.51" transform="translate(-0.05 0)"/><path class="cls-2" d="M257.61,21.75l-5.68,6.82" transform="translate(-0.05 0)"/><path class="cls-2" d="M257.77,28.4l-5.87,6.66" transform="translate(-0.05 0)"/><path class="cls-2" d="M257.68,34.88a55.13,55.13,0,0,0-6.06,6.89" transform="translate(-0.05 0)"/><path class="cls-2" d="M257.56,42.45l-3.65,3.73a15.14,15.14,0,0,0-2.19,2.6" transform="translate(-0.05 0)"/><path class="cls-2" d="M257.65,48.42a84.63,84.63,0,0,0-6,6" transform="translate(-0.05 0)"/><path class="cls-2" d="M257.52,54l-1.37,1.14a32,32,0,0,0-4.61,4.38" transform="translate(-0.05 0)"/><path class="cls-2" d="M257.62,60.12a4.54,4.54,0,0,1-.87.89c-1.95,1.66-3.29,2.85-5.24,4.51" transform="translate(-0.05 0)"/><path class="cls-2" d="M262.41,62A39.6,39.6,0,0,0,257.9,67" transform="translate(-0.05 0)"/><path class="cls-2" d="M270.58,61.77a63.8,63.8,0,0,0-5.41,5.43" transform="translate(-0.05 0)"/><path class="cls-2" d="M276.05,62.07A58.62,58.62,0,0,0,271,67.2" transform="translate(-0.05 0)"/><path class="cls-2" d="M296.92,61.87a42.75,42.75,0,0,0-4.33,5.48" transform="translate(-0.05 0)"/><path class="cls-2" d="M291,62.23c-1.68,1.28-2.91,3.53-4.3,5.12" transform="translate(-0.05 0)"/><path class="cls-2" d="M284.78,62.23a19.61,19.61,0,0,0-3.46,5.16" transform="translate(-0.05 0)"/><path class="cls-2" d="M279.24,62.13a27.3,27.3,0,0,0-3.47,5.19" transform="translate(-0.05 0)"/><path class="cls-2" d="M276.33,37.16q-2,3.2-3.67,6.57" transform="translate(-0.05 0)"/><path class="cls-2" d="M276.31,44q2.24-3.43,4.26-7" transform="translate(-0.05 0)"/><path class="cls-2" d="M282.4,44c-.1-.05,0-.2,0-.3l4.32-6.53" transform="translate(-0.05 0)"/><path class="cls-2" d="M291,19.54l4.2-6-.39.12" transform="translate(-0.05 0)"/><path class="cls-2" d="M286.66,19.05a15.15,15.15,0,0,0,1.25-1.37,40.73,40.73,0,0,1,3.37-4.32" transform="translate(-0.05 0)"/><path class="cls-2" d="M282,19.12,286.58,13" transform="translate(-0.05 0)"/><path class="cls-2" d="M278.11,18.76l3.3-5.63" transform="translate(-0.05 0)"/><path class="cls-2" d="M272.81,18.68l1.74-3,1.33-2.27.23-.37" transform="translate(-0.05 0)"/><path class="cls-2" d="M198.8,6.26q-2.18,2.55-4.47,5" transform="translate(-0.05 0)"/><path class="cls-2" d="M198.67,12.64c-1.48,1.69-2.87,3.16-4.47,4.74" transform="translate(-0.05 0)"/><path class="cls-2" d="M198.34,19.31a28.8,28.8,0,0,0-4.09,3.58" transform="translate(-0.05 0)"/><path class="cls-2" d="M198.61,24.7q-2.3,2.2-4.4,4.59" transform="translate(-0.05 0)"/><path class="cls-2" d="M198.51,30.6l-4.31,4.48" transform="translate(-0.05 0)"/><path class="cls-2" d="M198.6,36.19c-1.65,1.55-2.81,2.75-4.34,4.42" transform="translate(-0.05 0)"/><path class="cls-2" d="M198.52,42.48A41.43,41.43,0,0,1,194.19,47" transform="translate(-0.05 0)"/><path class="cls-2" d="M198.41,47.39a50.18,50.18,0,0,0-4.22,4.11" transform="translate(-0.05 0)"/><path class="cls-2" d="M198.5,54.1l-4.26,4.11" transform="translate(-0.05 0)"/><path class="cls-2" d="M198.82,58.61l-4.46,4.23" transform="translate(-0.05 0)"/><path class="cls-2" d="M197.5,66.34a46.72,46.72,0,0,1,4-4.93l-.19.3" transform="translate(-0.05 0)"/><path class="cls-2" d="M202.81,66.42q2-2.39,4.16-4.59" transform="translate(-0.05 0)"/><path class="cls-2" d="M214.46,17.41a47.19,47.19,0,0,1,6.34-5.61" transform="translate(-0.05 0)"/><path class="cls-2" d="M220.67,17.5a30.49,30.49,0,0,1,5.74-5.08" transform="translate(-0.05 0)"/><path class="cls-2" d="M226.41,19.91a35,35,0,0,1,5.19-5" transform="translate(-0.05 0)"/><path class="cls-2" d="M228.74,23.7l4.62-4" transform="translate(-0.05 0)"/><path class="cls-2" d="M213.59,44.69q2.56-3.59,5.43-7" transform="translate(-0.05 0)"/><path class="cls-2" d="M217.48,44.61c1.55-2,3.92-4.81,5.47-6.79" transform="translate(-0.05 0)"/><path class="cls-2" d="M221.58,46.1l3.63-4.53" transform="translate(-0.05 0)"/><path class="cls-2" d="M223.93,53.88a68.12,68.12,0,0,1,4-5.74" transform="translate(-0.05 0)"/><path class="cls-2" d="M226.23,60.89a38.38,38.38,0,0,1,4-5.92" transform="translate(-0.05 0)"/><path class="cls-2" d="M222.57,49.75a11.93,11.93,0,0,1,3.66-3.8" transform="translate(-0.05 0)"/><path class="cls-2" d="M228.72,65.7a19,19,0,0,1,3.72-5" transform="translate(-0.05 0)"/><path class="cls-2" d="M233.47,67.27a2,2,0,0,1,.56-1.05l3-4.1" transform="translate(-0.05 0)"/><path class="cls-2" d="M238.72,67.08A26.9,26.9,0,0,1,243,61.14" transform="translate(-0.05 0)"/><path class="cls-4" d="M147.38,61.23c-.07.52,43.05.74,43.26.52s.24-11.49,0-11.75-28,.25-28.63-.08c-1-.53-.48-12.74-.07-13.17s22.1.43,22.42,0,.8-10.86.08-11.17-21.85.3-22.26,0-.48-12-.08-12.39,19,0,28.25.17c-.06-3.23.54-11.14.17-11.65,0,0-42.19-.23-42.75.9C146.56,5,147.52,60.09,147.38,61.23Z" transform="translate(-0.05 0)"/><path class="cls-4" d="M257.73,61.56c-.07.52,43.05.74,43.26.52s.24-11.49,0-11.75-28,.25-28.63-.08c-1-.53-.48-12.74-.07-13.17s22.1.43,22.42,0,.8-10.86.08-11.17-21.85.3-22.26,0-.48-12-.08-12.39,19,0,28.25.17c-.06-3.23.54-11.14.17-11.65,0,0-42.19-.23-42.75.9C256.91,5.29,257.87,60.42,257.73,61.56Z" transform="translate(-0.05 0)"/><path class="cls-4" d="M247.53,60.53C244.08,52.76,236.9,35,236.9,35c8.67-3.25,10.45-10.59,10.33-14.5a23.89,23.89,0,0,0-1.33-8.07c-1-3.47-4.63-7.55-10-9.21-3.33-1-19-1.33-24.7-1.54-3.13-.11-11.77-.8-12.17,0-1,1.94-.51,59.81-.41,59.82,3.92.41,14.08.78,14.49.34s.49-16.24.27-24.22l9.53.2c3.6,7.69,9,23.74,9.36,24s9.23-.06,14.38,0A.91.91,0,0,0,247.53,60.53ZM232,24.07c-1.67,2.93-7.93,4.46-19.08,4.1-.28-2.65-.43-14.27-.11-15.74.27-1.24,11.34-.52,14,.07a8.84,8.84,0,0,1,3.83,2C233.2,16.4,233.56,21.3,232,24.07Z" transform="translate(-0.05 0)"/></g></g></svg>