<svg xmlns="http://www.w3.org/2000/svg" viewBox="0 0 270.24 80"><defs><style>.cls-1{fill:none;}.cls-1,.cls-4{stroke:#000105;stroke-miterlimit:10;}.cls-2,.cls-4{fill:#fff;}.cls-3{fill:#000105;}</style></defs><title>whereami_ru</title><g id="Слой_2" data-name="Слой 2"><g id="Слой_12" data-name="Слой 12"><path class="cls-1" d="M186.25,18.93c2-1.9,5.13-2,7.92-2,1.42,0,3,.08,3.94,1.17a4.44,4.44,0,0,1,.79,1.79,23.79,23.79,0,0,1,.64,8" transform="translate(0 0)"/><path class="cls-1" d="M191.27,44.32c1.28-.28,7.64-.47,8.36.62s-.29,22,1.68,23.18c1,.63,14.62.48,15,.3a26.57,26.57,0,0,0,4.12-7.14" transform="translate(0 0)"/><path class="cls-1" d="M173.78,11.3c-9.4,16.29,1.67,23.94,1.85,25,.43,2.4-13.91,27.6-12.25,29.35,1.17,1.24,16,2.72,16.34,2.42a22.41,22.41,0,0,0,5.13-6.21" transform="translate(0 0)"/><path class="cls-1" d="M170,26.24q1.16-1.91,2.41-3.76" transform="translate(0 0)"/><path class="cls-1" d="M172.3,31.66q1.35-1.9,2.73-3.78s.08-.1.14-.09.07.12,0,.11" transform="translate(0 0)"/><path class="cls-1" d="M175.09,35.85a28.28,28.28,0,0,1,2.71-3.75" transform="translate(0 0)"/><path class="cls-1" d="M173.91,41.1a59.17,59.17,0,0,1,7.59-3.63.35.35,0,0,1-.33.21" transform="translate(0 0)"/><path class="cls-1" d="M170.89,47.44c1.73-1.08,3.11-2,4.84-3.09a16.26,16.26,0,0,1,2.79-1.42" transform="translate(0 0)"/><path class="cls-1" d="M168.07,53.43c1.05-.55,1.65-1,2.7-1.52a12.06,12.06,0,0,1,4.31-1.59" transform="translate(0 0)"/><path class="cls-1" d="M165,60a23.58,23.58,0,0,1,6.78-2.87" transform="translate(0 0)"/><path class="cls-1" d="M164.82,66.13a43.48,43.48,0,0,1,6.48-4.54l-.21.18" transform="translate(0 0)"/><path class="cls-1" d="M170.74,67.07c0-.27.54-.72.75-.9L177,61.38" transform="translate(0 0)"/><path class="cls-1" d="M177,67.84a2.69,2.69,0,0,1,.77-.93c1.74-1.54,3.86-3.26,5.6-4.79" transform="translate(0 0)"/><path class="cls-1" d="M192.25,44.1a49.41,49.41,0,0,0,6.81-5.79,1.17,1.17,0,0,1,.87-.47" transform="translate(0 0)"/><path class="cls-1" d="M199.45,44.75c2.06-1.87,4.77-4.44,6.83-6.3" transform="translate(0 0)"/><path class="cls-1" d="M199.77,51.7a47.32,47.32,0,0,1,6.55-6" transform="translate(0 0)"/><path class="cls-1" d="M200,57.73a42.08,42.08,0,0,1,6.3-5.72" transform="translate(0 0)"/><path class="cls-1" d="M200.25,64l6-5.75" transform="translate(0 0)"/><path class="cls-1" d="M202.57,68.57l6.75-6.73" transform="translate(0 0)"/><path class="cls-1" d="M210.44,68.38a67.81,67.81,0,0,0,5.26-7.3l-.37.18" transform="translate(0 0)"/><path class="cls-1" d="M189.07,17.68a1.81,1.81,0,0,1,.73-1.21q1.87-1.75,3.83-3.42" transform="translate(0 0)"/><path class="cls-1" d="M195.9,16.84a23.77,23.77,0,0,1,4.78-4.21" transform="translate(0 0)"/><path class="cls-1" d="M199.23,20.24q3.6-3.17,7.45-6" transform="translate(0 0)"/><path class="cls-1" d="M199.45,25q3.25-2.6,6.64-5" transform="translate(0 0)"/><path class="cls-1" d="M202.3,28a35,35,0,0,1,4.29-3.31.23.23,0,0,0-.25-.06" transform="translate(0 0)"/><path class="cls-1" d="M237.9,3.6c-7.45,2.59-13.38,8.93-13.73,16.81-.05,1.23,0,3.63.76,4.56.62.73,9.24,1.35,10.59,1.12.73-.12,3-1.87,4-3.92" transform="translate(0 0)"/><path class="cls-1" d="M241.39,15.85c2.08-.87,4.95-1.49,7.05-.69a5.19,5.19,0,0,1,2.83,3.31,6.59,6.59,0,0,1-.11,2.71,28.21,28.21,0,0,1-2.34,8" transform="translate(0 0)"/><path class="cls-1" d="M246.08,30.15a35.3,35.3,0,0,0-5.16,4.06,11.86,11.86,0,0,0-2,2.73c-1.07,2.15-.83,9.3-.1,10.09.59.64,9.53,1.43,10,1.28a8.92,8.92,0,0,0,5-4.18" transform="translate(0 0)"/><path class="cls-1" d="M242.62,48.76c-1.08,1-4.5,3.78-4.83,4.51s-.07,12.32,1,13c.6.38,12.83.17,13.75-.5a21.62,21.62,0,0,0,4-4.47" transform="translate(0 0)"/><path class="cls-1" d="M259.21,60.88" transform="translate(0 0)"/><path class="cls-1" d="M226.95,11.92a23.38,23.38,0,0,1,5-2.66l-.29.13" transform="translate(0 0)"/><path class="cls-1" d="M224.37,18.2a5.4,5.4,0,0,1,1.22-1.36,32.78,32.78,0,0,1,4.55-3.31" transform="translate(0 0)"/><path class="cls-1" d="M224.57,24.3q2-2.14,4.23-4.11" transform="translate(0 0)"/><path class="cls-1" d="M229.92,26a1.29,1.29,0,0,1,.55-.83q2-1.74,4.08-3.35" transform="translate(0 0)"/><path class="cls-1" d="M245.35,14.91a26.35,26.35,0,0,1,4.82-3.31" transform="translate(0 0)"/><path class="cls-1" d="M250.85,16.73,254.95,14s.07-.06.06-.1-.09,0-.06,0" transform="translate(0 0)"/><path class="cls-1" d="M250.95,22.52c1.61-1.15,3.66-2.45,5.38-3.43l-.34,0" transform="translate(0 0)"/><path class="cls-1" d="M238.3,38.61a21.57,21.57,0,0,1,5.14-3.2l-.37.22" transform="translate(0 0)"/><path class="cls-1" d="M238.27,43.91a39.3,39.3,0,0,1,4.62-4" transform="translate(0 0)"/><path class="cls-1" d="M239.9,47.41l3.89-3.31" transform="translate(0 0)"/><path class="cls-1" d="M245.52,48.14c1.27-1.29,3.21-3.13,4.56-4.34" transform="translate(0 0)"/><path class="cls-1" d="M237.66,57.32c1.69-1.57,3.8-3.4,5.59-4.84" transform="translate(0 0)"/><path class="cls-1" d="M238.12,64a58.56,58.56,0,0,1,4.23-4.68" transform="translate(0 0)"/><path class="cls-1" d="M241.72,66.29A42.23,42.23,0,0,1,246,61.62" transform="translate(0 0)"/><path class="cls-1" d="M248,66.45A35.47,35.47,0,0,1,252,61.73" transform="translate(0 0)"/><path class="cls-2" d="M234.93,5.79c-4.09,3.09-7.54,14.75-7.09,14.88,1.41.41,11.26,1.86,12,1.47.28-.16-.31-8.62,6.5-10.5,10.28-2.83,11.44,8.19,7.28,12.94-1.35,1.55-6.69,3.45-9.44,8.06-2.31,3.87-1.59,9.77-1.14,11.77,0,0,8.82-.08,10.81,0a.42.42,0,0,0,.44-.37c.26-3-1-4,.74-5.6,6.11-5.73,15.53-10.7,14.72-21.32C268.41,0,244.86-4.13,234.93,5.79" transform="translate(0 0)"/><path class="cls-3" d="M234.58,5.44c-2.37,1.93-3.78,5-4.94,7.71-.62,1.45-1.17,2.94-1.64,4.45-.23.74-.85,2-.69,2.83.28,1.38,3.1,1.23,4.23,1.41,1.47.22,2.94.43,4.41.6,1,.11,2.61.55,3.6.25,1.28-.39.89-2,1.1-3.17.7-4,2.93-7,7.08-7.69,4-.66,7.17,1.41,7.57,5.5a8.52,8.52,0,0,1-3.24,7.83c-3.35,2.31-7,4.25-8.8,8.13-1.57,3.42-1.48,7.63-.73,11.25a.51.51,0,0,0,.48.37c2.34.2,4.78,0,7.12,0,2.15,0,4.73.91,4.66-1.93-.06-2.25-.49-3.23,1.43-4.95,1.46-1.3,3-2.51,4.48-3.76a32.56,32.56,0,0,0,7.29-7.8A16.72,16.72,0,0,0,266.86,8C263.47,3.52,258,1,252.52.23c-6.36-.85-13.24.65-17.94,5.21-.46.45.24,1.16.71.71C244-2.3,261.52-.24,267.36,10.66c4,7.38,1.2,15-4.53,20.39-2.55,2.41-5.47,4.4-8,6.85a3.53,3.53,0,0,0-1.3,2.64c0,.7.23,1.39.22,2.08,0,1.19-.07,1.13-1,1.28-2.65.41-5.71,0-8.4,0a3.68,3.68,0,0,1-1.1,0s.08.09.09-.57c0-1.83-.37-3.61-.19-5.47.47-4.94,3.5-8.08,7.5-10.64,2-1.29,3.7-2.29,4.74-4.55,1.67-3.66,1.38-9.13-2.56-11.23-4.73-2.53-10.71.59-12.46,5.29a15.51,15.51,0,0,0-.8,3.37,8.36,8.36,0,0,1-.15,1.43c-.16.47.45.15-.33.16a53.3,53.3,0,0,1-9.18-1.13,5.24,5.24,0,0,1-1.65-.31c.17.14,0,0,.2-.57.48-1.27.76-2.64,1.23-3.92,1.22-3.34,2.77-7.3,5.61-9.61.5-.41-.21-1.11-.71-.71Z" transform="translate(0 0)"/><path class="cls-2" d="M242.62,48.48c0,5.88-.61,12.46,0,13.16.28.32,14,.08,13.89-.34-.14-.59.42-13.13-.54-12.94-1.54.31-11.57-.39-13.35.13" transform="translate(0 0)"/><path class="cls-3" d="M242.12,48.48c0,3.79-.38,7.59-.26,11.38,0,1.09-.06,2,1,2.34,1.53.49,3.78.09,5.36.07,2.18,0,4.36-.07,6.54-.22.69,0,1.84.07,2.22-.62s0-3.25,0-4.18c0-2.28.09-4.57-.07-6.85-.06-.82,0-2.14-.85-2.53a8.43,8.43,0,0,0-2.28.06c-1.38,0-2.77-.06-4.15-.09-2.31-.06-4.91-.38-7.18.16-.63.15-.36,1.11.27,1,2.17-.51,4.71-.17,6.92-.12,1.23,0,2.47.07,3.7.08a10.51,10.51,0,0,1,2.56-.07c-.2-.17,0,1.61,0,1.93.06,1.08.07,2.16.07,3.24a63.62,63.62,0,0,0-.06,6.47,2.73,2.73,0,0,1,0,.73c-.09.37.5-.34.05-.3-.87.09-1.74.15-2.61.2-2.21.11-4.42.15-6.62.16a12.91,12.91,0,0,1-3.07,0c-1-.26-.82.17-.89-1.14-.2-3.86.24-7.77.26-11.63a.5.5,0,0,0-1,0Z" transform="translate(0 0)"/><path class="cls-4" d="M219.81,1.88c-.3-.24-28.14.12-30.4.37a26.2,26.2,0,0,0-8.95,2.31A16.06,16.06,0,0,0,171.94,19c0,6,3.09,12.53,8.44,15.19.86.43,2.08.38,2,1.33a2.24,2.24,0,0,1-.33.85A219.8,219.8,0,0,0,170.3,61a.64.64,0,0,0,.7.86c4.79-.75,13.39.54,13.68.36s5.2-15.84,8.85-22.74a1.82,1.82,0,0,1,.51-.68,1.84,1.84,0,0,1,1-.24l11.28-.72c-.1,4.87,0,24,.18,24.21s9.88-.1,13.74-.1C221,60.32,220.16,2.15,219.81,1.88ZM206.39,28a128.37,128.37,0,0,1-15-.62c-1-.13-3.83-1.73-4.48-3.85a9.6,9.6,0,0,1-.66-3.69,8.4,8.4,0,0,1,2.5-5.33c1.77-1.88,15.24-2.16,17-2C206.91,12.66,206.27,24.23,206.39,28Z" transform="translate(0 0)"/><path class="cls-1" d="M99.69,2.64C98,4.37,94,8.58,93.77,9s-1,57.05-.83,57.4,43.84.8,44.42.51a12,12,0,0,0,5-5.29" transform="translate(0 0)"/><path class="cls-1" d="M142.07,13.25A36,36,0,0,1,136.16,19c-.84.45-16.89-1-23.83-.3" transform="translate(0 0)"/><path class="cls-1" d="M136.16,36.53c-2.07,2.18-6.7,7.06-7,7.19s-10.52.15-16.33-.1c.15,0-.39.87-.24.9" transform="translate(0 0)"/><path class="cls-1" d="M99.14,7.67q-2.79,3.27-5.48,6.63" transform="translate(0 0)"/><path class="cls-1" d="M99,14.38a64,64,0,0,0-5.49,6.51" transform="translate(0 0)"/><path class="cls-1" d="M99,21.35l-5.68,6.82" transform="translate(0 0)"/><path class="cls-1" d="M99.17,28,93.3,34.65" transform="translate(0 0)"/><path class="cls-1" d="M99.08,34.48A55.13,55.13,0,0,0,93,41.36" transform="translate(0 0)"/><path class="cls-1" d="M99,42l-3.65,3.73a15.14,15.14,0,0,0-2.19,2.6" transform="translate(0 0)"/><path class="cls-1" d="M99.05,48a84.63,84.63,0,0,0-6,6" transform="translate(0 0)"/><path class="cls-1" d="M98.92,53.63l-1.37,1.14a32,32,0,0,0-4.61,4.38" transform="translate(0 0)"/><path class="cls-1" d="M99,59.71a4.54,4.54,0,0,1-.87.89c-1.95,1.66-3.29,2.85-5.24,4.51" transform="translate(0 0)"/><path class="cls-1" d="M103.82,61.64a39.6,39.6,0,0,0-4.51,4.95" transform="translate(0 0)"/><path class="cls-1" d="M112,61.37a63.8,63.8,0,0,0-5.41,5.43" transform="translate(0 0)"/><path class="cls-1" d="M117.46,61.66a58.62,58.62,0,0,0-5.07,5.14" transform="translate(0 0)"/><path class="cls-1" d="M138.32,61.46A42.75,42.75,0,0,0,134,66.94" transform="translate(0 0)"/><path class="cls-1" d="M132.42,61.82c-1.68,1.28-2.91,3.53-4.3,5.12" transform="translate(0 0)"/><path class="cls-1" d="M126.18,61.82A19.61,19.61,0,0,0,122.72,67" transform="translate(0 0)"/><path class="cls-1" d="M120.64,61.72a27.3,27.3,0,0,0-3.47,5.19" transform="translate(0 0)"/><path class="cls-1" d="M117.73,36.75q-2,3.2-3.67,6.57" transform="translate(0 0)"/><path class="cls-1" d="M117.72,43.55q2.24-3.43,4.26-7" transform="translate(0 0)"/><path class="cls-1" d="M123.8,43.64c-.1-.05,0-.2,0-.3l4.32-6.53" transform="translate(0 0)"/><path class="cls-1" d="M132.42,19.13l4.2-6-.39.12" transform="translate(0 0)"/><path class="cls-1" d="M128.06,18.65a15.15,15.15,0,0,0,1.25-1.37A40.73,40.73,0,0,1,132.69,13" transform="translate(0 0)"/><path class="cls-1" d="M123.43,18.71,128,12.63" transform="translate(0 0)"/><path class="cls-1" d="M119.51,18.36l3.3-5.63" transform="translate(0 0)"/><path class="cls-1" d="M114.21,18.27l1.74-3L117.28,13l.23-.37" transform="translate(0 0)"/><path class="cls-4" d="M99.13,61.15c-.07.52,43.05.74,43.26.52s.24-11.49,0-11.75-28,.25-28.63-.08c-1-.53-.48-12.74-.07-13.17s22.1.43,22.42,0,.8-10.86.08-11.17-21.85.3-22.26,0-.48-12-.08-12.39,19,0,28.25.17c-.06-3.23.54-11.14.17-11.65,0,0-42.19-.23-42.75.9C98.31,4.88,99.28,60,99.13,61.15Z" transform="translate(0 0)"/><path class="cls-4" d="M94.29,71.42c-.55-6.81.23-14.07-.32-20.89,0-.28-3.63,0-5.24,0a.61.61,0,0,1-.63-.41c-2.67-12.06-10.72-43.21-12.22-48A.82.82,0,0,0,75,1.67c-5.07.25-20.51-.47-20.74.18-1.06,3.06-2.43,8.4-3.06,11.25-.91,4.07-6.69,28.83-9,37.7-1.78-.16-3.74-.27-5.6-.31a.64.64,0,0,0-.64.75c1.11,6.92-.13,13.85,0,22.17a.83.83,0,0,0,1,.81l7.7.14a.56.56,0,0,0,.58-.61c-.26-3,1.4-9,1.4-12,0-1.07,36.28-.15,36.56,0s1.2,7.81,1.71,12.17a.58.58,0,0,0,.63.51c2.33-.23,8.35.47,8.66,0A8.43,8.43,0,0,0,94.29,71.42ZM72.22,50.47c-6.21-.6-11.54.14-17.89.14C56.57,40,61,13.52,62.62,13.18c.52-.11,2.39-.38,2.54.29.59,2.53,6.65,33.7,7.71,36A.66.66,0,0,1,72.22,50.47Z" transform="translate(0 0)"/><path class="cls-4" d="M6.95,61.58c4.72.84,9,.32,13.8.17-.16-15.78.09-32.24-.08-48,6.66.09,20.81.56,20.73,0-.43-2.83,0-8.89,0-11.75C41.4.57,12.25,1.86,7,2.33,6.62,12,7.49,51.66,6.95,61.58Z" transform="translate(0 0)"/><path class="cls-1" d="M7,2.33C5.85,4,3,5.91,1.5,8,.91,8.87.37,46.28.53,62.57c0,2.47.21,3.79,2.46,4.8,1.27.57,14.47,0,14.59-.25,1.25-2.37,1.92-3,3.17-5.37" transform="translate(0 0)"/><path class="cls-1" d="M20.75,20.66c5.37-.87,15.65-.25,16.08-.42s3.41-4.6,4.35-6.46" transform="translate(0 0)"/><path class="cls-1" d="M6.91,8.46c.12,0,.09.19,0,.28l-5.6,6.78-.24-.11" transform="translate(0 0)"/><path class="cls-1" d="M.77,22.94q3-4,6.28-7.87l-.3.25" transform="translate(0 0)"/><path class="cls-1" d="M.77,30.63a13.46,13.46,0,0,1,1.55-2.58,68.32,68.32,0,0,1,4.82-6l-.22.26" transform="translate(0 0)"/><path class="cls-1" d="M.71,38.09a37.87,37.87,0,0,1,6.42-8.23" transform="translate(0 0)"/><path class="cls-1" d="M.61,46.79a35,35,0,0,1,6.5-7.61" transform="translate(0 0)"/><path class="cls-1" d="M.47,53.77a24.78,24.78,0,0,1,6.75-6.62" transform="translate(0 0)"/><path class="cls-1" d="M.58,60.76c-.1,0-.05-.2,0-.29a30.42,30.42,0,0,1,5.7-5.38A.85.85,0,0,1,7,54.83" transform="translate(0 0)"/><path class="cls-1" d="M1.55,66.07a3.25,3.25,0,0,1,1-1.3l2.86-2.6A4.71,4.71,0,0,1,7,61.09" transform="translate(0 0)"/><path class="cls-1" d="M8.29,67.45,9.55,66c1-1.19,2.35-2.62,3.35-3.81" transform="translate(0 0)"/><path class="cls-1" d="M15.76,67.66A2.48,2.48,0,0,1,16.25,66C17,64.7,18,63.09,18.87,61.83" transform="translate(0 0)"/><path class="cls-1" d="M31.3,20.19,35.11,14" transform="translate(0 0)"/><path class="cls-1" d="M26,20.24c1.11-2.38,3.42-4.06,4.4-6.5" transform="translate(0 0)"/><path class="cls-1" d="M20.84,20.48a3.13,3.13,0,0,1,.73-1.65,37.81,37.81,0,0,0,2.93-5.06" transform="translate(0 0)"/><path class="cls-1" d="M54.71,1.57a45.83,45.83,0,0,0-6.15,3.9c-.3.31-8.82,29.63-10.92,45" transform="translate(0 0)"/><path class="cls-1" d="M45,74.21a34.57,34.57,0,0,1-3.46,4c-.26.13-10.75-.23-10.91-.44s.78-21.68,1.05-22.25c.72-1.52,3-3.68,4.26-4.68" transform="translate(0 0)"/><path class="cls-1" d="M45.79,66.53c2.88-1.38,29.92-.46,31.15.59,1.62,1.38,1.75,9.71,1.88,11.53,0,.54,12,1.24,12.75.56,1.35-3,1.33-2,2.68-5" transform="translate(0 0)"/><path class="cls-1" d="M59.89,21.38a146.78,146.78,0,0,1,6.7,29.16" transform="translate(0 0)"/><path class="cls-1" d="M47,10.69a43.27,43.27,0,0,1,4.53-2.84,2.13,2.13,0,0,1,.87-.31l-.12.18" transform="translate(0 0)"/><path class="cls-1" d="M45.59,16.06a17.4,17.4,0,0,1,3.52-2.44l1.75-1s.09,0,.13,0,0,.09,0,0" transform="translate(0 0)"/><path class="cls-1" d="M43.88,21.86a18.31,18.31,0,0,0,2-1.45,13.91,13.91,0,0,1,3.86-2" transform="translate(0 0)"/><path class="cls-1" d="M42.59,26.65l5.16-3.18a1.25,1.25,0,0,1,1.06-.27" transform="translate(0 0)"/><path class="cls-1" d="M41.4,32.12A22.33,22.33,0,0,1,47.51,29a.18.18,0,0,0,.11-.08s0-.11-.07-.09" transform="translate(0 0)"/><path class="cls-1" d="M39.91,38.25Q42,37,44.14,35.8a5,5,0,0,1,1.91-.7l-.31,0" transform="translate(0 0)"/><path class="cls-1" d="M39,43.29l4.82-3.1.85-.54" transform="translate(0 0)"/><path class="cls-1" d="M37.77,49.07l5.8-3.7" transform="translate(0 0)"/><path class="cls-1" d="M60.5,19.61a51.31,51.31,0,0,1,5-4.13" transform="translate(0 0)"/><path class="cls-1" d="M61.47,26.31a62.07,62.07,0,0,1,5.13-4.91l-.23.12" transform="translate(0 0)"/><path class="cls-1" d="M63.1,32l5-5.09" transform="translate(0 0)"/><path class="cls-1" d="M64.56,38.4a15.18,15.18,0,0,1,1.2-1.48L69.5,33" transform="translate(0 0)"/><path class="cls-1" d="M65.42,43.29l5-4.77" transform="translate(0 0)"/><path class="cls-1" d="M66.45,49.38a31.81,31.81,0,0,1,5.21-5.23l-.48.38" transform="translate(0 0)"/><path class="cls-1" d="M31.34,60.2a15.17,15.17,0,0,1,5-4.13" transform="translate(0 0)"/><path class="cls-1" d="M31.13,65.41a13.92,13.92,0,0,1,3.28-3.13,7.45,7.45,0,0,1,1.9-1l-.25.1" transform="translate(0 0)"/><path class="cls-1" d="M30.7,70.42a19.6,19.6,0,0,1,5.4-4.31" transform="translate(0 0)"/><path class="cls-1" d="M30.63,75.3a12.1,12.1,0,0,1,4.47-3.67,1.21,1.21,0,0,1,.71-.19" transform="translate(0 0)"/><path class="cls-1" d="M34.08,78a22.1,22.1,0,0,0,4-3.89" transform="translate(0 0)"/><path class="cls-1" d="M39.41,78.38a19.8,19.8,0,0,0,3.55-4" transform="translate(0 0)"/><path class="cls-1" d="M46.49,66.41c0-.12.06-.23.14-.32l3.22-3.49c.52-.57.67-.75,1.22-1.3" transform="translate(0 0)"/><path class="cls-1" d="M53,65.84a13,13,0,0,1,1.75-2.17c.77-.92,1-1.51,1.74-2.43" transform="translate(0 0)"/><path class="cls-1" d="M58.36,65.83a36.89,36.89,0,0,0,4-4.53" transform="translate(0 0)"/><path class="cls-1" d="M62.92,66a41.31,41.31,0,0,0,4.14-4.63" transform="translate(0 0)"/><path class="cls-1" d="M67.81,66a39.14,39.14,0,0,0,4.36-4.76" transform="translate(0 0)"/><path class="cls-1" d="M73.31,66.51c1.13-1.8,3.17-3.06,4.09-5" transform="translate(0 0)"/><path class="cls-1" d="M77,67.63a34.82,34.82,0,0,0,5.53-5.72" transform="translate(0 0)"/><path class="cls-1" d="M78.37,73.41q3.14-2.32,6-4.94" transform="translate(0 0)"/><path class="cls-1" d="M78.81,78.66a49.69,49.69,0,0,0,5.8-5.57" transform="translate(0 0)"/><path class="cls-1" d="M83.7,79.32a24.69,24.69,0,0,0,4.54-4.92" transform="translate(0 0)"/><path class="cls-1" d="M88.9,79.33a12.65,12.65,0,0,1,1.91-2.41,6.5,6.5,0,0,0,1.6-2.59" transform="translate(0 0)"/></g></g></svg>