<svg xmlns="http://www.w3.org/2000/svg" viewBox="0 0 445.47 68.25"><defs><style>.cls-1{fill:#000105;}.cls-2{fill:none;stroke:#000105;stroke-miterlimit:10;}.cls-3{fill:#fff;}</style></defs><title>whoami</title><g id="Слой_2" data-name="Слой 2"><g id="Слой_2-2" data-name="Слой 2"><path class="cls-1" d="M4.75,1.8C2.72,3.47-.17,6.68.07,9.5a36.25,36.25,0,0,0,1.1,5.21C2.73,21.33,4.5,27.9,6.27,34.47c2,7.28,4,14.54,6.07,21.78.69,2.37,1.38,4.74,2.13,7.09.26.8.49,2.32,1.21,2.88.91.7,3,.46,4,.48,2.32.06,4.66,0,7-.12A16.69,16.69,0,0,0,31.06,66c1.89-.68,2.82-2.9,3.64-4.55.29-.57-.58-1.08-.86-.5-.93,1.88-1.73,3.85-3.93,4.27a29.81,29.81,0,0,1-4.17.39q-2.74.13-5.49.08c-.9,0-3.34.27-4-.34s-.9-2.6-1.14-3.38c-.7-2.25-1.36-4.52-2-6.79C9.43,42.6,5.94,29.94,2.8,17.2c-.55-2.21-1.1-4.43-1.54-6.67-.61-3.15,1.8-6,4.2-8,.5-.41-.21-1.11-.71-.71Z" transform="translate(-0.05 0)"/><path class="cls-1" d="M38.44,1.09c-2.29.14-4.62.51-6,2.51s-1.86,4.72-2.48,7c-1.77,6.54-3.22,13.18-4.56,19.81-.13.63.84.9,1,.27Q28,22.28,30.1,14c.62-2.46,1.25-4.94,2.06-7.35C33.24,3.36,35,2.3,38.44,2.09c.64,0,.64-1,0-1Z" transform="translate(-0.05 0)"/><path class="cls-1" d="M70.69,3.05a.5.5,0,0,0,0-1,.5.5,0,0,0,0,1Z" transform="translate(-0.05 0)"/><path class="cls-1" d="M70.69,3.05a.5.5,0,0,0,0-1,.5.5,0,0,0,0,1Z" transform="translate(-0.05 0)"/><path class="cls-1" d="M71.31,1.08c-2.43,1.23-5.15,2.53-6.22,5.15a85.5,85.5,0,0,0-2.81,8.86A143.35,143.35,0,0,0,58,32.33l.73-.3L58.61,32c-.58-.28-1.08.58-.5.86l.16.08c.26.13.68,0,.73-.3a136.07,136.07,0,0,1,3.83-15.71c.83-3,1.66-5.94,2.67-8.85a10,10,0,0,1,1.07-2.61c1.11-1.51,3.61-2.65,5.25-3.48.57-.29.07-1.15-.5-.86Z" transform="translate(-0.05 0)"/><path class="cls-1" d="M66.6,61.46c-2.22,3.1-4.69,5.4-8.61,5.4a29.65,29.65,0,0,1-7.72-.62c-3-.82-3.56-5.53-4.27-8.11-1.26-4.56-2.27-9.19-3.17-13.82a64.81,64.81,0,0,1-1.56-9.88c0-.64-1-.64-1,0,.14,3.9,1.14,7.89,1.91,11.7a134.73,134.73,0,0,0,3.9,15.75A13.19,13.19,0,0,0,47.89,66c1,1.24,2.8,1.34,4.3,1.52a32.38,32.38,0,0,0,8,.23c3.14-.44,5.58-3.41,7.31-5.83.37-.52-.49-1-.86-.5Z" transform="translate(-0.05 0)"/><path class="cls-1" d="M88.5,1.24c-2.75,3.13-5.91,5.89-6.23,10.33-.14,1.9,0,3.84,0,5.75.08,6.63.26,13.27.46,19.9.21,7,.45,14,.85,21,.12,2,.21,4.07.46,6.09.13,1,.1,1.51,1,1.9,1.31.54,3.32.47,4.72.62a43,43,0,0,0,6.66.3c3.67-.2,5.35-2.36,7-5.56.29-.57-.57-1.08-.86-.5a14.06,14.06,0,0,1-2.92,4.17c-1.25,1.06-3.22.93-4.78.92s-3.4-.15-5.09-.32a18.27,18.27,0,0,1-4.32-.56c-.41-.15-.19.28-.37-.52a14.56,14.56,0,0,1-.21-2c-.19-2.18-.31-4.36-.42-6.54-.64-12.33-1-24.69-1.18-37,0-2.09-.09-4.19-.05-6.29.09-4.86,3-7.54,6-11,.42-.48-.28-1.19-.71-.71Z" transform="translate(-0.05 0)"/><path class="cls-1" d="M122.3,1.15c-2,.74-5,2.05-6.22,3.82-.83,1.16-.76,3.15-.85,4.5-.36,5.34-.18,10.7-.17,16a.5.5,0,0,0,1,0c0-4.46-.11-8.92,0-13.38.06-1.79-.14-4.17.52-5.87.76-2,4.07-3.44,6-4.15.6-.22.34-1.19-.27-1Z" transform="translate(-0.05 0)"/><path class="cls-1" d="M102,41.44c.63,1.54,6.44.47,7.68.44s4.68-.56,5.15.8c.37,1.06-.12,3-.15,4.13q0,2.42,0,4.85c0,2.84.1,5.68.28,8.51.1,1.6,0,3.73.6,5.26.4,1,.93,1.11,2,1.26a41,41,0,0,0,6.9.16,37.58,37.58,0,0,0,6.1-.32c2.47-.51,3.84-2.83,5-4.85a.5.5,0,0,0-.86-.5c-.93,1.61-2,3.62-3.88,4.27a10.17,10.17,0,0,1-3,.23c-2.55.07-5.06.27-7.62.19-.82,0-3.08.21-3.64-.5-.39-.5-.34-1.81-.4-2.4-.33-3.05-.42-6.14-.48-9.21-.07-3.39-.06-6.78.09-10.17.08-1.62.21-2.21-1.44-2.56a25.8,25.8,0,0,0-6.11-.09c-1.12,0-2.23.1-3.35.12h-1.35c-.39,0-.73-.26-.57.14-.24-.59-1.21-.33-1,.27Z" transform="translate(-0.05 0)"/><path class="cls-1" d="M163.21,16.9c3.87-3.11,7.91-.25,8.61,4.06a49.28,49.28,0,0,1,.24,10.1c-.32,6.75-1.36,13.47-1.37,20.23l1-.13a1.65,1.65,0,0,0-.47-.8c-.45-.47-1.15.24-.71.71l.21.36a.5.5,0,0,0,1-.13c0-9.6,2.1-19.14,1.3-28.76-.22-2.61-.74-5.19-2.94-6.85-2.49-1.88-5.24-1.35-7.55.51-.5.4.21,1.11.71.71Z" transform="translate(-0.05 0)"/><path class="cls-1" d="M156.76,3.79a24.58,24.58,0,0,0-6.52,4.42,29.8,29.8,0,0,0-6.43,7.15C139.69,22,138,30.11,138,37.85c0,13.4,8.8,27,22.58,29.62,8.6,1.64,15.85-2.51,22.08-8.07.48-.43-.23-1.13-.71-.71-5.56,5-12,9-19.79,8a25.78,25.78,0,0,1-16-9c-9.14-10.54-9.06-26.7-3.2-38.86a27.6,27.6,0,0,1,6.51-8.74c2.2-2,4.69-4.29,7.48-5.36.59-.23.34-1.2-.27-1Z" transform="translate(-0.05 0)"/><path class="cls-2" d="M241.19,1.59c-2.43,1.3-6,2.74-7.44,5.1-.49.82-19.16,56.27-18.65,57.25.68,1.29,13,3.06,14.45,2.33s2.51-2.33,4.07-4.91" transform="translate(-0.05 0)"/><path class="cls-2" d="M275.53,61.2a10.61,10.61,0,0,1-3.08,4.39c-.85.81-14.59.66-15.19,0-1.17-1.19-3.86-10.2-4.44-10.62-1.19-.87-4.57-.61-6.75-.62-3.45,0-6.69-.25-10.14-.27" transform="translate(-0.05 0)"/><path class="cls-2" d="M243.95,25.51c1.31,4.92,3.13,8.24,4.93,13" transform="translate(-0.05 0)"/><path class="cls-2" d="M282,1.64c-2.47,2.58-5.5,5.17-5.76,6s1.24,58.17,1.79,58.5c.34.21,12.4.25,13.23-.28s2.08-2.76,2.6-4.28" transform="translate(-0.05 0)"/><path class="cls-2" d="M294.24,35.14c.57,1.83,8.07,29.62,9.14,31,.11.15,10,1.35,11.39.48s2.2-2.78,3.55-5" transform="translate(-0.05 0)"/><path class="cls-2" d="M327.4,29.76c.07,10.57.11,35,.75,36,.78,1.22,15.3,1.21,15.55.81,1.52-2.45,2.23-3.1,3.76-5.55" transform="translate(-0.05 0)"/><path class="cls-2" d="M325.5,1.59a63.16,63.16,0,0,0-7.66,5.92c-.39.5-4.74,15.09-5.58,23" transform="translate(-0.05 0)"/><path class="cls-2" d="M382.12,2.17C380,4.08,376.38,7,375.88,9s-.84,54.95.3,57.84c.17.44,10.07,1.25,13.23.81,1.77-.25,5.24-3.27,6.69-6.25" transform="translate(-0.05 0)"/><path class="cls-2" d="M413.19,3.6c-7.45,2.59-13.38,8.93-13.73,16.81-.05,1.23,0,3.63.76,4.56.62.73,9.24,1.35,10.59,1.12.73-.12,3-1.87,4-3.92" transform="translate(-0.05 0)"/><path class="cls-2" d="M416.67,15.85c2.08-.87,4.95-1.49,7.05-.69a5.19,5.19,0,0,1,2.83,3.31,6.59,6.59,0,0,1-.11,2.71,28.21,28.21,0,0,1-2.34,8" transform="translate(-0.05 0)"/><path class="cls-2" d="M421.36,30.15a35.3,35.3,0,0,0-5.16,4.06,11.86,11.86,0,0,0-2,2.73c-1.07,2.15-.83,9.3-.1,10.09.59.64,9.53,1.43,10,1.28a8.92,8.92,0,0,0,5-4.18" transform="translate(-0.05 0)"/><path class="cls-2" d="M417.9,48.76c-1.08,1-4.5,3.78-4.83,4.51s-.07,12.32,1,13c.6.38,12.83.17,13.75-.5a21.62,21.62,0,0,0,4-4.47" transform="translate(-0.05 0)"/><path class="cls-2" d="M375.46,15.16" transform="translate(-0.05 0)"/><path class="cls-2" d="M434.5,60.88" transform="translate(-0.05 0)"/><path class="cls-2" d="M5.91,5.33C4.33,8.61,3,11.52,1.65,14.88" transform="translate(-0.05 0)"/><path class="cls-2" d="M8,12.93a111.5,111.5,0,0,0-4,10.69" transform="translate(-0.05 0)"/><path class="cls-2" d="M10.26,23a75.88,75.88,0,0,0-4.33,8.8" transform="translate(-0.05 0)"/><path class="cls-2" d="M12.41,31.58Q10,35.45,8.06,39.53" transform="translate(-0.05 0)"/><path class="cls-2" d="M15.24,41.74c-1.35,2.84-2.86,6.27-4,9.18" transform="translate(-0.05 0)"/><path class="cls-2" d="M17.08,49.74q-1.91,4.26-3.62,8.6l.06-.3" transform="translate(-0.05 0)"/><path class="cls-2" d="M19.41,58.25q-1.83,3.44-3.77,6.82" transform="translate(-0.05 0)"/><path class="cls-2" d="M22.69,62.17A35.19,35.19,0,0,0,20,66.45l.06-.19" transform="translate(-0.05 0)"/><path class="cls-2" d="M27.09,61.94a31.3,31.3,0,0,0-2.5,4.24l0-.12" transform="translate(-0.05 0)"/><path class="cls-2" d="M31.13,61.92a32.38,32.38,0,0,0-2.3,3.75" transform="translate(-0.05 0)"/><path class="cls-2" d="M38.42,2.28Q35,4.4,31.55,6.65" transform="translate(-0.05 0)"/><path class="cls-2" d="M36.67,7.61c-2.53,1.6-4.36,3.12-6.73,4.94" transform="translate(-0.05 0)"/><path class="cls-2" d="M35.13,15c-2.35,1.22-4.44,2.39-6.78,3.61" transform="translate(-0.05 0)"/><path class="cls-2" d="M33.5,20.7A62.42,62.42,0,0,1,27.25,24" transform="translate(-0.05 0)"/><path class="cls-2" d="M32.09,27.53c-1.61,1.7-3.9,2.57-5.79,4l.26-.17" transform="translate(-0.05 0)"/><path class="cls-2" d="M30.6,33.77l-.93.69-3.19,2.36.09-.05" transform="translate(-0.05 0)"/><path class="cls-2" d="M45.4,29.1c-1.51,1.82-3.26,3.89-4.58,5.85" transform="translate(-0.05 0)"/><path class="cls-2" d="M46.88,34.89a1.3,1.3,0,0,1-.36.59l-4.84,5.39" transform="translate(-0.05 0)"/><path class="cls-2" d="M48.68,42.13a62.47,62.47,0,0,0-5.57,6.1" transform="translate(-0.05 0)"/><path class="cls-2" d="M50.09,48.87c-1.84,2.26-3.43,4.25-5.35,6.44" transform="translate(-0.05 0)"/><path class="cls-2" d="M52.06,55.49l-3.22,3.77a18.63,18.63,0,0,0-2.2,2.95" transform="translate(-0.05 0)"/><path class="cls-2" d="M53.15,60.85q-2.39,2.69-4.75,5.41" transform="translate(-0.05 0)"/><path class="cls-2" d="M59.67,61.78a25.77,25.77,0,0,0-4.27,5.52" transform="translate(-0.05 0)"/><path class="cls-2" d="M64.45,62c-1.39,1.64-2.65,3.39-3.91,5.14" transform="translate(-0.05 0)"/><path class="cls-2" d="M70.33,3.76a43.73,43.73,0,0,0-5.59,4.91" transform="translate(-0.05 0)"/><path class="cls-2" d="M68.71,9.53c-1.77,1.47-3.95,3.17-5.65,4.73" transform="translate(-0.05 0)"/><path class="cls-2" d="M67,16.15a66.18,66.18,0,0,0-5.9,5" transform="translate(-0.05 0)"/><path class="cls-2" d="M65.77,22.38c-2.2,1.52-3.92,2.74-6.06,4.34" transform="translate(-0.05 0)"/><path class="cls-2" d="M64.59,28q-2.87,1.55-5.65,3.28" transform="translate(-0.05 0)"/><path class="cls-2" d="M63.65,33.26l-3.54,2.61a.22.22,0,0,0,.23-.07" transform="translate(-0.05 0)"/><path class="cls-2" d="M88.67,6.79q-3.09,3.21-6,6.62" transform="translate(-0.05 0)"/><path class="cls-2" d="M88.89,13.25c-2.15,2.07-4,4-6.11,6.16" transform="translate(-0.05 0)"/><path class="cls-2" d="M89.18,20.37a84.31,84.31,0,0,0-6.08,6.22" transform="translate(-0.05 0)"/><path class="cls-2" d="M89,26.59q-3,3.12-5.88,6.43l.34-.39" transform="translate(-0.05 0)"/><path class="cls-2" d="M89,33.66a70.79,70.79,0,0,1-5.65,6.27" transform="translate(-0.05 0)"/><path class="cls-2" d="M88.9,39.42l-5.38,6.41" transform="translate(-0.05 0)"/><path class="cls-2" d="M89,47.79a65.78,65.78,0,0,1-5.3,6.43" transform="translate(-0.05 0)"/><path class="cls-2" d="M88.88,55.91c-1.49,1.69-3.45,4-4.84,5.79" transform="translate(-0.05 0)"/><path class="cls-2" d="M89.71,60.3,85.56,66" transform="translate(-0.05 0)"/><path class="cls-2" d="M94.57,61.83a38.46,38.46,0,0,0-3.87,4.64" transform="translate(-0.05 0)"/><path class="cls-2" d="M99.67,61.7a25.93,25.93,0,0,0-3.22,4.77" transform="translate(-0.05 0)"/><path class="cls-2" d="M121.39,6.28c-2.07,1.72-3.82,3.26-5.76,5.13" transform="translate(-0.05 0)"/><path class="cls-2" d="M121.71,11.35c-2,1.48-4.3,3.39-6.13,5.06" transform="translate(-0.05 0)"/><path class="cls-2" d="M121.93,17.74c-2,1.52-4.3,3.21-6.3,4.77" transform="translate(-0.05 0)"/><path class="cls-2" d="M121.93,22.32c-1,1.06-2.36,2.28-3.4,3.34,0,0-.06,0-.09,0s0-.07,0,0" transform="translate(-0.05 0)"/><path class="cls-2" d="M107.89,36.43a52,52,0,0,0-5.32,4.89.37.37,0,0,0,.18-.18" transform="translate(-0.05 0)"/><path class="cls-2" d="M113.74,36.53a9.63,9.63,0,0,0-1.87,1.16l-3.27,3a.34.34,0,0,0,.23-.27" transform="translate(-0.05 0)"/><path class="cls-2" d="M118.34,36.72a41.16,41.16,0,0,0-4.61,4.52" transform="translate(-0.05 0)"/><path class="cls-2" d="M121.51,38.89q-3.2,2.66-6.14,5.61" transform="translate(-0.05 0)"/><path class="cls-2" d="M121.43,44.57c-2.25,2-4.12,3.66-6.28,5.72" transform="translate(-0.05 0)"/><path class="cls-2" d="M121.31,51.45l-6.16,5.34" transform="translate(-0.05 0)"/><path class="cls-2" d="M121.39,57.34q-2.93,2.76-5.62,5.76" transform="translate(-0.05 0)"/><path class="cls-2" d="M123.57,62l-3.13,3.25a1.78,1.78,0,0,0-.55.86" transform="translate(-0.05 0)"/><path class="cls-2" d="M128.47,62.22c-.83,1.28-2,2.95-3,4.15" transform="translate(-0.05 0)"/><path class="cls-2" d="M149.54,11.89l-5,3.27" transform="translate(-0.05 0)"/><path class="cls-2" d="M147.08,17.7c0,.08.14-.06.07-.1s-.16,0-.22.05L142,21.31a3.54,3.54,0,0,0-1,.92" transform="translate(-0.05 0)"/><path class="cls-2" d="M145.15,24.47l-5.87,4.75" transform="translate(-0.05 0)"/><path class="cls-2" d="M144.61,30.57,138.55,36" transform="translate(-0.05 0)"/><path class="cls-2" d="M145,37.3c-2.18,2-4,3.76-6,5.85" transform="translate(-0.05 0)"/><path class="cls-2" d="M146,44.35l-5.44,5" transform="translate(-0.05 0)"/><path class="cls-2" d="M148.53,49.23l-5.22,5.32" transform="translate(-0.05 0)"/><path class="cls-2" d="M152.91,54.86l-5.09,4.91" transform="translate(-0.05 0)"/><path class="cls-2" d="M158,58.79q-2.57,2.52-5.09,5.09c-.12.12-.36,0-.29-.2a.19.19,0,0,1,.34.08" transform="translate(-0.05 0)"/><path class="cls-2" d="M163.08,61.28c-1.56,1.52-3.39,3.49-5,5" transform="translate(-0.05 0)"/><path class="cls-2" d="M169.5,62.4a40.92,40.92,0,0,0-4.19,5" transform="translate(-0.05 0)"/><path class="cls-2" d="M175.13,61.9a18.79,18.79,0,0,0-2.86,3.79" transform="translate(-0.05 0)"/><path class="cls-2" d="M171.82,12.35a1.69,1.69,0,0,0-1,.61l-2.4,2.38" transform="translate(-0.05 0)"/><path class="cls-2" d="M176.62,14.19q-2.36,2.33-4.54,4.84" transform="translate(-0.05 0)"/><path class="cls-2" d="M179.12,17.56a81.54,81.54,0,0,0-6.69,6.82" transform="translate(-0.05 0)"/><path class="cls-2" d="M180.6,23.06a33.43,33.43,0,0,1-3.78,4.19c-1.43,1.28-3.09,2.37-4.08,4l.08-.5" transform="translate(-0.05 0)"/><path class="cls-2" d="M181.32,30q-5.06,5.34-9.7,11.06" transform="translate(-0.05 0)"/><path class="cls-2" d="M180.84,37a114.87,114.87,0,0,1-9.31,9.56" transform="translate(-0.05 0)"/><path class="cls-2" d="M179,44.57A66.77,66.77,0,0,0,172.18,51" transform="translate(-0.05 0)"/><path class="cls-2" d="M238.92,6.94l-7,4.59" transform="translate(-0.05 0)"/><path class="cls-2" d="M236.09,14.87q-2.9,1.61-5.66,3.46a1.64,1.64,0,0,0-.58.55l.17-.25" transform="translate(-0.05 0)"/><path class="cls-2" d="M234.52,20.72a51.42,51.42,0,0,1-7,3.34.13.13,0,0,0,.21,0" transform="translate(-0.05 0)"/><path class="cls-2" d="M232.5,26.77l-6.61,3.93.38-.15" transform="translate(-0.05 0)"/><path class="cls-2" d="M229.91,34.57a47.89,47.89,0,0,0-6.8,3.55.22.22,0,0,0,.24-.07" transform="translate(-0.05 0)"/><path class="cls-2" d="M228,40.17c-2.31,2-5.27,3.14-7.5,5.23" transform="translate(-0.05 0)"/><path class="cls-2" d="M225.75,46.28q-2.67,1.69-5.48,3.15a6.43,6.43,0,0,0-1.68,1.1l.18-.14" transform="translate(-0.05 0)"/><path class="cls-2" d="M223.91,52.92l-6.47,4" transform="translate(-0.05 0)"/><path class="cls-2" d="M215.31,63.41a30.4,30.4,0,0,1,6.31-3.74" transform="translate(-0.05 0)"/><path class="cls-2" d="M220.68,65.22c-.09,0,0-.16,0-.22q1.89-1.52,3.87-2.91" transform="translate(-0.05 0)"/><path class="cls-2" d="M226.69,66.05a10.3,10.3,0,0,1,2.88-2.92l1-.77" transform="translate(-0.05 0)"/><path class="cls-2" d="M244.19,26.38a17.78,17.78,0,0,1,4.16-4.18" transform="translate(-0.05 0)"/><path class="cls-2" d="M245.77,29.72a32.94,32.94,0,0,1,4.07-3.52" transform="translate(-0.05 0)"/><path class="cls-2" d="M247.51,35.13c-.16-.12,0-.38.08-.54a16.93,16.93,0,0,1,3.5-3.34" transform="translate(-0.05 0)"/><path class="cls-2" d="M249.33,38.52a32.79,32.79,0,0,1,3.77-2.73" transform="translate(-0.05 0)"/><path class="cls-2" d="M237,53.83q2-2.07,4.15-4" transform="translate(-0.05 0)"/><path class="cls-2" d="M242.6,54.63a1.81,1.81,0,0,1,.59-1l3.74-3.91c.24-.25.48-.5.74-.73a.16.16,0,0,1,.13-.05s.05.11,0,.1" transform="translate(-0.05 0)"/><path class="cls-2" d="M248.29,54.58q2.43-2.89,5.13-5.55" transform="translate(-0.05 0)"/><path class="cls-2" d="M253.19,55.37a1,1,0,0,1,.4-.78q1.87-1.87,3.82-3.65" transform="translate(-0.05 0)"/><path class="cls-2" d="M254.45,60.56a54.61,54.61,0,0,1,4.08-4" transform="translate(-0.05 0)"/><path class="cls-2" d="M256.85,65a15.79,15.79,0,0,1,3.46-3.72" transform="translate(-0.05 0)"/><path class="cls-2" d="M262,66.21a2,2,0,0,1,.45-.69l2.38-2.74a4.63,4.63,0,0,1,.78-.77" transform="translate(-0.05 0)"/><path class="cls-2" d="M267.09,66.12c-.1,0-.09-.17,0-.26a44.59,44.59,0,0,1,2.61-4" transform="translate(-0.05 0)"/><path class="cls-2" d="M270.26,66.22c-.11,0-.09-.18,0-.28l2.43-4.16" transform="translate(-0.05 0)"/><path class="cls-2" d="M276.55,12.76a31,31,0,0,1,4.92-5.36" transform="translate(-0.05 0)"/><path class="cls-2" d="M276.64,18.68A65.35,65.35,0,0,1,281.48,13" transform="translate(-0.05 0)"/><path class="cls-2" d="M276.38,24l1.77-1.91a31.44,31.44,0,0,1,3.34-3.27s.1-.07.15,0,0,.13,0,.1" transform="translate(-0.05 0)"/><path class="cls-2" d="M276.75,31.12a40.09,40.09,0,0,1,5-5.91" transform="translate(-0.05 0)"/><path class="cls-2" d="M277.23,36.5a21.47,21.47,0,0,1,4.8-4.93" transform="translate(-0.05 0)"/><path class="cls-2" d="M277.19,44.3a15.61,15.61,0,0,1,2.67-3.5l1.89-2s.11-.1.16-.07,0,.13,0,.07" transform="translate(-0.05 0)"/><path class="cls-2" d="M277.44,50.38q2.29-2.7,4.83-5.17" transform="translate(-0.05 0)"/><path class="cls-2" d="M278.2,57.48a23.68,23.68,0,0,1,4-4.53" transform="translate(-0.05 0)"/><path class="cls-2" d="M277.8,64.51a38.8,38.8,0,0,1,4-4.3" transform="translate(-0.05 0)"/><path class="cls-2" d="M282.08,66.11l3.46-3.88" transform="translate(-0.05 0)"/><path class="cls-2" d="M288.39,66.36a17.63,17.63,0,0,1,3-4.14l-.24.17" transform="translate(-0.05 0)"/><path class="cls-2" d="M294.32,29.28a25.59,25.59,0,0,1,2.59-3.92" transform="translate(-0.05 0)"/><path class="cls-2" d="M294.59,36.46a43.39,43.39,0,0,1,3.62-5.79" transform="translate(-0.05 0)"/><path class="cls-2" d="M296.26,41.83q1.73-2.51,3.58-4.92c.09-.12.35-.2.35,0" transform="translate(-0.05 0)"/><path class="cls-2" d="M297.89,47.6q1.95-2.71,4-5.32" transform="translate(-0.05 0)"/><path class="cls-2" d="M299.53,54.48A38.87,38.87,0,0,1,303.67,49" transform="translate(-0.05 0)"/><path class="cls-2" d="M301.22,60.67a7.29,7.29,0,0,0,1.06-1.34,25.17,25.17,0,0,1,3.86-4.4l-.38.19" transform="translate(-0.05 0)"/><path class="cls-2" d="M303.86,66.48a35,35,0,0,1,4.24-4.82s.07-.06.1,0,0,.09,0,.07" transform="translate(-0.05 0)"/><path class="cls-2" d="M310.77,67.21a36.56,36.56,0,0,0,3.62-5.36" transform="translate(-0.05 0)"/><path class="cls-2" d="M316.94,11.06a25.08,25.08,0,0,1,5.88-3.73" transform="translate(-0.05 0)"/><path class="cls-2" d="M314.88,17.43l6.63-4.22" transform="translate(-0.05 0)"/><path class="cls-2" d="M313.55,22.91q3.3-2.54,6.83-4.78s.11-.08.08-.14-.12,0-.06,0" transform="translate(-0.05 0)"/><path class="cls-2" d="M312.62,28.29q3.35-2.55,6.75-5l-.6.05" transform="translate(-0.05 0)"/><path class="cls-2" d="M313.08,33.11a36.7,36.7,0,0,1,4.69-3.59l-.42-.06" transform="translate(-0.05 0)"/><path class="cls-2" d="M329.75,23.77l2.8-1.92c.14-.1.37-.18.47,0" transform="translate(-0.05 0)"/><path class="cls-2" d="M327.68,31.13a19.3,19.3,0,0,1,5.1-4.15" transform="translate(-0.05 0)"/><path class="cls-2" d="M327.4,38.5q2.87-2.43,5.76-4.82" transform="translate(-0.05 0)"/><path class="cls-2" d="M327.56,44.5q2.73-3.09,5.73-5.94" transform="translate(-0.05 0)"/><path class="cls-2" d="M327.29,52.15c1.54-2.48,4.23-4,6-6.34l-.61.5" transform="translate(-0.05 0)"/><path class="cls-2" d="M328.12,58.82a46.25,46.25,0,0,1,5-4.5l-.36.31" transform="translate(-0.05 0)"/><path class="cls-2" d="M328.13,66a39.32,39.32,0,0,1,4.65-4.69" transform="translate(-0.05 0)"/><path class="cls-2" d="M334.05,66.84q2.32-2.71,4.81-5.28" transform="translate(-0.05 0)"/><path class="cls-2" d="M339,67.18a34.8,34.8,0,0,1,4.57-5.11" transform="translate(-0.05 0)"/><path class="cls-2" d="M375.73,14.68A39.1,39.1,0,0,1,382,8.92" transform="translate(-0.05 0)"/><path class="cls-2" d="M375.26,21.71A58.08,58.08,0,0,1,382,15.25c.19-.15.51.15.37.35s-.53,0-.45-.23" transform="translate(-0.05 0)"/><path class="cls-2" d="M375.55,27.83q3.06-2.79,6.36-5.31" transform="translate(-0.05 0)"/><path class="cls-2" d="M375.64,35.34a70.88,70.88,0,0,1,6.19-5.81" transform="translate(-0.05 0)"/><path class="cls-2" d="M375.29,43.41a89,89,0,0,1,6.57-6.78s.1-.11.07-.16-.13,0-.07.05" transform="translate(-0.05 0)"/><path class="cls-2" d="M375.42,51a40.6,40.6,0,0,1,6.32-5.44l-.31.17" transform="translate(-0.05 0)"/><path class="cls-2" d="M375.79,57.32c2.07-2,3.76-3.57,5.93-5.48" transform="translate(-0.05 0)"/><path class="cls-2" d="M375.82,63.77q2.93-3.07,6-6" transform="translate(-0.05 0)"/><path class="cls-2" d="M379.3,67.26c1.87-1.67,3.87-4,5.95-5.4" transform="translate(-0.05 0)"/><path class="cls-2" d="M385.67,67.61A63.91,63.91,0,0,0,391.5,62" transform="translate(-0.05 0)"/><path class="cls-2" d="M402.23,11.92a23.38,23.38,0,0,1,5-2.66l-.29.13" transform="translate(-0.05 0)"/><path class="cls-2" d="M399.65,18.2a5.4,5.4,0,0,1,1.22-1.36,32.78,32.78,0,0,1,4.55-3.31" transform="translate(-0.05 0)"/><path class="cls-2" d="M399.86,24.3q2-2.14,4.23-4.11" transform="translate(-0.05 0)"/><path class="cls-2" d="M405.2,26a1.29,1.29,0,0,1,.55-.83q2-1.74,4.08-3.35" transform="translate(-0.05 0)"/><path class="cls-2" d="M420.64,14.91a26.35,26.35,0,0,1,4.82-3.31" transform="translate(-0.05 0)"/><path class="cls-2" d="M426.14,16.73,430.23,14s.07-.06.06-.1-.09,0-.06,0" transform="translate(-0.05 0)"/><path class="cls-2" d="M426.23,22.52c1.61-1.15,3.66-2.45,5.38-3.43l-.34,0" transform="translate(-0.05 0)"/><path class="cls-2" d="M413.58,38.61a21.57,21.57,0,0,1,5.14-3.2l-.37.22" transform="translate(-0.05 0)"/><path class="cls-2" d="M413.55,43.91a39.3,39.3,0,0,1,4.62-4" transform="translate(-0.05 0)"/><path class="cls-2" d="M415.18,47.41l3.89-3.31" transform="translate(-0.05 0)"/><path class="cls-2" d="M420.8,48.14c1.27-1.29,3.21-3.13,4.56-4.34" transform="translate(-0.05 0)"/><path class="cls-2" d="M412.94,57.32c1.69-1.57,3.8-3.4,5.59-4.84" transform="translate(-0.05 0)"/><path class="cls-2" d="M413.4,64a58.56,58.56,0,0,1,4.23-4.68" transform="translate(-0.05 0)"/><path class="cls-2" d="M417,66.29a42.23,42.23,0,0,1,4.25-4.67" transform="translate(-0.05 0)"/><path class="cls-2" d="M423.33,66.45a35.47,35.47,0,0,1,3.95-4.72" transform="translate(-0.05 0)"/><path class="cls-3" d="M19.34,2.07c1,4.2,9.25,40,9.25,40S38.06,1.58,38.44,1.59c6.51.21,12.81-.56,12.94,0,.71,3.19,10.49,40.59,10.49,40.59S69.12,4.73,71,1.59c.5-.83,11.25-.33,11.25.35C82.25,3.07,70,56,67.31,61.38c-.67,1.36-5.41,0-13.87.13-.31,0-9.81-39.62-9.81-39.62s-8.69,38.48-9.44,39.56c-.26.38-13.44,1-13.75.19C17.43,53.86,5.37,2.39,5.37,2.2c0-.44,12.73-.51,14-.13" transform="translate(-0.05 0)"/><path class="cls-1" d="M18.86,2.2C22,15.53,25,28.89,28.11,42.24a.5.5,0,0,0,1,0C31.9,30.12,34.7,18,37.75,5.93c.25-1,.5-2,.78-3,.47-1.68.88-.81,2.8-.82,2.81,0,5.62-.27,8.42-.25,1.47,0,1.15-.07,1.51,1.38,1.74,7,3.58,14,5.4,21q2.35,9,4.72,18.09a.5.5,0,0,0,1,0c2.15-11.11,4.34-22.23,7-33.23.49-2,.78-4.56,1.75-6.42.53-1,.92-.92,2.19-1a44.49,44.49,0,0,1,5.26.11c.78.06,1.57.1,2.34.24.39.07,1.15.46.88-.05a6.54,6.54,0,0,1-.22,1.12c-.38,1.86-.81,3.71-1.23,5.56C77.24,22.15,74,35.63,70.51,49c-.71,2.69-1.43,5.38-2.23,8-.36,1.2-.71,3.81-1.93,4.36s-3.55,0-4.81-.13-2.42-.16-3.63-.21c-.85,0-1.73-.11-2.58-.07.63,0-1.73,0-1.46.25-.72-.57-1-3.6-1.19-4.44-3-11.66-5.75-23.36-8.56-35.06a.5.5,0,0,0-1,0q-2.61,11.54-5.3,23.05c-1.07,4.58-2.13,9.16-3.31,13.72a18,18,0,0,1-.68,2.57c-.73.62-4.79.34-6,.38s-2.6.07-3.9.06c-.64,0-2.54.23-3.08-.22s-.94-2.88-1.17-3.68C18.34,53.09,17.16,48.5,16,43.91,13.2,33,10.55,22,7.94,11q-.7-3-1.4-5.93a12.14,12.14,0,0,1-.67-2.9c0-.36-.41.42-.08.39.5,0,1-.1,1.49-.13,1.45-.08,2.9-.1,4.35-.12,2.4,0,5.22-.34,7.57.22.63.15.89-.81.27-1a29,29,0,0,0-6.55-.26c-2.09,0-5.32-.51-7.31.27-1.48.58-.13,3.34.15,4.53q3.94,16.8,8.12,33.53c1.37,5.44,2.74,10.88,4.26,16.28.47,1.66.93,3.34,1.5,5,.49,1.4,1,1.46,2.49,1.56a67.28,67.28,0,0,0,8.59-.13c1-.06,3.16.17,3.92-.67.54-.6.66-2.14.86-2.88.57-2.18,1.1-4.37,1.62-6.57,2.41-10,4.71-20.12,7-30.2h-1c2.75,11.48,5.49,23,8.39,34.4.36,1.41.49,3.81,1.34,5,.45.65.56.54,1.52.55,3.15,0,6.28.27,9.42.44,2,.1,3.51.25,4.31-1.7a59.31,59.31,0,0,0,2-6.34c4-14.44,7.43-29.08,10.77-43.7.51-2.24,1-4.48,1.5-6.72.18-.83.69-1.94,0-2.6S80.12.93,79.44.86a45.39,45.39,0,0,0-6-.19C71.4.76,70.64.86,70,2.79c-2.44,7.21-3.67,15-5.22,22.42Q63,33.62,61.38,42h1C59,29.08,55.5,16.12,52.26,3.11c-.13-.51-.18-1.57-.59-1.95-1-.88-4-.22-5.11-.17-1.9.07-3.8.14-5.7.14-.75,0-2.23-.41-2.82.17-.28.27-.35.94-.45,1.3-1.93,6.78-3.41,13.72-5,20.58q-2.23,9.4-4.43,18.8h1C26,28.62,23,15.26,19.82,1.94c-.15-.63-1.11-.36-1,.27Z" transform="translate(-0.05 0)"/><path class="cls-3" d="M88.85,1.59c0,12.2.18,46.43.18,59.76,0,.5,7.13.67,13.74.2,1-.08-1-15.26,0-24.7,0,0,11.15-.78,18.72.06.15,4.35-.77,23.47,0,24.72.25.39,13.82.83,13.69-.12-.44-3.25.84-51.25-.19-59.92-.06-.52-6.48-.24-12.72,0a1,1,0,0,0-1,1.06c.21,4.45,1,21.83.16,22.26-1.86,1-16.93.74-18.58.08-1.25-.5.11-22.76-.17-23.38-.42-.94-12.66.15-13.92,0" transform="translate(-0.05 0)"/><path class="cls-1" d="M88.35,1.59c0,13.76.08,27.51.13,41.27q0,5.19,0,10.37,0,2.09,0,4.17c0,1-.4,3.07,0,3.95.62,1.36,3.68.94,4.89,1,2.36,0,4.73,0,7.09-.13.84,0,2.27.25,2.84-.53.86-1.17.17-4.31.11-5.61-.18-3.79-.41-7.57-.45-11.37,0-2,0-3.95.14-5.92,0-.37.08-1.71-.22-1.42.14-.13,1-.06,1.18-.07,3.39-.19,6.8-.28,10.2-.24a57.42,57.42,0,0,1,5.86.25c1.21.14.58-.32.88.42a6,6,0,0,1,0,1.77c0,2.9-.12,5.79-.19,8.69-.07,3.09-.15,6.18-.12,9.26,0,1-.35,3.55.37,4.42s2.89.58,3.84.63a72.51,72.51,0,0,0,8,0c1-.06,2.45.06,2.83-1a11,11,0,0,0-.09-2.85c-.09-10.87.21-21.74.28-32.61,0-5.63.07-11.26,0-16.89,0-1.93-.07-3.86-.2-5.78-.07-1.17.14-2.11-1.08-2.46-1.4-.41-3.3-.12-4.74-.09-2.38.05-5.3-.3-7.61.25-2,.49-1.35,3-1.28,4.57.24,5.76.67,11.63.33,17.39,0,.69,0,1.22-.46,1.55-.75.5-2.61.32-3.48.37-3,.15-6,.13-9,0-1.24,0-4.67.27-5.27-.77a6.94,6.94,0,0,1-.21-2.55c0-1.28,0-2.57,0-3.85,0-5,.42-10.1.4-15.15,0-1,.06-1.43-.92-1.79-2-.73-5-.13-7.05,0a54.64,54.64,0,0,1-6.48.26c-.64,0-.64,1,0,1,3.15.24,6.44-.31,9.6-.37a29.45,29.45,0,0,1,3.84,0c.28.31,0,2,0,2.37-.17,6.43-1,13.21-.21,19.62.23,1.81.88,1.88,2.64,2.06a86.6,86.6,0,0,0,11.2.25c1.42,0,5.16.36,6.13-1a5.21,5.21,0,0,0,.3-2.33c.08-1.83,0-3.67,0-5.5-.06-3.92-.21-7.85-.37-11.77a8.59,8.59,0,0,1-.09-2.08c.42-1.72,2.71-1.36,4.16-1.41s2.81-.09,4.22-.12c1.17,0,2.91-.32,4,.05.57.19.22-.27.33.53.06.41.06.83.09,1.24.08,1.31.12,2.62.15,3.94.08,3.3.1,6.61.1,9.91,0,14.11-.59,28.24-.3,42.34a7.57,7.57,0,0,1,0,1.05c-.08.65.15.25-.1.44-.92.68-3.69.26-4.82.27-2,0-4,0-6.06-.17-1.31-.09-1.87.25-1.89-1-.1-7.84.41-15.71.19-23.54a.51.51,0,0,0-.5-.5,109.47,109.47,0,0,0-18.72-.06.52.52,0,0,0-.5.5c-.72,6.91,0,13.86.22,20.77a8.7,8.7,0,0,1,0,2.91c-.31.76-.66.57-1.6.62q-2,.11-4,.15c-1.83,0-3.66,0-5.48-.06s-2,.12-2-1.55c0-13-.08-26.06-.13-39.08q0-9.52,0-19a.5.5,0,0,0-1,0Z" transform="translate(-0.05 0)"/><path class="cls-3" d="M195.52,31.51C195.1,11.36,185,1.21,170.5.63c-34.06-1.08-35.68,60.61-.78,61.75C185.93,62.91,195.87,48.27,195.52,31.51ZM170.39,51c-17.4,1.1-13.21-40-.68-38.87,10.14-.83,11,12.68,11.14,14C181.6,35.8,181,50.34,170.39,51Z" transform="translate(-0.05 0)"/><path class="cls-1" d="M196,31.51c-.21-7.7-1.7-15.76-6.47-22A24,24,0,0,0,173.47.39a24.48,24.48,0,0,0-25.21,12.67c-9.48,17-4.13,46.07,18,49.5a24,24,0,0,0,21.31-6.91c6.11-6.41,8.55-15.46,8.45-24.14a.5.5,0,0,0-1,0c.18,15.12-8.88,31.19-25.79,30.35-10.26-.5-18.32-7.16-22-16.56-6.51-16.71-.08-43.16,21.14-44.15C175.24.83,182.23,3.09,187,8.09c6,6.2,7.75,15.11,8,23.42A.5.5,0,0,0,196,31.51Z" transform="translate(-0.05 0)"/><path class="cls-1" d="M170.39,50.51c-13.47.61-12-20.92-9.24-29.07,1.76-5.22,5-9.94,11.16-8.68s7.71,8.65,8.09,13.92c.56,7.92.77,22.88-10,23.83-.64.06-.64,1.06,0,1,9.91-.88,11.25-12.61,11.18-20.52-.05-5.93-.47-13.83-5.69-17.7a9.89,9.89,0,0,0-9-1.22c-2.37,1-4,3.21-5.18,5.4-3.22,6.14-4.06,13.89-3.12,20.69.89,6.45,4.22,13.7,11.78,13.35C171,51.48,171,50.48,170.39,50.51Z" transform="translate(-0.05 0)"/><path class="cls-3" d="M256.69,1.64c-.36-.29-13.22-.5-16.44.4-4.28,14.25-19.47,59.13-19,59.46.77.56,12.15.61,12.36,0,1.38-4.12,3.79-12.21,3.79-12.21s18.39-.63,19.33,0c.56.4,2.72,11.44,3.79,12.29.83.66,14.9.29,15,0C275.92,60.68,257.82,2.57,256.69,1.64Zm-15.88,36.6c-.29-.37,4.91-19,6.36-21.14.89,2.66,6.43,21.09,6.29,21.14C252.23,38.66,241,38.53,240.81,38.24Z" transform="translate(-0.05 0)"/><path class="cls-1" d="M256.94,1.2a10.76,10.76,0,0,0-3.72-.29c-2.54-.06-5.09,0-7.63.06-1.27.05-4.51-.25-5.59.63-.82.67-1.09,3.1-1.4,4.1-3.09,9.87-6.35,19.68-9.57,29.5-2.64,8-5.41,16.05-7.78,24.17-.42,1.44-1.06,2.5.78,2.81a35.62,35.62,0,0,0,6.11.24c1.44,0,4,.35,5.31-.33s1.5-3.16,1.91-4.46c.73-2.34,2.1-5.13,2.32-7.58a2.13,2.13,0,0,1,.19-.64c0,.08-.69.37-.32.33s1,0,1.55,0q3.05-.09,6.1-.15c2.28,0,4.56-.08,6.85-.06.92,0,3.65-.37,4.38.25.32.28.5,1.68.6,2.06.32,1.2.61,2.4.92,3.6a26.31,26.31,0,0,0,1.72,5.75c1.19,2.24,6,1.32,8.12,1.3s4.27,0,6.4-.18c.59,0,1.52.09,1.82-.53.43-.89-.76-3.45-1-4.29-.92-3.29-1.9-6.55-2.89-9.82q-4-13.33-8.27-26.59c-2-6.21-3.74-12.63-6.26-18.65A3.41,3.41,0,0,0,257,1.28c-.45-.46-1.16.25-.71.71.84.85,1.4,3.63,1.83,4.9,1.29,3.75,2.51,7.52,3.72,11.29q4.5,14,8.76,28c1.09,3.61,2.18,7.22,3.21,10.85.32,1.13.65,2.25.92,3.39.07.29.14.59.2.88s.47-.06,0-.1c-4.21-.33-8.53.46-12.78.14-2.08-.16-2.09-1.85-2.61-3.69-.65-2.35-1.16-4.74-1.84-7.08-.35-1.18-.43-1.71-1.65-1.93a35.3,35.3,0,0,0-6.37-.16c-4.11,0-8.21.12-12.32.26a.51.51,0,0,0-.48.37c-1.06,3.56-2.14,7.11-3.28,10.64-.27.83-.22,1.13-.88,1.45a6.81,6.81,0,0,1-2.21.16c-1.88.08-3.77.07-5.65,0-.75,0-1.51,0-2.26-.13-.58-.07-1.08-.35-.9.16-.09-.25.28-1.08.36-1.37.64-2.25,1.37-4.48,2.08-6.71C229,38.2,234.12,23.15,238.92,8a30.88,30.88,0,0,1,1.53-4.89c.45-.86.31-.71,1.47-.87.95-.12,1.91-.18,2.86-.23,2.4-.13,4.81-.15,7.21-.12,1.21,0,3.33-.31,4.45.17C257,2.32,257.53,1.46,256.94,1.2Z" transform="translate(-0.05 0)"/><path class="cls-1" d="M241.29,38.1c-.21-.73.61-2.68.82-3.48.56-2.15,1.16-4.29,1.78-6.42,1-3.46,1.77-7.76,3.71-10.85l-.91-.12c2,6,3.74,12.11,5.49,18.18.25.88.43,1.83.75,2.69.17.47-.3-.21.26-.32a2,2,0,0,1-.7.08,10.76,10.76,0,0,0-2.17.1c-1.87,0-3.74,0-5.61,0-.92,0-2.81.27-3.65-.17-.57-.3-1.08.56-.5.86,1.49.78,4.33.32,5.94.33,2.25,0,4.89.3,7.09-.28a.52.52,0,0,0,.37-.48,9.16,9.16,0,0,0-.76-2.9c-.63-2.19-1.28-4.38-1.94-6.57-1.18-3.94-2.31-7.9-3.61-11.8a.51.51,0,0,0-.91-.12c-2.07,3.32-2.89,7.91-4,11.61-.66,2.28-1.3,4.56-1.88,6.86-.2.8-.82,2.21-.57,3.06A.5.5,0,0,0,241.29,38.1Z" transform="translate(-0.05 0)"/><path class="cls-3" d="M282,1.64c-.36,12,.26,48,.16,60,0,.52,3.69,1,11.71-.08,1.1-.14-.08-49-.08-49S306.64,60,308.69,61.51c.84.61,9.54.51,9.63.13,2.37-10.56,14.93-49.71,14.93-49.71s-.43,43.29.07,49.52c.06.78,10.75.52,14.06-.12.75-.15.54-53,0-59.73a146.84,146.84,0,0,0-21.87,0c-1.15.07-10.5,38.16-10.5,38.16s-10.58-38-11-38.16c-.66-.21-18.41-.36-22,0" transform="translate(-0.05 0)"/><path class="cls-1" d="M281.53,1.64c-.3,10.66-.09,21.35,0,32q.07,8.91.14,17.82,0,3.47,0,6.94c0,1-.45,3,.31,3.82s2.91.5,3.76.5c1.54,0,3.08-.1,4.61-.24,1-.09,3.15.14,3.85-.51.87-.82.53-3.44.56-4.49.24-8.37,0-16.77-.08-25.14q-.15-9.86-.39-19.71l-1,.13c4,14.68,7.84,29.5,12.77,43.9.48,1.39,1,4.29,2.29,5.24s3.79.53,5.14.54c1.14,0,4,.44,5-.33.77-.6.89-2.86,1.13-3.78.56-2.12,1.16-4.24,1.77-6.35,1.52-5.27,3.11-10.53,4.73-15.77q3.72-12.1,7.58-24.15l-1-.13q-.11,11.21-.15,22.42c0,5.65,0,11.31,0,17,0,2.1,0,4.2.07,6.3,0,1-.3,3,.15,3.9s2.22.84,3.2.88a68.86,68.86,0,0,0,8.92-.27c1-.09,2.48.09,3-.84a7,7,0,0,0,.19-2.44c.41-9.35.26-18.75.23-28.11,0-9.67.26-19.49-.47-29.14a.52.52,0,0,0-.5-.5,109.9,109.9,0,0,0-13-.35q-3.46.06-6.92.24c-.75,0-1.79-.2-2.39.33a6.13,6.13,0,0,0-1,2.44c-3,8.88-5.05,18.11-7.34,27.19q-1.09,4.34-2.16,8.68h1q-3.31-11.91-6.69-23.79c-1.2-4.23-2.38-8.47-3.69-12.67-.17-.53-.3-1.59-.77-2-.8-.62-3.22-.24-4.14-.26C294.2.83,288,.52,282,1.14c-.63.07-.64,1.07,0,1a137.11,137.11,0,0,1,15.32-.23,41.12,41.12,0,0,1,6.18.14c.65.11-.06-.42.21.14a10.13,10.13,0,0,1,.47,1.46c2.81,9.1,5.29,18.32,7.87,27.49q1.23,4.37,2.44,8.75a.5.5,0,0,0,1,0c2.71-11.05,5.4-22.14,8.63-33.05.31-1.06.63-2.12,1-3.17a4.24,4.24,0,0,1,.42-1.15c.59-.74-.32-.13,1-.48,1.6-.45,3.77-.19,5.44-.24q2-.06,4-.08c2.41,0,4.83,0,7.24.1a20.36,20.36,0,0,0,3.6.21,1.88,1.88,0,0,1,.61.05c-.79-.2-.28-.4-.39.46-.26,2.06.15,4.47.2,6.55q.44,21.93.14,43.88c0,2.2-.05,4.42-.18,6.62,0,.33.08,1.15-.12,1.43.1-.13-1.12,0-1.54.06-1,.11-2.1.17-3.15.23-2,.1-4,.16-6,.09-1.46-.05-2.37.24-2.49-.84a71.51,71.51,0,0,1-.15-7.29c-.13-13.78,0-27.57.14-41.35a.5.5,0,0,0-1-.13c-4.94,15.39-10,30.81-14.13,46.45-.2.76-.38,1.53-.58,2.3s0,.73-1.08.82a36.37,36.37,0,0,1-6.75,0c-1.23-.13-1.34-.22-1.81-1.27s-.9-2.32-1.3-3.49c-2.83-8.23-5.16-16.64-7.53-25q-2.7-9.51-5.29-19a.5.5,0,0,0-1,.13c.32,13.13.6,26.26.55,39.39,0,2.66,0,5.35-.19,8-.14,1.78-.53,1.17-2.48,1.37a32.85,32.85,0,0,1-7.54.23c-.93-.13-.77,0-1-.66a11.27,11.27,0,0,1,0-2.79q0-3.22,0-6.45,0-8.22-.13-16.43c-.09-11.22-.33-22.46,0-33.68a.5.5,0,0,0-1,0Z" transform="translate(-0.05 0)"/><path class="cls-3" d="M382.12,2.17c0,15.2-.88,59.22.13,59.34,1.25.16,13.59,1,13.86-.13.45-1.93.43-59.39-.06-59.53s-10.23-.62-13.92.32" transform="translate(-0.05 0)"/><path class="cls-1" d="M381.62,2.17c0,13.76-.29,27.51-.35,41.27,0,5.26-.12,10.54.16,15.79,0,.65-.11,2.08.41,2.6.86.86,4.29.46,5.39.51,2.55.12,5.83.64,8.32-.13,1-.3,1-.66,1.11-1.57.33-3.58.17-7.27.2-10.87q.15-18.29,0-36.57c0-2.42-.05-4.84-.1-7.26a14.2,14.2,0,0,0-.15-3.84c-.42-1.22-1.84-.87-3-.92C389.76,1,385.71.82,382,1.68c-.63.15-.36,1.11.27,1a40.25,40.25,0,0,1,10-.51,15.63,15.63,0,0,1,3.36.16c-.07,0,0-.48,0,.24-.2,3.1.17,6.35.21,9.46.12,11.07.12,22.13.06,33.2,0,4.24,0,8.49-.14,12.74,0,.63.26,2.56-.11,3.1-.61.88-4.43.44-5.59.41-1.35,0-2.69-.09-4-.16a13.53,13.53,0,0,1-3.38-.23c-.56-.2.1.34,0,.09a1.65,1.65,0,0,1-.08-.52c0-.63-.09-1.26-.12-1.9-.21-4.82-.16-9.65-.14-14.47,0-14,.34-28.05.35-42.08a.5.5,0,0,0-1,0Z" transform="translate(-0.05 0)"/><path class="cls-3" d="M410.22,5.79c-4.09,3.09-7.54,14.75-7.09,14.88,1.41.41,11.26,1.86,12,1.47.28-.16-.31-8.62,6.5-10.5,10.28-2.83,11.44,8.19,7.28,12.94-1.35,1.55-6.69,3.45-9.44,8.06-2.31,3.87-1.59,9.77-1.14,11.77,0,0,8.82-.08,10.81,0a.42.42,0,0,0,.44-.37c.26-3-1-4,.74-5.6,6.11-5.73,15.53-10.7,14.72-21.32C443.69,0,420.14-4.13,410.22,5.79" transform="translate(-0.05 0)"/><path class="cls-1" d="M409.86,5.44c-2.37,1.93-3.78,5-4.94,7.71-.62,1.45-1.17,2.94-1.64,4.45-.23.74-.85,2-.69,2.83.28,1.38,3.1,1.23,4.23,1.41,1.47.22,2.94.43,4.41.6,1,.11,2.61.55,3.6.25,1.28-.39.89-2,1.1-3.17.7-4,2.93-7,7.08-7.69,4-.66,7.17,1.41,7.57,5.5a8.52,8.52,0,0,1-3.24,7.83c-3.35,2.31-7,4.25-8.8,8.13-1.57,3.42-1.48,7.63-.73,11.25a.51.51,0,0,0,.48.37c2.34.2,4.78,0,7.12,0,2.15,0,4.73.91,4.66-1.93-.06-2.25-.49-3.23,1.43-4.95,1.46-1.3,3-2.51,4.48-3.76a32.56,32.56,0,0,0,7.29-7.8A16.72,16.72,0,0,0,442.14,8C438.75,3.52,433.31,1,427.81.23c-6.36-.85-13.24.65-17.94,5.21-.46.45.24,1.16.71.71,8.71-8.44,26.23-6.39,32.08,4.52,4,7.38,1.2,15-4.53,20.39-2.55,2.41-5.47,4.4-8,6.85a3.53,3.53,0,0,0-1.3,2.64c0,.7.23,1.39.22,2.08,0,1.19-.07,1.13-1,1.28-2.65.41-5.71,0-8.4,0a3.68,3.68,0,0,1-1.1,0s.08.09.09-.57c0-1.83-.37-3.61-.19-5.47.47-4.94,3.5-8.08,7.5-10.64,2-1.29,3.7-2.29,4.74-4.55,1.67-3.66,1.38-9.13-2.56-11.23-4.73-2.53-10.71.59-12.46,5.29a15.51,15.51,0,0,0-.8,3.37,8.36,8.36,0,0,1-.15,1.43c-.16.47.45.15-.33.16a53.3,53.3,0,0,1-9.18-1.13,5.24,5.24,0,0,1-1.65-.31c.17.14,0,0,.2-.57.48-1.27.76-2.64,1.23-3.92,1.22-3.34,2.77-7.3,5.61-9.61.5-.41-.21-1.11-.71-.71Z" transform="translate(-0.05 0)"/><path class="cls-3" d="M417.9,48.48c0,5.88-.61,12.46,0,13.16.28.32,14,.08,13.89-.34-.14-.59.42-13.13-.54-12.94-1.54.31-11.57-.39-13.35.13" transform="translate(-0.05 0)"/><path class="cls-1" d="M417.4,48.48c0,3.79-.38,7.59-.26,11.38,0,1.09-.06,2,1,2.34,1.53.49,3.78.09,5.36.07,2.18,0,4.36-.07,6.54-.22.69,0,1.84.07,2.22-.62s0-3.25,0-4.18c0-2.28.09-4.57-.07-6.85-.06-.82,0-2.14-.85-2.53a8.43,8.43,0,0,0-2.28.06c-1.38,0-2.77-.06-4.15-.09-2.31-.06-4.91-.38-7.18.16-.63.15-.36,1.11.27,1,2.17-.51,4.71-.17,6.92-.12,1.23,0,2.47.07,3.7.08a10.51,10.51,0,0,1,2.56-.07c-.2-.17,0,1.61,0,1.93.06,1.08.07,2.16.07,3.24a63.62,63.62,0,0,0-.06,6.47,2.73,2.73,0,0,1,0,.73c-.09.37.5-.34.05-.3-.87.09-1.74.15-2.61.2-2.21.11-4.42.15-6.62.16a12.91,12.91,0,0,1-3.07,0c-1-.26-.82.17-.89-1.14-.2-3.86.24-7.77.26-11.63a.5.5,0,0,0-1,0Z" transform="translate(-0.05 0)"/></g></g></svg>