<svg xmlns="http://www.w3.org/2000/svg" viewBox="0 0 288.14 69.14"><defs><style>.cls-1{fill:none;}.cls-1,.cls-2{stroke:#000105;stroke-miterlimit:10;}.cls-2,.cls-4{fill:#fff;}.cls-3{fill:#000105;}</style></defs><title>whoami_ua</title><g id="Слой_2" data-name="Слой 2"><g id="Слой_4" data-name="Слой 4"><path class="cls-1" d="M28.9,46.52c3.8,5.8,10.36,20.71,11.25,21.47,1.33,1.14,14.9.74,16.56-.75S59,64.16,60.6,61.73" transform="translate(0 0)"/><path class="cls-1" d="M45.6,1.89C44,2.61,39,3.17,38.54,3.42S33.29,12,31.82,15.83" transform="translate(0 0)"/><path class="cls-1" d="M9.81,2.39C8.41,3.66,5.87,7.09,6.35,8s12.8,21.36,12.88,22.16C19.35,31.25.32,63.49.5,65.91.58,67,16.34,67.37,16.78,67.2c.71-.28,3.72-5.18,4.81-7.35" transform="translate(0 0)"/><path class="cls-1" d="M61.22,1.89c-1.82,2-3.87,2.43-4.44,5.08-.21,1,.45,12.32.94,12.78s8.73.57,12.37.55c.31,3.78.27,45.08.65,45.59.63.84,9.79.9,13.83.5.82-.08,4.92-3.25,5.58-4.67" transform="translate(0 0)"/><path class="cls-1" d="M104.94,13.63A20.2,20.2,0,0,0,103,17.3a6.47,6.47,0,0,1-2.63,3.11,6.3,6.3,0,0,1-2.2.57c-3.15.35-6.48-.16-9.4,1.06a.41.41,0,0,0,.48.16" transform="translate(0 0)"/><path class="cls-1" d="M204.15,18.93c2-1.9,5.13-2,7.92-2,1.42,0,3,.08,3.94,1.17a4.44,4.44,0,0,1,.79,1.79,23.79,23.79,0,0,1,.64,8" transform="translate(0 0)"/><path class="cls-1" d="M209.18,44.32c1.28-.28,7.64-.47,8.36.62s-.29,22,1.68,23.18c1,.63,14.62.48,15,.3a26.57,26.57,0,0,0,4.12-7.14" transform="translate(0 0)"/><path class="cls-1" d="M191.68,11.3c-9.4,16.29,1.67,23.94,1.85,25,.43,2.4-13.91,27.6-12.25,29.35,1.17,1.24,16,2.72,16.34,2.42a22.41,22.41,0,0,0,5.13-6.21" transform="translate(0 0)"/><path class="cls-1" d="M10.47,4.78,7.16,9.35" transform="translate(0 0)"/><path class="cls-1" d="M12.71,7.56c.07.17,0,.36-.14.51L9.24,12.84" transform="translate(0 0)"/><path class="cls-1" d="M15.07,11.88l-3.92,4.59" transform="translate(0 0)"/><path class="cls-1" d="M17,15.43a51.56,51.56,0,0,1-4,4" transform="translate(0 0)"/><path class="cls-1" d="M19.45,19a48.64,48.64,0,0,1-4.31,4.32" transform="translate(0 0)"/><path class="cls-1" d="M21.28,22.47a39.54,39.54,0,0,0-4,3.94" transform="translate(0 0)"/><path class="cls-1" d="M23.28,25.73l-4,3.94c-.07.07-.18.15-.27.09" transform="translate(0 0)"/><path class="cls-1" d="M17.44,33.57a85.58,85.58,0,0,1,8-3.79" transform="translate(0 0)"/><path class="cls-1" d="M15.43,37.66c2.9-1.05,4.63-1.8,7.53-2.85" transform="translate(0 0)"/><path class="cls-1" d="M11.94,43.76a81.39,81.39,0,0,1,7.53-3.15" transform="translate(0 0)"/><path class="cls-1" d="M9,49.09a20.17,20.17,0,0,1,6.82-2.24" transform="translate(0 0)"/><path class="cls-1" d="M5.9,54.47c2.18-.82,4.78-1.7,7-2.36" transform="translate(0 0)"/><path class="cls-1" d="M2.34,61.29a25.31,25.31,0,0,1,6.6-2.82" transform="translate(0 0)"/><path class="cls-1" d="M1.49,66.25a47.35,47.35,0,0,0,8.68-4.88" transform="translate(0 0)"/><path class="cls-1" d="M8.14,66.91c1.67-1.33,4.26-3.33,5.93-4.66a.14.14,0,0,1,.09,0" transform="translate(0 0)"/><path class="cls-1" d="M14.64,67.22a28.45,28.45,0,0,1,5.2-4.82" transform="translate(0 0)"/><path class="cls-1" d="M30.38,49A52.87,52.87,0,0,1,35,44.46" transform="translate(0 0)"/><path class="cls-1" d="M33,53.27a29.73,29.73,0,0,1,5-4.63l-.42.58" transform="translate(0 0)"/><path class="cls-1" d="M36.32,60.13a27.28,27.28,0,0,1,4.47-5.52" transform="translate(0 0)"/><path class="cls-1" d="M38.51,65a24.77,24.77,0,0,1,3.93-5.59" transform="translate(0 0)"/><path class="cls-1" d="M41.84,68.43c1.54-2,3.49-4.32,5.17-6.19" transform="translate(0 0)"/><path class="cls-1" d="M49.83,68.31a34.91,34.91,0,0,1,4.65-6.13" transform="translate(0 0)"/><path class="cls-1" d="M54.58,67.75a51.26,51.26,0,0,1,3.67-6.42" transform="translate(0 0)"/><path class="cls-1" d="M33.5,17.44a30.1,30.1,0,0,1,6-3.93" transform="translate(0 0)"/><path class="cls-1" d="M32.75,13.7c1.09-1.53,3.19-2.28,4.91-3.06a40.71,40.71,0,0,0,5.35-3" transform="translate(0 0)"/><path class="cls-1" d="M35.89,7.45a43.62,43.62,0,0,1,6.59-2.76,7.32,7.32,0,0,0,2.17-1.12" transform="translate(0 0)"/><path class="cls-1" d="M56.82,9.51a21.85,21.85,0,0,1,3.7-2.81" transform="translate(0 0)"/><path class="cls-1" d="M57.2,14.89a43.05,43.05,0,0,1,3.79-3l-.33.31" transform="translate(0 0)"/><path class="cls-1" d="M58.24,20.06a75.69,75.69,0,0,1,7.7-6.13" transform="translate(0 0)"/><path class="cls-1" d="M66,20.36c2.23-2,5.09-4.33,7.41-6.23" transform="translate(0 0)"/><path class="cls-1" d="M70.18,24.5a51.85,51.85,0,0,1,5.69-5.42l-.34.15" transform="translate(0 0)"/><path class="cls-1" d="M70.14,31.08l5.59-5-.33.16" transform="translate(0 0)"/><path class="cls-1" d="M70.25,37.82q2.71-2.74,5.62-5.26" transform="translate(0 0)"/><path class="cls-1" d="M70.49,44.74a52.7,52.7,0,0,1,6-5.85l-.66.46" transform="translate(0 0)"/><path class="cls-1" d="M70.49,50.51a45,45,0,0,1,5.12-4.59" transform="translate(0 0)"/><path class="cls-1" d="M70.67,56.38a37.4,37.4,0,0,1,4.84-4.31" transform="translate(0 0)"/><path class="cls-1" d="M70.49,61.34c1.82-1.64,3.32-2.88,5.14-4.52" transform="translate(0 0)"/><path class="cls-1" d="M72.15,66.32l5-4.44" transform="translate(0 0)"/><path class="cls-1" d="M78.66,66.85A22.9,22.9,0,0,1,84.16,62" transform="translate(0 0)"/><path class="cls-1" d="M89.84,17.16a18.76,18.76,0,0,1,4.8-3.52" transform="translate(0 0)"/><path class="cls-1" d="M94.16,21.33c.63-.68,1.91-1.81,2.55-2.5a29.06,29.06,0,0,1,5.56-4.92" transform="translate(0 0)"/><path class="cls-1" d="M188,26.24q1.16-1.91,2.41-3.76" transform="translate(0 0)"/><path class="cls-1" d="M190.21,31.66q1.35-1.9,2.73-3.78s.08-.1.14-.09.07.12,0,.11" transform="translate(0 0)"/><path class="cls-1" d="M193,35.85a28.28,28.28,0,0,1,2.71-3.75" transform="translate(0 0)"/><path class="cls-1" d="M191.82,41.1a59.17,59.17,0,0,1,7.59-3.63.35.35,0,0,1-.33.21" transform="translate(0 0)"/><path class="cls-1" d="M188.79,47.44c1.73-1.08,3.11-2,4.84-3.09a16.26,16.26,0,0,1,2.79-1.42" transform="translate(0 0)"/><path class="cls-1" d="M186,53.43c1.05-.55,1.65-1,2.7-1.52A12.06,12.06,0,0,1,193,50.32" transform="translate(0 0)"/><path class="cls-1" d="M182.88,60a23.58,23.58,0,0,1,6.78-2.87" transform="translate(0 0)"/><path class="cls-1" d="M182.72,66.13a43.48,43.48,0,0,1,6.48-4.54l-.21.18" transform="translate(0 0)"/><path class="cls-1" d="M188.64,67.07c0-.27.54-.72.75-.9l5.46-4.79" transform="translate(0 0)"/><path class="cls-1" d="M194.87,67.84a2.69,2.69,0,0,1,.77-.93c1.74-1.54,3.86-3.26,5.6-4.79" transform="translate(0 0)"/><path class="cls-1" d="M210.16,44.1A49.41,49.41,0,0,0,217,38.32a1.17,1.17,0,0,1,.87-.47" transform="translate(0 0)"/><path class="cls-1" d="M217.35,44.75c2.06-1.87,4.77-4.44,6.83-6.3" transform="translate(0 0)"/><path class="cls-1" d="M217.67,51.7a47.32,47.32,0,0,1,6.55-6" transform="translate(0 0)"/><path class="cls-1" d="M217.93,57.73a42.08,42.08,0,0,1,6.3-5.72" transform="translate(0 0)"/><path class="cls-1" d="M218.15,64l6-5.75" transform="translate(0 0)"/><path class="cls-1" d="M220.47,68.57l6.75-6.73" transform="translate(0 0)"/><path class="cls-1" d="M228.35,68.38a67.81,67.81,0,0,0,5.26-7.3l-.37.18" transform="translate(0 0)"/><path class="cls-1" d="M207,17.68a1.81,1.81,0,0,1,.73-1.21q1.87-1.75,3.83-3.42" transform="translate(0 0)"/><path class="cls-1" d="M213.81,16.84a23.77,23.77,0,0,1,4.78-4.21" transform="translate(0 0)"/><path class="cls-1" d="M217.13,20.24q3.6-3.17,7.45-6" transform="translate(0 0)"/><path class="cls-1" d="M217.35,25q3.25-2.6,6.64-5" transform="translate(0 0)"/><path class="cls-1" d="M220.21,28a35,35,0,0,1,4.29-3.31.23.23,0,0,0-.25-.06" transform="translate(0 0)"/><path class="cls-2" d="M25.41,1.89c.51.26,2.52,4.06,3.65,6.42l5.46,11.39c.17.37.44.79.85.77s.57-.35.74-.64c3.09-5.27,9.1-17.66,9.49-17.94s12.64-.16,13,0c.92.4-16.19,27.12-16.37,27.83-.33,1.29,18.7,31.64,18.38,32-.47.52-15.1,1-16.12.38-.85-.52-9.26-18.32-12.06-21.94-3.09,5.5-11,20.72-12.06,21.5-1.26.94-13.59.73-13-.19,6.52-11,17.48-29.77,17.52-29.86a4.84,4.84,0,0,0,.52-2C25.32,28.37,13,8.77,11.85,6.35,11.34,5.3,10.3,4,9.72,2.73,9,1.06,23.85,1.12,25.41,1.89Z" transform="translate(0 0)"/><path class="cls-3" d="M126.63,17.66c3.87-3.11,7.91-.25,8.61,4.06a49.28,49.28,0,0,1,.24,10.1c-.32,6.75-1.36,13.47-1.37,20.23l1-.13a1.65,1.65,0,0,0-.47-.8c-.45-.47-1.15.24-.71.71l.21.36a.5.5,0,0,0,1-.13c0-9.6,2.1-19.14,1.3-28.76-.22-2.61-.74-5.19-2.94-6.85-2.49-1.88-5.24-1.35-7.55.51-.5.4.21,1.11.71.71Z" transform="translate(0 0)"/><path class="cls-3" d="M120.18,4.54A24.58,24.58,0,0,0,113.66,9a29.8,29.8,0,0,0-6.43,7.15c-4.11,6.64-5.78,14.75-5.76,22.49,0,13.4,8.8,27,22.58,29.62,8.6,1.64,15.85-2.51,22.08-8.07.48-.43-.23-1.13-.71-.71-5.56,5-12,9-19.79,8a25.78,25.78,0,0,1-16-9c-9.14-10.54-9.06-26.7-3.2-38.86A27.6,27.6,0,0,1,113,10.87c2.2-2,4.69-4.29,7.48-5.36.59-.23.34-1.2-.27-1Z" transform="translate(0 0)"/><path class="cls-1" d="M113,12.64l-5,3.27" transform="translate(0 0)"/><path class="cls-1" d="M110.5,18.46c0,.08.14-.06.07-.1s-.16,0-.22.05l-4.95,3.66a3.54,3.54,0,0,0-1,.92" transform="translate(0 0)"/><path class="cls-1" d="M108.57,25.22,102.7,30" transform="translate(0 0)"/><path class="cls-1" d="M108,31.32,102,36.77" transform="translate(0 0)"/><path class="cls-1" d="M108.4,38.05c-2.18,2-4,3.76-6,5.85" transform="translate(0 0)"/><path class="cls-1" d="M109.45,45.1l-5.44,5" transform="translate(0 0)"/><path class="cls-1" d="M112,50l-5.22,5.32" transform="translate(0 0)"/><path class="cls-1" d="M116.33,55.61l-5.09,4.91" transform="translate(0 0)"/><path class="cls-1" d="M121.38,59.54q-2.57,2.52-5.09,5.09c-.12.12-.36,0-.29-.2a.19.19,0,0,1,.34.08" transform="translate(0 0)"/><path class="cls-1" d="M126.5,62c-1.56,1.52-3.39,3.49-5,5" transform="translate(0 0)"/><path class="cls-1" d="M132.92,63.15a40.92,40.92,0,0,0-4.19,5" transform="translate(0 0)"/><path class="cls-1" d="M138.55,62.65a18.79,18.79,0,0,0-2.86,3.79" transform="translate(0 0)"/><path class="cls-1" d="M135.24,13.1a1.69,1.69,0,0,0-1,.61l-2.4,2.38" transform="translate(0 0)"/><path class="cls-1" d="M140,14.94q-2.36,2.33-4.54,4.84" transform="translate(0 0)"/><path class="cls-1" d="M142.54,18.31a81.54,81.54,0,0,0-6.69,6.82" transform="translate(0 0)"/><path class="cls-1" d="M144,23.81A33.43,33.43,0,0,1,140.24,28c-1.43,1.28-3.09,2.37-4.08,4l.08-.5" transform="translate(0 0)"/><path class="cls-1" d="M144.74,30.77q-5.06,5.34-9.7,11.06" transform="translate(0 0)"/><path class="cls-1" d="M144.26,37.79a114.87,114.87,0,0,1-9.31,9.56" transform="translate(0 0)"/><path class="cls-1" d="M142.44,45.32a66.77,66.77,0,0,0-6.84,6.45" transform="translate(0 0)"/><path class="cls-4" d="M158.94,32.26c-.42-20.15-10.5-30.3-25-30.88C99.86.3,98.24,62,133.14,63.14,149.35,63.66,159.29,49,158.94,32.26Zm-25.12,19.5c-17.4,1.1-13.21-40-.68-38.87,10.14-.83,11,12.68,11.14,14C145,36.55,144.38,51.09,133.81,51.76Z" transform="translate(0 0)"/><path class="cls-3" d="M159.44,32.26c-.21-7.7-1.7-15.76-6.47-22A24,24,0,0,0,136.9,1.15a24.48,24.48,0,0,0-25.21,12.67c-9.48,17-4.13,46.07,18,49.5A24,24,0,0,0,151,56.4c6.11-6.41,8.55-15.46,8.45-24.14a.5.5,0,0,0-1,0c.18,15.12-8.88,31.19-25.79,30.35-10.26-.5-18.32-7.16-22-16.56-6.51-16.71-.08-43.16,21.14-44.15,6.85-.32,13.85,1.94,18.66,6.94,6,6.2,7.75,15.11,8,23.42A.5.5,0,0,0,159.44,32.26Z" transform="translate(0 0)"/><path class="cls-3" d="M133.81,51.26c-13.47.61-12-20.92-9.24-29.07,1.76-5.22,5-9.94,11.16-8.68s7.71,8.65,8.09,13.92c.56,7.92.77,22.88-10,23.83-.64.06-.64,1.06,0,1,9.91-.88,11.25-12.61,11.18-20.52-.05-5.93-.47-13.83-5.69-17.7a9.89,9.89,0,0,0-9-1.22c-2.37,1-4,3.21-5.18,5.4-3.22,6.14-4.06,13.89-3.12,20.69.89,6.45,4.22,13.7,11.78,13.35C134.46,52.23,134.46,51.23,133.81,51.26Z" transform="translate(0 0)"/><path class="cls-1" d="M255.81,3.6c-7.45,2.59-13.38,8.93-13.73,16.81-.05,1.23,0,3.63.76,4.56.62.73,9.24,1.35,10.59,1.12.73-.12,3-1.87,4-3.92" transform="translate(0 0)"/><path class="cls-1" d="M259.29,15.85c2.08-.87,4.95-1.49,7.05-.69a5.19,5.19,0,0,1,2.83,3.31,6.59,6.59,0,0,1-.11,2.71,28.21,28.21,0,0,1-2.34,8" transform="translate(0 0)"/><path class="cls-1" d="M264,30.15a35.3,35.3,0,0,0-5.16,4.06,11.86,11.86,0,0,0-2,2.73c-1.07,2.15-.83,9.3-.1,10.09.59.64,9.53,1.43,10,1.28a8.92,8.92,0,0,0,5-4.18" transform="translate(0 0)"/><path class="cls-1" d="M260.52,48.76c-1.08,1-4.5,3.78-4.83,4.51s-.07,12.32,1,13c.6.38,12.83.17,13.75-.5a21.62,21.62,0,0,0,4-4.47" transform="translate(0 0)"/><path class="cls-1" d="M277.12,60.88" transform="translate(0 0)"/><path class="cls-1" d="M244.85,11.92a23.38,23.38,0,0,1,5-2.66l-.29.13" transform="translate(0 0)"/><path class="cls-1" d="M242.27,18.2a5.4,5.4,0,0,1,1.22-1.36A32.78,32.78,0,0,1,248,13.53" transform="translate(0 0)"/><path class="cls-1" d="M242.47,24.3q2-2.14,4.23-4.11" transform="translate(0 0)"/><path class="cls-1" d="M247.82,26a1.29,1.29,0,0,1,.55-.83q2-1.74,4.08-3.35" transform="translate(0 0)"/><path class="cls-1" d="M263.26,14.91a26.35,26.35,0,0,1,4.82-3.31" transform="translate(0 0)"/><path class="cls-1" d="M268.76,16.73,272.85,14s.07-.06.06-.1-.09,0-.06,0" transform="translate(0 0)"/><path class="cls-1" d="M268.85,22.52c1.61-1.15,3.66-2.45,5.38-3.43l-.34,0" transform="translate(0 0)"/><path class="cls-1" d="M256.2,38.61a21.57,21.57,0,0,1,5.14-3.2l-.37.22" transform="translate(0 0)"/><path class="cls-1" d="M256.17,43.91a39.3,39.3,0,0,1,4.62-4" transform="translate(0 0)"/><path class="cls-1" d="M257.8,47.41l3.89-3.31" transform="translate(0 0)"/><path class="cls-1" d="M263.42,48.14c1.27-1.29,3.21-3.13,4.56-4.34" transform="translate(0 0)"/><path class="cls-1" d="M255.56,57.32c1.69-1.57,3.8-3.4,5.59-4.84" transform="translate(0 0)"/><path class="cls-1" d="M256,64a58.56,58.56,0,0,1,4.23-4.68" transform="translate(0 0)"/><path class="cls-1" d="M259.63,66.29a42.23,42.23,0,0,1,4.25-4.67" transform="translate(0 0)"/><path class="cls-1" d="M266,66.45a35.47,35.47,0,0,1,3.95-4.72" transform="translate(0 0)"/><path class="cls-4" d="M252.84,5.79c-4.09,3.09-7.54,14.75-7.09,14.88,1.41.41,11.26,1.86,12,1.47.28-.16-.31-8.62,6.5-10.5,10.28-2.83,11.44,8.19,7.28,12.94-1.35,1.55-6.69,3.45-9.44,8.06-2.31,3.87-1.59,9.77-1.14,11.77,0,0,8.82-.08,10.81,0a.42.42,0,0,0,.44-.37c.26-3-1-4,.74-5.6,6.11-5.73,15.53-10.7,14.72-21.32C286.31,0,262.76-4.13,252.84,5.79" transform="translate(0 0)"/><path class="cls-3" d="M252.48,5.44c-2.37,1.93-3.78,5-4.94,7.71-.62,1.45-1.17,2.94-1.64,4.45-.23.74-.85,2-.69,2.83.28,1.38,3.1,1.23,4.23,1.41,1.47.22,2.94.43,4.41.6,1,.11,2.61.55,3.6.25,1.28-.39.89-2,1.1-3.17.7-4,2.93-7,7.08-7.69,4-.66,7.17,1.41,7.57,5.5A8.52,8.52,0,0,1,270,25.15c-3.35,2.31-7,4.25-8.8,8.13-1.57,3.42-1.48,7.63-.73,11.25a.51.51,0,0,0,.48.37c2.34.2,4.78,0,7.12,0,2.15,0,4.73.91,4.66-1.93-.06-2.25-.49-3.23,1.43-4.95,1.46-1.3,3-2.51,4.48-3.76a32.56,32.56,0,0,0,7.29-7.8A16.72,16.72,0,0,0,284.76,8C281.37,3.52,275.93,1,270.43.23c-6.36-.85-13.24.65-17.94,5.21-.46.45.24,1.16.71.71,8.71-8.44,26.23-6.39,32.08,4.52,4,7.38,1.2,15-4.53,20.39-2.55,2.41-5.47,4.4-8,6.85a3.53,3.53,0,0,0-1.3,2.64c0,.7.23,1.39.22,2.08,0,1.19-.07,1.13-1,1.28-2.65.41-5.71,0-8.4,0a3.68,3.68,0,0,1-1.1,0s.08.09.09-.57c0-1.83-.37-3.61-.19-5.47.47-4.94,3.5-8.08,7.5-10.64,2-1.29,3.7-2.29,4.74-4.55,1.67-3.66,1.38-9.13-2.56-11.23-4.73-2.53-10.71.59-12.46,5.29a15.51,15.51,0,0,0-.8,3.37,8.36,8.36,0,0,1-.15,1.43c-.16.47.45.15-.33.16a53.3,53.3,0,0,1-9.18-1.13,5.24,5.24,0,0,1-1.65-.31c.17.14,0,0,.2-.57.48-1.27.76-2.64,1.23-3.92,1.22-3.34,2.77-7.3,5.61-9.61.5-.41-.21-1.11-.71-.71Z" transform="translate(0 0)"/><path class="cls-4" d="M260.52,48.48c0,5.88-.61,12.46,0,13.16.28.32,14,.08,13.89-.34-.14-.59.42-13.13-.54-12.94-1.54.31-11.57-.39-13.35.13" transform="translate(0 0)"/><path class="cls-3" d="M260,48.48c0,3.79-.38,7.59-.26,11.38,0,1.09-.06,2,1,2.34,1.53.49,3.78.09,5.36.07,2.18,0,4.36-.07,6.54-.22.69,0,1.84.07,2.22-.62s0-3.25,0-4.18c0-2.28.09-4.57-.07-6.85-.06-.82,0-2.14-.85-2.53a8.43,8.43,0,0,0-2.28.06c-1.38,0-2.77-.06-4.15-.09-2.31-.06-4.91-.38-7.18.16-.63.15-.36,1.11.27,1,2.17-.51,4.71-.17,6.92-.12,1.23,0,2.47.07,3.7.08a10.51,10.51,0,0,1,2.56-.07c-.2-.17,0,1.61,0,1.93.06,1.08.07,2.16.07,3.24a63.62,63.62,0,0,0-.06,6.47,2.73,2.73,0,0,1,0,.73c-.09.37.5-.34.05-.3-.87.09-1.74.15-2.61.2-2.21.11-4.42.15-6.62.16a12.91,12.91,0,0,1-3.07,0c-1-.26-.82.17-.89-1.14-.2-3.86.24-7.77.26-11.63a.5.5,0,0,0-1,0Z" transform="translate(0 0)"/><path class="cls-2" d="M61,13.66c.2.2,14.56.49,14.73.66s-.38,38.34.12,47.4c3.65.52,13.67.92,14.31,0,.42-.61-.64-47.89-.25-48.06s13.93.52,14.81.13.5-11.57-.06-11.9c-.29-.17-42.52-1-43.44,0C60.45,2.73,60.84,13.51,61,13.66Z" transform="translate(0 0)"/><path class="cls-2" d="M237.71,1.88c-.3-.24-28.14.12-30.4.37a26.2,26.2,0,0,0-8.95,2.31A16.06,16.06,0,0,0,189.85,19c0,6,3.09,12.53,8.44,15.19.86.43,2.08.38,2,1.33a2.24,2.24,0,0,1-.33.85A219.8,219.8,0,0,0,188.2,61a.64.64,0,0,0,.7.86c4.79-.75,13.39.54,13.68.36s5.2-15.84,8.85-22.74a1.82,1.82,0,0,1,.51-.68,1.84,1.84,0,0,1,1-.24l11.28-.72c-.1,4.87,0,24,.18,24.21s9.88-.1,13.74-.1C238.89,60.32,238.06,2.15,237.71,1.88ZM224.29,28a128.37,128.37,0,0,1-15-.62c-1-.13-3.83-1.73-4.48-3.85a9.6,9.6,0,0,1-.66-3.69,8.4,8.4,0,0,1,2.5-5.33c1.77-1.88,15.24-2.16,17-2C224.82,12.66,224.17,24.23,224.29,28Z" transform="translate(0 0)"/></g></g></svg>