<svg xmlns="http://www.w3.org/2000/svg" viewBox="0 0 956.89 72.23"><defs><style>.cls-1,.cls-4{fill:#fff;}.cls-1,.cls-2{stroke:#000105;stroke-miterlimit:10;}.cls-2{fill:none;}.cls-3{fill:#000105;}</style></defs><title>yesyoucan_ru</title><g id="Слой_2" data-name="Слой 2"><g id="Слой_15" data-name="Слой 15"><path class="cls-1" d="M829.71,2.54a1.26,1.26,0,0,0-1.31,1.34c.18,6.95-.61,23.43.19,26.67s3.72,8.86,6.56,10.59a19.7,19.7,0,0,0,11,3.31c11.7-.37,13.11-6,14.08-5.5.41,7.65-.14,15.29.11,22.87a.39.39,0,0,0,.37.38,117.39,117.39,0,0,0,13,0,.39.39,0,0,0,.35-.46c-.29-2.38-.49-47.37.42-60a.51.51,0,0,0-.49-.55c-4.31-.13-13.4.43-13.68.85s.33,26.5-.09,27.39c-.75,1.59-3.17,2.18-4.81,2.79a13.67,13.67,0,0,1-6.06.74c-.9,0-4.18-.36-6-2.37-1.13-1.27-2.55-20.58-1.15-27.67a.56.56,0,0,0-.51-.67Z" transform="translate(0 -0.03)"/><path class="cls-1" d="M943.92,44.62c.18.18,7.46.45,8-.06.33-.31,5.27-41.37,4.36-42-.47-.31-16.54-1-16.66.39C939.57,3.73,943.74,44.44,943.92,44.62Z" transform="translate(0 -0.03)"/><path class="cls-2" d="M939.55,3l-5.72,6.46c-.28.31,3.83,38.54,4,38.67s9.87.7,11.17.09,1.69-1.56,3-3.47" transform="translate(0 -0.03)"/><path class="cls-2" d="M940.29,8.58l-4.1,4.15c-.33.33-.65.66-1,1a7.78,7.78,0,0,0-.85,1.26" transform="translate(0 -0.03)"/><path class="cls-2" d="M934.8,21.32a1.54,1.54,0,0,1,.59-1,70.15,70.15,0,0,1,5.46-4.91" transform="translate(0 -0.03)"/><path class="cls-2" d="M935.55,27.5q3-2.85,6-5.78" transform="translate(0 -0.03)"/><path class="cls-2" d="M936.29,33.24q2.88-2.67,5.89-5.2" transform="translate(0 -0.03)"/><path class="cls-2" d="M936.92,39q3-2.64,5.83-5.42" transform="translate(0 -0.03)"/><path class="cls-2" d="M937.35,44.55c1.77-1.62,3.92-3.35,5.69-5" transform="translate(0 -0.03)"/><path class="cls-2" d="M940.6,48.31c.93-1.08,2.42-2.95,3.26-4.1" transform="translate(0 -0.03)"/><path class="cls-2" d="M945.24,48.63,948.15,45" transform="translate(0 -0.03)"/><path class="cls-1" d="M940.44,67.13c.39.29,13.43-.2,13.58-.33s-.18-12.76-.45-13-13.47-1-13.44-.13C940.2,55.37,939.94,66.77,940.44,67.13Z" transform="translate(0 -0.03)"/><path class="cls-2" d="M940.13,53.68c-1.06.83-3.77,2.31-3.85,2.45s-.2,15.27.07,15.51,15,.23,15.27-.07,1.46-2.81,2.39-4.76" transform="translate(0 -0.03)"/><path class="cls-2" d="M936.3,60.66q1.73-1.45,3.57-2.77" transform="translate(0 -0.03)"/><path class="cls-2" d="M936.11,66.06a27.76,27.76,0,0,1,4.28-3.67l-.42.2" transform="translate(0 -0.03)"/><path class="cls-2" d="M936.25,71.61a22.07,22.07,0,0,1,4-4.6" transform="translate(0 -0.03)"/><path class="cls-2" d="M942.21,71.5a25.76,25.76,0,0,1,2.61-4.07" transform="translate(0 -0.03)"/><path class="cls-2" d="M946.92,71.36q1.37-2.19,2.9-4.26" transform="translate(0 -0.03)"/><path class="cls-1" d="M306.67,44.27c2.91-4.45,5.35-8,5.88-8,1.12,0,3.69-.28,3.69.5,0,1.12-.55,25-.19,25.25a51,51,0,0,0,11.94.55,1.3,1.3,0,0,0,1.14-1.34c-.24-6.23-.32-23.57,0-25,.13-.61,3.31-.28,3.31-.28,4,6.25,16.76,26,17.25,26.21s10.38.19,14.84-.12c-6.34-8.78-21.27-32-22.05-33.93-.67-1.64,13.22-18.37,17.19-25.75-3.4,0-12.07-.41-12.69-.09s-13.83,22.87-15.75,24.81c0,0-2.09.37-2.12.17-1.17-6.41.15-24.69-.66-25.2-.64-.4-11.55-.12-12.26.24s-1,17-.17,24.74a.45.45,0,0,1-.48.5c-.92,0-1.75.12-2.1-.41,0,0-14.76-24.18-15.38-24.53s-12.7-.77-14-.36c-.59.19,18.72,29.28,18.69,29.76,0,.31-12.29,19.8-19.55,29.25a.42.42,0,0,0,.29.67c2.2.23,10,1,11.46.14.69-.4,6.87-10.42,11.73-17.85" transform="translate(0 -0.03)"/><path class="cls-2" d="M284,2.31c-1.86,1-5.64,4.18-5.5,4.88.23,1.18,16.38,23.78,16.51,25.88.1,1.6-20.47,32.76-19.72,33.72.47.6,10.43,1.91,13.08,1.47,3-.5,5.17-4,6.85-6.48" transform="translate(0 -0.03)"/><path class="cls-2" d="M308.74,41.16a2.6,2.6,0,0,1,2.75,1.14c.12.27-.86,25.12-.68,25.57.31.78,14.26.25,14.48,0s3.3-4.61,3.64-5.88" transform="translate(0 -0.03)"/><path class="cls-2" d="M328.78,42.91a5.09,5.09,0,0,1,1.78-.39c.43,0,15,25.81,15.67,26.18s11.73.44,12.4.2,4.59-4.89,5.89-6.77" transform="translate(0 -0.03)"/><path class="cls-2" d="M347,2.35a54.43,54.43,0,0,0-6.29,1.15A6.42,6.42,0,0,0,338,5.4c-2.27,4.84-8,13.75-9.35,16" transform="translate(0 -0.03)"/><path class="cls-2" d="M316.17,2.37c-2.53,1.89-3.85,3.09-6.38,5-.24.18-.88,8.83-.51,13.1" transform="translate(0 -0.03)"/><path class="cls-2" d="M280.93,11.17A41.26,41.26,0,0,1,286.36,7l-.18.13" transform="translate(0 -0.03)"/><path class="cls-2" d="M284.09,15.91a1.15,1.15,0,0,1,.5-.76,45.77,45.77,0,0,1,5-3.76l-.31.18" transform="translate(0 -0.03)"/><path class="cls-2" d="M287.25,20.32q2.48-2.28,5.1-4.4" transform="translate(0 -0.03)"/><path class="cls-2" d="M290.38,25.1a41.6,41.6,0,0,0,5.31-4" transform="translate(0 -0.03)"/><path class="cls-2" d="M293.72,30.24a1.21,1.21,0,0,1,.41-.49l4.79-4" transform="translate(0 -0.03)"/><path class="cls-2" d="M294.74,34a13.44,13.44,0,0,1,3.47-1.45l4.37-1.36a.49.49,0,0,0-.32-.07" transform="translate(0 -0.03)"/><path class="cls-2" d="M291.68,39.24a56.74,56.74,0,0,0,7.07-1.35" transform="translate(0 -0.03)"/><path class="cls-2" d="M288.43,44.76a61,61,0,0,1,6.73-1.06l-.31,0" transform="translate(0 -0.03)"/><path class="cls-2" d="M285,50.46a29.47,29.47,0,0,1,6.4-.87.18.18,0,0,1-.24.15" transform="translate(0 -0.03)"/><path class="cls-2" d="M281.92,55.41a5,5,0,0,1,2.05-.6l4.51-.63-.22.07" transform="translate(0 -0.03)"/><path class="cls-2" d="M278.68,60.77q2.93-.75,5.81-1.65" transform="translate(0 -0.03)"/><path class="cls-2" d="M278.87,67.46l.57-.43,3.77-2.82a21.52,21.52,0,0,1,3-2" transform="translate(0 -0.03)"/><path class="cls-2" d="M286,68q3-2.7,5.83-5.5" transform="translate(0 -0.03)"/><path class="cls-2" d="M309.56,12.37l6.14-3.73-.52.29" transform="translate(0 -0.03)"/><path class="cls-2" d="M309.25,17.32a56.69,56.69,0,0,1,6-3.59" transform="translate(0 -0.03)"/><path class="cls-2" d="M310.56,22.87a19.54,19.54,0,0,1,5-2.59" transform="translate(0 -0.03)"/><path class="cls-2" d="M311.22,41.54l5-4.5-.17.12" transform="translate(0 -0.03)"/><path class="cls-2" d="M311.48,46.91a2.12,2.12,0,0,1,.82-.85q1.82-1.27,3.74-2.38" transform="translate(0 -0.03)"/><path class="cls-2" d="M311.23,52.22q2.18-2,4.52-3.73" transform="translate(0 -0.03)"/><path class="cls-2" d="M311.32,57.38l4.76-2.82" transform="translate(0 -0.03)"/><path class="cls-2" d="M311.18,64.18q2.19-1.48,4.42-2.9" transform="translate(0 -0.03)"/><path class="cls-2" d="M324.17,62.91a49.55,49.55,0,0,0-3.82,5.18" transform="translate(0 -0.03)"/><path class="cls-2" d="M319,62.51q-2.23,2.67-4.31,5.47a.19.19,0,0,0-.05.14c0,.05.08.08.11,0" transform="translate(0 -0.03)"/><path class="cls-2" d="M336.08,9a60.72,60.72,0,0,1,7.61-2.17" transform="translate(0 -0.03)"/><path class="cls-2" d="M332.79,15c2.25-.85,4.74-.79,7.07-1.43" transform="translate(0 -0.03)"/><path class="cls-2" d="M329.79,19.46c2.28-.61,5.13-1.26,7.45-1.71" transform="translate(0 -0.03)"/><path class="cls-2" d="M329.18,25.09a25.5,25.5,0,0,0,4.52-1.63" transform="translate(0 -0.03)"/><path class="cls-2" d="M330.64,42.54a25.36,25.36,0,0,0,1.88-2.74,3.68,3.68,0,0,1,1.1-1.35" transform="translate(0 -0.03)"/><path class="cls-2" d="M333.62,46.74c-.06-.21.1-.42.25-.58l3-3.19-.27.29" transform="translate(0 -0.03)"/><path class="cls-2" d="M336,51.64q1.88-2.06,3.84-4" transform="translate(0 -0.03)"/><path class="cls-2" d="M338.9,56.11a3.53,3.53,0,0,1,.6-.62l3.67-3.25" transform="translate(0 -0.03)"/><path class="cls-2" d="M341.6,61.43a2.7,2.7,0,0,1,.77-.83,26.12,26.12,0,0,0,3.9-3.26" transform="translate(0 -0.03)"/><path class="cls-2" d="M344.39,66a5.41,5.41,0,0,1,.58-.6q2.09-1.93,4.29-3.73" transform="translate(0 -0.03)"/><path class="cls-2" d="M349.72,69.11q2.49-3.39,5.18-6.63" transform="translate(0 -0.03)"/><path class="cls-2" d="M355.92,68.81q2.52-3.36,5.29-6.52" transform="translate(0 -0.03)"/><path class="cls-2" d="M828.58,3.16c-1.53,1.41-5.13,4.37-5.39,4.89s-.78,20,0,24.34a21.93,21.93,0,0,0,5.66,11.73,14.81,14.81,0,0,0,8.55,4.2c1.17.19,6.37.31,8.6-1.12a43.26,43.26,0,0,0,5-3.28" transform="translate(0 -0.03)"/><path class="cls-2" d="M860.58,1.95c-1.78,1.71-6.49,6.47-6.82,7.13-.84,1.67-.08,17.47.12,23.25" transform="translate(0 -0.03)"/><path class="cls-2" d="M853.88,43.13c.32,6.1-.67,25.06.83,25.19s11.35.24,11.75,0,5.66-4.47,7.25-6.11" transform="translate(0 -0.03)"/><path class="cls-2" d="M828.42,8.74c-1.59,2-3.91,3.28-5.44,5.31l0-.43" transform="translate(0 -0.03)"/><path class="cls-2" d="M822.93,19.25l5.18-4.57" transform="translate(0 -0.03)"/><path class="cls-2" d="M822.58,25.08l5.53-4.31" transform="translate(0 -0.03)"/><path class="cls-2" d="M823.1,30.41a32.32,32.32,0,0,1,5.12-3.87" transform="translate(0 -0.03)"/><path class="cls-2" d="M824.28,36.44q2.33-2.18,4.85-4.15" transform="translate(0 -0.03)"/><path class="cls-2" d="M827.38,42.62a51.43,51.43,0,0,0,4.82-4.68" transform="translate(0 -0.03)"/><path class="cls-2" d="M833,46.81a26.9,26.9,0,0,1,4.38-4.28" transform="translate(0 -0.03)"/><path class="cls-2" d="M839.42,48.51q1.55-2.06,3.28-4" transform="translate(0 -0.03)"/><path class="cls-2" d="M853.48,14.47a53.21,53.21,0,0,1,6.73-5.52" transform="translate(0 -0.03)"/><path class="cls-2" d="M853.7,20.2l5.76-4.81.79-.66" transform="translate(0 -0.03)"/><path class="cls-2" d="M853.84,27.22q3.06-2.31,6.15-4.57" transform="translate(0 -0.03)"/><path class="cls-2" d="M853.88,49c2-1.79,4.54-2.86,6.55-4.62" transform="translate(0 -0.03)"/><path class="cls-2" d="M854.09,55.41a35.75,35.75,0,0,1,6.36-4.73" transform="translate(0 -0.03)"/><path class="cls-2" d="M854,62.54a41.31,41.31,0,0,1,6.19-4.87" transform="translate(0 -0.03)"/><path class="cls-2" d="M854.42,68.09a40.6,40.6,0,0,1,6.08-7" transform="translate(0 -0.03)"/><path class="cls-2" d="M860.75,68.57a79.48,79.48,0,0,0,5.78-6.3" transform="translate(0 -0.03)"/></g><g id="Слой_9" data-name="Слой 9"><path class="cls-2" d="M367.67,2.58C366,4.31,361.94,8.52,361.75,9s-1,57.05-.83,57.4,43.84.8,44.42.51a12,12,0,0,0,5-5.29" transform="translate(0 -0.03)"/><path class="cls-2" d="M410,13.2a36,36,0,0,1-5.91,5.75c-.84.45-16.89-1-23.83-.3" transform="translate(0 -0.03)"/><path class="cls-2" d="M404.14,36.48c-2.07,2.18-6.7,7.06-7,7.19s-10.52.15-16.33-.1c.15,0-.39.87-.24.9" transform="translate(0 -0.03)"/><path class="cls-2" d="M367.12,7.61q-2.79,3.27-5.48,6.63" transform="translate(0 -0.03)"/><path class="cls-2" d="M367,14.33a64,64,0,0,0-5.49,6.51" transform="translate(0 -0.03)"/><path class="cls-2" d="M367,21.29l-5.68,6.82" transform="translate(0 -0.03)"/><path class="cls-2" d="M367.15,27.94l-5.87,6.66" transform="translate(0 -0.03)"/><path class="cls-2" d="M367.06,34.42A55.13,55.13,0,0,0,361,41.31" transform="translate(0 -0.03)"/><path class="cls-2" d="M366.94,42l-3.65,3.73a15.14,15.14,0,0,0-2.19,2.6" transform="translate(0 -0.03)"/><path class="cls-2" d="M367,48a84.63,84.63,0,0,0-6,6" transform="translate(0 -0.03)"/><path class="cls-2" d="M366.9,53.58l-1.37,1.14a32,32,0,0,0-4.61,4.38" transform="translate(0 -0.03)"/><path class="cls-2" d="M367,59.65a4.54,4.54,0,0,1-.87.89c-1.95,1.66-3.29,2.85-5.24,4.51" transform="translate(0 -0.03)"/><path class="cls-2" d="M371.79,61.58a39.6,39.6,0,0,0-4.51,4.95" transform="translate(0 -0.03)"/><path class="cls-2" d="M380,61.31a63.8,63.8,0,0,0-5.41,5.43" transform="translate(0 -0.03)"/><path class="cls-2" d="M385.44,61.6a58.62,58.62,0,0,0-5.07,5.14" transform="translate(0 -0.03)"/><path class="cls-2" d="M406.3,61.41A42.75,42.75,0,0,0,402,66.88" transform="translate(0 -0.03)"/><path class="cls-2" d="M400.4,61.76c-1.68,1.28-2.91,3.53-4.3,5.12" transform="translate(0 -0.03)"/><path class="cls-2" d="M394.16,61.76a19.61,19.61,0,0,0-3.46,5.16" transform="translate(0 -0.03)"/><path class="cls-2" d="M388.62,61.67a27.3,27.3,0,0,0-3.47,5.19" transform="translate(0 -0.03)"/><path class="cls-2" d="M385.71,36.69q-2,3.2-3.67,6.57" transform="translate(0 -0.03)"/><path class="cls-2" d="M385.69,43.5q2.24-3.43,4.26-7" transform="translate(0 -0.03)"/><path class="cls-2" d="M391.78,43.58c-.1-.05,0-.2,0-.3l4.32-6.53" transform="translate(0 -0.03)"/><path class="cls-2" d="M400.4,19.07l4.2-6-.39.12" transform="translate(0 -0.03)"/><path class="cls-2" d="M396,18.59a15.15,15.15,0,0,0,1.25-1.37,40.73,40.73,0,0,1,3.37-4.32" transform="translate(0 -0.03)"/><path class="cls-2" d="M391.41,18.66,396,12.57" transform="translate(0 -0.03)"/><path class="cls-2" d="M387.49,18.3l3.3-5.63" transform="translate(0 -0.03)"/><path class="cls-2" d="M382.19,18.22l1.74-3L385.26,13l.23-.37" transform="translate(0 -0.03)"/><path class="cls-1" d="M367.11,61.1c-.07.52,43.05.74,43.26.52s.24-11.49,0-11.75-28,.25-28.63-.08c-1-.53-.48-12.74-.07-13.17s22.1.43,22.42,0,.8-10.86.08-11.17-21.85.3-22.26,0-.48-12-.08-12.39,19,0,28.25.17c-.06-3.23.54-11.14.17-11.65,0,0-42.19-.23-42.75.9C366.29,4.83,367.25,60,367.11,61.1Z" transform="translate(0 -0.03)"/></g><g id="Слой_5" data-name="Слой 5"><path class="cls-3" d="M249.59,17.68c3.87-3.11,7.91-.25,8.61,4.06a49.28,49.28,0,0,1,.24,10.1c-.32,6.75-1.36,13.47-1.37,20.23l1-.13a1.65,1.65,0,0,0-.47-.8c-.45-.47-1.15.24-.71.71l.21.36a.5.5,0,0,0,1-.13c0-9.6,2.1-19.14,1.3-28.76-.22-2.61-.74-5.19-2.94-6.85-2.49-1.88-5.24-1.35-7.55.51-.5.4.21,1.11.71.71Z" transform="translate(0 -0.03)"/><path class="cls-3" d="M243.15,4.57A24.58,24.58,0,0,0,236.62,9a29.8,29.8,0,0,0-6.43,7.15c-4.11,6.64-5.78,14.75-5.76,22.49,0,13.4,8.8,27,22.58,29.62,8.6,1.64,15.85-2.51,22.08-8.07.48-.43-.23-1.13-.71-.71-5.56,5-12,9-19.79,8a25.78,25.78,0,0,1-16-9c-9.14-10.54-9.06-26.7-3.2-38.86a27.6,27.6,0,0,1,6.51-8.74c2.2-2,4.69-4.29,7.48-5.36.59-.23.34-1.2-.27-1Z" transform="translate(0 -0.03)"/><path class="cls-2" d="M235.93,12.66l-5,3.27" transform="translate(0 -0.03)"/><path class="cls-2" d="M233.47,18.48c0,.08.14-.06.07-.1s-.16,0-.22.05l-4.95,3.66a3.54,3.54,0,0,0-1,.92" transform="translate(0 -0.03)"/><path class="cls-2" d="M231.54,25.24,225.67,30" transform="translate(0 -0.03)"/><path class="cls-2" d="M231,31.34l-6.06,5.46" transform="translate(0 -0.03)"/><path class="cls-2" d="M231.36,38.08c-2.18,2-4,3.76-6,5.85" transform="translate(0 -0.03)"/><path class="cls-2" d="M232.41,45.12l-5.44,5" transform="translate(0 -0.03)"/><path class="cls-2" d="M234.92,50l-5.22,5.32" transform="translate(0 -0.03)"/><path class="cls-2" d="M239.3,55.63l-5.09,4.91" transform="translate(0 -0.03)"/><path class="cls-2" d="M244.35,59.56q-2.57,2.52-5.09,5.09c-.12.12-.36,0-.29-.2a.19.19,0,0,1,.34.08" transform="translate(0 -0.03)"/><path class="cls-2" d="M249.47,62.05c-1.56,1.52-3.39,3.49-5,5" transform="translate(0 -0.03)"/><path class="cls-2" d="M255.89,63.17a40.92,40.92,0,0,0-4.19,5" transform="translate(0 -0.03)"/><path class="cls-2" d="M261.52,62.68a18.79,18.79,0,0,0-2.86,3.79" transform="translate(0 -0.03)"/><path class="cls-2" d="M258.2,13.12a1.69,1.69,0,0,0-1,.61l-2.4,2.38" transform="translate(0 -0.03)"/><path class="cls-2" d="M263,15q-2.36,2.33-4.54,4.84" transform="translate(0 -0.03)"/><path class="cls-2" d="M265.51,18.33a81.54,81.54,0,0,0-6.69,6.82" transform="translate(0 -0.03)"/><path class="cls-2" d="M267,23.84A33.43,33.43,0,0,1,263.21,28c-1.43,1.28-3.09,2.37-4.08,4l.08-.5" transform="translate(0 -0.03)"/><path class="cls-2" d="M267.71,30.8q-5.06,5.34-9.7,11.06" transform="translate(0 -0.03)"/><path class="cls-2" d="M267.23,37.81a114.87,114.87,0,0,1-9.31,9.56" transform="translate(0 -0.03)"/><path class="cls-2" d="M265.41,45.35a66.77,66.77,0,0,0-6.84,6.45" transform="translate(0 -0.03)"/><path class="cls-4" d="M281.91,32.28c-.42-20.15-10.5-30.3-25-30.88C222.82.33,221.21,62,256.1,63.16,272.32,63.69,282.25,49,281.91,32.28Zm-25.12,19.5c-17.4,1.1-13.21-40-.68-38.87,10.14-.83,11,12.68,11.14,14C268,36.58,267.35,51.12,256.78,51.78Z" transform="translate(0 -0.03)"/><path class="cls-3" d="M282.41,32.28c-.21-7.7-1.7-15.76-6.47-22a24,24,0,0,0-16.07-9.09,24.48,24.48,0,0,0-25.21,12.67c-9.48,17-4.13,46.07,18,49.5A24,24,0,0,0,274,56.42c6.11-6.41,8.55-15.46,8.45-24.14a.5.5,0,0,0-1,0c.18,15.12-8.88,31.19-25.79,30.35-10.26-.5-18.32-7.16-22-16.56-6.51-16.71-.08-43.16,21.14-44.15,6.85-.32,13.85,1.94,18.66,6.94,6,6.2,7.75,15.11,8,23.42A.5.5,0,0,0,282.41,32.28Z" transform="translate(0 -0.03)"/><path class="cls-3" d="M256.78,51.28c-13.47.61-12-20.92-9.24-29.07,1.76-5.22,5-9.94,11.16-8.68s7.71,8.65,8.09,13.92c.56,7.92.77,22.88-10,23.83-.64.06-.64,1.06,0,1C266.7,51.4,268,39.68,268,31.76c-.05-5.93-.47-13.83-5.69-17.7a9.89,9.89,0,0,0-9-1.22c-2.37,1-4,3.21-5.18,5.4-3.22,6.14-4.06,13.89-3.12,20.69.89,6.45,4.22,13.7,11.78,13.35C257.42,52.25,257.43,51.25,256.78,51.28Z" transform="translate(0 -0.03)"/><path class="cls-3" d="M654.76,17.68c3.87-3.11,7.91-.25,8.61,4.06a49.28,49.28,0,0,1,.24,10.1c-.32,6.75-1.36,13.47-1.37,20.23l1-.13a1.65,1.65,0,0,0-.47-.8c-.45-.47-1.15.24-.71.71l.21.36a.5.5,0,0,0,1-.13c0-9.6,2.1-19.14,1.3-28.76-.22-2.61-.74-5.19-2.94-6.85-2.49-1.88-5.24-1.35-7.55.51-.5.4.21,1.11.71.71Z" transform="translate(0 -0.03)"/><path class="cls-3" d="M648.32,4.57A24.58,24.58,0,0,0,641.79,9a29.8,29.8,0,0,0-6.43,7.15c-4.11,6.64-5.78,14.75-5.76,22.49,0,13.4,8.8,27,22.58,29.62,8.6,1.64,15.85-2.51,22.08-8.07.48-.43-.23-1.13-.71-.71-5.56,5-12,9-19.79,8a25.78,25.78,0,0,1-16-9c-9.14-10.54-9.06-26.7-3.2-38.86a27.6,27.6,0,0,1,6.51-8.74c2.2-2,4.69-4.29,7.48-5.36.59-.23.34-1.2-.27-1Z" transform="translate(0 -0.03)"/><path class="cls-2" d="M641.1,12.66l-5,3.27" transform="translate(0 -0.03)"/><path class="cls-2" d="M638.64,18.48c0,.08.14-.06.07-.1s-.16,0-.22.05l-4.95,3.66a3.54,3.54,0,0,0-1,.92" transform="translate(0 -0.03)"/><path class="cls-2" d="M636.71,25.24,630.84,30" transform="translate(0 -0.03)"/><path class="cls-2" d="M636.17,31.34,630.1,36.8" transform="translate(0 -0.03)"/><path class="cls-2" d="M636.53,38.08c-2.18,2-4,3.76-6,5.85" transform="translate(0 -0.03)"/><path class="cls-2" d="M637.59,45.12l-5.44,5" transform="translate(0 -0.03)"/><path class="cls-2" d="M640.09,50l-5.22,5.32" transform="translate(0 -0.03)"/><path class="cls-2" d="M644.47,55.63l-5.09,4.91" transform="translate(0 -0.03)"/><path class="cls-2" d="M649.52,59.56q-2.57,2.52-5.09,5.09c-.12.12-.36,0-.29-.2a.19.19,0,0,1,.34.08" transform="translate(0 -0.03)"/><path class="cls-2" d="M654.64,62.05c-1.56,1.52-3.39,3.49-5,5" transform="translate(0 -0.03)"/><path class="cls-2" d="M661.06,63.17a40.92,40.92,0,0,0-4.19,5" transform="translate(0 -0.03)"/><path class="cls-2" d="M666.69,62.68a18.79,18.79,0,0,0-2.86,3.79" transform="translate(0 -0.03)"/><path class="cls-2" d="M663.38,13.12a1.69,1.69,0,0,0-1,.61L660,16.11" transform="translate(0 -0.03)"/><path class="cls-2" d="M668.18,15q-2.36,2.33-4.54,4.84" transform="translate(0 -0.03)"/><path class="cls-2" d="M670.68,18.33A81.54,81.54,0,0,0,664,25.16" transform="translate(0 -0.03)"/><path class="cls-2" d="M672.16,23.84A33.43,33.43,0,0,1,668.38,28c-1.43,1.28-3.09,2.37-4.08,4l.08-.5" transform="translate(0 -0.03)"/><path class="cls-2" d="M672.88,30.8q-5.06,5.34-9.7,11.06" transform="translate(0 -0.03)"/><path class="cls-2" d="M672.4,37.81a114.87,114.87,0,0,1-9.31,9.56" transform="translate(0 -0.03)"/><path class="cls-2" d="M670.58,45.35a66.77,66.77,0,0,0-6.84,6.45" transform="translate(0 -0.03)"/><path class="cls-4" d="M687.08,32.28c-.42-20.15-10.5-30.3-25-30.88C628,.33,626.38,62,661.28,63.16,677.49,63.69,687.42,49,687.08,32.28ZM662,51.78c-17.4,1.1-13.21-40-.68-38.87,10.14-.83,11,12.68,11.14,14C673.16,36.58,672.52,51.12,662,51.78Z" transform="translate(0 -0.03)"/><path class="cls-3" d="M687.58,32.28c-.21-7.7-1.7-15.76-6.47-22A24,24,0,0,0,665,1.17a24.48,24.48,0,0,0-25.21,12.67c-9.48,17-4.13,46.07,18,49.5a24,24,0,0,0,21.31-6.91c6.11-6.41,8.55-15.46,8.45-24.14a.5.5,0,0,0-1,0c.18,15.12-8.88,31.19-25.79,30.35-10.26-.5-18.32-7.16-22-16.56-6.51-16.71-.08-43.16,21.14-44.15,6.85-.32,13.85,1.94,18.66,6.94,6,6.2,7.75,15.11,8,23.42A.5.5,0,0,0,687.58,32.28Z" transform="translate(0 -0.03)"/><path class="cls-3" d="M662,51.28c-13.47.61-12-20.92-9.24-29.07,1.76-5.22,5-9.94,11.16-8.68s7.71,8.65,8.09,13.92c.56,7.92.77,22.88-10,23.83-.64.06-.64,1.06,0,1,9.91-.88,11.25-12.61,11.18-20.52-.05-5.93-.47-13.83-5.69-17.7a9.89,9.89,0,0,0-9-1.22c-2.37,1-4,3.21-5.18,5.4-3.22,6.14-4.06,13.89-3.12,20.69.89,6.45,4.22,13.7,11.78,13.35C662.59,52.25,662.6,51.25,662,51.28Z" transform="translate(0 -0.03)"/><path class="cls-3" d="M788.84,16.78c3.87-3.11,7.91-.25,8.61,4.06a49.28,49.28,0,0,1,.24,10.1c-.32,6.75-1.36,13.47-1.37,20.23l1-.13a1.65,1.65,0,0,0-.47-.8c-.45-.47-1.15.24-.71.71l.21.36a.5.5,0,0,0,1-.13c0-9.6,2.1-19.14,1.3-28.76-.22-2.61-.74-5.19-2.94-6.85-2.49-1.88-5.24-1.35-7.55.51-.5.4.21,1.11.71.71Z" transform="translate(0 -0.03)"/><path class="cls-3" d="M782.39,3.67a24.58,24.58,0,0,0-6.52,4.42,29.8,29.8,0,0,0-6.43,7.15c-4.11,6.64-5.78,14.75-5.76,22.49,0,13.4,8.8,27,22.58,29.62,8.6,1.64,15.85-2.51,22.08-8.07.48-.43-.23-1.13-.71-.71-5.56,5-12,9-19.79,8a25.78,25.78,0,0,1-16-9c-9.14-10.54-9.06-26.7-3.2-38.86A27.6,27.6,0,0,1,775.18,10c2.2-2,4.69-4.29,7.48-5.36.59-.23.34-1.2-.27-1Z" transform="translate(0 -0.03)"/><path class="cls-2" d="M775.17,11.77l-5,3.27" transform="translate(0 -0.03)"/><path class="cls-2" d="M772.71,17.58c0,.08.14-.06.07-.1s-.16,0-.22.05l-4.95,3.66a3.54,3.54,0,0,0-1,.92" transform="translate(0 -0.03)"/><path class="cls-2" d="M770.79,24.35l-5.87,4.75" transform="translate(0 -0.03)"/><path class="cls-2" d="M770.24,30.45l-6.06,5.46" transform="translate(0 -0.03)"/><path class="cls-2" d="M770.61,37.18c-2.18,2-4,3.76-6,5.85" transform="translate(0 -0.03)"/><path class="cls-2" d="M771.66,44.23l-5.44,5" transform="translate(0 -0.03)"/><path class="cls-2" d="M774.16,49.11l-5.22,5.32" transform="translate(0 -0.03)"/><path class="cls-2" d="M778.54,54.74l-5.09,4.91" transform="translate(0 -0.03)"/><path class="cls-2" d="M783.59,58.67q-2.57,2.52-5.09,5.09c-.12.12-.36,0-.29-.2a.19.19,0,0,1,.34.08" transform="translate(0 -0.03)"/><path class="cls-2" d="M788.71,61.16c-1.56,1.52-3.39,3.49-5,5" transform="translate(0 -0.03)"/><path class="cls-2" d="M795.13,62.28a40.92,40.92,0,0,0-4.19,5" transform="translate(0 -0.03)"/><path class="cls-2" d="M800.76,61.78a18.79,18.79,0,0,0-2.86,3.79" transform="translate(0 -0.03)"/><path class="cls-2" d="M797.45,12.23a1.69,1.69,0,0,0-1,.61L794,15.22" transform="translate(0 -0.03)"/><path class="cls-2" d="M802.25,14.07q-2.36,2.33-4.54,4.84" transform="translate(0 -0.03)"/><path class="cls-2" d="M804.75,17.44a81.54,81.54,0,0,0-6.69,6.82" transform="translate(0 -0.03)"/><path class="cls-2" d="M806.23,22.94a33.43,33.43,0,0,1-3.78,4.19c-1.43,1.28-3.09,2.37-4.08,4l.08-.5" transform="translate(0 -0.03)"/><path class="cls-2" d="M807,29.9q-5.06,5.34-9.7,11.06" transform="translate(0 -0.03)"/><path class="cls-2" d="M806.47,36.92a114.87,114.87,0,0,1-9.31,9.56" transform="translate(0 -0.03)"/><path class="cls-2" d="M804.65,44.45a66.77,66.77,0,0,0-6.84,6.45" transform="translate(0 -0.03)"/><path class="cls-4" d="M821.15,31.39c-.42-20.15-10.5-30.3-25-30.88-34.06-1.08-35.68,60.61-.78,61.75C811.56,62.79,821.5,48.15,821.15,31.39ZM796,50.89c-17.4,1.1-13.21-40-.68-38.87,10.14-.83,11,12.68,11.14,14C807.23,35.68,806.59,50.22,796,50.89Z" transform="translate(0 -0.03)"/><path class="cls-3" d="M821.65,31.39c-.21-7.7-1.7-15.76-6.47-22A24,24,0,0,0,799.11.27a24.48,24.48,0,0,0-25.21,12.67c-9.48,17-4.13,46.07,18,49.5a24,24,0,0,0,21.31-6.91c6.11-6.41,8.55-15.46,8.45-24.14a.5.5,0,0,0-1,0c.18,15.12-8.88,31.19-25.79,30.35-10.26-.5-18.32-7.16-22-16.56C766.37,28.47,772.8,2,794,1,800.87.71,807.86,3,812.68,8c6,6.2,7.75,15.11,8,23.42A.5.5,0,0,0,821.65,31.39Z" transform="translate(0 -0.03)"/><path class="cls-3" d="M796,50.39c-13.47.61-12-20.92-9.24-29.07,1.76-5.22,5-9.94,11.16-8.68s7.71,8.65,8.09,13.92c.56,7.92.77,22.88-10,23.83-.64.06-.64,1.06,0,1,9.91-.88,11.25-12.61,11.18-20.52-.05-5.93-.47-13.83-5.69-17.7a9.89,9.89,0,0,0-9-1.22c-2.37,1-4,3.21-5.18,5.4-3.22,6.14-4.06,13.89-3.12,20.69.89,6.45,4.22,13.7,11.78,13.35C796.67,51.36,796.67,50.36,796,50.39Z" transform="translate(0 -0.03)"/><path class="cls-2" d="M5,1.93C3.16,3.95,1.11,4.35.54,7,.33,8,1,19.33,1.48,19.79s8.73.57,12.37.55c.31,3.78.27,45.08.65,45.59.63.84,9.79.9,13.83.5.82-.08,4.92-3.25,5.58-4.67" transform="translate(0 -0.03)"/><path class="cls-2" d="M48.7,13.66a20.2,20.2,0,0,0-1.91,3.67,6.47,6.47,0,0,1-2.63,3.11A6.3,6.3,0,0,1,42,21c-3.15.35-6.48-.16-9.4,1.06a.41.41,0,0,0,.48.16" transform="translate(0 -0.03)"/><path class="cls-2" d="M.57,9.55a21.85,21.85,0,0,1,3.7-2.81" transform="translate(0 -0.03)"/><path class="cls-2" d="M1,14.92a43.05,43.05,0,0,1,3.79-3l-.33.31" transform="translate(0 -0.03)"/><path class="cls-2" d="M2,20.09A75.69,75.69,0,0,1,9.69,14" transform="translate(0 -0.03)"/><path class="cls-2" d="M9.8,20.39c2.23-2,5.09-4.33,7.41-6.23" transform="translate(0 -0.03)"/><path class="cls-2" d="M13.94,24.53a51.85,51.85,0,0,1,5.69-5.42l-.34.15" transform="translate(0 -0.03)"/><path class="cls-2" d="M13.9,31.12l5.59-5-.33.16" transform="translate(0 -0.03)"/><path class="cls-2" d="M14,37.85q2.71-2.74,5.62-5.26" transform="translate(0 -0.03)"/><path class="cls-2" d="M14.24,44.78a52.7,52.7,0,0,1,6-5.85l-.66.46" transform="translate(0 -0.03)"/><path class="cls-2" d="M14.24,50.54a45,45,0,0,1,5.12-4.59" transform="translate(0 -0.03)"/><path class="cls-2" d="M14.43,56.41a37.4,37.4,0,0,1,4.84-4.31" transform="translate(0 -0.03)"/><path class="cls-2" d="M14.24,61.37c1.82-1.64,3.32-2.88,5.14-4.52" transform="translate(0 -0.03)"/><path class="cls-2" d="M15.9,66.36l5-4.44" transform="translate(0 -0.03)"/><path class="cls-2" d="M22.41,66.88A22.9,22.9,0,0,1,27.91,62" transform="translate(0 -0.03)"/><path class="cls-2" d="M33.6,17.19a18.76,18.76,0,0,1,4.8-3.52" transform="translate(0 -0.03)"/><path class="cls-2" d="M37.92,21.36c.63-.68,1.91-1.81,2.55-2.5A29.06,29.06,0,0,1,46,13.95" transform="translate(0 -0.03)"/><path class="cls-1" d="M4.75,13.7c.2.2,14.56.49,14.73.66s-.38,38.34.12,47.4c3.65.52,13.67.92,14.31,0,.42-.61-.64-47.89-.25-48.06s13.93.52,14.81.13.5-11.57-.06-11.9c-.29-.17-42.52-1-43.44,0C4.21,2.76,4.6,13.54,4.75,13.7Z" transform="translate(0 -0.03)"/><path class="cls-2" d="M156.77,2c-2.47,2.58-5.5,5.17-5.76,6s1.24,58.17,1.79,58.5c.34.21,12.4.25,13.23-.28s2.08-2.76,2.6-4.28" transform="translate(0 -0.03)"/><path class="cls-2" d="M169,35.53c.57,1.83,8.07,29.62,9.14,31,.11.15,10,1.35,11.39.48s2.2-2.78,3.55-5" transform="translate(0 -0.03)"/><path class="cls-2" d="M202.14,30.15c.07,10.57.11,35,.75,36,.78,1.22,15.3,1.21,15.55.81,1.52-2.45,2.23-3.1,3.76-5.55" transform="translate(0 -0.03)"/><path class="cls-2" d="M200.24,2a63.16,63.16,0,0,0-7.66,5.92c-.39.5-4.74,15.09-5.58,23" transform="translate(0 -0.03)"/><path class="cls-2" d="M151.29,13.15a31,31,0,0,1,4.92-5.36" transform="translate(0 -0.03)"/><path class="cls-2" d="M151.38,19.07a65.35,65.35,0,0,1,4.84-5.67" transform="translate(0 -0.03)"/><path class="cls-2" d="M151.13,24.38l1.77-1.91a31.44,31.44,0,0,1,3.34-3.27s.1-.07.15,0,0,.13,0,.1" transform="translate(0 -0.03)"/><path class="cls-2" d="M151.49,31.51a40.09,40.09,0,0,1,5-5.91" transform="translate(0 -0.03)"/><path class="cls-2" d="M152,36.89a21.47,21.47,0,0,1,4.8-4.93" transform="translate(0 -0.03)"/><path class="cls-2" d="M151.93,44.69a15.61,15.61,0,0,1,2.67-3.5l1.89-2s.11-.1.16-.07,0,.13,0,.07" transform="translate(0 -0.03)"/><path class="cls-2" d="M152.18,50.77q2.29-2.7,4.83-5.17" transform="translate(0 -0.03)"/><path class="cls-2" d="M152.94,57.87a23.68,23.68,0,0,1,4-4.53" transform="translate(0 -0.03)"/><path class="cls-2" d="M152.54,64.9a38.8,38.8,0,0,1,4-4.3" transform="translate(0 -0.03)"/><path class="cls-2" d="M156.82,66.5l3.46-3.88" transform="translate(0 -0.03)"/><path class="cls-2" d="M163.13,66.75a17.63,17.63,0,0,1,3-4.14l-.24.17" transform="translate(0 -0.03)"/><path class="cls-2" d="M169.06,29.67a25.59,25.59,0,0,1,2.59-3.92" transform="translate(0 -0.03)"/><path class="cls-2" d="M169.33,36.85a43.39,43.39,0,0,1,3.62-5.79" transform="translate(0 -0.03)"/><path class="cls-2" d="M171,42.22q1.73-2.51,3.58-4.92c.09-.12.35-.2.35,0" transform="translate(0 -0.03)"/><path class="cls-2" d="M172.63,48q1.95-2.71,4-5.32" transform="translate(0 -0.03)"/><path class="cls-2" d="M174.28,54.87a38.87,38.87,0,0,1,4.14-5.44" transform="translate(0 -0.03)"/><path class="cls-2" d="M176,61.06A7.29,7.29,0,0,0,177,59.73a25.17,25.17,0,0,1,3.86-4.4l-.38.19" transform="translate(0 -0.03)"/><path class="cls-2" d="M178.6,66.87A35,35,0,0,1,182.85,62s.07-.06.1,0,0,.09,0,.07" transform="translate(0 -0.03)"/><path class="cls-2" d="M185.51,67.6a36.56,36.56,0,0,0,3.62-5.36" transform="translate(0 -0.03)"/><path class="cls-2" d="M191.68,11.45a25.08,25.08,0,0,1,5.88-3.73" transform="translate(0 -0.03)"/><path class="cls-2" d="M189.62,17.82l6.63-4.22" transform="translate(0 -0.03)"/><path class="cls-2" d="M188.29,23.3q3.3-2.54,6.83-4.78s.11-.08.08-.14-.12,0-.06,0" transform="translate(0 -0.03)"/><path class="cls-2" d="M187.36,28.68q3.35-2.55,6.75-5l-.6.05" transform="translate(0 -0.03)"/><path class="cls-2" d="M187.82,33.5a36.7,36.7,0,0,1,4.69-3.59l-.42-.06" transform="translate(0 -0.03)"/><path class="cls-2" d="M204.49,24.16l2.8-1.92c.14-.1.37-.18.47,0" transform="translate(0 -0.03)"/><path class="cls-2" d="M202.42,31.52a19.3,19.3,0,0,1,5.1-4.15" transform="translate(0 -0.03)"/><path class="cls-2" d="M202.14,38.89q2.87-2.43,5.76-4.82" transform="translate(0 -0.03)"/><path class="cls-2" d="M202.3,44.89Q205,41.8,208,39" transform="translate(0 -0.03)"/><path class="cls-2" d="M202,52.54c1.54-2.48,4.23-4,6-6.34l-.61.5" transform="translate(0 -0.03)"/><path class="cls-2" d="M202.86,59.21a46.25,46.25,0,0,1,5-4.5l-.36.31" transform="translate(0 -0.03)"/><path class="cls-2" d="M202.87,66.39a39.32,39.32,0,0,1,4.65-4.69" transform="translate(0 -0.03)"/><path class="cls-2" d="M208.79,67.23q2.32-2.71,4.81-5.28" transform="translate(0 -0.03)"/><path class="cls-2" d="M213.72,67.57a34.8,34.8,0,0,1,4.57-5.11" transform="translate(0 -0.03)"/><path class="cls-4" d="M156.77,2c-.36,12,.26,48,.16,60,0,.52,3.69,1,11.71-.08,1.1-.14-.08-49-.08-49s12.83,47.41,14.88,48.88c.84.61,9.54.51,9.63.13C195.42,51.46,208,12.31,208,12.31s-.43,43.29.07,49.52c.06.78,10.75.52,14.06-.12.75-.15.54-53,0-59.73a146.84,146.84,0,0,0-21.87,0c-1.15.07-10.5,38.16-10.5,38.16s-10.58-38-11-38.16c-.66-.21-18.41-.36-22,0" transform="translate(0 -0.03)"/><path class="cls-3" d="M156.27,2c-.3,10.66-.09,21.35,0,32q.07,8.91.14,17.82,0,3.47,0,6.94c0,1-.45,3,.31,3.82s2.91.5,3.76.5c1.54,0,3.08-.1,4.61-.24,1-.09,3.15.14,3.85-.51.87-.82.53-3.44.56-4.49.24-8.37,0-16.77-.08-25.14q-.15-9.86-.39-19.71l-1,.13c4,14.68,7.84,29.5,12.77,43.9.48,1.39,1,4.29,2.29,5.24s3.79.53,5.14.54c1.14,0,4,.44,5-.33.77-.6.89-2.86,1.13-3.78.56-2.12,1.16-4.24,1.77-6.35,1.52-5.27,3.11-10.53,4.73-15.77q3.72-12.1,7.58-24.15l-1-.13q-.11,11.21-.15,22.42c0,5.65,0,11.31,0,17,0,2.1,0,4.2.07,6.3,0,1-.3,3,.15,3.9s2.22.84,3.2.88a68.86,68.86,0,0,0,8.92-.27c1-.09,2.48.09,3-.84a7,7,0,0,0,.19-2.44c.41-9.35.26-18.75.23-28.11,0-9.67.26-19.49-.47-29.14a.52.52,0,0,0-.5-.5,109.9,109.9,0,0,0-13-.35q-3.46.06-6.92.24c-.75,0-1.79-.2-2.39.33a6.13,6.13,0,0,0-1,2.44c-3,8.88-5.05,18.11-7.34,27.19q-1.09,4.34-2.16,8.68h1q-3.31-11.91-6.69-23.79c-1.2-4.23-2.38-8.47-3.69-12.67-.17-.53-.3-1.59-.77-2-.8-.62-3.22-.24-4.14-.26-6-.11-12.19-.42-18.17.19-.63.07-.64,1.07,0,1a137.11,137.11,0,0,1,15.32-.23,41.12,41.12,0,0,1,6.18.14c.65.11-.06-.42.21.14A10.13,10.13,0,0,1,178.95,4c2.81,9.1,5.29,18.32,7.87,27.49q1.23,4.37,2.44,8.75a.5.5,0,0,0,1,0c2.71-11.05,5.4-22.14,8.63-33.05.31-1.06.63-2.12,1-3.17a4.24,4.24,0,0,1,.42-1.15c.59-.74-.32-.13,1-.48,1.6-.45,3.77-.19,5.44-.24q2-.06,4-.08c2.41,0,4.83,0,7.24.1a20.36,20.36,0,0,0,3.6.21,1.88,1.88,0,0,1,.61.05c-.79-.2-.28-.4-.39.46-.26,2.06.15,4.47.2,6.55q.44,21.93.14,43.88c0,2.2-.05,4.42-.18,6.62,0,.33.08,1.15-.12,1.43.1-.13-1.12,0-1.54.06-1,.11-2.1.17-3.15.23-2,.1-4,.16-6,.09-1.46-.05-2.37.24-2.49-.84a71.5,71.5,0,0,1-.15-7.29c-.13-13.78,0-27.57.14-41.35a.5.5,0,0,0-1-.13c-4.94,15.39-10,30.81-14.13,46.45-.2.76-.38,1.53-.58,2.3s0,.73-1.08.82a36.37,36.37,0,0,1-6.75,0c-1.23-.13-1.34-.22-1.81-1.27s-.9-2.32-1.3-3.49c-2.83-8.23-5.16-16.64-7.53-25q-2.7-9.51-5.29-19a.5.5,0,0,0-1,.13c.32,13.13.6,26.26.55,39.39,0,2.66,0,5.35-.19,8-.14,1.78-.53,1.17-2.48,1.37a32.85,32.85,0,0,1-7.54.23c-.93-.13-.77,0-1-.66a11.27,11.27,0,0,1,0-2.79q0-3.22,0-6.45,0-8.22-.13-16.43c-.09-11.22-.33-22.46,0-33.68a.5.5,0,0,0-1,0Z" transform="translate(0 -0.03)"/><path class="cls-2" d="M696.19,1.83c-2.47,2.58-5.5,5.17-5.76,6s1.24,58.17,1.79,58.5c.34.21,12.4.25,13.23-.28s2.08-2.76,2.6-4.28" transform="translate(0 -0.03)"/><path class="cls-2" d="M708.39,35.33c.57,1.83,8.07,29.62,9.14,31,.11.15,10,1.35,11.39.48s2.2-2.78,3.55-5" transform="translate(0 -0.03)"/><path class="cls-2" d="M741.56,29.95c.07,10.57.11,35,.75,36,.78,1.22,15.3,1.21,15.55.81,1.52-2.45,2.23-3.1,3.76-5.55" transform="translate(0 -0.03)"/><path class="cls-2" d="M739.66,1.78A63.16,63.16,0,0,0,732,7.7c-.39.5-4.74,15.09-5.58,23" transform="translate(0 -0.03)"/><path class="cls-2" d="M690.71,13a31,31,0,0,1,4.92-5.36" transform="translate(0 -0.03)"/><path class="cls-2" d="M690.8,18.87a65.35,65.35,0,0,1,4.84-5.67" transform="translate(0 -0.03)"/><path class="cls-2" d="M690.54,24.18l1.77-1.91A31.44,31.44,0,0,1,695.65,19s.1-.07.15,0,0,.13,0,.1" transform="translate(0 -0.03)"/><path class="cls-2" d="M690.91,31.31a40.09,40.09,0,0,1,5-5.91" transform="translate(0 -0.03)"/><path class="cls-2" d="M691.38,36.68a21.47,21.47,0,0,1,4.8-4.93" transform="translate(0 -0.03)"/><path class="cls-2" d="M691.35,44.49A15.61,15.61,0,0,1,694,41l1.89-2s.11-.1.16-.07,0,.13,0,.07" transform="translate(0 -0.03)"/><path class="cls-2" d="M691.59,50.57q2.29-2.7,4.83-5.17" transform="translate(0 -0.03)"/><path class="cls-2" d="M692.36,57.67a23.68,23.68,0,0,1,4-4.53" transform="translate(0 -0.03)"/><path class="cls-2" d="M692,64.7a38.8,38.8,0,0,1,4-4.3" transform="translate(0 -0.03)"/><path class="cls-2" d="M696.23,66.3l3.46-3.88" transform="translate(0 -0.03)"/><path class="cls-2" d="M702.55,66.55a17.63,17.63,0,0,1,3-4.14l-.24.17" transform="translate(0 -0.03)"/><path class="cls-2" d="M708.47,29.47a25.59,25.59,0,0,1,2.59-3.92" transform="translate(0 -0.03)"/><path class="cls-2" d="M708.75,36.65a43.39,43.39,0,0,1,3.62-5.79" transform="translate(0 -0.03)"/><path class="cls-2" d="M710.42,42q1.73-2.51,3.58-4.92c.09-.12.35-.2.35,0" transform="translate(0 -0.03)"/><path class="cls-2" d="M712,47.79q1.95-2.71,4-5.32" transform="translate(0 -0.03)"/><path class="cls-2" d="M713.69,54.67a38.87,38.87,0,0,1,4.14-5.44" transform="translate(0 -0.03)"/><path class="cls-2" d="M715.37,60.86a7.29,7.29,0,0,0,1.06-1.34,25.17,25.17,0,0,1,3.86-4.4l-.38.19" transform="translate(0 -0.03)"/><path class="cls-2" d="M718,66.67a35,35,0,0,1,4.24-4.82s.07-.06.1,0,0,.09,0,.07" transform="translate(0 -0.03)"/><path class="cls-2" d="M724.92,67.4A36.56,36.56,0,0,0,728.54,62" transform="translate(0 -0.03)"/><path class="cls-2" d="M731.1,11.25A25.08,25.08,0,0,1,737,7.52" transform="translate(0 -0.03)"/><path class="cls-2" d="M729,17.62l6.63-4.22" transform="translate(0 -0.03)"/><path class="cls-2" d="M727.7,23.1q3.3-2.54,6.83-4.78s.11-.08.08-.14-.12,0-.06,0" transform="translate(0 -0.03)"/><path class="cls-2" d="M726.77,28.48q3.35-2.55,6.75-5l-.6.05" transform="translate(0 -0.03)"/><path class="cls-2" d="M727.24,33.3a36.7,36.7,0,0,1,4.69-3.59l-.42-.06" transform="translate(0 -0.03)"/><path class="cls-2" d="M743.9,24l2.8-1.92c.14-.1.37-.18.47,0" transform="translate(0 -0.03)"/><path class="cls-2" d="M741.84,31.32a19.3,19.3,0,0,1,5.1-4.15" transform="translate(0 -0.03)"/><path class="cls-2" d="M741.55,38.69q2.87-2.43,5.76-4.82" transform="translate(0 -0.03)"/><path class="cls-2" d="M741.72,44.69q2.73-3.09,5.73-5.94" transform="translate(0 -0.03)"/><path class="cls-2" d="M741.44,52.34c1.54-2.48,4.23-4,6-6.34l-.61.5" transform="translate(0 -0.03)"/><path class="cls-2" d="M742.28,59a46.25,46.25,0,0,1,5-4.5l-.36.31" transform="translate(0 -0.03)"/><path class="cls-2" d="M742.28,66.19a39.32,39.32,0,0,1,4.65-4.69" transform="translate(0 -0.03)"/><path class="cls-2" d="M748.21,67q2.32-2.71,4.81-5.28" transform="translate(0 -0.03)"/><path class="cls-2" d="M753.13,67.37a34.8,34.8,0,0,1,4.57-5.11" transform="translate(0 -0.03)"/><path class="cls-4" d="M696.19,1.83c-.36,12,.26,48,.16,60,0,.52,3.69,1,11.71-.08,1.1-.14-.08-49-.08-49S720.8,60.23,722.84,61.7c.84.61,9.54.51,9.63.13,2.37-10.56,14.93-49.71,14.93-49.71s-.43,43.29.07,49.52c.06.78,10.75.52,14.06-.12.75-.15.54-53,0-59.73a146.84,146.84,0,0,0-21.87,0c-1.15.07-10.5,38.16-10.5,38.16s-10.58-38-11-38.16c-.66-.21-18.41-.36-22,0" transform="translate(0 -0.03)"/><path class="cls-3" d="M695.69,1.83c-.3,10.66-.09,21.35,0,32q.07,8.91.14,17.82,0,3.47,0,6.94c0,1-.45,3,.31,3.82s2.91.5,3.76.5c1.54,0,3.08-.1,4.61-.24,1-.09,3.15.14,3.85-.51.87-.82.53-3.44.56-4.49.24-8.37,0-16.77-.08-25.14q-.15-9.86-.39-19.71l-1,.13c4,14.68,7.84,29.5,12.77,43.9.48,1.39,1,4.29,2.29,5.24s3.79.53,5.14.54c1.14,0,4,.44,5-.33.77-.6.89-2.86,1.13-3.78.56-2.12,1.16-4.24,1.77-6.35,1.52-5.27,3.11-10.53,4.73-15.77q3.72-12.1,7.58-24.15l-1-.13q-.11,11.21-.15,22.42c0,5.65,0,11.31,0,17,0,2.1,0,4.2.07,6.3,0,1-.3,3,.15,3.9s2.22.84,3.2.88a68.86,68.86,0,0,0,8.92-.27c1-.09,2.48.09,3-.84a7,7,0,0,0,.19-2.44c.41-9.35.26-18.75.23-28.11,0-9.67.26-19.49-.47-29.14a.52.52,0,0,0-.5-.5,109.9,109.9,0,0,0-13-.35q-3.46.06-6.92.24c-.75,0-1.79-.2-2.39.33a6.13,6.13,0,0,0-1,2.44c-3,8.88-5.05,18.11-7.34,27.19q-1.09,4.34-2.16,8.68h1Q726.33,27.9,722.95,16c-1.2-4.23-2.38-8.47-3.69-12.67-.17-.53-.3-1.59-.77-2-.8-.62-3.22-.24-4.14-.26-6-.11-12.19-.42-18.17.19-.63.07-.64,1.07,0,1a137.11,137.11,0,0,1,15.32-.23,41.12,41.12,0,0,1,6.18.14c.65.11-.06-.42.21.14a10.13,10.13,0,0,1,.47,1.46c2.81,9.1,5.29,18.32,7.87,27.49q1.23,4.37,2.44,8.75a.5.5,0,0,0,1,0C732.35,29,735,17.94,738.27,7c.31-1.06.63-2.12,1-3.17a4.24,4.24,0,0,1,.42-1.15c.59-.74-.32-.13,1-.48,1.6-.45,3.77-.19,5.44-.24q2-.06,4-.08c2.41,0,4.83,0,7.24.1a20.36,20.36,0,0,0,3.6.21,1.88,1.88,0,0,1,.61.05c-.79-.2-.28-.4-.39.46-.26,2.06.15,4.47.2,6.55q.44,21.93.14,43.88c0,2.2-.05,4.42-.18,6.62,0,.33.08,1.15-.12,1.43.1-.13-1.12,0-1.54.06-1,.11-2.1.17-3.15.23-2,.1-4,.16-6,.09-1.46-.05-2.37.24-2.49-.84a71.5,71.5,0,0,1-.15-7.29c-.13-13.78,0-27.57.14-41.35a.5.5,0,0,0-1-.13c-4.94,15.39-10,30.81-14.13,46.45-.2.76-.38,1.53-.58,2.3s0,.73-1.08.82a36.37,36.37,0,0,1-6.75,0c-1.23-.13-1.34-.22-1.81-1.27s-.9-2.32-1.3-3.49c-2.83-8.23-5.16-16.64-7.53-25q-2.7-9.51-5.29-19a.5.5,0,0,0-1,.13c.32,13.13.6,26.26.55,39.39,0,2.66,0,5.35-.19,8-.14,1.78-.53,1.17-2.48,1.37a32.85,32.85,0,0,1-7.54.23c-.93-.13-.77,0-1-.66a11.27,11.27,0,0,1,0-2.79q0-3.22,0-6.45,0-8.22-.13-16.43c-.09-11.22-.33-22.46,0-33.68a.5.5,0,0,0-1,0Z" transform="translate(0 -0.03)"/><path class="cls-1" d="M419,61.71c.26.25,71.67.71,73.47.11,1.26-.42.28-60,0-60-.57,0-13.33-.23-13.78.39-.28.38.23,47.31-.15,47.65s-15.16.15-15.81-.22c-1.33-.76.86-47.15-.22-47.87-.8-.54-13.62-.2-13.78.09a13.71,13.71,0,0,0-.06,2.66c.37,14.61.79,45.45-.12,45.75-.31.1-15.74.07-16-.28-.11-.17.35-47.8.11-48.18S420,1.26,419,2.29C418.15,3.13,418.73,61.46,419,61.71Z" transform="translate(0 -0.03)"/><path class="cls-2" d="M419,2.41c-2,1.67-4.77,4.16-5.73,7.06-.39,1.17,0,57.3.32,58,.81,1.52,73.8,1.35,74.5.92a33.52,33.52,0,0,0,4.51-6.81" transform="translate(0 -0.03)"/><path class="cls-2" d="M478.7,2.24c-1.45,1.29-5.16,4.47-5.44,5.07s-1.1,28.95-1.28,42.61" transform="translate(0 -0.03)"/><path class="cls-2" d="M448.73,1.88c-2.89,2-6.43,4.42-6.42,8,.06,13.65.74,26.85.79,40.5" transform="translate(0 -0.03)"/><path class="cls-2" d="M418.64,8.53a49.66,49.66,0,0,1-5.84,6.71" transform="translate(0 -0.03)"/><path class="cls-2" d="M418.69,14.14A47.71,47.71,0,0,0,413,20l.31-.3" transform="translate(0 -0.03)"/><path class="cls-2" d="M418.56,20.78c-2.08,1.92-3.65,3.45-5.64,5.46" transform="translate(0 -0.03)"/><path class="cls-2" d="M418.6,28.24,413,33.56" transform="translate(0 -0.03)"/><path class="cls-2" d="M413.13,40.82c1.9-1.54,3.43-2.7,5.43-4.1" transform="translate(0 -0.03)"/><path class="cls-2" d="M413.12,48.3A39.62,39.62,0,0,1,418.6,44" transform="translate(0 -0.03)"/><path class="cls-2" d="M413.33,55.51q2.75-2.1,5.39-4.35" transform="translate(0 -0.03)"/><path class="cls-2" d="M413.48,63.53A50.25,50.25,0,0,1,418.73,59" transform="translate(0 -0.03)"/><path class="cls-2" d="M416.43,67.89c2.52-2.23,4.08-3.69,6.48-6" transform="translate(0 -0.03)"/><path class="cls-2" d="M426.72,68.28,432.95,62" transform="translate(0 -0.03)"/><path class="cls-2" d="M435.27,68.57q3.12-3.32,6-6.83" transform="translate(0 -0.03)"/><path class="cls-2" d="M444.42,68.6,450,62.06" transform="translate(0 -0.03)"/><path class="cls-2" d="M455.58,68.77q2.62-3.59,5.59-6.91" transform="translate(0 -0.03)"/><path class="cls-2" d="M450.09,68.67a60.1,60.1,0,0,1,6.34-6.82" transform="translate(0 -0.03)"/><path class="cls-2" d="M462.92,68.62a45,45,0,0,1,6.17-6.41" transform="translate(0 -0.03)"/><path class="cls-2" d="M469.74,68.67c1.88-2.39,3.47-4.25,5.55-6.47" transform="translate(0 -0.03)"/><path class="cls-2" d="M476.56,68.12l5.75-6.25" transform="translate(0 -0.03)"/><path class="cls-2" d="M482.84,68.4l3.28-4.31a9,9,0,0,1,2.1-2.19" transform="translate(0 -0.03)"/><path class="cls-2" d="M442.39,13.86a72.93,72.93,0,0,1,6.21-6.08" transform="translate(0 -0.03)"/><path class="cls-2" d="M442.31,21a39.49,39.49,0,0,1,6.55-6" transform="translate(0 -0.03)"/><path class="cls-2" d="M442.39,27.57,449,21" transform="translate(0 -0.03)"/><path class="cls-2" d="M442.79,34,449,28.22" transform="translate(0 -0.03)"/><path class="cls-2" d="M442.85,40.82c2-1.86,4.12-4,6.25-5.65" transform="translate(0 -0.03)"/><path class="cls-2" d="M442.91,47.93,449,43.27" transform="translate(0 -0.03)"/><path class="cls-2" d="M473,12.9a59.7,59.7,0,0,1,5.53-4.8" transform="translate(0 -0.03)"/><path class="cls-2" d="M472.7,20a59,59,0,0,1,6-6.26" transform="translate(0 -0.03)"/><path class="cls-2" d="M472.71,25.56c1.73-1.66,4.11-3.7,6-5.17" transform="translate(0 -0.03)"/><path class="cls-2" d="M472.26,33a46.5,46.5,0,0,1,6.23-5.37" transform="translate(0 -0.03)"/><path class="cls-2" d="M472.26,39.42a65,65,0,0,1,6.49-5l-.89.67" transform="translate(0 -0.03)"/><path class="cls-2" d="M472.26,46.07a36.64,36.64,0,0,0,5.3-4.07,3.47,3.47,0,0,1,1.18-.83" transform="translate(0 -0.03)"/><path class="cls-2" d="M475,50.07a45.72,45.72,0,0,1,3.46-3.47" transform="translate(0 -0.03)"/><path class="cls-1" d="M582,63.23c.25.18,13.23-.23,13.56-.62s.47-37.48.19-48.41c5.53.12,11.34-.64,16.87-.51.94,3.19.49,7.47.35,10.79-.55,12.73-.3,38.24-.18,38.39a83,83,0,0,0,13.79-.16,53.21,53.21,0,0,0-.08-9.46c-.16-3,.51-47.12-.06-50.31-.17-1-44-.35-44.49,0C581.1,3.57,581.29,62.73,582,63.23Z" transform="translate(0 -0.03)"/><path class="cls-2" d="M581.93,2.95c-1.8,2.09-6.31,7.28-6.54,7.94s-.19,56.73,0,57,15,.44,15.54,0a53.18,53.18,0,0,0,4.14-5.25" transform="translate(0 -0.03)"/><path class="cls-2" d="M595.42,20.43c2,.13,10.37-.23,11,.18,1.42.93-.87,46.15,1.21,48,.31.27,13.75.58,13.93.43,2.61-2.14,3.28-3.55,5-6.3" transform="translate(0 -0.03)"/><path class="cls-2" d="M581.48,9.79a80,80,0,0,1-6.24,6.11" transform="translate(0 -0.03)"/><path class="cls-2" d="M575.24,22.14c2.22-1.75,4.11-3.16,6.43-4.78" transform="translate(0 -0.03)"/><path class="cls-2" d="M575.24,28.41c2.3-1.73,4.23-3.32,6.39-5.22" transform="translate(0 -0.03)"/><path class="cls-2" d="M575.24,34.64a76.1,76.1,0,0,1,6.13-5.1" transform="translate(0 -0.03)"/><path class="cls-2" d="M575.31,41.5l6-4.93" transform="translate(0 -0.03)"/><path class="cls-2" d="M575.23,47.6l6.48-4.72" transform="translate(0 -0.03)"/><path class="cls-2" d="M575.16,53.86l4.12-3.25a20.29,20.29,0,0,1,2.36-1.68" transform="translate(0 -0.03)"/><path class="cls-2" d="M575.38,59.15c2.44-1.53,4.2-2.66,6.61-4.24" transform="translate(0 -0.03)"/><path class="cls-2" d="M575.38,66.82a50.14,50.14,0,0,1,6.43-5.44" transform="translate(0 -0.03)"/><path class="cls-2" d="M580.17,68.1c1.53-1.59,3.52-3.26,5-4.85" transform="translate(0 -0.03)"/><path class="cls-2" d="M586.38,67.95l5-4.91" transform="translate(0 -0.03)"/><path class="cls-2" d="M595.56,20.66A41.66,41.66,0,0,1,601.44,14" transform="translate(0 -0.03)"/><path class="cls-2" d="M601.17,20.36l7.54-6.75" transform="translate(0 -0.03)"/><path class="cls-2" d="M606.7,21.79c2.28-2.14,4.05-3.68,6.48-5.66" transform="translate(0 -0.03)"/><path class="cls-2" d="M606.91,30.65,613,25.37" transform="translate(0 -0.03)"/><path class="cls-2" d="M606.93,37.62a41.83,41.83,0,0,1,5.84-5" transform="translate(0 -0.03)"/><path class="cls-2" d="M606.7,45.48c2-1.51,4.11-3,6.06-4.6" transform="translate(0 -0.03)"/><path class="cls-2" d="M606.7,53.14a35.1,35.1,0,0,1,6.06-4.75" transform="translate(0 -0.03)"/><path class="cls-2" d="M606.69,61.92a24.31,24.31,0,0,1,6-5.34" transform="translate(0 -0.03)"/><path class="cls-2" d="M608.62,68.69,614.39,63" transform="translate(0 -0.03)"/><path class="cls-2" d="M615.94,69c1.74-2.16,3.77-4,5.72-5.94" transform="translate(0 -0.03)"/><path class="cls-1" d="M102.54,42.38a25.28,25.28,0,0,0-1.24-6,16.72,16.72,0,0,0-3.57-6.66c-3.49-3.62-9-4.22-14-4.6-4.22-.32-13.5-.2-13.87-.78-.2-.31.36-21.38-.55-21.8-.18-.08-12.44.11-13,.33-1.69.73-.15,54-.34,59.63,11.29.45,19.19.75,30.44-.25,1.78-.16,10.11-3.34,12-6A20.17,20.17,0,0,0,102.54,42.38ZM85.14,50.14c-1.14.79-14.88,1.09-14.89.72C70.2,48.41,69,37.33,69.81,35.7c.65-1.25,8.34-.28,10.76.09s8.08,1.56,8.08,7.78A7.57,7.57,0,0,1,85.14,50.14Z" transform="translate(0 -0.03)"/><path class="cls-2" d="M56.12,2.93A75.12,75.12,0,0,0,50.4,8c-.26.53-.41,57.68.31,58.22.34.25,35.13,3.19,42-6.14" transform="translate(0 -0.03)"/><path class="cls-2" d="M69.5,38.16c3.56-.1,8.89-.31,11.27,1.17a7.29,7.29,0,0,1,3.75,6.21,34.48,34.48,0,0,1-.64,4.92" transform="translate(0 -0.03)"/><path class="cls-2" d="M50.27,13.32c1.51-1.48,3.58-2.24,5.26-3.52,0,0,.06-.06.05-.09s-.09,0-.06,0" transform="translate(0 -0.03)"/><path class="cls-2" d="M50.21,18.61a1.47,1.47,0,0,1,.51-.56,52.22,52.22,0,0,1,4.66-3.17c.06,0,.14-.11.11-.18s-.15,0-.07.05" transform="translate(0 -0.03)"/><path class="cls-2" d="M50.29,23.51q2.52-2,5.2-3.7" transform="translate(0 -0.03)"/><path class="cls-2" d="M50.33,28.82l5.08-3.51" transform="translate(0 -0.03)"/><path class="cls-2" d="M50,33.56l1.44-.9L55.67,30" transform="translate(0 -0.03)"/><path class="cls-2" d="M50.21,38.94c1.58-1.35,3.78-1.87,5.23-3.36" transform="translate(0 -0.03)"/><path class="cls-2" d="M50.1,44.25a43.67,43.67,0,0,1,5.35-3.51" transform="translate(0 -0.03)"/><path class="cls-2" d="M50,49q2.7-1.9,5.52-3.6" transform="translate(0 -0.03)"/><path class="cls-2" d="M50.12,53.84a53.57,53.57,0,0,1,5.7-3.52" transform="translate(0 -0.03)"/><path class="cls-2" d="M50.47,58.77Q53.18,57,56,55.44" transform="translate(0 -0.03)"/><path class="cls-2" d="M50.64,64.28q2.48-1.71,5.09-3.23" transform="translate(0 -0.03)"/><path class="cls-2" d="M55.28,66.5q2.43-2,4.73-4.09" transform="translate(0 -0.03)"/><path class="cls-2" d="M60.79,66.85l4.72-4.11" transform="translate(0 -0.03)"/><path class="cls-2" d="M67.63,66.69q2.32-2,4.54-4" transform="translate(0 -0.03)"/><path class="cls-2" d="M74.06,66.37a33,33,0,0,0,4.24-3.59" transform="translate(0 -0.03)"/><path class="cls-2" d="M81.51,65.08a33.32,33.32,0,0,0,2.87-2.56" transform="translate(0 -0.03)"/><path class="cls-2" d="M71.75,38.22a25.07,25.07,0,0,1,3.11-3.14" transform="translate(0 -0.03)"/><path class="cls-2" d="M77.3,38.2a12.85,12.85,0,0,1,2.3-2.61" transform="translate(0 -0.03)"/><path class="cls-2" d="M80.71,39.1l3-2.65" transform="translate(0 -0.03)"/><path class="cls-2" d="M83.8,41.69l3.15-2.85" transform="translate(0 -0.03)"/><path class="cls-2" d="M84.83,45.23q1.86-1.5,3.78-2.9" transform="translate(0 -0.03)"/><path class="cls-2" d="M84.48,48.87l3.1-1.54" transform="translate(0 -0.03)"/><path class="cls-1" d="M551.21,42.48a25.28,25.28,0,0,0-1.24-6,16.72,16.72,0,0,0-3.57-6.66c-3.49-3.62-9-4.22-14-4.6-4.22-.32-13.5-.2-13.87-.78-.2-.31.36-21.38-.55-21.8-.18-.08-12.44.11-13,.33-1.69.73-.15,54-.34,59.63,11.29.45,19.19.75,30.44-.25,1.78-.16,10.11-3.34,12-6A20.17,20.17,0,0,0,551.21,42.48Zm-17.39,7.76c-1.14.79-14.88,1.09-14.89.72-.06-2.45-1.29-13.53-.45-15.16.65-1.25,8.34-.28,10.76.09s8.08,1.56,8.08,7.78A7.57,7.57,0,0,1,533.82,50.24Z" transform="translate(0 -0.03)"/><path class="cls-2" d="M504.8,3a75.12,75.12,0,0,0-5.72,5.06c-.26.53-.41,57.68.31,58.22.34.25,35.12,3.19,42-6.14" transform="translate(0 -0.03)"/><path class="cls-2" d="M518.17,38.26c3.56-.1,8.89-.31,11.27,1.17a7.29,7.29,0,0,1,3.75,6.21,34.48,34.48,0,0,1-.64,4.92" transform="translate(0 -0.03)"/><path class="cls-2" d="M498.94,13.42c1.51-1.48,3.58-2.24,5.26-3.52,0,0,.06-.06.05-.09s-.09,0-.06,0" transform="translate(0 -0.03)"/><path class="cls-2" d="M498.88,18.71a1.47,1.47,0,0,1,.51-.56A52.22,52.22,0,0,1,504.06,15c.06,0,.14-.11.11-.18s-.15,0-.07.05" transform="translate(0 -0.03)"/><path class="cls-2" d="M499,23.61q2.52-2,5.2-3.7" transform="translate(0 -0.03)"/><path class="cls-2" d="M499,28.92l5.08-3.51" transform="translate(0 -0.03)"/><path class="cls-2" d="M498.69,33.66l1.44-.9,4.22-2.66" transform="translate(0 -0.03)"/><path class="cls-2" d="M498.89,39c1.58-1.35,3.78-1.87,5.23-3.36" transform="translate(0 -0.03)"/><path class="cls-2" d="M498.77,44.35a43.67,43.67,0,0,1,5.35-3.51" transform="translate(0 -0.03)"/><path class="cls-2" d="M498.69,49.1q2.7-1.9,5.52-3.6" transform="translate(0 -0.03)"/><path class="cls-2" d="M498.8,53.94a53.57,53.57,0,0,1,5.7-3.52" transform="translate(0 -0.03)"/><path class="cls-2" d="M499.14,58.87q2.72-1.72,5.51-3.32" transform="translate(0 -0.03)"/><path class="cls-2" d="M499.31,64.38q2.48-1.71,5.09-3.23" transform="translate(0 -0.03)"/><path class="cls-2" d="M504,66.6q2.43-2,4.73-4.09" transform="translate(0 -0.03)"/><path class="cls-2" d="M509.47,66.95l4.72-4.11" transform="translate(0 -0.03)"/><path class="cls-2" d="M516.31,66.79q2.32-2,4.54-4" transform="translate(0 -0.03)"/><path class="cls-2" d="M522.73,66.47A33,33,0,0,0,527,62.87" transform="translate(0 -0.03)"/><path class="cls-2" d="M530.19,65.18a33.32,33.32,0,0,0,2.87-2.56" transform="translate(0 -0.03)"/><path class="cls-2" d="M520.42,38.32a25.07,25.07,0,0,1,3.11-3.14" transform="translate(0 -0.03)"/><path class="cls-2" d="M526,38.3a12.85,12.85,0,0,1,2.3-2.61" transform="translate(0 -0.03)"/><path class="cls-2" d="M529.39,39.2l3-2.65" transform="translate(0 -0.03)"/><path class="cls-2" d="M532.47,41.79l3.15-2.85" transform="translate(0 -0.03)"/><path class="cls-2" d="M533.5,45.33q1.86-1.5,3.78-2.9" transform="translate(0 -0.03)"/><path class="cls-2" d="M533.15,49l3.1-1.54" transform="translate(0 -0.03)"/><path class="cls-1" d="M933,41.91a25.28,25.28,0,0,0-1.24-6,16.72,16.72,0,0,0-3.57-6.66c-3.49-3.62-9-4.22-14-4.6-4.22-.32-13.5-.2-13.87-.78-.2-.31.36-21.38-.55-21.8-.18-.08-12.44.11-13,.33-1.69.73-.15,54-.34,59.63,11.29.45,19.19.75,30.44-.25,1.78-.16,10.11-3.34,12-6A20.17,20.17,0,0,0,933,41.91Zm-17.39,7.76c-1.14.79-14.88,1.09-14.89.72-.06-2.45-1.29-13.53-.45-15.16.65-1.25,8.34-.28,10.76.09s8.08,1.56,8.08,7.78A7.57,7.57,0,0,1,915.62,49.67Z" transform="translate(0 -0.03)"/><path class="cls-2" d="M886.6,2.46a75.12,75.12,0,0,0-5.72,5.06c-.26.53-.41,57.68.31,58.22.34.25,35.13,3.19,42-6.14" transform="translate(0 -0.03)"/><path class="cls-2" d="M900,37.69c3.56-.1,8.89-.31,11.27,1.17A7.29,7.29,0,0,1,915,45.07a34.48,34.48,0,0,1-.64,4.92" transform="translate(0 -0.03)"/><path class="cls-2" d="M880.75,12.85c1.51-1.48,3.58-2.24,5.26-3.52,0,0,.06-.06.05-.09s-.09,0-.06,0" transform="translate(0 -0.03)"/><path class="cls-2" d="M880.69,18.14a1.47,1.47,0,0,1,.51-.56,52.22,52.22,0,0,1,4.66-3.17c.06,0,.14-.11.11-.18s-.15,0-.07.05" transform="translate(0 -0.03)"/><path class="cls-2" d="M880.77,23q2.52-2,5.2-3.7" transform="translate(0 -0.03)"/><path class="cls-2" d="M880.81,28.34l5.08-3.51" transform="translate(0 -0.03)"/><path class="cls-2" d="M880.5,33.09l1.44-.9,4.22-2.66" transform="translate(0 -0.03)"/><path class="cls-2" d="M880.69,38.47c1.58-1.35,3.78-1.87,5.23-3.36" transform="translate(0 -0.03)"/><path class="cls-2" d="M880.58,43.78a43.67,43.67,0,0,1,5.35-3.51" transform="translate(0 -0.03)"/><path class="cls-2" d="M880.49,48.53q2.7-1.9,5.52-3.6" transform="translate(0 -0.03)"/><path class="cls-2" d="M880.6,53.37a53.57,53.57,0,0,1,5.7-3.52" transform="translate(0 -0.03)"/><path class="cls-2" d="M880.94,58.29q2.72-1.72,5.51-3.32" transform="translate(0 -0.03)"/><path class="cls-2" d="M881.12,63.81q2.48-1.71,5.09-3.23" transform="translate(0 -0.03)"/><path class="cls-2" d="M885.76,66q2.43-2,4.73-4.09" transform="translate(0 -0.03)"/><path class="cls-2" d="M891.27,66.37,896,62.27" transform="translate(0 -0.03)"/><path class="cls-2" d="M898.11,66.22q2.32-2,4.54-4" transform="translate(0 -0.03)"/><path class="cls-2" d="M904.54,65.89a33,33,0,0,0,4.24-3.59" transform="translate(0 -0.03)"/><path class="cls-2" d="M912,64.61A33.32,33.32,0,0,0,914.86,62" transform="translate(0 -0.03)"/><path class="cls-2" d="M902.23,37.75a25.07,25.07,0,0,1,3.11-3.14" transform="translate(0 -0.03)"/><path class="cls-2" d="M907.78,37.72a12.85,12.85,0,0,1,2.3-2.61" transform="translate(0 -0.03)"/><path class="cls-2" d="M911.19,38.63l3-2.65" transform="translate(0 -0.03)"/><path class="cls-2" d="M914.28,41.22l3.15-2.85" transform="translate(0 -0.03)"/><path class="cls-2" d="M915.31,44.75q1.86-1.5,3.78-2.9" transform="translate(0 -0.03)"/><path class="cls-2" d="M915,48.4l3.1-1.54" transform="translate(0 -0.03)"/><path class="cls-2" d="M108.47,3.29c-2.16,1.91-5.74,4.88-6.24,6.81s-.84,54.95.3,57.84c.17.44,10.07,1.25,13.23.81,1.77-.25,5.24-3.27,6.69-6.25" transform="translate(0 -0.03)"/><path class="cls-2" d="M101.81,16.29" transform="translate(0 -0.03)"/><path class="cls-2" d="M102.07,15.81a39.1,39.1,0,0,1,6.24-5.76" transform="translate(0 -0.03)"/><path class="cls-2" d="M101.6,22.83a58.08,58.08,0,0,1,6.79-6.46c.19-.15.51.15.37.35s-.53,0-.45-.23" transform="translate(0 -0.03)"/><path class="cls-2" d="M101.89,29q3.06-2.79,6.36-5.31" transform="translate(0 -0.03)"/><path class="cls-2" d="M102,36.47a70.88,70.88,0,0,1,6.19-5.81" transform="translate(0 -0.03)"/><path class="cls-2" d="M101.64,44.54a89,89,0,0,1,6.57-6.78s.1-.11.07-.16-.13,0-.07.05" transform="translate(0 -0.03)"/><path class="cls-2" d="M101.77,52.11a40.6,40.6,0,0,1,6.32-5.44l-.31.17" transform="translate(0 -0.03)"/><path class="cls-2" d="M102.14,58.45c2.07-2,3.76-3.57,5.93-5.48" transform="translate(0 -0.03)"/><path class="cls-2" d="M102.16,64.89q2.93-3.07,6-6" transform="translate(0 -0.03)"/><path class="cls-2" d="M105.65,68.39c1.87-1.67,3.87-4,5.95-5.4" transform="translate(0 -0.03)"/><path class="cls-2" d="M112,68.74a63.91,63.91,0,0,0,5.83-5.58" transform="translate(0 -0.03)"/><path class="cls-4" d="M108.47,3.29c0,15.2-.88,59.22.13,59.34,1.25.16,13.59,1,13.86-.13.45-1.93.43-59.39-.06-59.53s-10.23-.62-13.92.32" transform="translate(0 -0.03)"/><path class="cls-3" d="M108,3.29c0,13.76-.29,27.51-.35,41.27,0,5.26-.12,10.54.16,15.79,0,.65-.11,2.08.41,2.6.86.86,4.29.46,5.39.51,2.55.12,5.83.64,8.32-.13,1-.3,1-.66,1.11-1.57.33-3.58.17-7.27.2-10.87q.15-18.29,0-36.57c0-2.42-.05-4.84-.1-7.26a14.2,14.2,0,0,0-.15-3.84c-.42-1.22-1.84-.87-3-.92-3.79-.15-7.84-.36-11.56.51-.63.15-.36,1.11.27,1a40.25,40.25,0,0,1,10-.51,15.63,15.63,0,0,1,3.36.16c-.07,0,0-.48,0,.24-.2,3.1.17,6.35.21,9.46.12,11.07.12,22.13.06,33.2,0,4.24,0,8.49-.14,12.74,0,.63.26,2.56-.11,3.1-.61.88-4.43.44-5.59.41-1.35,0-2.69-.09-4-.16a13.53,13.53,0,0,1-3.38-.23c-.56-.2.1.34,0,.09a1.65,1.65,0,0,1-.08-.52c0-.63-.09-1.26-.12-1.9-.21-4.82-.16-9.65-.14-14.47,0-14,.34-28.05.35-42.08a.5.5,0,0,0-1,0Z" transform="translate(0 -0.03)"/></g></g></svg>