<svg xmlns="http://www.w3.org/2000/svg" viewBox="0 0 1032.84 80.84"><defs><style>.cls-1,.cls-4{fill:#fff;}.cls-1,.cls-2{stroke:#000105;stroke-miterlimit:10;}.cls-2{fill:none;}.cls-3{fill:#000105;}</style></defs><title>yesyoucan_ua</title><g id="Слой_2" data-name="Слой 2"><g id="Слой_15" data-name="Слой 15"><path class="cls-1" d="M286,43.71c2.91-4.45,5.35-8,5.88-8,1.12,0,3.69-.28,3.69.5,0,1.12-.55,25-.19,25.25a51,51,0,0,0,11.94.55,1.3,1.3,0,0,0,1.14-1.34c-.24-6.23-.32-23.57,0-25,.13-.61,3.31-.28,3.31-.28,4,6.25,16.76,26,17.25,26.21s10.38.19,14.84-.12c-6.34-8.78-21.27-32-22.05-33.93C321.1,26,335,9.26,339,1.88c-3.4,0-12.07-.41-12.69-.09S312.44,24.66,310.52,26.6c0,0-2.09.37-2.12.17-1.17-6.41.15-24.69-.66-25.2-.64-.4-11.55-.12-12.26.24s-1,17-.17,24.74a.45.45,0,0,1-.48.5c-.92,0-1.75.12-2.1-.41,0,0-14.76-24.18-15.38-24.53s-12.7-.77-14-.36C262.76,1.93,282.07,31,282,31.5c0,.31-12.29,19.8-19.55,29.25a.42.42,0,0,0,.29.67c2.2.23,10,1,11.46.14.69-.4,6.87-10.42,11.73-17.85"/><path class="cls-1" d="M1019.87,43.8c.18.18,7.46.45,8-.06.33-.31,5.27-41.37,4.36-42-.47-.31-16.54-1-16.66.39C1015.51,2.92,1019.69,43.62,1019.87,43.8Z"/><path class="cls-1" d="M1017.19,61.63c.39.29,13.43-.2,13.58-.33s-.18-12.76-.45-13-13.47-1-13.44-.13C1017,49.87,1016.69,61.26,1017.19,61.63Z"/><path class="cls-2" d="M1015.49,2.13l-5.72,6.46c-.28.31,3.83,38.54,4,38.67s9.87.7,11.17.09,1.69-1.56,3-3.47"/><path class="cls-2" d="M1016.89,48.17c-1.06.83-3.77,2.31-3.85,2.45s-.2,15.27.07,15.51,15,.23,15.27-.07,1.46-2.81,2.39-4.76"/><path class="cls-2" d="M1016.24,7.77l-4.1,4.15c-.33.33-.65.66-1,1a7.78,7.78,0,0,0-.85,1.26"/><path class="cls-2" d="M1010.74,20.5a1.54,1.54,0,0,1,.59-1,70.15,70.15,0,0,1,5.46-4.91"/><path class="cls-2" d="M1011.49,26.68q3-2.85,6-5.78"/><path class="cls-2" d="M1012.23,32.42q2.88-2.67,5.89-5.2"/><path class="cls-2" d="M1012.86,38.21q3-2.64,5.83-5.42"/><path class="cls-2" d="M1013.3,43.73c1.77-1.62,3.92-3.35,5.69-5"/><path class="cls-2" d="M1016.54,47.49c.93-1.08,2.42-2.95,3.26-4.1"/><path class="cls-2" d="M1021.18,47.81l2.92-3.61"/><path class="cls-2" d="M1013.06,55.16q1.73-1.45,3.57-2.77"/><path class="cls-2" d="M1012.87,60.56a27.76,27.76,0,0,1,4.28-3.67l-.42.2"/><path class="cls-2" d="M1013,66.1a22.07,22.07,0,0,1,4-4.6"/><path class="cls-2" d="M1019,66a25.76,25.76,0,0,1,2.61-4.07"/><path class="cls-2" d="M1023.68,65.86q1.37-2.19,2.9-4.26"/><path class="cls-2" d="M263.35,1.75c-1.86,1-5.64,4.18-5.5,4.88.23,1.18,16.38,23.78,16.51,25.88.1,1.6-20.47,32.76-19.72,33.72.47.6,10.43,1.91,13.08,1.47,3-.5,5.17-4,6.85-6.48"/><path class="cls-2" d="M288,40.6a2.6,2.6,0,0,1,2.75,1.14c.12.27-.86,25.12-.68,25.57.31.78,14.26.25,14.48,0s3.3-4.61,3.64-5.88"/><path class="cls-2" d="M308.08,42.35a5.09,5.09,0,0,1,1.78-.39c.43,0,15,25.81,15.67,26.18s11.73.44,12.4.2,4.59-4.89,5.89-6.77"/><path class="cls-2" d="M326.27,1.79A54.43,54.43,0,0,0,320,2.93a6.42,6.42,0,0,0-2.7,1.9c-2.27,4.84-8,13.75-9.35,16"/><path class="cls-2" d="M295.47,1.81c-2.53,1.89-3.85,3.09-6.38,5-.24.18-.88,8.83-.51,13.1"/><path class="cls-2" d="M260.23,10.61a41.26,41.26,0,0,1,5.43-4.21l-.18.13"/><path class="cls-2" d="M263.39,15.34a1.15,1.15,0,0,1,.5-.76,45.77,45.77,0,0,1,5-3.76l-.31.18"/><path class="cls-2" d="M266.54,19.75q2.48-2.28,5.1-4.4"/><path class="cls-2" d="M269.68,24.54a41.6,41.6,0,0,0,5.31-4"/><path class="cls-2" d="M273,29.68a1.21,1.21,0,0,1,.41-.49l4.79-4"/><path class="cls-2" d="M274,33.41A13.44,13.44,0,0,1,277.51,32l4.37-1.36a.49.49,0,0,0-.32-.07"/><path class="cls-2" d="M271,38.68a56.74,56.74,0,0,0,7.07-1.35"/><path class="cls-2" d="M267.73,44.2a61,61,0,0,1,6.73-1.06l-.31,0"/><path class="cls-2" d="M264.32,49.9a29.47,29.47,0,0,1,6.4-.87.18.18,0,0,1-.24.15"/><path class="cls-2" d="M261.22,54.84a5,5,0,0,1,2.05-.6l4.51-.63-.22.07"/><path class="cls-2" d="M258,60.2q2.93-.75,5.81-1.65"/><path class="cls-2" d="M258.17,66.89l.57-.43,3.77-2.82a21.52,21.52,0,0,1,3-2"/><path class="cls-2" d="M265.27,67.48q3-2.7,5.83-5.5"/><path class="cls-2" d="M288.86,11.81,295,8.08l-.52.29"/><path class="cls-2" d="M288.55,16.76a56.69,56.69,0,0,1,6-3.59"/><path class="cls-2" d="M289.86,22.31a19.54,19.54,0,0,1,5-2.59"/><path class="cls-2" d="M290.52,41l5-4.5-.17.12"/><path class="cls-2" d="M290.78,46.34a2.12,2.12,0,0,1,.82-.85q1.82-1.27,3.74-2.38"/><path class="cls-2" d="M290.53,51.65q2.18-2,4.52-3.73"/><path class="cls-2" d="M290.62,56.82,295.38,54"/><path class="cls-2" d="M290.48,63.61q2.19-1.48,4.42-2.9"/><path class="cls-2" d="M303.47,62.35a49.55,49.55,0,0,0-3.82,5.18"/><path class="cls-2" d="M298.31,61.95q-2.23,2.67-4.31,5.47a.19.19,0,0,0-.05.14c0,.05.08.08.11,0"/><path class="cls-2" d="M315.38,8.4A60.72,60.72,0,0,1,323,6.22"/><path class="cls-2" d="M312.09,14.39c2.25-.85,4.74-.79,7.07-1.43"/><path class="cls-2" d="M309.09,18.9c2.28-.61,5.13-1.26,7.45-1.71"/><path class="cls-2" d="M308.48,24.52A25.5,25.5,0,0,0,313,22.9"/><path class="cls-2" d="M309.94,42a25.36,25.36,0,0,0,1.88-2.74,3.68,3.68,0,0,1,1.1-1.35"/><path class="cls-2" d="M312.92,46.18c-.06-.21.1-.42.25-.58l3-3.19-.27.29"/><path class="cls-2" d="M315.3,51.07q1.88-2.06,3.84-4"/><path class="cls-2" d="M318.2,55.54a3.53,3.53,0,0,1,.6-.62l3.67-3.25"/><path class="cls-2" d="M320.9,60.87a2.7,2.7,0,0,1,.77-.83,26.12,26.12,0,0,0,3.9-3.26"/><path class="cls-2" d="M323.69,65.47a5.41,5.41,0,0,1,.58-.6q2.09-1.93,4.29-3.73"/><path class="cls-2" d="M329,68.55q2.49-3.39,5.18-6.63"/><path class="cls-2" d="M335.22,68.25q2.52-3.36,5.29-6.52"/></g><g id="Слой_9" data-name="Слой 9"><path class="cls-2" d="M346.72,2.1C345.06,3.83,341,8,340.81,8.51s-1,57.05-.83,57.4,43.84.8,44.42.51a12,12,0,0,0,5-5.29"/><path class="cls-2" d="M389.1,12.72a36,36,0,0,1-5.91,5.75c-.84.45-16.89-1-23.83-.3"/><path class="cls-2" d="M383.2,36c-2.07,2.18-6.7,7.06-7,7.19s-10.52.15-16.33-.1c.15,0-.39.87-.24.9"/><path class="cls-2" d="M346.18,7.13q-2.79,3.27-5.48,6.63"/><path class="cls-2" d="M346,13.85a64,64,0,0,0-5.49,6.51"/><path class="cls-2" d="M346,20.81l-5.68,6.82"/><path class="cls-2" d="M346.2,27.46l-5.87,6.66"/><path class="cls-2" d="M346.12,33.94a55.13,55.13,0,0,0-6.06,6.89"/><path class="cls-2" d="M346,41.5l-3.65,3.73a15.14,15.14,0,0,0-2.19,2.6"/><path class="cls-2" d="M346.09,47.47a84.63,84.63,0,0,0-6,6"/><path class="cls-2" d="M346,53.1l-1.37,1.14A32,32,0,0,0,340,58.62"/><path class="cls-2" d="M346.05,59.18a4.54,4.54,0,0,1-.87.89c-1.95,1.66-3.29,2.85-5.24,4.51"/><path class="cls-2" d="M350.85,61.11a39.6,39.6,0,0,0-4.51,4.95"/><path class="cls-2" d="M359,60.83a63.8,63.8,0,0,0-5.41,5.43"/><path class="cls-2" d="M364.49,61.12a58.62,58.62,0,0,0-5.07,5.14"/><path class="cls-2" d="M385.36,60.93A42.75,42.75,0,0,0,381,66.4"/><path class="cls-2" d="M379.46,61.29c-1.68,1.28-2.91,3.53-4.3,5.12"/><path class="cls-2" d="M373.21,61.29a19.61,19.61,0,0,0-3.46,5.16"/><path class="cls-2" d="M367.67,61.19a27.3,27.3,0,0,0-3.47,5.19"/><path class="cls-2" d="M364.76,36.21q-2,3.2-3.67,6.57"/><path class="cls-2" d="M364.75,43Q367,39.59,369,36"/><path class="cls-2" d="M370.84,43.1c-.1-.05,0-.2,0-.3l4.32-6.53"/><path class="cls-2" d="M379.46,18.59l4.2-6-.39.12"/><path class="cls-2" d="M375.1,18.11a15.15,15.15,0,0,0,1.25-1.37,40.73,40.73,0,0,1,3.37-4.32"/><path class="cls-2" d="M370.47,18.18,375,12.09"/><path class="cls-2" d="M366.54,17.82l3.3-5.63"/><path class="cls-2" d="M361.24,17.74l1.74-3,1.33-2.27.23-.37"/><path class="cls-1" d="M346.16,60.62c-.07.52,43.05.74,43.26.52s.24-11.49,0-11.75-28,.25-28.63-.08c-1-.53-.48-12.74-.07-13.17s22.1.43,22.42,0,.8-10.86.08-11.17-21.85.3-22.26,0-.48-12-.08-12.39,19,0,28.25.17c-.06-3.23.54-11.14.17-11.65,0,0-42.19-.23-42.75.9C345.34,4.35,346.31,59.48,346.16,60.62Z"/></g><g id="Слой_12" data-name="Слой 12"><path class="cls-1" d="M868.51,61.74c4.72.84,9,.32,13.8.17-.16-15.78.09-32.24-.08-48,6.66.09,20.81.56,20.73,0-.43-2.83,0-8.89,0-11.75,0-1.42-29.15-.13-34.36.34C868.18,12.19,869.06,51.81,868.51,61.74Z"/><path class="cls-2" d="M868.61,2.48c-1.19,1.68-4,3.58-5.55,5.71-.59.84-1.13,38.25-1,54.54,0,2.47.21,3.79,2.46,4.8,1.27.57,14.47,0,14.59-.25,1.25-2.37,1.92-3,3.17-5.37"/><path class="cls-2" d="M882.31,20.81c5.37-.87,15.65-.25,16.08-.42s3.41-4.6,4.35-6.46"/><path class="cls-2" d="M868.47,8.61c.12,0,.09.19,0,.28l-5.6,6.78-.24-.11"/><path class="cls-2" d="M862.33,23.1q3-4,6.28-7.87l-.3.25"/><path class="cls-2" d="M862.33,30.79a13.46,13.46,0,0,1,1.55-2.58,68.32,68.32,0,0,1,4.82-6l-.22.26"/><path class="cls-2" d="M862.28,38.24A37.87,37.87,0,0,1,868.7,30"/><path class="cls-2" d="M862.17,46.94a35,35,0,0,1,6.5-7.61"/><path class="cls-2" d="M862,53.93a24.78,24.78,0,0,1,6.75-6.62"/><path class="cls-2" d="M862.14,60.91c-.1,0-.05-.2,0-.29a30.42,30.42,0,0,1,5.7-5.38.85.85,0,0,1,.72-.27"/><path class="cls-2" d="M863.11,66.22a3.25,3.25,0,0,1,1-1.3l2.86-2.6a4.71,4.71,0,0,1,1.56-1.08"/><path class="cls-2" d="M869.85,67.6l1.26-1.5c1-1.19,2.35-2.62,3.35-3.81"/><path class="cls-2" d="M877.32,67.81a2.48,2.48,0,0,1,.49-1.63c.78-1.32,1.75-2.93,2.62-4.19"/><path class="cls-2" d="M892.87,20.34l3.8-6.18"/><path class="cls-2" d="M887.59,20.39c1.11-2.38,3.42-4.06,4.4-6.5"/><path class="cls-2" d="M882.41,20.63a3.13,3.13,0,0,1,.73-1.65,37.81,37.81,0,0,0,2.93-5.06"/></g><g id="Слой_5" data-name="Слой 5"><path class="cls-3" d="M230.43,16.83c3.87-3.11,7.91-.25,8.61,4.06a49.28,49.28,0,0,1,.24,10.1c-.32,6.75-1.36,13.47-1.37,20.23l1-.13a1.65,1.65,0,0,0-.47-.8c-.45-.47-1.15.24-.71.71l.21.36a.5.5,0,0,0,1-.13c0-9.6,2.1-19.14,1.3-28.76-.22-2.61-.74-5.19-2.94-6.85-2.49-1.88-5.24-1.35-7.55.51-.5.4.21,1.11.71.71Z"/><path class="cls-3" d="M224,3.72a24.58,24.58,0,0,0-6.52,4.42A29.8,29.8,0,0,0,211,15.29c-4.11,6.64-5.78,14.75-5.76,22.49,0,13.4,8.8,27,22.58,29.62,8.6,1.64,15.85-2.51,22.08-8.07.48-.43-.23-1.13-.71-.71-5.56,5-12,9-19.79,8a25.78,25.78,0,0,1-16-9c-9.14-10.54-9.06-26.7-3.2-38.86A27.6,27.6,0,0,1,216.78,10c2.2-2,4.69-4.29,7.48-5.36.59-.23.34-1.2-.27-1Z"/><path class="cls-2" d="M216.77,11.81l-5,3.27"/><path class="cls-2" d="M214.31,17.63c0,.08.14-.06.07-.1s-.16,0-.22.05l-4.95,3.66a3.54,3.54,0,0,0-1,.92"/><path class="cls-2" d="M212.38,24.39l-5.87,4.75"/><path class="cls-2" d="M211.84,30.49l-6.06,5.46"/><path class="cls-2" d="M212.2,37.22c-2.18,2-4,3.76-6,5.85"/><path class="cls-2" d="M213.25,44.27l-5.44,5"/><path class="cls-2" d="M215.76,49.15l-5.22,5.32"/><path class="cls-2" d="M220.14,54.78,215,59.69"/><path class="cls-2" d="M225.19,58.71q-2.57,2.52-5.09,5.09c-.12.12-.36,0-.29-.2a.19.19,0,0,1,.34.08"/><path class="cls-2" d="M230.31,61.2c-1.56,1.52-3.39,3.49-5,5"/><path class="cls-2" d="M236.73,62.32a40.92,40.92,0,0,0-4.19,5"/><path class="cls-2" d="M242.36,61.83a18.79,18.79,0,0,0-2.86,3.79"/><path class="cls-2" d="M239,12.27a1.69,1.69,0,0,0-1,.61l-2.4,2.38"/><path class="cls-2" d="M243.85,14.11q-2.36,2.33-4.54,4.84"/><path class="cls-2" d="M246.35,17.48a81.54,81.54,0,0,0-6.69,6.82"/><path class="cls-2" d="M247.82,23A33.43,33.43,0,0,1,244,27.17c-1.43,1.28-3.09,2.37-4.08,4l.08-.5"/><path class="cls-2" d="M248.55,29.94q-5.06,5.34-9.7,11.06"/><path class="cls-2" d="M248.07,37a114.87,114.87,0,0,1-9.31,9.56"/><path class="cls-2" d="M246.25,44.49a66.77,66.77,0,0,0-6.84,6.45"/><path class="cls-4" d="M262.75,31.43c-.42-20.15-10.5-30.3-25-30.88C203.66-.53,202,61.17,236.94,62.31,253.16,62.84,263.09,48.19,262.75,31.43Zm-25.13,19.5c-17.4,1.1-13.21-40-.68-38.87,10.14-.83,11,12.68,11.14,14C248.83,35.72,248.19,50.26,237.62,50.93Z"/><path class="cls-3" d="M263.25,31.43c-.21-7.7-1.7-15.76-6.47-22A24,24,0,0,0,240.7.32,24.48,24.48,0,0,0,215.49,13c-9.48,17-4.13,46.07,18,49.5a24,24,0,0,0,21.31-6.91c6.11-6.41,8.55-15.46,8.45-24.14a.5.5,0,0,0-1,0c.18,15.12-8.88,31.19-25.79,30.35-10.26-.5-18.32-7.16-22-16.56C208,28.51,214.39,2.06,235.61,1.07,242.46.75,249.46,3,254.27,8c6,6.2,7.75,15.11,8,23.42A.5.5,0,0,0,263.25,31.43Z"/><path class="cls-3" d="M237.62,50.43c-13.47.61-12-20.92-9.24-29.07,1.76-5.22,5-9.94,11.16-8.68s7.71,8.65,8.09,13.92c.56,7.92.77,22.88-10,23.83-.64.06-.64,1.06,0,1,9.91-.88,11.25-12.61,11.18-20.52-.05-5.93-.47-13.83-5.69-17.7a9.89,9.89,0,0,0-9-1.22c-2.37,1-4,3.21-5.18,5.4-3.22,6.14-4.06,13.89-3.12,20.69.89,6.45,4.22,13.7,11.78,13.35C238.26,51.4,238.27,50.4,237.62,50.43Z"/><path class="cls-3" d="M579.19,17.2c3.87-3.11,7.91-.25,8.61,4.06a49.28,49.28,0,0,1,.24,10.1c-.32,6.75-1.36,13.47-1.37,20.23l1-.13a1.65,1.65,0,0,0-.47-.8c-.45-.47-1.15.24-.71.71l.21.36a.5.5,0,0,0,1-.13c0-9.6,2.1-19.14,1.3-28.76-.22-2.61-.74-5.19-2.94-6.85-2.49-1.88-5.24-1.35-7.55.51-.5.4.21,1.11.71.71Z"/><path class="cls-3" d="M572.74,4.09a24.58,24.58,0,0,0-6.52,4.42,29.8,29.8,0,0,0-6.43,7.15C555.67,22.3,554,30.41,554,38.15c0,13.4,8.8,27,22.58,29.62,8.6,1.64,15.85-2.51,22.08-8.07.48-.43-.23-1.13-.71-.71-5.56,5-12,9-19.79,8a25.78,25.78,0,0,1-16-9c-9.14-10.54-9.06-26.7-3.2-38.86a27.6,27.6,0,0,1,6.51-8.74c2.2-2,4.69-4.29,7.48-5.36.59-.23.34-1.2-.27-1Z"/><path class="cls-2" d="M565.52,12.19l-5,3.27"/><path class="cls-2" d="M563.06,18c0,.08.14-.06.07-.1s-.16,0-.22.05L558,21.61a3.54,3.54,0,0,0-1,.92"/><path class="cls-2" d="M561.13,24.76l-5.87,4.75"/><path class="cls-2" d="M560.59,30.86l-6.06,5.46"/><path class="cls-2" d="M561,37.6c-2.18,2-4,3.76-6,5.85"/><path class="cls-2" d="M562,44.64l-5.44,5"/><path class="cls-2" d="M564.51,49.52l-5.22,5.32"/><path class="cls-2" d="M568.89,55.15l-5.09,4.91"/><path class="cls-2" d="M573.94,59.08q-2.57,2.52-5.09,5.09c-.12.12-.36,0-.29-.2a.19.19,0,0,1,.34.08"/><path class="cls-2" d="M579.06,61.57c-1.56,1.52-3.39,3.49-5,5"/><path class="cls-2" d="M585.48,62.69a40.92,40.92,0,0,0-4.19,5"/><path class="cls-2" d="M591.11,62.2A18.79,18.79,0,0,0,588.25,66"/><path class="cls-2" d="M587.8,12.64a1.69,1.69,0,0,0-1,.61l-2.4,2.38"/><path class="cls-2" d="M592.6,14.49q-2.36,2.33-4.54,4.84"/><path class="cls-2" d="M595.1,17.86a81.54,81.54,0,0,0-6.69,6.82"/><path class="cls-2" d="M596.58,23.36a33.43,33.43,0,0,1-3.78,4.19c-1.43,1.28-3.09,2.37-4.08,4l.08-.5"/><path class="cls-2" d="M597.3,30.32q-5.06,5.34-9.7,11.06"/><path class="cls-2" d="M596.82,37.33a114.87,114.87,0,0,1-9.31,9.56"/><path class="cls-2" d="M595,44.87a66.77,66.77,0,0,0-6.84,6.45"/><path class="cls-4" d="M611.5,31.81c-.42-20.15-10.5-30.3-25-30.88-34.06-1.08-35.68,60.61-.78,61.75C601.91,63.21,611.85,48.57,611.5,31.81ZM586.37,51.3c-17.4,1.1-13.21-40-.68-38.87,10.14-.83,11,12.68,11.14,14C597.58,36.1,596.94,50.64,586.37,51.3Z"/><path class="cls-3" d="M612,31.81c-.21-7.7-1.7-15.76-6.47-22A24,24,0,0,0,589.45.69a24.48,24.48,0,0,0-25.21,12.67c-9.48,17-4.13,46.07,18,49.5a24,24,0,0,0,21.31-6.91c6.11-6.41,8.55-15.46,8.45-24.14a.5.5,0,0,0-1,0c.18,15.12-8.88,31.19-25.79,30.35-10.26-.5-18.32-7.16-22-16.56-6.51-16.71-.08-43.16,21.14-44.15,6.85-.32,13.85,1.94,18.66,6.94,6,6.2,7.75,15.11,8,23.42A.5.5,0,0,0,612,31.81Z"/><path class="cls-3" d="M586.37,50.8c-13.47.61-12-20.92-9.24-29.07,1.76-5.22,5-9.94,11.16-8.68S596,21.7,596.37,27c.56,7.92.77,22.88-10,23.83-.64.06-.64,1.06,0,1,9.91-.88,11.25-12.61,11.18-20.52-.05-5.93-.47-13.83-5.69-17.7a9.89,9.89,0,0,0-9-1.22c-2.37,1-4,3.21-5.18,5.4-3.22,6.14-4.06,13.89-3.12,20.69.89,6.45,4.22,13.7,11.78,13.35C587,51.78,587,50.78,586.37,50.8Z"/><path class="cls-3" d="M692.27,17.2c3.87-3.11,7.91-.25,8.61,4.06a49.28,49.28,0,0,1,.24,10.1c-.32,6.75-1.36,13.47-1.37,20.23l1-.13a1.65,1.65,0,0,0-.47-.8c-.45-.47-1.15.24-.71.71l.21.36a.5.5,0,0,0,1-.13c0-9.6,2.1-19.14,1.3-28.76-.22-2.61-.74-5.19-2.94-6.85-2.49-1.88-5.24-1.35-7.55.51-.5.4.21,1.11.71.71Z"/><path class="cls-3" d="M685.82,4.09A24.58,24.58,0,0,0,679.3,8.5a29.8,29.8,0,0,0-6.43,7.15c-4.11,6.64-5.78,14.75-5.76,22.49,0,13.4,8.8,27,22.58,29.62,8.6,1.64,15.85-2.51,22.08-8.07.48-.43-.23-1.13-.71-.71-5.56,5-12,9-19.79,8a25.78,25.78,0,0,1-16-9c-9.14-10.54-9.06-26.7-3.2-38.86a27.6,27.6,0,0,1,6.51-8.74c2.2-2,4.69-4.29,7.48-5.36.59-.23.34-1.2-.27-1Z"/><path class="cls-2" d="M678.61,12.19l-5,3.27"/><path class="cls-2" d="M676.14,18c0,.08.14-.06.07-.1s-.16,0-.22.05L671,21.61a3.54,3.54,0,0,0-1,.92"/><path class="cls-2" d="M674.22,24.76l-5.87,4.75"/><path class="cls-2" d="M673.68,30.86l-6.06,5.46"/><path class="cls-2" d="M674,37.6c-2.18,2-4,3.76-6,5.85"/><path class="cls-2" d="M675.09,44.64l-5.44,5"/><path class="cls-2" d="M677.6,49.52l-5.22,5.32"/><path class="cls-2" d="M682,55.15l-5.09,4.91"/><path class="cls-2" d="M687,59.08q-2.57,2.52-5.09,5.09c-.12.12-.36,0-.29-.2a.19.19,0,0,1,.34.08"/><path class="cls-2" d="M692.15,61.57c-1.56,1.52-3.39,3.49-5,5"/><path class="cls-2" d="M698.57,62.69a40.92,40.92,0,0,0-4.19,5"/><path class="cls-2" d="M704.19,62.2A18.79,18.79,0,0,0,701.34,66"/><path class="cls-2" d="M700.88,12.64a1.69,1.69,0,0,0-1,.61l-2.4,2.38"/><path class="cls-2" d="M705.68,14.49q-2.36,2.33-4.54,4.84"/><path class="cls-2" d="M708.18,17.86a81.54,81.54,0,0,0-6.69,6.82"/><path class="cls-2" d="M709.66,23.36a33.43,33.43,0,0,1-3.78,4.19c-1.43,1.28-3.09,2.37-4.08,4l.08-.5"/><path class="cls-2" d="M710.39,30.32q-5.06,5.34-9.7,11.06"/><path class="cls-2" d="M709.91,37.33a114.87,114.87,0,0,1-9.31,9.56"/><path class="cls-2" d="M708.09,44.87a66.77,66.77,0,0,0-6.84,6.45"/><path class="cls-4" d="M724.58,31.81c-.42-20.15-10.5-30.3-25-30.88-34.06-1.08-35.68,60.61-.78,61.75C715,63.21,724.93,48.57,724.58,31.81ZM699.46,51.3c-17.4,1.1-13.21-40-.68-38.87,10.14-.83,11,12.68,11.14,14C710.67,36.1,710,50.64,699.46,51.3Z"/><path class="cls-3" d="M725.08,31.81c-.21-7.7-1.7-15.76-6.47-22A24,24,0,0,0,702.54.69a24.48,24.48,0,0,0-25.21,12.67c-9.48,17-4.13,46.07,18,49.5a24,24,0,0,0,21.31-6.91c6.11-6.41,8.55-15.46,8.45-24.14a.5.5,0,0,0-1,0c.18,15.12-8.88,31.19-25.79,30.35C688,61.65,680,55,676.31,45.59c-6.51-16.71-.08-43.16,21.14-44.15,6.85-.32,13.85,1.94,18.66,6.94,6,6.2,7.75,15.11,8,23.42A.5.5,0,0,0,725.08,31.81Z"/><path class="cls-3" d="M699.46,50.8c-13.47.61-12-20.92-9.24-29.07,1.76-5.22,5-9.94,11.16-8.68s7.71,8.65,8.09,13.92c.56,7.92.77,22.88-10,23.83-.64.06-.64,1.06,0,1,9.91-.88,11.25-12.61,11.18-20.52-.05-5.93-.47-13.83-5.69-17.7a9.89,9.89,0,0,0-9-1.22c-2.37,1-4,3.21-5.18,5.4-3.22,6.14-4.06,13.89-3.12,20.69.89,6.45,4.22,13.7,11.78,13.35C700.1,51.78,700.1,50.78,699.46,50.8Z"/><path class="cls-3" d="M826.94,17.2c3.87-3.11,7.91-.25,8.61,4.06a49.28,49.28,0,0,1,.24,10.1c-.32,6.75-1.36,13.47-1.37,20.23l1-.13a1.65,1.65,0,0,0-.47-.8c-.45-.47-1.15.24-.71.71l.21.36a.5.5,0,0,0,1-.13c0-9.6,2.1-19.14,1.3-28.76-.22-2.61-.74-5.19-2.94-6.85-2.49-1.88-5.24-1.35-7.55.51-.5.4.21,1.11.71.71Z"/><path class="cls-3" d="M820.49,4.09A24.58,24.58,0,0,0,814,8.5a29.8,29.8,0,0,0-6.43,7.15c-4.11,6.64-5.78,14.75-5.76,22.49,0,13.4,8.8,27,22.58,29.62,8.6,1.64,15.85-2.51,22.08-8.07.48-.43-.23-1.13-.71-.71-5.56,5-12,9-19.79,8a25.78,25.78,0,0,1-16-9c-9.14-10.54-9.06-26.7-3.2-38.86a27.6,27.6,0,0,1,6.51-8.74c2.2-2,4.69-4.29,7.48-5.36.59-.23.34-1.2-.27-1Z"/><path class="cls-2" d="M813.27,12.19l-5,3.27"/><path class="cls-2" d="M810.81,18c0,.08.14-.06.07-.1s-.16,0-.22.05l-4.95,3.66a3.54,3.54,0,0,0-1,.92"/><path class="cls-2" d="M808.88,24.76,803,29.52"/><path class="cls-2" d="M808.34,30.86l-6.06,5.46"/><path class="cls-2" d="M808.71,37.6c-2.18,2-4,3.76-6,5.85"/><path class="cls-2" d="M809.76,44.64l-5.44,5"/><path class="cls-2" d="M812.26,49.52,807,54.84"/><path class="cls-2" d="M816.64,55.15l-5.09,4.91"/><path class="cls-2" d="M821.69,59.08q-2.57,2.52-5.09,5.09c-.12.12-.36,0-.29-.2a.19.19,0,0,1,.34.08"/><path class="cls-2" d="M826.81,61.57c-1.56,1.52-3.39,3.49-5,5"/><path class="cls-2" d="M833.23,62.69a40.92,40.92,0,0,0-4.19,5"/><path class="cls-2" d="M838.86,62.2A18.79,18.79,0,0,0,836,66"/><path class="cls-2" d="M835.55,12.64a1.69,1.69,0,0,0-1,.61l-2.4,2.38"/><path class="cls-2" d="M840.35,14.49q-2.36,2.33-4.54,4.84"/><path class="cls-2" d="M842.85,17.86a81.54,81.54,0,0,0-6.69,6.82"/><path class="cls-2" d="M844.33,23.36a33.43,33.43,0,0,1-3.78,4.19c-1.43,1.28-3.09,2.37-4.08,4l.08-.5"/><path class="cls-2" d="M845.05,30.32q-5.06,5.34-9.7,11.06"/><path class="cls-2" d="M844.57,37.33a114.87,114.87,0,0,1-9.31,9.56"/><path class="cls-2" d="M842.75,44.87a66.77,66.77,0,0,0-6.84,6.45"/><path class="cls-4" d="M859.25,31.81c-.42-20.15-10.5-30.3-25-30.88-34.06-1.08-35.68,60.61-.78,61.75C849.66,63.21,859.6,48.57,859.25,31.81ZM834.13,51.3c-17.4,1.1-13.21-40-.68-38.87,10.14-.83,11,12.68,11.14,14C845.33,36.1,844.69,50.64,834.13,51.3Z"/><path class="cls-3" d="M859.75,31.81c-.21-7.7-1.7-15.76-6.47-22A24,24,0,0,0,837.21.69,24.48,24.48,0,0,0,812,13.36c-9.48,17-4.13,46.07,18,49.5a24,24,0,0,0,21.31-6.91c6.11-6.41,8.55-15.46,8.45-24.14a.5.5,0,0,0-1,0C858.93,46.92,849.87,63,833,62.16c-10.26-.5-18.32-7.16-22-16.56-6.51-16.71-.08-43.16,21.14-44.15C839,1.13,846,3.39,850.77,8.39c6,6.2,7.75,15.11,8,23.42A.5.5,0,0,0,859.75,31.81Z"/><path class="cls-3" d="M834.13,50.8c-13.47.61-12-20.92-9.24-29.07,1.76-5.22,5-9.94,11.16-8.68s7.71,8.65,8.09,13.92c.56,7.92.77,22.88-10,23.83-.64.06-.64,1.06,0,1,9.91-.88,11.25-12.61,11.18-20.52-.05-5.93-.47-13.83-5.69-17.7a9.89,9.89,0,0,0-9-1.22c-2.37,1-4,3.21-5.18,5.4-3.22,6.14-4.06,13.89-3.12,20.69.89,6.45,4.22,13.7,11.78,13.35C834.77,51.78,834.77,50.78,834.13,50.8Z"/><path class="cls-2" d="M5,1C3.16,3,1.11,3.4.54,6.06.33,7,1,18.38,1.48,18.84s8.73.57,12.37.55c.31,3.78.27,45.08.65,45.59.63.84,9.79.9,13.83.5.82-.08,4.92-3.25,5.58-4.67"/><path class="cls-2" d="M48.7,12.71a20.2,20.2,0,0,0-1.91,3.67,6.47,6.47,0,0,1-2.63,3.11,6.3,6.3,0,0,1-2.2.57c-3.15.35-6.48-.16-9.4,1.06a.41.41,0,0,0,.48.16"/><path class="cls-2" d="M.57,8.6a21.85,21.85,0,0,1,3.7-2.81"/><path class="cls-2" d="M1,14a43.05,43.05,0,0,1,3.79-3l-.33.31"/><path class="cls-2" d="M2,19.14A75.69,75.69,0,0,1,9.69,13"/><path class="cls-2" d="M9.8,19.44c2.23-2,5.09-4.33,7.41-6.23"/><path class="cls-2" d="M13.94,23.58a51.85,51.85,0,0,1,5.69-5.42l-.34.15"/><path class="cls-2" d="M13.9,30.17l5.59-5-.33.16"/><path class="cls-2" d="M14,36.9q2.71-2.74,5.62-5.26"/><path class="cls-2" d="M14.24,43.83a52.7,52.7,0,0,1,6-5.85l-.66.46"/><path class="cls-2" d="M14.24,49.59A45,45,0,0,1,19.37,45"/><path class="cls-2" d="M14.43,55.46a37.4,37.4,0,0,1,4.84-4.31"/><path class="cls-2" d="M14.24,60.42c1.82-1.64,3.32-2.88,5.14-4.52"/><path class="cls-2" d="M15.9,65.41l5-4.44"/><path class="cls-2" d="M22.41,65.94a22.9,22.9,0,0,1,5.5-4.88"/><path class="cls-2" d="M33.6,16.24a18.76,18.76,0,0,1,4.8-3.52"/><path class="cls-2" d="M37.92,20.42c.63-.68,1.91-1.81,2.55-2.5A29.06,29.06,0,0,1,46,13"/><path class="cls-1" d="M4.75,12.75c.2.2,14.56.49,14.73.66s-.38,38.34.12,47.4c3.65.52,13.67.92,14.31,0,.42-.61-.64-47.89-.25-48.06s13.93.52,14.81.13S49,1.3,48.42,1C48.12.81,5.89,0,5,1,4.21,1.81,4.6,12.6,4.75,12.75Z"/><path class="cls-2" d="M907.37,1.79c-1.82,2-3.87,2.43-4.44,5.08-.21,1,.45,12.32.94,12.78s8.73.57,12.37.55c.31,3.78.27,45.08.65,45.59.63.84,9.79.9,13.83.5.82-.08,4.92-3.25,5.58-4.67"/><path class="cls-2" d="M951.09,13.52a20.2,20.2,0,0,0-1.91,3.67,6.47,6.47,0,0,1-2.63,3.11,6.3,6.3,0,0,1-2.2.57c-3.15.35-6.48-.16-9.4,1.06a.41.41,0,0,0,.48.16"/><path class="cls-2" d="M903,9.41a21.85,21.85,0,0,1,3.7-2.81"/><path class="cls-2" d="M903.35,14.78a43.05,43.05,0,0,1,3.79-3l-.33.31"/><path class="cls-2" d="M904.39,20a75.69,75.69,0,0,1,7.7-6.13"/><path class="cls-2" d="M912.19,20.26c2.23-2,5.09-4.33,7.41-6.23"/><path class="cls-2" d="M916.33,24.4A51.85,51.85,0,0,1,922,19l-.34.15"/><path class="cls-2" d="M916.29,31l5.59-5-.33.16"/><path class="cls-2" d="M916.4,37.71Q919.11,35,922,32.45"/><path class="cls-2" d="M916.64,44.64a52.7,52.7,0,0,1,6-5.85l-.66.46"/><path class="cls-2" d="M916.64,50.4a45,45,0,0,1,5.12-4.59"/><path class="cls-2" d="M916.82,56.27A37.4,37.4,0,0,1,921.66,52"/><path class="cls-2" d="M916.64,61.23c1.82-1.64,3.32-2.88,5.14-4.52"/><path class="cls-2" d="M918.3,66.22l5-4.44"/><path class="cls-2" d="M924.81,66.75a22.9,22.9,0,0,1,5.5-4.88"/><path class="cls-2" d="M936,17.05a18.76,18.76,0,0,1,4.8-3.52"/><path class="cls-2" d="M940.31,21.23c.63-.68,1.91-1.81,2.55-2.5a29.06,29.06,0,0,1,5.56-4.92"/><path class="cls-1" d="M907.15,13.56c.2.2,14.56.49,14.73.66s-.38,38.34.12,47.4c3.65.52,13.67.92,14.31,0,.42-.61-.64-47.89-.25-48.06s13.93.52,14.81.13.5-11.57-.06-11.9c-.29-.17-42.52-1-43.44,0C906.6,2.62,907,13.41,907.15,13.56Z"/><path class="cls-1" d="M53.85,61.33c.33.23,13.18.47,13.38.08s-.29-3.27.11-4.42S88,27,88.39,23.47C87.3,35,89.68,48.12,88,59.7a1.22,1.22,0,0,0,1.14,1.41c3.33.17,9.15,1,12.78.51.13-18.66.88-58.36-.12-59.91-.37-.57-13-1-13.56.13S88.26,5.21,88,7C87.9,8.22,73.43,30,67.89,38.73a.35.35,0,0,1-.64-.22c.85-11.38,1-36.07.4-36.69-.83-.9-12.51-.6-13.2,0C53.29,3,53.39,61,53.85,61.33Z"/><path class="cls-2" d="M54.45,1.86c-1,1-5.87,5.51-5.9,6.18-.88,19-1,37.25-1,56.51a1.1,1.1,0,0,0,.84,1.07c5.26,1.32,15.42,1.08,15.63.73,1.07-1.72,2.57-3,3.25-4.95"/><path class="cls-2" d="M82.15,34.55c0,8,.37,31.38.58,31.56s11.78,1.15,12.59,1a9,9,0,0,0,6.56-5.49"/><path class="cls-2" d="M88.21,1.82c-1.94.79-5.31,2.54-6.06,4.5-.33.87-.73,8.13-.73,11.51"/><path class="cls-2" d="M48.3,14a40,40,0,0,1,5.65-5"/><path class="cls-2" d="M48.3,19.57a27.79,27.79,0,0,1,5.26-4.84"/><path class="cls-2" d="M48.1,25.05c1.7-1.59,4.11-3.86,5.71-5.56"/><path class="cls-2" d="M47.76,33.05c1.83-2,3.94-4,5.77-6"/><path class="cls-2" d="M47.65,39.76a76.85,76.85,0,0,1,6-5.89"/><path class="cls-2" d="M47.52,47.29c1.79-1.79,4.25-3.68,6-5.47"/><path class="cls-2" d="M47.39,54.76c2-2.16,4.34-4.26,6.29-6.15"/><path class="cls-2" d="M47.56,63a69.19,69.19,0,0,1,6.18-6.57"/><path class="cls-2" d="M52.05,66.24a64.27,64.27,0,0,0,4.15-4.92"/><path class="cls-2" d="M59.05,66.6l3.45-3.89a9.81,9.81,0,0,1,1.18-1.11"/><path class="cls-2" d="M81.5,11.49A62.84,62.84,0,0,1,88,5.14"/><path class="cls-2" d="M93,66.84a64.86,64.86,0,0,1,4.11-5.29"/><path class="cls-2" d="M87,66.56l4.83-5.24"/><path class="cls-2" d="M82.58,63a30.3,30.3,0,0,1,5.89-7"/><path class="cls-2" d="M82.44,53.86l3.71-4.06a8.91,8.91,0,0,1,2.46-2.08"/><path class="cls-2" d="M82.27,45.43a5,5,0,0,1,.95-1.5,36.71,36.71,0,0,1,5.17-5.74"/><path class="cls-2" d="M82.15,37.72a44.44,44.44,0,0,1,6-7.85"/><path class="cls-1" d="M956.16,61.73c.33.23,13.18.47,13.38.08s-.29-3.27.11-4.42,20.66-30,21.06-33.51c-1.09,11.56,1.28,24.65-.41,36.23a1.22,1.22,0,0,0,1.14,1.41c3.33.17,9.15,1,12.78.51.13-18.66.88-58.36-.12-59.91-.37-.57-13-1-13.56.13s0,3.39-.16,5.17c-.15,1.22-14.62,23-20.16,31.74a.35.35,0,0,1-.64-.22c.85-11.38,1-36.07.4-36.69-.83-.9-12.51-.6-13.2,0C955.6,3.36,955.7,61.41,956.16,61.73Z"/><path class="cls-2" d="M956.76,2.27c-1,1-5.87,5.51-5.9,6.18-.88,19-1,37.25-1,56.51a1.1,1.1,0,0,0,.84,1.07c5.26,1.32,15.42,1.08,15.63.73,1.07-1.72,2.57-3,3.25-4.95"/><path class="cls-2" d="M984.46,35c0,8,.37,31.38.58,31.56s11.78,1.15,12.59,1A9,9,0,0,0,1004.2,62"/><path class="cls-2" d="M990.52,2.23c-1.94.79-5.31,2.54-6.06,4.5-.33.87-.73,8.13-.73,11.51"/><path class="cls-2" d="M950.61,14.4a40,40,0,0,1,5.65-5"/><path class="cls-2" d="M950.61,20a27.79,27.79,0,0,1,5.26-4.84"/><path class="cls-2" d="M950.41,25.46c1.7-1.59,4.11-3.86,5.71-5.56"/><path class="cls-2" d="M950.07,33.46c1.83-2,3.94-4,5.77-6"/><path class="cls-2" d="M950,40.16a76.85,76.85,0,0,1,6-5.89"/><path class="cls-2" d="M949.83,47.7c1.79-1.79,4.25-3.68,6-5.47"/><path class="cls-2" d="M949.7,55.17C951.75,53,954,50.91,956,49"/><path class="cls-2" d="M949.87,63.4a69.19,69.19,0,0,1,6.18-6.57"/><path class="cls-2" d="M954.36,66.65a64.27,64.27,0,0,0,4.15-4.92"/><path class="cls-2" d="M961.36,67l3.45-3.89A9.81,9.81,0,0,1,966,62"/><path class="cls-2" d="M983.81,11.9a62.84,62.84,0,0,1,6.46-6.36"/><path class="cls-2" d="M995.33,67.25A64.86,64.86,0,0,1,999.44,62"/><path class="cls-2" d="M989.31,67l4.83-5.24"/><path class="cls-2" d="M984.89,63.4a30.3,30.3,0,0,1,5.89-7"/><path class="cls-2" d="M984.74,54.27l3.71-4.06a8.91,8.91,0,0,1,2.46-2.08"/><path class="cls-2" d="M984.58,45.84a5,5,0,0,1,.95-1.5,36.71,36.71,0,0,1,5.17-5.74"/><path class="cls-2" d="M984.46,38.13a44.44,44.44,0,0,1,6-7.85"/><path class="cls-2" d="M136.36,2c-2.47,2.58-5.5,5.17-5.76,6s1.24,58.17,1.79,58.5c.34.21,12.4.25,13.23-.28s2.08-2.76,2.6-4.28"/><path class="cls-2" d="M148.56,35.47c.57,1.83,8.07,29.62,9.14,31,.11.15,10,1.35,11.39.48s2.2-2.78,3.55-5"/><path class="cls-2" d="M181.73,30.09c.07,10.57.11,35,.75,36,.78,1.22,15.3,1.21,15.55.81,1.52-2.45,2.23-3.1,3.76-5.55"/><path class="cls-2" d="M179.82,1.92a63.16,63.16,0,0,0-7.66,5.92c-.39.5-4.74,15.09-5.58,23"/><path class="cls-2" d="M130.88,13.09a31,31,0,0,1,4.92-5.36"/><path class="cls-2" d="M131,19a65.35,65.35,0,0,1,4.84-5.67"/><path class="cls-2" d="M130.71,24.33l1.77-1.91a31.44,31.44,0,0,1,3.34-3.27s.1-.07.15,0,0,.13,0,.1"/><path class="cls-2" d="M131.08,31.45a40.09,40.09,0,0,1,5-5.91"/><path class="cls-2" d="M131.55,36.83a21.47,21.47,0,0,1,4.8-4.93"/><path class="cls-2" d="M131.52,44.63a15.61,15.61,0,0,1,2.67-3.5l1.89-2s.11-.1.16-.07,0,.13,0,.07"/><path class="cls-2" d="M131.76,50.71q2.29-2.7,4.83-5.17"/><path class="cls-2" d="M132.53,57.81a23.68,23.68,0,0,1,4-4.53"/><path class="cls-2" d="M132.13,64.84a38.8,38.8,0,0,1,4-4.3"/><path class="cls-2" d="M136.4,66.44l3.46-3.88"/><path class="cls-2" d="M142.71,66.69a17.63,17.63,0,0,1,3-4.14l-.24.17"/><path class="cls-2" d="M148.64,29.61a25.59,25.59,0,0,1,2.59-3.92"/><path class="cls-2" d="M148.92,36.79A43.39,43.39,0,0,1,152.53,31"/><path class="cls-2" d="M150.59,42.16q1.73-2.51,3.58-4.92c.09-.12.35-.2.35,0"/><path class="cls-2" d="M152.22,47.93q1.95-2.71,4-5.32"/><path class="cls-2" d="M153.86,54.81A38.87,38.87,0,0,1,158,49.37"/><path class="cls-2" d="M155.54,61a7.29,7.29,0,0,0,1.06-1.34,25.17,25.17,0,0,1,3.86-4.4l-.38.19"/><path class="cls-2" d="M158.19,66.81A35,35,0,0,1,162.43,62s.07-.06.1,0,0,.09,0,.07"/><path class="cls-2" d="M165.09,67.54a36.56,36.56,0,0,0,3.62-5.36"/><path class="cls-2" d="M171.27,11.39a25.08,25.08,0,0,1,5.88-3.73"/><path class="cls-2" d="M169.21,17.76l6.63-4.22"/><path class="cls-2" d="M167.87,23.24q3.3-2.54,6.83-4.78s.11-.08.08-.14-.12,0-.06,0"/><path class="cls-2" d="M166.94,28.62q3.35-2.55,6.75-5l-.6.05"/><path class="cls-2" d="M167.41,33.44a36.7,36.7,0,0,1,4.69-3.59l-.42-.06"/><path class="cls-2" d="M184.07,24.1l2.8-1.92c.14-.1.37-.18.47,0"/><path class="cls-2" d="M182,31.46a19.3,19.3,0,0,1,5.1-4.15"/><path class="cls-2" d="M181.72,38.83q2.87-2.43,5.76-4.82"/><path class="cls-2" d="M181.88,44.83q2.73-3.09,5.73-5.94"/><path class="cls-2" d="M181.61,52.48c1.54-2.48,4.23-4,6-6.34l-.61.5"/><path class="cls-2" d="M182.44,59.15a46.25,46.25,0,0,1,5-4.5l-.36.31"/><path class="cls-2" d="M182.45,66.33a39.32,39.32,0,0,1,4.65-4.69"/><path class="cls-2" d="M188.38,67.17q2.32-2.71,4.81-5.28"/><path class="cls-2" d="M193.3,67.52a34.8,34.8,0,0,1,4.57-5.11"/><path class="cls-4" d="M136.36,2c-.36,12,.26,48,.16,60,0,.52,3.69,1,11.71-.08,1.1-.14-.08-49-.08-49S161,60.37,163,61.84c.84.61,9.54.51,9.63.13C175,51.4,187.57,12.26,187.57,12.26s-.43,43.29.07,49.52c.06.78,10.75.52,14.06-.12.75-.15.54-53,0-59.73a146.84,146.84,0,0,0-21.87,0c-1.15.07-10.5,38.16-10.5,38.16s-10.58-38-11-38.16c-.66-.21-18.41-.36-22,0"/><path class="cls-3" d="M135.86,2c-.3,10.66-.09,21.35,0,32q.07,8.91.14,17.82,0,3.47,0,6.94c0,1-.45,3,.31,3.82s2.91.5,3.76.5c1.54,0,3.08-.1,4.61-.24,1-.09,3.15.14,3.85-.51.87-.82.53-3.44.56-4.49.24-8.37,0-16.77-.08-25.14q-.15-9.86-.39-19.71l-1,.13c4,14.68,7.84,29.5,12.77,43.9.48,1.39,1,4.29,2.29,5.24s3.79.53,5.14.54c1.14,0,4,.44,5-.33.77-.6.89-2.86,1.13-3.78.56-2.12,1.16-4.24,1.77-6.35,1.52-5.27,3.11-10.53,4.73-15.77q3.72-12.1,7.58-24.15l-1-.13q-.11,11.21-.15,22.42c0,5.65,0,11.31,0,17,0,2.1,0,4.2.07,6.3,0,1-.3,3,.15,3.9s2.22.84,3.2.88a68.86,68.86,0,0,0,8.92-.27c1-.09,2.48.09,3-.84a7,7,0,0,0,.19-2.44c.41-9.35.26-18.75.23-28.11,0-9.67.26-19.49-.47-29.14a.52.52,0,0,0-.5-.5,109.9,109.9,0,0,0-13-.35q-3.46.06-6.92.24c-.75,0-1.79-.2-2.39.33a6.13,6.13,0,0,0-1,2.44c-3,8.88-5.05,18.11-7.34,27.19q-1.09,4.34-2.16,8.68h1Q166.49,28,163.12,16.16c-1.2-4.23-2.38-8.47-3.69-12.67-.17-.53-.3-1.59-.77-2-.8-.62-3.22-.24-4.14-.26-6-.11-12.19-.42-18.17.19-.63.07-.64,1.07,0,1a137.11,137.11,0,0,1,15.32-.23,41.12,41.12,0,0,1,6.18.14c.65.11-.06-.42.21.14A10.13,10.13,0,0,1,158.53,4c2.81,9.1,5.29,18.32,7.87,27.49q1.23,4.37,2.44,8.75a.5.5,0,0,0,1,0c2.71-11.05,5.4-22.14,8.63-33.05.31-1.06.63-2.12,1-3.17a4.24,4.24,0,0,1,.42-1.15c.59-.74-.32-.13,1-.48,1.6-.45,3.77-.19,5.44-.24q2-.06,4-.08c2.41,0,4.83,0,7.24.1a20.36,20.36,0,0,0,3.6.21,1.88,1.88,0,0,1,.61.05c-.79-.2-.28-.4-.39.46-.26,2.06.15,4.47.2,6.55q.44,21.93.14,43.88c0,2.2-.05,4.42-.18,6.62,0,.33.08,1.15-.12,1.43.1-.13-1.12,0-1.54.06-1,.11-2.1.17-3.15.23-2,.1-4,.16-6,.09-1.46-.05-2.37.24-2.49-.84a71.5,71.5,0,0,1-.15-7.29c-.13-13.78,0-27.57.14-41.35a.5.5,0,0,0-1-.13c-4.94,15.39-10,30.81-14.13,46.45-.2.76-.38,1.53-.58,2.3s0,.73-1.08.82a36.37,36.37,0,0,1-6.75,0c-1.23-.13-1.34-.22-1.81-1.27s-.9-2.32-1.3-3.49c-2.83-8.23-5.16-16.64-7.53-25q-2.7-9.51-5.29-19a.5.5,0,0,0-1,.13c.32,13.13.6,26.26.55,39.39,0,2.66,0,5.35-.19,8-.14,1.78-.53,1.17-2.48,1.37A32.85,32.85,0,0,1,138,62c-.93-.13-.77,0-1-.66a11.27,11.27,0,0,1,0-2.79q0-3.22,0-6.45,0-8.22-.13-16.43c-.09-11.22-.33-22.46,0-33.68a.5.5,0,0,0-1,0Z"/><path class="cls-2" d="M734.45,1.74c-2.47,2.58-5.5,5.17-5.76,6s1.24,58.17,1.79,58.5c.34.21,12.4.25,13.23-.28s2.08-2.76,2.6-4.28"/><path class="cls-2" d="M746.66,35.25c.57,1.83,8.07,29.62,9.14,31,.11.15,10,1.35,11.39.48s2.2-2.78,3.55-5"/><path class="cls-2" d="M779.83,29.87c.07,10.57.11,35,.75,36,.78,1.22,15.3,1.21,15.55.81,1.52-2.45,2.23-3.1,3.76-5.55"/><path class="cls-2" d="M777.92,1.7a63.16,63.16,0,0,0-7.66,5.92c-.39.5-4.74,15.09-5.58,23"/><path class="cls-2" d="M729,12.87a31,31,0,0,1,4.92-5.36"/><path class="cls-2" d="M729.06,18.79a65.35,65.35,0,0,1,4.84-5.67"/><path class="cls-2" d="M728.81,24.1l1.77-1.91a31.44,31.44,0,0,1,3.34-3.27s.1-.07.15,0,0,.13,0,.1"/><path class="cls-2" d="M729.18,31.23a40.09,40.09,0,0,1,5-5.91"/><path class="cls-2" d="M729.65,36.6a21.47,21.47,0,0,1,4.8-4.93"/><path class="cls-2" d="M729.62,44.41a15.61,15.61,0,0,1,2.67-3.5l1.89-2s.11-.1.16-.07,0,.13,0,.07"/><path class="cls-2" d="M729.86,50.49q2.29-2.7,4.83-5.17"/><path class="cls-2" d="M730.63,57.59a23.68,23.68,0,0,1,4-4.53"/><path class="cls-2" d="M730.22,64.62a38.8,38.8,0,0,1,4-4.3"/><path class="cls-2" d="M734.5,66.22,738,62.34"/><path class="cls-2" d="M740.81,66.47a17.63,17.63,0,0,1,3-4.14l-.24.17"/><path class="cls-2" d="M746.74,29.39a25.59,25.59,0,0,1,2.59-3.92"/><path class="cls-2" d="M747,36.57a43.39,43.39,0,0,1,3.62-5.79"/><path class="cls-2" d="M748.69,41.94q1.73-2.51,3.58-4.92c.09-.12.35-.2.35,0"/><path class="cls-2" d="M750.32,47.71q1.95-2.71,4-5.32"/><path class="cls-2" d="M752,54.59a38.87,38.87,0,0,1,4.14-5.44"/><path class="cls-2" d="M753.64,60.78a7.29,7.29,0,0,0,1.06-1.34,25.17,25.17,0,0,1,3.86-4.4l-.38.19"/><path class="cls-2" d="M756.29,66.58a35,35,0,0,1,4.24-4.82s.07-.06.1,0,0,.09,0,.07"/><path class="cls-2" d="M763.19,67.32A36.56,36.56,0,0,0,766.81,62"/><path class="cls-2" d="M769.37,11.17a25.08,25.08,0,0,1,5.88-3.73"/><path class="cls-2" d="M767.3,17.54l6.63-4.22"/><path class="cls-2" d="M766,23q3.3-2.54,6.83-4.78s.11-.08.08-.14-.12,0-.06,0"/><path class="cls-2" d="M765,28.4q3.35-2.55,6.75-5l-.6.05"/><path class="cls-2" d="M765.51,33.22a36.7,36.7,0,0,1,4.69-3.59l-.42-.06"/><path class="cls-2" d="M782.17,23.87,785,22c.14-.1.37-.18.47,0"/><path class="cls-2" d="M780.11,31.24a19.3,19.3,0,0,1,5.1-4.15"/><path class="cls-2" d="M779.82,38.61q2.87-2.43,5.76-4.82"/><path class="cls-2" d="M780,44.61q2.73-3.09,5.73-5.94"/><path class="cls-2" d="M779.71,52.26c1.54-2.48,4.23-4,6-6.34l-.61.5"/><path class="cls-2" d="M780.54,58.93a46.25,46.25,0,0,1,5-4.5l-.36.31"/><path class="cls-2" d="M780.55,66.11a39.32,39.32,0,0,1,4.65-4.69"/><path class="cls-2" d="M786.48,67q2.32-2.71,4.81-5.28"/><path class="cls-2" d="M791.4,67.29A34.8,34.8,0,0,1,796,62.18"/><path class="cls-4" d="M734.45,1.74c-.36,12,.26,48,.16,60,0,.52,3.69,1,11.71-.08,1.1-.14-.08-49-.08-49s12.83,47.41,14.88,48.88c.84.61,9.54.51,9.63.13C773.1,51.18,785.67,12,785.67,12s-.43,43.29.07,49.52c.06.78,10.75.52,14.06-.12.75-.15.54-53,0-59.73a146.84,146.84,0,0,0-21.87,0c-1.15.07-10.5,38.16-10.5,38.16s-10.58-38-11-38.16c-.66-.21-18.41-.36-22,0"/><path class="cls-3" d="M734,1.74c-.3,10.66-.09,21.35,0,32q.07,8.91.14,17.82,0,3.47,0,6.94c0,1-.45,3,.31,3.82s2.91.5,3.76.5c1.54,0,3.08-.1,4.61-.24,1-.09,3.15.14,3.85-.51.87-.82.53-3.44.56-4.49.24-8.37,0-16.77-.08-25.14q-.15-9.86-.39-19.71l-1,.13c4,14.68,7.84,29.5,12.77,43.9.48,1.39,1,4.29,2.29,5.24s3.79.53,5.14.54c1.14,0,4,.44,5-.33.77-.6.89-2.86,1.13-3.78.56-2.12,1.16-4.24,1.77-6.35,1.52-5.27,3.11-10.53,4.73-15.77q3.72-12.1,7.58-24.15l-1-.13q-.11,11.21-.15,22.42c0,5.65,0,11.31,0,17,0,2.1,0,4.2.07,6.3,0,1-.3,3,.15,3.9s2.22.84,3.2.88a68.86,68.86,0,0,0,8.92-.27c1-.09,2.48.09,3-.84a7,7,0,0,0,.19-2.44c.41-9.35.26-18.75.23-28.11,0-9.67.26-19.49-.47-29.14a.52.52,0,0,0-.5-.5,109.9,109.9,0,0,0-13-.35q-3.46.06-6.92.24c-.75,0-1.79-.2-2.39.33a6.13,6.13,0,0,0-1,2.44c-3,8.88-5.05,18.11-7.34,27.19q-1.09,4.34-2.16,8.68h1q-3.31-11.91-6.69-23.79c-1.2-4.23-2.38-8.47-3.69-12.67-.17-.53-.3-1.59-.77-2-.8-.62-3.22-.24-4.14-.26-6-.11-12.19-.42-18.17.19-.63.07-.64,1.07,0,1A137.11,137.11,0,0,1,749.77,2a41.12,41.12,0,0,1,6.18.14c.65.11-.06-.42.21.14a10.13,10.13,0,0,1,.47,1.46c2.81,9.1,5.29,18.32,7.87,27.49q1.23,4.37,2.44,8.75a.5.5,0,0,0,1,0c2.71-11.05,5.4-22.14,8.63-33.05.31-1.06.63-2.12,1-3.17a4.24,4.24,0,0,1,.42-1.15c.59-.74-.32-.13,1-.48,1.6-.45,3.77-.19,5.44-.24q2-.06,4-.08c2.41,0,4.83,0,7.24.1a20.36,20.36,0,0,0,3.6.21,1.88,1.88,0,0,1,.61.05c-.79-.2-.28-.4-.39.46-.26,2.06.15,4.47.2,6.55q.44,21.93.14,43.88c0,2.2-.05,4.42-.18,6.62,0,.33.08,1.15-.12,1.43.1-.13-1.12,0-1.54.06-1,.11-2.1.17-3.15.23-2,.1-4,.16-6,.09-1.46-.05-2.37.24-2.49-.84a71.5,71.5,0,0,1-.15-7.29c-.13-13.78,0-27.57.14-41.35a.5.5,0,0,0-1-.13c-4.94,15.39-10,30.81-14.13,46.45-.2.76-.38,1.53-.58,2.3s0,.73-1.08.82a36.37,36.37,0,0,1-6.75,0c-1.23-.13-1.34-.22-1.81-1.27s-.9-2.32-1.3-3.49c-2.83-8.23-5.16-16.64-7.53-25q-2.7-9.51-5.29-19a.5.5,0,0,0-1,.13c.32,13.13.6,26.26.55,39.39,0,2.66,0,5.35-.19,8-.14,1.78-.53,1.17-2.48,1.37a32.85,32.85,0,0,1-7.54.23c-.93-.13-.77,0-1-.66a11.27,11.27,0,0,1,0-2.79q0-3.22,0-6.45,0-8.22-.13-16.43c-.09-11.22-.33-22.46,0-33.68a.5.5,0,0,0-1,0Z"/><path class="cls-1" d="M398.93,61.84c.26.25,71.67.71,73.47.11,1.26-.42.28-60,0-60-.57,0-13.33-.23-13.78.39-.28.38.23,47.31-.15,47.65s-15.16.15-15.81-.22c-1.33-.76.86-47.15-.22-47.87-.8-.54-13.62-.2-13.78.09a13.71,13.71,0,0,0-.06,2.66c.37,14.61.79,45.45-.12,45.75-.31.1-15.74.07-16-.28-.11-.17.35-47.8.11-48.18s-12.68-.57-13.71.46C398.09,3.26,398.67,61.59,398.93,61.84Z"/><path class="cls-2" d="M399,2.54c-2,1.67-4.77,4.16-5.73,7.06-.39,1.17,0,57.3.32,58,.81,1.52,73.8,1.35,74.5.92a33.52,33.52,0,0,0,4.51-6.81"/><path class="cls-2" d="M458.64,2.37c-1.45,1.29-5.16,4.47-5.44,5.07s-1.1,28.95-1.28,42.61"/><path class="cls-2" d="M428.68,2c-2.89,2-6.43,4.42-6.42,8,.06,13.65.74,26.85.79,40.5"/><path class="cls-2" d="M398.59,8.66a49.66,49.66,0,0,1-5.84,6.71"/><path class="cls-2" d="M398.64,14.27A47.71,47.71,0,0,0,393,20.09l.31-.3"/><path class="cls-2" d="M398.51,20.91c-2.08,1.92-3.65,3.45-5.64,5.46"/><path class="cls-2" d="M398.54,28.37,393,33.69"/><path class="cls-2" d="M393.08,41c1.9-1.54,3.43-2.7,5.43-4.1"/><path class="cls-2" d="M393.07,48.44a39.62,39.62,0,0,1,5.47-4.28"/><path class="cls-2" d="M393.28,55.64q2.75-2.1,5.39-4.35"/><path class="cls-2" d="M393.42,63.67a50.25,50.25,0,0,1,5.25-4.58"/><path class="cls-2" d="M396.38,68c2.52-2.23,4.08-3.69,6.48-6"/><path class="cls-2" d="M406.66,68.41l6.23-6.27"/><path class="cls-2" d="M415.21,68.7q3.12-3.32,6-6.83"/><path class="cls-2" d="M424.37,68.73,430,62.19"/><path class="cls-2" d="M435.53,68.9q2.62-3.59,5.59-6.91"/><path class="cls-2" d="M430,68.81A60.1,60.1,0,0,1,436.37,62"/><path class="cls-2" d="M442.87,68.75A45,45,0,0,1,449,62.33"/><path class="cls-2" d="M449.69,68.81c1.88-2.39,3.47-4.25,5.55-6.47"/><path class="cls-2" d="M456.5,68.25,462.25,62"/><path class="cls-2" d="M462.78,68.53l3.28-4.31a9,9,0,0,1,2.1-2.19"/><path class="cls-2" d="M422.33,14a72.93,72.93,0,0,1,6.21-6.08"/><path class="cls-2" d="M422.26,21.1a39.49,39.49,0,0,1,6.55-6"/><path class="cls-2" d="M422.33,27.7l6.6-6.61"/><path class="cls-2" d="M422.74,34.1,429,28.35"/><path class="cls-2" d="M422.79,41c2-1.86,4.12-4,6.25-5.65"/><path class="cls-2" d="M422.86,48.06,429,43.4"/><path class="cls-2" d="M452.9,13a59.7,59.7,0,0,1,5.53-4.8"/><path class="cls-2" d="M452.65,20.15a59,59,0,0,1,6-6.26"/><path class="cls-2" d="M452.66,25.7c1.73-1.66,4.11-3.7,6-5.17"/><path class="cls-2" d="M452.2,33.17a46.5,46.5,0,0,1,6.23-5.37"/><path class="cls-2" d="M452.2,39.55a65,65,0,0,1,6.49-5l-.89.67"/><path class="cls-2" d="M452.2,46.2a36.64,36.64,0,0,0,5.3-4.07,3.47,3.47,0,0,1,1.18-.83"/><path class="cls-2" d="M455,50.2a45.72,45.72,0,0,1,3.46-3.47"/><path class="cls-1" d="M557.71,72.26c-.55-6.81.23-14.07-.32-20.89,0-.28-3.63,0-5.24,0a.61.61,0,0,1-.63-.41C548.85,38.93,540.8,7.78,539.3,3a.82.82,0,0,0-.84-.52c-5.07.25-20.51-.47-20.74.18-1.06,3.06-2.43,8.4-3.06,11.25-.91,4.07-6.69,28.83-9,37.7-1.78-.16-3.74-.27-5.6-.31a.64.64,0,0,0-.64.75c1.11,6.92-.13,13.85,0,22.17a.83.83,0,0,0,1,.81l7.7.14a.56.56,0,0,0,.58-.61c-.26-3,1.4-9,1.4-12,0-1.07,36.28-.15,36.56,0s1.2,7.81,1.71,12.17a.58.58,0,0,0,.63.51c2.33-.23,8.35.47,8.66,0A8.43,8.43,0,0,0,557.71,72.26ZM535.64,51.32c-6.21-.6-11.54.14-17.89.14C520,40.88,524.44,14.37,526,14c.52-.11,2.39-.38,2.54.29.59,2.53,6.65,33.7,7.71,36A.66.66,0,0,1,535.64,51.32Z"/><path class="cls-2" d="M518.13,2.41A45.83,45.83,0,0,0,512,6.32c-.3.31-8.82,29.63-10.92,45"/><path class="cls-2" d="M508.43,75.05a34.57,34.57,0,0,1-3.46,4c-.26.13-10.75-.23-10.91-.44s.78-21.68,1.05-22.25c.72-1.52,3-3.68,4.26-4.68"/><path class="cls-2" d="M509.21,67.38c2.88-1.38,29.92-.46,31.15.59,1.62,1.38,1.75,9.71,1.88,11.53,0,.54,12,1.24,12.75.56,1.35-3,1.33-2,2.68-5"/><path class="cls-2" d="M523.31,22.22A146.78,146.78,0,0,1,530,51.39"/><path class="cls-2" d="M510.39,11.54a43.27,43.27,0,0,1,4.53-2.84,2.13,2.13,0,0,1,.87-.31l-.12.18"/><path class="cls-2" d="M509,16.91a17.4,17.4,0,0,1,3.52-2.44l1.75-1s.09,0,.13,0,0,.09,0,0"/><path class="cls-2" d="M507.3,22.7a18.31,18.31,0,0,0,2-1.45,13.91,13.91,0,0,1,3.86-2"/><path class="cls-2" d="M506,27.5l5.16-3.18a1.25,1.25,0,0,1,1.06-.27"/><path class="cls-2" d="M504.82,33a22.33,22.33,0,0,1,6.11-3.1.18.18,0,0,0,.11-.08s0-.11-.07-.09"/><path class="cls-2" d="M503.33,39.1q2.07-1.29,4.23-2.45a5,5,0,0,1,1.91-.7l-.31,0"/><path class="cls-2" d="M502.46,44.14l4.82-3.1.85-.54"/><path class="cls-2" d="M501.19,49.92l5.8-3.7"/><path class="cls-2" d="M523.92,20.46a51.31,51.31,0,0,1,5-4.13"/><path class="cls-2" d="M524.89,27.16A62.07,62.07,0,0,1,530,22.25l-.23.12"/><path class="cls-2" d="M526.52,32.8l5-5.09"/><path class="cls-2" d="M528,39.25a15.18,15.18,0,0,1,1.2-1.48l3.73-3.88"/><path class="cls-2" d="M528.84,44.14l5-4.77"/><path class="cls-2" d="M529.86,50.22A31.81,31.81,0,0,1,535.08,45l-.48.38"/><path class="cls-2" d="M494.76,61a15.17,15.17,0,0,1,5-4.13"/><path class="cls-2" d="M494.55,66.26a13.92,13.92,0,0,1,3.28-3.13,7.45,7.45,0,0,1,1.9-1l-.25.1"/><path class="cls-2" d="M494.12,71.26a19.6,19.6,0,0,1,5.4-4.31"/><path class="cls-2" d="M494,76.15a12.1,12.1,0,0,1,4.47-3.67,1.21,1.21,0,0,1,.71-.19"/><path class="cls-2" d="M509.91,67.26c0-.12.06-.23.14-.32l3.22-3.49c.52-.57.67-.75,1.22-1.3"/><path class="cls-2" d="M516.44,66.68a13,13,0,0,1,1.75-2.17c.77-.92,1-1.51,1.74-2.43"/><path class="cls-2" d="M521.77,66.68a36.89,36.89,0,0,0,4-4.53"/><path class="cls-2" d="M526.33,66.8a41.31,41.31,0,0,0,4.14-4.63"/><path class="cls-2" d="M531.23,66.88a39.14,39.14,0,0,0,4.36-4.76"/><path class="cls-2" d="M536.73,67.36c1.13-1.8,3.17-3.06,4.09-5"/><path class="cls-2" d="M540.45,68.47A34.82,34.82,0,0,0,546,62.75"/><path class="cls-2" d="M541.79,74.25q3.14-2.32,6-4.94"/><path class="cls-1" d="M620.58,62.06c.25.18,13.23-.23,13.56-.62s.47-37.48.19-48.41c5.53.12,11.34-.64,16.87-.51.94,3.19.49,7.47.35,10.79-.55,12.73-.3,38.24-.18,38.39a83,83,0,0,0,13.79-.16,53.21,53.21,0,0,0-.08-9.46c-.16-3,.51-47.12-.06-50.31-.17-1-44-.35-44.49,0C619.7,2.39,619.89,61.56,620.58,62.06Z"/><path class="cls-2" d="M620.53,1.77c-1.8,2.09-6.31,7.28-6.54,7.94s-.19,56.73,0,57,15,.44,15.54,0a53.18,53.18,0,0,0,4.14-5.25"/><path class="cls-2" d="M634,19.25c2,.13,10.37-.23,11,.18,1.42.93-.87,46.15,1.21,48,.31.27,13.75.58,13.93.43,2.61-2.14,3.28-3.55,5-6.3"/><path class="cls-2" d="M620.08,8.62a80,80,0,0,1-6.24,6.11"/><path class="cls-2" d="M613.84,21c2.22-1.75,4.11-3.16,6.43-4.78"/><path class="cls-2" d="M613.84,27.24c2.3-1.73,4.23-3.32,6.39-5.22"/><path class="cls-2" d="M613.85,33.47a76.1,76.1,0,0,1,6.13-5.1"/><path class="cls-2" d="M613.91,40.33l6-4.93"/><path class="cls-2" d="M613.84,46.43l6.48-4.72"/><path class="cls-2" d="M613.77,52.68l4.12-3.25a20.29,20.29,0,0,1,2.36-1.68"/><path class="cls-2" d="M614,58c2.44-1.53,4.2-2.66,6.61-4.24"/><path class="cls-2" d="M614,65.65a50.14,50.14,0,0,1,6.43-5.44"/><path class="cls-2" d="M618.78,66.92c1.53-1.59,3.52-3.26,5-4.85"/><path class="cls-2" d="M625,66.77l5-4.91"/><path class="cls-2" d="M634.17,19.48A41.66,41.66,0,0,1,640,12.83"/><path class="cls-2" d="M639.77,19.19l7.54-6.75"/><path class="cls-2" d="M645.31,20.61c2.28-2.14,4.05-3.68,6.48-5.66"/><path class="cls-2" d="M645.51,29.48l6.14-5.29"/><path class="cls-2" d="M645.53,36.45a41.83,41.83,0,0,1,5.84-5"/><path class="cls-2" d="M645.31,44.31c2-1.51,4.11-3,6.06-4.6"/><path class="cls-2" d="M645.31,52a35.1,35.1,0,0,1,6.06-4.75"/><path class="cls-2" d="M645.29,60.75a24.31,24.31,0,0,1,6-5.34"/><path class="cls-2" d="M647.23,67.52,653,61.78"/><path class="cls-2" d="M654.55,67.79c1.74-2.16,3.77-4,5.72-5.94"/></g></g></svg>